M48
; DRILL file {KiCad 7.0.1} date Sat Mar 23 22:37:24 2024
; FORMAT={-:-/ absolute / metric / decimal}
; #@! TF.CreationDate,2024-03-23T22:37:24-05:00
; #@! TF.GenerationSoftware,Kicad,Pcbnew,7.0.1
; #@! TF.FileFunction,Plated,1,4,PTH
FMAT,2
METRIC
; #@! TA.AperFunction,Plated,PTH,ViaDrill
T1C0.400
; #@! TA.AperFunction,Plated,PTH,ComponentDrill
T2C1.016
; #@! TA.AperFunction,Plated,PTH,ComponentDrill
T3C1.020
; #@! TA.AperFunction,Plated,PTH,ComponentDrill
T4C2.700
%
G90
G05
T1
X60.25Y-42.5
X61.0Y-41.75
X61.0Y-43.25
X62.75Y-92.5
X62.8Y-95.8
X63.1Y-51.712
X64.5Y-41.25
X64.5Y-42.75
X64.6Y-44.48
X65.0Y-75.4
X65.0Y-77.0
X65.5Y-42.0
X65.5Y-43.5
X65.7Y-76.1
X66.4Y-75.4
X68.051Y-79.896
X69.75Y-78.5
X70.75Y-79.25
X70.845Y-77.356
X75.337Y-93.646
X76.962Y-43.434
X77.424Y-79.921
X78.075Y-87.599
X78.325Y-86.099
X79.325Y-86.849
X79.6Y-68.4
X79.756Y-43.5
X79.8Y-57.8
X80.5Y-82.0
X81.25Y-81.25
X82.0Y-82.0
X82.75Y-81.25
X84.5Y-85.0
X86.2Y-94.431
X88.077Y-90.596
X88.458Y-87.675
X88.966Y-90.977
X89.4Y-83.0
X89.8Y-84.0
X90.8Y-84.8
X92.0Y-85.0
X93.5Y-74.25
X93.5Y-80.75
X93.75Y-76.75
X93.75Y-78.5
X97.221Y-87.675
X97.5Y-65.25
X98.75Y-66.5
X103.0Y-74.25
X103.0Y-76.75
X103.0Y-78.5
X103.0Y-80.75
X106.426Y-32.766
X107.0Y-102.4
X108.2Y-66.2
X108.25Y-56.8
X108.8Y-76.8
X108.966Y-34.29
X110.8Y-102.4
T2
X90.89Y-52.754
X90.89Y-56.254
X90.89Y-59.754
X90.89Y-63.254
X95.49Y-56.254
X95.49Y-59.754
X95.49Y-63.254
T3
X95.49Y-52.754
T4
X53.106Y-40.102
X53.106Y-90.698
X53.7Y-49.75
X56.642Y-36.566
X56.642Y-94.234
X58.7Y-49.75
X74.5Y-30.0
X79.5Y-30.0
X79.75Y-99.25
X84.75Y-99.25
X93.0Y-30.0
X98.0Y-30.0
X117.0Y-54.75
X117.0Y-64.75
X117.0Y-74.75
X120.052Y-36.566
X120.052Y-94.234
X122.0Y-54.75
X122.0Y-64.75
X122.0Y-74.75
X123.588Y-40.102
X123.588Y-90.698
T0
M30
