%TF.GenerationSoftware,KiCad,Pcbnew,7.0.1*%
%TF.CreationDate,2024-03-23T22:37:20-05:00*%
%TF.ProjectId,Chassis,43686173-7369-4732-9e6b-696361645f70,rev?*%
%TF.SameCoordinates,Original*%
%TF.FileFunction,Copper,L4,Bot*%
%TF.FilePolarity,Positive*%
%FSLAX46Y46*%
G04 Gerber Fmt 4.6, Leading zero omitted, Abs format (unit mm)*
G04 Created by KiCad (PCBNEW 7.0.1) date 2024-03-23 22:37:20*
%MOMM*%
%LPD*%
G01*
G04 APERTURE LIST*
G04 Aperture macros list*
%AMRotRect*
0 Rectangle, with rotation*
0 The origin of the aperture is its center*
0 $1 length*
0 $2 width*
0 $3 Rotation angle, in degrees counterclockwise*
0 Add horizontal line*
21,1,$1,$2,0,0,$3*%
G04 Aperture macros list end*
%TA.AperFunction,ComponentPad*%
%ADD10R,3.800000X3.800000*%
%TD*%
%TA.AperFunction,ComponentPad*%
%ADD11C,4.000000*%
%TD*%
%TA.AperFunction,ComponentPad*%
%ADD12RotRect,3.800000X3.800000X315.000000*%
%TD*%
%TA.AperFunction,ComponentPad*%
%ADD13RotRect,3.800000X3.800000X135.000000*%
%TD*%
%TA.AperFunction,ComponentPad*%
%ADD14R,1.520000X1.520000*%
%TD*%
%TA.AperFunction,ComponentPad*%
%ADD15C,1.520000*%
%TD*%
%TA.AperFunction,ComponentPad*%
%ADD16RotRect,3.800000X3.800000X45.000000*%
%TD*%
%TA.AperFunction,ComponentPad*%
%ADD17RotRect,3.800000X3.800000X225.000000*%
%TD*%
%TA.AperFunction,ViaPad*%
%ADD18C,0.800000*%
%TD*%
%TA.AperFunction,Conductor*%
%ADD19C,0.250000*%
%TD*%
%TA.AperFunction,Conductor*%
%ADD20C,0.200000*%
%TD*%
%TA.AperFunction,Conductor*%
%ADD21C,0.350000*%
%TD*%
G04 APERTURE END LIST*
D10*
X58700000Y-49750000D03*
D11*
X53700000Y-49750000D03*
D10*
X79750000Y-99250000D03*
D11*
X84750000Y-99250000D03*
D12*
X53106466Y-90698466D03*
D11*
X56642000Y-94234000D03*
D13*
X123587534Y-40101534D03*
D11*
X120052000Y-36566000D03*
D14*
X95489998Y-52754000D03*
D15*
X95489998Y-56254001D03*
X95489998Y-59754001D03*
X95489998Y-63254002D03*
X90889997Y-52754000D03*
X90889997Y-56254001D03*
X90889997Y-59754001D03*
X90889997Y-63254002D03*
D16*
X53106466Y-40101534D03*
D11*
X56642000Y-36566000D03*
D10*
X122000000Y-74750000D03*
D11*
X117000000Y-74750000D03*
D10*
X122000000Y-64750000D03*
D11*
X117000000Y-64750000D03*
D17*
X123587534Y-90698466D03*
D11*
X120052000Y-94234000D03*
D10*
X122000000Y-54750000D03*
D11*
X117000000Y-54750000D03*
D10*
X98000000Y-30000000D03*
D11*
X93000000Y-30000000D03*
D10*
X79500000Y-30000000D03*
D11*
X74500000Y-30000000D03*
D18*
X62750000Y-92500000D03*
X108966000Y-34290000D03*
X62800000Y-95800000D03*
X79756000Y-43500000D03*
X76962000Y-43434000D03*
X110800000Y-102400000D03*
X106426000Y-32766000D03*
X97500000Y-65250000D03*
X107000000Y-102400000D03*
X98750000Y-66500000D03*
X103000000Y-74250000D03*
X93500000Y-74250000D03*
X84500000Y-85000000D03*
X70845000Y-77356000D03*
X108800000Y-76800000D03*
X79800000Y-57800000D03*
X78325000Y-86098999D03*
X88458000Y-87675000D03*
X69750000Y-78500000D03*
X88966000Y-90977000D03*
X78075000Y-87598999D03*
X108200000Y-66200000D03*
X68050999Y-79895999D03*
X88077000Y-90596000D03*
X77423600Y-79921399D03*
X79600000Y-68400000D03*
X97221000Y-87675000D03*
X70750000Y-79250000D03*
X108250000Y-56800000D03*
X64600000Y-44480000D03*
X79325000Y-86848999D03*
X65000000Y-77000000D03*
X65000000Y-75400000D03*
X66400000Y-75400000D03*
X65700000Y-76100000D03*
X86200000Y-94431400D03*
X75337000Y-93646000D03*
X93500000Y-80750000D03*
X103000000Y-80750000D03*
X103000000Y-76750000D03*
X93750000Y-76750000D03*
X93750000Y-78500000D03*
X103000000Y-78500000D03*
X64500000Y-42750000D03*
X82000000Y-82000000D03*
X63100000Y-51712500D03*
X80500000Y-82000000D03*
X65500000Y-43500000D03*
X90800000Y-84800000D03*
X61000000Y-41750000D03*
X65500000Y-42000000D03*
X61000000Y-43250000D03*
X60250000Y-42500000D03*
X81250000Y-81250000D03*
X89800000Y-84000000D03*
X92000000Y-85000000D03*
X64500000Y-41250000D03*
X89400000Y-83000000D03*
X82750000Y-81250000D03*
D19*
X103876000Y-39624000D02*
X108966000Y-34534000D01*
X79756000Y-43434000D02*
X83566000Y-39624000D01*
X87760450Y-40184451D02*
X87800000Y-40184451D01*
D20*
X62800000Y-95800000D02*
X62750000Y-95750000D01*
D19*
X88080225Y-39904226D02*
X88080225Y-39904225D01*
X87480225Y-39904225D02*
X87480225Y-39904226D01*
X79756000Y-43500000D02*
X79756000Y-43434000D01*
X88400000Y-39624000D02*
X103876000Y-39624000D01*
X88360450Y-39624000D02*
X88400000Y-39624000D01*
X83566000Y-39624000D02*
X87200000Y-39624000D01*
D20*
X62750000Y-95750000D02*
X62750000Y-92500000D01*
D19*
X108966000Y-34534000D02*
X108966000Y-34290000D01*
X87480149Y-39904226D02*
G75*
G03*
X87760450Y-40184451I280251J26D01*
G01*
X87800000Y-40184425D02*
G75*
G03*
X88080225Y-39904226I0J280225D01*
G01*
X87480200Y-39904225D02*
G75*
G03*
X87200000Y-39624000I-280200J25D01*
G01*
X88360450Y-39624025D02*
G75*
G03*
X88080225Y-39904225I-50J-280175D01*
G01*
X101600000Y-37592000D02*
X82804000Y-37592000D01*
X106426000Y-32766000D02*
X101600000Y-37592000D01*
X82804000Y-37592000D02*
X76962000Y-43434000D01*
D20*
X107000000Y-102400000D02*
X110800000Y-102400000D01*
D21*
X103000000Y-74250000D02*
X93500000Y-74250000D01*
D19*
X86200000Y-94431400D02*
X76122400Y-94431400D01*
X76122400Y-94431400D02*
X75337000Y-93646000D01*
D21*
X103000000Y-80750000D02*
X93500000Y-80750000D01*
D19*
X93750000Y-76750000D02*
X103000000Y-76750000D01*
D20*
X93750000Y-78500000D02*
X103000000Y-78500000D01*
%TA.AperFunction,Conductor*%
G36*
X84554261Y-84607708D02*
G01*
X84609990Y-84619553D01*
X84634630Y-84627559D01*
X84686681Y-84650734D01*
X84709130Y-84663695D01*
X84755217Y-84697179D01*
X84774480Y-84714523D01*
X84812600Y-84756858D01*
X84827836Y-84777827D01*
X84856323Y-84827169D01*
X84866865Y-84850847D01*
X84884468Y-84905023D01*
X84889858Y-84930382D01*
X84895812Y-84987040D01*
X84895812Y-85012959D01*
X84889858Y-85069613D01*
X84884468Y-85094971D01*
X84866864Y-85149151D01*
X84856320Y-85172833D01*
X84827836Y-85222169D01*
X84812599Y-85243141D01*
X84774488Y-85285468D01*
X84755221Y-85302816D01*
X84709124Y-85336306D01*
X84686677Y-85349265D01*
X84634639Y-85372434D01*
X84609986Y-85380445D01*
X84572790Y-85388352D01*
X84554263Y-85392290D01*
X84528482Y-85395000D01*
X84471516Y-85395000D01*
X84445737Y-85392290D01*
X84407635Y-85384191D01*
X84390010Y-85380445D01*
X84365358Y-85372435D01*
X84356035Y-85368284D01*
X84313313Y-85349263D01*
X84290868Y-85336304D01*
X84244779Y-85302818D01*
X84225515Y-85285473D01*
X84187397Y-85243139D01*
X84172160Y-85222166D01*
X84143676Y-85172830D01*
X84133133Y-85149151D01*
X84115529Y-85094971D01*
X84110140Y-85069617D01*
X84104186Y-85012958D01*
X84104186Y-84987040D01*
X84110140Y-84930382D01*
X84110141Y-84930375D01*
X84115530Y-84905022D01*
X84133135Y-84850840D01*
X84143670Y-84827176D01*
X84172162Y-84777826D01*
X84187397Y-84756858D01*
X84225517Y-84714521D01*
X84244779Y-84697179D01*
X84290869Y-84663692D01*
X84313316Y-84650734D01*
X84365359Y-84627563D01*
X84390015Y-84619552D01*
X84390025Y-84619550D01*
X84394509Y-84618596D01*
X84445736Y-84607709D01*
X84471515Y-84605000D01*
X84528488Y-84605000D01*
X84554261Y-84607708D01*
G37*
%TD.AperFunction*%
%TA.AperFunction,Conductor*%
G36*
X124295209Y-25400448D02*
G01*
X124295469Y-25400500D01*
X124344128Y-25400500D01*
X124349854Y-25400632D01*
X124365811Y-25401369D01*
X124520088Y-25408502D01*
X124716795Y-25418166D01*
X124727787Y-25419201D01*
X124909876Y-25444601D01*
X124910781Y-25444732D01*
X125094261Y-25471949D01*
X125104413Y-25473892D01*
X125285614Y-25516510D01*
X125287023Y-25516852D01*
X125464874Y-25561401D01*
X125474091Y-25564096D01*
X125651478Y-25623550D01*
X125653618Y-25624292D01*
X125825220Y-25685692D01*
X125833519Y-25689004D01*
X126004980Y-25764712D01*
X126007909Y-25766051D01*
X126094263Y-25806892D01*
X126172119Y-25843715D01*
X126179411Y-25847465D01*
X126276135Y-25901341D01*
X126343435Y-25938827D01*
X126346810Y-25940777D01*
X126502371Y-26034017D01*
X126508670Y-26038058D01*
X126663699Y-26144256D01*
X126667459Y-26146935D01*
X126813009Y-26254882D01*
X126818305Y-26259040D01*
X126963009Y-26379200D01*
X126966947Y-26382617D01*
X127101206Y-26504303D01*
X127105590Y-26508478D01*
X127238520Y-26641408D01*
X127242698Y-26645795D01*
X127364375Y-26780045D01*
X127367805Y-26783998D01*
X127487951Y-26928684D01*
X127492124Y-26934000D01*
X127600041Y-27079509D01*
X127602742Y-27083299D01*
X127708940Y-27238328D01*
X127712999Y-27244656D01*
X127806200Y-27400153D01*
X127808171Y-27403563D01*
X127899525Y-27567573D01*
X127903291Y-27574896D01*
X127980947Y-27739089D01*
X127982286Y-27742018D01*
X128057994Y-27913479D01*
X128061311Y-27921791D01*
X128122666Y-28093265D01*
X128123487Y-28095634D01*
X128182894Y-28272881D01*
X128185606Y-28282157D01*
X128230104Y-28459803D01*
X128230526Y-28461543D01*
X128273101Y-28642562D01*
X128275053Y-28652758D01*
X128302257Y-28836156D01*
X128302410Y-28837218D01*
X128327794Y-29019184D01*
X128328834Y-29030232D01*
X128338512Y-29227238D01*
X128338529Y-29227595D01*
X128346368Y-29397145D01*
X128346500Y-29402872D01*
X128346500Y-101397128D01*
X128346368Y-101402855D01*
X128338529Y-101572404D01*
X128338512Y-101572761D01*
X128328834Y-101769766D01*
X128327794Y-101780814D01*
X128302410Y-101962780D01*
X128302257Y-101963842D01*
X128275053Y-102147240D01*
X128273101Y-102157436D01*
X128230526Y-102338455D01*
X128230104Y-102340195D01*
X128185606Y-102517841D01*
X128182894Y-102527117D01*
X128123487Y-102704364D01*
X128122666Y-102706733D01*
X128061311Y-102878207D01*
X128057994Y-102886519D01*
X127982286Y-103057980D01*
X127980947Y-103060909D01*
X127903291Y-103225102D01*
X127899525Y-103232425D01*
X127808171Y-103396435D01*
X127806200Y-103399845D01*
X127712999Y-103555342D01*
X127708940Y-103561670D01*
X127602742Y-103716699D01*
X127600041Y-103720489D01*
X127492135Y-103865984D01*
X127487935Y-103871334D01*
X127367851Y-104015947D01*
X127364331Y-104020004D01*
X127242717Y-104154183D01*
X127238520Y-104158590D01*
X127105590Y-104291520D01*
X127101183Y-104295717D01*
X126967004Y-104417331D01*
X126962947Y-104420851D01*
X126818334Y-104540935D01*
X126812984Y-104545135D01*
X126667489Y-104653041D01*
X126663699Y-104655742D01*
X126508670Y-104761940D01*
X126502342Y-104765999D01*
X126346845Y-104859200D01*
X126343435Y-104861171D01*
X126179425Y-104952525D01*
X126172102Y-104956291D01*
X126007909Y-105033947D01*
X126004980Y-105035286D01*
X125833519Y-105110994D01*
X125825207Y-105114311D01*
X125653733Y-105175666D01*
X125651364Y-105176487D01*
X125474117Y-105235894D01*
X125464841Y-105238606D01*
X125287195Y-105283104D01*
X125285455Y-105283526D01*
X125104436Y-105326101D01*
X125094240Y-105328053D01*
X124910842Y-105355257D01*
X124909780Y-105355410D01*
X124727814Y-105380794D01*
X124716766Y-105381834D01*
X124519931Y-105391503D01*
X124519575Y-105391520D01*
X124354393Y-105399158D01*
X124349854Y-105399368D01*
X124344128Y-105399500D01*
X52349872Y-105399500D01*
X52344145Y-105399368D01*
X52339305Y-105399144D01*
X52174423Y-105391520D01*
X52174067Y-105391503D01*
X51977232Y-105381834D01*
X51966184Y-105380794D01*
X51784218Y-105355410D01*
X51783156Y-105355257D01*
X51599758Y-105328053D01*
X51589562Y-105326101D01*
X51408543Y-105283526D01*
X51406803Y-105283104D01*
X51229157Y-105238606D01*
X51219881Y-105235894D01*
X51042634Y-105176487D01*
X51040265Y-105175666D01*
X50868791Y-105114311D01*
X50860479Y-105110994D01*
X50689018Y-105035286D01*
X50686089Y-105033947D01*
X50521896Y-104956291D01*
X50514573Y-104952525D01*
X50350563Y-104861171D01*
X50347153Y-104859200D01*
X50327648Y-104847509D01*
X50191645Y-104765992D01*
X50185328Y-104761940D01*
X50030299Y-104655742D01*
X50026509Y-104653041D01*
X49881000Y-104545124D01*
X49875684Y-104540951D01*
X49730998Y-104420805D01*
X49727045Y-104417375D01*
X49592795Y-104295698D01*
X49588408Y-104291520D01*
X49455478Y-104158590D01*
X49451303Y-104154206D01*
X49329617Y-104019947D01*
X49326200Y-104016009D01*
X49206040Y-103871305D01*
X49201882Y-103866009D01*
X49093935Y-103720459D01*
X49091256Y-103716699D01*
X48985058Y-103561670D01*
X48981017Y-103555371D01*
X48887777Y-103399810D01*
X48885827Y-103396435D01*
X48804541Y-103250500D01*
X48794465Y-103232411D01*
X48790715Y-103225119D01*
X48722086Y-103080013D01*
X48713051Y-103060909D01*
X48711712Y-103057980D01*
X48636004Y-102886519D01*
X48632692Y-102878220D01*
X48571292Y-102706618D01*
X48570550Y-102704478D01*
X48511096Y-102527091D01*
X48508401Y-102517874D01*
X48463852Y-102340023D01*
X48463510Y-102338614D01*
X48420892Y-102157413D01*
X48418949Y-102147261D01*
X48391732Y-101963781D01*
X48391588Y-101962780D01*
X48366201Y-101780787D01*
X48365166Y-101769795D01*
X48355481Y-101572628D01*
X48350633Y-101467764D01*
X50492787Y-101467764D01*
X50522413Y-101737016D01*
X50559484Y-101878812D01*
X50590928Y-101999088D01*
X50653886Y-102147240D01*
X50696871Y-102248392D01*
X50837982Y-102479611D01*
X50928398Y-102588257D01*
X51011255Y-102687820D01*
X51212998Y-102868582D01*
X51438910Y-103018044D01*
X51489004Y-103041527D01*
X51684177Y-103133021D01*
X51943562Y-103211058D01*
X51943569Y-103211060D01*
X52211561Y-103250500D01*
X52414631Y-103250500D01*
X52414634Y-103250500D01*
X52617156Y-103235677D01*
X52664552Y-103225119D01*
X52881553Y-103176780D01*
X53134558Y-103080014D01*
X53370777Y-102947441D01*
X53585177Y-102781888D01*
X53773186Y-102586881D01*
X53930799Y-102366579D01*
X54054656Y-102125675D01*
X54142118Y-101869305D01*
X54191319Y-101602933D01*
X54201212Y-101332235D01*
X54171586Y-101062982D01*
X54103072Y-100800912D01*
X53997130Y-100551610D01*
X53856018Y-100320390D01*
X53856017Y-100320388D01*
X53682746Y-100112181D01*
X53577758Y-100018112D01*
X53557544Y-100000000D01*
X77350000Y-100000000D01*
X77350000Y-101197824D01*
X77356402Y-101257375D01*
X77406647Y-101392089D01*
X77492811Y-101507188D01*
X77607910Y-101593352D01*
X77742624Y-101643597D01*
X77802176Y-101650000D01*
X79000000Y-101650000D01*
X79000000Y-100000000D01*
X77350000Y-100000000D01*
X53557544Y-100000000D01*
X53481002Y-99931418D01*
X53255090Y-99781956D01*
X53255086Y-99781954D01*
X53009822Y-99666978D01*
X52750437Y-99588941D01*
X52750431Y-99588940D01*
X52482439Y-99549500D01*
X52279369Y-99549500D01*
X52279366Y-99549500D01*
X52076843Y-99564322D01*
X51812449Y-99623219D01*
X51559441Y-99719986D01*
X51323223Y-99852559D01*
X51108825Y-100018109D01*
X50920813Y-100213120D01*
X50763201Y-100433420D01*
X50639342Y-100674329D01*
X50551881Y-100930695D01*
X50502680Y-101197066D01*
X50492787Y-101467764D01*
X48350633Y-101467764D01*
X48347630Y-101402824D01*
X48347499Y-101397147D01*
X48347498Y-101392089D01*
X48346753Y-98500000D01*
X77350000Y-98500000D01*
X79000000Y-98500000D01*
X79000000Y-96850000D01*
X77802176Y-96850000D01*
X77742624Y-96856402D01*
X77607910Y-96906647D01*
X77492811Y-96992811D01*
X77406647Y-97107910D01*
X77356402Y-97242624D01*
X77350000Y-97302176D01*
X77350000Y-98500000D01*
X48346753Y-98500000D01*
X48345316Y-92925852D01*
X51939739Y-92925852D01*
X52786733Y-93772846D01*
X52833364Y-93810424D01*
X52964150Y-93870152D01*
X53106466Y-93890613D01*
X53248781Y-93870152D01*
X53379567Y-93810424D01*
X53426198Y-93772846D01*
X54187969Y-93011075D01*
X54247840Y-92977915D01*
X54316184Y-92981568D01*
X54372179Y-93020922D01*
X54398767Y-93083987D01*
X54387849Y-93151552D01*
X54312496Y-93311685D01*
X54215269Y-93610917D01*
X54156311Y-93919989D01*
X54136555Y-94233999D01*
X54156311Y-94548010D01*
X54215269Y-94857082D01*
X54287699Y-95079995D01*
X54312497Y-95156315D01*
X54442091Y-95431715D01*
X54446463Y-95441007D01*
X54615053Y-95706663D01*
X54815612Y-95949097D01*
X55044971Y-96164480D01*
X55299515Y-96349416D01*
X55437375Y-96425205D01*
X55575234Y-96500994D01*
X55721504Y-96558906D01*
X55867774Y-96616819D01*
X55973051Y-96643849D01*
X56172527Y-96695066D01*
X56405811Y-96724536D01*
X56484680Y-96734500D01*
X56484682Y-96734500D01*
X56799318Y-96734500D01*
X56799320Y-96734500D01*
X56870988Y-96725446D01*
X57111473Y-96695066D01*
X57416225Y-96616819D01*
X57708766Y-96500994D01*
X57984484Y-96349416D01*
X58008158Y-96332216D01*
X58239028Y-96164480D01*
X58468387Y-95949097D01*
X58468387Y-95949096D01*
X58468390Y-95949094D01*
X58668947Y-95706663D01*
X58837537Y-95441007D01*
X58971503Y-95156315D01*
X59068731Y-94857079D01*
X59127688Y-94548015D01*
X59147444Y-94234000D01*
X59127688Y-93919985D01*
X59068731Y-93610921D01*
X58971503Y-93311685D01*
X58837537Y-93026993D01*
X58668947Y-92761337D01*
X58468390Y-92518906D01*
X58468387Y-92518902D01*
X58448258Y-92500000D01*
X61844540Y-92500000D01*
X61864326Y-92688257D01*
X61922820Y-92868284D01*
X62017466Y-93032216D01*
X62117650Y-93143481D01*
X62141264Y-93182015D01*
X62149500Y-93226453D01*
X62149500Y-95129078D01*
X62141264Y-95173516D01*
X62117651Y-95212048D01*
X62096840Y-95235161D01*
X62067464Y-95267786D01*
X61972820Y-95431715D01*
X61914326Y-95611742D01*
X61894540Y-95800000D01*
X61914326Y-95988257D01*
X61972820Y-96168284D01*
X62067466Y-96332216D01*
X62194129Y-96472889D01*
X62347269Y-96584151D01*
X62520197Y-96661144D01*
X62705352Y-96700500D01*
X62705354Y-96700500D01*
X62894646Y-96700500D01*
X62894648Y-96700500D01*
X63018084Y-96674262D01*
X63079803Y-96661144D01*
X63252730Y-96584151D01*
X63252730Y-96584150D01*
X63405870Y-96472889D01*
X63532533Y-96332216D01*
X63627179Y-96168284D01*
X63628416Y-96164478D01*
X63685674Y-95988256D01*
X63705460Y-95800000D01*
X63685674Y-95611744D01*
X63627179Y-95431716D01*
X63627179Y-95431715D01*
X63532533Y-95267783D01*
X63405871Y-95127112D01*
X63401614Y-95124019D01*
X63364015Y-95079995D01*
X63350500Y-95023701D01*
X63350500Y-93226453D01*
X63358736Y-93182015D01*
X63382350Y-93143481D01*
X63482533Y-93032216D01*
X63577179Y-92868284D01*
X63579270Y-92861848D01*
X63635674Y-92688256D01*
X63655460Y-92500000D01*
X63635674Y-92311744D01*
X63577179Y-92131716D01*
X63577179Y-92131715D01*
X63482533Y-91967783D01*
X63355870Y-91827110D01*
X63202730Y-91715848D01*
X63029802Y-91638855D01*
X62844648Y-91599500D01*
X62844646Y-91599500D01*
X62655354Y-91599500D01*
X62655352Y-91599500D01*
X62470197Y-91638855D01*
X62297269Y-91715848D01*
X62144129Y-91827110D01*
X62017466Y-91967783D01*
X61922820Y-92131715D01*
X61864326Y-92311742D01*
X61844540Y-92500000D01*
X58448258Y-92500000D01*
X58239028Y-92303519D01*
X57984484Y-92118583D01*
X57708764Y-91967005D01*
X57416225Y-91851180D01*
X57111474Y-91772934D01*
X56799320Y-91733500D01*
X56799318Y-91733500D01*
X56484682Y-91733500D01*
X56484680Y-91733500D01*
X56172525Y-91772934D01*
X55867774Y-91851180D01*
X55567980Y-91969878D01*
X55567530Y-91968742D01*
X55519990Y-91981611D01*
X55462778Y-91969289D01*
X55417589Y-91932101D01*
X55394489Y-91878329D01*
X55398624Y-91819951D01*
X55429072Y-91769972D01*
X56180846Y-91018198D01*
X56218424Y-90971567D01*
X56278152Y-90840781D01*
X56298613Y-90698466D01*
X56278152Y-90556150D01*
X56218424Y-90425364D01*
X56180846Y-90378733D01*
X55333852Y-89531739D01*
X55333851Y-89531739D01*
X53106466Y-91759126D01*
X51939739Y-92925851D01*
X51939739Y-92925852D01*
X48345316Y-92925852D01*
X48344742Y-90698466D01*
X49914318Y-90698466D01*
X49934779Y-90840781D01*
X49994507Y-90971567D01*
X50032085Y-91018198D01*
X50879079Y-91865192D01*
X52045805Y-90698466D01*
X50879080Y-89531739D01*
X50879078Y-89531739D01*
X50032085Y-90378733D01*
X49994507Y-90425364D01*
X49934779Y-90556150D01*
X49914318Y-90698466D01*
X48344742Y-90698466D01*
X48344168Y-88471080D01*
X51939739Y-88471080D01*
X53106465Y-89637805D01*
X54273192Y-88471079D01*
X53426198Y-87624085D01*
X53379567Y-87586507D01*
X53248781Y-87526779D01*
X53106466Y-87506318D01*
X52964150Y-87526779D01*
X52833364Y-87586507D01*
X52786733Y-87624085D01*
X51939739Y-88471078D01*
X51939739Y-88471080D01*
X48344168Y-88471080D01*
X48341386Y-77676001D01*
X63494500Y-77676001D01*
X63511724Y-77806830D01*
X63528339Y-77868838D01*
X63578836Y-77990749D01*
X63659170Y-78095442D01*
X63704557Y-78140829D01*
X63773294Y-78193573D01*
X63809250Y-78221163D01*
X63931166Y-78271662D01*
X63993166Y-78288275D01*
X64080090Y-78299719D01*
X64123999Y-78305500D01*
X64124000Y-78305500D01*
X65961264Y-78305500D01*
X65961265Y-78305500D01*
X66037494Y-78299719D01*
X66074467Y-78294079D01*
X66148961Y-78276867D01*
X66220007Y-78248616D01*
X66253616Y-78232208D01*
X66319583Y-78193570D01*
X79044591Y-69383948D01*
X79137855Y-69300548D01*
X79177886Y-69254639D01*
X79247810Y-69150888D01*
X79290111Y-69033141D01*
X79303452Y-68973711D01*
X79315538Y-68849181D01*
X79296668Y-68725496D01*
X79280101Y-68666884D01*
X79244357Y-68582231D01*
X79240663Y-68572323D01*
X79215528Y-68494964D01*
X79210141Y-68469620D01*
X79204186Y-68412958D01*
X79204186Y-68387039D01*
X79209726Y-68334323D01*
X79210141Y-68330374D01*
X79215528Y-68305027D01*
X79233135Y-68250841D01*
X79243676Y-68227167D01*
X79253207Y-68210660D01*
X79272160Y-68177830D01*
X79287397Y-68156858D01*
X79310761Y-68130910D01*
X79325517Y-68114521D01*
X79344779Y-68097179D01*
X79390869Y-68063692D01*
X79413316Y-68050734D01*
X79465359Y-68027563D01*
X79490015Y-68019552D01*
X79490025Y-68019550D01*
X79494509Y-68018596D01*
X79545736Y-68007709D01*
X79571515Y-68005000D01*
X79628488Y-68005000D01*
X79654261Y-68007708D01*
X79709990Y-68019553D01*
X79734630Y-68027559D01*
X79786681Y-68050734D01*
X79809130Y-68063695D01*
X79855217Y-68097179D01*
X79874481Y-68114524D01*
X79889235Y-68130910D01*
X79980626Y-68210660D01*
X79980631Y-68210664D01*
X80029486Y-68243888D01*
X80137254Y-68299574D01*
X80255185Y-68327983D01*
X80313870Y-68334828D01*
X80435175Y-68334323D01*
X80552867Y-68304934D01*
X80608058Y-68283845D01*
X80683829Y-68243889D01*
X80715358Y-68227263D01*
X80731714Y-68215940D01*
X82949603Y-66680478D01*
X88699918Y-62699491D01*
X88762884Y-62677677D01*
X88828049Y-62691606D01*
X88876595Y-62737256D01*
X88894500Y-62801443D01*
X88894500Y-64348656D01*
X88885660Y-64394636D01*
X88860400Y-64434060D01*
X88085258Y-65250000D01*
X85267614Y-68215940D01*
X85208470Y-68291398D01*
X85183206Y-68330827D01*
X85139377Y-68416087D01*
X85112431Y-68508090D01*
X85112431Y-68508092D01*
X85103591Y-68554072D01*
X85101373Y-68577357D01*
X85094500Y-68649508D01*
X85094500Y-78569247D01*
X85075611Y-78635033D01*
X83730864Y-80783635D01*
X83684862Y-80826854D01*
X83623544Y-80841829D01*
X83562798Y-80824679D01*
X83518366Y-80779849D01*
X83482533Y-80717784D01*
X83482532Y-80717782D01*
X83355870Y-80577110D01*
X83202730Y-80465848D01*
X83029802Y-80388855D01*
X82844648Y-80349500D01*
X82844646Y-80349500D01*
X82655354Y-80349500D01*
X82655352Y-80349500D01*
X82470197Y-80388855D01*
X82297269Y-80465848D01*
X82144129Y-80577110D01*
X82092150Y-80634840D01*
X82034179Y-80671064D01*
X81965821Y-80671064D01*
X81907850Y-80634840D01*
X81855870Y-80577110D01*
X81702730Y-80465848D01*
X81529802Y-80388855D01*
X81344648Y-80349500D01*
X81344646Y-80349500D01*
X81155354Y-80349500D01*
X81155352Y-80349500D01*
X80970197Y-80388855D01*
X80797269Y-80465848D01*
X80644129Y-80577110D01*
X80517466Y-80717783D01*
X80422821Y-80881714D01*
X80370227Y-81043581D01*
X80335269Y-81097411D01*
X80278079Y-81126552D01*
X80220197Y-81138856D01*
X80047267Y-81215849D01*
X79894129Y-81327110D01*
X79767466Y-81467783D01*
X79672820Y-81631715D01*
X79614326Y-81811742D01*
X79594540Y-81999999D01*
X79614326Y-82188257D01*
X79672820Y-82368284D01*
X79767466Y-82532216D01*
X79894129Y-82672889D01*
X80047269Y-82784151D01*
X80220197Y-82861144D01*
X80405352Y-82900500D01*
X80405354Y-82900500D01*
X80594646Y-82900500D01*
X80594648Y-82900500D01*
X80718084Y-82874262D01*
X80779803Y-82861144D01*
X80952730Y-82784151D01*
X81105871Y-82672888D01*
X81142943Y-82631716D01*
X81157850Y-82615160D01*
X81215821Y-82578936D01*
X81284179Y-82578936D01*
X81342150Y-82615160D01*
X81394129Y-82672889D01*
X81547269Y-82784151D01*
X81720197Y-82861144D01*
X81905352Y-82900500D01*
X81905354Y-82900500D01*
X82094646Y-82900500D01*
X82094647Y-82900500D01*
X82167728Y-82884966D01*
X82225201Y-82886374D01*
X82275862Y-82913553D01*
X82308821Y-82960658D01*
X82316992Y-83017565D01*
X82298620Y-83072041D01*
X81761175Y-83930759D01*
X81703493Y-84060518D01*
X81684606Y-84126855D01*
X81665290Y-84267530D01*
X81665290Y-84267534D01*
X81665290Y-84267535D01*
X81668562Y-84999999D01*
X81668572Y-85002258D01*
X81707269Y-93666071D01*
X81707338Y-93681346D01*
X81690910Y-93743580D01*
X81645499Y-93789195D01*
X81583339Y-93805900D01*
X76432853Y-93805900D01*
X76385400Y-93796461D01*
X76345172Y-93769581D01*
X76275960Y-93700369D01*
X76251720Y-93666071D01*
X76240321Y-93625655D01*
X76222674Y-93457744D01*
X76164179Y-93277716D01*
X76164179Y-93277715D01*
X76069533Y-93113783D01*
X75942870Y-92973110D01*
X75789730Y-92861848D01*
X75616802Y-92784855D01*
X75431648Y-92745500D01*
X75431646Y-92745500D01*
X75242354Y-92745500D01*
X75242352Y-92745500D01*
X75057197Y-92784855D01*
X74884269Y-92861848D01*
X74731129Y-92973110D01*
X74604466Y-93113783D01*
X74509820Y-93277715D01*
X74451326Y-93457742D01*
X74451325Y-93457744D01*
X74451326Y-93457744D01*
X74431540Y-93646000D01*
X74435255Y-93681346D01*
X74451326Y-93834257D01*
X74509820Y-94014284D01*
X74604466Y-94178216D01*
X74731129Y-94318889D01*
X74884269Y-94430151D01*
X75057197Y-94507144D01*
X75242352Y-94546500D01*
X75242354Y-94546500D01*
X75301547Y-94546500D01*
X75349000Y-94555939D01*
X75389228Y-94582819D01*
X75621596Y-94815187D01*
X75634496Y-94831288D01*
X75636613Y-94833276D01*
X75636614Y-94833277D01*
X75685623Y-94879300D01*
X75688420Y-94882011D01*
X75707929Y-94901520D01*
X75711111Y-94903988D01*
X75719971Y-94911555D01*
X75751817Y-94941461D01*
X75751818Y-94941462D01*
X75769370Y-94951111D01*
X75785638Y-94961797D01*
X75801464Y-94974073D01*
X75841546Y-94991417D01*
X75852033Y-94996555D01*
X75890307Y-95017597D01*
X75898810Y-95019779D01*
X75909708Y-95022578D01*
X75928113Y-95028878D01*
X75946504Y-95036837D01*
X75989650Y-95043670D01*
X76001068Y-95046035D01*
X76043381Y-95056900D01*
X76063416Y-95056900D01*
X76082815Y-95058427D01*
X76102596Y-95061560D01*
X76146074Y-95057450D01*
X76157744Y-95056900D01*
X81590034Y-95056900D01*
X81651874Y-95073421D01*
X81697236Y-95118581D01*
X81714033Y-95180346D01*
X81720934Y-96725446D01*
X81704506Y-96787680D01*
X81659095Y-96833295D01*
X81596935Y-96850000D01*
X80500000Y-96850000D01*
X80500000Y-101650000D01*
X81619484Y-101650000D01*
X81681324Y-101666521D01*
X81726686Y-101711680D01*
X81743483Y-101773446D01*
X81743953Y-101878811D01*
X81755503Y-101963842D01*
X81761664Y-102009205D01*
X81767786Y-102031716D01*
X81778462Y-102070975D01*
X81829226Y-102192375D01*
X81872442Y-102248392D01*
X81909606Y-102296563D01*
X81954968Y-102341722D01*
X82059511Y-102421631D01*
X82181136Y-102471851D01*
X82242976Y-102488372D01*
X82373448Y-102505500D01*
X87626000Y-102505500D01*
X87626001Y-102505500D01*
X87652166Y-102502055D01*
X87756834Y-102488275D01*
X87818834Y-102471662D01*
X87940750Y-102421163D01*
X87968330Y-102400000D01*
X106094540Y-102400000D01*
X106102072Y-102471660D01*
X106114326Y-102588257D01*
X106172820Y-102768284D01*
X106267466Y-102932216D01*
X106394129Y-103072889D01*
X106547269Y-103184151D01*
X106720197Y-103261144D01*
X106905352Y-103300500D01*
X106905354Y-103300500D01*
X107094646Y-103300500D01*
X107094648Y-103300500D01*
X107218084Y-103274262D01*
X107279803Y-103261144D01*
X107452730Y-103184151D01*
X107605871Y-103072888D01*
X107616657Y-103060909D01*
X107634110Y-103041527D01*
X107675824Y-103011220D01*
X107726259Y-103000500D01*
X110073741Y-103000500D01*
X110124176Y-103011220D01*
X110165890Y-103041527D01*
X110194128Y-103072888D01*
X110347269Y-103184151D01*
X110520197Y-103261144D01*
X110705352Y-103300500D01*
X110705354Y-103300500D01*
X110894646Y-103300500D01*
X110894648Y-103300500D01*
X111018084Y-103274262D01*
X111079803Y-103261144D01*
X111252730Y-103184151D01*
X111396063Y-103080014D01*
X111405870Y-103072889D01*
X111532533Y-102932216D01*
X111627179Y-102768284D01*
X111647178Y-102706733D01*
X111685674Y-102588256D01*
X111705460Y-102400000D01*
X111685674Y-102211744D01*
X111639241Y-102068838D01*
X111627179Y-102031715D01*
X111532533Y-101867783D01*
X111405870Y-101727110D01*
X111252730Y-101615848D01*
X111079802Y-101538855D01*
X110894648Y-101499500D01*
X110894646Y-101499500D01*
X110705354Y-101499500D01*
X110705352Y-101499500D01*
X110520197Y-101538855D01*
X110347269Y-101615848D01*
X110194128Y-101727111D01*
X110165890Y-101758473D01*
X110124176Y-101788780D01*
X110073741Y-101799500D01*
X107726259Y-101799500D01*
X107675824Y-101788780D01*
X107634110Y-101758473D01*
X107605871Y-101727111D01*
X107452730Y-101615848D01*
X107279802Y-101538855D01*
X107094648Y-101499500D01*
X107094646Y-101499500D01*
X106905354Y-101499500D01*
X106905352Y-101499500D01*
X106720197Y-101538855D01*
X106547269Y-101615848D01*
X106394129Y-101727110D01*
X106267466Y-101867783D01*
X106172820Y-102031715D01*
X106114326Y-102211742D01*
X106094540Y-102399999D01*
X106094540Y-102400000D01*
X87968330Y-102400000D01*
X88045442Y-102340829D01*
X88090829Y-102295442D01*
X88171163Y-102190750D01*
X88221662Y-102068834D01*
X88238275Y-102006834D01*
X88255500Y-101876000D01*
X88255500Y-101467764D01*
X122492787Y-101467764D01*
X122522413Y-101737016D01*
X122559484Y-101878812D01*
X122590928Y-101999088D01*
X122653886Y-102147240D01*
X122696871Y-102248392D01*
X122837982Y-102479611D01*
X122928398Y-102588257D01*
X123011255Y-102687820D01*
X123212998Y-102868582D01*
X123438910Y-103018044D01*
X123489004Y-103041527D01*
X123684177Y-103133021D01*
X123943562Y-103211058D01*
X123943569Y-103211060D01*
X124211561Y-103250500D01*
X124414631Y-103250500D01*
X124414634Y-103250500D01*
X124617156Y-103235677D01*
X124664552Y-103225119D01*
X124881553Y-103176780D01*
X125134558Y-103080014D01*
X125370777Y-102947441D01*
X125585177Y-102781888D01*
X125773186Y-102586881D01*
X125930799Y-102366579D01*
X126054656Y-102125675D01*
X126142118Y-101869305D01*
X126191319Y-101602933D01*
X126201212Y-101332235D01*
X126171586Y-101062982D01*
X126103072Y-100800912D01*
X125997130Y-100551610D01*
X125856018Y-100320390D01*
X125856017Y-100320388D01*
X125682746Y-100112181D01*
X125577758Y-100018112D01*
X125481002Y-99931418D01*
X125255090Y-99781956D01*
X125255086Y-99781954D01*
X125009822Y-99666978D01*
X124750437Y-99588941D01*
X124750431Y-99588940D01*
X124482439Y-99549500D01*
X124279369Y-99549500D01*
X124279366Y-99549500D01*
X124076843Y-99564322D01*
X123812449Y-99623219D01*
X123559441Y-99719986D01*
X123323223Y-99852559D01*
X123108825Y-100018109D01*
X122920813Y-100213120D01*
X122763201Y-100433420D01*
X122639342Y-100674329D01*
X122551881Y-100930695D01*
X122502680Y-101197066D01*
X122492787Y-101467764D01*
X88255500Y-101467764D01*
X88255500Y-94233999D01*
X117546555Y-94233999D01*
X117566311Y-94548010D01*
X117625269Y-94857082D01*
X117697699Y-95079995D01*
X117722497Y-95156315D01*
X117852091Y-95431715D01*
X117856463Y-95441007D01*
X118025053Y-95706663D01*
X118225612Y-95949097D01*
X118454971Y-96164480D01*
X118709515Y-96349416D01*
X118847375Y-96425205D01*
X118985234Y-96500994D01*
X119131504Y-96558906D01*
X119277774Y-96616819D01*
X119383051Y-96643849D01*
X119582527Y-96695066D01*
X119815811Y-96724536D01*
X119894680Y-96734500D01*
X119894682Y-96734500D01*
X120209318Y-96734500D01*
X120209320Y-96734500D01*
X120280988Y-96725446D01*
X120521473Y-96695066D01*
X120826225Y-96616819D01*
X121118766Y-96500994D01*
X121394484Y-96349416D01*
X121418158Y-96332216D01*
X121649028Y-96164480D01*
X121878387Y-95949097D01*
X121878387Y-95949096D01*
X121878390Y-95949094D01*
X122078947Y-95706663D01*
X122247537Y-95441007D01*
X122381503Y-95156315D01*
X122478731Y-94857079D01*
X122537688Y-94548015D01*
X122557444Y-94234000D01*
X122537688Y-93919985D01*
X122478731Y-93610921D01*
X122381503Y-93311685D01*
X122306149Y-93151551D01*
X122295232Y-93083988D01*
X122321820Y-93020922D01*
X122377815Y-92981568D01*
X122446159Y-92977915D01*
X122506030Y-93011075D01*
X123267801Y-93772846D01*
X123314432Y-93810424D01*
X123445218Y-93870152D01*
X123587534Y-93890613D01*
X123729849Y-93870152D01*
X123860635Y-93810424D01*
X123907266Y-93772846D01*
X124754260Y-92925852D01*
X124754260Y-92925851D01*
X123587534Y-91759126D01*
X122526875Y-90698467D01*
X124648194Y-90698467D01*
X125814920Y-91865192D01*
X126661914Y-91018198D01*
X126699492Y-90971567D01*
X126759220Y-90840781D01*
X126779681Y-90698465D01*
X126759220Y-90556150D01*
X126699492Y-90425364D01*
X126661914Y-90378733D01*
X125814920Y-89531739D01*
X125814919Y-89531739D01*
X124648194Y-90698466D01*
X124648194Y-90698467D01*
X122526875Y-90698467D01*
X121360147Y-89531739D01*
X121360146Y-89531739D01*
X120513153Y-90378733D01*
X120475575Y-90425364D01*
X120415847Y-90556150D01*
X120395386Y-90698465D01*
X120415847Y-90840781D01*
X120475575Y-90971567D01*
X120513153Y-91018198D01*
X121264927Y-91769972D01*
X121295376Y-91819953D01*
X121299510Y-91878332D01*
X121276407Y-91932105D01*
X121231215Y-91969292D01*
X121174001Y-91981611D01*
X121126469Y-91968741D01*
X121126020Y-91969878D01*
X120826225Y-91851180D01*
X120521474Y-91772934D01*
X120209320Y-91733500D01*
X120209318Y-91733500D01*
X119894682Y-91733500D01*
X119894680Y-91733500D01*
X119582525Y-91772934D01*
X119277774Y-91851180D01*
X118985235Y-91967005D01*
X118709515Y-92118583D01*
X118454971Y-92303519D01*
X118225612Y-92518902D01*
X118025053Y-92761336D01*
X117856463Y-93026992D01*
X117722495Y-93311689D01*
X117625269Y-93610917D01*
X117566311Y-93919989D01*
X117546555Y-94233999D01*
X88255500Y-94233999D01*
X88255500Y-91516657D01*
X88246213Y-91420205D01*
X88237184Y-91373754D01*
X88209662Y-91280841D01*
X88189208Y-91241550D01*
X88164916Y-91194885D01*
X88152029Y-91175043D01*
X88139143Y-91155200D01*
X88112419Y-91121605D01*
X88078825Y-91079370D01*
X88005145Y-91016441D01*
X88005144Y-91016440D01*
X87966383Y-90989299D01*
X87966378Y-90989296D01*
X87881808Y-90941447D01*
X87869990Y-90933845D01*
X87821782Y-90898821D01*
X87802519Y-90881476D01*
X87764398Y-90839139D01*
X87749160Y-90818166D01*
X87720676Y-90768830D01*
X87710133Y-90745153D01*
X87692529Y-90690972D01*
X87687140Y-90665617D01*
X87681186Y-90608959D01*
X87681186Y-90583039D01*
X87687141Y-90526379D01*
X87692528Y-90501031D01*
X87710136Y-90446838D01*
X87720672Y-90423172D01*
X87749165Y-90373821D01*
X87764397Y-90352858D01*
X87802520Y-90310520D01*
X87821777Y-90293180D01*
X87869997Y-90258146D01*
X87881803Y-90250553D01*
X87882030Y-90250424D01*
X87882040Y-90250420D01*
X87966383Y-90202701D01*
X88005145Y-90175559D01*
X88078824Y-90112630D01*
X88139143Y-90036800D01*
X88164916Y-89997114D01*
X88209662Y-89911159D01*
X88237184Y-89818246D01*
X88246213Y-89771795D01*
X88255500Y-89675343D01*
X88255500Y-88471080D01*
X122420807Y-88471080D01*
X123587533Y-89637805D01*
X124754260Y-88471079D01*
X123907266Y-87624085D01*
X123860635Y-87586507D01*
X123729849Y-87526779D01*
X123587534Y-87506318D01*
X123445218Y-87526779D01*
X123314432Y-87586507D01*
X123267801Y-87624085D01*
X122420807Y-88471078D01*
X122420807Y-88471080D01*
X88255500Y-88471080D01*
X88255500Y-88282061D01*
X88247033Y-88189930D01*
X88238795Y-88145487D01*
X88213678Y-88056440D01*
X88175800Y-87979646D01*
X88172450Y-87972251D01*
X88169759Y-87965752D01*
X88169758Y-87965750D01*
X88101673Y-87847825D01*
X88091132Y-87824149D01*
X88073530Y-87769977D01*
X88068140Y-87744617D01*
X88062186Y-87687958D01*
X88062186Y-87662040D01*
X88062672Y-87657410D01*
X88068141Y-87605372D01*
X88073527Y-87580030D01*
X88091134Y-87525841D01*
X88101673Y-87502171D01*
X88169757Y-87384251D01*
X88172461Y-87377721D01*
X88175792Y-87370369D01*
X88213676Y-87293565D01*
X88238795Y-87204513D01*
X88247033Y-87160070D01*
X88255500Y-87067939D01*
X88255500Y-83488694D01*
X88263555Y-83444730D01*
X88286675Y-83406478D01*
X88320504Y-83368284D01*
X88361347Y-83322170D01*
X88415129Y-83286694D01*
X88479454Y-83282993D01*
X88536953Y-83312068D01*
X88566225Y-83357042D01*
X88566304Y-83356997D01*
X88567152Y-83358466D01*
X88572100Y-83366068D01*
X88572819Y-83368282D01*
X88667466Y-83532216D01*
X88794129Y-83672888D01*
X88861438Y-83721791D01*
X88901832Y-83771673D01*
X88911874Y-83835070D01*
X88894540Y-83999999D01*
X88914326Y-84188257D01*
X88972820Y-84368284D01*
X89067466Y-84532216D01*
X89194129Y-84672889D01*
X89347269Y-84784151D01*
X89520197Y-84861144D01*
X89705352Y-84900500D01*
X89795721Y-84900500D01*
X89846156Y-84911220D01*
X89887871Y-84941528D01*
X89913652Y-84986182D01*
X89972820Y-85168284D01*
X90067466Y-85332216D01*
X90194129Y-85472889D01*
X90347269Y-85584151D01*
X90520197Y-85661144D01*
X90705352Y-85700500D01*
X90705354Y-85700500D01*
X90894646Y-85700500D01*
X90894648Y-85700500D01*
X91024551Y-85672888D01*
X91079803Y-85661144D01*
X91214328Y-85601248D01*
X91264762Y-85590528D01*
X91315198Y-85601248D01*
X91356913Y-85631556D01*
X91394129Y-85672889D01*
X91547269Y-85784151D01*
X91720197Y-85861144D01*
X91905352Y-85900500D01*
X91905354Y-85900500D01*
X92094646Y-85900500D01*
X92094648Y-85900500D01*
X92218083Y-85874262D01*
X92279803Y-85861144D01*
X92452730Y-85784151D01*
X92605871Y-85672888D01*
X92732533Y-85532216D01*
X92827179Y-85368284D01*
X92885674Y-85188256D01*
X92905460Y-85000000D01*
X92885674Y-84811744D01*
X92835081Y-84656035D01*
X92827179Y-84631715D01*
X92732533Y-84467783D01*
X92605870Y-84327110D01*
X92452730Y-84215848D01*
X92279802Y-84138855D01*
X92094648Y-84099500D01*
X92094646Y-84099500D01*
X91905354Y-84099500D01*
X91905352Y-84099500D01*
X91720201Y-84138854D01*
X91585672Y-84198751D01*
X91535236Y-84209471D01*
X91484801Y-84198751D01*
X91443086Y-84168443D01*
X91405870Y-84127110D01*
X91252730Y-84015848D01*
X91079802Y-83938855D01*
X90894648Y-83899500D01*
X90894646Y-83899500D01*
X90804279Y-83899500D01*
X90753844Y-83888780D01*
X90712129Y-83858472D01*
X90686348Y-83813818D01*
X90627179Y-83631715D01*
X90532533Y-83467783D01*
X90405870Y-83327110D01*
X90338561Y-83278208D01*
X90298166Y-83228325D01*
X90288125Y-83164931D01*
X90305460Y-83000000D01*
X90285674Y-82811744D01*
X90227179Y-82631716D01*
X90227179Y-82631715D01*
X90132533Y-82467783D01*
X90005870Y-82327110D01*
X89852730Y-82215848D01*
X89679802Y-82138855D01*
X89660376Y-82134726D01*
X89603373Y-82105756D01*
X89568383Y-82052236D01*
X89564710Y-81988399D01*
X89593329Y-81931222D01*
X90639554Y-80750000D01*
X92594540Y-80750000D01*
X92614326Y-80938257D01*
X92672820Y-81118284D01*
X92767466Y-81282216D01*
X92894129Y-81422889D01*
X93047269Y-81534151D01*
X93220197Y-81611144D01*
X93405352Y-81650500D01*
X93405354Y-81650500D01*
X93594646Y-81650500D01*
X93594648Y-81650500D01*
X93718084Y-81624262D01*
X93779803Y-81611144D01*
X93952730Y-81534151D01*
X94044077Y-81467784D01*
X94069681Y-81449182D01*
X94104248Y-81431569D01*
X94142566Y-81425500D01*
X102357434Y-81425500D01*
X102395752Y-81431569D01*
X102430319Y-81449182D01*
X102547269Y-81534151D01*
X102720197Y-81611144D01*
X102905352Y-81650500D01*
X102905354Y-81650500D01*
X103094646Y-81650500D01*
X103094648Y-81650500D01*
X103218084Y-81624262D01*
X103279803Y-81611144D01*
X103452730Y-81534151D01*
X103544078Y-81467783D01*
X103605870Y-81422889D01*
X103732533Y-81282216D01*
X103827179Y-81118284D01*
X103845550Y-81061744D01*
X103885674Y-80938256D01*
X103905460Y-80750000D01*
X103885674Y-80561744D01*
X103827179Y-80381716D01*
X103827179Y-80381715D01*
X103732533Y-80217783D01*
X103605870Y-80077110D01*
X103452730Y-79965848D01*
X103279802Y-79888855D01*
X103094648Y-79849500D01*
X103094646Y-79849500D01*
X102905354Y-79849500D01*
X102905352Y-79849500D01*
X102720197Y-79888855D01*
X102547269Y-79965848D01*
X102430319Y-80050818D01*
X102395752Y-80068431D01*
X102357434Y-80074500D01*
X94142566Y-80074500D01*
X94104248Y-80068431D01*
X94069681Y-80050818D01*
X93952730Y-79965848D01*
X93779802Y-79888855D01*
X93594648Y-79849500D01*
X93594646Y-79849500D01*
X93405354Y-79849500D01*
X93405352Y-79849500D01*
X93220197Y-79888855D01*
X93047269Y-79965848D01*
X92894129Y-80077110D01*
X92767466Y-80217783D01*
X92672820Y-80381715D01*
X92614326Y-80561742D01*
X92594540Y-80750000D01*
X90639554Y-80750000D01*
X92635329Y-78496706D01*
X92681752Y-78463933D01*
X92737922Y-78455309D01*
X92792040Y-78472649D01*
X92832740Y-78512310D01*
X92851473Y-78565962D01*
X92864326Y-78688257D01*
X92922820Y-78868284D01*
X93017466Y-79032216D01*
X93144129Y-79172889D01*
X93297269Y-79284151D01*
X93470197Y-79361144D01*
X93655352Y-79400500D01*
X93655354Y-79400500D01*
X93844646Y-79400500D01*
X93844648Y-79400500D01*
X93968083Y-79374262D01*
X94029803Y-79361144D01*
X94202730Y-79284151D01*
X94355871Y-79172888D01*
X94355871Y-79172887D01*
X94384110Y-79141527D01*
X94425824Y-79111220D01*
X94476259Y-79100500D01*
X102273741Y-79100500D01*
X102324176Y-79111220D01*
X102365890Y-79141527D01*
X102394128Y-79172888D01*
X102547269Y-79284151D01*
X102720197Y-79361144D01*
X102905352Y-79400500D01*
X102905354Y-79400500D01*
X103094646Y-79400500D01*
X103094648Y-79400500D01*
X103218083Y-79374262D01*
X103279803Y-79361144D01*
X103452730Y-79284151D01*
X103605871Y-79172888D01*
X103732533Y-79032216D01*
X103827179Y-78868284D01*
X103885674Y-78688256D01*
X103905460Y-78500000D01*
X103885674Y-78311744D01*
X103847277Y-78193570D01*
X103827179Y-78131715D01*
X103732533Y-77967783D01*
X103605870Y-77827110D01*
X103465764Y-77725318D01*
X103428164Y-77681295D01*
X103414649Y-77625000D01*
X103428164Y-77568705D01*
X103465764Y-77524682D01*
X103605870Y-77422889D01*
X103611598Y-77416528D01*
X103732533Y-77282216D01*
X103827179Y-77118284D01*
X103885674Y-76938256D01*
X103905460Y-76750000D01*
X103885674Y-76561744D01*
X103827179Y-76381716D01*
X103827179Y-76381715D01*
X103732533Y-76217783D01*
X103605870Y-76077110D01*
X103452730Y-75965848D01*
X103279802Y-75888855D01*
X103094648Y-75849500D01*
X103094646Y-75849500D01*
X102905354Y-75849500D01*
X102905352Y-75849500D01*
X102720197Y-75888855D01*
X102547272Y-75965847D01*
X102473969Y-76019105D01*
X102394129Y-76077112D01*
X102388401Y-76083473D01*
X102346688Y-76113780D01*
X102296253Y-76124500D01*
X94453747Y-76124500D01*
X94403312Y-76113780D01*
X94361598Y-76083473D01*
X94355871Y-76077112D01*
X94202730Y-75965849D01*
X94202729Y-75965848D01*
X94202727Y-75965847D01*
X94029802Y-75888855D01*
X93844648Y-75849500D01*
X93844646Y-75849500D01*
X93655354Y-75849500D01*
X93655352Y-75849500D01*
X93470197Y-75888855D01*
X93297269Y-75965848D01*
X93144129Y-76077110D01*
X93121650Y-76102077D01*
X93072723Y-76135328D01*
X93013959Y-76142127D01*
X92958731Y-76120927D01*
X92919611Y-76076554D01*
X92905500Y-76019105D01*
X92905500Y-75161974D01*
X92920527Y-75102806D01*
X92961965Y-75057979D01*
X93019772Y-75038356D01*
X93079936Y-75048695D01*
X93220197Y-75111144D01*
X93405352Y-75150500D01*
X93405354Y-75150500D01*
X93594646Y-75150500D01*
X93594648Y-75150500D01*
X93718083Y-75124262D01*
X93779803Y-75111144D01*
X93952730Y-75034151D01*
X93952730Y-75034150D01*
X94069681Y-74949182D01*
X94104248Y-74931569D01*
X94142566Y-74925500D01*
X102357434Y-74925500D01*
X102395752Y-74931569D01*
X102430319Y-74949182D01*
X102547269Y-75034151D01*
X102720197Y-75111144D01*
X102905352Y-75150500D01*
X102905354Y-75150500D01*
X103094646Y-75150500D01*
X103094648Y-75150500D01*
X103218083Y-75124262D01*
X103279803Y-75111144D01*
X103452730Y-75034151D01*
X103452729Y-75034151D01*
X103605870Y-74922889D01*
X103732533Y-74782216D01*
X103751133Y-74750000D01*
X114494555Y-74750000D01*
X114514311Y-75064010D01*
X114573269Y-75373082D01*
X114670495Y-75672310D01*
X114804463Y-75957007D01*
X114973053Y-76222663D01*
X115173612Y-76465097D01*
X115402971Y-76680480D01*
X115657515Y-76865416D01*
X115790011Y-76938256D01*
X115933234Y-77016994D01*
X116054423Y-77064976D01*
X116225774Y-77132819D01*
X116331051Y-77159849D01*
X116530527Y-77211066D01*
X116763812Y-77240536D01*
X116842680Y-77250500D01*
X116842682Y-77250500D01*
X117157318Y-77250500D01*
X117157320Y-77250500D01*
X117227341Y-77241653D01*
X117469473Y-77211066D01*
X117774225Y-77132819D01*
X118066766Y-77016994D01*
X118342484Y-76865416D01*
X118342484Y-76865415D01*
X118597028Y-76680480D01*
X118826387Y-76465097D01*
X118826387Y-76465096D01*
X118826390Y-76465094D01*
X119026947Y-76222663D01*
X119195537Y-75957007D01*
X119329503Y-75672315D01*
X119358069Y-75584397D01*
X119396960Y-75527172D01*
X119460459Y-75499694D01*
X119528797Y-75510517D01*
X119580697Y-75556274D01*
X119600000Y-75622716D01*
X119600000Y-76697824D01*
X119606402Y-76757375D01*
X119656647Y-76892089D01*
X119742811Y-77007188D01*
X119857910Y-77093352D01*
X119992624Y-77143597D01*
X120052176Y-77150000D01*
X121250000Y-77150000D01*
X121250000Y-75500000D01*
X122750000Y-75500000D01*
X122750000Y-77150000D01*
X123947824Y-77150000D01*
X124007375Y-77143597D01*
X124142089Y-77093352D01*
X124257188Y-77007188D01*
X124343352Y-76892089D01*
X124393597Y-76757375D01*
X124400000Y-76697824D01*
X124400000Y-75500000D01*
X122750000Y-75500000D01*
X121250000Y-75500000D01*
X121250000Y-72350000D01*
X122750000Y-72350000D01*
X122750000Y-74000000D01*
X124400000Y-74000000D01*
X124400000Y-72802176D01*
X124393597Y-72742624D01*
X124343352Y-72607910D01*
X124257188Y-72492811D01*
X124142089Y-72406647D01*
X124007375Y-72356402D01*
X123947824Y-72350000D01*
X122750000Y-72350000D01*
X121250000Y-72350000D01*
X120052176Y-72350000D01*
X119992624Y-72356402D01*
X119857910Y-72406647D01*
X119742811Y-72492811D01*
X119656647Y-72607910D01*
X119606402Y-72742624D01*
X119600000Y-72802176D01*
X119600000Y-73877284D01*
X119580697Y-73943726D01*
X119528797Y-73989483D01*
X119460459Y-74000306D01*
X119396960Y-73972828D01*
X119358069Y-73915602D01*
X119329504Y-73827689D01*
X119329503Y-73827685D01*
X119195537Y-73542993D01*
X119026947Y-73277337D01*
X118826390Y-73034906D01*
X118826387Y-73034902D01*
X118597028Y-72819519D01*
X118342484Y-72634583D01*
X118066764Y-72483005D01*
X117774225Y-72367180D01*
X117469474Y-72288934D01*
X117157320Y-72249500D01*
X117157318Y-72249500D01*
X116842682Y-72249500D01*
X116842680Y-72249500D01*
X116530525Y-72288934D01*
X116225774Y-72367180D01*
X115933235Y-72483005D01*
X115657515Y-72634583D01*
X115402971Y-72819519D01*
X115173612Y-73034902D01*
X114973053Y-73277336D01*
X114804463Y-73542992D01*
X114670495Y-73827689D01*
X114573269Y-74126917D01*
X114514311Y-74435989D01*
X114494555Y-74750000D01*
X103751133Y-74750000D01*
X103827179Y-74618284D01*
X103843319Y-74568610D01*
X103885674Y-74438256D01*
X103905460Y-74250000D01*
X103885674Y-74061744D01*
X103827179Y-73881716D01*
X103827179Y-73881715D01*
X103732533Y-73717783D01*
X103605870Y-73577110D01*
X103452730Y-73465848D01*
X103279802Y-73388855D01*
X103094648Y-73349500D01*
X103094646Y-73349500D01*
X102905354Y-73349500D01*
X102905352Y-73349500D01*
X102720197Y-73388855D01*
X102547269Y-73465848D01*
X102430319Y-73550818D01*
X102395752Y-73568431D01*
X102357434Y-73574500D01*
X94142566Y-73574500D01*
X94104248Y-73568431D01*
X94069681Y-73550818D01*
X93952730Y-73465848D01*
X93779802Y-73388855D01*
X93594648Y-73349500D01*
X93594646Y-73349500D01*
X93405354Y-73349500D01*
X93405352Y-73349500D01*
X93220197Y-73388855D01*
X93079936Y-73451305D01*
X93019772Y-73461644D01*
X92961965Y-73442021D01*
X92920527Y-73397194D01*
X92905500Y-73338026D01*
X92905500Y-65250000D01*
X96594540Y-65250000D01*
X96614326Y-65438257D01*
X96672820Y-65618284D01*
X96767466Y-65782216D01*
X96894129Y-65922889D01*
X97047269Y-66034151D01*
X97220197Y-66111144D01*
X97405352Y-66150500D01*
X97405354Y-66150500D01*
X97594646Y-66150500D01*
X97594647Y-66150500D01*
X97662960Y-66135979D01*
X97730530Y-66121617D01*
X97794629Y-66124976D01*
X97848460Y-66159934D01*
X97877601Y-66217125D01*
X97874242Y-66281224D01*
X97864327Y-66311740D01*
X97864326Y-66311744D01*
X97848209Y-66465094D01*
X97844540Y-66500000D01*
X97864326Y-66688257D01*
X97922820Y-66868284D01*
X98017466Y-67032216D01*
X98144129Y-67172889D01*
X98297269Y-67284151D01*
X98470197Y-67361144D01*
X98655352Y-67400500D01*
X98655354Y-67400500D01*
X98844646Y-67400500D01*
X98844648Y-67400500D01*
X98968083Y-67374262D01*
X99029803Y-67361144D01*
X99202730Y-67284151D01*
X99249047Y-67250500D01*
X99355870Y-67172889D01*
X99376480Y-67150000D01*
X99482533Y-67032216D01*
X99577179Y-66868284D01*
X99635674Y-66688256D01*
X99655460Y-66500000D01*
X99635674Y-66311744D01*
X99586348Y-66159934D01*
X99577179Y-66131715D01*
X99482533Y-65967783D01*
X99355870Y-65827110D01*
X99202730Y-65715848D01*
X99029802Y-65638855D01*
X98844648Y-65599500D01*
X98844646Y-65599500D01*
X98655354Y-65599500D01*
X98655351Y-65599500D01*
X98519468Y-65628382D01*
X98455369Y-65625023D01*
X98401537Y-65590063D01*
X98372397Y-65532871D01*
X98375757Y-65468774D01*
X98385674Y-65438256D01*
X98405460Y-65250000D01*
X98385674Y-65061744D01*
X98327179Y-64881716D01*
X98327179Y-64881715D01*
X98251133Y-64749999D01*
X114494555Y-64749999D01*
X114514311Y-65064010D01*
X114573269Y-65373082D01*
X114656222Y-65628382D01*
X114670497Y-65672315D01*
X114722213Y-65782216D01*
X114804463Y-65957007D01*
X114973053Y-66222663D01*
X115173612Y-66465097D01*
X115402971Y-66680480D01*
X115657515Y-66865416D01*
X115795375Y-66941205D01*
X115933234Y-67016994D01*
X116079504Y-67074906D01*
X116225774Y-67132819D01*
X116331051Y-67159849D01*
X116530527Y-67211066D01*
X116763811Y-67240536D01*
X116842680Y-67250500D01*
X116842682Y-67250500D01*
X117157318Y-67250500D01*
X117157320Y-67250500D01*
X117227341Y-67241653D01*
X117469473Y-67211066D01*
X117774225Y-67132819D01*
X118066766Y-67016994D01*
X118342484Y-66865416D01*
X118342484Y-66865415D01*
X118597028Y-66680480D01*
X118826387Y-66465097D01*
X118826387Y-66465096D01*
X118826390Y-66465094D01*
X119026947Y-66222663D01*
X119195537Y-65957007D01*
X119329503Y-65672315D01*
X119358069Y-65584397D01*
X119396960Y-65527172D01*
X119460459Y-65499694D01*
X119528797Y-65510517D01*
X119580697Y-65556274D01*
X119600000Y-65622716D01*
X119600000Y-66697824D01*
X119606402Y-66757375D01*
X119656647Y-66892089D01*
X119742811Y-67007188D01*
X119857910Y-67093352D01*
X119992624Y-67143597D01*
X120052176Y-67150000D01*
X121250000Y-67150000D01*
X121250000Y-65500000D01*
X122750000Y-65500000D01*
X122750000Y-67150000D01*
X123947824Y-67150000D01*
X124007375Y-67143597D01*
X124142089Y-67093352D01*
X124257188Y-67007188D01*
X124343352Y-66892089D01*
X124393597Y-66757375D01*
X124400000Y-66697824D01*
X124400000Y-65500000D01*
X122750000Y-65500000D01*
X121250000Y-65500000D01*
X121250000Y-62350000D01*
X122750000Y-62350000D01*
X122750000Y-64000000D01*
X124400000Y-64000000D01*
X124400000Y-62802176D01*
X124393597Y-62742624D01*
X124343352Y-62607910D01*
X124257188Y-62492811D01*
X124142089Y-62406647D01*
X124007375Y-62356402D01*
X123947824Y-62350000D01*
X122750000Y-62350000D01*
X121250000Y-62350000D01*
X120052176Y-62350000D01*
X119992624Y-62356402D01*
X119857910Y-62406647D01*
X119742811Y-62492811D01*
X119656647Y-62607910D01*
X119606402Y-62742624D01*
X119600000Y-62802176D01*
X119600000Y-63877284D01*
X119580697Y-63943726D01*
X119528797Y-63989483D01*
X119460459Y-64000306D01*
X119396960Y-63972828D01*
X119358069Y-63915602D01*
X119329504Y-63827689D01*
X119329503Y-63827685D01*
X119195537Y-63542993D01*
X119026947Y-63277337D01*
X118826390Y-63034906D01*
X118826387Y-63034902D01*
X118597028Y-62819519D01*
X118342484Y-62634583D01*
X118066764Y-62483005D01*
X117774225Y-62367180D01*
X117469474Y-62288934D01*
X117157320Y-62249500D01*
X117157318Y-62249500D01*
X116842682Y-62249500D01*
X116842680Y-62249500D01*
X116530525Y-62288934D01*
X116225774Y-62367180D01*
X115933235Y-62483005D01*
X115657515Y-62634583D01*
X115402971Y-62819519D01*
X115173612Y-63034902D01*
X114973053Y-63277336D01*
X114804463Y-63542992D01*
X114670495Y-63827689D01*
X114573269Y-64126917D01*
X114514311Y-64435989D01*
X114494555Y-64749999D01*
X98251133Y-64749999D01*
X98232533Y-64717783D01*
X98105870Y-64577110D01*
X97952730Y-64465848D01*
X97779802Y-64388855D01*
X97594648Y-64349500D01*
X97594646Y-64349500D01*
X97405354Y-64349500D01*
X97405352Y-64349500D01*
X97220197Y-64388855D01*
X97047269Y-64465848D01*
X96894129Y-64577110D01*
X96767466Y-64717783D01*
X96672820Y-64881715D01*
X96614326Y-65061742D01*
X96594540Y-65250000D01*
X92905500Y-65250000D01*
X92905500Y-61753746D01*
X92892980Y-61641938D01*
X92892979Y-61641937D01*
X92880848Y-61588445D01*
X92843910Y-61482179D01*
X92784384Y-61386714D01*
X92750362Y-61343688D01*
X92723567Y-61316633D01*
X92692019Y-61261927D01*
X92691504Y-61198778D01*
X92722158Y-61143565D01*
X92756486Y-61107756D01*
X92789217Y-61065153D01*
X92846414Y-60971001D01*
X92881857Y-60866694D01*
X92893496Y-60814244D01*
X92905500Y-60704734D01*
X92905500Y-58124000D01*
X92888275Y-57993166D01*
X92871662Y-57931166D01*
X92821163Y-57809250D01*
X92740829Y-57704557D01*
X92695442Y-57659170D01*
X92590749Y-57578836D01*
X92468838Y-57528339D01*
X92406830Y-57511724D01*
X92276001Y-57494500D01*
X92276000Y-57494500D01*
X91709274Y-57494500D01*
X91649158Y-57478953D01*
X91604116Y-57436210D01*
X91585444Y-57376990D01*
X91597823Y-57316142D01*
X91638148Y-57268926D01*
X91703326Y-57223289D01*
X91859285Y-57067330D01*
X91985792Y-56886659D01*
X92079004Y-56686764D01*
X92136089Y-56473721D01*
X92155312Y-56254001D01*
X92136089Y-56034281D01*
X92079004Y-55821238D01*
X91985792Y-55621344D01*
X91985791Y-55621342D01*
X91859285Y-55440671D01*
X91703326Y-55284713D01*
X91522654Y-55158205D01*
X91322763Y-55064995D01*
X91322760Y-55064994D01*
X91216238Y-55036451D01*
X91109714Y-55007908D01*
X90889997Y-54988685D01*
X90670279Y-55007908D01*
X90457232Y-55064994D01*
X90257338Y-55158206D01*
X90076666Y-55284713D01*
X89920709Y-55440670D01*
X89794202Y-55621342D01*
X89700990Y-55821236D01*
X89643904Y-56034283D01*
X89624681Y-56254000D01*
X89643904Y-56473718D01*
X89700991Y-56686767D01*
X89794201Y-56886658D01*
X89794202Y-56886659D01*
X89920709Y-57067330D01*
X90076668Y-57223289D01*
X90141845Y-57268926D01*
X90182171Y-57316142D01*
X90194550Y-57376990D01*
X90175878Y-57436210D01*
X90130836Y-57478953D01*
X90070720Y-57494500D01*
X89437292Y-57494500D01*
X89363719Y-57499883D01*
X89328009Y-57505137D01*
X89255976Y-57521179D01*
X89187052Y-57547534D01*
X89154366Y-57562853D01*
X89090027Y-57598953D01*
X71272240Y-69383947D01*
X63776726Y-74341610D01*
X63776724Y-74341611D01*
X63776725Y-74341611D01*
X63682238Y-74422442D01*
X63641420Y-74467162D01*
X63569527Y-74568610D01*
X63524571Y-74684549D01*
X63509793Y-74743253D01*
X63494500Y-74866650D01*
X63494500Y-77676001D01*
X48341386Y-77676001D01*
X48335414Y-54503996D01*
X87604416Y-54503996D01*
X87624698Y-54709928D01*
X87624699Y-54709930D01*
X87684767Y-54907950D01*
X87782314Y-55090446D01*
X87833607Y-55152948D01*
X87913588Y-55250406D01*
X87955392Y-55284713D01*
X88073549Y-55381681D01*
X88256045Y-55479228D01*
X88454065Y-55539296D01*
X88608391Y-55554496D01*
X88711606Y-55554496D01*
X88711607Y-55554496D01*
X88865933Y-55539296D01*
X89063953Y-55479228D01*
X89246449Y-55381681D01*
X89406409Y-55250406D01*
X89537684Y-55090446D01*
X89635231Y-54907950D01*
X89683144Y-54750000D01*
X114494555Y-54750000D01*
X114514311Y-55064010D01*
X114573269Y-55373082D01*
X114670495Y-55672310D01*
X114804463Y-55957007D01*
X114973053Y-56222663D01*
X115173612Y-56465097D01*
X115402971Y-56680480D01*
X115657515Y-56865416D01*
X115795375Y-56941205D01*
X115933234Y-57016994D01*
X116079504Y-57074906D01*
X116225774Y-57132819D01*
X116331051Y-57159849D01*
X116530527Y-57211066D01*
X116763811Y-57240536D01*
X116842680Y-57250500D01*
X116842682Y-57250500D01*
X117157318Y-57250500D01*
X117157320Y-57250500D01*
X117227341Y-57241653D01*
X117469473Y-57211066D01*
X117774225Y-57132819D01*
X118066766Y-57016994D01*
X118342484Y-56865416D01*
X118342483Y-56865416D01*
X118597028Y-56680480D01*
X118826387Y-56465097D01*
X118826387Y-56465096D01*
X118826390Y-56465094D01*
X119026947Y-56222663D01*
X119195537Y-55957007D01*
X119329503Y-55672315D01*
X119358069Y-55584397D01*
X119396960Y-55527172D01*
X119460459Y-55499694D01*
X119528797Y-55510517D01*
X119580697Y-55556274D01*
X119600000Y-55622716D01*
X119600000Y-56697824D01*
X119606402Y-56757375D01*
X119656647Y-56892089D01*
X119742811Y-57007188D01*
X119857910Y-57093352D01*
X119992624Y-57143597D01*
X120052176Y-57150000D01*
X121250000Y-57150000D01*
X121250000Y-55500000D01*
X122750000Y-55500000D01*
X122750000Y-57150000D01*
X123947824Y-57150000D01*
X124007375Y-57143597D01*
X124142089Y-57093352D01*
X124257188Y-57007188D01*
X124343352Y-56892089D01*
X124393597Y-56757375D01*
X124400000Y-56697824D01*
X124400000Y-55500000D01*
X122750000Y-55500000D01*
X121250000Y-55500000D01*
X121250000Y-52350000D01*
X122750000Y-52350000D01*
X122750000Y-54000000D01*
X124400000Y-54000000D01*
X124400000Y-52802176D01*
X124393597Y-52742624D01*
X124343352Y-52607910D01*
X124257188Y-52492811D01*
X124142089Y-52406647D01*
X124007375Y-52356402D01*
X123947824Y-52350000D01*
X122750000Y-52350000D01*
X121250000Y-52350000D01*
X120052176Y-52350000D01*
X119992624Y-52356402D01*
X119857910Y-52406647D01*
X119742811Y-52492811D01*
X119656647Y-52607910D01*
X119606402Y-52742624D01*
X119600000Y-52802176D01*
X119600000Y-53877284D01*
X119580697Y-53943726D01*
X119528797Y-53989483D01*
X119460459Y-54000306D01*
X119396960Y-53972828D01*
X119358069Y-53915602D01*
X119329504Y-53827689D01*
X119329503Y-53827685D01*
X119195537Y-53542993D01*
X119026947Y-53277337D01*
X118826390Y-53034906D01*
X118826387Y-53034902D01*
X118597028Y-52819519D01*
X118342484Y-52634583D01*
X118066764Y-52483005D01*
X117774225Y-52367180D01*
X117469474Y-52288934D01*
X117157320Y-52249500D01*
X117157318Y-52249500D01*
X116842682Y-52249500D01*
X116842680Y-52249500D01*
X116530525Y-52288934D01*
X116225774Y-52367180D01*
X115933235Y-52483005D01*
X115657515Y-52634583D01*
X115402971Y-52819519D01*
X115173612Y-53034902D01*
X114973053Y-53277336D01*
X114804463Y-53542992D01*
X114670495Y-53827689D01*
X114573269Y-54126917D01*
X114514311Y-54435989D01*
X114494555Y-54750000D01*
X89683144Y-54750000D01*
X89695299Y-54709930D01*
X89715582Y-54503996D01*
X89695299Y-54298062D01*
X89635231Y-54100042D01*
X89537684Y-53917546D01*
X89463941Y-53827689D01*
X89406409Y-53757585D01*
X89308951Y-53677605D01*
X89246449Y-53626311D01*
X89090573Y-53542993D01*
X89063955Y-53528765D01*
X89063954Y-53528764D01*
X89063953Y-53528764D01*
X88964942Y-53498729D01*
X88865931Y-53468695D01*
X88728466Y-53455156D01*
X88711607Y-53453496D01*
X88608391Y-53453496D01*
X88593191Y-53454992D01*
X88454066Y-53468695D01*
X88256042Y-53528765D01*
X88073550Y-53626310D01*
X87913588Y-53757585D01*
X87782313Y-53917547D01*
X87684768Y-54100039D01*
X87624698Y-54298063D01*
X87604416Y-54503996D01*
X48335414Y-54503996D01*
X48334963Y-52753999D01*
X89624681Y-52753999D01*
X89643904Y-52973717D01*
X89700991Y-53186766D01*
X89794201Y-53386657D01*
X89893706Y-53528765D01*
X89920709Y-53567329D01*
X90076668Y-53723288D01*
X90257339Y-53849795D01*
X90457234Y-53943007D01*
X90670277Y-54000092D01*
X90889997Y-54019315D01*
X91109717Y-54000092D01*
X91322760Y-53943007D01*
X91522655Y-53849795D01*
X91703326Y-53723288D01*
X91859285Y-53567329D01*
X91985792Y-53386658D01*
X92079004Y-53186763D01*
X92136089Y-52973720D01*
X92155312Y-52754000D01*
X92136089Y-52534280D01*
X92079004Y-52321237D01*
X91985792Y-52121343D01*
X91966193Y-52093352D01*
X91859285Y-51940670D01*
X91703326Y-51784712D01*
X91522654Y-51658204D01*
X91322763Y-51564994D01*
X91322760Y-51564993D01*
X91216238Y-51536450D01*
X91109714Y-51507907D01*
X90889997Y-51488684D01*
X90670279Y-51507907D01*
X90457232Y-51564993D01*
X90257338Y-51658205D01*
X90076666Y-51784712D01*
X89920709Y-51940669D01*
X89794202Y-52121341D01*
X89700990Y-52321235D01*
X89643904Y-52534282D01*
X89624681Y-52753999D01*
X48334963Y-52753999D01*
X48334189Y-49750000D01*
X51194555Y-49750000D01*
X51214311Y-50064010D01*
X51273269Y-50373082D01*
X51354381Y-50622716D01*
X51370497Y-50672315D01*
X51490977Y-50928348D01*
X51504463Y-50957007D01*
X51673053Y-51222663D01*
X51873612Y-51465097D01*
X52102971Y-51680480D01*
X52357515Y-51865416D01*
X52494400Y-51940669D01*
X52633234Y-52016994D01*
X52779504Y-52074906D01*
X52925774Y-52132819D01*
X53031051Y-52159849D01*
X53230527Y-52211066D01*
X53463812Y-52240536D01*
X53542680Y-52250500D01*
X53542682Y-52250500D01*
X53857318Y-52250500D01*
X53857320Y-52250500D01*
X53927341Y-52241653D01*
X54169473Y-52211066D01*
X54474225Y-52132819D01*
X54766766Y-52016994D01*
X55042484Y-51865416D01*
X55153564Y-51784712D01*
X55297028Y-51680480D01*
X55526387Y-51465097D01*
X55526387Y-51465096D01*
X55526390Y-51465094D01*
X55726947Y-51222663D01*
X55895537Y-50957007D01*
X56029503Y-50672315D01*
X56058069Y-50584397D01*
X56096960Y-50527172D01*
X56160459Y-50499694D01*
X56228797Y-50510517D01*
X56280697Y-50556274D01*
X56300000Y-50622716D01*
X56300000Y-51697824D01*
X56306402Y-51757375D01*
X56356647Y-51892089D01*
X56442811Y-52007188D01*
X56557910Y-52093352D01*
X56692624Y-52143597D01*
X56752176Y-52150000D01*
X57950000Y-52150000D01*
X57950000Y-50500000D01*
X59450000Y-50500000D01*
X59450000Y-52150000D01*
X60647824Y-52150000D01*
X60707375Y-52143597D01*
X60842089Y-52093352D01*
X60957188Y-52007188D01*
X61043352Y-51892089D01*
X61093597Y-51757375D01*
X61098422Y-51712499D01*
X62194540Y-51712499D01*
X62214326Y-51900757D01*
X62272820Y-52080784D01*
X62367466Y-52244716D01*
X62494129Y-52385389D01*
X62647269Y-52496651D01*
X62820197Y-52573644D01*
X63005352Y-52613000D01*
X63005354Y-52613000D01*
X63194646Y-52613000D01*
X63194648Y-52613000D01*
X63318084Y-52586762D01*
X63379803Y-52573644D01*
X63552730Y-52496651D01*
X63571512Y-52483005D01*
X63705870Y-52385389D01*
X63832533Y-52244716D01*
X63927179Y-52080784D01*
X63951092Y-52007188D01*
X63985674Y-51900756D01*
X64005460Y-51712500D01*
X63985674Y-51524244D01*
X63927179Y-51344216D01*
X63927179Y-51344215D01*
X63832533Y-51180283D01*
X63705870Y-51039610D01*
X63552730Y-50928348D01*
X63379802Y-50851355D01*
X63194648Y-50812000D01*
X63194646Y-50812000D01*
X63005354Y-50812000D01*
X63005352Y-50812000D01*
X62820197Y-50851355D01*
X62647269Y-50928348D01*
X62494129Y-51039610D01*
X62367466Y-51180283D01*
X62272820Y-51344215D01*
X62214326Y-51524242D01*
X62194540Y-51712499D01*
X61098422Y-51712499D01*
X61100000Y-51697824D01*
X61100000Y-50500000D01*
X59450000Y-50500000D01*
X57950000Y-50500000D01*
X57950000Y-47350000D01*
X59450000Y-47350000D01*
X59450000Y-49000000D01*
X61100000Y-49000000D01*
X61100000Y-47802176D01*
X61093597Y-47742624D01*
X61043352Y-47607910D01*
X60957188Y-47492811D01*
X60842089Y-47406647D01*
X60707375Y-47356402D01*
X60647824Y-47350000D01*
X59450000Y-47350000D01*
X57950000Y-47350000D01*
X56752176Y-47350000D01*
X56692624Y-47356402D01*
X56557910Y-47406647D01*
X56442811Y-47492811D01*
X56356647Y-47607910D01*
X56306402Y-47742624D01*
X56300000Y-47802176D01*
X56300000Y-48877284D01*
X56280697Y-48943726D01*
X56228797Y-48989483D01*
X56160459Y-49000306D01*
X56096960Y-48972828D01*
X56058069Y-48915602D01*
X56029504Y-48827689D01*
X56029503Y-48827685D01*
X55895537Y-48542993D01*
X55726947Y-48277337D01*
X55526390Y-48034906D01*
X55526387Y-48034902D01*
X55297028Y-47819519D01*
X55042484Y-47634583D01*
X54766764Y-47483005D01*
X54474225Y-47367180D01*
X54169474Y-47288934D01*
X53857320Y-47249500D01*
X53857318Y-47249500D01*
X53542682Y-47249500D01*
X53542680Y-47249500D01*
X53230525Y-47288934D01*
X52925774Y-47367180D01*
X52633235Y-47483005D01*
X52357515Y-47634583D01*
X52102971Y-47819519D01*
X51873612Y-48034902D01*
X51673053Y-48277336D01*
X51504463Y-48542992D01*
X51370495Y-48827689D01*
X51273269Y-49126917D01*
X51214311Y-49435989D01*
X51194555Y-49750000D01*
X48334189Y-49750000D01*
X48332277Y-42328920D01*
X51939739Y-42328920D01*
X52786733Y-43175914D01*
X52833364Y-43213492D01*
X52964150Y-43273220D01*
X53106466Y-43293681D01*
X53248781Y-43273220D01*
X53379567Y-43213492D01*
X53426198Y-43175914D01*
X54102112Y-42500000D01*
X59344540Y-42500000D01*
X59364326Y-42688257D01*
X59422820Y-42868284D01*
X59517466Y-43032216D01*
X59644129Y-43172889D01*
X59797269Y-43284151D01*
X59970197Y-43361144D01*
X60028076Y-43373447D01*
X60085268Y-43402587D01*
X60120227Y-43456419D01*
X60172820Y-43618284D01*
X60267466Y-43782216D01*
X60394129Y-43922889D01*
X60547269Y-44034151D01*
X60720197Y-44111144D01*
X60905352Y-44150500D01*
X60905354Y-44150500D01*
X61094646Y-44150500D01*
X61094648Y-44150500D01*
X61218084Y-44124262D01*
X61279803Y-44111144D01*
X61452730Y-44034151D01*
X61605871Y-43922888D01*
X61732533Y-43782216D01*
X61827179Y-43618284D01*
X61885674Y-43438256D01*
X61905460Y-43250000D01*
X61885674Y-43061744D01*
X61855144Y-42967783D01*
X61827179Y-42881715D01*
X61751133Y-42749999D01*
X63594540Y-42749999D01*
X63614326Y-42938257D01*
X63672820Y-43118284D01*
X63767466Y-43282216D01*
X63894129Y-43422889D01*
X64047269Y-43534151D01*
X64220197Y-43611144D01*
X64405352Y-43650500D01*
X64511967Y-43650500D01*
X64562402Y-43661220D01*
X64604117Y-43691528D01*
X64629898Y-43736182D01*
X64672820Y-43868284D01*
X64767466Y-44032216D01*
X64894129Y-44172889D01*
X65047269Y-44284151D01*
X65220197Y-44361144D01*
X65405352Y-44400500D01*
X65405354Y-44400500D01*
X65594646Y-44400500D01*
X65594648Y-44400500D01*
X65718084Y-44374262D01*
X65779803Y-44361144D01*
X65952730Y-44284151D01*
X66105871Y-44172888D01*
X66232533Y-44032216D01*
X66327179Y-43868284D01*
X66385674Y-43688256D01*
X66405460Y-43500000D01*
X66398523Y-43434000D01*
X76056540Y-43434000D01*
X76063477Y-43499999D01*
X76076326Y-43622257D01*
X76134820Y-43802284D01*
X76229466Y-43966216D01*
X76356129Y-44106889D01*
X76509269Y-44218151D01*
X76682197Y-44295144D01*
X76867352Y-44334500D01*
X76867354Y-44334500D01*
X77056646Y-44334500D01*
X77056648Y-44334500D01*
X77180083Y-44308262D01*
X77241803Y-44295144D01*
X77414730Y-44218151D01*
X77477028Y-44172889D01*
X77567870Y-44106889D01*
X77694533Y-43966216D01*
X77789179Y-43802284D01*
X77789178Y-43802284D01*
X77847674Y-43622256D01*
X77860523Y-43500000D01*
X78850540Y-43500000D01*
X78870326Y-43688257D01*
X78928820Y-43868284D01*
X79023466Y-44032216D01*
X79150129Y-44172889D01*
X79303269Y-44284151D01*
X79476197Y-44361144D01*
X79661352Y-44400500D01*
X79661354Y-44400500D01*
X79850646Y-44400500D01*
X79850648Y-44400500D01*
X79974084Y-44374262D01*
X80035803Y-44361144D01*
X80208730Y-44284151D01*
X80361871Y-44172888D01*
X80488533Y-44032216D01*
X80583179Y-43868284D01*
X80641674Y-43688256D01*
X80661460Y-43500000D01*
X80659380Y-43480212D01*
X80665812Y-43425859D01*
X80695017Y-43379571D01*
X81745667Y-42328921D01*
X122420807Y-42328921D01*
X123267801Y-43175914D01*
X123314432Y-43213492D01*
X123445218Y-43273220D01*
X123587534Y-43293681D01*
X123729849Y-43273220D01*
X123860635Y-43213492D01*
X123907266Y-43175914D01*
X124754260Y-42328920D01*
X124754260Y-42328919D01*
X123587534Y-41162194D01*
X122420807Y-42328919D01*
X122420807Y-42328921D01*
X81745667Y-42328921D01*
X83788770Y-40285819D01*
X83828999Y-40258939D01*
X83876452Y-40249500D01*
X86840207Y-40249500D01*
X86887656Y-40258937D01*
X86927882Y-40285813D01*
X86954761Y-40326032D01*
X86957761Y-40333273D01*
X86957785Y-40333330D01*
X87056932Y-40481676D01*
X87152393Y-40577110D01*
X87183116Y-40607824D01*
X87331488Y-40706932D01*
X87357699Y-40717784D01*
X87496339Y-40775186D01*
X87496342Y-40775186D01*
X87496343Y-40775187D01*
X87671348Y-40809967D01*
X87760562Y-40809951D01*
X87839350Y-40809951D01*
X87846936Y-40809951D01*
X87847350Y-40809925D01*
X87889199Y-40809925D01*
X87889201Y-40809925D01*
X88064175Y-40775123D01*
X88207937Y-40715577D01*
X88228996Y-40706856D01*
X88228996Y-40706855D01*
X88228998Y-40706855D01*
X88377337Y-40607746D01*
X88503492Y-40481602D01*
X88602615Y-40333273D01*
X88605614Y-40326035D01*
X88632492Y-40285815D01*
X88672719Y-40258938D01*
X88720169Y-40249500D01*
X103793256Y-40249500D01*
X103813762Y-40251764D01*
X103816665Y-40251672D01*
X103816667Y-40251673D01*
X103883872Y-40249561D01*
X103887768Y-40249500D01*
X103915349Y-40249500D01*
X103915350Y-40249500D01*
X103919319Y-40248998D01*
X103930965Y-40248080D01*
X103974627Y-40246709D01*
X103993859Y-40241120D01*
X104012918Y-40237174D01*
X104019196Y-40236381D01*
X104032792Y-40234664D01*
X104073407Y-40218582D01*
X104084444Y-40214803D01*
X104126390Y-40202618D01*
X104143629Y-40192422D01*
X104161102Y-40183862D01*
X104179732Y-40176486D01*
X104215064Y-40150814D01*
X104224830Y-40144400D01*
X104262418Y-40122171D01*
X104262417Y-40122171D01*
X104262420Y-40122170D01*
X104276585Y-40108004D01*
X104291373Y-40095373D01*
X104307587Y-40083594D01*
X104335438Y-40049926D01*
X104343279Y-40041309D01*
X107818590Y-36565999D01*
X117546555Y-36565999D01*
X117566311Y-36880010D01*
X117625269Y-37189082D01*
X117722495Y-37488310D01*
X117722497Y-37488315D01*
X117829643Y-37716011D01*
X117856463Y-37773007D01*
X118025053Y-38038663D01*
X118225612Y-38281097D01*
X118454971Y-38496480D01*
X118709515Y-38681416D01*
X118847375Y-38757205D01*
X118985234Y-38832994D01*
X119073374Y-38867891D01*
X119277774Y-38948819D01*
X119383051Y-38975849D01*
X119582527Y-39027066D01*
X119808233Y-39055579D01*
X119894680Y-39066500D01*
X119894682Y-39066500D01*
X120209318Y-39066500D01*
X120209320Y-39066500D01*
X120295767Y-39055579D01*
X120521473Y-39027066D01*
X120826225Y-38948819D01*
X121118766Y-38832994D01*
X121118765Y-38832994D01*
X121126020Y-38830122D01*
X121126470Y-38831260D01*
X121173987Y-38818389D01*
X121231205Y-38830702D01*
X121276402Y-38867888D01*
X121299509Y-38921661D01*
X121295377Y-38980044D01*
X121264927Y-39030027D01*
X120513153Y-39781801D01*
X120475575Y-39828432D01*
X120415847Y-39959218D01*
X120395386Y-40101534D01*
X120415847Y-40243849D01*
X120475575Y-40374635D01*
X120513153Y-40421266D01*
X121360147Y-41268260D01*
X122526875Y-40101533D01*
X124648194Y-40101533D01*
X125814919Y-41268260D01*
X125814920Y-41268260D01*
X126661914Y-40421266D01*
X126699492Y-40374635D01*
X126759220Y-40243849D01*
X126779681Y-40101534D01*
X126759220Y-39959218D01*
X126699492Y-39828432D01*
X126661914Y-39781801D01*
X125814920Y-38934807D01*
X124648194Y-40101533D01*
X122526875Y-40101533D01*
X123587534Y-39040874D01*
X124754260Y-37874148D01*
X124754260Y-37874146D01*
X123907266Y-37027153D01*
X123860635Y-36989575D01*
X123729849Y-36929847D01*
X123587533Y-36909386D01*
X123445218Y-36929847D01*
X123314432Y-36989575D01*
X123267801Y-37027153D01*
X122506030Y-37788924D01*
X122446158Y-37822084D01*
X122377815Y-37818431D01*
X122321820Y-37779077D01*
X122295232Y-37716011D01*
X122306151Y-37648446D01*
X122381502Y-37488317D01*
X122381505Y-37488310D01*
X122478731Y-37189079D01*
X122537688Y-36880015D01*
X122557444Y-36566000D01*
X122537688Y-36251985D01*
X122478731Y-35942921D01*
X122381503Y-35643685D01*
X122247537Y-35358993D01*
X122078947Y-35093337D01*
X121878390Y-34850906D01*
X121878387Y-34850902D01*
X121649028Y-34635519D01*
X121394484Y-34450583D01*
X121118764Y-34299005D01*
X120826225Y-34183180D01*
X120521474Y-34104934D01*
X120209320Y-34065500D01*
X120209318Y-34065500D01*
X119894682Y-34065500D01*
X119894680Y-34065500D01*
X119582525Y-34104934D01*
X119277774Y-34183180D01*
X118985235Y-34299005D01*
X118709515Y-34450583D01*
X118454971Y-34635519D01*
X118225612Y-34850902D01*
X118025053Y-35093336D01*
X117856463Y-35358992D01*
X117722495Y-35643689D01*
X117625269Y-35942917D01*
X117566311Y-36251989D01*
X117546555Y-36565999D01*
X107818590Y-36565999D01*
X109207280Y-35177309D01*
X109244523Y-35151713D01*
X109245799Y-35151144D01*
X109245803Y-35151144D01*
X109418730Y-35074151D01*
X109418730Y-35074150D01*
X109418732Y-35074150D01*
X109571870Y-34962889D01*
X109698533Y-34822216D01*
X109793179Y-34658284D01*
X109821377Y-34571499D01*
X109851674Y-34478256D01*
X109871460Y-34290000D01*
X109851674Y-34101744D01*
X109793179Y-33921716D01*
X109793179Y-33921715D01*
X109698533Y-33757783D01*
X109571870Y-33617110D01*
X109418730Y-33505848D01*
X109245802Y-33428855D01*
X109060648Y-33389500D01*
X109060646Y-33389500D01*
X108871354Y-33389500D01*
X108871352Y-33389500D01*
X108686197Y-33428855D01*
X108513269Y-33505848D01*
X108360129Y-33617110D01*
X108233466Y-33757783D01*
X108138820Y-33921715D01*
X108080326Y-34101742D01*
X108080325Y-34101744D01*
X108080326Y-34101744D01*
X108060540Y-34290000D01*
X108079548Y-34470859D01*
X108073116Y-34525210D01*
X108043909Y-34571499D01*
X103653228Y-38962181D01*
X103613000Y-38989061D01*
X103565547Y-38998500D01*
X88313763Y-38998500D01*
X88313480Y-38998516D01*
X88271345Y-38998510D01*
X88096334Y-39033295D01*
X87931479Y-39101560D01*
X87849102Y-39156592D01*
X87804403Y-39175102D01*
X87756023Y-39175099D01*
X87711327Y-39156583D01*
X87629031Y-39101590D01*
X87464197Y-39033310D01*
X87289209Y-38998500D01*
X87279022Y-38998500D01*
X87279019Y-38998500D01*
X83648744Y-38998500D01*
X83628236Y-38996235D01*
X83558113Y-38998439D01*
X83554219Y-38998500D01*
X83526650Y-38998500D01*
X83522671Y-38999002D01*
X83511041Y-38999917D01*
X83467372Y-39001289D01*
X83448128Y-39006880D01*
X83429084Y-39010824D01*
X83409208Y-39013335D01*
X83368600Y-39029413D01*
X83357554Y-39033194D01*
X83331126Y-39040874D01*
X83315607Y-39045383D01*
X83298365Y-39055579D01*
X83280904Y-39064133D01*
X83262267Y-39071512D01*
X83226931Y-39097185D01*
X83217174Y-39103595D01*
X83179580Y-39125829D01*
X83165413Y-39139996D01*
X83150624Y-39152626D01*
X83134413Y-39164404D01*
X83106572Y-39198058D01*
X83098711Y-39206697D01*
X79742228Y-42563181D01*
X79702000Y-42590061D01*
X79673861Y-42595658D01*
X79674102Y-42596790D01*
X79476197Y-42638855D01*
X79303269Y-42715848D01*
X79150129Y-42827110D01*
X79023466Y-42967783D01*
X78928820Y-43131715D01*
X78870326Y-43311742D01*
X78850540Y-43500000D01*
X77860523Y-43500000D01*
X77865321Y-43454344D01*
X77876721Y-43413925D01*
X77900958Y-43379630D01*
X83026770Y-38253819D01*
X83066999Y-38226939D01*
X83114452Y-38217500D01*
X101517256Y-38217500D01*
X101537762Y-38219764D01*
X101540665Y-38219672D01*
X101540667Y-38219673D01*
X101607872Y-38217561D01*
X101611768Y-38217500D01*
X101639349Y-38217500D01*
X101639350Y-38217500D01*
X101643319Y-38216998D01*
X101654965Y-38216080D01*
X101698627Y-38214709D01*
X101717859Y-38209120D01*
X101736918Y-38205174D01*
X101743196Y-38204381D01*
X101756792Y-38202664D01*
X101797407Y-38186582D01*
X101808444Y-38182803D01*
X101850390Y-38170618D01*
X101867629Y-38160422D01*
X101885102Y-38151862D01*
X101903732Y-38144486D01*
X101939064Y-38118814D01*
X101948830Y-38112400D01*
X101986418Y-38090171D01*
X101986417Y-38090171D01*
X101986420Y-38090170D01*
X102000585Y-38076004D01*
X102015373Y-38063373D01*
X102031587Y-38051594D01*
X102059438Y-38017926D01*
X102067279Y-38009309D01*
X106373770Y-33702819D01*
X106413999Y-33675939D01*
X106461452Y-33666500D01*
X106520648Y-33666500D01*
X106644083Y-33640262D01*
X106705803Y-33627144D01*
X106878730Y-33550151D01*
X107031871Y-33438888D01*
X107158533Y-33298216D01*
X107253179Y-33134284D01*
X107311674Y-32954256D01*
X107331460Y-32766000D01*
X107311674Y-32577744D01*
X107273763Y-32461066D01*
X107253179Y-32397715D01*
X107158533Y-32233783D01*
X107031870Y-32093110D01*
X106878730Y-31981848D01*
X106705802Y-31904855D01*
X106520648Y-31865500D01*
X106520646Y-31865500D01*
X106331354Y-31865500D01*
X106331352Y-31865500D01*
X106146197Y-31904855D01*
X105973269Y-31981848D01*
X105820129Y-32093110D01*
X105693466Y-32233783D01*
X105598820Y-32397715D01*
X105540326Y-32577742D01*
X105522678Y-32745651D01*
X105511277Y-32786073D01*
X105487038Y-32820370D01*
X101377228Y-36930181D01*
X101337000Y-36957061D01*
X101289547Y-36966500D01*
X82886744Y-36966500D01*
X82866236Y-36964235D01*
X82796113Y-36966439D01*
X82792219Y-36966500D01*
X82764650Y-36966500D01*
X82760671Y-36967002D01*
X82749041Y-36967917D01*
X82705372Y-36969289D01*
X82686128Y-36974880D01*
X82667084Y-36978824D01*
X82647208Y-36981335D01*
X82606600Y-36997413D01*
X82595554Y-37001194D01*
X82553610Y-37013382D01*
X82553607Y-37013383D01*
X82536365Y-37023579D01*
X82518904Y-37032133D01*
X82500267Y-37039512D01*
X82464931Y-37065185D01*
X82455174Y-37071595D01*
X82417580Y-37093829D01*
X82403413Y-37107996D01*
X82388624Y-37120626D01*
X82372413Y-37132404D01*
X82344572Y-37166058D01*
X82336711Y-37174697D01*
X77014228Y-42497181D01*
X76974000Y-42524061D01*
X76926547Y-42533500D01*
X76867352Y-42533500D01*
X76682197Y-42572855D01*
X76509269Y-42649848D01*
X76356129Y-42761110D01*
X76229466Y-42901783D01*
X76134820Y-43065715D01*
X76076326Y-43245742D01*
X76058650Y-43413925D01*
X76056540Y-43434000D01*
X66398523Y-43434000D01*
X66385674Y-43311744D01*
X66327179Y-43131716D01*
X66327179Y-43131715D01*
X66232535Y-42967786D01*
X66173105Y-42901783D01*
X66111145Y-42832969D01*
X66082980Y-42779999D01*
X66082980Y-42720001D01*
X66111145Y-42667030D01*
X66232533Y-42532216D01*
X66237242Y-42524061D01*
X66327179Y-42368284D01*
X66339969Y-42328920D01*
X66385674Y-42188256D01*
X66405460Y-42000000D01*
X66385674Y-41811744D01*
X66327179Y-41631716D01*
X66327179Y-41631715D01*
X66232533Y-41467783D01*
X66105870Y-41327110D01*
X65952730Y-41215848D01*
X65779802Y-41138855D01*
X65594648Y-41099500D01*
X65594646Y-41099500D01*
X65488033Y-41099500D01*
X65437598Y-41088780D01*
X65395883Y-41058472D01*
X65370102Y-41013818D01*
X65327179Y-40881715D01*
X65232533Y-40717783D01*
X65105870Y-40577110D01*
X64952730Y-40465848D01*
X64779802Y-40388855D01*
X64594648Y-40349500D01*
X64594646Y-40349500D01*
X64405354Y-40349500D01*
X64405352Y-40349500D01*
X64220197Y-40388855D01*
X64047269Y-40465848D01*
X63894129Y-40577110D01*
X63767466Y-40717783D01*
X63672820Y-40881715D01*
X63614326Y-41061742D01*
X63594540Y-41250000D01*
X63614326Y-41438257D01*
X63672820Y-41618284D01*
X63767464Y-41782213D01*
X63767467Y-41782216D01*
X63888854Y-41917030D01*
X63917020Y-41970001D01*
X63917020Y-42029999D01*
X63888854Y-42082969D01*
X63826104Y-42152660D01*
X63767464Y-42217786D01*
X63672820Y-42381715D01*
X63614326Y-42561742D01*
X63594540Y-42749999D01*
X61751133Y-42749999D01*
X61732533Y-42717783D01*
X61611147Y-42582971D01*
X61582980Y-42529997D01*
X61582980Y-42470000D01*
X61611146Y-42417029D01*
X61732533Y-42282216D01*
X61827179Y-42118284D01*
X61885674Y-41938256D01*
X61905460Y-41750000D01*
X61885674Y-41561744D01*
X61855144Y-41467783D01*
X61827179Y-41381715D01*
X61732533Y-41217783D01*
X61605870Y-41077110D01*
X61452730Y-40965848D01*
X61279802Y-40888855D01*
X61094648Y-40849500D01*
X61094646Y-40849500D01*
X60905354Y-40849500D01*
X60905352Y-40849500D01*
X60720197Y-40888855D01*
X60547269Y-40965848D01*
X60394129Y-41077110D01*
X60267466Y-41217783D01*
X60172821Y-41381714D01*
X60120227Y-41543581D01*
X60085269Y-41597411D01*
X60028079Y-41626552D01*
X59970197Y-41638856D01*
X59797267Y-41715849D01*
X59644129Y-41827110D01*
X59517466Y-41967783D01*
X59422820Y-42131715D01*
X59364326Y-42311742D01*
X59344540Y-42500000D01*
X54102112Y-42500000D01*
X54273192Y-42328920D01*
X54273192Y-42328919D01*
X53106465Y-41162194D01*
X51939739Y-42328920D01*
X48332277Y-42328920D01*
X48331703Y-40101534D01*
X49914318Y-40101534D01*
X49934779Y-40243849D01*
X49994507Y-40374635D01*
X50032085Y-40421266D01*
X50879079Y-41268260D01*
X50879080Y-41268260D01*
X52045805Y-40101533D01*
X50879079Y-38934807D01*
X50879078Y-38934807D01*
X50032085Y-39781801D01*
X49994507Y-39828432D01*
X49934779Y-39959218D01*
X49914318Y-40101534D01*
X48331703Y-40101534D01*
X48331129Y-37874147D01*
X51939739Y-37874147D01*
X55333852Y-41268260D01*
X56180846Y-40421266D01*
X56218424Y-40374635D01*
X56278152Y-40243849D01*
X56298613Y-40101534D01*
X56278152Y-39959218D01*
X56218424Y-39828432D01*
X56180846Y-39781801D01*
X55429072Y-39030027D01*
X55398623Y-38980045D01*
X55394490Y-38921665D01*
X55417594Y-38867891D01*
X55462788Y-38830705D01*
X55520004Y-38818389D01*
X55567529Y-38831258D01*
X55567980Y-38830122D01*
X55867774Y-38948819D01*
X55973051Y-38975849D01*
X56172527Y-39027066D01*
X56398233Y-39055579D01*
X56484680Y-39066500D01*
X56484682Y-39066500D01*
X56799318Y-39066500D01*
X56799320Y-39066500D01*
X56885767Y-39055579D01*
X57111473Y-39027066D01*
X57416225Y-38948819D01*
X57708766Y-38832994D01*
X57984484Y-38681416D01*
X57984483Y-38681416D01*
X58239028Y-38496480D01*
X58468387Y-38281097D01*
X58468387Y-38281096D01*
X58468390Y-38281094D01*
X58668947Y-38038663D01*
X58837537Y-37773007D01*
X58971503Y-37488315D01*
X59068731Y-37189079D01*
X59127688Y-36880015D01*
X59147444Y-36566000D01*
X59127688Y-36251985D01*
X59068731Y-35942921D01*
X58971503Y-35643685D01*
X58837537Y-35358993D01*
X58668947Y-35093337D01*
X58468390Y-34850906D01*
X58468387Y-34850902D01*
X58239028Y-34635519D01*
X57984484Y-34450583D01*
X57708764Y-34299005D01*
X57416225Y-34183180D01*
X57111474Y-34104934D01*
X56799320Y-34065500D01*
X56799318Y-34065500D01*
X56484682Y-34065500D01*
X56484680Y-34065500D01*
X56172525Y-34104934D01*
X55867774Y-34183180D01*
X55575235Y-34299005D01*
X55299515Y-34450583D01*
X55044971Y-34635519D01*
X54815612Y-34850902D01*
X54615053Y-35093336D01*
X54446463Y-35358992D01*
X54312495Y-35643689D01*
X54215269Y-35942917D01*
X54156311Y-36251989D01*
X54136555Y-36565999D01*
X54156311Y-36880010D01*
X54215269Y-37189082D01*
X54312496Y-37488314D01*
X54387849Y-37648447D01*
X54398767Y-37716011D01*
X54372179Y-37779077D01*
X54316184Y-37818431D01*
X54247840Y-37822084D01*
X54187969Y-37788924D01*
X53426198Y-37027153D01*
X53379567Y-36989575D01*
X53248781Y-36929847D01*
X53106465Y-36909386D01*
X52964150Y-36929847D01*
X52833364Y-36989575D01*
X52786733Y-37027153D01*
X51939739Y-37874146D01*
X51939739Y-37874147D01*
X48331129Y-37874147D01*
X48328962Y-29467764D01*
X50492787Y-29467764D01*
X50522413Y-29737016D01*
X50590928Y-29999087D01*
X50696871Y-30248392D01*
X50837982Y-30479611D01*
X51011253Y-30687818D01*
X51011255Y-30687820D01*
X51212998Y-30868582D01*
X51438910Y-31018044D01*
X51545211Y-31067876D01*
X51684177Y-31133021D01*
X51930097Y-31207007D01*
X51943569Y-31211060D01*
X52211561Y-31250500D01*
X52414631Y-31250500D01*
X52414634Y-31250500D01*
X52617156Y-31235677D01*
X52617156Y-31235676D01*
X52881553Y-31176780D01*
X53134558Y-31080014D01*
X53370777Y-30947441D01*
X53585177Y-30781888D01*
X53773186Y-30586881D01*
X53930799Y-30366579D01*
X54054656Y-30125675D01*
X54097531Y-30000000D01*
X71994555Y-30000000D01*
X72014311Y-30314010D01*
X72073269Y-30623082D01*
X72153037Y-30868580D01*
X72170497Y-30922315D01*
X72215544Y-31018044D01*
X72304463Y-31207007D01*
X72473053Y-31472663D01*
X72673612Y-31715097D01*
X72902971Y-31930480D01*
X73157515Y-32115416D01*
X73295375Y-32191205D01*
X73433234Y-32266994D01*
X73579504Y-32324906D01*
X73725774Y-32382819D01*
X73831051Y-32409849D01*
X74030527Y-32461066D01*
X74263811Y-32490536D01*
X74342680Y-32500500D01*
X74342682Y-32500500D01*
X74657318Y-32500500D01*
X74657320Y-32500500D01*
X74727341Y-32491653D01*
X74969473Y-32461066D01*
X75274225Y-32382819D01*
X75566766Y-32266994D01*
X75842484Y-32115416D01*
X75873186Y-32093110D01*
X76097028Y-31930480D01*
X76326387Y-31715097D01*
X76326387Y-31715096D01*
X76326390Y-31715094D01*
X76526947Y-31472663D01*
X76695537Y-31207007D01*
X76829503Y-30922315D01*
X76858069Y-30834397D01*
X76896960Y-30777172D01*
X76960459Y-30749694D01*
X77028797Y-30760517D01*
X77080697Y-30806274D01*
X77100000Y-30872716D01*
X77100000Y-31947824D01*
X77106402Y-32007375D01*
X77156647Y-32142089D01*
X77242811Y-32257188D01*
X77357910Y-32343352D01*
X77492624Y-32393597D01*
X77552176Y-32400000D01*
X78750000Y-32400000D01*
X78750000Y-30750000D01*
X80250000Y-30750000D01*
X80250000Y-32400000D01*
X81447824Y-32400000D01*
X81507375Y-32393597D01*
X81642089Y-32343352D01*
X81757188Y-32257188D01*
X81843352Y-32142089D01*
X81893597Y-32007375D01*
X81900000Y-31947824D01*
X81900000Y-30750000D01*
X80250000Y-30750000D01*
X78750000Y-30750000D01*
X78750000Y-30000000D01*
X90494555Y-30000000D01*
X90514311Y-30314010D01*
X90573269Y-30623082D01*
X90653037Y-30868580D01*
X90670497Y-30922315D01*
X90715544Y-31018044D01*
X90804463Y-31207007D01*
X90973053Y-31472663D01*
X91173612Y-31715097D01*
X91402971Y-31930480D01*
X91657515Y-32115416D01*
X91795375Y-32191205D01*
X91933234Y-32266994D01*
X92079504Y-32324906D01*
X92225774Y-32382819D01*
X92331051Y-32409849D01*
X92530527Y-32461066D01*
X92763811Y-32490536D01*
X92842680Y-32500500D01*
X92842682Y-32500500D01*
X93157318Y-32500500D01*
X93157320Y-32500500D01*
X93227341Y-32491653D01*
X93469473Y-32461066D01*
X93774225Y-32382819D01*
X94066766Y-32266994D01*
X94342484Y-32115416D01*
X94373186Y-32093110D01*
X94597028Y-31930480D01*
X94826387Y-31715097D01*
X94826387Y-31715096D01*
X94826390Y-31715094D01*
X95026947Y-31472663D01*
X95195537Y-31207007D01*
X95329503Y-30922315D01*
X95358069Y-30834397D01*
X95396960Y-30777172D01*
X95460459Y-30749694D01*
X95528797Y-30760517D01*
X95580697Y-30806274D01*
X95600000Y-30872716D01*
X95600000Y-31947824D01*
X95606402Y-32007375D01*
X95656647Y-32142089D01*
X95742811Y-32257188D01*
X95857910Y-32343352D01*
X95992624Y-32393597D01*
X96052176Y-32400000D01*
X97250000Y-32400000D01*
X97250000Y-30750000D01*
X98750000Y-30750000D01*
X98750000Y-32400000D01*
X99947824Y-32400000D01*
X100007375Y-32393597D01*
X100142089Y-32343352D01*
X100257188Y-32257188D01*
X100343352Y-32142089D01*
X100393597Y-32007375D01*
X100400000Y-31947824D01*
X100400000Y-30750000D01*
X98750000Y-30750000D01*
X97250000Y-30750000D01*
X97250000Y-29467764D01*
X122492787Y-29467764D01*
X122522413Y-29737016D01*
X122590928Y-29999087D01*
X122696871Y-30248392D01*
X122837982Y-30479611D01*
X123011253Y-30687818D01*
X123011255Y-30687820D01*
X123212998Y-30868582D01*
X123438910Y-31018044D01*
X123545211Y-31067876D01*
X123684177Y-31133021D01*
X123930097Y-31207007D01*
X123943569Y-31211060D01*
X124211561Y-31250500D01*
X124414631Y-31250500D01*
X124414634Y-31250500D01*
X124617156Y-31235677D01*
X124617156Y-31235676D01*
X124881553Y-31176780D01*
X125134558Y-31080014D01*
X125370777Y-30947441D01*
X125585177Y-30781888D01*
X125773186Y-30586881D01*
X125930799Y-30366579D01*
X126054656Y-30125675D01*
X126142118Y-29869305D01*
X126191319Y-29602933D01*
X126201212Y-29332235D01*
X126171586Y-29062982D01*
X126103072Y-28800912D01*
X125997130Y-28551610D01*
X125856018Y-28320390D01*
X125856017Y-28320388D01*
X125682746Y-28112181D01*
X125664278Y-28095634D01*
X125481002Y-27931418D01*
X125255090Y-27781956D01*
X125255086Y-27781954D01*
X125009822Y-27666978D01*
X124750437Y-27588941D01*
X124750431Y-27588940D01*
X124482439Y-27549500D01*
X124279369Y-27549500D01*
X124279366Y-27549500D01*
X124076843Y-27564322D01*
X123812449Y-27623219D01*
X123559441Y-27719986D01*
X123323223Y-27852559D01*
X123108825Y-28018109D01*
X122920813Y-28213120D01*
X122763201Y-28433420D01*
X122639342Y-28674329D01*
X122551881Y-28930695D01*
X122502680Y-29197066D01*
X122492787Y-29467764D01*
X97250000Y-29467764D01*
X97250000Y-27600000D01*
X98750000Y-27600000D01*
X98750000Y-29250000D01*
X100400000Y-29250000D01*
X100400000Y-28052176D01*
X100393597Y-27992624D01*
X100343352Y-27857910D01*
X100257188Y-27742811D01*
X100142089Y-27656647D01*
X100007375Y-27606402D01*
X99947824Y-27600000D01*
X98750000Y-27600000D01*
X97250000Y-27600000D01*
X96052176Y-27600000D01*
X95992624Y-27606402D01*
X95857910Y-27656647D01*
X95742811Y-27742811D01*
X95656647Y-27857910D01*
X95606402Y-27992624D01*
X95600000Y-28052176D01*
X95600000Y-29127284D01*
X95580697Y-29193726D01*
X95528797Y-29239483D01*
X95460459Y-29250306D01*
X95396960Y-29222828D01*
X95358069Y-29165602D01*
X95329503Y-29077685D01*
X95195537Y-28792993D01*
X95026947Y-28527337D01*
X94949252Y-28433420D01*
X94826387Y-28284902D01*
X94597028Y-28069519D01*
X94342484Y-27884583D01*
X94066764Y-27733005D01*
X93774225Y-27617180D01*
X93469474Y-27538934D01*
X93157320Y-27499500D01*
X93157318Y-27499500D01*
X92842682Y-27499500D01*
X92842680Y-27499500D01*
X92530525Y-27538934D01*
X92225774Y-27617180D01*
X91933235Y-27733005D01*
X91657515Y-27884583D01*
X91402971Y-28069519D01*
X91173612Y-28284902D01*
X90973053Y-28527336D01*
X90804463Y-28792992D01*
X90670495Y-29077689D01*
X90573269Y-29376917D01*
X90514311Y-29685989D01*
X90494555Y-30000000D01*
X78750000Y-30000000D01*
X78750000Y-27600000D01*
X80250000Y-27600000D01*
X80250000Y-29250000D01*
X81900000Y-29250000D01*
X81900000Y-28052176D01*
X81893597Y-27992624D01*
X81843352Y-27857910D01*
X81757188Y-27742811D01*
X81642089Y-27656647D01*
X81507375Y-27606402D01*
X81447824Y-27600000D01*
X80250000Y-27600000D01*
X78750000Y-27600000D01*
X77552176Y-27600000D01*
X77492624Y-27606402D01*
X77357910Y-27656647D01*
X77242811Y-27742811D01*
X77156647Y-27857910D01*
X77106402Y-27992624D01*
X77100000Y-28052176D01*
X77100000Y-29127284D01*
X77080697Y-29193726D01*
X77028797Y-29239483D01*
X76960459Y-29250306D01*
X76896960Y-29222828D01*
X76858069Y-29165602D01*
X76829503Y-29077685D01*
X76695537Y-28792993D01*
X76526947Y-28527337D01*
X76449252Y-28433420D01*
X76326387Y-28284902D01*
X76097028Y-28069519D01*
X75842484Y-27884583D01*
X75566764Y-27733005D01*
X75274225Y-27617180D01*
X74969474Y-27538934D01*
X74657320Y-27499500D01*
X74657318Y-27499500D01*
X74342682Y-27499500D01*
X74342680Y-27499500D01*
X74030525Y-27538934D01*
X73725774Y-27617180D01*
X73433235Y-27733005D01*
X73157515Y-27884583D01*
X72902971Y-28069519D01*
X72673612Y-28284902D01*
X72473053Y-28527336D01*
X72304463Y-28792992D01*
X72170495Y-29077689D01*
X72073269Y-29376917D01*
X72014311Y-29685989D01*
X71994555Y-30000000D01*
X54097531Y-30000000D01*
X54142118Y-29869305D01*
X54191319Y-29602933D01*
X54201212Y-29332235D01*
X54171586Y-29062982D01*
X54103072Y-28800912D01*
X53997130Y-28551610D01*
X53856018Y-28320390D01*
X53856017Y-28320388D01*
X53682746Y-28112181D01*
X53664278Y-28095634D01*
X53481002Y-27931418D01*
X53255090Y-27781956D01*
X53255086Y-27781954D01*
X53009822Y-27666978D01*
X52750437Y-27588941D01*
X52750431Y-27588940D01*
X52482439Y-27549500D01*
X52279369Y-27549500D01*
X52279366Y-27549500D01*
X52076843Y-27564322D01*
X51812449Y-27623219D01*
X51559441Y-27719986D01*
X51323223Y-27852559D01*
X51108825Y-28018109D01*
X50920813Y-28213120D01*
X50763201Y-28433420D01*
X50639342Y-28674329D01*
X50551881Y-28930695D01*
X50502680Y-29197066D01*
X50492787Y-29467764D01*
X48328962Y-29467764D01*
X48328927Y-29331279D01*
X48329058Y-29325588D01*
X48336920Y-29155530D01*
X48338308Y-29127284D01*
X48346594Y-28958624D01*
X48347627Y-28947646D01*
X48373050Y-28765398D01*
X48373153Y-28764685D01*
X48400375Y-28581167D01*
X48402315Y-28571034D01*
X48444973Y-28389665D01*
X48445278Y-28388405D01*
X48489827Y-28210558D01*
X48492520Y-28201348D01*
X48551995Y-28023899D01*
X48552711Y-28021831D01*
X48614131Y-27850176D01*
X48617415Y-27841944D01*
X48693200Y-27670309D01*
X48694438Y-27667602D01*
X48772145Y-27503304D01*
X48775888Y-27496026D01*
X48867265Y-27331973D01*
X48869170Y-27328676D01*
X48962467Y-27173018D01*
X48966471Y-27166777D01*
X49072703Y-27011698D01*
X49075342Y-27007996D01*
X49183332Y-26862389D01*
X49187445Y-26857150D01*
X49307646Y-26712398D01*
X49311005Y-26708524D01*
X49432768Y-26574180D01*
X49436865Y-26569878D01*
X49569878Y-26436865D01*
X49574180Y-26432768D01*
X49708524Y-26311005D01*
X49712398Y-26307646D01*
X49857150Y-26187445D01*
X49862389Y-26183332D01*
X50007996Y-26075342D01*
X50011698Y-26072703D01*
X50166777Y-25966471D01*
X50173018Y-25962467D01*
X50328676Y-25869170D01*
X50331973Y-25867265D01*
X50496026Y-25775888D01*
X50503304Y-25772145D01*
X50667602Y-25694438D01*
X50670309Y-25693200D01*
X50841944Y-25617415D01*
X50850176Y-25614131D01*
X51021831Y-25552711D01*
X51023899Y-25551995D01*
X51201348Y-25492520D01*
X51210558Y-25489827D01*
X51388405Y-25445278D01*
X51389665Y-25444973D01*
X51571034Y-25402315D01*
X51581167Y-25400375D01*
X51764685Y-25373153D01*
X51765398Y-25373050D01*
X51947646Y-25347627D01*
X51958624Y-25346594D01*
X52155561Y-25336918D01*
X52325546Y-25329060D01*
X52331315Y-25328929D01*
X124295209Y-25400448D01*
G37*
%TD.AperFunction*%
%TA.AperFunction,Conductor*%
G36*
X92338000Y-58016613D02*
G01*
X92383387Y-58062000D01*
X92400000Y-58124000D01*
X92400000Y-60704734D01*
X92388361Y-60757184D01*
X92355630Y-60799787D01*
X92307951Y-60824546D01*
X91580962Y-61018409D01*
X89400000Y-61599999D01*
X80427625Y-67811643D01*
X80372434Y-67832732D01*
X80313749Y-67825887D01*
X80264894Y-67792663D01*
X80205871Y-67727112D01*
X80205870Y-67727111D01*
X80205869Y-67727110D01*
X80052730Y-67615848D01*
X79879802Y-67538855D01*
X79694648Y-67499500D01*
X79694646Y-67499500D01*
X79505354Y-67499500D01*
X79505352Y-67499500D01*
X79320197Y-67538855D01*
X79147269Y-67615848D01*
X78994129Y-67727110D01*
X78867466Y-67867783D01*
X78772820Y-68031715D01*
X78714326Y-68211742D01*
X78694540Y-68399999D01*
X78714326Y-68588257D01*
X78772819Y-68768281D01*
X78772821Y-68768284D01*
X78793660Y-68804379D01*
X78810227Y-68862991D01*
X78796886Y-68922421D01*
X78756855Y-68968330D01*
X66031847Y-77777952D01*
X65998238Y-77794360D01*
X65961265Y-77800000D01*
X64124000Y-77800000D01*
X64062000Y-77783387D01*
X64016613Y-77738000D01*
X64000000Y-77676000D01*
X64000000Y-74866654D01*
X64014779Y-74807945D01*
X64055593Y-74763230D01*
X89368891Y-58020576D01*
X89401581Y-58005255D01*
X89437298Y-58000000D01*
X92276000Y-58000000D01*
X92338000Y-58016613D01*
G37*
%TD.AperFunction*%
%TA.AperFunction,Conductor*%
G36*
X92304592Y-61633085D02*
G01*
X92353846Y-61657225D01*
X92387868Y-61700251D01*
X92400000Y-61753744D01*
X92400000Y-77952982D01*
X92391945Y-77996946D01*
X92368825Y-78035196D01*
X87749999Y-83250000D01*
X87750000Y-83250000D01*
X87750000Y-87067939D01*
X87741762Y-87112382D01*
X87730552Y-87130671D01*
X87731983Y-87131498D01*
X87630820Y-87306715D01*
X87572326Y-87486742D01*
X87552540Y-87675000D01*
X87572326Y-87863257D01*
X87630820Y-88043284D01*
X87731983Y-88218502D01*
X87730552Y-88219328D01*
X87741762Y-88237618D01*
X87750000Y-88282061D01*
X87750000Y-89675343D01*
X87740971Y-89721794D01*
X87715198Y-89761480D01*
X87676436Y-89788622D01*
X87624269Y-89811848D01*
X87471129Y-89923110D01*
X87344466Y-90063783D01*
X87249820Y-90227715D01*
X87191326Y-90407742D01*
X87191325Y-90407744D01*
X87191326Y-90407744D01*
X87171540Y-90596000D01*
X87181432Y-90690127D01*
X87191326Y-90784257D01*
X87249820Y-90964284D01*
X87344466Y-91128216D01*
X87471129Y-91268889D01*
X87624269Y-91380151D01*
X87676436Y-91403378D01*
X87715198Y-91430520D01*
X87740971Y-91470206D01*
X87750000Y-91516657D01*
X87750000Y-101876000D01*
X87733387Y-101938000D01*
X87688000Y-101983387D01*
X87626000Y-102000000D01*
X82373448Y-102000000D01*
X82311608Y-101983479D01*
X82266246Y-101938320D01*
X82249449Y-101876554D01*
X82247620Y-101467115D01*
X83593543Y-101467115D01*
X83683448Y-101516540D01*
X83975928Y-101632341D01*
X84280620Y-101710573D01*
X84592711Y-101750000D01*
X84907289Y-101750000D01*
X85219379Y-101710573D01*
X85524071Y-101632341D01*
X85816547Y-101516542D01*
X85906454Y-101467114D01*
X84750000Y-100310660D01*
X83593543Y-101467114D01*
X83593543Y-101467115D01*
X82247620Y-101467115D01*
X82242623Y-100348434D01*
X82260061Y-100284470D01*
X82307962Y-100238633D01*
X82372631Y-100224026D01*
X82435583Y-100244824D01*
X82478821Y-100295083D01*
X82531758Y-100407580D01*
X83689340Y-99250001D01*
X83689340Y-99250000D01*
X85810660Y-99250000D01*
X86968239Y-100407580D01*
X86968241Y-100407580D01*
X87079036Y-100172133D01*
X87176245Y-99872957D01*
X87235191Y-99563948D01*
X87254943Y-99250000D01*
X87235191Y-98936051D01*
X87176245Y-98627042D01*
X87079036Y-98327866D01*
X86968241Y-98092418D01*
X86968239Y-98092418D01*
X85810660Y-99250000D01*
X83689340Y-99250000D01*
X83689340Y-99249999D01*
X82531758Y-98092418D01*
X82531757Y-98092418D01*
X82469104Y-98225562D01*
X82426050Y-98275697D01*
X82363357Y-98296597D01*
X82298832Y-98282325D01*
X82250801Y-98236935D01*
X82232907Y-98173321D01*
X82227813Y-97032884D01*
X83593544Y-97032884D01*
X84750000Y-98189340D01*
X84750001Y-98189340D01*
X85906455Y-97032884D01*
X85906454Y-97032883D01*
X85816551Y-96983459D01*
X85524071Y-96867658D01*
X85219379Y-96789426D01*
X84907289Y-96750000D01*
X84592711Y-96750000D01*
X84280620Y-96789426D01*
X83975927Y-96867658D01*
X83683447Y-96983458D01*
X83593544Y-97032883D01*
X83593544Y-97032884D01*
X82227813Y-97032884D01*
X82174067Y-85000000D01*
X83594540Y-85000000D01*
X83614326Y-85188257D01*
X83672820Y-85368284D01*
X83767466Y-85532216D01*
X83894129Y-85672889D01*
X84047269Y-85784151D01*
X84220197Y-85861144D01*
X84405352Y-85900500D01*
X84405354Y-85900500D01*
X84594646Y-85900500D01*
X84594648Y-85900500D01*
X84718083Y-85874262D01*
X84779803Y-85861144D01*
X84952730Y-85784151D01*
X85105871Y-85672888D01*
X85232533Y-85532216D01*
X85327179Y-85368284D01*
X85385674Y-85188256D01*
X85405460Y-85000000D01*
X85385674Y-84811744D01*
X85327179Y-84631716D01*
X85327179Y-84631715D01*
X85232533Y-84467783D01*
X85105870Y-84327110D01*
X84952730Y-84215848D01*
X84779802Y-84138855D01*
X84594648Y-84099500D01*
X84594646Y-84099500D01*
X84405354Y-84099500D01*
X84405352Y-84099500D01*
X84220197Y-84138855D01*
X84047269Y-84215848D01*
X83894129Y-84327110D01*
X83767466Y-84467783D01*
X83672820Y-84631715D01*
X83614326Y-84811742D01*
X83594540Y-85000000D01*
X82174067Y-85000000D01*
X82170785Y-84265277D01*
X82189672Y-84198941D01*
X85600000Y-78750000D01*
X85600000Y-68649510D01*
X85608840Y-68603530D01*
X85634100Y-68564105D01*
X89400000Y-64600000D01*
X89400000Y-62350010D01*
X89412478Y-62295798D01*
X89447402Y-62252497D01*
X89497741Y-62228822D01*
X90942542Y-61915782D01*
X92249743Y-61632556D01*
X92304592Y-61633085D01*
G37*
%TD.AperFunction*%
M02*
