%TF.GenerationSoftware,KiCad,Pcbnew,7.0.1*%
%TF.CreationDate,2024-03-23T22:37:26-05:00*%
%TF.ProjectId,Chassis,43686173-7369-4732-9e6b-696361645f70,rev?*%
%TF.SameCoordinates,Original*%
%TF.FileFunction,Drillmap*%
%TF.FilePolarity,Positive*%
%FSLAX45Y45*%
G04 Gerber Fmt 4.5, Leading zero omitted, Abs format (unit mm)*
G04 Created by KiCad (PCBNEW 7.0.1) date 2024-03-23 22:37:26*
%MOMM*%
%LPD*%
G01*
G04 APERTURE LIST*
%ADD10C,0.100000*%
%ADD11C,0.200000*%
%ADD12C,0.040000*%
%ADD13C,0.101600*%
%ADD14C,0.102000*%
%ADD15C,0.270000*%
G04 APERTURE END LIST*
D10*
X5232843Y-2532843D02*
X12434700Y-2540000D01*
X4834700Y-10140000D02*
X4832843Y-2932843D01*
X12434700Y-10540000D02*
G75*
G03*
X12834700Y-10140000I0J400000D01*
G01*
X12834700Y-2940000D02*
X12834700Y-10140000D01*
X12434700Y-10540000D02*
X5234700Y-10540000D01*
X4834700Y-10140000D02*
G75*
G03*
X5234700Y-10540000I400000J0D01*
G01*
X12834700Y-2940000D02*
G75*
G03*
X12434700Y-2540000I-400000J0D01*
G01*
X5232843Y-2532843D02*
G75*
G03*
X4832843Y-2932843I0J-400000D01*
G01*
D11*
D12*
X6005000Y-4230000D02*
X6045000Y-4270000D01*
X6045000Y-4230000D02*
X6005000Y-4270000D01*
X6080000Y-4155000D02*
X6120000Y-4195000D01*
X6120000Y-4155000D02*
X6080000Y-4195000D01*
X6080000Y-4305000D02*
X6120000Y-4345000D01*
X6120000Y-4305000D02*
X6080000Y-4345000D01*
X6255000Y-9230000D02*
X6295000Y-9270000D01*
X6295000Y-9230000D02*
X6255000Y-9270000D01*
X6260000Y-9560000D02*
X6300000Y-9600000D01*
X6300000Y-9560000D02*
X6260000Y-9600000D01*
X6290000Y-5151250D02*
X6330000Y-5191250D01*
X6330000Y-5151250D02*
X6290000Y-5191250D01*
X6430000Y-4105000D02*
X6470000Y-4145000D01*
X6470000Y-4105000D02*
X6430000Y-4145000D01*
X6430000Y-4255000D02*
X6470000Y-4295000D01*
X6470000Y-4255000D02*
X6430000Y-4295000D01*
X6440000Y-4428000D02*
X6480000Y-4468000D01*
X6480000Y-4428000D02*
X6440000Y-4468000D01*
X6480000Y-7520000D02*
X6520000Y-7560000D01*
X6520000Y-7520000D02*
X6480000Y-7560000D01*
X6480000Y-7680000D02*
X6520000Y-7720000D01*
X6520000Y-7680000D02*
X6480000Y-7720000D01*
X6530000Y-4180000D02*
X6570000Y-4220000D01*
X6570000Y-4180000D02*
X6530000Y-4220000D01*
X6530000Y-4330000D02*
X6570000Y-4370000D01*
X6570000Y-4330000D02*
X6530000Y-4370000D01*
X6550000Y-7590000D02*
X6590000Y-7630000D01*
X6590000Y-7590000D02*
X6550000Y-7630000D01*
X6620000Y-7520000D02*
X6660000Y-7560000D01*
X6660000Y-7520000D02*
X6620000Y-7560000D01*
X6785100Y-7969600D02*
X6825100Y-8009600D01*
X6825100Y-7969600D02*
X6785100Y-8009600D01*
X6955000Y-7830000D02*
X6995000Y-7870000D01*
X6995000Y-7830000D02*
X6955000Y-7870000D01*
X7055000Y-7905000D02*
X7095000Y-7945000D01*
X7095000Y-7905000D02*
X7055000Y-7945000D01*
X7064500Y-7715600D02*
X7104500Y-7755600D01*
X7104500Y-7715600D02*
X7064500Y-7755600D01*
X7513700Y-9344600D02*
X7553700Y-9384600D01*
X7553700Y-9344600D02*
X7513700Y-9384600D01*
X7676200Y-4323400D02*
X7716200Y-4363400D01*
X7716200Y-4323400D02*
X7676200Y-4363400D01*
X7722360Y-7972140D02*
X7762360Y-8012140D01*
X7762360Y-7972140D02*
X7722360Y-8012140D01*
X7787500Y-8739900D02*
X7827500Y-8779900D01*
X7827500Y-8739900D02*
X7787500Y-8779900D01*
X7812500Y-8589900D02*
X7852500Y-8629900D01*
X7852500Y-8589900D02*
X7812500Y-8629900D01*
X7912500Y-8664900D02*
X7952500Y-8704900D01*
X7952500Y-8664900D02*
X7912500Y-8704900D01*
X7940000Y-6820000D02*
X7980000Y-6860000D01*
X7980000Y-6820000D02*
X7940000Y-6860000D01*
X7955600Y-4330000D02*
X7995600Y-4370000D01*
X7995600Y-4330000D02*
X7955600Y-4370000D01*
X7960000Y-5760000D02*
X8000000Y-5800000D01*
X8000000Y-5760000D02*
X7960000Y-5800000D01*
X8030000Y-8180000D02*
X8070000Y-8220000D01*
X8070000Y-8180000D02*
X8030000Y-8220000D01*
X8105000Y-8105000D02*
X8145000Y-8145000D01*
X8145000Y-8105000D02*
X8105000Y-8145000D01*
X8180000Y-8180000D02*
X8220000Y-8220000D01*
X8220000Y-8180000D02*
X8180000Y-8220000D01*
X8255000Y-8105000D02*
X8295000Y-8145000D01*
X8295000Y-8105000D02*
X8255000Y-8145000D01*
X8430000Y-8480000D02*
X8470000Y-8520000D01*
X8470000Y-8480000D02*
X8430000Y-8520000D01*
X8600000Y-9423140D02*
X8640000Y-9463140D01*
X8640000Y-9423140D02*
X8600000Y-9463140D01*
X8787700Y-9039600D02*
X8827700Y-9079600D01*
X8827700Y-9039600D02*
X8787700Y-9079600D01*
X8825800Y-8747500D02*
X8865800Y-8787500D01*
X8865800Y-8747500D02*
X8825800Y-8787500D01*
X8876600Y-9077700D02*
X8916600Y-9117700D01*
X8916600Y-9077700D02*
X8876600Y-9117700D01*
X8920000Y-8280000D02*
X8960000Y-8320000D01*
X8960000Y-8280000D02*
X8920000Y-8320000D01*
X8960000Y-8380000D02*
X9000000Y-8420000D01*
X9000000Y-8380000D02*
X8960000Y-8420000D01*
X9060000Y-8460000D02*
X9100000Y-8500000D01*
X9100000Y-8460000D02*
X9060000Y-8500000D01*
X9180000Y-8480000D02*
X9220000Y-8520000D01*
X9220000Y-8480000D02*
X9180000Y-8520000D01*
X9330000Y-7405000D02*
X9370000Y-7445000D01*
X9370000Y-7405000D02*
X9330000Y-7445000D01*
X9330000Y-8055000D02*
X9370000Y-8095000D01*
X9370000Y-8055000D02*
X9330000Y-8095000D01*
X9355000Y-7655000D02*
X9395000Y-7695000D01*
X9395000Y-7655000D02*
X9355000Y-7695000D01*
X9355000Y-7830000D02*
X9395000Y-7870000D01*
X9395000Y-7830000D02*
X9355000Y-7870000D01*
X9702100Y-8747500D02*
X9742100Y-8787500D01*
X9742100Y-8747500D02*
X9702100Y-8787500D01*
X9730000Y-6505000D02*
X9770000Y-6545000D01*
X9770000Y-6505000D02*
X9730000Y-6545000D01*
X9855000Y-6630000D02*
X9895000Y-6670000D01*
X9895000Y-6630000D02*
X9855000Y-6670000D01*
X10280000Y-7405000D02*
X10320000Y-7445000D01*
X10320000Y-7405000D02*
X10280000Y-7445000D01*
X10280000Y-7655000D02*
X10320000Y-7695000D01*
X10320000Y-7655000D02*
X10280000Y-7695000D01*
X10280000Y-7830000D02*
X10320000Y-7870000D01*
X10320000Y-7830000D02*
X10280000Y-7870000D01*
X10280000Y-8055000D02*
X10320000Y-8095000D01*
X10320000Y-8055000D02*
X10280000Y-8095000D01*
X10622600Y-3256600D02*
X10662600Y-3296600D01*
X10662600Y-3256600D02*
X10622600Y-3296600D01*
X10680000Y-10220000D02*
X10720000Y-10260000D01*
X10720000Y-10220000D02*
X10680000Y-10260000D01*
X10800000Y-6600000D02*
X10840000Y-6640000D01*
X10840000Y-6600000D02*
X10800000Y-6640000D01*
X10805000Y-5660000D02*
X10845000Y-5700000D01*
X10845000Y-5660000D02*
X10805000Y-5700000D01*
X10860000Y-7660000D02*
X10900000Y-7700000D01*
X10900000Y-7660000D02*
X10860000Y-7700000D01*
X10876600Y-3409000D02*
X10916600Y-3449000D01*
X10916600Y-3409000D02*
X10876600Y-3449000D01*
X11060000Y-10220000D02*
X11100000Y-10260000D01*
X11100000Y-10220000D02*
X11060000Y-10260000D01*
D13*
X9139800Y-5275400D02*
G75*
G03*
X9139800Y-5275400I-50800J0D01*
G01*
X9139800Y-5625400D02*
G75*
G03*
X9139800Y-5625400I-50800J0D01*
G01*
X9139800Y-5975400D02*
G75*
G03*
X9139800Y-5975400I-50800J0D01*
G01*
X9139800Y-6325400D02*
G75*
G03*
X9139800Y-6325400I-50800J0D01*
G01*
X9599800Y-5625400D02*
G75*
G03*
X9599800Y-5625400I-50800J0D01*
G01*
X9599800Y-5975400D02*
G75*
G03*
X9599800Y-5975400I-50800J0D01*
G01*
X9599800Y-6325400D02*
G75*
G03*
X9599800Y-6325400I-50800J0D01*
G01*
D14*
X9549000Y-5224400D02*
X9549000Y-5326400D01*
X9498000Y-5275400D02*
X9600000Y-5275400D01*
D15*
X5406107Y-4105614D02*
X5406107Y-3914693D01*
X5215186Y-3914693D01*
X5215186Y-4105614D01*
X5406107Y-4105614D01*
X5406107Y-9165307D02*
X5406107Y-8974386D01*
X5215186Y-8974386D01*
X5215186Y-9165307D01*
X5406107Y-9165307D01*
X5465460Y-5070460D02*
X5465460Y-4879540D01*
X5274540Y-4879540D01*
X5274540Y-5070460D01*
X5465460Y-5070460D01*
X5759660Y-3752060D02*
X5759660Y-3561140D01*
X5568740Y-3561140D01*
X5568740Y-3752060D01*
X5759660Y-3752060D01*
X5759660Y-9518860D02*
X5759660Y-9327940D01*
X5568740Y-9327940D01*
X5568740Y-9518860D01*
X5759660Y-9518860D01*
X5965460Y-5070460D02*
X5965460Y-4879540D01*
X5774540Y-4879540D01*
X5774540Y-5070460D01*
X5965460Y-5070460D01*
X7545460Y-3095460D02*
X7545460Y-2904540D01*
X7354540Y-2904540D01*
X7354540Y-3095460D01*
X7545460Y-3095460D01*
X8045460Y-3095460D02*
X8045460Y-2904540D01*
X7854540Y-2904540D01*
X7854540Y-3095460D01*
X8045460Y-3095460D01*
X8070460Y-10020460D02*
X8070460Y-9829540D01*
X7879540Y-9829540D01*
X7879540Y-10020460D01*
X8070460Y-10020460D01*
X8570460Y-10020460D02*
X8570460Y-9829540D01*
X8379540Y-9829540D01*
X8379540Y-10020460D01*
X8570460Y-10020460D01*
X9395460Y-3095460D02*
X9395460Y-2904540D01*
X9204540Y-2904540D01*
X9204540Y-3095460D01*
X9395460Y-3095460D01*
X9895460Y-3095460D02*
X9895460Y-2904540D01*
X9704540Y-2904540D01*
X9704540Y-3095460D01*
X9895460Y-3095460D01*
X11795460Y-5570460D02*
X11795460Y-5379540D01*
X11604540Y-5379540D01*
X11604540Y-5570460D01*
X11795460Y-5570460D01*
X11795460Y-6570460D02*
X11795460Y-6379540D01*
X11604540Y-6379540D01*
X11604540Y-6570460D01*
X11795460Y-6570460D01*
X11795460Y-7570460D02*
X11795460Y-7379540D01*
X11604540Y-7379540D01*
X11604540Y-7570460D01*
X11795460Y-7570460D01*
X12100660Y-3752060D02*
X12100660Y-3561140D01*
X11909740Y-3561140D01*
X11909740Y-3752060D01*
X12100660Y-3752060D01*
X12100660Y-9518860D02*
X12100660Y-9327940D01*
X11909740Y-9327940D01*
X11909740Y-9518860D01*
X12100660Y-9518860D01*
X12295460Y-5570460D02*
X12295460Y-5379540D01*
X12104540Y-5379540D01*
X12104540Y-5570460D01*
X12295460Y-5570460D01*
X12295460Y-6570460D02*
X12295460Y-6379540D01*
X12104540Y-6379540D01*
X12104540Y-6570460D01*
X12295460Y-6570460D01*
X12295460Y-7570460D02*
X12295460Y-7379540D01*
X12104540Y-7379540D01*
X12104540Y-7570460D01*
X12295460Y-7570460D01*
X12454214Y-4105614D02*
X12454214Y-3914693D01*
X12263293Y-3914693D01*
X12263293Y-4105614D01*
X12454214Y-4105614D01*
X12454214Y-9165307D02*
X12454214Y-8974386D01*
X12263293Y-8974386D01*
X12263293Y-9165307D01*
X12454214Y-9165307D01*
D11*
X5075462Y-10857524D02*
X5075462Y-10657524D01*
X5075462Y-10657524D02*
X5123081Y-10657524D01*
X5123081Y-10657524D02*
X5151652Y-10667048D01*
X5151652Y-10667048D02*
X5170700Y-10686095D01*
X5170700Y-10686095D02*
X5180224Y-10705143D01*
X5180224Y-10705143D02*
X5189747Y-10743238D01*
X5189747Y-10743238D02*
X5189747Y-10771810D01*
X5189747Y-10771810D02*
X5180224Y-10809905D01*
X5180224Y-10809905D02*
X5170700Y-10828952D01*
X5170700Y-10828952D02*
X5151652Y-10848000D01*
X5151652Y-10848000D02*
X5123081Y-10857524D01*
X5123081Y-10857524D02*
X5075462Y-10857524D01*
X5275462Y-10857524D02*
X5275462Y-10724190D01*
X5275462Y-10762286D02*
X5284986Y-10743238D01*
X5284986Y-10743238D02*
X5294509Y-10733714D01*
X5294509Y-10733714D02*
X5313557Y-10724190D01*
X5313557Y-10724190D02*
X5332605Y-10724190D01*
X5399271Y-10857524D02*
X5399271Y-10724190D01*
X5399271Y-10657524D02*
X5389747Y-10667048D01*
X5389747Y-10667048D02*
X5399271Y-10676571D01*
X5399271Y-10676571D02*
X5408795Y-10667048D01*
X5408795Y-10667048D02*
X5399271Y-10657524D01*
X5399271Y-10657524D02*
X5399271Y-10676571D01*
X5523081Y-10857524D02*
X5504033Y-10848000D01*
X5504033Y-10848000D02*
X5494509Y-10828952D01*
X5494509Y-10828952D02*
X5494509Y-10657524D01*
X5627843Y-10857524D02*
X5608795Y-10848000D01*
X5608795Y-10848000D02*
X5599271Y-10828952D01*
X5599271Y-10828952D02*
X5599271Y-10657524D01*
X5856414Y-10857524D02*
X5856414Y-10657524D01*
X5856414Y-10657524D02*
X5923081Y-10800381D01*
X5923081Y-10800381D02*
X5989747Y-10657524D01*
X5989747Y-10657524D02*
X5989747Y-10857524D01*
X6170700Y-10857524D02*
X6170700Y-10752762D01*
X6170700Y-10752762D02*
X6161176Y-10733714D01*
X6161176Y-10733714D02*
X6142128Y-10724190D01*
X6142128Y-10724190D02*
X6104033Y-10724190D01*
X6104033Y-10724190D02*
X6084985Y-10733714D01*
X6170700Y-10848000D02*
X6151652Y-10857524D01*
X6151652Y-10857524D02*
X6104033Y-10857524D01*
X6104033Y-10857524D02*
X6084985Y-10848000D01*
X6084985Y-10848000D02*
X6075462Y-10828952D01*
X6075462Y-10828952D02*
X6075462Y-10809905D01*
X6075462Y-10809905D02*
X6084985Y-10790857D01*
X6084985Y-10790857D02*
X6104033Y-10781333D01*
X6104033Y-10781333D02*
X6151652Y-10781333D01*
X6151652Y-10781333D02*
X6170700Y-10771810D01*
X6265938Y-10724190D02*
X6265938Y-10924190D01*
X6265938Y-10733714D02*
X6284985Y-10724190D01*
X6284985Y-10724190D02*
X6323081Y-10724190D01*
X6323081Y-10724190D02*
X6342128Y-10733714D01*
X6342128Y-10733714D02*
X6351652Y-10743238D01*
X6351652Y-10743238D02*
X6361176Y-10762286D01*
X6361176Y-10762286D02*
X6361176Y-10819429D01*
X6361176Y-10819429D02*
X6351652Y-10838476D01*
X6351652Y-10838476D02*
X6342128Y-10848000D01*
X6342128Y-10848000D02*
X6323081Y-10857524D01*
X6323081Y-10857524D02*
X6284985Y-10857524D01*
X6284985Y-10857524D02*
X6265938Y-10848000D01*
X6446890Y-10838476D02*
X6456414Y-10848000D01*
X6456414Y-10848000D02*
X6446890Y-10857524D01*
X6446890Y-10857524D02*
X6437366Y-10848000D01*
X6437366Y-10848000D02*
X6446890Y-10838476D01*
X6446890Y-10838476D02*
X6446890Y-10857524D01*
X6446890Y-10733714D02*
X6456414Y-10743238D01*
X6456414Y-10743238D02*
X6446890Y-10752762D01*
X6446890Y-10752762D02*
X6437366Y-10743238D01*
X6437366Y-10743238D02*
X6446890Y-10733714D01*
X6446890Y-10733714D02*
X6446890Y-10752762D01*
D12*
X4787843Y-11165000D02*
X4827843Y-11205000D01*
X4827843Y-11165000D02*
X4787843Y-11205000D01*
D11*
X5113557Y-11077524D02*
X5132605Y-11077524D01*
X5132605Y-11077524D02*
X5151652Y-11087048D01*
X5151652Y-11087048D02*
X5161176Y-11096571D01*
X5161176Y-11096571D02*
X5170700Y-11115619D01*
X5170700Y-11115619D02*
X5180224Y-11153714D01*
X5180224Y-11153714D02*
X5180224Y-11201333D01*
X5180224Y-11201333D02*
X5170700Y-11239428D01*
X5170700Y-11239428D02*
X5161176Y-11258476D01*
X5161176Y-11258476D02*
X5151652Y-11268000D01*
X5151652Y-11268000D02*
X5132605Y-11277524D01*
X5132605Y-11277524D02*
X5113557Y-11277524D01*
X5113557Y-11277524D02*
X5094509Y-11268000D01*
X5094509Y-11268000D02*
X5084986Y-11258476D01*
X5084986Y-11258476D02*
X5075462Y-11239428D01*
X5075462Y-11239428D02*
X5065938Y-11201333D01*
X5065938Y-11201333D02*
X5065938Y-11153714D01*
X5065938Y-11153714D02*
X5075462Y-11115619D01*
X5075462Y-11115619D02*
X5084986Y-11096571D01*
X5084986Y-11096571D02*
X5094509Y-11087048D01*
X5094509Y-11087048D02*
X5113557Y-11077524D01*
X5265938Y-11258476D02*
X5275462Y-11268000D01*
X5275462Y-11268000D02*
X5265938Y-11277524D01*
X5265938Y-11277524D02*
X5256414Y-11268000D01*
X5256414Y-11268000D02*
X5265938Y-11258476D01*
X5265938Y-11258476D02*
X5265938Y-11277524D01*
X5446890Y-11144190D02*
X5446890Y-11277524D01*
X5399271Y-11068000D02*
X5351652Y-11210857D01*
X5351652Y-11210857D02*
X5475462Y-11210857D01*
X5589747Y-11077524D02*
X5608795Y-11077524D01*
X5608795Y-11077524D02*
X5627843Y-11087048D01*
X5627843Y-11087048D02*
X5637366Y-11096571D01*
X5637366Y-11096571D02*
X5646890Y-11115619D01*
X5646890Y-11115619D02*
X5656414Y-11153714D01*
X5656414Y-11153714D02*
X5656414Y-11201333D01*
X5656414Y-11201333D02*
X5646890Y-11239428D01*
X5646890Y-11239428D02*
X5637366Y-11258476D01*
X5637366Y-11258476D02*
X5627843Y-11268000D01*
X5627843Y-11268000D02*
X5608795Y-11277524D01*
X5608795Y-11277524D02*
X5589747Y-11277524D01*
X5589747Y-11277524D02*
X5570700Y-11268000D01*
X5570700Y-11268000D02*
X5561176Y-11258476D01*
X5561176Y-11258476D02*
X5551652Y-11239428D01*
X5551652Y-11239428D02*
X5542128Y-11201333D01*
X5542128Y-11201333D02*
X5542128Y-11153714D01*
X5542128Y-11153714D02*
X5551652Y-11115619D01*
X5551652Y-11115619D02*
X5561176Y-11096571D01*
X5561176Y-11096571D02*
X5570700Y-11087048D01*
X5570700Y-11087048D02*
X5589747Y-11077524D01*
X5780224Y-11077524D02*
X5799271Y-11077524D01*
X5799271Y-11077524D02*
X5818319Y-11087048D01*
X5818319Y-11087048D02*
X5827843Y-11096571D01*
X5827843Y-11096571D02*
X5837366Y-11115619D01*
X5837366Y-11115619D02*
X5846890Y-11153714D01*
X5846890Y-11153714D02*
X5846890Y-11201333D01*
X5846890Y-11201333D02*
X5837366Y-11239428D01*
X5837366Y-11239428D02*
X5827843Y-11258476D01*
X5827843Y-11258476D02*
X5818319Y-11268000D01*
X5818319Y-11268000D02*
X5799271Y-11277524D01*
X5799271Y-11277524D02*
X5780224Y-11277524D01*
X5780224Y-11277524D02*
X5761176Y-11268000D01*
X5761176Y-11268000D02*
X5751652Y-11258476D01*
X5751652Y-11258476D02*
X5742128Y-11239428D01*
X5742128Y-11239428D02*
X5732605Y-11201333D01*
X5732605Y-11201333D02*
X5732605Y-11153714D01*
X5732605Y-11153714D02*
X5742128Y-11115619D01*
X5742128Y-11115619D02*
X5751652Y-11096571D01*
X5751652Y-11096571D02*
X5761176Y-11087048D01*
X5761176Y-11087048D02*
X5780224Y-11077524D01*
X5932605Y-11277524D02*
X5932605Y-11144190D01*
X5932605Y-11163238D02*
X5942128Y-11153714D01*
X5942128Y-11153714D02*
X5961176Y-11144190D01*
X5961176Y-11144190D02*
X5989747Y-11144190D01*
X5989747Y-11144190D02*
X6008795Y-11153714D01*
X6008795Y-11153714D02*
X6018319Y-11172762D01*
X6018319Y-11172762D02*
X6018319Y-11277524D01*
X6018319Y-11172762D02*
X6027843Y-11153714D01*
X6027843Y-11153714D02*
X6046890Y-11144190D01*
X6046890Y-11144190D02*
X6075462Y-11144190D01*
X6075462Y-11144190D02*
X6094509Y-11153714D01*
X6094509Y-11153714D02*
X6104033Y-11172762D01*
X6104033Y-11172762D02*
X6104033Y-11277524D01*
X6199271Y-11277524D02*
X6199271Y-11144190D01*
X6199271Y-11163238D02*
X6208795Y-11153714D01*
X6208795Y-11153714D02*
X6227843Y-11144190D01*
X6227843Y-11144190D02*
X6256414Y-11144190D01*
X6256414Y-11144190D02*
X6275462Y-11153714D01*
X6275462Y-11153714D02*
X6284986Y-11172762D01*
X6284986Y-11172762D02*
X6284986Y-11277524D01*
X6284986Y-11172762D02*
X6294509Y-11153714D01*
X6294509Y-11153714D02*
X6313557Y-11144190D01*
X6313557Y-11144190D02*
X6342128Y-11144190D01*
X6342128Y-11144190D02*
X6361176Y-11153714D01*
X6361176Y-11153714D02*
X6370700Y-11172762D01*
X6370700Y-11172762D02*
X6370700Y-11277524D01*
X6761176Y-11068000D02*
X6589748Y-11325143D01*
X7018319Y-11077524D02*
X7037367Y-11077524D01*
X7037367Y-11077524D02*
X7056414Y-11087048D01*
X7056414Y-11087048D02*
X7065938Y-11096571D01*
X7065938Y-11096571D02*
X7075462Y-11115619D01*
X7075462Y-11115619D02*
X7084986Y-11153714D01*
X7084986Y-11153714D02*
X7084986Y-11201333D01*
X7084986Y-11201333D02*
X7075462Y-11239428D01*
X7075462Y-11239428D02*
X7065938Y-11258476D01*
X7065938Y-11258476D02*
X7056414Y-11268000D01*
X7056414Y-11268000D02*
X7037367Y-11277524D01*
X7037367Y-11277524D02*
X7018319Y-11277524D01*
X7018319Y-11277524D02*
X6999271Y-11268000D01*
X6999271Y-11268000D02*
X6989748Y-11258476D01*
X6989748Y-11258476D02*
X6980224Y-11239428D01*
X6980224Y-11239428D02*
X6970700Y-11201333D01*
X6970700Y-11201333D02*
X6970700Y-11153714D01*
X6970700Y-11153714D02*
X6980224Y-11115619D01*
X6980224Y-11115619D02*
X6989748Y-11096571D01*
X6989748Y-11096571D02*
X6999271Y-11087048D01*
X6999271Y-11087048D02*
X7018319Y-11077524D01*
X7170700Y-11258476D02*
X7180224Y-11268000D01*
X7180224Y-11268000D02*
X7170700Y-11277524D01*
X7170700Y-11277524D02*
X7161176Y-11268000D01*
X7161176Y-11268000D02*
X7170700Y-11258476D01*
X7170700Y-11258476D02*
X7170700Y-11277524D01*
X7304033Y-11077524D02*
X7323081Y-11077524D01*
X7323081Y-11077524D02*
X7342129Y-11087048D01*
X7342129Y-11087048D02*
X7351652Y-11096571D01*
X7351652Y-11096571D02*
X7361176Y-11115619D01*
X7361176Y-11115619D02*
X7370700Y-11153714D01*
X7370700Y-11153714D02*
X7370700Y-11201333D01*
X7370700Y-11201333D02*
X7361176Y-11239428D01*
X7361176Y-11239428D02*
X7351652Y-11258476D01*
X7351652Y-11258476D02*
X7342129Y-11268000D01*
X7342129Y-11268000D02*
X7323081Y-11277524D01*
X7323081Y-11277524D02*
X7304033Y-11277524D01*
X7304033Y-11277524D02*
X7284986Y-11268000D01*
X7284986Y-11268000D02*
X7275462Y-11258476D01*
X7275462Y-11258476D02*
X7265938Y-11239428D01*
X7265938Y-11239428D02*
X7256414Y-11201333D01*
X7256414Y-11201333D02*
X7256414Y-11153714D01*
X7256414Y-11153714D02*
X7265938Y-11115619D01*
X7265938Y-11115619D02*
X7275462Y-11096571D01*
X7275462Y-11096571D02*
X7284986Y-11087048D01*
X7284986Y-11087048D02*
X7304033Y-11077524D01*
X7561176Y-11277524D02*
X7446890Y-11277524D01*
X7504033Y-11277524D02*
X7504033Y-11077524D01*
X7504033Y-11077524D02*
X7484986Y-11106095D01*
X7484986Y-11106095D02*
X7465938Y-11125143D01*
X7465938Y-11125143D02*
X7446890Y-11134667D01*
X7742129Y-11077524D02*
X7646890Y-11077524D01*
X7646890Y-11077524D02*
X7637367Y-11172762D01*
X7637367Y-11172762D02*
X7646890Y-11163238D01*
X7646890Y-11163238D02*
X7665938Y-11153714D01*
X7665938Y-11153714D02*
X7713557Y-11153714D01*
X7713557Y-11153714D02*
X7732605Y-11163238D01*
X7732605Y-11163238D02*
X7742129Y-11172762D01*
X7742129Y-11172762D02*
X7751652Y-11191809D01*
X7751652Y-11191809D02*
X7751652Y-11239428D01*
X7751652Y-11239428D02*
X7742129Y-11258476D01*
X7742129Y-11258476D02*
X7732605Y-11268000D01*
X7732605Y-11268000D02*
X7713557Y-11277524D01*
X7713557Y-11277524D02*
X7665938Y-11277524D01*
X7665938Y-11277524D02*
X7646890Y-11268000D01*
X7646890Y-11268000D02*
X7637367Y-11258476D01*
X7818319Y-11077524D02*
X7951652Y-11077524D01*
X7951652Y-11077524D02*
X7865938Y-11277524D01*
X8018319Y-11077524D02*
X8018319Y-11115619D01*
X8094510Y-11077524D02*
X8094510Y-11115619D01*
X8389748Y-11353714D02*
X8380224Y-11344190D01*
X8380224Y-11344190D02*
X8361176Y-11315619D01*
X8361176Y-11315619D02*
X8351652Y-11296571D01*
X8351652Y-11296571D02*
X8342129Y-11268000D01*
X8342129Y-11268000D02*
X8332605Y-11220381D01*
X8332605Y-11220381D02*
X8332605Y-11182286D01*
X8332605Y-11182286D02*
X8342129Y-11134667D01*
X8342129Y-11134667D02*
X8351652Y-11106095D01*
X8351652Y-11106095D02*
X8361176Y-11087048D01*
X8361176Y-11087048D02*
X8380224Y-11058476D01*
X8380224Y-11058476D02*
X8389748Y-11048952D01*
X8561176Y-11077524D02*
X8465938Y-11077524D01*
X8465938Y-11077524D02*
X8456414Y-11172762D01*
X8456414Y-11172762D02*
X8465938Y-11163238D01*
X8465938Y-11163238D02*
X8484986Y-11153714D01*
X8484986Y-11153714D02*
X8532605Y-11153714D01*
X8532605Y-11153714D02*
X8551653Y-11163238D01*
X8551653Y-11163238D02*
X8561176Y-11172762D01*
X8561176Y-11172762D02*
X8570700Y-11191809D01*
X8570700Y-11191809D02*
X8570700Y-11239428D01*
X8570700Y-11239428D02*
X8561176Y-11258476D01*
X8561176Y-11258476D02*
X8551653Y-11268000D01*
X8551653Y-11268000D02*
X8532605Y-11277524D01*
X8532605Y-11277524D02*
X8484986Y-11277524D01*
X8484986Y-11277524D02*
X8465938Y-11268000D01*
X8465938Y-11268000D02*
X8456414Y-11258476D01*
X8665938Y-11277524D02*
X8704033Y-11277524D01*
X8704033Y-11277524D02*
X8723081Y-11268000D01*
X8723081Y-11268000D02*
X8732605Y-11258476D01*
X8732605Y-11258476D02*
X8751653Y-11229905D01*
X8751653Y-11229905D02*
X8761176Y-11191809D01*
X8761176Y-11191809D02*
X8761176Y-11115619D01*
X8761176Y-11115619D02*
X8751653Y-11096571D01*
X8751653Y-11096571D02*
X8742129Y-11087048D01*
X8742129Y-11087048D02*
X8723081Y-11077524D01*
X8723081Y-11077524D02*
X8684986Y-11077524D01*
X8684986Y-11077524D02*
X8665938Y-11087048D01*
X8665938Y-11087048D02*
X8656414Y-11096571D01*
X8656414Y-11096571D02*
X8646891Y-11115619D01*
X8646891Y-11115619D02*
X8646891Y-11163238D01*
X8646891Y-11163238D02*
X8656414Y-11182286D01*
X8656414Y-11182286D02*
X8665938Y-11191809D01*
X8665938Y-11191809D02*
X8684986Y-11201333D01*
X8684986Y-11201333D02*
X8723081Y-11201333D01*
X8723081Y-11201333D02*
X8742129Y-11191809D01*
X8742129Y-11191809D02*
X8751653Y-11182286D01*
X8751653Y-11182286D02*
X8761176Y-11163238D01*
X8999272Y-11277524D02*
X8999272Y-11077524D01*
X9084986Y-11277524D02*
X9084986Y-11172762D01*
X9084986Y-11172762D02*
X9075462Y-11153714D01*
X9075462Y-11153714D02*
X9056415Y-11144190D01*
X9056415Y-11144190D02*
X9027843Y-11144190D01*
X9027843Y-11144190D02*
X9008795Y-11153714D01*
X9008795Y-11153714D02*
X8999272Y-11163238D01*
X9208795Y-11277524D02*
X9189748Y-11268000D01*
X9189748Y-11268000D02*
X9180224Y-11258476D01*
X9180224Y-11258476D02*
X9170700Y-11239428D01*
X9170700Y-11239428D02*
X9170700Y-11182286D01*
X9170700Y-11182286D02*
X9180224Y-11163238D01*
X9180224Y-11163238D02*
X9189748Y-11153714D01*
X9189748Y-11153714D02*
X9208795Y-11144190D01*
X9208795Y-11144190D02*
X9237367Y-11144190D01*
X9237367Y-11144190D02*
X9256415Y-11153714D01*
X9256415Y-11153714D02*
X9265938Y-11163238D01*
X9265938Y-11163238D02*
X9275462Y-11182286D01*
X9275462Y-11182286D02*
X9275462Y-11239428D01*
X9275462Y-11239428D02*
X9265938Y-11258476D01*
X9265938Y-11258476D02*
X9256415Y-11268000D01*
X9256415Y-11268000D02*
X9237367Y-11277524D01*
X9237367Y-11277524D02*
X9208795Y-11277524D01*
X9389748Y-11277524D02*
X9370700Y-11268000D01*
X9370700Y-11268000D02*
X9361176Y-11248952D01*
X9361176Y-11248952D02*
X9361176Y-11077524D01*
X9542129Y-11268000D02*
X9523081Y-11277524D01*
X9523081Y-11277524D02*
X9484986Y-11277524D01*
X9484986Y-11277524D02*
X9465938Y-11268000D01*
X9465938Y-11268000D02*
X9456415Y-11248952D01*
X9456415Y-11248952D02*
X9456415Y-11172762D01*
X9456415Y-11172762D02*
X9465938Y-11153714D01*
X9465938Y-11153714D02*
X9484986Y-11144190D01*
X9484986Y-11144190D02*
X9523081Y-11144190D01*
X9523081Y-11144190D02*
X9542129Y-11153714D01*
X9542129Y-11153714D02*
X9551653Y-11172762D01*
X9551653Y-11172762D02*
X9551653Y-11191809D01*
X9551653Y-11191809D02*
X9456415Y-11210857D01*
X9627843Y-11268000D02*
X9646891Y-11277524D01*
X9646891Y-11277524D02*
X9684986Y-11277524D01*
X9684986Y-11277524D02*
X9704034Y-11268000D01*
X9704034Y-11268000D02*
X9713557Y-11248952D01*
X9713557Y-11248952D02*
X9713557Y-11239428D01*
X9713557Y-11239428D02*
X9704034Y-11220381D01*
X9704034Y-11220381D02*
X9684986Y-11210857D01*
X9684986Y-11210857D02*
X9656415Y-11210857D01*
X9656415Y-11210857D02*
X9637367Y-11201333D01*
X9637367Y-11201333D02*
X9627843Y-11182286D01*
X9627843Y-11182286D02*
X9627843Y-11172762D01*
X9627843Y-11172762D02*
X9637367Y-11153714D01*
X9637367Y-11153714D02*
X9656415Y-11144190D01*
X9656415Y-11144190D02*
X9684986Y-11144190D01*
X9684986Y-11144190D02*
X9704034Y-11153714D01*
X9780224Y-11353714D02*
X9789748Y-11344190D01*
X9789748Y-11344190D02*
X9808796Y-11315619D01*
X9808796Y-11315619D02*
X9818319Y-11296571D01*
X9818319Y-11296571D02*
X9827843Y-11268000D01*
X9827843Y-11268000D02*
X9837367Y-11220381D01*
X9837367Y-11220381D02*
X9837367Y-11182286D01*
X9837367Y-11182286D02*
X9827843Y-11134667D01*
X9827843Y-11134667D02*
X9818319Y-11106095D01*
X9818319Y-11106095D02*
X9808796Y-11087048D01*
X9808796Y-11087048D02*
X9789748Y-11058476D01*
X9789748Y-11058476D02*
X9780224Y-11048952D01*
D13*
X4827843Y-11449000D02*
G75*
G03*
X4827843Y-11449000I-50800J0D01*
G01*
D11*
X5180224Y-11541524D02*
X5065938Y-11541524D01*
X5123081Y-11541524D02*
X5123081Y-11341524D01*
X5123081Y-11341524D02*
X5104033Y-11370095D01*
X5104033Y-11370095D02*
X5084986Y-11389143D01*
X5084986Y-11389143D02*
X5065938Y-11398667D01*
X5265938Y-11522476D02*
X5275462Y-11532000D01*
X5275462Y-11532000D02*
X5265938Y-11541524D01*
X5265938Y-11541524D02*
X5256414Y-11532000D01*
X5256414Y-11532000D02*
X5265938Y-11522476D01*
X5265938Y-11522476D02*
X5265938Y-11541524D01*
X5399271Y-11341524D02*
X5418319Y-11341524D01*
X5418319Y-11341524D02*
X5437367Y-11351048D01*
X5437367Y-11351048D02*
X5446890Y-11360571D01*
X5446890Y-11360571D02*
X5456414Y-11379619D01*
X5456414Y-11379619D02*
X5465938Y-11417714D01*
X5465938Y-11417714D02*
X5465938Y-11465333D01*
X5465938Y-11465333D02*
X5456414Y-11503428D01*
X5456414Y-11503428D02*
X5446890Y-11522476D01*
X5446890Y-11522476D02*
X5437367Y-11532000D01*
X5437367Y-11532000D02*
X5418319Y-11541524D01*
X5418319Y-11541524D02*
X5399271Y-11541524D01*
X5399271Y-11541524D02*
X5380224Y-11532000D01*
X5380224Y-11532000D02*
X5370700Y-11522476D01*
X5370700Y-11522476D02*
X5361176Y-11503428D01*
X5361176Y-11503428D02*
X5351652Y-11465333D01*
X5351652Y-11465333D02*
X5351652Y-11417714D01*
X5351652Y-11417714D02*
X5361176Y-11379619D01*
X5361176Y-11379619D02*
X5370700Y-11360571D01*
X5370700Y-11360571D02*
X5380224Y-11351048D01*
X5380224Y-11351048D02*
X5399271Y-11341524D01*
X5656414Y-11541524D02*
X5542128Y-11541524D01*
X5599271Y-11541524D02*
X5599271Y-11341524D01*
X5599271Y-11341524D02*
X5580224Y-11370095D01*
X5580224Y-11370095D02*
X5561176Y-11389143D01*
X5561176Y-11389143D02*
X5542128Y-11398667D01*
X5827843Y-11341524D02*
X5789747Y-11341524D01*
X5789747Y-11341524D02*
X5770700Y-11351048D01*
X5770700Y-11351048D02*
X5761176Y-11360571D01*
X5761176Y-11360571D02*
X5742128Y-11389143D01*
X5742128Y-11389143D02*
X5732605Y-11427238D01*
X5732605Y-11427238D02*
X5732605Y-11503428D01*
X5732605Y-11503428D02*
X5742128Y-11522476D01*
X5742128Y-11522476D02*
X5751652Y-11532000D01*
X5751652Y-11532000D02*
X5770700Y-11541524D01*
X5770700Y-11541524D02*
X5808795Y-11541524D01*
X5808795Y-11541524D02*
X5827843Y-11532000D01*
X5827843Y-11532000D02*
X5837366Y-11522476D01*
X5837366Y-11522476D02*
X5846890Y-11503428D01*
X5846890Y-11503428D02*
X5846890Y-11455809D01*
X5846890Y-11455809D02*
X5837366Y-11436762D01*
X5837366Y-11436762D02*
X5827843Y-11427238D01*
X5827843Y-11427238D02*
X5808795Y-11417714D01*
X5808795Y-11417714D02*
X5770700Y-11417714D01*
X5770700Y-11417714D02*
X5751652Y-11427238D01*
X5751652Y-11427238D02*
X5742128Y-11436762D01*
X5742128Y-11436762D02*
X5732605Y-11455809D01*
X5932605Y-11541524D02*
X5932605Y-11408190D01*
X5932605Y-11427238D02*
X5942128Y-11417714D01*
X5942128Y-11417714D02*
X5961176Y-11408190D01*
X5961176Y-11408190D02*
X5989747Y-11408190D01*
X5989747Y-11408190D02*
X6008795Y-11417714D01*
X6008795Y-11417714D02*
X6018319Y-11436762D01*
X6018319Y-11436762D02*
X6018319Y-11541524D01*
X6018319Y-11436762D02*
X6027843Y-11417714D01*
X6027843Y-11417714D02*
X6046890Y-11408190D01*
X6046890Y-11408190D02*
X6075462Y-11408190D01*
X6075462Y-11408190D02*
X6094509Y-11417714D01*
X6094509Y-11417714D02*
X6104033Y-11436762D01*
X6104033Y-11436762D02*
X6104033Y-11541524D01*
X6199271Y-11541524D02*
X6199271Y-11408190D01*
X6199271Y-11427238D02*
X6208795Y-11417714D01*
X6208795Y-11417714D02*
X6227843Y-11408190D01*
X6227843Y-11408190D02*
X6256414Y-11408190D01*
X6256414Y-11408190D02*
X6275462Y-11417714D01*
X6275462Y-11417714D02*
X6284986Y-11436762D01*
X6284986Y-11436762D02*
X6284986Y-11541524D01*
X6284986Y-11436762D02*
X6294509Y-11417714D01*
X6294509Y-11417714D02*
X6313557Y-11408190D01*
X6313557Y-11408190D02*
X6342128Y-11408190D01*
X6342128Y-11408190D02*
X6361176Y-11417714D01*
X6361176Y-11417714D02*
X6370700Y-11436762D01*
X6370700Y-11436762D02*
X6370700Y-11541524D01*
X6761176Y-11332000D02*
X6589748Y-11589143D01*
X7018319Y-11341524D02*
X7037367Y-11341524D01*
X7037367Y-11341524D02*
X7056414Y-11351048D01*
X7056414Y-11351048D02*
X7065938Y-11360571D01*
X7065938Y-11360571D02*
X7075462Y-11379619D01*
X7075462Y-11379619D02*
X7084986Y-11417714D01*
X7084986Y-11417714D02*
X7084986Y-11465333D01*
X7084986Y-11465333D02*
X7075462Y-11503428D01*
X7075462Y-11503428D02*
X7065938Y-11522476D01*
X7065938Y-11522476D02*
X7056414Y-11532000D01*
X7056414Y-11532000D02*
X7037367Y-11541524D01*
X7037367Y-11541524D02*
X7018319Y-11541524D01*
X7018319Y-11541524D02*
X6999271Y-11532000D01*
X6999271Y-11532000D02*
X6989748Y-11522476D01*
X6989748Y-11522476D02*
X6980224Y-11503428D01*
X6980224Y-11503428D02*
X6970700Y-11465333D01*
X6970700Y-11465333D02*
X6970700Y-11417714D01*
X6970700Y-11417714D02*
X6980224Y-11379619D01*
X6980224Y-11379619D02*
X6989748Y-11360571D01*
X6989748Y-11360571D02*
X6999271Y-11351048D01*
X6999271Y-11351048D02*
X7018319Y-11341524D01*
X7170700Y-11522476D02*
X7180224Y-11532000D01*
X7180224Y-11532000D02*
X7170700Y-11541524D01*
X7170700Y-11541524D02*
X7161176Y-11532000D01*
X7161176Y-11532000D02*
X7170700Y-11522476D01*
X7170700Y-11522476D02*
X7170700Y-11541524D01*
X7304033Y-11341524D02*
X7323081Y-11341524D01*
X7323081Y-11341524D02*
X7342129Y-11351048D01*
X7342129Y-11351048D02*
X7351652Y-11360571D01*
X7351652Y-11360571D02*
X7361176Y-11379619D01*
X7361176Y-11379619D02*
X7370700Y-11417714D01*
X7370700Y-11417714D02*
X7370700Y-11465333D01*
X7370700Y-11465333D02*
X7361176Y-11503428D01*
X7361176Y-11503428D02*
X7351652Y-11522476D01*
X7351652Y-11522476D02*
X7342129Y-11532000D01*
X7342129Y-11532000D02*
X7323081Y-11541524D01*
X7323081Y-11541524D02*
X7304033Y-11541524D01*
X7304033Y-11541524D02*
X7284986Y-11532000D01*
X7284986Y-11532000D02*
X7275462Y-11522476D01*
X7275462Y-11522476D02*
X7265938Y-11503428D01*
X7265938Y-11503428D02*
X7256414Y-11465333D01*
X7256414Y-11465333D02*
X7256414Y-11417714D01*
X7256414Y-11417714D02*
X7265938Y-11379619D01*
X7265938Y-11379619D02*
X7275462Y-11360571D01*
X7275462Y-11360571D02*
X7284986Y-11351048D01*
X7284986Y-11351048D02*
X7304033Y-11341524D01*
X7542129Y-11408190D02*
X7542129Y-11541524D01*
X7494509Y-11332000D02*
X7446890Y-11474857D01*
X7446890Y-11474857D02*
X7570700Y-11474857D01*
X7684986Y-11341524D02*
X7704033Y-11341524D01*
X7704033Y-11341524D02*
X7723081Y-11351048D01*
X7723081Y-11351048D02*
X7732605Y-11360571D01*
X7732605Y-11360571D02*
X7742129Y-11379619D01*
X7742129Y-11379619D02*
X7751652Y-11417714D01*
X7751652Y-11417714D02*
X7751652Y-11465333D01*
X7751652Y-11465333D02*
X7742129Y-11503428D01*
X7742129Y-11503428D02*
X7732605Y-11522476D01*
X7732605Y-11522476D02*
X7723081Y-11532000D01*
X7723081Y-11532000D02*
X7704033Y-11541524D01*
X7704033Y-11541524D02*
X7684986Y-11541524D01*
X7684986Y-11541524D02*
X7665938Y-11532000D01*
X7665938Y-11532000D02*
X7656414Y-11522476D01*
X7656414Y-11522476D02*
X7646890Y-11503428D01*
X7646890Y-11503428D02*
X7637367Y-11465333D01*
X7637367Y-11465333D02*
X7637367Y-11417714D01*
X7637367Y-11417714D02*
X7646890Y-11379619D01*
X7646890Y-11379619D02*
X7656414Y-11360571D01*
X7656414Y-11360571D02*
X7665938Y-11351048D01*
X7665938Y-11351048D02*
X7684986Y-11341524D01*
X7875462Y-11341524D02*
X7894510Y-11341524D01*
X7894510Y-11341524D02*
X7913557Y-11351048D01*
X7913557Y-11351048D02*
X7923081Y-11360571D01*
X7923081Y-11360571D02*
X7932605Y-11379619D01*
X7932605Y-11379619D02*
X7942129Y-11417714D01*
X7942129Y-11417714D02*
X7942129Y-11465333D01*
X7942129Y-11465333D02*
X7932605Y-11503428D01*
X7932605Y-11503428D02*
X7923081Y-11522476D01*
X7923081Y-11522476D02*
X7913557Y-11532000D01*
X7913557Y-11532000D02*
X7894510Y-11541524D01*
X7894510Y-11541524D02*
X7875462Y-11541524D01*
X7875462Y-11541524D02*
X7856414Y-11532000D01*
X7856414Y-11532000D02*
X7846890Y-11522476D01*
X7846890Y-11522476D02*
X7837367Y-11503428D01*
X7837367Y-11503428D02*
X7827843Y-11465333D01*
X7827843Y-11465333D02*
X7827843Y-11417714D01*
X7827843Y-11417714D02*
X7837367Y-11379619D01*
X7837367Y-11379619D02*
X7846890Y-11360571D01*
X7846890Y-11360571D02*
X7856414Y-11351048D01*
X7856414Y-11351048D02*
X7875462Y-11341524D01*
X8018319Y-11341524D02*
X8018319Y-11379619D01*
X8094510Y-11341524D02*
X8094510Y-11379619D01*
X8389748Y-11617714D02*
X8380224Y-11608190D01*
X8380224Y-11608190D02*
X8361176Y-11579619D01*
X8361176Y-11579619D02*
X8351652Y-11560571D01*
X8351652Y-11560571D02*
X8342129Y-11532000D01*
X8342129Y-11532000D02*
X8332605Y-11484381D01*
X8332605Y-11484381D02*
X8332605Y-11446286D01*
X8332605Y-11446286D02*
X8342129Y-11398667D01*
X8342129Y-11398667D02*
X8351652Y-11370095D01*
X8351652Y-11370095D02*
X8361176Y-11351048D01*
X8361176Y-11351048D02*
X8380224Y-11322476D01*
X8380224Y-11322476D02*
X8389748Y-11312952D01*
X8446891Y-11341524D02*
X8580224Y-11341524D01*
X8580224Y-11341524D02*
X8494510Y-11541524D01*
X8808795Y-11541524D02*
X8808795Y-11341524D01*
X8894510Y-11541524D02*
X8894510Y-11436762D01*
X8894510Y-11436762D02*
X8884986Y-11417714D01*
X8884986Y-11417714D02*
X8865938Y-11408190D01*
X8865938Y-11408190D02*
X8837367Y-11408190D01*
X8837367Y-11408190D02*
X8818319Y-11417714D01*
X8818319Y-11417714D02*
X8808795Y-11427238D01*
X9018319Y-11541524D02*
X8999272Y-11532000D01*
X8999272Y-11532000D02*
X8989748Y-11522476D01*
X8989748Y-11522476D02*
X8980224Y-11503428D01*
X8980224Y-11503428D02*
X8980224Y-11446286D01*
X8980224Y-11446286D02*
X8989748Y-11427238D01*
X8989748Y-11427238D02*
X8999272Y-11417714D01*
X8999272Y-11417714D02*
X9018319Y-11408190D01*
X9018319Y-11408190D02*
X9046891Y-11408190D01*
X9046891Y-11408190D02*
X9065938Y-11417714D01*
X9065938Y-11417714D02*
X9075462Y-11427238D01*
X9075462Y-11427238D02*
X9084986Y-11446286D01*
X9084986Y-11446286D02*
X9084986Y-11503428D01*
X9084986Y-11503428D02*
X9075462Y-11522476D01*
X9075462Y-11522476D02*
X9065938Y-11532000D01*
X9065938Y-11532000D02*
X9046891Y-11541524D01*
X9046891Y-11541524D02*
X9018319Y-11541524D01*
X9199272Y-11541524D02*
X9180224Y-11532000D01*
X9180224Y-11532000D02*
X9170700Y-11512952D01*
X9170700Y-11512952D02*
X9170700Y-11341524D01*
X9351653Y-11532000D02*
X9332605Y-11541524D01*
X9332605Y-11541524D02*
X9294510Y-11541524D01*
X9294510Y-11541524D02*
X9275462Y-11532000D01*
X9275462Y-11532000D02*
X9265938Y-11512952D01*
X9265938Y-11512952D02*
X9265938Y-11436762D01*
X9265938Y-11436762D02*
X9275462Y-11417714D01*
X9275462Y-11417714D02*
X9294510Y-11408190D01*
X9294510Y-11408190D02*
X9332605Y-11408190D01*
X9332605Y-11408190D02*
X9351653Y-11417714D01*
X9351653Y-11417714D02*
X9361176Y-11436762D01*
X9361176Y-11436762D02*
X9361176Y-11455809D01*
X9361176Y-11455809D02*
X9265938Y-11474857D01*
X9437367Y-11532000D02*
X9456415Y-11541524D01*
X9456415Y-11541524D02*
X9494510Y-11541524D01*
X9494510Y-11541524D02*
X9513557Y-11532000D01*
X9513557Y-11532000D02*
X9523081Y-11512952D01*
X9523081Y-11512952D02*
X9523081Y-11503428D01*
X9523081Y-11503428D02*
X9513557Y-11484381D01*
X9513557Y-11484381D02*
X9494510Y-11474857D01*
X9494510Y-11474857D02*
X9465938Y-11474857D01*
X9465938Y-11474857D02*
X9446891Y-11465333D01*
X9446891Y-11465333D02*
X9437367Y-11446286D01*
X9437367Y-11446286D02*
X9437367Y-11436762D01*
X9437367Y-11436762D02*
X9446891Y-11417714D01*
X9446891Y-11417714D02*
X9465938Y-11408190D01*
X9465938Y-11408190D02*
X9494510Y-11408190D01*
X9494510Y-11408190D02*
X9513557Y-11417714D01*
X9589748Y-11617714D02*
X9599272Y-11608190D01*
X9599272Y-11608190D02*
X9618319Y-11579619D01*
X9618319Y-11579619D02*
X9627843Y-11560571D01*
X9627843Y-11560571D02*
X9637367Y-11532000D01*
X9637367Y-11532000D02*
X9646891Y-11484381D01*
X9646891Y-11484381D02*
X9646891Y-11446286D01*
X9646891Y-11446286D02*
X9637367Y-11398667D01*
X9637367Y-11398667D02*
X9627843Y-11370095D01*
X9627843Y-11370095D02*
X9618319Y-11351048D01*
X9618319Y-11351048D02*
X9599272Y-11322476D01*
X9599272Y-11322476D02*
X9589748Y-11312952D01*
D14*
X4776843Y-11662000D02*
X4776843Y-11764000D01*
X4725843Y-11713000D02*
X4827843Y-11713000D01*
D11*
X5180224Y-11805524D02*
X5065938Y-11805524D01*
X5123081Y-11805524D02*
X5123081Y-11605524D01*
X5123081Y-11605524D02*
X5104033Y-11634095D01*
X5104033Y-11634095D02*
X5084986Y-11653143D01*
X5084986Y-11653143D02*
X5065938Y-11662667D01*
X5265938Y-11786476D02*
X5275462Y-11796000D01*
X5275462Y-11796000D02*
X5265938Y-11805524D01*
X5265938Y-11805524D02*
X5256414Y-11796000D01*
X5256414Y-11796000D02*
X5265938Y-11786476D01*
X5265938Y-11786476D02*
X5265938Y-11805524D01*
X5399271Y-11605524D02*
X5418319Y-11605524D01*
X5418319Y-11605524D02*
X5437367Y-11615048D01*
X5437367Y-11615048D02*
X5446890Y-11624571D01*
X5446890Y-11624571D02*
X5456414Y-11643619D01*
X5456414Y-11643619D02*
X5465938Y-11681714D01*
X5465938Y-11681714D02*
X5465938Y-11729333D01*
X5465938Y-11729333D02*
X5456414Y-11767428D01*
X5456414Y-11767428D02*
X5446890Y-11786476D01*
X5446890Y-11786476D02*
X5437367Y-11796000D01*
X5437367Y-11796000D02*
X5418319Y-11805524D01*
X5418319Y-11805524D02*
X5399271Y-11805524D01*
X5399271Y-11805524D02*
X5380224Y-11796000D01*
X5380224Y-11796000D02*
X5370700Y-11786476D01*
X5370700Y-11786476D02*
X5361176Y-11767428D01*
X5361176Y-11767428D02*
X5351652Y-11729333D01*
X5351652Y-11729333D02*
X5351652Y-11681714D01*
X5351652Y-11681714D02*
X5361176Y-11643619D01*
X5361176Y-11643619D02*
X5370700Y-11624571D01*
X5370700Y-11624571D02*
X5380224Y-11615048D01*
X5380224Y-11615048D02*
X5399271Y-11605524D01*
X5542128Y-11624571D02*
X5551652Y-11615048D01*
X5551652Y-11615048D02*
X5570700Y-11605524D01*
X5570700Y-11605524D02*
X5618319Y-11605524D01*
X5618319Y-11605524D02*
X5637366Y-11615048D01*
X5637366Y-11615048D02*
X5646890Y-11624571D01*
X5646890Y-11624571D02*
X5656414Y-11643619D01*
X5656414Y-11643619D02*
X5656414Y-11662667D01*
X5656414Y-11662667D02*
X5646890Y-11691238D01*
X5646890Y-11691238D02*
X5532605Y-11805524D01*
X5532605Y-11805524D02*
X5656414Y-11805524D01*
X5780224Y-11605524D02*
X5799271Y-11605524D01*
X5799271Y-11605524D02*
X5818319Y-11615048D01*
X5818319Y-11615048D02*
X5827843Y-11624571D01*
X5827843Y-11624571D02*
X5837366Y-11643619D01*
X5837366Y-11643619D02*
X5846890Y-11681714D01*
X5846890Y-11681714D02*
X5846890Y-11729333D01*
X5846890Y-11729333D02*
X5837366Y-11767428D01*
X5837366Y-11767428D02*
X5827843Y-11786476D01*
X5827843Y-11786476D02*
X5818319Y-11796000D01*
X5818319Y-11796000D02*
X5799271Y-11805524D01*
X5799271Y-11805524D02*
X5780224Y-11805524D01*
X5780224Y-11805524D02*
X5761176Y-11796000D01*
X5761176Y-11796000D02*
X5751652Y-11786476D01*
X5751652Y-11786476D02*
X5742128Y-11767428D01*
X5742128Y-11767428D02*
X5732605Y-11729333D01*
X5732605Y-11729333D02*
X5732605Y-11681714D01*
X5732605Y-11681714D02*
X5742128Y-11643619D01*
X5742128Y-11643619D02*
X5751652Y-11624571D01*
X5751652Y-11624571D02*
X5761176Y-11615048D01*
X5761176Y-11615048D02*
X5780224Y-11605524D01*
X5932605Y-11805524D02*
X5932605Y-11672190D01*
X5932605Y-11691238D02*
X5942128Y-11681714D01*
X5942128Y-11681714D02*
X5961176Y-11672190D01*
X5961176Y-11672190D02*
X5989747Y-11672190D01*
X5989747Y-11672190D02*
X6008795Y-11681714D01*
X6008795Y-11681714D02*
X6018319Y-11700762D01*
X6018319Y-11700762D02*
X6018319Y-11805524D01*
X6018319Y-11700762D02*
X6027843Y-11681714D01*
X6027843Y-11681714D02*
X6046890Y-11672190D01*
X6046890Y-11672190D02*
X6075462Y-11672190D01*
X6075462Y-11672190D02*
X6094509Y-11681714D01*
X6094509Y-11681714D02*
X6104033Y-11700762D01*
X6104033Y-11700762D02*
X6104033Y-11805524D01*
X6199271Y-11805524D02*
X6199271Y-11672190D01*
X6199271Y-11691238D02*
X6208795Y-11681714D01*
X6208795Y-11681714D02*
X6227843Y-11672190D01*
X6227843Y-11672190D02*
X6256414Y-11672190D01*
X6256414Y-11672190D02*
X6275462Y-11681714D01*
X6275462Y-11681714D02*
X6284986Y-11700762D01*
X6284986Y-11700762D02*
X6284986Y-11805524D01*
X6284986Y-11700762D02*
X6294509Y-11681714D01*
X6294509Y-11681714D02*
X6313557Y-11672190D01*
X6313557Y-11672190D02*
X6342128Y-11672190D01*
X6342128Y-11672190D02*
X6361176Y-11681714D01*
X6361176Y-11681714D02*
X6370700Y-11700762D01*
X6370700Y-11700762D02*
X6370700Y-11805524D01*
X6761176Y-11596000D02*
X6589748Y-11853143D01*
X7018319Y-11605524D02*
X7037367Y-11605524D01*
X7037367Y-11605524D02*
X7056414Y-11615048D01*
X7056414Y-11615048D02*
X7065938Y-11624571D01*
X7065938Y-11624571D02*
X7075462Y-11643619D01*
X7075462Y-11643619D02*
X7084986Y-11681714D01*
X7084986Y-11681714D02*
X7084986Y-11729333D01*
X7084986Y-11729333D02*
X7075462Y-11767428D01*
X7075462Y-11767428D02*
X7065938Y-11786476D01*
X7065938Y-11786476D02*
X7056414Y-11796000D01*
X7056414Y-11796000D02*
X7037367Y-11805524D01*
X7037367Y-11805524D02*
X7018319Y-11805524D01*
X7018319Y-11805524D02*
X6999271Y-11796000D01*
X6999271Y-11796000D02*
X6989748Y-11786476D01*
X6989748Y-11786476D02*
X6980224Y-11767428D01*
X6980224Y-11767428D02*
X6970700Y-11729333D01*
X6970700Y-11729333D02*
X6970700Y-11681714D01*
X6970700Y-11681714D02*
X6980224Y-11643619D01*
X6980224Y-11643619D02*
X6989748Y-11624571D01*
X6989748Y-11624571D02*
X6999271Y-11615048D01*
X6999271Y-11615048D02*
X7018319Y-11605524D01*
X7170700Y-11786476D02*
X7180224Y-11796000D01*
X7180224Y-11796000D02*
X7170700Y-11805524D01*
X7170700Y-11805524D02*
X7161176Y-11796000D01*
X7161176Y-11796000D02*
X7170700Y-11786476D01*
X7170700Y-11786476D02*
X7170700Y-11805524D01*
X7304033Y-11605524D02*
X7323081Y-11605524D01*
X7323081Y-11605524D02*
X7342129Y-11615048D01*
X7342129Y-11615048D02*
X7351652Y-11624571D01*
X7351652Y-11624571D02*
X7361176Y-11643619D01*
X7361176Y-11643619D02*
X7370700Y-11681714D01*
X7370700Y-11681714D02*
X7370700Y-11729333D01*
X7370700Y-11729333D02*
X7361176Y-11767428D01*
X7361176Y-11767428D02*
X7351652Y-11786476D01*
X7351652Y-11786476D02*
X7342129Y-11796000D01*
X7342129Y-11796000D02*
X7323081Y-11805524D01*
X7323081Y-11805524D02*
X7304033Y-11805524D01*
X7304033Y-11805524D02*
X7284986Y-11796000D01*
X7284986Y-11796000D02*
X7275462Y-11786476D01*
X7275462Y-11786476D02*
X7265938Y-11767428D01*
X7265938Y-11767428D02*
X7256414Y-11729333D01*
X7256414Y-11729333D02*
X7256414Y-11681714D01*
X7256414Y-11681714D02*
X7265938Y-11643619D01*
X7265938Y-11643619D02*
X7275462Y-11624571D01*
X7275462Y-11624571D02*
X7284986Y-11615048D01*
X7284986Y-11615048D02*
X7304033Y-11605524D01*
X7542129Y-11672190D02*
X7542129Y-11805524D01*
X7494509Y-11596000D02*
X7446890Y-11738857D01*
X7446890Y-11738857D02*
X7570700Y-11738857D01*
X7684986Y-11605524D02*
X7704033Y-11605524D01*
X7704033Y-11605524D02*
X7723081Y-11615048D01*
X7723081Y-11615048D02*
X7732605Y-11624571D01*
X7732605Y-11624571D02*
X7742129Y-11643619D01*
X7742129Y-11643619D02*
X7751652Y-11681714D01*
X7751652Y-11681714D02*
X7751652Y-11729333D01*
X7751652Y-11729333D02*
X7742129Y-11767428D01*
X7742129Y-11767428D02*
X7732605Y-11786476D01*
X7732605Y-11786476D02*
X7723081Y-11796000D01*
X7723081Y-11796000D02*
X7704033Y-11805524D01*
X7704033Y-11805524D02*
X7684986Y-11805524D01*
X7684986Y-11805524D02*
X7665938Y-11796000D01*
X7665938Y-11796000D02*
X7656414Y-11786476D01*
X7656414Y-11786476D02*
X7646890Y-11767428D01*
X7646890Y-11767428D02*
X7637367Y-11729333D01*
X7637367Y-11729333D02*
X7637367Y-11681714D01*
X7637367Y-11681714D02*
X7646890Y-11643619D01*
X7646890Y-11643619D02*
X7656414Y-11624571D01*
X7656414Y-11624571D02*
X7665938Y-11615048D01*
X7665938Y-11615048D02*
X7684986Y-11605524D01*
X7827843Y-11624571D02*
X7837367Y-11615048D01*
X7837367Y-11615048D02*
X7856414Y-11605524D01*
X7856414Y-11605524D02*
X7904033Y-11605524D01*
X7904033Y-11605524D02*
X7923081Y-11615048D01*
X7923081Y-11615048D02*
X7932605Y-11624571D01*
X7932605Y-11624571D02*
X7942129Y-11643619D01*
X7942129Y-11643619D02*
X7942129Y-11662667D01*
X7942129Y-11662667D02*
X7932605Y-11691238D01*
X7932605Y-11691238D02*
X7818319Y-11805524D01*
X7818319Y-11805524D02*
X7942129Y-11805524D01*
X8018319Y-11605524D02*
X8018319Y-11643619D01*
X8094510Y-11605524D02*
X8094510Y-11643619D01*
X8389748Y-11881714D02*
X8380224Y-11872190D01*
X8380224Y-11872190D02*
X8361176Y-11843619D01*
X8361176Y-11843619D02*
X8351652Y-11824571D01*
X8351652Y-11824571D02*
X8342129Y-11796000D01*
X8342129Y-11796000D02*
X8332605Y-11748381D01*
X8332605Y-11748381D02*
X8332605Y-11710286D01*
X8332605Y-11710286D02*
X8342129Y-11662667D01*
X8342129Y-11662667D02*
X8351652Y-11634095D01*
X8351652Y-11634095D02*
X8361176Y-11615048D01*
X8361176Y-11615048D02*
X8380224Y-11586476D01*
X8380224Y-11586476D02*
X8389748Y-11576952D01*
X8570700Y-11805524D02*
X8456414Y-11805524D01*
X8513557Y-11805524D02*
X8513557Y-11605524D01*
X8513557Y-11605524D02*
X8494510Y-11634095D01*
X8494510Y-11634095D02*
X8475462Y-11653143D01*
X8475462Y-11653143D02*
X8456414Y-11662667D01*
X8808795Y-11805524D02*
X8808795Y-11605524D01*
X8894510Y-11805524D02*
X8894510Y-11700762D01*
X8894510Y-11700762D02*
X8884986Y-11681714D01*
X8884986Y-11681714D02*
X8865938Y-11672190D01*
X8865938Y-11672190D02*
X8837367Y-11672190D01*
X8837367Y-11672190D02*
X8818319Y-11681714D01*
X8818319Y-11681714D02*
X8808795Y-11691238D01*
X9018319Y-11805524D02*
X8999272Y-11796000D01*
X8999272Y-11796000D02*
X8989748Y-11786476D01*
X8989748Y-11786476D02*
X8980224Y-11767428D01*
X8980224Y-11767428D02*
X8980224Y-11710286D01*
X8980224Y-11710286D02*
X8989748Y-11691238D01*
X8989748Y-11691238D02*
X8999272Y-11681714D01*
X8999272Y-11681714D02*
X9018319Y-11672190D01*
X9018319Y-11672190D02*
X9046891Y-11672190D01*
X9046891Y-11672190D02*
X9065938Y-11681714D01*
X9065938Y-11681714D02*
X9075462Y-11691238D01*
X9075462Y-11691238D02*
X9084986Y-11710286D01*
X9084986Y-11710286D02*
X9084986Y-11767428D01*
X9084986Y-11767428D02*
X9075462Y-11786476D01*
X9075462Y-11786476D02*
X9065938Y-11796000D01*
X9065938Y-11796000D02*
X9046891Y-11805524D01*
X9046891Y-11805524D02*
X9018319Y-11805524D01*
X9199272Y-11805524D02*
X9180224Y-11796000D01*
X9180224Y-11796000D02*
X9170700Y-11776952D01*
X9170700Y-11776952D02*
X9170700Y-11605524D01*
X9351653Y-11796000D02*
X9332605Y-11805524D01*
X9332605Y-11805524D02*
X9294510Y-11805524D01*
X9294510Y-11805524D02*
X9275462Y-11796000D01*
X9275462Y-11796000D02*
X9265938Y-11776952D01*
X9265938Y-11776952D02*
X9265938Y-11700762D01*
X9265938Y-11700762D02*
X9275462Y-11681714D01*
X9275462Y-11681714D02*
X9294510Y-11672190D01*
X9294510Y-11672190D02*
X9332605Y-11672190D01*
X9332605Y-11672190D02*
X9351653Y-11681714D01*
X9351653Y-11681714D02*
X9361176Y-11700762D01*
X9361176Y-11700762D02*
X9361176Y-11719809D01*
X9361176Y-11719809D02*
X9265938Y-11738857D01*
X9427843Y-11881714D02*
X9437367Y-11872190D01*
X9437367Y-11872190D02*
X9456415Y-11843619D01*
X9456415Y-11843619D02*
X9465938Y-11824571D01*
X9465938Y-11824571D02*
X9475462Y-11796000D01*
X9475462Y-11796000D02*
X9484986Y-11748381D01*
X9484986Y-11748381D02*
X9484986Y-11710286D01*
X9484986Y-11710286D02*
X9475462Y-11662667D01*
X9475462Y-11662667D02*
X9465938Y-11634095D01*
X9465938Y-11634095D02*
X9456415Y-11615048D01*
X9456415Y-11615048D02*
X9437367Y-11586476D01*
X9437367Y-11586476D02*
X9427843Y-11576952D01*
X4798554Y-12047711D02*
X4798554Y-11906289D01*
X4657131Y-11906289D01*
X4657131Y-12047711D01*
X4798554Y-12047711D01*
X5065938Y-11888571D02*
X5075462Y-11879048D01*
X5075462Y-11879048D02*
X5094509Y-11869524D01*
X5094509Y-11869524D02*
X5142128Y-11869524D01*
X5142128Y-11869524D02*
X5161176Y-11879048D01*
X5161176Y-11879048D02*
X5170700Y-11888571D01*
X5170700Y-11888571D02*
X5180224Y-11907619D01*
X5180224Y-11907619D02*
X5180224Y-11926667D01*
X5180224Y-11926667D02*
X5170700Y-11955238D01*
X5170700Y-11955238D02*
X5056414Y-12069524D01*
X5056414Y-12069524D02*
X5180224Y-12069524D01*
X5265938Y-12050476D02*
X5275462Y-12060000D01*
X5275462Y-12060000D02*
X5265938Y-12069524D01*
X5265938Y-12069524D02*
X5256414Y-12060000D01*
X5256414Y-12060000D02*
X5265938Y-12050476D01*
X5265938Y-12050476D02*
X5265938Y-12069524D01*
X5342128Y-11869524D02*
X5475462Y-11869524D01*
X5475462Y-11869524D02*
X5389747Y-12069524D01*
X5589747Y-11869524D02*
X5608795Y-11869524D01*
X5608795Y-11869524D02*
X5627843Y-11879048D01*
X5627843Y-11879048D02*
X5637366Y-11888571D01*
X5637366Y-11888571D02*
X5646890Y-11907619D01*
X5646890Y-11907619D02*
X5656414Y-11945714D01*
X5656414Y-11945714D02*
X5656414Y-11993333D01*
X5656414Y-11993333D02*
X5646890Y-12031428D01*
X5646890Y-12031428D02*
X5637366Y-12050476D01*
X5637366Y-12050476D02*
X5627843Y-12060000D01*
X5627843Y-12060000D02*
X5608795Y-12069524D01*
X5608795Y-12069524D02*
X5589747Y-12069524D01*
X5589747Y-12069524D02*
X5570700Y-12060000D01*
X5570700Y-12060000D02*
X5561176Y-12050476D01*
X5561176Y-12050476D02*
X5551652Y-12031428D01*
X5551652Y-12031428D02*
X5542128Y-11993333D01*
X5542128Y-11993333D02*
X5542128Y-11945714D01*
X5542128Y-11945714D02*
X5551652Y-11907619D01*
X5551652Y-11907619D02*
X5561176Y-11888571D01*
X5561176Y-11888571D02*
X5570700Y-11879048D01*
X5570700Y-11879048D02*
X5589747Y-11869524D01*
X5780224Y-11869524D02*
X5799271Y-11869524D01*
X5799271Y-11869524D02*
X5818319Y-11879048D01*
X5818319Y-11879048D02*
X5827843Y-11888571D01*
X5827843Y-11888571D02*
X5837366Y-11907619D01*
X5837366Y-11907619D02*
X5846890Y-11945714D01*
X5846890Y-11945714D02*
X5846890Y-11993333D01*
X5846890Y-11993333D02*
X5837366Y-12031428D01*
X5837366Y-12031428D02*
X5827843Y-12050476D01*
X5827843Y-12050476D02*
X5818319Y-12060000D01*
X5818319Y-12060000D02*
X5799271Y-12069524D01*
X5799271Y-12069524D02*
X5780224Y-12069524D01*
X5780224Y-12069524D02*
X5761176Y-12060000D01*
X5761176Y-12060000D02*
X5751652Y-12050476D01*
X5751652Y-12050476D02*
X5742128Y-12031428D01*
X5742128Y-12031428D02*
X5732605Y-11993333D01*
X5732605Y-11993333D02*
X5732605Y-11945714D01*
X5732605Y-11945714D02*
X5742128Y-11907619D01*
X5742128Y-11907619D02*
X5751652Y-11888571D01*
X5751652Y-11888571D02*
X5761176Y-11879048D01*
X5761176Y-11879048D02*
X5780224Y-11869524D01*
X5932605Y-12069524D02*
X5932605Y-11936190D01*
X5932605Y-11955238D02*
X5942128Y-11945714D01*
X5942128Y-11945714D02*
X5961176Y-11936190D01*
X5961176Y-11936190D02*
X5989747Y-11936190D01*
X5989747Y-11936190D02*
X6008795Y-11945714D01*
X6008795Y-11945714D02*
X6018319Y-11964762D01*
X6018319Y-11964762D02*
X6018319Y-12069524D01*
X6018319Y-11964762D02*
X6027843Y-11945714D01*
X6027843Y-11945714D02*
X6046890Y-11936190D01*
X6046890Y-11936190D02*
X6075462Y-11936190D01*
X6075462Y-11936190D02*
X6094509Y-11945714D01*
X6094509Y-11945714D02*
X6104033Y-11964762D01*
X6104033Y-11964762D02*
X6104033Y-12069524D01*
X6199271Y-12069524D02*
X6199271Y-11936190D01*
X6199271Y-11955238D02*
X6208795Y-11945714D01*
X6208795Y-11945714D02*
X6227843Y-11936190D01*
X6227843Y-11936190D02*
X6256414Y-11936190D01*
X6256414Y-11936190D02*
X6275462Y-11945714D01*
X6275462Y-11945714D02*
X6284986Y-11964762D01*
X6284986Y-11964762D02*
X6284986Y-12069524D01*
X6284986Y-11964762D02*
X6294509Y-11945714D01*
X6294509Y-11945714D02*
X6313557Y-11936190D01*
X6313557Y-11936190D02*
X6342128Y-11936190D01*
X6342128Y-11936190D02*
X6361176Y-11945714D01*
X6361176Y-11945714D02*
X6370700Y-11964762D01*
X6370700Y-11964762D02*
X6370700Y-12069524D01*
X6761176Y-11860000D02*
X6589748Y-12117143D01*
X7018319Y-11869524D02*
X7037367Y-11869524D01*
X7037367Y-11869524D02*
X7056414Y-11879048D01*
X7056414Y-11879048D02*
X7065938Y-11888571D01*
X7065938Y-11888571D02*
X7075462Y-11907619D01*
X7075462Y-11907619D02*
X7084986Y-11945714D01*
X7084986Y-11945714D02*
X7084986Y-11993333D01*
X7084986Y-11993333D02*
X7075462Y-12031428D01*
X7075462Y-12031428D02*
X7065938Y-12050476D01*
X7065938Y-12050476D02*
X7056414Y-12060000D01*
X7056414Y-12060000D02*
X7037367Y-12069524D01*
X7037367Y-12069524D02*
X7018319Y-12069524D01*
X7018319Y-12069524D02*
X6999271Y-12060000D01*
X6999271Y-12060000D02*
X6989748Y-12050476D01*
X6989748Y-12050476D02*
X6980224Y-12031428D01*
X6980224Y-12031428D02*
X6970700Y-11993333D01*
X6970700Y-11993333D02*
X6970700Y-11945714D01*
X6970700Y-11945714D02*
X6980224Y-11907619D01*
X6980224Y-11907619D02*
X6989748Y-11888571D01*
X6989748Y-11888571D02*
X6999271Y-11879048D01*
X6999271Y-11879048D02*
X7018319Y-11869524D01*
X7170700Y-12050476D02*
X7180224Y-12060000D01*
X7180224Y-12060000D02*
X7170700Y-12069524D01*
X7170700Y-12069524D02*
X7161176Y-12060000D01*
X7161176Y-12060000D02*
X7170700Y-12050476D01*
X7170700Y-12050476D02*
X7170700Y-12069524D01*
X7370700Y-12069524D02*
X7256414Y-12069524D01*
X7313557Y-12069524D02*
X7313557Y-11869524D01*
X7313557Y-11869524D02*
X7294509Y-11898095D01*
X7294509Y-11898095D02*
X7275462Y-11917143D01*
X7275462Y-11917143D02*
X7256414Y-11926667D01*
X7494509Y-11869524D02*
X7513557Y-11869524D01*
X7513557Y-11869524D02*
X7532605Y-11879048D01*
X7532605Y-11879048D02*
X7542129Y-11888571D01*
X7542129Y-11888571D02*
X7551652Y-11907619D01*
X7551652Y-11907619D02*
X7561176Y-11945714D01*
X7561176Y-11945714D02*
X7561176Y-11993333D01*
X7561176Y-11993333D02*
X7551652Y-12031428D01*
X7551652Y-12031428D02*
X7542129Y-12050476D01*
X7542129Y-12050476D02*
X7532605Y-12060000D01*
X7532605Y-12060000D02*
X7513557Y-12069524D01*
X7513557Y-12069524D02*
X7494509Y-12069524D01*
X7494509Y-12069524D02*
X7475462Y-12060000D01*
X7475462Y-12060000D02*
X7465938Y-12050476D01*
X7465938Y-12050476D02*
X7456414Y-12031428D01*
X7456414Y-12031428D02*
X7446890Y-11993333D01*
X7446890Y-11993333D02*
X7446890Y-11945714D01*
X7446890Y-11945714D02*
X7456414Y-11907619D01*
X7456414Y-11907619D02*
X7465938Y-11888571D01*
X7465938Y-11888571D02*
X7475462Y-11879048D01*
X7475462Y-11879048D02*
X7494509Y-11869524D01*
X7732605Y-11869524D02*
X7694509Y-11869524D01*
X7694509Y-11869524D02*
X7675462Y-11879048D01*
X7675462Y-11879048D02*
X7665938Y-11888571D01*
X7665938Y-11888571D02*
X7646890Y-11917143D01*
X7646890Y-11917143D02*
X7637367Y-11955238D01*
X7637367Y-11955238D02*
X7637367Y-12031428D01*
X7637367Y-12031428D02*
X7646890Y-12050476D01*
X7646890Y-12050476D02*
X7656414Y-12060000D01*
X7656414Y-12060000D02*
X7675462Y-12069524D01*
X7675462Y-12069524D02*
X7713557Y-12069524D01*
X7713557Y-12069524D02*
X7732605Y-12060000D01*
X7732605Y-12060000D02*
X7742129Y-12050476D01*
X7742129Y-12050476D02*
X7751652Y-12031428D01*
X7751652Y-12031428D02*
X7751652Y-11983809D01*
X7751652Y-11983809D02*
X7742129Y-11964762D01*
X7742129Y-11964762D02*
X7732605Y-11955238D01*
X7732605Y-11955238D02*
X7713557Y-11945714D01*
X7713557Y-11945714D02*
X7675462Y-11945714D01*
X7675462Y-11945714D02*
X7656414Y-11955238D01*
X7656414Y-11955238D02*
X7646890Y-11964762D01*
X7646890Y-11964762D02*
X7637367Y-11983809D01*
X7818319Y-11869524D02*
X7942129Y-11869524D01*
X7942129Y-11869524D02*
X7875462Y-11945714D01*
X7875462Y-11945714D02*
X7904033Y-11945714D01*
X7904033Y-11945714D02*
X7923081Y-11955238D01*
X7923081Y-11955238D02*
X7932605Y-11964762D01*
X7932605Y-11964762D02*
X7942129Y-11983809D01*
X7942129Y-11983809D02*
X7942129Y-12031428D01*
X7942129Y-12031428D02*
X7932605Y-12050476D01*
X7932605Y-12050476D02*
X7923081Y-12060000D01*
X7923081Y-12060000D02*
X7904033Y-12069524D01*
X7904033Y-12069524D02*
X7846890Y-12069524D01*
X7846890Y-12069524D02*
X7827843Y-12060000D01*
X7827843Y-12060000D02*
X7818319Y-12050476D01*
X8018319Y-11869524D02*
X8018319Y-11907619D01*
X8094510Y-11869524D02*
X8094510Y-11907619D01*
X8389748Y-12145714D02*
X8380224Y-12136190D01*
X8380224Y-12136190D02*
X8361176Y-12107619D01*
X8361176Y-12107619D02*
X8351652Y-12088571D01*
X8351652Y-12088571D02*
X8342129Y-12060000D01*
X8342129Y-12060000D02*
X8332605Y-12012381D01*
X8332605Y-12012381D02*
X8332605Y-11974286D01*
X8332605Y-11974286D02*
X8342129Y-11926667D01*
X8342129Y-11926667D02*
X8351652Y-11898095D01*
X8351652Y-11898095D02*
X8361176Y-11879048D01*
X8361176Y-11879048D02*
X8380224Y-11850476D01*
X8380224Y-11850476D02*
X8389748Y-11840952D01*
X8456414Y-11888571D02*
X8465938Y-11879048D01*
X8465938Y-11879048D02*
X8484986Y-11869524D01*
X8484986Y-11869524D02*
X8532605Y-11869524D01*
X8532605Y-11869524D02*
X8551653Y-11879048D01*
X8551653Y-11879048D02*
X8561176Y-11888571D01*
X8561176Y-11888571D02*
X8570700Y-11907619D01*
X8570700Y-11907619D02*
X8570700Y-11926667D01*
X8570700Y-11926667D02*
X8561176Y-11955238D01*
X8561176Y-11955238D02*
X8446891Y-12069524D01*
X8446891Y-12069524D02*
X8570700Y-12069524D01*
X8646891Y-11888571D02*
X8656414Y-11879048D01*
X8656414Y-11879048D02*
X8675462Y-11869524D01*
X8675462Y-11869524D02*
X8723081Y-11869524D01*
X8723081Y-11869524D02*
X8742129Y-11879048D01*
X8742129Y-11879048D02*
X8751653Y-11888571D01*
X8751653Y-11888571D02*
X8761176Y-11907619D01*
X8761176Y-11907619D02*
X8761176Y-11926667D01*
X8761176Y-11926667D02*
X8751653Y-11955238D01*
X8751653Y-11955238D02*
X8637367Y-12069524D01*
X8637367Y-12069524D02*
X8761176Y-12069524D01*
X8999272Y-12069524D02*
X8999272Y-11869524D01*
X9084986Y-12069524D02*
X9084986Y-11964762D01*
X9084986Y-11964762D02*
X9075462Y-11945714D01*
X9075462Y-11945714D02*
X9056415Y-11936190D01*
X9056415Y-11936190D02*
X9027843Y-11936190D01*
X9027843Y-11936190D02*
X9008795Y-11945714D01*
X9008795Y-11945714D02*
X8999272Y-11955238D01*
X9208795Y-12069524D02*
X9189748Y-12060000D01*
X9189748Y-12060000D02*
X9180224Y-12050476D01*
X9180224Y-12050476D02*
X9170700Y-12031428D01*
X9170700Y-12031428D02*
X9170700Y-11974286D01*
X9170700Y-11974286D02*
X9180224Y-11955238D01*
X9180224Y-11955238D02*
X9189748Y-11945714D01*
X9189748Y-11945714D02*
X9208795Y-11936190D01*
X9208795Y-11936190D02*
X9237367Y-11936190D01*
X9237367Y-11936190D02*
X9256415Y-11945714D01*
X9256415Y-11945714D02*
X9265938Y-11955238D01*
X9265938Y-11955238D02*
X9275462Y-11974286D01*
X9275462Y-11974286D02*
X9275462Y-12031428D01*
X9275462Y-12031428D02*
X9265938Y-12050476D01*
X9265938Y-12050476D02*
X9256415Y-12060000D01*
X9256415Y-12060000D02*
X9237367Y-12069524D01*
X9237367Y-12069524D02*
X9208795Y-12069524D01*
X9389748Y-12069524D02*
X9370700Y-12060000D01*
X9370700Y-12060000D02*
X9361176Y-12040952D01*
X9361176Y-12040952D02*
X9361176Y-11869524D01*
X9542129Y-12060000D02*
X9523081Y-12069524D01*
X9523081Y-12069524D02*
X9484986Y-12069524D01*
X9484986Y-12069524D02*
X9465938Y-12060000D01*
X9465938Y-12060000D02*
X9456415Y-12040952D01*
X9456415Y-12040952D02*
X9456415Y-11964762D01*
X9456415Y-11964762D02*
X9465938Y-11945714D01*
X9465938Y-11945714D02*
X9484986Y-11936190D01*
X9484986Y-11936190D02*
X9523081Y-11936190D01*
X9523081Y-11936190D02*
X9542129Y-11945714D01*
X9542129Y-11945714D02*
X9551653Y-11964762D01*
X9551653Y-11964762D02*
X9551653Y-11983809D01*
X9551653Y-11983809D02*
X9456415Y-12002857D01*
X9627843Y-12060000D02*
X9646891Y-12069524D01*
X9646891Y-12069524D02*
X9684986Y-12069524D01*
X9684986Y-12069524D02*
X9704034Y-12060000D01*
X9704034Y-12060000D02*
X9713557Y-12040952D01*
X9713557Y-12040952D02*
X9713557Y-12031428D01*
X9713557Y-12031428D02*
X9704034Y-12012381D01*
X9704034Y-12012381D02*
X9684986Y-12002857D01*
X9684986Y-12002857D02*
X9656415Y-12002857D01*
X9656415Y-12002857D02*
X9637367Y-11993333D01*
X9637367Y-11993333D02*
X9627843Y-11974286D01*
X9627843Y-11974286D02*
X9627843Y-11964762D01*
X9627843Y-11964762D02*
X9637367Y-11945714D01*
X9637367Y-11945714D02*
X9656415Y-11936190D01*
X9656415Y-11936190D02*
X9684986Y-11936190D01*
X9684986Y-11936190D02*
X9704034Y-11945714D01*
X9780224Y-12145714D02*
X9789748Y-12136190D01*
X9789748Y-12136190D02*
X9808796Y-12107619D01*
X9808796Y-12107619D02*
X9818319Y-12088571D01*
X9818319Y-12088571D02*
X9827843Y-12060000D01*
X9827843Y-12060000D02*
X9837367Y-12012381D01*
X9837367Y-12012381D02*
X9837367Y-11974286D01*
X9837367Y-11974286D02*
X9827843Y-11926667D01*
X9827843Y-11926667D02*
X9818319Y-11898095D01*
X9818319Y-11898095D02*
X9808796Y-11879048D01*
X9808796Y-11879048D02*
X9789748Y-11850476D01*
X9789748Y-11850476D02*
X9780224Y-11840952D01*
M02*
