%TF.GenerationSoftware,KiCad,Pcbnew,7.0.1*%
%TF.CreationDate,2024-03-23T22:37:20-05:00*%
%TF.ProjectId,Chassis,43686173-7369-4732-9e6b-696361645f70,rev?*%
%TF.SameCoordinates,Original*%
%TF.FileFunction,Soldermask,Top*%
%TF.FilePolarity,Negative*%
%FSLAX46Y46*%
G04 Gerber Fmt 4.6, Leading zero omitted, Abs format (unit mm)*
G04 Created by KiCad (PCBNEW 7.0.1) date 2024-03-23 22:37:20*
%MOMM*%
%LPD*%
G01*
G04 APERTURE LIST*
G04 Aperture macros list*
%AMRoundRect*
0 Rectangle with rounded corners*
0 $1 Rounding radius*
0 $2 $3 $4 $5 $6 $7 $8 $9 X,Y pos of 4 corners*
0 Add a 4 corners polygon primitive as box body*
4,1,4,$2,$3,$4,$5,$6,$7,$8,$9,$2,$3,0*
0 Add four circle primitives for the rounded corners*
1,1,$1+$1,$2,$3*
1,1,$1+$1,$4,$5*
1,1,$1+$1,$6,$7*
1,1,$1+$1,$8,$9*
0 Add four rect primitives between the rounded corners*
20,1,$1+$1,$2,$3,$4,$5,0*
20,1,$1+$1,$4,$5,$6,$7,0*
20,1,$1+$1,$6,$7,$8,$9,0*
20,1,$1+$1,$8,$9,$2,$3,0*%
%AMRotRect*
0 Rectangle, with rotation*
0 The origin of the aperture is its center*
0 $1 length*
0 $2 width*
0 $3 Rotation angle, in degrees counterclockwise*
0 Add horizontal line*
21,1,$1,$2,0,0,$3*%
G04 Aperture macros list end*
%ADD10R,3.800000X3.800000*%
%ADD11C,4.000000*%
%ADD12RoundRect,0.150000X0.700000X-0.150000X0.700000X0.150000X-0.700000X0.150000X-0.700000X-0.150000X0*%
%ADD13RoundRect,0.250000X1.150000X-0.250000X1.150000X0.250000X-1.150000X0.250000X-1.150000X-0.250000X0*%
%ADD14RotRect,3.800000X3.800000X315.000000*%
%ADD15RotRect,3.800000X3.800000X135.000000*%
%ADD16RoundRect,0.150000X-0.700000X0.150000X-0.700000X-0.150000X0.700000X-0.150000X0.700000X0.150000X0*%
%ADD17RoundRect,0.250000X-1.150000X0.250000X-1.150000X-0.250000X1.150000X-0.250000X1.150000X0.250000X0*%
%ADD18C,3.200000*%
%ADD19RoundRect,0.237500X0.237500X-0.287500X0.237500X0.287500X-0.237500X0.287500X-0.237500X-0.287500X0*%
%ADD20RoundRect,0.237500X0.237500X-0.250000X0.237500X0.250000X-0.237500X0.250000X-0.237500X-0.250000X0*%
%ADD21RoundRect,0.237500X-0.250000X-0.237500X0.250000X-0.237500X0.250000X0.237500X-0.250000X0.237500X0*%
%ADD22RoundRect,0.225000X0.225000X0.375000X-0.225000X0.375000X-0.225000X-0.375000X0.225000X-0.375000X0*%
%ADD23RoundRect,0.125000X-0.125000X0.125000X-0.125000X-0.125000X0.125000X-0.125000X0.125000X0.125000X0*%
%ADD24RoundRect,0.237500X-0.237500X0.287500X-0.237500X-0.287500X0.237500X-0.287500X0.237500X0.287500X0*%
%ADD25RoundRect,0.237500X-0.300000X-0.237500X0.300000X-0.237500X0.300000X0.237500X-0.300000X0.237500X0*%
%ADD26R,1.520000X1.520000*%
%ADD27C,1.520000*%
%ADD28RoundRect,0.237500X0.300000X0.237500X-0.300000X0.237500X-0.300000X-0.237500X0.300000X-0.237500X0*%
%ADD29RoundRect,0.150000X0.388909X-0.601041X0.601041X-0.388909X-0.388909X0.601041X-0.601041X0.388909X0*%
%ADD30RoundRect,0.250000X0.636396X-0.989949X0.989949X-0.636396X-0.636396X0.989949X-0.989949X0.636396X0*%
%ADD31RotRect,3.800000X3.800000X45.000000*%
%ADD32RoundRect,0.150000X-0.150000X-0.700000X0.150000X-0.700000X0.150000X0.700000X-0.150000X0.700000X0*%
%ADD33RoundRect,0.250000X-0.250000X-1.150000X0.250000X-1.150000X0.250000X1.150000X-0.250000X1.150000X0*%
%ADD34R,2.000000X2.000000*%
%ADD35RoundRect,0.237500X-0.237500X0.250000X-0.237500X-0.250000X0.237500X-0.250000X0.237500X0.250000X0*%
%ADD36RoundRect,0.237500X-0.237500X0.300000X-0.237500X-0.300000X0.237500X-0.300000X0.237500X0.300000X0*%
%ADD37R,1.200000X1.200000*%
%ADD38RotRect,3.800000X3.800000X225.000000*%
%ADD39R,0.700000X1.522000*%
%ADD40R,2.300000X2.300000*%
%ADD41RoundRect,0.150000X0.601041X0.388909X0.388909X0.601041X-0.601041X-0.388909X-0.388909X-0.601041X0*%
%ADD42RoundRect,0.250000X0.989949X0.636396X0.636396X0.989949X-0.989949X-0.636396X-0.636396X-0.989949X0*%
%ADD43RoundRect,0.150000X-0.601041X-0.388909X-0.388909X-0.601041X0.601041X0.388909X0.388909X0.601041X0*%
%ADD44RoundRect,0.250000X-0.989949X-0.636396X-0.636396X-0.989949X0.989949X0.636396X0.636396X0.989949X0*%
%ADD45RoundRect,0.150000X0.150000X0.700000X-0.150000X0.700000X-0.150000X-0.700000X0.150000X-0.700000X0*%
%ADD46RoundRect,0.250000X0.250000X1.150000X-0.250000X1.150000X-0.250000X-1.150000X0.250000X-1.150000X0*%
%ADD47R,1.550000X5.600000*%
%ADD48RoundRect,0.250000X-0.337500X-0.475000X0.337500X-0.475000X0.337500X0.475000X-0.337500X0.475000X0*%
%ADD49R,1.250000X0.600000*%
%ADD50R,2.140000X1.490000*%
%ADD51RoundRect,0.237500X0.237500X-0.300000X0.237500X0.300000X-0.237500X0.300000X-0.237500X-0.300000X0*%
%ADD52RoundRect,0.237500X0.250000X0.237500X-0.250000X0.237500X-0.250000X-0.237500X0.250000X-0.237500X0*%
%ADD53R,3.500000X1.300000*%
%ADD54RoundRect,0.150000X-0.388909X0.601041X-0.601041X0.388909X0.388909X-0.601041X0.601041X-0.388909X0*%
%ADD55RoundRect,0.250000X-0.636396X0.989949X-0.989949X0.636396X0.636396X-0.989949X0.989949X-0.636396X0*%
G04 APERTURE END LIST*
D10*
X58700000Y-49750000D03*
D11*
X53700000Y-49750000D03*
D12*
X56750000Y-81750000D03*
X56750000Y-80500000D03*
D13*
X53400000Y-83600000D03*
X53400000Y-78650000D03*
D10*
X79750000Y-99250000D03*
D11*
X84750000Y-99250000D03*
D14*
X53106466Y-90698466D03*
D11*
X56642000Y-94234000D03*
D15*
X123587534Y-40101534D03*
D11*
X120052000Y-36566000D03*
D16*
X51850000Y-57750000D03*
X51850000Y-59000000D03*
X51850000Y-60250000D03*
X51850000Y-61500000D03*
D17*
X55200000Y-55900000D03*
X55200000Y-63350000D03*
D12*
X83250000Y-51225000D03*
X83250000Y-49975000D03*
D13*
X79900000Y-53075000D03*
X79900000Y-48125000D03*
D18*
X124347000Y-29400000D03*
D19*
X68400000Y-76075000D03*
X68400000Y-74325000D03*
D20*
X63800000Y-76112500D03*
X63800000Y-74287500D03*
D18*
X52347000Y-101400000D03*
D20*
X84500000Y-93112500D03*
X84500000Y-91287500D03*
D21*
X76663500Y-92295000D03*
X78488500Y-92295000D03*
D22*
X90987200Y-89224400D03*
X87687200Y-89224400D03*
D23*
X74274000Y-91957000D03*
X74274000Y-94157000D03*
D24*
X64600000Y-45987999D03*
X64600000Y-47737999D03*
D20*
X111250000Y-55412500D03*
X111250000Y-53587500D03*
X111300000Y-64957500D03*
X111300000Y-63132500D03*
D25*
X76713501Y-94707999D03*
X78438501Y-94707999D03*
D26*
X95489998Y-52754000D03*
D27*
X95489998Y-56254001D03*
X95489998Y-59754001D03*
X95489998Y-63254002D03*
X90889997Y-52754000D03*
X90889997Y-56254001D03*
X90889997Y-59754001D03*
X90889997Y-63254002D03*
D28*
X71734000Y-92676000D03*
X70009000Y-92676000D03*
D29*
X63636768Y-32820800D03*
X64520652Y-31936916D03*
D30*
X59959813Y-31760140D03*
X63459992Y-28259961D03*
D31*
X53106466Y-40101534D03*
D11*
X56642000Y-36566000D03*
D10*
X122000000Y-74750000D03*
D11*
X117000000Y-74750000D03*
D32*
X94375000Y-40200000D03*
X95625000Y-40200000D03*
D33*
X92525000Y-36850000D03*
X97475000Y-36850000D03*
D34*
X64000000Y-78600000D03*
D35*
X64600000Y-49887500D03*
X64600000Y-51712500D03*
D24*
X84500000Y-86325000D03*
X84500000Y-88075000D03*
D36*
X99750000Y-90387500D03*
X99750000Y-92112500D03*
D10*
X122000000Y-64750000D03*
D11*
X117000000Y-64750000D03*
D37*
X58750000Y-42600000D03*
X58750000Y-45400000D03*
D38*
X123587534Y-90698466D03*
D11*
X120052000Y-94234000D03*
D19*
X55500000Y-45375000D03*
X55500000Y-43625000D03*
D10*
X122000000Y-54750000D03*
D11*
X117000000Y-54750000D03*
D35*
X100639200Y-86256400D03*
X100639200Y-88081400D03*
D39*
X74401000Y-89801999D03*
X75671000Y-89801999D03*
X76941000Y-89801999D03*
X78211000Y-89801999D03*
X78211000Y-84373999D03*
X76941000Y-84373999D03*
X75671000Y-84373999D03*
X74401000Y-84373999D03*
D40*
X76306000Y-87087999D03*
D41*
X64520652Y-99354936D03*
X63636768Y-98471052D03*
D42*
X63459992Y-103031891D03*
X59959813Y-99531712D03*
D20*
X111200000Y-75625000D03*
X111200000Y-73800000D03*
D43*
X112173348Y-31445064D03*
X113057232Y-32328948D03*
D44*
X113234008Y-27768109D03*
X116734187Y-31268288D03*
D45*
X98625000Y-69550000D03*
X97375000Y-69550000D03*
D46*
X100475000Y-72900000D03*
X95525000Y-72900000D03*
D16*
X111550000Y-83375000D03*
X111550000Y-84625000D03*
X111550000Y-85875000D03*
X111550000Y-87125000D03*
D17*
X114900000Y-81525000D03*
X114900000Y-88975000D03*
D18*
X52347000Y-29400000D03*
D34*
X90225200Y-94431400D03*
D47*
X70337000Y-87596000D03*
X66287000Y-87596000D03*
D28*
X90833700Y-86278000D03*
X89108700Y-86278000D03*
D32*
X75875000Y-40200000D03*
X77125000Y-40200000D03*
D33*
X74025000Y-36850000D03*
X78975000Y-36850000D03*
D48*
X66462500Y-78362999D03*
X68537500Y-78362999D03*
D49*
X95900200Y-88208400D03*
X95900200Y-87258400D03*
X95900200Y-86308400D03*
X93400200Y-86308400D03*
X93400200Y-87258400D03*
X93400200Y-88208400D03*
D50*
X72750000Y-81500000D03*
X72750000Y-77050000D03*
D18*
X124347000Y-101400000D03*
D19*
X108250000Y-64875000D03*
X108250000Y-63125000D03*
D12*
X73650000Y-47925000D03*
X73650000Y-46675000D03*
D13*
X70300000Y-49775000D03*
X70300000Y-44825000D03*
D16*
X77750000Y-68375000D03*
X77750000Y-69625000D03*
X77750000Y-70875000D03*
X77750000Y-72125000D03*
D17*
X81100000Y-66525000D03*
X81100000Y-73975000D03*
D51*
X78592000Y-81600499D03*
X78592000Y-79875499D03*
D10*
X98000000Y-30000000D03*
D11*
X93000000Y-30000000D03*
D16*
X77750000Y-57750000D03*
X77750000Y-59000000D03*
X77750000Y-60250000D03*
X77750000Y-61500000D03*
D17*
X81100000Y-55900000D03*
X81100000Y-63350000D03*
D51*
X76306000Y-81600499D03*
X76306000Y-79875499D03*
D34*
X59626000Y-79666000D03*
D28*
X90960700Y-92145400D03*
X89235700Y-92145400D03*
D48*
X66462500Y-81500000D03*
X68537500Y-81500000D03*
D34*
X59626000Y-82714000D03*
D35*
X98353200Y-86279900D03*
X98353200Y-88104900D03*
D34*
X62750000Y-42500000D03*
D16*
X51850000Y-68375000D03*
X51850000Y-69625000D03*
X51850000Y-70875000D03*
X51850000Y-72125000D03*
D17*
X55200000Y-66525000D03*
X55200000Y-73975000D03*
D10*
X79500000Y-30000000D03*
D11*
X74500000Y-30000000D03*
D19*
X108200001Y-75587500D03*
X108200001Y-73837500D03*
D16*
X86800000Y-72375000D03*
X86800000Y-73625000D03*
X86800000Y-74875000D03*
X86800000Y-76125000D03*
D17*
X90150000Y-70525000D03*
X90150000Y-77975000D03*
D19*
X108250000Y-55375000D03*
X108250000Y-53625000D03*
D52*
X92912500Y-83400000D03*
X91087500Y-83400000D03*
D53*
X95250000Y-91400000D03*
X95250000Y-93600000D03*
D54*
X113057232Y-98471052D03*
X112173348Y-99354936D03*
D55*
X116734187Y-99531712D03*
X113234008Y-103031891D03*
D20*
X80624000Y-89778499D03*
X80624000Y-87953499D03*
M02*
