G04 #@! TF.GenerationSoftware,KiCad,Pcbnew,8.0.5*
G04 #@! TF.CreationDate,2025-02-21T17:38:32-06:00*
G04 #@! TF.ProjectId,ArmorPlate,41726d6f-7250-46c6-9174-652e6b696361,rev?*
G04 #@! TF.SameCoordinates,Original*
G04 #@! TF.FileFunction,Copper,L1,Top*
G04 #@! TF.FilePolarity,Positive*
%FSLAX46Y46*%
G04 Gerber Fmt 4.6, Leading zero omitted, Abs format (unit mm)*
G04 Created by KiCad (PCBNEW 8.0.5) date 2025-02-21 17:38:32*
%MOMM*%
%LPD*%
G01*
G04 APERTURE LIST*
G04 Aperture macros list*
%AMRoundRect*
0 Rectangle with rounded corners*
0 $1 Rounding radius*
0 $2 $3 $4 $5 $6 $7 $8 $9 X,Y pos of 4 corners*
0 Add a 4 corners polygon primitive as box body*
4,1,4,$2,$3,$4,$5,$6,$7,$8,$9,$2,$3,0*
0 Add four circle primitives for the rounded corners*
1,1,$1+$1,$2,$3*
1,1,$1+$1,$4,$5*
1,1,$1+$1,$6,$7*
1,1,$1+$1,$8,$9*
0 Add four rect primitives between the rounded corners*
20,1,$1+$1,$2,$3,$4,$5,0*
20,1,$1+$1,$4,$5,$6,$7,0*
20,1,$1+$1,$6,$7,$8,$9,0*
20,1,$1+$1,$8,$9,$2,$3,0*%
G04 Aperture macros list end*
G04 #@! TA.AperFunction,SMDPad,CuDef*
%ADD10RoundRect,0.237500X0.250000X0.237500X-0.250000X0.237500X-0.250000X-0.237500X0.250000X-0.237500X0*%
G04 #@! TD*
G04 #@! TA.AperFunction,SMDPad,CuDef*
%ADD11R,0.700000X1.500000*%
G04 #@! TD*
G04 #@! TA.AperFunction,SMDPad,CuDef*
%ADD12R,1.000000X0.800000*%
G04 #@! TD*
G04 #@! TA.AperFunction,SMDPad,CuDef*
%ADD13RoundRect,0.237500X-0.250000X-0.237500X0.250000X-0.237500X0.250000X0.237500X-0.250000X0.237500X0*%
G04 #@! TD*
G04 #@! TA.AperFunction,SMDPad,CuDef*
%ADD14RoundRect,0.237500X0.287500X0.237500X-0.287500X0.237500X-0.287500X-0.237500X0.287500X-0.237500X0*%
G04 #@! TD*
G04 #@! TA.AperFunction,SMDPad,CuDef*
%ADD15RoundRect,0.237500X-0.287500X-0.237500X0.287500X-0.237500X0.287500X0.237500X-0.287500X0.237500X0*%
G04 #@! TD*
G04 #@! TA.AperFunction,ComponentPad*
%ADD16R,2.000000X2.000000*%
G04 #@! TD*
G04 #@! TA.AperFunction,ComponentPad*
%ADD17C,2.000000*%
G04 #@! TD*
G04 #@! TA.AperFunction,Conductor*
%ADD18C,0.300000*%
G04 #@! TD*
G04 #@! TA.AperFunction,Conductor*
%ADD19C,0.200000*%
G04 #@! TD*
G04 APERTURE END LIST*
D10*
X97845000Y-97345559D03*
X96020000Y-97345559D03*
D11*
X145630000Y-115090000D03*
X147130000Y-115090000D03*
X150130000Y-115090000D03*
X151630000Y-115090000D03*
D12*
X143480000Y-115790000D03*
X143480000Y-117630000D03*
X153780000Y-117890000D03*
X153780000Y-115790000D03*
D13*
X202205000Y-96976663D03*
X204030000Y-96976663D03*
D14*
X88780000Y-88503337D03*
X87030000Y-88503337D03*
D10*
X97845000Y-92740000D03*
X96020000Y-92740000D03*
D15*
X211270000Y-79476663D03*
X213020000Y-79476663D03*
D13*
X202205000Y-101476663D03*
X204030000Y-101476663D03*
D10*
X97845000Y-88503337D03*
X96020000Y-88503337D03*
X97845000Y-79740000D03*
X96020000Y-79740000D03*
D15*
X211270000Y-96976663D03*
X213020000Y-96976663D03*
D14*
X88780000Y-115030004D03*
X87030000Y-115030004D03*
X88780000Y-101766670D03*
X87030000Y-101766670D03*
X88780000Y-106187781D03*
X87030000Y-106187781D03*
D15*
X211270000Y-114766667D03*
X213020000Y-114766667D03*
D10*
X97845000Y-75240004D03*
X96020000Y-75240004D03*
X97845000Y-106187781D03*
X96020000Y-106187781D03*
X97845000Y-101766670D03*
X96020000Y-101766670D03*
D15*
X211270000Y-83818889D03*
X213020000Y-83818889D03*
D13*
X202205000Y-88240000D03*
X204030000Y-88240000D03*
D15*
X211270000Y-101476663D03*
X213020000Y-101476663D03*
X211270000Y-92476663D03*
X213020000Y-92476663D03*
D13*
X202232500Y-114766667D03*
X204057500Y-114766667D03*
D14*
X88780000Y-84082226D03*
X87030000Y-84082226D03*
D13*
X202205000Y-79476663D03*
X204030000Y-79476663D03*
D14*
X88780000Y-75240004D03*
X87030000Y-75240004D03*
D15*
X211270000Y-88240000D03*
X213020000Y-88240000D03*
X211270000Y-110345555D03*
X213020000Y-110345555D03*
D13*
X202205000Y-83818889D03*
X204030000Y-83818889D03*
D15*
X211270000Y-105924444D03*
X213020000Y-105924444D03*
X211270000Y-74976663D03*
X213020000Y-74976663D03*
D14*
X88780000Y-79740000D03*
X87030000Y-79740000D03*
D13*
X202205000Y-105924444D03*
X204030000Y-105924444D03*
D10*
X97845000Y-115030004D03*
X96020000Y-115030004D03*
D13*
X202205000Y-74976663D03*
X204030000Y-74976663D03*
X202205000Y-92476663D03*
X204030000Y-92476663D03*
D14*
X88780000Y-92740000D03*
X87030000Y-92740000D03*
X88780000Y-97345559D03*
X87030000Y-97345559D03*
D10*
X97845000Y-84082226D03*
X96020000Y-84082226D03*
D14*
X88780000Y-110608892D03*
X87030000Y-110608892D03*
D10*
X97845000Y-110608892D03*
X96020000Y-110608892D03*
D13*
X202205000Y-110345555D03*
X204030000Y-110345555D03*
D16*
X176300000Y-77650000D03*
D17*
X176300000Y-90350000D03*
D18*
X177800000Y-83820000D02*
X177800000Y-82550000D01*
X171450000Y-90170000D02*
X177800000Y-83820000D01*
X177800000Y-82550000D02*
X177800000Y-74930000D01*
X171450000Y-107950000D02*
X171450000Y-90170000D01*
X183240000Y-119740000D02*
X171450000Y-107950000D01*
X145630000Y-88612893D02*
X145630000Y-115090000D01*
X176530000Y-73660000D02*
X160582893Y-73660000D01*
X160582893Y-73660000D02*
X145630000Y-88612893D01*
X177800000Y-74930000D02*
X176530000Y-73660000D01*
X207659099Y-119740000D02*
X183240000Y-119740000D01*
X212145000Y-115254099D02*
X207659099Y-119740000D01*
X212145000Y-113891667D02*
X212145000Y-115254099D01*
D19*
X150130000Y-103820000D02*
X150130000Y-115090000D01*
X176300000Y-77650000D02*
X150130000Y-103820000D01*
D18*
X213360000Y-123190000D02*
X157080000Y-123190000D01*
X214630000Y-111955555D02*
X214630000Y-121920000D01*
X213020000Y-110345555D02*
X214630000Y-111955555D01*
X214630000Y-121920000D02*
X213360000Y-123190000D01*
X157080000Y-123190000D02*
X151980000Y-118090000D01*
X88780000Y-75240004D02*
X96020000Y-75240004D01*
X148150000Y-121920000D02*
X151980000Y-118090000D01*
X213020000Y-83818889D02*
X213098889Y-83818889D01*
X151980000Y-115440000D02*
X151630000Y-115090000D01*
X214020000Y-91476663D02*
X213020000Y-92476663D01*
X87030000Y-101766670D02*
X85520000Y-103276670D01*
X85520000Y-85592226D02*
X85520000Y-91230000D01*
X213895000Y-102351663D02*
X213895000Y-109470555D01*
X87030000Y-84082226D02*
X85520000Y-85592226D01*
X85520000Y-109098892D02*
X87030000Y-110608892D01*
X85520000Y-76750004D02*
X85520000Y-82572226D01*
X87030000Y-75240004D02*
X85520000Y-76750004D01*
X213895000Y-93351663D02*
X213895000Y-100601663D01*
X87030000Y-92740000D02*
X87030000Y-93230000D01*
X214020000Y-84740000D02*
X214020000Y-91476663D01*
X213020000Y-74976663D02*
X213895000Y-75851663D01*
X85520000Y-94740000D02*
X85520000Y-100256670D01*
X213098889Y-83818889D02*
X214020000Y-84740000D01*
X85520000Y-91230000D02*
X87030000Y-92740000D01*
X87030000Y-110608892D02*
X86155000Y-111483892D01*
X85520000Y-103276670D02*
X85520000Y-109098892D01*
X85520000Y-82572226D02*
X87030000Y-84082226D01*
X86155000Y-111483892D02*
X86155000Y-116635000D01*
X151980000Y-115570000D02*
X151980000Y-115440000D01*
X213895000Y-82943889D02*
X213020000Y-83818889D01*
X213895000Y-100601663D02*
X213020000Y-101476663D01*
X213895000Y-75851663D02*
X213895000Y-82943889D01*
X151980000Y-118090000D02*
X151980000Y-115570000D01*
X213020000Y-92476663D02*
X213895000Y-93351663D01*
X213895000Y-109470555D02*
X213020000Y-110345555D01*
X86155000Y-116635000D02*
X91440000Y-121920000D01*
X85520000Y-100256670D02*
X87030000Y-101766670D01*
X91440000Y-121920000D02*
X148150000Y-121920000D01*
X87030000Y-93230000D02*
X85520000Y-94740000D01*
X213020000Y-101476663D02*
X213895000Y-102351663D01*
X88780000Y-84082226D02*
X96020000Y-84082226D01*
X88780000Y-92740000D02*
X96020000Y-92740000D01*
X88780000Y-101766670D02*
X96020000Y-101766670D01*
X88780000Y-110608892D02*
X96020000Y-110608892D01*
X212145000Y-89115000D02*
X212145000Y-96101663D01*
X87905000Y-80615000D02*
X87905000Y-87628337D01*
X87030000Y-97345559D02*
X87905000Y-98220559D01*
X87905000Y-87628337D02*
X87030000Y-88503337D01*
X212145000Y-105049444D02*
X213020000Y-105924444D01*
X213020000Y-96976663D02*
X212145000Y-97851663D01*
X87905000Y-105312781D02*
X87030000Y-106187781D01*
X87030000Y-79740000D02*
X87905000Y-80615000D01*
X212145000Y-80351663D02*
X212145000Y-87365000D01*
X88539996Y-116540000D02*
X144180000Y-116540000D01*
X87030000Y-88503337D02*
X87905000Y-89378337D01*
X87905000Y-107062781D02*
X87905000Y-114155004D01*
X144180000Y-116540000D02*
X145630000Y-115090000D01*
X87905000Y-89378337D02*
X87905000Y-96470559D01*
X87905000Y-98220559D02*
X87905000Y-105312781D01*
X212145000Y-96101663D02*
X213020000Y-96976663D01*
X87905000Y-96470559D02*
X87030000Y-97345559D01*
X87030000Y-115030004D02*
X88539996Y-116540000D01*
X212145000Y-97851663D02*
X212145000Y-105049444D01*
X212145000Y-106799444D02*
X212145000Y-113891667D01*
X212145000Y-113891667D02*
X213020000Y-114766667D01*
X213020000Y-88240000D02*
X212145000Y-89115000D01*
X87030000Y-106187781D02*
X87905000Y-107062781D01*
X212145000Y-87365000D02*
X213020000Y-88240000D01*
X213020000Y-79476663D02*
X212145000Y-80351663D01*
X213020000Y-105924444D02*
X212145000Y-106799444D01*
X87905000Y-114155004D02*
X87030000Y-115030004D01*
X88780000Y-79740000D02*
X96020000Y-79740000D01*
X88780000Y-88503337D02*
X96020000Y-88503337D01*
X88780000Y-97345559D02*
X96020000Y-97345559D01*
X88780000Y-106187781D02*
X96020000Y-106187781D01*
X88780000Y-115030004D02*
X96020000Y-115030004D01*
X204030000Y-74976663D02*
X211270000Y-74976663D01*
X204030000Y-83818889D02*
X211270000Y-83818889D01*
X204030000Y-92476663D02*
X211270000Y-92476663D01*
X204030000Y-101476663D02*
X211270000Y-101476663D01*
X204030000Y-110345555D02*
X211270000Y-110345555D01*
X204030000Y-79476663D02*
X211270000Y-79476663D01*
X204030000Y-88240000D02*
X211270000Y-88240000D01*
X204030000Y-96976663D02*
X211270000Y-96976663D01*
X204030000Y-105924444D02*
X211270000Y-105924444D01*
X204057500Y-114766667D02*
X211270000Y-114766667D01*
G04 #@! TA.AperFunction,Conductor*
G36*
X213052855Y-30675632D02*
G01*
X213413310Y-30692296D01*
X213424700Y-30693352D01*
X213779238Y-30742808D01*
X213790482Y-30744910D01*
X214138944Y-30826867D01*
X214149934Y-30829994D01*
X214489368Y-30943761D01*
X214500022Y-30947889D01*
X214827488Y-31092479D01*
X214837735Y-31097581D01*
X215150452Y-31271765D01*
X215160190Y-31277794D01*
X215455512Y-31480093D01*
X215464652Y-31486996D01*
X215740035Y-31715671D01*
X215748499Y-31723387D01*
X216001612Y-31976500D01*
X216009328Y-31984964D01*
X216238003Y-32260347D01*
X216244906Y-32269487D01*
X216447205Y-32564809D01*
X216453234Y-32574547D01*
X216627418Y-32887264D01*
X216632523Y-32897517D01*
X216777105Y-33224964D01*
X216781243Y-33235644D01*
X216895001Y-33575052D01*
X216898135Y-33586068D01*
X216980087Y-33934509D01*
X216982192Y-33945768D01*
X217031646Y-34300292D01*
X217032703Y-34311696D01*
X217049368Y-34672144D01*
X217049500Y-34677871D01*
X217049500Y-150742128D01*
X217049368Y-150747855D01*
X217032703Y-151108303D01*
X217031646Y-151119707D01*
X216982192Y-151474231D01*
X216980087Y-151485490D01*
X216898135Y-151833931D01*
X216895001Y-151844947D01*
X216781243Y-152184355D01*
X216777105Y-152195035D01*
X216632523Y-152522482D01*
X216627418Y-152532735D01*
X216453234Y-152845452D01*
X216447205Y-152855190D01*
X216244906Y-153150512D01*
X216238003Y-153159652D01*
X216009328Y-153435035D01*
X216001612Y-153443499D01*
X215748499Y-153696612D01*
X215740035Y-153704328D01*
X215464652Y-153933003D01*
X215455512Y-153939906D01*
X215160190Y-154142205D01*
X215150452Y-154148234D01*
X214837735Y-154322418D01*
X214827482Y-154327523D01*
X214500035Y-154472105D01*
X214489355Y-154476243D01*
X214149947Y-154590001D01*
X214138931Y-154593135D01*
X213790490Y-154675087D01*
X213779231Y-154677192D01*
X213424707Y-154726646D01*
X213413303Y-154727703D01*
X213052855Y-154744368D01*
X213047128Y-154744500D01*
X87052872Y-154744500D01*
X87047145Y-154744368D01*
X86686696Y-154727703D01*
X86675292Y-154726646D01*
X86320768Y-154677192D01*
X86309509Y-154675087D01*
X85961068Y-154593135D01*
X85950052Y-154590001D01*
X85610644Y-154476243D01*
X85599964Y-154472105D01*
X85272517Y-154327523D01*
X85262264Y-154322418D01*
X84949547Y-154148234D01*
X84939809Y-154142205D01*
X84644487Y-153939906D01*
X84635347Y-153933003D01*
X84359964Y-153704328D01*
X84351500Y-153696612D01*
X84098387Y-153443499D01*
X84090671Y-153435035D01*
X83861994Y-153159649D01*
X83855093Y-153150512D01*
X83652794Y-152855190D01*
X83646765Y-152845452D01*
X83557283Y-152684803D01*
X83472579Y-152532731D01*
X83467476Y-152522482D01*
X83322889Y-152195022D01*
X83318761Y-152184368D01*
X83204994Y-151844934D01*
X83201867Y-151833944D01*
X83119910Y-151485482D01*
X83117807Y-151474231D01*
X83068353Y-151119707D01*
X83067296Y-151108303D01*
X83050632Y-150747855D01*
X83050500Y-150742128D01*
X83050500Y-144559568D01*
X100049500Y-144559568D01*
X100049500Y-144840431D01*
X100080942Y-145119494D01*
X100080945Y-145119512D01*
X100143439Y-145393317D01*
X100143443Y-145393329D01*
X100236200Y-145658411D01*
X100358053Y-145911442D01*
X100358055Y-145911445D01*
X100507477Y-146149248D01*
X100682584Y-146368825D01*
X100881175Y-146567416D01*
X101100752Y-146742523D01*
X101338555Y-146891945D01*
X101591592Y-147013801D01*
X101790680Y-147083465D01*
X101856670Y-147106556D01*
X101856682Y-147106560D01*
X102130491Y-147169055D01*
X102130497Y-147169055D01*
X102130505Y-147169057D01*
X102316547Y-147190018D01*
X102409569Y-147200499D01*
X102409572Y-147200500D01*
X102409575Y-147200500D01*
X102690428Y-147200500D01*
X102690429Y-147200499D01*
X102833055Y-147184429D01*
X102969494Y-147169057D01*
X102969499Y-147169056D01*
X102969509Y-147169055D01*
X103243318Y-147106560D01*
X103508408Y-147013801D01*
X103761445Y-146891945D01*
X103999248Y-146742523D01*
X104218825Y-146567416D01*
X104417416Y-146368825D01*
X104592523Y-146149248D01*
X104741945Y-145911445D01*
X104863801Y-145658408D01*
X104956560Y-145393318D01*
X105019055Y-145119509D01*
X105050500Y-144840425D01*
X105050500Y-144559575D01*
X105050499Y-144559568D01*
X194449500Y-144559568D01*
X194449500Y-144840431D01*
X194480942Y-145119494D01*
X194480945Y-145119512D01*
X194543439Y-145393317D01*
X194543443Y-145393329D01*
X194636200Y-145658411D01*
X194758053Y-145911442D01*
X194758055Y-145911445D01*
X194907477Y-146149248D01*
X195082584Y-146368825D01*
X195281175Y-146567416D01*
X195500752Y-146742523D01*
X195738555Y-146891945D01*
X195991592Y-147013801D01*
X196190680Y-147083465D01*
X196256670Y-147106556D01*
X196256682Y-147106560D01*
X196530491Y-147169055D01*
X196530497Y-147169055D01*
X196530505Y-147169057D01*
X196716547Y-147190018D01*
X196809569Y-147200499D01*
X196809572Y-147200500D01*
X196809575Y-147200500D01*
X197090428Y-147200500D01*
X197090429Y-147200499D01*
X197233055Y-147184429D01*
X197369494Y-147169057D01*
X197369499Y-147169056D01*
X197369509Y-147169055D01*
X197643318Y-147106560D01*
X197908408Y-147013801D01*
X198161445Y-146891945D01*
X198399248Y-146742523D01*
X198618825Y-146567416D01*
X198817416Y-146368825D01*
X198992523Y-146149248D01*
X199141945Y-145911445D01*
X199263801Y-145658408D01*
X199356560Y-145393318D01*
X199419055Y-145119509D01*
X199450500Y-144840425D01*
X199450500Y-144559575D01*
X199419055Y-144280491D01*
X199356560Y-144006682D01*
X199263801Y-143741592D01*
X199141945Y-143488555D01*
X198992523Y-143250752D01*
X198817416Y-143031175D01*
X198618825Y-142832584D01*
X198399248Y-142657477D01*
X198161445Y-142508055D01*
X198161442Y-142508053D01*
X197908411Y-142386200D01*
X197643329Y-142293443D01*
X197643317Y-142293439D01*
X197369512Y-142230945D01*
X197369494Y-142230942D01*
X197090431Y-142199500D01*
X197090425Y-142199500D01*
X196809575Y-142199500D01*
X196809568Y-142199500D01*
X196530505Y-142230942D01*
X196530487Y-142230945D01*
X196256682Y-142293439D01*
X196256670Y-142293443D01*
X195991588Y-142386200D01*
X195738557Y-142508053D01*
X195500753Y-142657476D01*
X195281175Y-142832583D01*
X195082583Y-143031175D01*
X194907476Y-143250753D01*
X194758053Y-143488557D01*
X194636200Y-143741588D01*
X194543443Y-144006670D01*
X194543439Y-144006682D01*
X194480945Y-144280487D01*
X194480942Y-144280505D01*
X194449500Y-144559568D01*
X105050499Y-144559568D01*
X105019055Y-144280491D01*
X104956560Y-144006682D01*
X104863801Y-143741592D01*
X104741945Y-143488555D01*
X104592523Y-143250752D01*
X104417416Y-143031175D01*
X104218825Y-142832584D01*
X103999248Y-142657477D01*
X103761445Y-142508055D01*
X103761442Y-142508053D01*
X103508411Y-142386200D01*
X103243329Y-142293443D01*
X103243317Y-142293439D01*
X102969512Y-142230945D01*
X102969494Y-142230942D01*
X102690431Y-142199500D01*
X102690425Y-142199500D01*
X102409575Y-142199500D01*
X102409568Y-142199500D01*
X102130505Y-142230942D01*
X102130487Y-142230945D01*
X101856682Y-142293439D01*
X101856670Y-142293443D01*
X101591588Y-142386200D01*
X101338557Y-142508053D01*
X101100753Y-142657476D01*
X100881175Y-142832583D01*
X100682583Y-143031175D01*
X100507476Y-143250753D01*
X100358053Y-143488557D01*
X100236200Y-143741588D01*
X100143443Y-144006670D01*
X100143439Y-144006682D01*
X100080945Y-144280487D01*
X100080942Y-144280505D01*
X100049500Y-144559568D01*
X83050500Y-144559568D01*
X83050500Y-82636297D01*
X84869499Y-82636297D01*
X84894497Y-82761964D01*
X84894499Y-82761970D01*
X84943535Y-82880353D01*
X85014723Y-82986895D01*
X85014726Y-82986899D01*
X85014727Y-82986900D01*
X85968181Y-83940353D01*
X86001666Y-84001676D01*
X86004500Y-84028034D01*
X86004500Y-84136417D01*
X85984815Y-84203456D01*
X85968181Y-84224098D01*
X85014727Y-85177551D01*
X85014726Y-85177552D01*
X84943534Y-85284100D01*
X84894499Y-85402481D01*
X84894497Y-85402487D01*
X84869500Y-85528154D01*
X84869500Y-91294070D01*
X84893076Y-91412588D01*
X84893076Y-91412597D01*
X84893078Y-91412597D01*
X84894499Y-91419745D01*
X84894500Y-91419747D01*
X84943533Y-91538125D01*
X84967243Y-91573609D01*
X85011937Y-91640500D01*
X85014726Y-91644673D01*
X85014727Y-91644674D01*
X85968181Y-92598127D01*
X86001666Y-92659450D01*
X86004500Y-92685808D01*
X86004500Y-93026669D01*
X86004501Y-93026687D01*
X86014825Y-93127752D01*
X86014827Y-93127759D01*
X86039917Y-93203476D01*
X86042319Y-93273304D01*
X86009892Y-93330160D01*
X85014726Y-94325326D01*
X84943534Y-94431874D01*
X84894499Y-94550255D01*
X84894497Y-94550261D01*
X84869500Y-94675928D01*
X84869500Y-94675931D01*
X84869500Y-100320739D01*
X84869500Y-100320741D01*
X84869499Y-100320741D01*
X84894497Y-100446408D01*
X84894499Y-100446414D01*
X84917383Y-100501662D01*
X84943535Y-100564797D01*
X85014723Y-100671339D01*
X85014726Y-100671343D01*
X85014727Y-100671344D01*
X85968181Y-101624797D01*
X86001666Y-101686120D01*
X86004500Y-101712478D01*
X86004500Y-101820861D01*
X85984815Y-101887900D01*
X85968181Y-101908542D01*
X85014727Y-102861995D01*
X85014724Y-102861998D01*
X84970538Y-102928127D01*
X84970539Y-102928128D01*
X84943534Y-102968544D01*
X84894499Y-103086925D01*
X84894497Y-103086931D01*
X84869500Y-103212598D01*
X84869500Y-103212601D01*
X84869500Y-109162961D01*
X84869500Y-109162963D01*
X84869499Y-109162963D01*
X84894497Y-109288630D01*
X84894499Y-109288636D01*
X84943535Y-109407019D01*
X85014723Y-109513561D01*
X85014726Y-109513565D01*
X85014727Y-109513566D01*
X85968181Y-110467019D01*
X86001666Y-110528342D01*
X86004500Y-110554700D01*
X86004500Y-110663083D01*
X85984815Y-110730122D01*
X85968181Y-110750764D01*
X85649722Y-111069223D01*
X85588796Y-111160406D01*
X85588797Y-111160407D01*
X85578533Y-111175767D01*
X85529499Y-111294147D01*
X85529497Y-111294153D01*
X85504500Y-111419820D01*
X85504500Y-111419823D01*
X85504500Y-116699069D01*
X85518810Y-116771007D01*
X85529499Y-116824744D01*
X85578535Y-116943127D01*
X85647408Y-117046204D01*
X85649726Y-117049673D01*
X91025326Y-122425273D01*
X91025329Y-122425275D01*
X91025331Y-122425277D01*
X91131873Y-122496465D01*
X91250256Y-122545501D01*
X91250260Y-122545501D01*
X91250261Y-122545502D01*
X91375928Y-122570500D01*
X91375931Y-122570500D01*
X148214071Y-122570500D01*
X148298615Y-122553682D01*
X148339744Y-122545501D01*
X148458127Y-122496465D01*
X148564669Y-122425277D01*
X151892319Y-119097625D01*
X151953642Y-119064141D01*
X152023334Y-119069125D01*
X152067681Y-119097626D01*
X156574724Y-123604669D01*
X156665327Y-123695272D01*
X156665332Y-123695277D01*
X156771866Y-123766461D01*
X156771872Y-123766464D01*
X156771873Y-123766465D01*
X156890256Y-123815501D01*
X156890260Y-123815501D01*
X156890261Y-123815502D01*
X157015928Y-123840500D01*
X157015931Y-123840500D01*
X213424071Y-123840500D01*
X213508615Y-123823682D01*
X213549744Y-123815501D01*
X213668127Y-123766465D01*
X213774669Y-123695277D01*
X215135276Y-122334669D01*
X215206465Y-122228127D01*
X215255501Y-122109744D01*
X215280500Y-121984069D01*
X215280500Y-111891486D01*
X215280500Y-111891483D01*
X215255502Y-111765816D01*
X215255501Y-111765815D01*
X215255501Y-111765811D01*
X215206465Y-111647428D01*
X215164346Y-111584392D01*
X215149811Y-111562639D01*
X215135279Y-111540888D01*
X214081818Y-110487427D01*
X214048333Y-110426104D01*
X214045499Y-110399746D01*
X214045499Y-110291363D01*
X214065184Y-110224324D01*
X214081813Y-110203686D01*
X214400277Y-109885224D01*
X214471465Y-109778682D01*
X214520501Y-109660299D01*
X214531666Y-109604168D01*
X214537184Y-109576431D01*
X214545500Y-109534625D01*
X214545500Y-102287591D01*
X214520502Y-102161924D01*
X214520501Y-102161923D01*
X214520501Y-102161919D01*
X214471465Y-102043536D01*
X214430308Y-101981940D01*
X214430306Y-101981937D01*
X214400279Y-101936996D01*
X214081818Y-101618535D01*
X214048333Y-101557212D01*
X214045499Y-101530854D01*
X214045499Y-101422471D01*
X214065184Y-101355432D01*
X214081813Y-101334794D01*
X214400277Y-101016332D01*
X214471465Y-100909790D01*
X214520501Y-100791407D01*
X214526361Y-100761946D01*
X214545500Y-100665732D01*
X214545500Y-93287594D01*
X214545500Y-93287591D01*
X214520502Y-93161924D01*
X214520501Y-93161923D01*
X214520501Y-93161919D01*
X214471465Y-93043536D01*
X214430308Y-92981940D01*
X214430306Y-92981937D01*
X214400279Y-92936996D01*
X214081818Y-92618535D01*
X214048333Y-92557212D01*
X214045499Y-92530854D01*
X214045499Y-92422471D01*
X214065184Y-92355432D01*
X214081818Y-92334790D01*
X214525272Y-91891337D01*
X214525272Y-91891336D01*
X214525277Y-91891332D01*
X214596466Y-91784789D01*
X214597314Y-91782743D01*
X214613023Y-91744815D01*
X214645501Y-91666406D01*
X214665522Y-91565756D01*
X214670500Y-91540734D01*
X214670500Y-84675928D01*
X214645502Y-84550260D01*
X214645500Y-84550254D01*
X214625189Y-84501221D01*
X214625187Y-84501216D01*
X214596468Y-84431878D01*
X214596462Y-84431868D01*
X214525278Y-84325332D01*
X214525272Y-84325325D01*
X214081818Y-83881871D01*
X214048333Y-83820548D01*
X214045499Y-83794190D01*
X214045499Y-83764697D01*
X214065184Y-83697658D01*
X214081813Y-83677020D01*
X214400277Y-83358558D01*
X214471465Y-83252016D01*
X214520501Y-83133633D01*
X214531666Y-83077502D01*
X214537184Y-83049765D01*
X214545500Y-83007959D01*
X214545500Y-75787591D01*
X214520502Y-75661924D01*
X214520501Y-75661923D01*
X214520501Y-75661919D01*
X214471465Y-75543536D01*
X214446695Y-75506465D01*
X214400277Y-75436994D01*
X214400275Y-75436992D01*
X214400273Y-75436989D01*
X214081818Y-75118534D01*
X214048333Y-75057211D01*
X214045499Y-75030853D01*
X214045499Y-74689993D01*
X214045498Y-74689976D01*
X214035174Y-74588910D01*
X214020279Y-74543961D01*
X213980908Y-74425147D01*
X213890340Y-74278313D01*
X213768350Y-74156323D01*
X213677129Y-74100058D01*
X213621518Y-74065756D01*
X213621513Y-74065754D01*
X213620069Y-74065275D01*
X213457753Y-74011489D01*
X213457751Y-74011488D01*
X213356678Y-74001163D01*
X212683330Y-74001163D01*
X212683312Y-74001164D01*
X212582247Y-74011488D01*
X212418484Y-74065755D01*
X212418481Y-74065756D01*
X212271648Y-74156324D01*
X212232681Y-74195292D01*
X212171358Y-74228777D01*
X212101666Y-74223793D01*
X212057319Y-74195292D01*
X212018351Y-74156324D01*
X212018350Y-74156323D01*
X211927129Y-74100058D01*
X211871518Y-74065756D01*
X211871513Y-74065754D01*
X211870069Y-74065275D01*
X211707753Y-74011489D01*
X211707751Y-74011488D01*
X211606678Y-74001163D01*
X210933330Y-74001163D01*
X210933312Y-74001164D01*
X210832247Y-74011488D01*
X210668484Y-74065755D01*
X210668481Y-74065756D01*
X210521648Y-74156324D01*
X210399655Y-74278317D01*
X210399055Y-74279077D01*
X210398510Y-74279462D01*
X210394553Y-74283420D01*
X210393876Y-74282743D01*
X210342032Y-74319452D01*
X210301792Y-74326163D01*
X204960708Y-74326163D01*
X204893669Y-74306478D01*
X204868084Y-74283282D01*
X204867947Y-74283420D01*
X204865147Y-74280620D01*
X204863445Y-74279077D01*
X204862844Y-74278317D01*
X204740851Y-74156324D01*
X204740850Y-74156323D01*
X204649629Y-74100058D01*
X204594018Y-74065756D01*
X204594013Y-74065754D01*
X204592569Y-74065275D01*
X204430253Y-74011489D01*
X204430251Y-74011488D01*
X204329178Y-74001163D01*
X203730830Y-74001163D01*
X203730812Y-74001164D01*
X203629747Y-74011488D01*
X203465984Y-74065755D01*
X203465981Y-74065756D01*
X203319151Y-74156322D01*
X203204827Y-74270646D01*
X203143504Y-74304130D01*
X203073812Y-74299146D01*
X203029465Y-74270645D01*
X202915538Y-74156718D01*
X202915534Y-74156715D01*
X202768811Y-74066214D01*
X202768800Y-74066209D01*
X202605152Y-74011982D01*
X202504154Y-74001663D01*
X202455000Y-74001663D01*
X202455000Y-75951662D01*
X202504140Y-75951662D01*
X202504154Y-75951661D01*
X202605152Y-75941343D01*
X202768800Y-75887116D01*
X202768811Y-75887111D01*
X202915533Y-75796611D01*
X203029464Y-75682680D01*
X203090787Y-75649195D01*
X203160479Y-75654179D01*
X203204827Y-75682680D01*
X203319150Y-75797003D01*
X203465984Y-75887571D01*
X203629747Y-75941837D01*
X203730823Y-75952163D01*
X204329176Y-75952162D01*
X204329184Y-75952161D01*
X204329187Y-75952161D01*
X204384530Y-75946507D01*
X204430253Y-75941837D01*
X204594016Y-75887571D01*
X204740850Y-75797003D01*
X204862840Y-75675013D01*
X204862841Y-75675010D01*
X204862844Y-75675008D01*
X204863445Y-75674249D01*
X204863989Y-75673863D01*
X204867947Y-75669906D01*
X204868623Y-75670582D01*
X204920468Y-75633874D01*
X204960708Y-75627163D01*
X210301792Y-75627163D01*
X210368831Y-75646848D01*
X210394415Y-75670043D01*
X210394553Y-75669906D01*
X210397352Y-75672705D01*
X210399055Y-75674249D01*
X210399655Y-75675008D01*
X210399660Y-75675013D01*
X210521650Y-75797003D01*
X210668484Y-75887571D01*
X210832247Y-75941837D01*
X210933323Y-75952163D01*
X211606676Y-75952162D01*
X211606684Y-75952161D01*
X211606687Y-75952161D01*
X211662030Y-75946507D01*
X211707753Y-75941837D01*
X211871516Y-75887571D01*
X212018350Y-75797003D01*
X212057319Y-75758034D01*
X212118642Y-75724549D01*
X212188334Y-75729533D01*
X212232681Y-75758034D01*
X212271650Y-75797003D01*
X212418484Y-75887571D01*
X212582247Y-75941837D01*
X212683323Y-75952163D01*
X213024191Y-75952162D01*
X213091230Y-75971846D01*
X213111872Y-75988481D01*
X213208181Y-76084790D01*
X213241666Y-76146113D01*
X213244500Y-76172471D01*
X213244500Y-78377163D01*
X213224815Y-78444202D01*
X213172011Y-78489957D01*
X213120500Y-78501163D01*
X212683330Y-78501163D01*
X212683312Y-78501164D01*
X212582247Y-78511488D01*
X212418484Y-78565755D01*
X212418481Y-78565756D01*
X212271648Y-78656324D01*
X212232681Y-78695292D01*
X212171358Y-78728777D01*
X212101666Y-78723793D01*
X212057319Y-78695292D01*
X212018351Y-78656324D01*
X212018350Y-78656323D01*
X211927129Y-78600058D01*
X211871518Y-78565756D01*
X211871513Y-78565754D01*
X211870069Y-78565275D01*
X211707753Y-78511489D01*
X211707751Y-78511488D01*
X211606678Y-78501163D01*
X210933330Y-78501163D01*
X210933312Y-78501164D01*
X210832247Y-78511488D01*
X210668484Y-78565755D01*
X210668481Y-78565756D01*
X210521648Y-78656324D01*
X210399655Y-78778317D01*
X210399055Y-78779077D01*
X210398510Y-78779462D01*
X210394553Y-78783420D01*
X210393876Y-78782743D01*
X210342032Y-78819452D01*
X210301792Y-78826163D01*
X204960708Y-78826163D01*
X204893669Y-78806478D01*
X204868084Y-78783282D01*
X204867947Y-78783420D01*
X204865147Y-78780620D01*
X204863445Y-78779077D01*
X204862844Y-78778317D01*
X204740851Y-78656324D01*
X204740850Y-78656323D01*
X204649629Y-78600058D01*
X204594018Y-78565756D01*
X204594013Y-78565754D01*
X204592569Y-78565275D01*
X204430253Y-78511489D01*
X204430251Y-78511488D01*
X204329178Y-78501163D01*
X203730830Y-78501163D01*
X203730812Y-78501164D01*
X203629747Y-78511488D01*
X203465984Y-78565755D01*
X203465981Y-78565756D01*
X203319151Y-78656322D01*
X203204827Y-78770646D01*
X203143504Y-78804130D01*
X203073812Y-78799146D01*
X203029465Y-78770645D01*
X202915538Y-78656718D01*
X202915534Y-78656715D01*
X202768811Y-78566214D01*
X202768800Y-78566209D01*
X202605152Y-78511982D01*
X202504154Y-78501663D01*
X202455000Y-78501663D01*
X202455000Y-80451662D01*
X202504140Y-80451662D01*
X202504154Y-80451661D01*
X202605152Y-80441343D01*
X202768800Y-80387116D01*
X202768811Y-80387111D01*
X202915533Y-80296611D01*
X203029464Y-80182680D01*
X203090787Y-80149195D01*
X203160479Y-80154179D01*
X203204827Y-80182680D01*
X203319150Y-80297003D01*
X203465984Y-80387571D01*
X203629747Y-80441837D01*
X203730823Y-80452163D01*
X204329176Y-80452162D01*
X204329184Y-80452161D01*
X204329187Y-80452161D01*
X204389333Y-80446017D01*
X204430253Y-80441837D01*
X204594016Y-80387571D01*
X204740850Y-80297003D01*
X204862840Y-80175013D01*
X204862841Y-80175010D01*
X204862844Y-80175008D01*
X204863445Y-80174249D01*
X204863989Y-80173863D01*
X204867947Y-80169906D01*
X204868623Y-80170582D01*
X204920468Y-80133874D01*
X204960708Y-80127163D01*
X210301792Y-80127163D01*
X210368831Y-80146848D01*
X210394415Y-80170043D01*
X210394553Y-80169906D01*
X210397352Y-80172705D01*
X210399055Y-80174249D01*
X210399655Y-80175008D01*
X210399660Y-80175013D01*
X210521650Y-80297003D01*
X210668484Y-80387571D01*
X210832247Y-80441837D01*
X210933323Y-80452163D01*
X211370500Y-80452162D01*
X211437539Y-80471846D01*
X211483294Y-80524650D01*
X211494500Y-80576162D01*
X211494500Y-82719389D01*
X211474815Y-82786428D01*
X211422011Y-82832183D01*
X211370500Y-82843389D01*
X210933330Y-82843389D01*
X210933312Y-82843390D01*
X210832247Y-82853714D01*
X210668484Y-82907981D01*
X210668481Y-82907982D01*
X210521648Y-82998550D01*
X210399655Y-83120543D01*
X210399055Y-83121303D01*
X210398510Y-83121688D01*
X210394553Y-83125646D01*
X210393876Y-83124969D01*
X210342032Y-83161678D01*
X210301792Y-83168389D01*
X204960708Y-83168389D01*
X204893669Y-83148704D01*
X204868084Y-83125508D01*
X204867947Y-83125646D01*
X204865147Y-83122846D01*
X204863445Y-83121303D01*
X204862844Y-83120543D01*
X204740851Y-82998550D01*
X204740850Y-82998549D01*
X204649629Y-82942284D01*
X204594018Y-82907982D01*
X204594013Y-82907980D01*
X204592569Y-82907501D01*
X204430253Y-82853715D01*
X204430251Y-82853714D01*
X204329178Y-82843389D01*
X203730830Y-82843389D01*
X203730812Y-82843390D01*
X203629747Y-82853714D01*
X203465984Y-82907981D01*
X203465981Y-82907982D01*
X203319151Y-82998548D01*
X203204827Y-83112872D01*
X203143504Y-83146356D01*
X203073812Y-83141372D01*
X203029465Y-83112871D01*
X202915538Y-82998944D01*
X202915534Y-82998941D01*
X202768811Y-82908440D01*
X202768800Y-82908435D01*
X202605152Y-82854208D01*
X202504154Y-82843889D01*
X202455000Y-82843889D01*
X202455000Y-84793888D01*
X202504140Y-84793888D01*
X202504154Y-84793887D01*
X202605152Y-84783569D01*
X202768800Y-84729342D01*
X202768811Y-84729337D01*
X202915533Y-84638837D01*
X203029464Y-84524906D01*
X203090787Y-84491421D01*
X203160479Y-84496405D01*
X203204827Y-84524906D01*
X203319150Y-84639229D01*
X203465984Y-84729797D01*
X203629747Y-84784063D01*
X203730823Y-84794389D01*
X204329176Y-84794388D01*
X204329184Y-84794387D01*
X204329187Y-84794387D01*
X204389333Y-84788243D01*
X204430253Y-84784063D01*
X204594016Y-84729797D01*
X204740850Y-84639229D01*
X204862840Y-84517239D01*
X204862841Y-84517236D01*
X204862844Y-84517234D01*
X204863445Y-84516475D01*
X204863989Y-84516089D01*
X204867947Y-84512132D01*
X204868623Y-84512808D01*
X204920468Y-84476100D01*
X204960708Y-84469389D01*
X210301792Y-84469389D01*
X210368831Y-84489074D01*
X210394415Y-84512269D01*
X210394553Y-84512132D01*
X210397352Y-84514931D01*
X210399055Y-84516475D01*
X210399655Y-84517234D01*
X210399660Y-84517239D01*
X210521650Y-84639229D01*
X210668484Y-84729797D01*
X210832247Y-84784063D01*
X210933323Y-84794389D01*
X211370500Y-84794388D01*
X211437539Y-84814072D01*
X211483294Y-84866876D01*
X211494500Y-84918388D01*
X211494500Y-87140500D01*
X211474815Y-87207539D01*
X211422011Y-87253294D01*
X211370500Y-87264500D01*
X210933330Y-87264500D01*
X210933312Y-87264501D01*
X210832247Y-87274825D01*
X210668484Y-87329092D01*
X210668481Y-87329093D01*
X210521648Y-87419661D01*
X210399655Y-87541654D01*
X210399055Y-87542414D01*
X210398510Y-87542799D01*
X210394553Y-87546757D01*
X210393876Y-87546080D01*
X210342032Y-87582789D01*
X210301792Y-87589500D01*
X204960708Y-87589500D01*
X204893669Y-87569815D01*
X204868084Y-87546619D01*
X204867947Y-87546757D01*
X204865147Y-87543957D01*
X204863445Y-87542414D01*
X204862844Y-87541654D01*
X204740851Y-87419661D01*
X204740850Y-87419660D01*
X204642328Y-87358891D01*
X204594018Y-87329093D01*
X204594013Y-87329091D01*
X204592569Y-87328612D01*
X204430253Y-87274826D01*
X204430251Y-87274825D01*
X204329178Y-87264500D01*
X203730830Y-87264500D01*
X203730812Y-87264501D01*
X203629747Y-87274825D01*
X203465984Y-87329092D01*
X203465981Y-87329093D01*
X203319151Y-87419659D01*
X203204827Y-87533983D01*
X203143504Y-87567467D01*
X203073812Y-87562483D01*
X203029465Y-87533982D01*
X202915538Y-87420055D01*
X202915534Y-87420052D01*
X202768811Y-87329551D01*
X202768800Y-87329546D01*
X202605152Y-87275319D01*
X202504154Y-87265000D01*
X202455000Y-87265000D01*
X202455000Y-89214999D01*
X202504140Y-89214999D01*
X202504154Y-89214998D01*
X202605152Y-89204680D01*
X202768800Y-89150453D01*
X202768811Y-89150448D01*
X202915533Y-89059948D01*
X203029464Y-88946017D01*
X203090787Y-88912532D01*
X203160479Y-88917516D01*
X203204827Y-88946017D01*
X203319150Y-89060340D01*
X203465984Y-89150908D01*
X203629747Y-89205174D01*
X203730823Y-89215500D01*
X204329176Y-89215499D01*
X204329184Y-89215498D01*
X204329187Y-89215498D01*
X204389333Y-89209354D01*
X204430253Y-89205174D01*
X204594016Y-89150908D01*
X204740850Y-89060340D01*
X204862840Y-88938350D01*
X204862841Y-88938347D01*
X204862844Y-88938345D01*
X204863445Y-88937586D01*
X204863989Y-88937200D01*
X204867947Y-88933243D01*
X204868623Y-88933919D01*
X204920468Y-88897211D01*
X204960708Y-88890500D01*
X210301792Y-88890500D01*
X210368831Y-88910185D01*
X210394415Y-88933380D01*
X210394553Y-88933243D01*
X210397352Y-88936042D01*
X210399055Y-88937586D01*
X210399655Y-88938345D01*
X210399660Y-88938350D01*
X210521650Y-89060340D01*
X210668484Y-89150908D01*
X210832247Y-89205174D01*
X210933323Y-89215500D01*
X211370500Y-89215499D01*
X211437539Y-89235183D01*
X211483294Y-89287987D01*
X211494500Y-89339499D01*
X211494500Y-91377163D01*
X211474815Y-91444202D01*
X211422011Y-91489957D01*
X211370500Y-91501163D01*
X210933330Y-91501163D01*
X210933312Y-91501164D01*
X210832247Y-91511488D01*
X210668484Y-91565755D01*
X210668481Y-91565756D01*
X210521648Y-91656324D01*
X210399655Y-91778317D01*
X210399055Y-91779077D01*
X210398510Y-91779462D01*
X210394553Y-91783420D01*
X210393876Y-91782743D01*
X210342032Y-91819452D01*
X210301792Y-91826163D01*
X204960708Y-91826163D01*
X204893669Y-91806478D01*
X204868084Y-91783282D01*
X204867947Y-91783420D01*
X204865147Y-91780620D01*
X204863445Y-91779077D01*
X204862844Y-91778317D01*
X204740851Y-91656324D01*
X204740850Y-91656323D01*
X204649629Y-91600058D01*
X204594018Y-91565756D01*
X204594013Y-91565754D01*
X204592569Y-91565275D01*
X204430253Y-91511489D01*
X204430251Y-91511488D01*
X204329178Y-91501163D01*
X203730830Y-91501163D01*
X203730812Y-91501164D01*
X203629747Y-91511488D01*
X203465984Y-91565755D01*
X203465981Y-91565756D01*
X203319151Y-91656322D01*
X203204827Y-91770646D01*
X203143504Y-91804130D01*
X203073812Y-91799146D01*
X203029465Y-91770645D01*
X202915538Y-91656718D01*
X202915534Y-91656715D01*
X202768811Y-91566214D01*
X202768800Y-91566209D01*
X202605152Y-91511982D01*
X202504154Y-91501663D01*
X202455000Y-91501663D01*
X202455000Y-93451662D01*
X202504140Y-93451662D01*
X202504154Y-93451661D01*
X202605152Y-93441343D01*
X202768800Y-93387116D01*
X202768811Y-93387111D01*
X202915533Y-93296611D01*
X203029464Y-93182680D01*
X203090787Y-93149195D01*
X203160479Y-93154179D01*
X203204827Y-93182680D01*
X203319150Y-93297003D01*
X203465984Y-93387571D01*
X203629747Y-93441837D01*
X203730823Y-93452163D01*
X204329176Y-93452162D01*
X204329184Y-93452161D01*
X204329187Y-93452161D01*
X204389333Y-93446017D01*
X204430253Y-93441837D01*
X204594016Y-93387571D01*
X204740850Y-93297003D01*
X204862840Y-93175013D01*
X204862841Y-93175010D01*
X204862844Y-93175008D01*
X204863445Y-93174249D01*
X204863989Y-93173863D01*
X204867947Y-93169906D01*
X204868623Y-93170582D01*
X204920468Y-93133874D01*
X204960708Y-93127163D01*
X210301792Y-93127163D01*
X210368831Y-93146848D01*
X210394415Y-93170043D01*
X210394553Y-93169906D01*
X210397352Y-93172705D01*
X210399055Y-93174249D01*
X210399655Y-93175008D01*
X210399660Y-93175013D01*
X210521650Y-93297003D01*
X210668484Y-93387571D01*
X210832247Y-93441837D01*
X210933323Y-93452163D01*
X211370500Y-93452162D01*
X211437539Y-93471846D01*
X211483294Y-93524650D01*
X211494500Y-93576162D01*
X211494500Y-95877163D01*
X211474815Y-95944202D01*
X211422011Y-95989957D01*
X211370500Y-96001163D01*
X210933330Y-96001163D01*
X210933312Y-96001164D01*
X210832247Y-96011488D01*
X210668484Y-96065755D01*
X210668481Y-96065756D01*
X210521648Y-96156324D01*
X210399655Y-96278317D01*
X210399055Y-96279077D01*
X210398510Y-96279462D01*
X210394553Y-96283420D01*
X210393876Y-96282743D01*
X210342032Y-96319452D01*
X210301792Y-96326163D01*
X204960708Y-96326163D01*
X204893669Y-96306478D01*
X204868084Y-96283282D01*
X204867947Y-96283420D01*
X204865147Y-96280620D01*
X204863445Y-96279077D01*
X204862844Y-96278317D01*
X204740851Y-96156324D01*
X204740850Y-96156323D01*
X204649629Y-96100058D01*
X204594018Y-96065756D01*
X204594013Y-96065754D01*
X204592569Y-96065275D01*
X204430253Y-96011489D01*
X204430251Y-96011488D01*
X204329178Y-96001163D01*
X203730830Y-96001163D01*
X203730812Y-96001164D01*
X203629747Y-96011488D01*
X203465984Y-96065755D01*
X203465981Y-96065756D01*
X203319151Y-96156322D01*
X203204827Y-96270646D01*
X203143504Y-96304130D01*
X203073812Y-96299146D01*
X203029465Y-96270645D01*
X202915538Y-96156718D01*
X202915534Y-96156715D01*
X202768811Y-96066214D01*
X202768800Y-96066209D01*
X202605152Y-96011982D01*
X202504154Y-96001663D01*
X202455000Y-96001663D01*
X202455000Y-97951662D01*
X202504140Y-97951662D01*
X202504154Y-97951661D01*
X202605152Y-97941343D01*
X202768800Y-97887116D01*
X202768811Y-97887111D01*
X202915533Y-97796611D01*
X203029464Y-97682680D01*
X203090787Y-97649195D01*
X203160479Y-97654179D01*
X203204827Y-97682680D01*
X203319150Y-97797003D01*
X203465984Y-97887571D01*
X203629747Y-97941837D01*
X203730823Y-97952163D01*
X204329176Y-97952162D01*
X204329184Y-97952161D01*
X204329187Y-97952161D01*
X204384530Y-97946507D01*
X204430253Y-97941837D01*
X204594016Y-97887571D01*
X204740850Y-97797003D01*
X204862840Y-97675013D01*
X204862841Y-97675010D01*
X204862844Y-97675008D01*
X204863445Y-97674249D01*
X204863989Y-97673863D01*
X204867947Y-97669906D01*
X204868623Y-97670582D01*
X204920468Y-97633874D01*
X204960708Y-97627163D01*
X210301792Y-97627163D01*
X210368831Y-97646848D01*
X210394415Y-97670043D01*
X210394553Y-97669906D01*
X210397352Y-97672705D01*
X210399055Y-97674249D01*
X210399655Y-97675008D01*
X210399660Y-97675013D01*
X210521650Y-97797003D01*
X210668484Y-97887571D01*
X210832247Y-97941837D01*
X210933323Y-97952163D01*
X211370500Y-97952162D01*
X211437539Y-97971846D01*
X211483294Y-98024650D01*
X211494500Y-98076162D01*
X211494500Y-100377163D01*
X211474815Y-100444202D01*
X211422011Y-100489957D01*
X211370500Y-100501163D01*
X210933330Y-100501163D01*
X210933312Y-100501164D01*
X210832247Y-100511488D01*
X210668484Y-100565755D01*
X210668481Y-100565756D01*
X210521648Y-100656324D01*
X210399655Y-100778317D01*
X210399055Y-100779077D01*
X210398510Y-100779462D01*
X210394553Y-100783420D01*
X210393876Y-100782743D01*
X210342032Y-100819452D01*
X210301792Y-100826163D01*
X204960708Y-100826163D01*
X204893669Y-100806478D01*
X204868084Y-100783282D01*
X204867947Y-100783420D01*
X204865147Y-100780620D01*
X204863445Y-100779077D01*
X204862844Y-100778317D01*
X204740851Y-100656324D01*
X204740850Y-100656323D01*
X204649629Y-100600058D01*
X204594018Y-100565756D01*
X204594013Y-100565754D01*
X204591119Y-100564795D01*
X204430253Y-100511489D01*
X204430251Y-100511488D01*
X204329178Y-100501163D01*
X203730830Y-100501163D01*
X203730812Y-100501164D01*
X203629747Y-100511488D01*
X203465984Y-100565755D01*
X203465981Y-100565756D01*
X203319151Y-100656322D01*
X203204827Y-100770646D01*
X203143504Y-100804130D01*
X203073812Y-100799146D01*
X203029465Y-100770645D01*
X202915538Y-100656718D01*
X202915534Y-100656715D01*
X202768811Y-100566214D01*
X202768800Y-100566209D01*
X202605152Y-100511982D01*
X202504154Y-100501663D01*
X202455000Y-100501663D01*
X202455000Y-102451662D01*
X202504140Y-102451662D01*
X202504154Y-102451661D01*
X202605152Y-102441343D01*
X202768800Y-102387116D01*
X202768811Y-102387111D01*
X202915533Y-102296611D01*
X203029464Y-102182680D01*
X203090787Y-102149195D01*
X203160479Y-102154179D01*
X203204827Y-102182680D01*
X203319150Y-102297003D01*
X203465984Y-102387571D01*
X203629747Y-102441837D01*
X203730823Y-102452163D01*
X204329176Y-102452162D01*
X204329184Y-102452161D01*
X204329187Y-102452161D01*
X204407257Y-102444186D01*
X204430253Y-102441837D01*
X204594016Y-102387571D01*
X204740850Y-102297003D01*
X204862840Y-102175013D01*
X204862841Y-102175010D01*
X204862844Y-102175008D01*
X204863445Y-102174249D01*
X204863989Y-102173863D01*
X204867947Y-102169906D01*
X204868623Y-102170582D01*
X204920468Y-102133874D01*
X204960708Y-102127163D01*
X210301792Y-102127163D01*
X210368831Y-102146848D01*
X210394415Y-102170043D01*
X210394553Y-102169906D01*
X210397352Y-102172705D01*
X210399055Y-102174249D01*
X210399655Y-102175008D01*
X210399660Y-102175013D01*
X210521650Y-102297003D01*
X210668484Y-102387571D01*
X210832247Y-102441837D01*
X210933323Y-102452163D01*
X211370500Y-102452162D01*
X211437539Y-102471846D01*
X211483294Y-102524650D01*
X211494500Y-102576162D01*
X211494500Y-104824944D01*
X211474815Y-104891983D01*
X211422011Y-104937738D01*
X211370500Y-104948944D01*
X210933330Y-104948944D01*
X210933312Y-104948945D01*
X210832247Y-104959269D01*
X210668484Y-105013536D01*
X210668481Y-105013537D01*
X210521648Y-105104105D01*
X210399655Y-105226098D01*
X210399055Y-105226858D01*
X210398510Y-105227243D01*
X210394553Y-105231201D01*
X210393876Y-105230524D01*
X210342032Y-105267233D01*
X210301792Y-105273944D01*
X204960708Y-105273944D01*
X204893669Y-105254259D01*
X204868084Y-105231063D01*
X204867947Y-105231201D01*
X204865147Y-105228401D01*
X204863445Y-105226858D01*
X204862844Y-105226098D01*
X204740851Y-105104105D01*
X204740850Y-105104104D01*
X204642328Y-105043335D01*
X204594018Y-105013537D01*
X204594013Y-105013535D01*
X204592569Y-105013056D01*
X204430253Y-104959270D01*
X204430251Y-104959269D01*
X204329178Y-104948944D01*
X203730830Y-104948944D01*
X203730812Y-104948945D01*
X203629747Y-104959269D01*
X203465984Y-105013536D01*
X203465981Y-105013537D01*
X203319151Y-105104103D01*
X203204827Y-105218427D01*
X203143504Y-105251911D01*
X203073812Y-105246927D01*
X203029465Y-105218426D01*
X202915538Y-105104499D01*
X202915534Y-105104496D01*
X202768811Y-105013995D01*
X202768800Y-105013990D01*
X202605152Y-104959763D01*
X202504154Y-104949444D01*
X202455000Y-104949444D01*
X202455000Y-106899443D01*
X202504140Y-106899443D01*
X202504154Y-106899442D01*
X202605152Y-106889124D01*
X202768800Y-106834897D01*
X202768811Y-106834892D01*
X202915533Y-106744392D01*
X203029464Y-106630461D01*
X203090787Y-106596976D01*
X203160479Y-106601960D01*
X203204827Y-106630461D01*
X203319150Y-106744784D01*
X203465984Y-106835352D01*
X203629747Y-106889618D01*
X203730823Y-106899944D01*
X204329176Y-106899943D01*
X204329184Y-106899942D01*
X204329187Y-106899942D01*
X204389333Y-106893798D01*
X204430253Y-106889618D01*
X204594016Y-106835352D01*
X204740850Y-106744784D01*
X204862840Y-106622794D01*
X204862841Y-106622791D01*
X204862844Y-106622789D01*
X204863445Y-106622030D01*
X204863989Y-106621644D01*
X204867947Y-106617687D01*
X204868623Y-106618363D01*
X204920468Y-106581655D01*
X204960708Y-106574944D01*
X210301792Y-106574944D01*
X210368831Y-106594629D01*
X210394415Y-106617824D01*
X210394553Y-106617687D01*
X210397352Y-106620486D01*
X210399055Y-106622030D01*
X210399655Y-106622789D01*
X210399660Y-106622794D01*
X210521650Y-106744784D01*
X210668484Y-106835352D01*
X210832247Y-106889618D01*
X210933323Y-106899944D01*
X211370500Y-106899943D01*
X211437539Y-106919627D01*
X211483294Y-106972431D01*
X211494500Y-107023943D01*
X211494500Y-109246055D01*
X211474815Y-109313094D01*
X211422011Y-109358849D01*
X211370500Y-109370055D01*
X210933330Y-109370055D01*
X210933312Y-109370056D01*
X210832247Y-109380380D01*
X210668484Y-109434647D01*
X210668481Y-109434648D01*
X210521648Y-109525216D01*
X210399655Y-109647209D01*
X210399055Y-109647969D01*
X210398510Y-109648354D01*
X210394553Y-109652312D01*
X210393876Y-109651635D01*
X210342032Y-109688344D01*
X210301792Y-109695055D01*
X204960708Y-109695055D01*
X204893669Y-109675370D01*
X204868084Y-109652174D01*
X204867947Y-109652312D01*
X204865147Y-109649512D01*
X204863445Y-109647969D01*
X204862844Y-109647209D01*
X204740851Y-109525216D01*
X204740850Y-109525215D01*
X204649629Y-109468950D01*
X204594018Y-109434648D01*
X204594013Y-109434646D01*
X204592569Y-109434167D01*
X204430253Y-109380381D01*
X204430251Y-109380380D01*
X204329178Y-109370055D01*
X203730830Y-109370055D01*
X203730812Y-109370056D01*
X203629747Y-109380380D01*
X203465984Y-109434647D01*
X203465981Y-109434648D01*
X203319151Y-109525214D01*
X203204827Y-109639538D01*
X203143504Y-109673022D01*
X203073812Y-109668038D01*
X203029465Y-109639537D01*
X202915538Y-109525610D01*
X202915534Y-109525607D01*
X202768811Y-109435106D01*
X202768800Y-109435101D01*
X202605152Y-109380874D01*
X202504154Y-109370555D01*
X202455000Y-109370555D01*
X202455000Y-111320554D01*
X202504140Y-111320554D01*
X202504154Y-111320553D01*
X202605152Y-111310235D01*
X202768800Y-111256008D01*
X202768811Y-111256003D01*
X202915533Y-111165503D01*
X203029464Y-111051572D01*
X203090787Y-111018087D01*
X203160479Y-111023071D01*
X203204827Y-111051572D01*
X203319150Y-111165895D01*
X203465984Y-111256463D01*
X203629747Y-111310729D01*
X203730823Y-111321055D01*
X204329176Y-111321054D01*
X204329184Y-111321053D01*
X204329187Y-111321053D01*
X204389333Y-111314909D01*
X204430253Y-111310729D01*
X204594016Y-111256463D01*
X204740850Y-111165895D01*
X204862840Y-111043905D01*
X204862841Y-111043902D01*
X204862844Y-111043900D01*
X204863445Y-111043141D01*
X204863989Y-111042755D01*
X204867947Y-111038798D01*
X204868623Y-111039474D01*
X204920468Y-111002766D01*
X204960708Y-110996055D01*
X210301792Y-110996055D01*
X210368831Y-111015740D01*
X210394415Y-111038935D01*
X210394553Y-111038798D01*
X210397352Y-111041597D01*
X210399055Y-111043141D01*
X210399655Y-111043900D01*
X210399660Y-111043905D01*
X210521650Y-111165895D01*
X210668484Y-111256463D01*
X210832247Y-111310729D01*
X210933323Y-111321055D01*
X211370500Y-111321054D01*
X211437539Y-111340738D01*
X211483294Y-111393542D01*
X211494500Y-111445054D01*
X211494500Y-113667167D01*
X211474815Y-113734206D01*
X211422011Y-113779961D01*
X211370500Y-113791167D01*
X210933330Y-113791167D01*
X210933312Y-113791168D01*
X210832247Y-113801492D01*
X210668484Y-113855759D01*
X210668481Y-113855760D01*
X210521648Y-113946328D01*
X210399655Y-114068321D01*
X210399055Y-114069081D01*
X210398510Y-114069466D01*
X210394553Y-114073424D01*
X210393876Y-114072747D01*
X210342032Y-114109456D01*
X210301792Y-114116167D01*
X204988208Y-114116167D01*
X204921169Y-114096482D01*
X204895584Y-114073286D01*
X204895447Y-114073424D01*
X204892647Y-114070624D01*
X204890945Y-114069081D01*
X204890344Y-114068321D01*
X204768351Y-113946328D01*
X204768350Y-113946327D01*
X204625336Y-113858115D01*
X204621518Y-113855760D01*
X204621513Y-113855758D01*
X204620069Y-113855279D01*
X204457753Y-113801493D01*
X204457751Y-113801492D01*
X204356678Y-113791167D01*
X203758330Y-113791167D01*
X203758312Y-113791168D01*
X203657247Y-113801492D01*
X203493484Y-113855759D01*
X203493481Y-113855760D01*
X203346651Y-113946326D01*
X203232327Y-114060650D01*
X203171004Y-114094134D01*
X203101312Y-114089150D01*
X203056965Y-114060649D01*
X202943038Y-113946722D01*
X202943034Y-113946719D01*
X202796311Y-113856218D01*
X202796300Y-113856213D01*
X202632652Y-113801986D01*
X202531654Y-113791667D01*
X202482500Y-113791667D01*
X202482500Y-115741666D01*
X202531640Y-115741666D01*
X202531654Y-115741665D01*
X202632652Y-115731347D01*
X202796300Y-115677120D01*
X202796311Y-115677115D01*
X202943033Y-115586615D01*
X203056964Y-115472684D01*
X203118287Y-115439199D01*
X203187979Y-115444183D01*
X203232327Y-115472684D01*
X203346650Y-115587007D01*
X203493484Y-115677575D01*
X203657247Y-115731841D01*
X203758323Y-115742167D01*
X204356676Y-115742166D01*
X204356684Y-115742165D01*
X204356687Y-115742165D01*
X204412030Y-115736511D01*
X204457753Y-115731841D01*
X204621516Y-115677575D01*
X204768350Y-115587007D01*
X204890340Y-115465017D01*
X204890341Y-115465014D01*
X204890344Y-115465012D01*
X204890945Y-115464253D01*
X204891489Y-115463867D01*
X204895447Y-115459910D01*
X204896123Y-115460586D01*
X204947968Y-115423878D01*
X204988208Y-115417167D01*
X210301792Y-115417167D01*
X210368831Y-115436852D01*
X210394415Y-115460047D01*
X210394553Y-115459910D01*
X210397352Y-115462709D01*
X210399055Y-115464253D01*
X210399655Y-115465012D01*
X210399660Y-115465017D01*
X210521650Y-115587007D01*
X210617326Y-115646021D01*
X210664051Y-115697968D01*
X210675274Y-115766930D01*
X210647431Y-115831013D01*
X210639911Y-115839240D01*
X207425972Y-119053181D01*
X207364649Y-119086666D01*
X207338291Y-119089500D01*
X183560808Y-119089500D01*
X183493769Y-119069815D01*
X183473127Y-119053181D01*
X179473267Y-115053321D01*
X201245001Y-115053321D01*
X201255319Y-115154319D01*
X201309546Y-115317967D01*
X201309551Y-115317978D01*
X201400052Y-115464701D01*
X201400055Y-115464705D01*
X201521961Y-115586611D01*
X201521965Y-115586614D01*
X201668688Y-115677115D01*
X201668699Y-115677120D01*
X201832347Y-115731347D01*
X201933351Y-115741666D01*
X201982499Y-115741665D01*
X201982500Y-115741665D01*
X201982500Y-115016667D01*
X201245001Y-115016667D01*
X201245001Y-115053321D01*
X179473267Y-115053321D01*
X178899958Y-114480012D01*
X201245000Y-114480012D01*
X201245000Y-114516667D01*
X201982500Y-114516667D01*
X201982500Y-113791667D01*
X201982499Y-113791666D01*
X201933361Y-113791667D01*
X201933343Y-113791668D01*
X201832347Y-113801986D01*
X201668699Y-113856213D01*
X201668688Y-113856218D01*
X201521965Y-113946719D01*
X201521961Y-113946722D01*
X201400055Y-114068628D01*
X201400052Y-114068632D01*
X201309551Y-114215355D01*
X201309546Y-114215366D01*
X201255319Y-114379014D01*
X201245000Y-114480012D01*
X178899958Y-114480012D01*
X175052155Y-110632209D01*
X201217501Y-110632209D01*
X201227819Y-110733207D01*
X201282046Y-110896855D01*
X201282051Y-110896866D01*
X201372552Y-111043589D01*
X201372555Y-111043593D01*
X201494461Y-111165499D01*
X201494465Y-111165502D01*
X201641188Y-111256003D01*
X201641199Y-111256008D01*
X201804847Y-111310235D01*
X201905851Y-111320554D01*
X201954999Y-111320553D01*
X201955000Y-111320553D01*
X201955000Y-110595555D01*
X201217501Y-110595555D01*
X201217501Y-110632209D01*
X175052155Y-110632209D01*
X174478846Y-110058900D01*
X201217500Y-110058900D01*
X201217500Y-110095555D01*
X201955000Y-110095555D01*
X201955000Y-109370555D01*
X201954999Y-109370554D01*
X201905861Y-109370555D01*
X201905843Y-109370556D01*
X201804847Y-109380874D01*
X201641199Y-109435101D01*
X201641188Y-109435106D01*
X201494465Y-109525607D01*
X201494461Y-109525610D01*
X201372555Y-109647516D01*
X201372552Y-109647520D01*
X201282051Y-109794243D01*
X201282046Y-109794254D01*
X201227819Y-109957902D01*
X201217500Y-110058900D01*
X174478846Y-110058900D01*
X172136819Y-107716873D01*
X172103334Y-107655550D01*
X172100500Y-107629192D01*
X172100500Y-106211098D01*
X201217501Y-106211098D01*
X201227819Y-106312096D01*
X201282046Y-106475744D01*
X201282051Y-106475755D01*
X201372552Y-106622478D01*
X201372555Y-106622482D01*
X201494461Y-106744388D01*
X201494465Y-106744391D01*
X201641188Y-106834892D01*
X201641199Y-106834897D01*
X201804847Y-106889124D01*
X201905851Y-106899443D01*
X201954999Y-106899442D01*
X201955000Y-106899442D01*
X201955000Y-106174444D01*
X201217501Y-106174444D01*
X201217501Y-106211098D01*
X172100500Y-106211098D01*
X172100500Y-105637789D01*
X201217500Y-105637789D01*
X201217500Y-105674444D01*
X201955000Y-105674444D01*
X201955000Y-104949444D01*
X201954999Y-104949443D01*
X201905861Y-104949444D01*
X201905843Y-104949445D01*
X201804847Y-104959763D01*
X201641199Y-105013990D01*
X201641188Y-105013995D01*
X201494465Y-105104496D01*
X201494461Y-105104499D01*
X201372555Y-105226405D01*
X201372552Y-105226409D01*
X201282051Y-105373132D01*
X201282046Y-105373143D01*
X201227819Y-105536791D01*
X201217500Y-105637789D01*
X172100500Y-105637789D01*
X172100500Y-101763317D01*
X201217501Y-101763317D01*
X201227819Y-101864315D01*
X201282046Y-102027963D01*
X201282051Y-102027974D01*
X201372552Y-102174697D01*
X201372555Y-102174701D01*
X201494461Y-102296607D01*
X201494465Y-102296610D01*
X201641188Y-102387111D01*
X201641199Y-102387116D01*
X201804847Y-102441343D01*
X201905851Y-102451662D01*
X201954999Y-102451661D01*
X201955000Y-102451661D01*
X201955000Y-101726663D01*
X201217501Y-101726663D01*
X201217501Y-101763317D01*
X172100500Y-101763317D01*
X172100500Y-101190008D01*
X201217500Y-101190008D01*
X201217500Y-101226663D01*
X201955000Y-101226663D01*
X201955000Y-100501663D01*
X201954999Y-100501662D01*
X201905861Y-100501663D01*
X201905843Y-100501664D01*
X201804847Y-100511982D01*
X201641199Y-100566209D01*
X201641188Y-100566214D01*
X201494465Y-100656715D01*
X201494461Y-100656718D01*
X201372555Y-100778624D01*
X201372552Y-100778628D01*
X201282051Y-100925351D01*
X201282046Y-100925362D01*
X201227819Y-101089010D01*
X201217500Y-101190008D01*
X172100500Y-101190008D01*
X172100500Y-97263317D01*
X201217501Y-97263317D01*
X201227819Y-97364315D01*
X201282046Y-97527963D01*
X201282051Y-97527974D01*
X201372552Y-97674697D01*
X201372555Y-97674701D01*
X201494461Y-97796607D01*
X201494465Y-97796610D01*
X201641188Y-97887111D01*
X201641199Y-97887116D01*
X201804847Y-97941343D01*
X201905851Y-97951662D01*
X201954999Y-97951661D01*
X201955000Y-97951661D01*
X201955000Y-97226663D01*
X201217501Y-97226663D01*
X201217501Y-97263317D01*
X172100500Y-97263317D01*
X172100500Y-96690008D01*
X201217500Y-96690008D01*
X201217500Y-96726663D01*
X201955000Y-96726663D01*
X201955000Y-96001663D01*
X201954999Y-96001662D01*
X201905861Y-96001663D01*
X201905843Y-96001664D01*
X201804847Y-96011982D01*
X201641199Y-96066209D01*
X201641188Y-96066214D01*
X201494465Y-96156715D01*
X201494461Y-96156718D01*
X201372555Y-96278624D01*
X201372552Y-96278628D01*
X201282051Y-96425351D01*
X201282046Y-96425362D01*
X201227819Y-96589010D01*
X201217500Y-96690008D01*
X172100500Y-96690008D01*
X172100500Y-92763317D01*
X201217501Y-92763317D01*
X201227819Y-92864315D01*
X201282046Y-93027963D01*
X201282051Y-93027974D01*
X201372552Y-93174697D01*
X201372555Y-93174701D01*
X201494461Y-93296607D01*
X201494465Y-93296610D01*
X201641188Y-93387111D01*
X201641199Y-93387116D01*
X201804847Y-93441343D01*
X201905851Y-93451662D01*
X201954999Y-93451661D01*
X201955000Y-93451661D01*
X201955000Y-92726663D01*
X201217501Y-92726663D01*
X201217501Y-92763317D01*
X172100500Y-92763317D01*
X172100500Y-92190008D01*
X201217500Y-92190008D01*
X201217500Y-92226663D01*
X201955000Y-92226663D01*
X201955000Y-91501663D01*
X201954999Y-91501662D01*
X201905861Y-91501663D01*
X201905843Y-91501664D01*
X201804847Y-91511982D01*
X201641199Y-91566209D01*
X201641188Y-91566214D01*
X201494465Y-91656715D01*
X201494461Y-91656718D01*
X201372555Y-91778624D01*
X201372552Y-91778628D01*
X201282051Y-91925351D01*
X201282046Y-91925362D01*
X201227819Y-92089010D01*
X201217500Y-92190008D01*
X172100500Y-92190008D01*
X172100500Y-90490807D01*
X172120185Y-90423768D01*
X172136819Y-90403126D01*
X172189951Y-90349994D01*
X174794859Y-90349994D01*
X174794859Y-90350005D01*
X174815385Y-90597729D01*
X174815387Y-90597738D01*
X174876412Y-90838717D01*
X174976266Y-91066364D01*
X175076564Y-91219882D01*
X175808871Y-90487575D01*
X175824755Y-90546853D01*
X175891898Y-90663147D01*
X175986853Y-90758102D01*
X176103147Y-90825245D01*
X176162424Y-90841128D01*
X175429942Y-91573609D01*
X175476768Y-91610055D01*
X175476770Y-91610056D01*
X175695385Y-91728364D01*
X175695396Y-91728369D01*
X175930506Y-91809083D01*
X176175707Y-91850000D01*
X176424293Y-91850000D01*
X176669493Y-91809083D01*
X176904603Y-91728369D01*
X176904614Y-91728364D01*
X177123228Y-91610057D01*
X177123231Y-91610055D01*
X177170056Y-91573609D01*
X176437575Y-90841128D01*
X176496853Y-90825245D01*
X176613147Y-90758102D01*
X176708102Y-90663147D01*
X176775245Y-90546853D01*
X176791127Y-90487575D01*
X177523434Y-91219882D01*
X177623731Y-91066369D01*
X177723587Y-90838717D01*
X177784612Y-90597738D01*
X177784614Y-90597729D01*
X177805141Y-90350005D01*
X177805141Y-90349994D01*
X177784614Y-90102270D01*
X177784612Y-90102261D01*
X177723587Y-89861282D01*
X177623731Y-89633630D01*
X177523434Y-89480116D01*
X176791127Y-90212423D01*
X176775245Y-90153147D01*
X176708102Y-90036853D01*
X176613147Y-89941898D01*
X176496853Y-89874755D01*
X176437575Y-89858872D01*
X177170057Y-89126390D01*
X177170056Y-89126389D01*
X177123229Y-89089943D01*
X176904614Y-88971635D01*
X176904603Y-88971630D01*
X176669493Y-88890916D01*
X176424293Y-88850000D01*
X176175707Y-88850000D01*
X175930506Y-88890916D01*
X175695396Y-88971630D01*
X175695390Y-88971632D01*
X175476761Y-89089949D01*
X175429942Y-89126388D01*
X175429942Y-89126390D01*
X176162424Y-89858871D01*
X176103147Y-89874755D01*
X175986853Y-89941898D01*
X175891898Y-90036853D01*
X175824755Y-90153147D01*
X175808872Y-90212424D01*
X175076564Y-89480116D01*
X174976267Y-89633632D01*
X174876412Y-89861282D01*
X174815387Y-90102261D01*
X174815385Y-90102270D01*
X174794859Y-90349994D01*
X172189951Y-90349994D01*
X174013291Y-88526654D01*
X201217501Y-88526654D01*
X201227819Y-88627652D01*
X201282046Y-88791300D01*
X201282051Y-88791311D01*
X201372552Y-88938034D01*
X201372555Y-88938038D01*
X201494461Y-89059944D01*
X201494465Y-89059947D01*
X201641188Y-89150448D01*
X201641199Y-89150453D01*
X201804847Y-89204680D01*
X201905851Y-89214999D01*
X201954999Y-89214998D01*
X201955000Y-89214998D01*
X201955000Y-88490000D01*
X201217501Y-88490000D01*
X201217501Y-88526654D01*
X174013291Y-88526654D01*
X174586600Y-87953345D01*
X201217500Y-87953345D01*
X201217500Y-87990000D01*
X201955000Y-87990000D01*
X201955000Y-87265000D01*
X201954999Y-87264999D01*
X201905861Y-87265000D01*
X201905843Y-87265001D01*
X201804847Y-87275319D01*
X201641199Y-87329546D01*
X201641188Y-87329551D01*
X201494465Y-87420052D01*
X201494461Y-87420055D01*
X201372555Y-87541961D01*
X201372552Y-87541965D01*
X201282051Y-87688688D01*
X201282046Y-87688699D01*
X201227819Y-87852347D01*
X201217500Y-87953345D01*
X174586600Y-87953345D01*
X178305273Y-84234672D01*
X178305276Y-84234669D01*
X178376465Y-84128127D01*
X178385820Y-84105543D01*
X201217501Y-84105543D01*
X201227819Y-84206541D01*
X201282046Y-84370189D01*
X201282051Y-84370200D01*
X201372552Y-84516923D01*
X201372555Y-84516927D01*
X201494461Y-84638833D01*
X201494465Y-84638836D01*
X201641188Y-84729337D01*
X201641199Y-84729342D01*
X201804847Y-84783569D01*
X201905851Y-84793888D01*
X201954999Y-84793887D01*
X201955000Y-84793887D01*
X201955000Y-84068889D01*
X201217501Y-84068889D01*
X201217501Y-84105543D01*
X178385820Y-84105543D01*
X178425501Y-84009744D01*
X178425722Y-84008633D01*
X178450500Y-83884069D01*
X178450500Y-83532234D01*
X201217500Y-83532234D01*
X201217500Y-83568889D01*
X201955000Y-83568889D01*
X201955000Y-82843889D01*
X201954999Y-82843888D01*
X201905861Y-82843889D01*
X201905843Y-82843890D01*
X201804847Y-82854208D01*
X201641199Y-82908435D01*
X201641188Y-82908440D01*
X201494465Y-82998941D01*
X201494461Y-82998944D01*
X201372555Y-83120850D01*
X201372552Y-83120854D01*
X201282051Y-83267577D01*
X201282046Y-83267588D01*
X201227819Y-83431236D01*
X201217500Y-83532234D01*
X178450500Y-83532234D01*
X178450500Y-82485931D01*
X178450500Y-79763317D01*
X201217501Y-79763317D01*
X201227819Y-79864315D01*
X201282046Y-80027963D01*
X201282051Y-80027974D01*
X201372552Y-80174697D01*
X201372555Y-80174701D01*
X201494461Y-80296607D01*
X201494465Y-80296610D01*
X201641188Y-80387111D01*
X201641199Y-80387116D01*
X201804847Y-80441343D01*
X201905851Y-80451662D01*
X201954999Y-80451661D01*
X201955000Y-80451661D01*
X201955000Y-79726663D01*
X201217501Y-79726663D01*
X201217501Y-79763317D01*
X178450500Y-79763317D01*
X178450500Y-79190008D01*
X201217500Y-79190008D01*
X201217500Y-79226663D01*
X201955000Y-79226663D01*
X201955000Y-78501663D01*
X201954999Y-78501662D01*
X201905861Y-78501663D01*
X201905843Y-78501664D01*
X201804847Y-78511982D01*
X201641199Y-78566209D01*
X201641188Y-78566214D01*
X201494465Y-78656715D01*
X201494461Y-78656718D01*
X201372555Y-78778624D01*
X201372552Y-78778628D01*
X201282051Y-78925351D01*
X201282046Y-78925362D01*
X201227819Y-79089010D01*
X201217500Y-79190008D01*
X178450500Y-79190008D01*
X178450500Y-75263317D01*
X201217501Y-75263317D01*
X201227819Y-75364315D01*
X201282046Y-75527963D01*
X201282051Y-75527974D01*
X201372552Y-75674697D01*
X201372555Y-75674701D01*
X201494461Y-75796607D01*
X201494465Y-75796610D01*
X201641188Y-75887111D01*
X201641199Y-75887116D01*
X201804847Y-75941343D01*
X201905851Y-75951662D01*
X201954999Y-75951661D01*
X201955000Y-75951661D01*
X201955000Y-75226663D01*
X201217501Y-75226663D01*
X201217501Y-75263317D01*
X178450500Y-75263317D01*
X178450500Y-74865931D01*
X178450500Y-74865928D01*
X178425502Y-74740261D01*
X178425501Y-74740260D01*
X178425501Y-74740256D01*
X178404688Y-74690008D01*
X201217500Y-74690008D01*
X201217500Y-74726663D01*
X201955000Y-74726663D01*
X201955000Y-74001663D01*
X201954999Y-74001662D01*
X201905861Y-74001663D01*
X201905843Y-74001664D01*
X201804847Y-74011982D01*
X201641199Y-74066209D01*
X201641188Y-74066214D01*
X201494465Y-74156715D01*
X201494461Y-74156718D01*
X201372555Y-74278624D01*
X201372552Y-74278628D01*
X201282051Y-74425351D01*
X201282046Y-74425362D01*
X201227819Y-74589010D01*
X201217500Y-74690008D01*
X178404688Y-74690008D01*
X178376465Y-74621873D01*
X178376464Y-74621872D01*
X178376461Y-74621866D01*
X178305277Y-74515332D01*
X178277079Y-74487134D01*
X178214669Y-74424724D01*
X177946267Y-74156322D01*
X176944674Y-73154727D01*
X176944673Y-73154726D01*
X176944669Y-73154723D01*
X176838127Y-73083535D01*
X176719744Y-73034499D01*
X176719738Y-73034497D01*
X176594071Y-73009500D01*
X176594069Y-73009500D01*
X160518824Y-73009500D01*
X160518822Y-73009500D01*
X160393154Y-73034497D01*
X160393148Y-73034499D01*
X160274767Y-73083534D01*
X160168219Y-73154726D01*
X145124724Y-88198221D01*
X145070859Y-88278838D01*
X145053535Y-88304765D01*
X145004499Y-88423148D01*
X145004497Y-88423154D01*
X144979500Y-88548821D01*
X144979500Y-113877679D01*
X144959815Y-113944718D01*
X144929813Y-113976944D01*
X144922459Y-113982449D01*
X144922451Y-113982457D01*
X144836206Y-114097664D01*
X144836202Y-114097671D01*
X144785908Y-114232517D01*
X144779501Y-114292116D01*
X144779501Y-114292123D01*
X144779500Y-114292135D01*
X144779500Y-114969191D01*
X144759815Y-115036230D01*
X144743185Y-115056867D01*
X144668180Y-115131873D01*
X144621658Y-115178395D01*
X144560335Y-115211879D01*
X144490643Y-115206895D01*
X144434710Y-115165023D01*
X144425142Y-115150135D01*
X144423792Y-115147662D01*
X144337547Y-115032455D01*
X144337544Y-115032452D01*
X144222335Y-114946206D01*
X144222328Y-114946202D01*
X144087482Y-114895908D01*
X144087483Y-114895908D01*
X144027883Y-114889501D01*
X144027881Y-114889500D01*
X144027873Y-114889500D01*
X144027864Y-114889500D01*
X142932129Y-114889500D01*
X142932123Y-114889501D01*
X142872516Y-114895908D01*
X142737671Y-114946202D01*
X142737664Y-114946206D01*
X142622455Y-115032452D01*
X142622452Y-115032455D01*
X142536206Y-115147664D01*
X142536202Y-115147671D01*
X142486929Y-115279781D01*
X142485909Y-115282517D01*
X142479500Y-115342127D01*
X142479500Y-115600909D01*
X142479501Y-115765500D01*
X142459817Y-115832539D01*
X142407013Y-115878294D01*
X142355501Y-115889500D01*
X98800032Y-115889500D01*
X98732993Y-115869815D01*
X98687238Y-115817011D01*
X98677294Y-115747853D01*
X98694494Y-115700403D01*
X98767948Y-115581315D01*
X98767953Y-115581304D01*
X98822180Y-115417656D01*
X98832499Y-115316658D01*
X98832500Y-115316645D01*
X98832500Y-115280004D01*
X97719000Y-115280004D01*
X97651961Y-115260319D01*
X97606206Y-115207515D01*
X97595000Y-115156004D01*
X97595000Y-114780004D01*
X98095000Y-114780004D01*
X98832499Y-114780004D01*
X98832499Y-114743364D01*
X98832498Y-114743349D01*
X98822180Y-114642351D01*
X98767953Y-114478703D01*
X98767948Y-114478692D01*
X98677447Y-114331969D01*
X98677444Y-114331965D01*
X98555538Y-114210059D01*
X98555534Y-114210056D01*
X98408811Y-114119555D01*
X98408800Y-114119550D01*
X98245152Y-114065323D01*
X98144154Y-114055004D01*
X98095000Y-114055004D01*
X98095000Y-114780004D01*
X97595000Y-114780004D01*
X97595000Y-114055004D01*
X97594999Y-114055003D01*
X97545861Y-114055004D01*
X97545843Y-114055005D01*
X97444847Y-114065323D01*
X97281199Y-114119550D01*
X97281188Y-114119555D01*
X97134465Y-114210056D01*
X97020534Y-114323987D01*
X96959211Y-114357471D01*
X96889519Y-114352487D01*
X96845172Y-114323986D01*
X96730851Y-114209665D01*
X96730850Y-114209664D01*
X96639629Y-114153399D01*
X96584018Y-114119097D01*
X96584013Y-114119095D01*
X96575177Y-114116167D01*
X96420253Y-114064830D01*
X96420251Y-114064829D01*
X96319178Y-114054504D01*
X95720830Y-114054504D01*
X95720812Y-114054505D01*
X95619747Y-114064829D01*
X95455984Y-114119096D01*
X95455981Y-114119097D01*
X95309148Y-114209665D01*
X95187155Y-114331658D01*
X95186555Y-114332418D01*
X95186010Y-114332803D01*
X95182053Y-114336761D01*
X95181376Y-114336084D01*
X95129532Y-114372793D01*
X95089292Y-114379504D01*
X89748208Y-114379504D01*
X89681169Y-114359819D01*
X89655584Y-114336623D01*
X89655447Y-114336761D01*
X89652647Y-114333961D01*
X89650945Y-114332418D01*
X89650344Y-114331658D01*
X89528351Y-114209665D01*
X89528350Y-114209664D01*
X89437129Y-114153399D01*
X89381518Y-114119097D01*
X89381513Y-114119095D01*
X89372677Y-114116167D01*
X89217753Y-114064830D01*
X89217751Y-114064829D01*
X89116684Y-114054504D01*
X89116677Y-114054504D01*
X88679500Y-114054504D01*
X88612461Y-114034819D01*
X88566706Y-113982015D01*
X88555500Y-113930504D01*
X88555500Y-111708391D01*
X88575185Y-111641352D01*
X88627989Y-111595597D01*
X88679500Y-111584391D01*
X89116670Y-111584391D01*
X89116676Y-111584391D01*
X89217753Y-111574066D01*
X89381516Y-111519800D01*
X89528350Y-111429232D01*
X89650340Y-111307242D01*
X89650341Y-111307239D01*
X89650344Y-111307237D01*
X89650945Y-111306478D01*
X89651489Y-111306092D01*
X89655447Y-111302135D01*
X89656123Y-111302811D01*
X89707968Y-111266103D01*
X89748208Y-111259392D01*
X95089292Y-111259392D01*
X95156331Y-111279077D01*
X95181915Y-111302272D01*
X95182053Y-111302135D01*
X95184852Y-111304934D01*
X95186555Y-111306478D01*
X95187155Y-111307237D01*
X95187160Y-111307242D01*
X95309150Y-111429232D01*
X95455984Y-111519800D01*
X95619747Y-111574066D01*
X95720823Y-111584392D01*
X96319176Y-111584391D01*
X96319184Y-111584390D01*
X96319187Y-111584390D01*
X96374530Y-111578736D01*
X96420253Y-111574066D01*
X96584016Y-111519800D01*
X96730850Y-111429232D01*
X96845175Y-111314906D01*
X96906494Y-111281424D01*
X96976186Y-111286408D01*
X97020534Y-111314909D01*
X97134461Y-111428836D01*
X97134465Y-111428839D01*
X97281188Y-111519340D01*
X97281199Y-111519345D01*
X97444847Y-111573572D01*
X97545851Y-111583891D01*
X98095000Y-111583891D01*
X98144140Y-111583891D01*
X98144154Y-111583890D01*
X98245152Y-111573572D01*
X98408800Y-111519345D01*
X98408811Y-111519340D01*
X98555534Y-111428839D01*
X98555538Y-111428836D01*
X98677444Y-111306930D01*
X98677447Y-111306926D01*
X98767948Y-111160203D01*
X98767953Y-111160192D01*
X98822180Y-110996544D01*
X98832499Y-110895546D01*
X98832500Y-110895533D01*
X98832500Y-110858892D01*
X98095000Y-110858892D01*
X98095000Y-111583891D01*
X97545851Y-111583891D01*
X97594999Y-111583890D01*
X97595000Y-111583890D01*
X97595000Y-110358892D01*
X98095000Y-110358892D01*
X98832499Y-110358892D01*
X98832499Y-110322252D01*
X98832498Y-110322237D01*
X98822180Y-110221239D01*
X98767953Y-110057591D01*
X98767948Y-110057580D01*
X98677447Y-109910857D01*
X98677444Y-109910853D01*
X98555538Y-109788947D01*
X98555534Y-109788944D01*
X98408811Y-109698443D01*
X98408800Y-109698438D01*
X98245152Y-109644211D01*
X98144154Y-109633892D01*
X98095000Y-109633892D01*
X98095000Y-110358892D01*
X97595000Y-110358892D01*
X97595000Y-109633892D01*
X97594999Y-109633891D01*
X97545861Y-109633892D01*
X97545843Y-109633893D01*
X97444847Y-109644211D01*
X97281199Y-109698438D01*
X97281188Y-109698443D01*
X97134465Y-109788944D01*
X97020534Y-109902875D01*
X96959211Y-109936359D01*
X96889519Y-109931375D01*
X96845172Y-109902874D01*
X96730851Y-109788553D01*
X96730850Y-109788552D01*
X96639629Y-109732287D01*
X96584018Y-109697985D01*
X96584013Y-109697983D01*
X96575177Y-109695055D01*
X96420253Y-109643718D01*
X96420251Y-109643717D01*
X96319178Y-109633392D01*
X95720830Y-109633392D01*
X95720812Y-109633393D01*
X95619747Y-109643717D01*
X95455984Y-109697984D01*
X95455981Y-109697985D01*
X95309148Y-109788553D01*
X95187155Y-109910546D01*
X95186555Y-109911306D01*
X95186010Y-109911691D01*
X95182053Y-109915649D01*
X95181376Y-109914972D01*
X95129532Y-109951681D01*
X95089292Y-109958392D01*
X89748208Y-109958392D01*
X89681169Y-109938707D01*
X89655584Y-109915511D01*
X89655447Y-109915649D01*
X89652647Y-109912849D01*
X89650945Y-109911306D01*
X89650344Y-109910546D01*
X89528351Y-109788553D01*
X89528350Y-109788552D01*
X89437129Y-109732287D01*
X89381518Y-109697985D01*
X89381513Y-109697983D01*
X89372677Y-109695055D01*
X89217753Y-109643718D01*
X89217751Y-109643717D01*
X89116684Y-109633392D01*
X89116677Y-109633392D01*
X88679500Y-109633392D01*
X88612461Y-109613707D01*
X88566706Y-109560903D01*
X88555500Y-109509392D01*
X88555500Y-107287280D01*
X88575185Y-107220241D01*
X88627989Y-107174486D01*
X88679500Y-107163280D01*
X89116670Y-107163280D01*
X89116676Y-107163280D01*
X89217753Y-107152955D01*
X89381516Y-107098689D01*
X89528350Y-107008121D01*
X89650340Y-106886131D01*
X89650341Y-106886128D01*
X89650344Y-106886126D01*
X89650945Y-106885367D01*
X89651489Y-106884981D01*
X89655447Y-106881024D01*
X89656123Y-106881700D01*
X89707968Y-106844992D01*
X89748208Y-106838281D01*
X95089292Y-106838281D01*
X95156331Y-106857966D01*
X95181915Y-106881161D01*
X95182053Y-106881024D01*
X95184852Y-106883823D01*
X95186555Y-106885367D01*
X95187155Y-106886126D01*
X95187160Y-106886131D01*
X95309150Y-107008121D01*
X95455984Y-107098689D01*
X95619747Y-107152955D01*
X95720823Y-107163281D01*
X96319176Y-107163280D01*
X96319184Y-107163279D01*
X96319187Y-107163279D01*
X96374530Y-107157625D01*
X96420253Y-107152955D01*
X96584016Y-107098689D01*
X96730850Y-107008121D01*
X96845175Y-106893795D01*
X96906494Y-106860313D01*
X96976186Y-106865297D01*
X97020534Y-106893798D01*
X97134461Y-107007725D01*
X97134465Y-107007728D01*
X97281188Y-107098229D01*
X97281199Y-107098234D01*
X97444847Y-107152461D01*
X97545851Y-107162780D01*
X98095000Y-107162780D01*
X98144140Y-107162780D01*
X98144154Y-107162779D01*
X98245152Y-107152461D01*
X98408800Y-107098234D01*
X98408811Y-107098229D01*
X98555534Y-107007728D01*
X98555538Y-107007725D01*
X98677444Y-106885819D01*
X98677447Y-106885815D01*
X98767948Y-106739092D01*
X98767953Y-106739081D01*
X98822180Y-106575433D01*
X98832499Y-106474435D01*
X98832500Y-106474422D01*
X98832500Y-106437781D01*
X98095000Y-106437781D01*
X98095000Y-107162780D01*
X97545851Y-107162780D01*
X97594999Y-107162779D01*
X97595000Y-107162779D01*
X97595000Y-105937781D01*
X98095000Y-105937781D01*
X98832499Y-105937781D01*
X98832499Y-105901141D01*
X98832498Y-105901126D01*
X98822180Y-105800128D01*
X98767953Y-105636480D01*
X98767948Y-105636469D01*
X98677447Y-105489746D01*
X98677444Y-105489742D01*
X98555538Y-105367836D01*
X98555534Y-105367833D01*
X98408811Y-105277332D01*
X98408800Y-105277327D01*
X98245152Y-105223100D01*
X98144154Y-105212781D01*
X98095000Y-105212781D01*
X98095000Y-105937781D01*
X97595000Y-105937781D01*
X97595000Y-105212781D01*
X97594999Y-105212780D01*
X97545861Y-105212781D01*
X97545843Y-105212782D01*
X97444847Y-105223100D01*
X97281199Y-105277327D01*
X97281188Y-105277332D01*
X97134465Y-105367833D01*
X97020534Y-105481764D01*
X96959211Y-105515248D01*
X96889519Y-105510264D01*
X96845172Y-105481763D01*
X96730851Y-105367442D01*
X96730850Y-105367441D01*
X96639629Y-105311176D01*
X96584018Y-105276874D01*
X96584013Y-105276872D01*
X96575177Y-105273944D01*
X96420253Y-105222607D01*
X96420251Y-105222606D01*
X96319178Y-105212281D01*
X95720830Y-105212281D01*
X95720812Y-105212282D01*
X95619747Y-105222606D01*
X95455984Y-105276873D01*
X95455981Y-105276874D01*
X95309148Y-105367442D01*
X95187155Y-105489435D01*
X95186555Y-105490195D01*
X95186010Y-105490580D01*
X95182053Y-105494538D01*
X95181376Y-105493861D01*
X95129532Y-105530570D01*
X95089292Y-105537281D01*
X89748208Y-105537281D01*
X89681169Y-105517596D01*
X89655584Y-105494400D01*
X89655447Y-105494538D01*
X89652647Y-105491738D01*
X89650945Y-105490195D01*
X89650344Y-105489435D01*
X89528351Y-105367442D01*
X89528350Y-105367441D01*
X89437129Y-105311176D01*
X89381518Y-105276874D01*
X89381513Y-105276872D01*
X89372677Y-105273944D01*
X89217753Y-105222607D01*
X89217751Y-105222606D01*
X89116684Y-105212281D01*
X89116677Y-105212281D01*
X88679500Y-105212281D01*
X88612461Y-105192596D01*
X88566706Y-105139792D01*
X88555500Y-105088281D01*
X88555500Y-102866169D01*
X88575185Y-102799130D01*
X88627989Y-102753375D01*
X88679500Y-102742169D01*
X89116670Y-102742169D01*
X89116676Y-102742169D01*
X89217753Y-102731844D01*
X89381516Y-102677578D01*
X89528350Y-102587010D01*
X89650340Y-102465020D01*
X89650341Y-102465017D01*
X89650344Y-102465015D01*
X89650945Y-102464256D01*
X89651489Y-102463870D01*
X89655447Y-102459913D01*
X89656123Y-102460589D01*
X89707968Y-102423881D01*
X89748208Y-102417170D01*
X95089292Y-102417170D01*
X95156331Y-102436855D01*
X95181915Y-102460050D01*
X95182053Y-102459913D01*
X95184852Y-102462712D01*
X95186555Y-102464256D01*
X95187155Y-102465015D01*
X95187160Y-102465020D01*
X95309150Y-102587010D01*
X95455984Y-102677578D01*
X95619747Y-102731844D01*
X95720823Y-102742170D01*
X96319176Y-102742169D01*
X96319184Y-102742168D01*
X96319187Y-102742168D01*
X96374530Y-102736514D01*
X96420253Y-102731844D01*
X96584016Y-102677578D01*
X96730850Y-102587010D01*
X96845175Y-102472684D01*
X96906494Y-102439202D01*
X96976186Y-102444186D01*
X97020534Y-102472687D01*
X97134461Y-102586614D01*
X97134465Y-102586617D01*
X97281188Y-102677118D01*
X97281199Y-102677123D01*
X97444847Y-102731350D01*
X97545851Y-102741669D01*
X98095000Y-102741669D01*
X98144140Y-102741669D01*
X98144154Y-102741668D01*
X98245152Y-102731350D01*
X98408800Y-102677123D01*
X98408811Y-102677118D01*
X98555534Y-102586617D01*
X98555538Y-102586614D01*
X98677444Y-102464708D01*
X98677447Y-102464704D01*
X98767948Y-102317981D01*
X98767953Y-102317970D01*
X98822180Y-102154322D01*
X98832499Y-102053324D01*
X98832500Y-102053311D01*
X98832500Y-102016670D01*
X98095000Y-102016670D01*
X98095000Y-102741669D01*
X97545851Y-102741669D01*
X97594999Y-102741668D01*
X97595000Y-102741668D01*
X97595000Y-101516670D01*
X98095000Y-101516670D01*
X98832499Y-101516670D01*
X98832499Y-101480030D01*
X98832498Y-101480015D01*
X98822180Y-101379017D01*
X98767953Y-101215369D01*
X98767948Y-101215358D01*
X98677447Y-101068635D01*
X98677444Y-101068631D01*
X98555538Y-100946725D01*
X98555534Y-100946722D01*
X98408811Y-100856221D01*
X98408800Y-100856216D01*
X98245152Y-100801989D01*
X98144154Y-100791670D01*
X98095000Y-100791670D01*
X98095000Y-101516670D01*
X97595000Y-101516670D01*
X97595000Y-100791670D01*
X97594999Y-100791669D01*
X97545861Y-100791670D01*
X97545843Y-100791671D01*
X97444847Y-100801989D01*
X97281199Y-100856216D01*
X97281188Y-100856221D01*
X97134465Y-100946722D01*
X97020534Y-101060653D01*
X96959211Y-101094137D01*
X96889519Y-101089153D01*
X96845172Y-101060652D01*
X96730851Y-100946331D01*
X96730850Y-100946330D01*
X96639629Y-100890065D01*
X96584018Y-100855763D01*
X96584013Y-100855761D01*
X96582569Y-100855282D01*
X96420253Y-100801496D01*
X96420251Y-100801495D01*
X96319178Y-100791170D01*
X95720830Y-100791170D01*
X95720812Y-100791171D01*
X95619747Y-100801495D01*
X95455984Y-100855762D01*
X95455981Y-100855763D01*
X95309148Y-100946331D01*
X95187155Y-101068324D01*
X95186555Y-101069084D01*
X95186010Y-101069469D01*
X95182053Y-101073427D01*
X95181376Y-101072750D01*
X95129532Y-101109459D01*
X95089292Y-101116170D01*
X89748208Y-101116170D01*
X89681169Y-101096485D01*
X89655584Y-101073289D01*
X89655447Y-101073427D01*
X89652647Y-101070627D01*
X89650945Y-101069084D01*
X89650344Y-101068324D01*
X89528351Y-100946331D01*
X89528350Y-100946330D01*
X89437129Y-100890065D01*
X89381518Y-100855763D01*
X89381513Y-100855761D01*
X89380069Y-100855282D01*
X89217753Y-100801496D01*
X89217751Y-100801495D01*
X89116684Y-100791170D01*
X89116677Y-100791170D01*
X88679500Y-100791170D01*
X88612461Y-100771485D01*
X88566706Y-100718681D01*
X88555500Y-100667170D01*
X88555500Y-98445058D01*
X88575185Y-98378019D01*
X88627989Y-98332264D01*
X88679500Y-98321058D01*
X89116670Y-98321058D01*
X89116676Y-98321058D01*
X89217753Y-98310733D01*
X89381516Y-98256467D01*
X89528350Y-98165899D01*
X89650340Y-98043909D01*
X89650341Y-98043906D01*
X89650344Y-98043904D01*
X89650945Y-98043145D01*
X89651489Y-98042759D01*
X89655447Y-98038802D01*
X89656123Y-98039478D01*
X89707968Y-98002770D01*
X89748208Y-97996059D01*
X95089292Y-97996059D01*
X95156331Y-98015744D01*
X95181915Y-98038939D01*
X95182053Y-98038802D01*
X95184852Y-98041601D01*
X95186555Y-98043145D01*
X95187155Y-98043904D01*
X95187160Y-98043909D01*
X95309150Y-98165899D01*
X95455984Y-98256467D01*
X95619747Y-98310733D01*
X95720823Y-98321059D01*
X96319176Y-98321058D01*
X96319184Y-98321057D01*
X96319187Y-98321057D01*
X96374530Y-98315403D01*
X96420253Y-98310733D01*
X96584016Y-98256467D01*
X96730850Y-98165899D01*
X96845175Y-98051573D01*
X96906494Y-98018091D01*
X96976186Y-98023075D01*
X97020534Y-98051576D01*
X97134461Y-98165503D01*
X97134465Y-98165506D01*
X97281188Y-98256007D01*
X97281199Y-98256012D01*
X97444847Y-98310239D01*
X97545851Y-98320558D01*
X98095000Y-98320558D01*
X98144140Y-98320558D01*
X98144154Y-98320557D01*
X98245152Y-98310239D01*
X98408800Y-98256012D01*
X98408811Y-98256007D01*
X98555534Y-98165506D01*
X98555538Y-98165503D01*
X98677444Y-98043597D01*
X98677447Y-98043593D01*
X98767948Y-97896870D01*
X98767953Y-97896859D01*
X98822180Y-97733211D01*
X98832499Y-97632213D01*
X98832500Y-97632200D01*
X98832500Y-97595559D01*
X98095000Y-97595559D01*
X98095000Y-98320558D01*
X97545851Y-98320558D01*
X97594999Y-98320557D01*
X97595000Y-98320557D01*
X97595000Y-97095559D01*
X98095000Y-97095559D01*
X98832499Y-97095559D01*
X98832499Y-97058919D01*
X98832498Y-97058904D01*
X98822180Y-96957906D01*
X98767953Y-96794258D01*
X98767948Y-96794247D01*
X98677447Y-96647524D01*
X98677444Y-96647520D01*
X98555538Y-96525614D01*
X98555534Y-96525611D01*
X98408811Y-96435110D01*
X98408800Y-96435105D01*
X98245152Y-96380878D01*
X98144154Y-96370559D01*
X98095000Y-96370559D01*
X98095000Y-97095559D01*
X97595000Y-97095559D01*
X97595000Y-96370559D01*
X97594999Y-96370558D01*
X97545861Y-96370559D01*
X97545843Y-96370560D01*
X97444847Y-96380878D01*
X97281199Y-96435105D01*
X97281188Y-96435110D01*
X97134465Y-96525611D01*
X97020534Y-96639542D01*
X96959211Y-96673026D01*
X96889519Y-96668042D01*
X96845172Y-96639541D01*
X96730851Y-96525220D01*
X96730850Y-96525219D01*
X96639629Y-96468954D01*
X96584018Y-96434652D01*
X96584013Y-96434650D01*
X96582569Y-96434171D01*
X96420253Y-96380385D01*
X96420251Y-96380384D01*
X96319178Y-96370059D01*
X95720830Y-96370059D01*
X95720812Y-96370060D01*
X95619747Y-96380384D01*
X95455984Y-96434651D01*
X95455981Y-96434652D01*
X95309148Y-96525220D01*
X95187155Y-96647213D01*
X95186555Y-96647973D01*
X95186010Y-96648358D01*
X95182053Y-96652316D01*
X95181376Y-96651639D01*
X95129532Y-96688348D01*
X95089292Y-96695059D01*
X89748208Y-96695059D01*
X89681169Y-96675374D01*
X89655584Y-96652178D01*
X89655447Y-96652316D01*
X89652647Y-96649516D01*
X89650945Y-96647973D01*
X89650344Y-96647213D01*
X89528351Y-96525220D01*
X89528350Y-96525219D01*
X89437129Y-96468954D01*
X89381518Y-96434652D01*
X89381513Y-96434650D01*
X89380069Y-96434171D01*
X89217753Y-96380385D01*
X89217751Y-96380384D01*
X89116684Y-96370059D01*
X89116677Y-96370059D01*
X88679500Y-96370059D01*
X88612461Y-96350374D01*
X88566706Y-96297570D01*
X88555500Y-96246059D01*
X88555500Y-93839499D01*
X88575185Y-93772460D01*
X88627989Y-93726705D01*
X88679500Y-93715499D01*
X89116670Y-93715499D01*
X89116676Y-93715499D01*
X89217753Y-93705174D01*
X89381516Y-93650908D01*
X89528350Y-93560340D01*
X89650340Y-93438350D01*
X89650341Y-93438347D01*
X89650344Y-93438345D01*
X89650945Y-93437586D01*
X89651489Y-93437200D01*
X89655447Y-93433243D01*
X89656123Y-93433919D01*
X89707968Y-93397211D01*
X89748208Y-93390500D01*
X95089292Y-93390500D01*
X95156331Y-93410185D01*
X95181915Y-93433380D01*
X95182053Y-93433243D01*
X95184852Y-93436042D01*
X95186555Y-93437586D01*
X95187155Y-93438345D01*
X95187160Y-93438350D01*
X95309150Y-93560340D01*
X95455984Y-93650908D01*
X95619747Y-93705174D01*
X95720823Y-93715500D01*
X96319176Y-93715499D01*
X96319184Y-93715498D01*
X96319187Y-93715498D01*
X96374530Y-93709844D01*
X96420253Y-93705174D01*
X96584016Y-93650908D01*
X96730850Y-93560340D01*
X96845175Y-93446014D01*
X96906494Y-93412532D01*
X96976186Y-93417516D01*
X97020534Y-93446017D01*
X97134461Y-93559944D01*
X97134465Y-93559947D01*
X97281188Y-93650448D01*
X97281199Y-93650453D01*
X97444847Y-93704680D01*
X97545851Y-93714999D01*
X98095000Y-93714999D01*
X98144140Y-93714999D01*
X98144154Y-93714998D01*
X98245152Y-93704680D01*
X98408800Y-93650453D01*
X98408811Y-93650448D01*
X98555534Y-93559947D01*
X98555538Y-93559944D01*
X98677444Y-93438038D01*
X98677447Y-93438034D01*
X98767948Y-93291311D01*
X98767953Y-93291300D01*
X98822180Y-93127652D01*
X98832499Y-93026654D01*
X98832500Y-93026641D01*
X98832500Y-92990000D01*
X98095000Y-92990000D01*
X98095000Y-93714999D01*
X97545851Y-93714999D01*
X97594999Y-93714998D01*
X97595000Y-93714998D01*
X97595000Y-92490000D01*
X98095000Y-92490000D01*
X98832499Y-92490000D01*
X98832499Y-92453360D01*
X98832498Y-92453345D01*
X98822180Y-92352347D01*
X98767953Y-92188699D01*
X98767948Y-92188688D01*
X98677447Y-92041965D01*
X98677444Y-92041961D01*
X98555538Y-91920055D01*
X98555534Y-91920052D01*
X98408811Y-91829551D01*
X98408800Y-91829546D01*
X98245152Y-91775319D01*
X98144154Y-91765000D01*
X98095000Y-91765000D01*
X98095000Y-92490000D01*
X97595000Y-92490000D01*
X97595000Y-91765000D01*
X97594999Y-91764999D01*
X97545861Y-91765000D01*
X97545843Y-91765001D01*
X97444847Y-91775319D01*
X97281199Y-91829546D01*
X97281188Y-91829551D01*
X97134465Y-91920052D01*
X97020534Y-92033983D01*
X96959211Y-92067467D01*
X96889519Y-92062483D01*
X96845172Y-92033982D01*
X96730851Y-91919661D01*
X96730850Y-91919660D01*
X96617913Y-91850000D01*
X96584018Y-91829093D01*
X96584013Y-91829091D01*
X96575177Y-91826163D01*
X96420253Y-91774826D01*
X96420251Y-91774825D01*
X96319178Y-91764500D01*
X95720830Y-91764500D01*
X95720812Y-91764501D01*
X95619747Y-91774825D01*
X95455984Y-91829092D01*
X95455981Y-91829093D01*
X95309148Y-91919661D01*
X95187155Y-92041654D01*
X95186555Y-92042414D01*
X95186010Y-92042799D01*
X95182053Y-92046757D01*
X95181376Y-92046080D01*
X95129532Y-92082789D01*
X95089292Y-92089500D01*
X89748208Y-92089500D01*
X89681169Y-92069815D01*
X89655584Y-92046619D01*
X89655447Y-92046757D01*
X89652647Y-92043957D01*
X89650945Y-92042414D01*
X89650344Y-92041654D01*
X89528351Y-91919661D01*
X89528350Y-91919660D01*
X89415413Y-91850000D01*
X89381518Y-91829093D01*
X89381513Y-91829091D01*
X89372677Y-91826163D01*
X89217753Y-91774826D01*
X89217751Y-91774825D01*
X89116684Y-91764500D01*
X89116677Y-91764500D01*
X88679500Y-91764500D01*
X88612461Y-91744815D01*
X88566706Y-91692011D01*
X88555500Y-91640500D01*
X88555500Y-89602836D01*
X88575185Y-89535797D01*
X88627989Y-89490042D01*
X88679500Y-89478836D01*
X89116670Y-89478836D01*
X89116676Y-89478836D01*
X89217753Y-89468511D01*
X89381516Y-89414245D01*
X89528350Y-89323677D01*
X89650340Y-89201687D01*
X89650341Y-89201684D01*
X89650344Y-89201682D01*
X89650945Y-89200923D01*
X89651489Y-89200537D01*
X89655447Y-89196580D01*
X89656123Y-89197256D01*
X89707968Y-89160548D01*
X89748208Y-89153837D01*
X95089292Y-89153837D01*
X95156331Y-89173522D01*
X95181915Y-89196717D01*
X95182053Y-89196580D01*
X95184852Y-89199379D01*
X95186555Y-89200923D01*
X95187155Y-89201682D01*
X95187160Y-89201687D01*
X95309150Y-89323677D01*
X95455984Y-89414245D01*
X95619747Y-89468511D01*
X95720823Y-89478837D01*
X96319176Y-89478836D01*
X96319184Y-89478835D01*
X96319187Y-89478835D01*
X96374530Y-89473181D01*
X96420253Y-89468511D01*
X96584016Y-89414245D01*
X96730850Y-89323677D01*
X96845175Y-89209351D01*
X96906494Y-89175869D01*
X96976186Y-89180853D01*
X97020534Y-89209354D01*
X97134461Y-89323281D01*
X97134465Y-89323284D01*
X97281188Y-89413785D01*
X97281199Y-89413790D01*
X97444847Y-89468017D01*
X97545851Y-89478336D01*
X98095000Y-89478336D01*
X98144140Y-89478336D01*
X98144154Y-89478335D01*
X98245152Y-89468017D01*
X98408800Y-89413790D01*
X98408811Y-89413785D01*
X98555534Y-89323284D01*
X98555538Y-89323281D01*
X98677444Y-89201375D01*
X98677447Y-89201371D01*
X98767948Y-89054648D01*
X98767953Y-89054637D01*
X98822180Y-88890989D01*
X98832499Y-88789991D01*
X98832500Y-88789978D01*
X98832500Y-88753337D01*
X98095000Y-88753337D01*
X98095000Y-89478336D01*
X97545851Y-89478336D01*
X97594999Y-89478335D01*
X97595000Y-89478335D01*
X97595000Y-88253337D01*
X98095000Y-88253337D01*
X98832499Y-88253337D01*
X98832499Y-88216697D01*
X98832498Y-88216682D01*
X98822180Y-88115684D01*
X98767953Y-87952036D01*
X98767948Y-87952025D01*
X98677447Y-87805302D01*
X98677444Y-87805298D01*
X98555538Y-87683392D01*
X98555534Y-87683389D01*
X98408811Y-87592888D01*
X98408800Y-87592883D01*
X98245152Y-87538656D01*
X98144154Y-87528337D01*
X98095000Y-87528337D01*
X98095000Y-88253337D01*
X97595000Y-88253337D01*
X97595000Y-87528337D01*
X97594999Y-87528336D01*
X97545861Y-87528337D01*
X97545843Y-87528338D01*
X97444847Y-87538656D01*
X97281199Y-87592883D01*
X97281188Y-87592888D01*
X97134465Y-87683389D01*
X97020534Y-87797320D01*
X96959211Y-87830804D01*
X96889519Y-87825820D01*
X96845172Y-87797319D01*
X96730851Y-87682998D01*
X96730850Y-87682997D01*
X96639629Y-87626732D01*
X96584018Y-87592430D01*
X96584013Y-87592428D01*
X96575177Y-87589500D01*
X96420253Y-87538163D01*
X96420251Y-87538162D01*
X96319178Y-87527837D01*
X95720830Y-87527837D01*
X95720812Y-87527838D01*
X95619747Y-87538162D01*
X95455984Y-87592429D01*
X95455981Y-87592430D01*
X95309148Y-87682998D01*
X95187155Y-87804991D01*
X95186555Y-87805751D01*
X95186010Y-87806136D01*
X95182053Y-87810094D01*
X95181376Y-87809417D01*
X95129532Y-87846126D01*
X95089292Y-87852837D01*
X89748208Y-87852837D01*
X89681169Y-87833152D01*
X89655584Y-87809956D01*
X89655447Y-87810094D01*
X89652647Y-87807294D01*
X89650945Y-87805751D01*
X89650344Y-87804991D01*
X89528351Y-87682998D01*
X89528350Y-87682997D01*
X89437129Y-87626732D01*
X89381518Y-87592430D01*
X89381513Y-87592428D01*
X89372677Y-87589500D01*
X89217753Y-87538163D01*
X89217751Y-87538162D01*
X89116684Y-87527837D01*
X89116677Y-87527837D01*
X88679500Y-87527837D01*
X88612461Y-87508152D01*
X88566706Y-87455348D01*
X88555500Y-87403837D01*
X88555500Y-86220525D01*
X135714500Y-86220525D01*
X135714500Y-86479474D01*
X135714501Y-86479491D01*
X135748299Y-86736217D01*
X135748300Y-86736222D01*
X135748301Y-86736228D01*
X135748302Y-86736230D01*
X135815324Y-86986364D01*
X135914423Y-87225609D01*
X135914427Y-87225619D01*
X136043906Y-87449883D01*
X136201551Y-87655331D01*
X136201557Y-87655338D01*
X136384661Y-87838442D01*
X136384668Y-87838448D01*
X136590116Y-87996093D01*
X136814380Y-88125572D01*
X136814381Y-88125572D01*
X136814384Y-88125574D01*
X137053634Y-88224675D01*
X137303772Y-88291699D01*
X137560519Y-88325500D01*
X137560526Y-88325500D01*
X137819474Y-88325500D01*
X137819481Y-88325500D01*
X138076228Y-88291699D01*
X138326366Y-88224675D01*
X138565616Y-88125574D01*
X138789884Y-87996093D01*
X138995333Y-87838447D01*
X139178447Y-87655333D01*
X139336093Y-87449884D01*
X139465574Y-87225616D01*
X139564675Y-86986366D01*
X139631699Y-86736228D01*
X139665500Y-86479481D01*
X139665500Y-86220519D01*
X139631699Y-85963772D01*
X139564675Y-85713634D01*
X139465574Y-85474384D01*
X139424064Y-85402487D01*
X139336093Y-85250116D01*
X139178448Y-85044668D01*
X139178442Y-85044661D01*
X138995338Y-84861557D01*
X138995331Y-84861551D01*
X138789883Y-84703906D01*
X138565619Y-84574427D01*
X138565609Y-84574423D01*
X138326364Y-84475324D01*
X138201297Y-84441813D01*
X138076228Y-84408301D01*
X138076222Y-84408300D01*
X138076217Y-84408299D01*
X137819491Y-84374501D01*
X137819486Y-84374500D01*
X137819481Y-84374500D01*
X137560519Y-84374500D01*
X137560513Y-84374500D01*
X137560508Y-84374501D01*
X137303782Y-84408299D01*
X137303775Y-84408300D01*
X137303772Y-84408301D01*
X137250908Y-84422465D01*
X137053635Y-84475324D01*
X136814390Y-84574423D01*
X136814380Y-84574427D01*
X136590116Y-84703906D01*
X136384668Y-84861551D01*
X136384661Y-84861557D01*
X136201557Y-85044661D01*
X136201551Y-85044668D01*
X136043906Y-85250116D01*
X135914427Y-85474380D01*
X135914423Y-85474390D01*
X135815324Y-85713635D01*
X135748302Y-85963769D01*
X135748299Y-85963782D01*
X135714501Y-86220508D01*
X135714500Y-86220525D01*
X88555500Y-86220525D01*
X88555500Y-85181725D01*
X88575185Y-85114686D01*
X88627989Y-85068931D01*
X88679500Y-85057725D01*
X89116670Y-85057725D01*
X89116676Y-85057725D01*
X89217753Y-85047400D01*
X89381516Y-84993134D01*
X89528350Y-84902566D01*
X89650340Y-84780576D01*
X89650341Y-84780573D01*
X89650344Y-84780571D01*
X89650945Y-84779812D01*
X89651489Y-84779426D01*
X89655447Y-84775469D01*
X89656123Y-84776145D01*
X89707968Y-84739437D01*
X89748208Y-84732726D01*
X95089292Y-84732726D01*
X95156331Y-84752411D01*
X95181915Y-84775606D01*
X95182053Y-84775469D01*
X95184852Y-84778268D01*
X95186555Y-84779812D01*
X95187155Y-84780571D01*
X95187160Y-84780576D01*
X95309150Y-84902566D01*
X95455984Y-84993134D01*
X95619747Y-85047400D01*
X95720823Y-85057726D01*
X96319176Y-85057725D01*
X96319184Y-85057724D01*
X96319187Y-85057724D01*
X96374530Y-85052070D01*
X96420253Y-85047400D01*
X96584016Y-84993134D01*
X96730850Y-84902566D01*
X96845175Y-84788240D01*
X96906494Y-84754758D01*
X96976186Y-84759742D01*
X97020534Y-84788243D01*
X97134461Y-84902170D01*
X97134465Y-84902173D01*
X97281188Y-84992674D01*
X97281199Y-84992679D01*
X97444847Y-85046906D01*
X97545851Y-85057225D01*
X98095000Y-85057225D01*
X98144140Y-85057225D01*
X98144154Y-85057224D01*
X98245152Y-85046906D01*
X98408800Y-84992679D01*
X98408811Y-84992674D01*
X98555534Y-84902173D01*
X98555538Y-84902170D01*
X98677444Y-84780264D01*
X98677447Y-84780260D01*
X98767948Y-84633537D01*
X98767953Y-84633526D01*
X98822180Y-84469878D01*
X98832499Y-84368880D01*
X98832500Y-84368867D01*
X98832500Y-84332226D01*
X98095000Y-84332226D01*
X98095000Y-85057225D01*
X97545851Y-85057225D01*
X97594999Y-85057224D01*
X97595000Y-85057224D01*
X97595000Y-83832226D01*
X98095000Y-83832226D01*
X98832499Y-83832226D01*
X98832499Y-83795586D01*
X98832498Y-83795571D01*
X98822180Y-83694573D01*
X98767953Y-83530925D01*
X98767948Y-83530914D01*
X98677447Y-83384191D01*
X98677444Y-83384187D01*
X98555538Y-83262281D01*
X98555534Y-83262278D01*
X98408811Y-83171777D01*
X98408800Y-83171772D01*
X98245152Y-83117545D01*
X98144154Y-83107226D01*
X98095000Y-83107226D01*
X98095000Y-83832226D01*
X97595000Y-83832226D01*
X97595000Y-83107226D01*
X97594999Y-83107225D01*
X97545861Y-83107226D01*
X97545843Y-83107227D01*
X97444847Y-83117545D01*
X97281199Y-83171772D01*
X97281188Y-83171777D01*
X97134465Y-83262278D01*
X97020534Y-83376209D01*
X96959211Y-83409693D01*
X96889519Y-83404709D01*
X96845172Y-83376208D01*
X96730851Y-83261887D01*
X96730850Y-83261886D01*
X96639629Y-83205621D01*
X96584018Y-83171319D01*
X96584013Y-83171317D01*
X96575177Y-83168389D01*
X96420253Y-83117052D01*
X96420251Y-83117051D01*
X96319178Y-83106726D01*
X95720830Y-83106726D01*
X95720812Y-83106727D01*
X95619747Y-83117051D01*
X95455984Y-83171318D01*
X95455981Y-83171319D01*
X95309148Y-83261887D01*
X95187155Y-83383880D01*
X95186555Y-83384640D01*
X95186010Y-83385025D01*
X95182053Y-83388983D01*
X95181376Y-83388306D01*
X95129532Y-83425015D01*
X95089292Y-83431726D01*
X89748208Y-83431726D01*
X89681169Y-83412041D01*
X89655584Y-83388845D01*
X89655447Y-83388983D01*
X89652647Y-83386183D01*
X89650945Y-83384640D01*
X89650344Y-83383880D01*
X89528351Y-83261887D01*
X89528350Y-83261886D01*
X89437129Y-83205621D01*
X89381518Y-83171319D01*
X89381513Y-83171317D01*
X89372677Y-83168389D01*
X89217753Y-83117052D01*
X89217751Y-83117051D01*
X89116684Y-83106726D01*
X89116677Y-83106726D01*
X88679500Y-83106726D01*
X88612461Y-83087041D01*
X88566706Y-83034237D01*
X88555500Y-82982726D01*
X88555500Y-80839499D01*
X88575185Y-80772460D01*
X88627989Y-80726705D01*
X88679500Y-80715499D01*
X89116670Y-80715499D01*
X89116676Y-80715499D01*
X89217753Y-80705174D01*
X89381516Y-80650908D01*
X89528350Y-80560340D01*
X89650340Y-80438350D01*
X89650341Y-80438347D01*
X89650344Y-80438345D01*
X89650945Y-80437586D01*
X89651489Y-80437200D01*
X89655447Y-80433243D01*
X89656123Y-80433919D01*
X89707968Y-80397211D01*
X89748208Y-80390500D01*
X95089292Y-80390500D01*
X95156331Y-80410185D01*
X95181915Y-80433380D01*
X95182053Y-80433243D01*
X95184852Y-80436042D01*
X95186555Y-80437586D01*
X95187155Y-80438345D01*
X95187160Y-80438350D01*
X95309150Y-80560340D01*
X95455984Y-80650908D01*
X95619747Y-80705174D01*
X95720823Y-80715500D01*
X96319176Y-80715499D01*
X96319184Y-80715498D01*
X96319187Y-80715498D01*
X96374530Y-80709844D01*
X96420253Y-80705174D01*
X96584016Y-80650908D01*
X96730850Y-80560340D01*
X96845175Y-80446014D01*
X96906494Y-80412532D01*
X96976186Y-80417516D01*
X97020534Y-80446017D01*
X97134461Y-80559944D01*
X97134465Y-80559947D01*
X97281188Y-80650448D01*
X97281199Y-80650453D01*
X97444847Y-80704680D01*
X97545851Y-80714999D01*
X98095000Y-80714999D01*
X98144140Y-80714999D01*
X98144154Y-80714998D01*
X98245152Y-80704680D01*
X98408800Y-80650453D01*
X98408811Y-80650448D01*
X98555534Y-80559947D01*
X98555538Y-80559944D01*
X98677444Y-80438038D01*
X98677447Y-80438034D01*
X98767948Y-80291311D01*
X98767953Y-80291300D01*
X98822180Y-80127652D01*
X98832499Y-80026654D01*
X98832500Y-80026641D01*
X98832500Y-79990000D01*
X98095000Y-79990000D01*
X98095000Y-80714999D01*
X97545851Y-80714999D01*
X97594999Y-80714998D01*
X97595000Y-80714998D01*
X97595000Y-79490000D01*
X98095000Y-79490000D01*
X98832499Y-79490000D01*
X98832499Y-79453360D01*
X98832498Y-79453345D01*
X98822180Y-79352347D01*
X98767953Y-79188699D01*
X98767948Y-79188688D01*
X98677447Y-79041965D01*
X98677444Y-79041961D01*
X98555538Y-78920055D01*
X98555534Y-78920052D01*
X98408811Y-78829551D01*
X98408800Y-78829546D01*
X98245152Y-78775319D01*
X98144154Y-78765000D01*
X98095000Y-78765000D01*
X98095000Y-79490000D01*
X97595000Y-79490000D01*
X97595000Y-78765000D01*
X97594999Y-78764999D01*
X97545861Y-78765000D01*
X97545843Y-78765001D01*
X97444847Y-78775319D01*
X97281199Y-78829546D01*
X97281188Y-78829551D01*
X97134465Y-78920052D01*
X97020534Y-79033983D01*
X96959211Y-79067467D01*
X96889519Y-79062483D01*
X96845172Y-79033982D01*
X96730851Y-78919661D01*
X96730850Y-78919660D01*
X96639629Y-78863395D01*
X96584018Y-78829093D01*
X96584013Y-78829091D01*
X96575177Y-78826163D01*
X96420253Y-78774826D01*
X96420251Y-78774825D01*
X96319178Y-78764500D01*
X95720830Y-78764500D01*
X95720812Y-78764501D01*
X95619747Y-78774825D01*
X95455984Y-78829092D01*
X95455981Y-78829093D01*
X95309148Y-78919661D01*
X95187155Y-79041654D01*
X95186555Y-79042414D01*
X95186010Y-79042799D01*
X95182053Y-79046757D01*
X95181376Y-79046080D01*
X95129532Y-79082789D01*
X95089292Y-79089500D01*
X89748208Y-79089500D01*
X89681169Y-79069815D01*
X89655584Y-79046619D01*
X89655447Y-79046757D01*
X89652647Y-79043957D01*
X89650945Y-79042414D01*
X89650344Y-79041654D01*
X89528351Y-78919661D01*
X89528350Y-78919660D01*
X89437129Y-78863395D01*
X89381518Y-78829093D01*
X89381513Y-78829091D01*
X89372677Y-78826163D01*
X89217753Y-78774826D01*
X89217751Y-78774825D01*
X89116678Y-78764500D01*
X88443330Y-78764500D01*
X88443312Y-78764501D01*
X88342247Y-78774825D01*
X88178484Y-78829092D01*
X88178481Y-78829093D01*
X88031648Y-78919661D01*
X87992681Y-78958629D01*
X87931358Y-78992114D01*
X87861666Y-78987130D01*
X87817319Y-78958629D01*
X87778351Y-78919661D01*
X87778350Y-78919660D01*
X87687129Y-78863395D01*
X87631518Y-78829093D01*
X87631513Y-78829091D01*
X87622677Y-78826163D01*
X87467753Y-78774826D01*
X87467751Y-78774825D01*
X87366678Y-78764500D01*
X86693330Y-78764500D01*
X86693312Y-78764501D01*
X86592247Y-78774825D01*
X86428484Y-78829092D01*
X86428477Y-78829095D01*
X86359596Y-78871582D01*
X86292204Y-78890022D01*
X86225540Y-78869099D01*
X86180771Y-78815457D01*
X86170500Y-78766043D01*
X86170500Y-77070811D01*
X86190185Y-77003772D01*
X86206815Y-76983134D01*
X86938127Y-76251821D01*
X86999450Y-76218337D01*
X87025808Y-76215503D01*
X87366670Y-76215503D01*
X87366676Y-76215503D01*
X87467753Y-76205178D01*
X87631516Y-76150912D01*
X87778350Y-76060344D01*
X87817319Y-76021375D01*
X87878642Y-75987890D01*
X87948334Y-75992874D01*
X87992681Y-76021375D01*
X88031650Y-76060344D01*
X88178484Y-76150912D01*
X88342247Y-76205178D01*
X88443323Y-76215504D01*
X89116676Y-76215503D01*
X89116684Y-76215502D01*
X89116687Y-76215502D01*
X89207689Y-76206206D01*
X89217753Y-76205178D01*
X89381516Y-76150912D01*
X89528350Y-76060344D01*
X89650340Y-75938354D01*
X89650341Y-75938351D01*
X89650344Y-75938349D01*
X89650945Y-75937590D01*
X89651489Y-75937204D01*
X89655447Y-75933247D01*
X89656123Y-75933923D01*
X89707968Y-75897215D01*
X89748208Y-75890504D01*
X95089292Y-75890504D01*
X95156331Y-75910189D01*
X95181915Y-75933384D01*
X95182053Y-75933247D01*
X95184852Y-75936046D01*
X95186555Y-75937590D01*
X95187155Y-75938349D01*
X95187160Y-75938354D01*
X95309150Y-76060344D01*
X95455984Y-76150912D01*
X95619747Y-76205178D01*
X95720823Y-76215504D01*
X96319176Y-76215503D01*
X96319184Y-76215502D01*
X96319187Y-76215502D01*
X96410189Y-76206206D01*
X96420253Y-76205178D01*
X96584016Y-76150912D01*
X96730850Y-76060344D01*
X96845175Y-75946018D01*
X96906494Y-75912536D01*
X96976186Y-75917520D01*
X97020534Y-75946021D01*
X97134461Y-76059948D01*
X97134465Y-76059951D01*
X97281188Y-76150452D01*
X97281199Y-76150457D01*
X97444847Y-76204684D01*
X97545851Y-76215003D01*
X98095000Y-76215003D01*
X98144140Y-76215003D01*
X98144154Y-76215002D01*
X98245152Y-76204684D01*
X98408800Y-76150457D01*
X98408811Y-76150452D01*
X98555534Y-76059951D01*
X98555538Y-76059948D01*
X98677444Y-75938042D01*
X98677447Y-75938038D01*
X98767948Y-75791315D01*
X98767953Y-75791304D01*
X98822180Y-75627656D01*
X98832499Y-75526658D01*
X98832500Y-75526645D01*
X98832500Y-75490004D01*
X98095000Y-75490004D01*
X98095000Y-76215003D01*
X97545851Y-76215003D01*
X97594999Y-76215002D01*
X97595000Y-76215002D01*
X97595000Y-74990004D01*
X98095000Y-74990004D01*
X98832499Y-74990004D01*
X98832499Y-74953364D01*
X98832498Y-74953349D01*
X98822180Y-74852351D01*
X98767953Y-74688703D01*
X98767948Y-74688692D01*
X98677447Y-74541969D01*
X98677444Y-74541965D01*
X98555538Y-74420059D01*
X98555534Y-74420056D01*
X98408811Y-74329555D01*
X98408800Y-74329550D01*
X98245152Y-74275323D01*
X98144154Y-74265004D01*
X98095000Y-74265004D01*
X98095000Y-74990004D01*
X97595000Y-74990004D01*
X97595000Y-74265004D01*
X97594999Y-74265003D01*
X97545861Y-74265004D01*
X97545843Y-74265005D01*
X97444847Y-74275323D01*
X97281199Y-74329550D01*
X97281188Y-74329555D01*
X97134465Y-74420056D01*
X97020534Y-74533987D01*
X96959211Y-74567471D01*
X96889519Y-74562487D01*
X96845172Y-74533986D01*
X96730851Y-74419665D01*
X96730850Y-74419664D01*
X96585782Y-74330185D01*
X96584018Y-74329097D01*
X96584013Y-74329095D01*
X96575165Y-74326163D01*
X96420253Y-74274830D01*
X96420251Y-74274829D01*
X96319178Y-74264504D01*
X95720830Y-74264504D01*
X95720812Y-74264505D01*
X95619747Y-74274829D01*
X95455984Y-74329096D01*
X95455981Y-74329097D01*
X95309148Y-74419665D01*
X95187155Y-74541658D01*
X95186555Y-74542418D01*
X95186010Y-74542803D01*
X95182053Y-74546761D01*
X95181376Y-74546084D01*
X95129532Y-74582793D01*
X95089292Y-74589504D01*
X89748208Y-74589504D01*
X89681169Y-74569819D01*
X89655584Y-74546623D01*
X89655447Y-74546761D01*
X89652647Y-74543961D01*
X89650945Y-74542418D01*
X89650344Y-74541658D01*
X89528351Y-74419665D01*
X89528350Y-74419664D01*
X89383282Y-74330185D01*
X89381518Y-74329097D01*
X89381513Y-74329095D01*
X89372665Y-74326163D01*
X89217753Y-74274830D01*
X89217751Y-74274829D01*
X89116678Y-74264504D01*
X88443330Y-74264504D01*
X88443312Y-74264505D01*
X88342247Y-74274829D01*
X88178484Y-74329096D01*
X88178481Y-74329097D01*
X88031648Y-74419665D01*
X87992681Y-74458633D01*
X87931358Y-74492118D01*
X87861666Y-74487134D01*
X87817319Y-74458633D01*
X87778351Y-74419665D01*
X87778350Y-74419664D01*
X87633282Y-74330185D01*
X87631518Y-74329097D01*
X87631513Y-74329095D01*
X87622665Y-74326163D01*
X87467753Y-74274830D01*
X87467751Y-74274829D01*
X87366678Y-74264504D01*
X86693330Y-74264504D01*
X86693312Y-74264505D01*
X86592247Y-74274829D01*
X86428484Y-74329096D01*
X86428481Y-74329097D01*
X86281648Y-74419665D01*
X86159661Y-74541652D01*
X86069093Y-74688485D01*
X86069091Y-74688490D01*
X86068595Y-74689987D01*
X86014826Y-74852251D01*
X86014826Y-74852252D01*
X86014825Y-74852252D01*
X86004500Y-74953319D01*
X86004500Y-75294195D01*
X85984815Y-75361234D01*
X85968181Y-75381876D01*
X85014724Y-76335333D01*
X85014723Y-76335335D01*
X84966396Y-76407664D01*
X84966393Y-76407668D01*
X84966391Y-76407670D01*
X84943539Y-76441868D01*
X84943533Y-76441879D01*
X84894499Y-76560259D01*
X84894497Y-76560265D01*
X84869500Y-76685932D01*
X84869500Y-76685935D01*
X84869500Y-82636295D01*
X84869500Y-82636297D01*
X84869499Y-82636297D01*
X83050500Y-82636297D01*
X83050500Y-40159568D01*
X100049500Y-40159568D01*
X100049500Y-40440431D01*
X100080942Y-40719494D01*
X100080945Y-40719512D01*
X100143439Y-40993317D01*
X100143443Y-40993329D01*
X100236200Y-41258411D01*
X100358053Y-41511442D01*
X100358055Y-41511445D01*
X100507477Y-41749248D01*
X100682584Y-41968825D01*
X100881175Y-42167416D01*
X101100752Y-42342523D01*
X101338555Y-42491945D01*
X101591592Y-42613801D01*
X101790680Y-42683465D01*
X101856670Y-42706556D01*
X101856682Y-42706560D01*
X102130491Y-42769055D01*
X102130497Y-42769055D01*
X102130505Y-42769057D01*
X102316547Y-42790018D01*
X102409569Y-42800499D01*
X102409572Y-42800500D01*
X102409575Y-42800500D01*
X102690428Y-42800500D01*
X102690429Y-42800499D01*
X102833055Y-42784429D01*
X102969494Y-42769057D01*
X102969499Y-42769056D01*
X102969509Y-42769055D01*
X103243318Y-42706560D01*
X103508408Y-42613801D01*
X103761445Y-42491945D01*
X103999248Y-42342523D01*
X104218825Y-42167416D01*
X104417416Y-41968825D01*
X104592523Y-41749248D01*
X104741945Y-41511445D01*
X104863801Y-41258408D01*
X104956560Y-40993318D01*
X105019055Y-40719509D01*
X105050500Y-40440425D01*
X105050500Y-40159575D01*
X105050499Y-40159568D01*
X194449500Y-40159568D01*
X194449500Y-40440431D01*
X194480942Y-40719494D01*
X194480945Y-40719512D01*
X194543439Y-40993317D01*
X194543443Y-40993329D01*
X194636200Y-41258411D01*
X194758053Y-41511442D01*
X194758055Y-41511445D01*
X194907477Y-41749248D01*
X195082584Y-41968825D01*
X195281175Y-42167416D01*
X195500752Y-42342523D01*
X195738555Y-42491945D01*
X195991592Y-42613801D01*
X196190680Y-42683465D01*
X196256670Y-42706556D01*
X196256682Y-42706560D01*
X196530491Y-42769055D01*
X196530497Y-42769055D01*
X196530505Y-42769057D01*
X196716547Y-42790018D01*
X196809569Y-42800499D01*
X196809572Y-42800500D01*
X196809575Y-42800500D01*
X197090428Y-42800500D01*
X197090429Y-42800499D01*
X197233055Y-42784429D01*
X197369494Y-42769057D01*
X197369499Y-42769056D01*
X197369509Y-42769055D01*
X197643318Y-42706560D01*
X197908408Y-42613801D01*
X198161445Y-42491945D01*
X198399248Y-42342523D01*
X198618825Y-42167416D01*
X198817416Y-41968825D01*
X198992523Y-41749248D01*
X199141945Y-41511445D01*
X199263801Y-41258408D01*
X199356560Y-40993318D01*
X199419055Y-40719509D01*
X199450500Y-40440425D01*
X199450500Y-40159575D01*
X199419055Y-39880491D01*
X199356560Y-39606682D01*
X199263801Y-39341592D01*
X199141945Y-39088555D01*
X198992523Y-38850752D01*
X198817416Y-38631175D01*
X198618825Y-38432584D01*
X198399248Y-38257477D01*
X198161445Y-38108055D01*
X198161442Y-38108053D01*
X197908411Y-37986200D01*
X197643329Y-37893443D01*
X197643317Y-37893439D01*
X197369512Y-37830945D01*
X197369494Y-37830942D01*
X197090431Y-37799500D01*
X197090425Y-37799500D01*
X196809575Y-37799500D01*
X196809568Y-37799500D01*
X196530505Y-37830942D01*
X196530487Y-37830945D01*
X196256682Y-37893439D01*
X196256670Y-37893443D01*
X195991588Y-37986200D01*
X195738557Y-38108053D01*
X195500753Y-38257476D01*
X195281175Y-38432583D01*
X195082583Y-38631175D01*
X194907476Y-38850753D01*
X194758053Y-39088557D01*
X194636200Y-39341588D01*
X194543443Y-39606670D01*
X194543439Y-39606682D01*
X194480945Y-39880487D01*
X194480942Y-39880505D01*
X194449500Y-40159568D01*
X105050499Y-40159568D01*
X105019055Y-39880491D01*
X104956560Y-39606682D01*
X104863801Y-39341592D01*
X104741945Y-39088555D01*
X104592523Y-38850752D01*
X104417416Y-38631175D01*
X104218825Y-38432584D01*
X103999248Y-38257477D01*
X103761445Y-38108055D01*
X103761442Y-38108053D01*
X103508411Y-37986200D01*
X103243329Y-37893443D01*
X103243317Y-37893439D01*
X102969512Y-37830945D01*
X102969494Y-37830942D01*
X102690431Y-37799500D01*
X102690425Y-37799500D01*
X102409575Y-37799500D01*
X102409568Y-37799500D01*
X102130505Y-37830942D01*
X102130487Y-37830945D01*
X101856682Y-37893439D01*
X101856670Y-37893443D01*
X101591588Y-37986200D01*
X101338557Y-38108053D01*
X101100753Y-38257476D01*
X100881175Y-38432583D01*
X100682583Y-38631175D01*
X100507476Y-38850753D01*
X100358053Y-39088557D01*
X100236200Y-39341588D01*
X100143443Y-39606670D01*
X100143439Y-39606682D01*
X100080945Y-39880487D01*
X100080942Y-39880505D01*
X100049500Y-40159568D01*
X83050500Y-40159568D01*
X83050500Y-34677871D01*
X83050632Y-34672144D01*
X83067296Y-34311696D01*
X83068353Y-34300292D01*
X83102438Y-34055946D01*
X83117809Y-33945757D01*
X83119909Y-33934520D01*
X83201869Y-33586049D01*
X83204992Y-33575070D01*
X83318763Y-33235623D01*
X83322886Y-33224984D01*
X83467482Y-32897503D01*
X83472574Y-32887277D01*
X83646768Y-32574541D01*
X83652794Y-32564809D01*
X83855103Y-32269472D01*
X83861985Y-32260360D01*
X84090682Y-31984951D01*
X84098376Y-31976511D01*
X84351511Y-31723376D01*
X84359951Y-31715682D01*
X84635360Y-31486985D01*
X84644472Y-31480103D01*
X84939814Y-31277790D01*
X84949541Y-31271768D01*
X85262277Y-31097574D01*
X85272503Y-31092482D01*
X85599984Y-30947886D01*
X85610623Y-30943763D01*
X85950070Y-30829992D01*
X85961049Y-30826869D01*
X86309520Y-30744909D01*
X86320757Y-30742809D01*
X86675301Y-30693352D01*
X86686687Y-30692296D01*
X87047145Y-30675632D01*
X87052872Y-30675500D01*
X87115892Y-30675500D01*
X212984108Y-30675500D01*
X213047128Y-30675500D01*
X213052855Y-30675632D01*
G37*
G04 #@! TD.AperFunction*
M02*
