G04 #@! TF.GenerationSoftware,KiCad,Pcbnew,8.0.5*
G04 #@! TF.CreationDate,2025-02-21T17:38:33-06:00*
G04 #@! TF.ProjectId,ArmorPlate,41726d6f-7250-46c6-9174-652e6b696361,rev?*
G04 #@! TF.SameCoordinates,Original*
G04 #@! TF.FileFunction,Legend,Bot*
G04 #@! TF.FilePolarity,Positive*
%FSLAX46Y46*%
G04 Gerber Fmt 4.6, Leading zero omitted, Abs format (unit mm)*
G04 Created by KiCad (PCBNEW 8.0.5) date 2025-02-21 17:38:33*
%MOMM*%
%LPD*%
G01*
G04 APERTURE LIST*
%ADD10C,0.150000*%
%ADD11C,0.120000*%
%ADD12C,0.900000*%
%ADD13C,4.500000*%
%ADD14C,3.450000*%
%ADD15R,2.000000X2.000000*%
%ADD16C,2.000000*%
G04 APERTURE END LIST*
D10*
X177085714Y-70581009D02*
X176942857Y-70628628D01*
X176942857Y-70628628D02*
X176895238Y-70676247D01*
X176895238Y-70676247D02*
X176847619Y-70771485D01*
X176847619Y-70771485D02*
X176847619Y-70914342D01*
X176847619Y-70914342D02*
X176895238Y-71009580D01*
X176895238Y-71009580D02*
X176942857Y-71057200D01*
X176942857Y-71057200D02*
X177038095Y-71104819D01*
X177038095Y-71104819D02*
X177419047Y-71104819D01*
X177419047Y-71104819D02*
X177419047Y-70104819D01*
X177419047Y-70104819D02*
X177085714Y-70104819D01*
X177085714Y-70104819D02*
X176990476Y-70152438D01*
X176990476Y-70152438D02*
X176942857Y-70200057D01*
X176942857Y-70200057D02*
X176895238Y-70295295D01*
X176895238Y-70295295D02*
X176895238Y-70390533D01*
X176895238Y-70390533D02*
X176942857Y-70485771D01*
X176942857Y-70485771D02*
X176990476Y-70533390D01*
X176990476Y-70533390D02*
X177085714Y-70581009D01*
X177085714Y-70581009D02*
X177419047Y-70581009D01*
X176561904Y-70104819D02*
X175990476Y-70104819D01*
X176276190Y-71104819D02*
X176276190Y-70104819D01*
X175133333Y-71104819D02*
X175704761Y-71104819D01*
X175419047Y-71104819D02*
X175419047Y-70104819D01*
X175419047Y-70104819D02*
X175514285Y-70247676D01*
X175514285Y-70247676D02*
X175609523Y-70342914D01*
X175609523Y-70342914D02*
X175704761Y-70390533D01*
X164171428Y-77764700D02*
X163028571Y-77764700D01*
X163599999Y-78336128D02*
X163599999Y-77193271D01*
X164171428Y-90464700D02*
X163028571Y-90464700D01*
X141771428Y-90464700D02*
X140628571Y-90464700D01*
X141199999Y-91036128D02*
X141199999Y-89893271D01*
X180681428Y-90464700D02*
X179538571Y-90464700D01*
X141771428Y-77764700D02*
X140628571Y-77764700D01*
X180681428Y-77764700D02*
X179538571Y-77764700D01*
X180109999Y-78336128D02*
X180109999Y-77193271D01*
D11*
X125800000Y-71600000D02*
X125800000Y-96400000D01*
X125800000Y-96405000D02*
X179000000Y-96405000D01*
X127230000Y-84350000D02*
X147550000Y-84350000D01*
X127230000Y-95430000D02*
X127230000Y-72570000D01*
X129770000Y-72570000D02*
X127230000Y-72570000D01*
X129770000Y-73840000D02*
X129770000Y-72570000D01*
X129770000Y-94160000D02*
X129770000Y-95430000D01*
X129770000Y-95430000D02*
X127230000Y-95430000D01*
X142470000Y-72570000D02*
X142470000Y-73840000D01*
X142470000Y-73840000D02*
X129770000Y-73840000D01*
X142470000Y-75110000D02*
X161060000Y-75110000D01*
X142470000Y-80190000D02*
X142470000Y-75110000D01*
X142470000Y-89080000D02*
X143740000Y-89080000D01*
X142470000Y-91620000D02*
X142470000Y-89080000D01*
X142470000Y-94160000D02*
X129770000Y-94160000D01*
X142470000Y-94160000D02*
X142470000Y-95430000D01*
X142470000Y-95430000D02*
X162330000Y-95430000D01*
X143740000Y-87810000D02*
X162330000Y-87810000D01*
X143740000Y-89080000D02*
X143740000Y-87810000D01*
X143740000Y-91620000D02*
X142470000Y-91620000D01*
X143740000Y-92890000D02*
X143740000Y-91620000D01*
X147550000Y-83650000D02*
X127230000Y-83650000D01*
X147550000Y-84350000D02*
X147550000Y-83650000D01*
X154710000Y-83650000D02*
X177570000Y-83650000D01*
X154710000Y-84350000D02*
X154710000Y-83650000D01*
X161060000Y-75110000D02*
X161060000Y-76380000D01*
X161060000Y-76380000D02*
X162330000Y-76380000D01*
X161060000Y-78920000D02*
X161060000Y-80190000D01*
X161060000Y-80190000D02*
X142470000Y-80190000D01*
X162330000Y-72570000D02*
X142470000Y-72570000D01*
X162330000Y-73840000D02*
X162330000Y-72570000D01*
X162330000Y-73840000D02*
X175030000Y-73840000D01*
X162330000Y-76380000D02*
X162330000Y-78920000D01*
X162330000Y-78920000D02*
X161060000Y-78920000D01*
X162330000Y-87810000D02*
X162330000Y-92890000D01*
X162330000Y-92890000D02*
X143740000Y-92890000D01*
X162330000Y-94160000D02*
X175030000Y-94160000D01*
X162330000Y-95430000D02*
X162330000Y-94160000D01*
X175030000Y-72570000D02*
X175030000Y-73840000D01*
X175030000Y-94160000D02*
X175030000Y-95430000D01*
X175030000Y-95430000D02*
X177570000Y-95430000D01*
X177570000Y-72570000D02*
X175030000Y-72570000D01*
X177570000Y-84350000D02*
X154710000Y-84350000D01*
X177570000Y-95430000D02*
X177570000Y-72570000D01*
X179000000Y-71595000D02*
X125800000Y-71595000D01*
X179000000Y-96400000D02*
X179000000Y-71600000D01*
%LPC*%
D12*
X146130000Y-116840000D03*
X151130000Y-116840000D03*
D13*
X102550000Y-144700000D03*
X102550000Y-40300000D03*
X196950000Y-40300000D03*
X196950000Y-144700000D03*
D14*
X137690000Y-86350000D03*
D15*
X176300000Y-77650000D03*
D16*
X176300000Y-90350000D03*
%LPD*%
M02*
