%TF.GenerationSoftware,KiCad,Pcbnew,8.0.5*%
%TF.CreationDate,2025-02-21T17:39:50-06:00*%
%TF.ProjectId,ArmorPlate,41726d6f-7250-46c6-9174-652e6b696361,rev?*%
%TF.SameCoordinates,Original*%
%TF.FileFunction,Drillmap*%
%TF.FilePolarity,Positive*%
%FSLAX45Y45*%
G04 Gerber Fmt 4.5, Leading zero omitted, Abs format (unit mm)*
G04 Created by KiCad (PCBNEW 8.0.5) date 2025-02-21 17:39:50*
%MOMM*%
%LPD*%
G01*
G04 APERTURE LIST*
%ADD10C,0.050000*%
%ADD11C,0.200000*%
%ADD12C,0.102000*%
G04 APERTURE END LIST*
D10*
X21755000Y-15074500D02*
G75*
G02*
X21305000Y-15524500I-450000J0D01*
G01*
X21305000Y-3017500D02*
G75*
G02*
X21755000Y-3467500I0J-450000D01*
G01*
X21755000Y-3467500D02*
X21755000Y-15074500D01*
X8255000Y-15074500D02*
X8255000Y-3467500D01*
X8255000Y-3467500D02*
G75*
G02*
X8705000Y-3017500I450000J0D01*
G01*
X21305000Y-15524500D02*
X8705000Y-15524500D01*
X8705000Y-3017500D02*
X21305000Y-3017500D01*
X8705000Y-15524500D02*
G75*
G02*
X8255000Y-15074500I0J450000D01*
G01*
D11*
D12*
X17579000Y-7714000D02*
X17681000Y-7816000D01*
X17681000Y-7714000D02*
X17579000Y-7816000D01*
X17579000Y-8984000D02*
X17681000Y-9086000D01*
X17681000Y-8984000D02*
X17579000Y-9086000D01*
D11*
X8513277Y-15838484D02*
X8513277Y-15638484D01*
X8513277Y-15638484D02*
X8560896Y-15638484D01*
X8560896Y-15638484D02*
X8589467Y-15648008D01*
X8589467Y-15648008D02*
X8608515Y-15667055D01*
X8608515Y-15667055D02*
X8618039Y-15686103D01*
X8618039Y-15686103D02*
X8627563Y-15724198D01*
X8627563Y-15724198D02*
X8627563Y-15752769D01*
X8627563Y-15752769D02*
X8618039Y-15790865D01*
X8618039Y-15790865D02*
X8608515Y-15809912D01*
X8608515Y-15809912D02*
X8589467Y-15828960D01*
X8589467Y-15828960D02*
X8560896Y-15838484D01*
X8560896Y-15838484D02*
X8513277Y-15838484D01*
X8713277Y-15838484D02*
X8713277Y-15705150D01*
X8713277Y-15743246D02*
X8722801Y-15724198D01*
X8722801Y-15724198D02*
X8732324Y-15714674D01*
X8732324Y-15714674D02*
X8751372Y-15705150D01*
X8751372Y-15705150D02*
X8770420Y-15705150D01*
X8837086Y-15838484D02*
X8837086Y-15705150D01*
X8837086Y-15638484D02*
X8827563Y-15648008D01*
X8827563Y-15648008D02*
X8837086Y-15657531D01*
X8837086Y-15657531D02*
X8846610Y-15648008D01*
X8846610Y-15648008D02*
X8837086Y-15638484D01*
X8837086Y-15638484D02*
X8837086Y-15657531D01*
X8960896Y-15838484D02*
X8941848Y-15828960D01*
X8941848Y-15828960D02*
X8932324Y-15809912D01*
X8932324Y-15809912D02*
X8932324Y-15638484D01*
X9065658Y-15838484D02*
X9046610Y-15828960D01*
X9046610Y-15828960D02*
X9037086Y-15809912D01*
X9037086Y-15809912D02*
X9037086Y-15638484D01*
X9294229Y-15838484D02*
X9294229Y-15638484D01*
X9294229Y-15638484D02*
X9360896Y-15781341D01*
X9360896Y-15781341D02*
X9427563Y-15638484D01*
X9427563Y-15638484D02*
X9427563Y-15838484D01*
X9608515Y-15838484D02*
X9608515Y-15733722D01*
X9608515Y-15733722D02*
X9598991Y-15714674D01*
X9598991Y-15714674D02*
X9579944Y-15705150D01*
X9579944Y-15705150D02*
X9541848Y-15705150D01*
X9541848Y-15705150D02*
X9522801Y-15714674D01*
X9608515Y-15828960D02*
X9589467Y-15838484D01*
X9589467Y-15838484D02*
X9541848Y-15838484D01*
X9541848Y-15838484D02*
X9522801Y-15828960D01*
X9522801Y-15828960D02*
X9513277Y-15809912D01*
X9513277Y-15809912D02*
X9513277Y-15790865D01*
X9513277Y-15790865D02*
X9522801Y-15771817D01*
X9522801Y-15771817D02*
X9541848Y-15762293D01*
X9541848Y-15762293D02*
X9589467Y-15762293D01*
X9589467Y-15762293D02*
X9608515Y-15752769D01*
X9703753Y-15705150D02*
X9703753Y-15905150D01*
X9703753Y-15714674D02*
X9722801Y-15705150D01*
X9722801Y-15705150D02*
X9760896Y-15705150D01*
X9760896Y-15705150D02*
X9779944Y-15714674D01*
X9779944Y-15714674D02*
X9789467Y-15724198D01*
X9789467Y-15724198D02*
X9798991Y-15743246D01*
X9798991Y-15743246D02*
X9798991Y-15800388D01*
X9798991Y-15800388D02*
X9789467Y-15819436D01*
X9789467Y-15819436D02*
X9779944Y-15828960D01*
X9779944Y-15828960D02*
X9760896Y-15838484D01*
X9760896Y-15838484D02*
X9722801Y-15838484D01*
X9722801Y-15838484D02*
X9703753Y-15828960D01*
X9884705Y-15819436D02*
X9894229Y-15828960D01*
X9894229Y-15828960D02*
X9884705Y-15838484D01*
X9884705Y-15838484D02*
X9875182Y-15828960D01*
X9875182Y-15828960D02*
X9884705Y-15819436D01*
X9884705Y-15819436D02*
X9884705Y-15838484D01*
X9884705Y-15714674D02*
X9894229Y-15724198D01*
X9894229Y-15724198D02*
X9884705Y-15733722D01*
X9884705Y-15733722D02*
X9875182Y-15724198D01*
X9875182Y-15724198D02*
X9884705Y-15714674D01*
X9884705Y-15714674D02*
X9884705Y-15733722D01*
D12*
X8150500Y-16116000D02*
X8252500Y-16218000D01*
X8252500Y-16116000D02*
X8150500Y-16218000D01*
D11*
X8618039Y-16258484D02*
X8503753Y-16258484D01*
X8560896Y-16258484D02*
X8560896Y-16058484D01*
X8560896Y-16058484D02*
X8541848Y-16087055D01*
X8541848Y-16087055D02*
X8522801Y-16106103D01*
X8522801Y-16106103D02*
X8503753Y-16115627D01*
X8703753Y-16239436D02*
X8713277Y-16248960D01*
X8713277Y-16248960D02*
X8703753Y-16258484D01*
X8703753Y-16258484D02*
X8694229Y-16248960D01*
X8694229Y-16248960D02*
X8703753Y-16239436D01*
X8703753Y-16239436D02*
X8703753Y-16258484D01*
X8837086Y-16058484D02*
X8856134Y-16058484D01*
X8856134Y-16058484D02*
X8875182Y-16068008D01*
X8875182Y-16068008D02*
X8884705Y-16077531D01*
X8884705Y-16077531D02*
X8894229Y-16096579D01*
X8894229Y-16096579D02*
X8903753Y-16134674D01*
X8903753Y-16134674D02*
X8903753Y-16182293D01*
X8903753Y-16182293D02*
X8894229Y-16220388D01*
X8894229Y-16220388D02*
X8884705Y-16239436D01*
X8884705Y-16239436D02*
X8875182Y-16248960D01*
X8875182Y-16248960D02*
X8856134Y-16258484D01*
X8856134Y-16258484D02*
X8837086Y-16258484D01*
X8837086Y-16258484D02*
X8818039Y-16248960D01*
X8818039Y-16248960D02*
X8808515Y-16239436D01*
X8808515Y-16239436D02*
X8798991Y-16220388D01*
X8798991Y-16220388D02*
X8789467Y-16182293D01*
X8789467Y-16182293D02*
X8789467Y-16134674D01*
X8789467Y-16134674D02*
X8798991Y-16096579D01*
X8798991Y-16096579D02*
X8808515Y-16077531D01*
X8808515Y-16077531D02*
X8818039Y-16068008D01*
X8818039Y-16068008D02*
X8837086Y-16058484D01*
X8979944Y-16077531D02*
X8989467Y-16068008D01*
X8989467Y-16068008D02*
X9008515Y-16058484D01*
X9008515Y-16058484D02*
X9056134Y-16058484D01*
X9056134Y-16058484D02*
X9075182Y-16068008D01*
X9075182Y-16068008D02*
X9084705Y-16077531D01*
X9084705Y-16077531D02*
X9094229Y-16096579D01*
X9094229Y-16096579D02*
X9094229Y-16115627D01*
X9094229Y-16115627D02*
X9084705Y-16144198D01*
X9084705Y-16144198D02*
X8970420Y-16258484D01*
X8970420Y-16258484D02*
X9094229Y-16258484D01*
X9218039Y-16058484D02*
X9237086Y-16058484D01*
X9237086Y-16058484D02*
X9256134Y-16068008D01*
X9256134Y-16068008D02*
X9265658Y-16077531D01*
X9265658Y-16077531D02*
X9275182Y-16096579D01*
X9275182Y-16096579D02*
X9284705Y-16134674D01*
X9284705Y-16134674D02*
X9284705Y-16182293D01*
X9284705Y-16182293D02*
X9275182Y-16220388D01*
X9275182Y-16220388D02*
X9265658Y-16239436D01*
X9265658Y-16239436D02*
X9256134Y-16248960D01*
X9256134Y-16248960D02*
X9237086Y-16258484D01*
X9237086Y-16258484D02*
X9218039Y-16258484D01*
X9218039Y-16258484D02*
X9198991Y-16248960D01*
X9198991Y-16248960D02*
X9189467Y-16239436D01*
X9189467Y-16239436D02*
X9179944Y-16220388D01*
X9179944Y-16220388D02*
X9170420Y-16182293D01*
X9170420Y-16182293D02*
X9170420Y-16134674D01*
X9170420Y-16134674D02*
X9179944Y-16096579D01*
X9179944Y-16096579D02*
X9189467Y-16077531D01*
X9189467Y-16077531D02*
X9198991Y-16068008D01*
X9198991Y-16068008D02*
X9218039Y-16058484D01*
X9370420Y-16258484D02*
X9370420Y-16125150D01*
X9370420Y-16144198D02*
X9379944Y-16134674D01*
X9379944Y-16134674D02*
X9398991Y-16125150D01*
X9398991Y-16125150D02*
X9427563Y-16125150D01*
X9427563Y-16125150D02*
X9446610Y-16134674D01*
X9446610Y-16134674D02*
X9456134Y-16153722D01*
X9456134Y-16153722D02*
X9456134Y-16258484D01*
X9456134Y-16153722D02*
X9465658Y-16134674D01*
X9465658Y-16134674D02*
X9484705Y-16125150D01*
X9484705Y-16125150D02*
X9513277Y-16125150D01*
X9513277Y-16125150D02*
X9532325Y-16134674D01*
X9532325Y-16134674D02*
X9541848Y-16153722D01*
X9541848Y-16153722D02*
X9541848Y-16258484D01*
X9637086Y-16258484D02*
X9637086Y-16125150D01*
X9637086Y-16144198D02*
X9646610Y-16134674D01*
X9646610Y-16134674D02*
X9665658Y-16125150D01*
X9665658Y-16125150D02*
X9694229Y-16125150D01*
X9694229Y-16125150D02*
X9713277Y-16134674D01*
X9713277Y-16134674D02*
X9722801Y-16153722D01*
X9722801Y-16153722D02*
X9722801Y-16258484D01*
X9722801Y-16153722D02*
X9732325Y-16134674D01*
X9732325Y-16134674D02*
X9751372Y-16125150D01*
X9751372Y-16125150D02*
X9779944Y-16125150D01*
X9779944Y-16125150D02*
X9798991Y-16134674D01*
X9798991Y-16134674D02*
X9808515Y-16153722D01*
X9808515Y-16153722D02*
X9808515Y-16258484D01*
X10198991Y-16048960D02*
X10027563Y-16306103D01*
X10456134Y-16058484D02*
X10475182Y-16058484D01*
X10475182Y-16058484D02*
X10494229Y-16068008D01*
X10494229Y-16068008D02*
X10503753Y-16077531D01*
X10503753Y-16077531D02*
X10513277Y-16096579D01*
X10513277Y-16096579D02*
X10522801Y-16134674D01*
X10522801Y-16134674D02*
X10522801Y-16182293D01*
X10522801Y-16182293D02*
X10513277Y-16220388D01*
X10513277Y-16220388D02*
X10503753Y-16239436D01*
X10503753Y-16239436D02*
X10494229Y-16248960D01*
X10494229Y-16248960D02*
X10475182Y-16258484D01*
X10475182Y-16258484D02*
X10456134Y-16258484D01*
X10456134Y-16258484D02*
X10437087Y-16248960D01*
X10437087Y-16248960D02*
X10427563Y-16239436D01*
X10427563Y-16239436D02*
X10418039Y-16220388D01*
X10418039Y-16220388D02*
X10408515Y-16182293D01*
X10408515Y-16182293D02*
X10408515Y-16134674D01*
X10408515Y-16134674D02*
X10418039Y-16096579D01*
X10418039Y-16096579D02*
X10427563Y-16077531D01*
X10427563Y-16077531D02*
X10437087Y-16068008D01*
X10437087Y-16068008D02*
X10456134Y-16058484D01*
X10608515Y-16239436D02*
X10618039Y-16248960D01*
X10618039Y-16248960D02*
X10608515Y-16258484D01*
X10608515Y-16258484D02*
X10598991Y-16248960D01*
X10598991Y-16248960D02*
X10608515Y-16239436D01*
X10608515Y-16239436D02*
X10608515Y-16258484D01*
X10741848Y-16058484D02*
X10760896Y-16058484D01*
X10760896Y-16058484D02*
X10779944Y-16068008D01*
X10779944Y-16068008D02*
X10789468Y-16077531D01*
X10789468Y-16077531D02*
X10798991Y-16096579D01*
X10798991Y-16096579D02*
X10808515Y-16134674D01*
X10808515Y-16134674D02*
X10808515Y-16182293D01*
X10808515Y-16182293D02*
X10798991Y-16220388D01*
X10798991Y-16220388D02*
X10789468Y-16239436D01*
X10789468Y-16239436D02*
X10779944Y-16248960D01*
X10779944Y-16248960D02*
X10760896Y-16258484D01*
X10760896Y-16258484D02*
X10741848Y-16258484D01*
X10741848Y-16258484D02*
X10722801Y-16248960D01*
X10722801Y-16248960D02*
X10713277Y-16239436D01*
X10713277Y-16239436D02*
X10703753Y-16220388D01*
X10703753Y-16220388D02*
X10694229Y-16182293D01*
X10694229Y-16182293D02*
X10694229Y-16134674D01*
X10694229Y-16134674D02*
X10703753Y-16096579D01*
X10703753Y-16096579D02*
X10713277Y-16077531D01*
X10713277Y-16077531D02*
X10722801Y-16068008D01*
X10722801Y-16068008D02*
X10741848Y-16058484D01*
X10979944Y-16125150D02*
X10979944Y-16258484D01*
X10932325Y-16048960D02*
X10884706Y-16191817D01*
X10884706Y-16191817D02*
X11008515Y-16191817D01*
X11122801Y-16058484D02*
X11141849Y-16058484D01*
X11141849Y-16058484D02*
X11160896Y-16068008D01*
X11160896Y-16068008D02*
X11170420Y-16077531D01*
X11170420Y-16077531D02*
X11179944Y-16096579D01*
X11179944Y-16096579D02*
X11189467Y-16134674D01*
X11189467Y-16134674D02*
X11189467Y-16182293D01*
X11189467Y-16182293D02*
X11179944Y-16220388D01*
X11179944Y-16220388D02*
X11170420Y-16239436D01*
X11170420Y-16239436D02*
X11160896Y-16248960D01*
X11160896Y-16248960D02*
X11141849Y-16258484D01*
X11141849Y-16258484D02*
X11122801Y-16258484D01*
X11122801Y-16258484D02*
X11103753Y-16248960D01*
X11103753Y-16248960D02*
X11094229Y-16239436D01*
X11094229Y-16239436D02*
X11084706Y-16220388D01*
X11084706Y-16220388D02*
X11075182Y-16182293D01*
X11075182Y-16182293D02*
X11075182Y-16134674D01*
X11075182Y-16134674D02*
X11084706Y-16096579D01*
X11084706Y-16096579D02*
X11094229Y-16077531D01*
X11094229Y-16077531D02*
X11103753Y-16068008D01*
X11103753Y-16068008D02*
X11122801Y-16058484D01*
X11265658Y-16077531D02*
X11275182Y-16068008D01*
X11275182Y-16068008D02*
X11294229Y-16058484D01*
X11294229Y-16058484D02*
X11341848Y-16058484D01*
X11341848Y-16058484D02*
X11360896Y-16068008D01*
X11360896Y-16068008D02*
X11370420Y-16077531D01*
X11370420Y-16077531D02*
X11379944Y-16096579D01*
X11379944Y-16096579D02*
X11379944Y-16115627D01*
X11379944Y-16115627D02*
X11370420Y-16144198D01*
X11370420Y-16144198D02*
X11256134Y-16258484D01*
X11256134Y-16258484D02*
X11379944Y-16258484D01*
X11456134Y-16058484D02*
X11456134Y-16096579D01*
X11532325Y-16058484D02*
X11532325Y-16096579D01*
X11827563Y-16334674D02*
X11818039Y-16325150D01*
X11818039Y-16325150D02*
X11798991Y-16296579D01*
X11798991Y-16296579D02*
X11789468Y-16277531D01*
X11789468Y-16277531D02*
X11779944Y-16248960D01*
X11779944Y-16248960D02*
X11770420Y-16201341D01*
X11770420Y-16201341D02*
X11770420Y-16163246D01*
X11770420Y-16163246D02*
X11779944Y-16115627D01*
X11779944Y-16115627D02*
X11789468Y-16087055D01*
X11789468Y-16087055D02*
X11798991Y-16068008D01*
X11798991Y-16068008D02*
X11818039Y-16039436D01*
X11818039Y-16039436D02*
X11827563Y-16029912D01*
X11894229Y-16077531D02*
X11903753Y-16068008D01*
X11903753Y-16068008D02*
X11922801Y-16058484D01*
X11922801Y-16058484D02*
X11970420Y-16058484D01*
X11970420Y-16058484D02*
X11989468Y-16068008D01*
X11989468Y-16068008D02*
X11998991Y-16077531D01*
X11998991Y-16077531D02*
X12008515Y-16096579D01*
X12008515Y-16096579D02*
X12008515Y-16115627D01*
X12008515Y-16115627D02*
X11998991Y-16144198D01*
X11998991Y-16144198D02*
X11884706Y-16258484D01*
X11884706Y-16258484D02*
X12008515Y-16258484D01*
X12246610Y-16258484D02*
X12246610Y-16058484D01*
X12332325Y-16258484D02*
X12332325Y-16153722D01*
X12332325Y-16153722D02*
X12322801Y-16134674D01*
X12322801Y-16134674D02*
X12303753Y-16125150D01*
X12303753Y-16125150D02*
X12275182Y-16125150D01*
X12275182Y-16125150D02*
X12256134Y-16134674D01*
X12256134Y-16134674D02*
X12246610Y-16144198D01*
X12456134Y-16258484D02*
X12437087Y-16248960D01*
X12437087Y-16248960D02*
X12427563Y-16239436D01*
X12427563Y-16239436D02*
X12418039Y-16220388D01*
X12418039Y-16220388D02*
X12418039Y-16163246D01*
X12418039Y-16163246D02*
X12427563Y-16144198D01*
X12427563Y-16144198D02*
X12437087Y-16134674D01*
X12437087Y-16134674D02*
X12456134Y-16125150D01*
X12456134Y-16125150D02*
X12484706Y-16125150D01*
X12484706Y-16125150D02*
X12503753Y-16134674D01*
X12503753Y-16134674D02*
X12513277Y-16144198D01*
X12513277Y-16144198D02*
X12522801Y-16163246D01*
X12522801Y-16163246D02*
X12522801Y-16220388D01*
X12522801Y-16220388D02*
X12513277Y-16239436D01*
X12513277Y-16239436D02*
X12503753Y-16248960D01*
X12503753Y-16248960D02*
X12484706Y-16258484D01*
X12484706Y-16258484D02*
X12456134Y-16258484D01*
X12637087Y-16258484D02*
X12618039Y-16248960D01*
X12618039Y-16248960D02*
X12608515Y-16229912D01*
X12608515Y-16229912D02*
X12608515Y-16058484D01*
X12789468Y-16248960D02*
X12770420Y-16258484D01*
X12770420Y-16258484D02*
X12732325Y-16258484D01*
X12732325Y-16258484D02*
X12713277Y-16248960D01*
X12713277Y-16248960D02*
X12703753Y-16229912D01*
X12703753Y-16229912D02*
X12703753Y-16153722D01*
X12703753Y-16153722D02*
X12713277Y-16134674D01*
X12713277Y-16134674D02*
X12732325Y-16125150D01*
X12732325Y-16125150D02*
X12770420Y-16125150D01*
X12770420Y-16125150D02*
X12789468Y-16134674D01*
X12789468Y-16134674D02*
X12798991Y-16153722D01*
X12798991Y-16153722D02*
X12798991Y-16172769D01*
X12798991Y-16172769D02*
X12703753Y-16191817D01*
X12875182Y-16248960D02*
X12894230Y-16258484D01*
X12894230Y-16258484D02*
X12932325Y-16258484D01*
X12932325Y-16258484D02*
X12951372Y-16248960D01*
X12951372Y-16248960D02*
X12960896Y-16229912D01*
X12960896Y-16229912D02*
X12960896Y-16220388D01*
X12960896Y-16220388D02*
X12951372Y-16201341D01*
X12951372Y-16201341D02*
X12932325Y-16191817D01*
X12932325Y-16191817D02*
X12903753Y-16191817D01*
X12903753Y-16191817D02*
X12884706Y-16182293D01*
X12884706Y-16182293D02*
X12875182Y-16163246D01*
X12875182Y-16163246D02*
X12875182Y-16153722D01*
X12875182Y-16153722D02*
X12884706Y-16134674D01*
X12884706Y-16134674D02*
X12903753Y-16125150D01*
X12903753Y-16125150D02*
X12932325Y-16125150D01*
X12932325Y-16125150D02*
X12951372Y-16134674D01*
X13027563Y-16334674D02*
X13037087Y-16325150D01*
X13037087Y-16325150D02*
X13056134Y-16296579D01*
X13056134Y-16296579D02*
X13065658Y-16277531D01*
X13065658Y-16277531D02*
X13075182Y-16248960D01*
X13075182Y-16248960D02*
X13084706Y-16201341D01*
X13084706Y-16201341D02*
X13084706Y-16163246D01*
X13084706Y-16163246D02*
X13075182Y-16115627D01*
X13075182Y-16115627D02*
X13065658Y-16087055D01*
X13065658Y-16087055D02*
X13056134Y-16068008D01*
X13056134Y-16068008D02*
X13037087Y-16039436D01*
X13037087Y-16039436D02*
X13027563Y-16029912D01*
M02*
