M48
; DRILL file {KiCad 8.0.4} date 2025-02-21T00:53:03-0600
; FORMAT={-:-/ absolute / metric / decimal}
; #@! TF.CreationDate,2025-02-21T00:53:03-06:00
; #@! TF.GenerationSoftware,Kicad,Pcbnew,8.0.4
; #@! TF.FileFunction,Plated,1,2,PTH
FMAT,2
METRIC
; #@! TA.AperFunction,Plated,PTH,ViaDrill
T1C0.400
; #@! TA.AperFunction,Plated,PTH,ComponentDrill
T2C1.020
; #@! TA.AperFunction,Plated,PTH,ComponentDrill
T3C2.700
%
G90
G05
T1
X72.644Y-52.324
X75.946Y-52.324
X79.4Y-84.6
X81.3Y-82.7
T2
X79.995Y-60.579
X79.995Y-65.179
X83.495Y-60.579
X83.495Y-65.179
X86.995Y-60.579
X86.995Y-65.179
X90.495Y-60.579
X90.495Y-65.179
X93.995Y-60.579
X93.995Y-65.179
X97.495Y-60.579
X97.495Y-65.179
X100.995Y-60.579
X100.995Y-65.179
X104.495Y-60.579
X104.495Y-65.179
X126.6Y-56.2
X126.6Y-59.7
X126.6Y-63.2
X126.6Y-66.7
X131.2Y-56.2
X131.2Y-59.7
X131.2Y-63.2
X131.2Y-66.7
T3
X65.75Y-78.994
X66.167Y-42.926
X70.75Y-78.994
X71.167Y-42.926
X94.441Y-42.926
X94.5Y-78.994
X99.441Y-42.926
X99.5Y-78.994
X123.5Y-42.5
X123.5Y-79.0
X128.5Y-42.5
X128.5Y-79.0
M30
