G04 #@! TF.GenerationSoftware,KiCad,Pcbnew,7.0.7*
G04 #@! TF.CreationDate,2024-03-23T22:07:43-05:00*
G04 #@! TF.ProjectId,Turret,54757272-6574-42e6-9b69-6361645f7063,rev?*
G04 #@! TF.SameCoordinates,Original*
G04 #@! TF.FileFunction,Copper,L1,Top*
G04 #@! TF.FilePolarity,Positive*
%FSLAX46Y46*%
G04 Gerber Fmt 4.6, Leading zero omitted, Abs format (unit mm)*
G04 Created by KiCad (PCBNEW 7.0.7) date 2024-03-23 22:07:43*
%MOMM*%
%LPD*%
G01*
G04 APERTURE LIST*
G04 Aperture macros list*
%AMRoundRect*
0 Rectangle with rounded corners*
0 $1 Rounding radius*
0 $2 $3 $4 $5 $6 $7 $8 $9 X,Y pos of 4 corners*
0 Add a 4 corners polygon primitive as box body*
4,1,4,$2,$3,$4,$5,$6,$7,$8,$9,$2,$3,0*
0 Add four circle primitives for the rounded corners*
1,1,$1+$1,$2,$3*
1,1,$1+$1,$4,$5*
1,1,$1+$1,$6,$7*
1,1,$1+$1,$8,$9*
0 Add four rect primitives between the rounded corners*
20,1,$1+$1,$2,$3,$4,$5,0*
20,1,$1+$1,$4,$5,$6,$7,0*
20,1,$1+$1,$6,$7,$8,$9,0*
20,1,$1+$1,$8,$9,$2,$3,0*%
G04 Aperture macros list end*
G04 #@! TA.AperFunction,SMDPad,CuDef*
%ADD10RoundRect,0.150000X0.700000X-0.150000X0.700000X0.150000X-0.700000X0.150000X-0.700000X-0.150000X0*%
G04 #@! TD*
G04 #@! TA.AperFunction,SMDPad,CuDef*
%ADD11RoundRect,0.250000X1.150000X-0.250000X1.150000X0.250000X-1.150000X0.250000X-1.150000X-0.250000X0*%
G04 #@! TD*
G04 #@! TA.AperFunction,ComponentPad*
%ADD12R,3.800000X3.800000*%
G04 #@! TD*
G04 #@! TA.AperFunction,ComponentPad*
%ADD13C,4.000000*%
G04 #@! TD*
G04 #@! TA.AperFunction,SMDPad,CuDef*
%ADD14RoundRect,0.150000X-0.150000X-0.700000X0.150000X-0.700000X0.150000X0.700000X-0.150000X0.700000X0*%
G04 #@! TD*
G04 #@! TA.AperFunction,SMDPad,CuDef*
%ADD15RoundRect,0.250000X-0.250000X-1.150000X0.250000X-1.150000X0.250000X1.150000X-0.250000X1.150000X0*%
G04 #@! TD*
G04 #@! TA.AperFunction,ComponentPad*
%ADD16C,2.000000*%
G04 #@! TD*
G04 #@! TA.AperFunction,ComponentPad*
%ADD17R,1.520000X1.520000*%
G04 #@! TD*
G04 #@! TA.AperFunction,ComponentPad*
%ADD18C,1.520000*%
G04 #@! TD*
G04 #@! TA.AperFunction,ViaPad*
%ADD19C,0.800000*%
G04 #@! TD*
G04 #@! TA.AperFunction,Conductor*
%ADD20C,0.250000*%
G04 #@! TD*
G04 #@! TA.AperFunction,Conductor*
%ADD21C,0.500000*%
G04 #@! TD*
G04 APERTURE END LIST*
D10*
X77538888Y-63597000D03*
X77538888Y-62347000D03*
X77538888Y-61097000D03*
X77538888Y-59847000D03*
D11*
X74188888Y-65447000D03*
X74188888Y-57997000D03*
D12*
X68393600Y-40090000D03*
D13*
X68393600Y-45090000D03*
D14*
X99810000Y-58846000D03*
X101060000Y-58846000D03*
X102310000Y-58846000D03*
X103560000Y-58846000D03*
D15*
X97960000Y-55496000D03*
X105410000Y-55496000D03*
D10*
X90932000Y-63597000D03*
X90932000Y-62347000D03*
X90932000Y-61097000D03*
X90932000Y-59847000D03*
D11*
X87582000Y-65447000D03*
X87582000Y-57997000D03*
D14*
X53340000Y-44540000D03*
X54590000Y-44540000D03*
D15*
X51490000Y-41190000D03*
X56440000Y-41190000D03*
D14*
X53340000Y-81327000D03*
X54590000Y-81327000D03*
D15*
X51490000Y-77977000D03*
X56440000Y-77977000D03*
D12*
X126108000Y-40090000D03*
D13*
X126108000Y-45090000D03*
D16*
X133959600Y-38100000D03*
D12*
X97250800Y-40090000D03*
D13*
X97250800Y-45090000D03*
D14*
X111054400Y-44540000D03*
X112304400Y-44540000D03*
D15*
X109204400Y-41190000D03*
X114154400Y-41190000D03*
D14*
X82197200Y-81327000D03*
X83447200Y-81327000D03*
D15*
X80347200Y-77977000D03*
X85297200Y-77977000D03*
D16*
X118999000Y-84074000D03*
D14*
X113675000Y-63672000D03*
X114925000Y-63672000D03*
D15*
X111825000Y-60322000D03*
X116775000Y-60322000D03*
D16*
X133959600Y-84175600D03*
D12*
X126108000Y-82134000D03*
D13*
X126108000Y-77134000D03*
D12*
X68393600Y-81877000D03*
D13*
X68393600Y-76877000D03*
D16*
X140450000Y-72339200D03*
D17*
X131188000Y-56266000D03*
D18*
X131188000Y-59766001D03*
X131188000Y-63266001D03*
X131188000Y-66766002D03*
X126587999Y-56266000D03*
X126587999Y-59766001D03*
X126587999Y-63266001D03*
X126587999Y-66766002D03*
D10*
X64145778Y-63597000D03*
X64145778Y-62347000D03*
X64145778Y-61097000D03*
X64145778Y-59847000D03*
D11*
X60795778Y-65447000D03*
X60795778Y-57997000D03*
D10*
X50752668Y-63597000D03*
X50752668Y-62347000D03*
X50752668Y-61097000D03*
X50752668Y-59847000D03*
D11*
X47402668Y-65447000D03*
X47402668Y-57997000D03*
D12*
X97250800Y-81877000D03*
D13*
X97250800Y-76877000D03*
D14*
X111054400Y-81327000D03*
X112304400Y-81327000D03*
D15*
X109204400Y-77977000D03*
X114154400Y-77977000D03*
D14*
X82197200Y-44540000D03*
X83447200Y-44540000D03*
D15*
X80347200Y-41190000D03*
X85297200Y-41190000D03*
D14*
X99810000Y-69260000D03*
X101060000Y-69260000D03*
X102310000Y-69260000D03*
X103560000Y-69260000D03*
D15*
X97960000Y-65910000D03*
X105410000Y-65910000D03*
D16*
X140450000Y-50342800D03*
D19*
X72644000Y-52324000D03*
X75946000Y-52324000D03*
X80391000Y-83566000D03*
X108712000Y-83566000D03*
X78105000Y-85852000D03*
X106426000Y-85852000D03*
D20*
X75946000Y-52324000D02*
X71120000Y-57150000D01*
X112304400Y-81598751D02*
X108940151Y-84963000D01*
X71120000Y-57150000D02*
X71120000Y-67056000D01*
X54590000Y-44684000D02*
X62230000Y-52324000D01*
X83447200Y-44822800D02*
X83447200Y-44540000D01*
X75946000Y-52324000D02*
X83447200Y-44822800D01*
X58226000Y-84963000D02*
X86868000Y-84963000D01*
X83447200Y-81542200D02*
X83447200Y-81327000D01*
X112304400Y-81327000D02*
X112304400Y-81598751D01*
X54590000Y-44540000D02*
X54590000Y-44684000D01*
X73914000Y-69850000D02*
X76962000Y-69850000D01*
X83447200Y-76335200D02*
X83447200Y-81327000D01*
X71120000Y-67056000D02*
X73914000Y-69850000D01*
X83439000Y-44548200D02*
X83447200Y-44540000D01*
X62230000Y-52324000D02*
X72644000Y-52324000D01*
X86868000Y-84963000D02*
X85090000Y-83185000D01*
X76962000Y-69850000D02*
X83447200Y-76335200D01*
X108940151Y-84963000D02*
X86868000Y-84963000D01*
X85090000Y-83185000D02*
X83447200Y-81542200D01*
X54590000Y-81327000D02*
X58226000Y-84963000D01*
X70104000Y-56642000D02*
X73397200Y-53348800D01*
X82197200Y-77117200D02*
X76200000Y-71120000D01*
X108712000Y-83566000D02*
X110951000Y-81327000D01*
X53340000Y-81327000D02*
X53340000Y-81598751D01*
X82197200Y-44540000D02*
X73397200Y-53340000D01*
X73397200Y-53348800D02*
X73397200Y-53340000D01*
X78105000Y-85852000D02*
X106426000Y-85852000D01*
X53340000Y-81598751D02*
X57593249Y-85852000D01*
X80391000Y-83566000D02*
X82197200Y-81759800D01*
X73660000Y-71120000D02*
X70104000Y-67564000D01*
X70104000Y-67564000D02*
X70104000Y-56642000D01*
X82197200Y-81327000D02*
X82197200Y-77117200D01*
X82197200Y-81759800D02*
X82197200Y-81327000D01*
X57593249Y-85852000D02*
X78105000Y-85852000D01*
X73397200Y-53340000D02*
X61868249Y-53340000D01*
X110951000Y-81327000D02*
X111054400Y-81327000D01*
X53340000Y-44811751D02*
X53340000Y-44540000D01*
X61868249Y-53340000D02*
X53340000Y-44811751D01*
X76200000Y-71120000D02*
X73660000Y-71120000D01*
X64145778Y-62347000D02*
X50752668Y-62347000D01*
X50752668Y-61097000D02*
X64145778Y-61097000D01*
X77538888Y-62347000D02*
X90932000Y-62347000D01*
X77538888Y-61097000D02*
X90932000Y-61097000D01*
X133098000Y-38100000D02*
X133959600Y-38100000D01*
X126108000Y-45090000D02*
X133098000Y-38100000D01*
X133149600Y-84175600D02*
X133959600Y-84175600D01*
X126108000Y-77134000D02*
X133149600Y-84175600D01*
X126587999Y-66766002D02*
X132161197Y-72339200D01*
X132161197Y-72339200D02*
X140450000Y-72339200D01*
D21*
X103560000Y-58846000D02*
X103560000Y-69260000D01*
D20*
X111054400Y-44540000D02*
X111054400Y-51110400D01*
X113675000Y-53731000D02*
X113675000Y-63672000D01*
X111054400Y-51110400D02*
X113675000Y-53731000D01*
X110998000Y-44596400D02*
X111054400Y-44540000D01*
X114808000Y-63555000D02*
X114925000Y-63672000D01*
X114808000Y-52832000D02*
X114808000Y-63555000D01*
X112304400Y-50328400D02*
X114808000Y-52832000D01*
X112304400Y-44540000D02*
X112304400Y-50328400D01*
X101060000Y-58846000D02*
X101060000Y-69260000D01*
X102310000Y-58846000D02*
X102310000Y-69260000D01*
D21*
X77538888Y-59847000D02*
X90932000Y-59847000D01*
X50752668Y-59847000D02*
X64145778Y-59847000D01*
G04 #@! TA.AperFunction,Conductor*
G36*
X140451513Y-34400575D02*
G01*
X140809571Y-34418165D01*
X140815624Y-34418760D01*
X141168724Y-34471138D01*
X141174676Y-34472321D01*
X141463435Y-34544651D01*
X141520953Y-34559059D01*
X141526774Y-34560824D01*
X141862867Y-34681081D01*
X141868486Y-34683409D01*
X142191181Y-34836031D01*
X142196539Y-34838894D01*
X142502713Y-35022408D01*
X142507775Y-35025790D01*
X142794494Y-35238436D01*
X142799198Y-35242296D01*
X143063699Y-35482025D01*
X143067974Y-35486300D01*
X143231782Y-35667035D01*
X143307701Y-35750799D01*
X143311563Y-35755505D01*
X143524209Y-36042224D01*
X143527591Y-36047286D01*
X143711098Y-36353448D01*
X143713968Y-36358818D01*
X143866590Y-36681513D01*
X143868920Y-36687137D01*
X143989173Y-37023220D01*
X143990940Y-37029046D01*
X144077674Y-37375304D01*
X144078861Y-37381275D01*
X144131238Y-37734370D01*
X144131834Y-37740428D01*
X144149425Y-38098485D01*
X144149500Y-38101528D01*
X144149500Y-84098470D01*
X144149425Y-84101513D01*
X144131834Y-84459571D01*
X144131238Y-84465629D01*
X144078861Y-84818724D01*
X144077674Y-84824695D01*
X143990940Y-85170953D01*
X143989173Y-85176779D01*
X143868920Y-85512862D01*
X143866590Y-85518486D01*
X143713968Y-85841181D01*
X143711098Y-85846551D01*
X143527591Y-86152713D01*
X143524209Y-86157775D01*
X143311563Y-86444494D01*
X143307701Y-86449200D01*
X143067989Y-86713684D01*
X143063689Y-86717983D01*
X142968751Y-86804029D01*
X142799200Y-86957701D01*
X142794494Y-86961563D01*
X142507775Y-87174209D01*
X142502713Y-87177591D01*
X142196551Y-87361098D01*
X142191181Y-87363968D01*
X141868486Y-87516590D01*
X141862862Y-87518920D01*
X141526779Y-87639173D01*
X141520953Y-87640940D01*
X141174695Y-87727674D01*
X141168724Y-87728861D01*
X140815629Y-87781238D01*
X140809571Y-87781834D01*
X140451514Y-87799425D01*
X140448471Y-87799500D01*
X44451529Y-87799500D01*
X44448486Y-87799425D01*
X44090428Y-87781834D01*
X44084370Y-87781238D01*
X43731275Y-87728861D01*
X43725307Y-87727674D01*
X43667188Y-87713116D01*
X43379046Y-87640940D01*
X43373220Y-87639173D01*
X43037137Y-87518920D01*
X43031513Y-87516590D01*
X42708818Y-87363968D01*
X42703453Y-87361101D01*
X42397286Y-87177591D01*
X42392224Y-87174209D01*
X42105505Y-86961563D01*
X42100799Y-86957701D01*
X41982295Y-86850296D01*
X41836300Y-86717974D01*
X41832025Y-86713699D01*
X41592296Y-86449198D01*
X41588436Y-86444494D01*
X41375790Y-86157775D01*
X41372408Y-86152713D01*
X41188894Y-85846539D01*
X41186031Y-85841181D01*
X41033409Y-85518486D01*
X41031079Y-85512862D01*
X41022218Y-85488098D01*
X40910824Y-85176774D01*
X40909059Y-85170953D01*
X40891382Y-85100382D01*
X40822321Y-84824676D01*
X40821138Y-84818724D01*
X40768761Y-84465629D01*
X40768165Y-84459571D01*
X40756960Y-84231489D01*
X42695500Y-84231489D01*
X42734690Y-84491503D01*
X42734692Y-84491509D01*
X42812202Y-84742788D01*
X42926295Y-84979705D01*
X42926297Y-84979707D01*
X42926298Y-84979710D01*
X43074430Y-85196980D01*
X43253290Y-85389746D01*
X43458883Y-85553701D01*
X43686616Y-85685183D01*
X43931402Y-85781254D01*
X44187772Y-85839769D01*
X44187778Y-85839769D01*
X44187781Y-85839770D01*
X44384340Y-85854500D01*
X44384346Y-85854500D01*
X44515660Y-85854500D01*
X44712218Y-85839770D01*
X44712220Y-85839769D01*
X44712228Y-85839769D01*
X44968598Y-85781254D01*
X45213384Y-85685183D01*
X45441117Y-85553701D01*
X45646710Y-85389746D01*
X45825570Y-85196980D01*
X45973702Y-84979710D01*
X46087798Y-84742788D01*
X46165308Y-84491508D01*
X46167442Y-84477354D01*
X46204499Y-84231489D01*
X46204500Y-84231480D01*
X46204500Y-83968519D01*
X46204499Y-83968510D01*
X46165309Y-83708496D01*
X46165307Y-83708490D01*
X46087798Y-83457212D01*
X45973702Y-83220290D01*
X45825570Y-83003020D01*
X45646710Y-82810254D01*
X45441117Y-82646299D01*
X45213384Y-82514817D01*
X44968598Y-82418746D01*
X44968593Y-82418744D01*
X44968584Y-82418742D01*
X44730121Y-82364315D01*
X44712228Y-82360231D01*
X44712227Y-82360230D01*
X44712223Y-82360230D01*
X44712218Y-82360229D01*
X44515660Y-82345500D01*
X44515654Y-82345500D01*
X44384346Y-82345500D01*
X44384340Y-82345500D01*
X44187781Y-82360229D01*
X44187776Y-82360230D01*
X43931415Y-82418742D01*
X43931396Y-82418748D01*
X43686615Y-82514817D01*
X43458883Y-82646299D01*
X43253290Y-82810254D01*
X43253288Y-82810256D01*
X43074430Y-83003019D01*
X42926295Y-83220294D01*
X42812202Y-83457211D01*
X42734692Y-83708490D01*
X42734690Y-83708496D01*
X42695500Y-83968510D01*
X42695500Y-84231489D01*
X40756960Y-84231489D01*
X40750575Y-84101512D01*
X40750500Y-84098470D01*
X40750500Y-82092696D01*
X52539500Y-82092696D01*
X52542401Y-82129567D01*
X52542402Y-82129573D01*
X52588254Y-82287393D01*
X52588255Y-82287396D01*
X52671917Y-82428862D01*
X52671923Y-82428870D01*
X52788129Y-82545076D01*
X52788133Y-82545079D01*
X52788135Y-82545081D01*
X52929602Y-82628744D01*
X52971224Y-82640836D01*
X53087426Y-82674597D01*
X53087429Y-82674597D01*
X53087431Y-82674598D01*
X53093810Y-82675100D01*
X53124304Y-82677500D01*
X53124306Y-82677500D01*
X53482797Y-82677500D01*
X53549836Y-82697185D01*
X53570477Y-82713818D01*
X55334008Y-84477350D01*
X57092446Y-86235788D01*
X57102271Y-86248051D01*
X57102492Y-86247869D01*
X57107463Y-86253878D01*
X57133466Y-86278295D01*
X57157884Y-86301226D01*
X57178778Y-86322120D01*
X57184260Y-86326373D01*
X57188692Y-86330157D01*
X57222667Y-86362062D01*
X57240225Y-86371714D01*
X57256484Y-86382395D01*
X57272313Y-86394673D01*
X57315087Y-86413182D01*
X57320305Y-86415738D01*
X57361157Y-86438197D01*
X57380565Y-86443180D01*
X57398966Y-86449480D01*
X57417353Y-86457437D01*
X57460737Y-86464308D01*
X57463368Y-86464725D01*
X57469088Y-86465909D01*
X57514230Y-86477500D01*
X57534265Y-86477500D01*
X57553663Y-86479026D01*
X57573443Y-86482159D01*
X57573444Y-86482160D01*
X57573444Y-86482159D01*
X57573445Y-86482160D01*
X57619832Y-86477775D01*
X57625671Y-86477500D01*
X77401252Y-86477500D01*
X77468291Y-86497185D01*
X77493400Y-86518526D01*
X77499126Y-86524885D01*
X77499130Y-86524889D01*
X77652265Y-86636148D01*
X77652270Y-86636151D01*
X77825192Y-86713142D01*
X77825197Y-86713144D01*
X78010354Y-86752500D01*
X78010355Y-86752500D01*
X78199644Y-86752500D01*
X78199646Y-86752500D01*
X78384803Y-86713144D01*
X78557730Y-86636151D01*
X78710871Y-86524888D01*
X78713788Y-86521647D01*
X78716600Y-86518526D01*
X78776087Y-86481879D01*
X78808748Y-86477500D01*
X105722252Y-86477500D01*
X105789291Y-86497185D01*
X105814400Y-86518526D01*
X105820126Y-86524885D01*
X105820130Y-86524889D01*
X105973265Y-86636148D01*
X105973270Y-86636151D01*
X106146192Y-86713142D01*
X106146197Y-86713144D01*
X106331354Y-86752500D01*
X106331355Y-86752500D01*
X106520644Y-86752500D01*
X106520646Y-86752500D01*
X106705803Y-86713144D01*
X106878730Y-86636151D01*
X107031871Y-86524888D01*
X107158533Y-86384216D01*
X107253179Y-86220284D01*
X107311674Y-86040256D01*
X107331460Y-85852000D01*
X107318160Y-85725459D01*
X107330730Y-85656732D01*
X107378462Y-85605708D01*
X107441481Y-85588500D01*
X108857408Y-85588500D01*
X108873028Y-85590224D01*
X108873055Y-85589939D01*
X108880811Y-85590671D01*
X108880818Y-85590673D01*
X108949965Y-85588500D01*
X108979501Y-85588500D01*
X108986379Y-85587630D01*
X108992192Y-85587172D01*
X109038778Y-85585709D01*
X109058020Y-85580117D01*
X109077063Y-85576174D01*
X109096943Y-85573664D01*
X109140273Y-85556507D01*
X109145797Y-85554617D01*
X109149547Y-85553527D01*
X109190541Y-85541618D01*
X109207780Y-85531422D01*
X109225254Y-85522862D01*
X109243878Y-85515488D01*
X109243878Y-85515487D01*
X109243883Y-85515486D01*
X109281600Y-85488082D01*
X109286456Y-85484892D01*
X109326571Y-85461170D01*
X109340740Y-85446999D01*
X109355530Y-85434368D01*
X109371738Y-85422594D01*
X109401450Y-85386676D01*
X109405363Y-85382376D01*
X110713734Y-84074005D01*
X117493357Y-84074005D01*
X117513890Y-84321812D01*
X117513892Y-84321824D01*
X117574936Y-84562881D01*
X117674826Y-84790606D01*
X117810833Y-84998782D01*
X117810836Y-84998785D01*
X117979256Y-85181738D01*
X118175491Y-85334474D01*
X118394190Y-85452828D01*
X118629386Y-85533571D01*
X118874665Y-85574500D01*
X119123335Y-85574500D01*
X119368614Y-85533571D01*
X119603810Y-85452828D01*
X119822509Y-85334474D01*
X120018744Y-85181738D01*
X120187164Y-84998785D01*
X120323173Y-84790607D01*
X120423063Y-84562881D01*
X120484108Y-84321821D01*
X120484440Y-84317815D01*
X120504643Y-84074005D01*
X120504643Y-84073994D01*
X120484109Y-83826187D01*
X120484107Y-83826175D01*
X120423063Y-83585118D01*
X120323173Y-83357393D01*
X120187166Y-83149217D01*
X120112272Y-83067861D01*
X120018744Y-82966262D01*
X119822509Y-82813526D01*
X119822507Y-82813525D01*
X119822506Y-82813524D01*
X119603811Y-82695172D01*
X119603802Y-82695169D01*
X119368616Y-82614429D01*
X119123335Y-82573500D01*
X118874665Y-82573500D01*
X118629383Y-82614429D01*
X118394197Y-82695169D01*
X118394188Y-82695172D01*
X118175493Y-82813524D01*
X117979257Y-82966261D01*
X117810833Y-83149217D01*
X117674826Y-83357393D01*
X117574936Y-83585118D01*
X117513892Y-83826175D01*
X117513890Y-83826187D01*
X117493357Y-84073994D01*
X117493357Y-84074005D01*
X110713734Y-84074005D01*
X112073921Y-82713819D01*
X112135245Y-82680334D01*
X112161603Y-82677500D01*
X112520096Y-82677500D01*
X112538531Y-82676049D01*
X112556969Y-82674598D01*
X112556971Y-82674597D01*
X112556973Y-82674597D01*
X112598591Y-82662505D01*
X112714798Y-82628744D01*
X112856265Y-82545081D01*
X112972481Y-82428865D01*
X113056144Y-82287398D01*
X113089905Y-82171191D01*
X113101997Y-82129573D01*
X113101998Y-82129567D01*
X113104900Y-82092696D01*
X113104900Y-80561304D01*
X113101998Y-80524432D01*
X113101997Y-80524426D01*
X113056145Y-80366606D01*
X113056144Y-80366603D01*
X113056144Y-80366602D01*
X112972481Y-80225135D01*
X112972479Y-80225133D01*
X112972476Y-80225129D01*
X112856270Y-80108923D01*
X112856262Y-80108917D01*
X112714796Y-80025255D01*
X112714793Y-80025254D01*
X112556973Y-79979402D01*
X112556967Y-79979401D01*
X112520096Y-79976500D01*
X112520094Y-79976500D01*
X112088706Y-79976500D01*
X112088704Y-79976500D01*
X112051832Y-79979401D01*
X112051826Y-79979402D01*
X111894006Y-80025254D01*
X111894003Y-80025255D01*
X111745820Y-80112890D01*
X111744654Y-80110919D01*
X111690342Y-80132232D01*
X111621827Y-80118540D01*
X111612995Y-80112864D01*
X111612980Y-80112890D01*
X111464796Y-80025255D01*
X111464793Y-80025254D01*
X111306973Y-79979402D01*
X111306967Y-79979401D01*
X111270096Y-79976500D01*
X111270094Y-79976500D01*
X110838706Y-79976500D01*
X110838704Y-79976500D01*
X110801832Y-79979401D01*
X110801826Y-79979402D01*
X110644006Y-80025254D01*
X110644003Y-80025255D01*
X110502537Y-80108917D01*
X110502529Y-80108923D01*
X110386323Y-80225129D01*
X110386317Y-80225137D01*
X110302655Y-80366603D01*
X110302654Y-80366606D01*
X110256802Y-80524426D01*
X110256801Y-80524432D01*
X110253900Y-80561304D01*
X110253900Y-81088146D01*
X110234215Y-81155185D01*
X110217581Y-81175827D01*
X108764228Y-82629181D01*
X108702905Y-82662666D01*
X108676547Y-82665500D01*
X108617354Y-82665500D01*
X108584897Y-82672398D01*
X108432197Y-82704855D01*
X108432192Y-82704857D01*
X108259270Y-82781848D01*
X108259265Y-82781851D01*
X108106129Y-82893111D01*
X107979466Y-83033785D01*
X107884821Y-83197715D01*
X107884818Y-83197722D01*
X107867567Y-83250817D01*
X107826326Y-83377744D01*
X107806540Y-83566000D01*
X107826326Y-83754256D01*
X107826327Y-83754259D01*
X107884818Y-83934277D01*
X107884821Y-83934284D01*
X107979467Y-84098216D01*
X107982435Y-84101512D01*
X108008561Y-84130528D01*
X108038791Y-84193519D01*
X108030166Y-84262854D01*
X107985424Y-84316520D01*
X107918772Y-84337478D01*
X107916411Y-84337500D01*
X99603512Y-84337500D01*
X99536473Y-84317815D01*
X99490718Y-84265011D01*
X99480774Y-84195853D01*
X99504246Y-84139188D01*
X99594152Y-84019089D01*
X99594154Y-84019086D01*
X99644396Y-83884379D01*
X99644398Y-83884372D01*
X99650799Y-83824844D01*
X99650800Y-83824827D01*
X99650800Y-82127000D01*
X98719407Y-82127000D01*
X98652368Y-82107315D01*
X98606613Y-82054511D01*
X98595879Y-81992193D01*
X98605957Y-81877001D01*
X98605957Y-81876998D01*
X98595879Y-81761807D01*
X98609646Y-81693307D01*
X98658261Y-81643124D01*
X98719407Y-81627000D01*
X99650800Y-81627000D01*
X99650800Y-79929172D01*
X99650799Y-79929155D01*
X99644398Y-79869627D01*
X99644396Y-79869620D01*
X99594154Y-79734913D01*
X99594150Y-79734906D01*
X99507990Y-79619812D01*
X99507987Y-79619809D01*
X99392893Y-79533649D01*
X99392886Y-79533645D01*
X99258179Y-79483403D01*
X99258172Y-79483401D01*
X99198644Y-79477000D01*
X98126520Y-79477000D01*
X98059481Y-79457315D01*
X98013726Y-79404511D01*
X98003782Y-79335353D01*
X98032807Y-79271797D01*
X98080873Y-79237708D01*
X98234201Y-79177001D01*
X108203900Y-79177001D01*
X108203901Y-79177018D01*
X108214400Y-79279796D01*
X108214401Y-79279799D01*
X108254562Y-79400994D01*
X108269586Y-79446334D01*
X108361688Y-79595656D01*
X108485744Y-79719712D01*
X108635066Y-79811814D01*
X108801603Y-79866999D01*
X108904391Y-79877500D01*
X109504408Y-79877499D01*
X109504416Y-79877498D01*
X109504419Y-79877498D01*
X109581470Y-79869627D01*
X109607197Y-79866999D01*
X109773734Y-79811814D01*
X109923056Y-79719712D01*
X110047112Y-79595656D01*
X110139214Y-79446334D01*
X110194399Y-79279797D01*
X110204900Y-79177009D01*
X110204900Y-79177001D01*
X113153900Y-79177001D01*
X113153901Y-79177018D01*
X113164400Y-79279796D01*
X113164401Y-79279799D01*
X113204562Y-79400994D01*
X113219586Y-79446334D01*
X113311688Y-79595656D01*
X113435744Y-79719712D01*
X113585066Y-79811814D01*
X113751603Y-79866999D01*
X113854391Y-79877500D01*
X114454408Y-79877499D01*
X114454416Y-79877498D01*
X114454419Y-79877498D01*
X114531470Y-79869627D01*
X114557197Y-79866999D01*
X114723734Y-79811814D01*
X114873056Y-79719712D01*
X114997112Y-79595656D01*
X115089214Y-79446334D01*
X115144399Y-79279797D01*
X115154900Y-79177009D01*
X115154899Y-77134005D01*
X123602556Y-77134005D01*
X123622310Y-77448004D01*
X123622311Y-77448011D01*
X123681270Y-77757083D01*
X123778497Y-78056316D01*
X123778499Y-78056321D01*
X123912461Y-78341003D01*
X123912464Y-78341009D01*
X124081051Y-78606661D01*
X124081054Y-78606665D01*
X124281606Y-78849090D01*
X124281608Y-78849092D01*
X124281610Y-78849094D01*
X124434224Y-78992408D01*
X124510968Y-79064476D01*
X124510978Y-79064484D01*
X124765504Y-79249408D01*
X124765509Y-79249410D01*
X124765516Y-79249416D01*
X125041234Y-79400994D01*
X125041239Y-79400996D01*
X125041241Y-79400997D01*
X125041242Y-79400998D01*
X125277927Y-79494708D01*
X125333013Y-79537689D01*
X125356116Y-79603628D01*
X125339903Y-79671591D01*
X125289519Y-79719998D01*
X125232280Y-79734000D01*
X124160155Y-79734000D01*
X124100627Y-79740401D01*
X124100620Y-79740403D01*
X123965913Y-79790645D01*
X123965906Y-79790649D01*
X123850812Y-79876809D01*
X123850809Y-79876812D01*
X123764649Y-79991906D01*
X123764645Y-79991913D01*
X123714403Y-80126620D01*
X123714401Y-80126627D01*
X123708000Y-80186155D01*
X123708000Y-81884000D01*
X124639393Y-81884000D01*
X124706432Y-81903685D01*
X124752187Y-81956489D01*
X124762921Y-82018807D01*
X124752843Y-82133998D01*
X124752843Y-82134001D01*
X124762921Y-82249193D01*
X124749154Y-82317693D01*
X124700539Y-82367876D01*
X124639393Y-82384000D01*
X123708000Y-82384000D01*
X123708000Y-84081844D01*
X123714401Y-84141372D01*
X123714403Y-84141379D01*
X123764645Y-84276086D01*
X123764649Y-84276093D01*
X123850809Y-84391187D01*
X123850812Y-84391190D01*
X123965906Y-84477350D01*
X123965913Y-84477354D01*
X124100620Y-84527596D01*
X124100627Y-84527598D01*
X124160155Y-84533999D01*
X124160172Y-84534000D01*
X125858000Y-84534000D01*
X125858000Y-83602607D01*
X125877685Y-83535568D01*
X125930489Y-83489813D01*
X125992808Y-83479079D01*
X126049055Y-83484000D01*
X126166945Y-83484000D01*
X126223191Y-83479079D01*
X126291691Y-83492845D01*
X126341874Y-83541460D01*
X126357999Y-83602607D01*
X126357999Y-84533999D01*
X126358001Y-84534000D01*
X128055828Y-84534000D01*
X128055844Y-84533999D01*
X128115372Y-84527598D01*
X128115379Y-84527596D01*
X128250086Y-84477354D01*
X128250093Y-84477350D01*
X128365187Y-84391190D01*
X128365190Y-84391187D01*
X128451350Y-84276093D01*
X128451354Y-84276086D01*
X128501596Y-84141379D01*
X128501598Y-84141372D01*
X128507999Y-84081844D01*
X128508000Y-84081827D01*
X128508000Y-82384000D01*
X127576607Y-82384000D01*
X127509568Y-82364315D01*
X127463813Y-82311511D01*
X127453079Y-82249193D01*
X127463157Y-82134001D01*
X127463157Y-82133998D01*
X127453079Y-82018807D01*
X127466846Y-81950307D01*
X127515461Y-81900124D01*
X127576607Y-81884000D01*
X128508000Y-81884000D01*
X128508000Y-80717952D01*
X128527685Y-80650913D01*
X128580489Y-80605158D01*
X128649647Y-80595214D01*
X128713203Y-80624239D01*
X128719677Y-80630267D01*
X130604226Y-82514817D01*
X132438886Y-84349477D01*
X132472371Y-84410800D01*
X132473506Y-84418390D01*
X132473649Y-84418367D01*
X132474492Y-84423424D01*
X132535536Y-84664481D01*
X132635426Y-84892206D01*
X132771433Y-85100382D01*
X132771436Y-85100385D01*
X132939856Y-85283338D01*
X133136091Y-85436074D01*
X133167048Y-85452827D01*
X133353446Y-85553701D01*
X133354790Y-85554428D01*
X133589986Y-85635171D01*
X133835265Y-85676100D01*
X134083935Y-85676100D01*
X134329214Y-85635171D01*
X134564410Y-85554428D01*
X134783109Y-85436074D01*
X134979344Y-85283338D01*
X135147764Y-85100385D01*
X135283773Y-84892207D01*
X135383663Y-84664481D01*
X135444708Y-84423421D01*
X135451828Y-84337500D01*
X135460612Y-84231489D01*
X138695500Y-84231489D01*
X138734690Y-84491503D01*
X138734692Y-84491509D01*
X138812202Y-84742788D01*
X138926295Y-84979705D01*
X138926297Y-84979707D01*
X138926298Y-84979710D01*
X139074430Y-85196980D01*
X139253290Y-85389746D01*
X139458883Y-85553701D01*
X139686616Y-85685183D01*
X139931402Y-85781254D01*
X140187772Y-85839769D01*
X140187778Y-85839769D01*
X140187781Y-85839770D01*
X140384340Y-85854500D01*
X140384346Y-85854500D01*
X140515660Y-85854500D01*
X140712218Y-85839770D01*
X140712220Y-85839769D01*
X140712228Y-85839769D01*
X140968598Y-85781254D01*
X141213384Y-85685183D01*
X141441117Y-85553701D01*
X141646710Y-85389746D01*
X141825570Y-85196980D01*
X141973702Y-84979710D01*
X142087798Y-84742788D01*
X142165308Y-84491508D01*
X142167442Y-84477354D01*
X142204499Y-84231489D01*
X142204500Y-84231480D01*
X142204500Y-83968519D01*
X142204499Y-83968510D01*
X142165309Y-83708496D01*
X142165307Y-83708490D01*
X142087798Y-83457212D01*
X141973702Y-83220290D01*
X141825570Y-83003020D01*
X141646710Y-82810254D01*
X141441117Y-82646299D01*
X141213384Y-82514817D01*
X140968598Y-82418746D01*
X140968593Y-82418744D01*
X140968584Y-82418742D01*
X140730121Y-82364315D01*
X140712228Y-82360231D01*
X140712227Y-82360230D01*
X140712223Y-82360230D01*
X140712218Y-82360229D01*
X140515660Y-82345500D01*
X140515654Y-82345500D01*
X140384346Y-82345500D01*
X140384340Y-82345500D01*
X140187781Y-82360229D01*
X140187776Y-82360230D01*
X139931415Y-82418742D01*
X139931396Y-82418748D01*
X139686615Y-82514817D01*
X139458883Y-82646299D01*
X139253290Y-82810254D01*
X139253288Y-82810256D01*
X139074430Y-83003019D01*
X138926295Y-83220294D01*
X138812202Y-83457211D01*
X138734692Y-83708490D01*
X138734690Y-83708496D01*
X138695500Y-83968510D01*
X138695500Y-84231489D01*
X135460612Y-84231489D01*
X135465243Y-84175605D01*
X135465243Y-84175594D01*
X135444709Y-83927787D01*
X135444707Y-83927775D01*
X135383663Y-83686718D01*
X135283773Y-83458993D01*
X135147766Y-83250817D01*
X135119664Y-83220290D01*
X134979344Y-83067862D01*
X134783109Y-82915126D01*
X134783107Y-82915125D01*
X134783106Y-82915124D01*
X134564411Y-82796772D01*
X134564402Y-82796769D01*
X134329216Y-82716029D01*
X134083935Y-82675100D01*
X133835265Y-82675100D01*
X133589983Y-82716029D01*
X133354797Y-82796769D01*
X133354788Y-82796772D01*
X133136091Y-82915125D01*
X133136087Y-82915129D01*
X133018732Y-83006470D01*
X132953738Y-83032113D01*
X132885198Y-83018546D01*
X132854889Y-82996298D01*
X128331901Y-78473310D01*
X128298416Y-78411987D01*
X128303400Y-78342295D01*
X128307384Y-78332832D01*
X128437500Y-78056321D01*
X128437503Y-78056315D01*
X128534731Y-77757079D01*
X128593688Y-77448015D01*
X128609857Y-77191015D01*
X128613444Y-77134005D01*
X128613444Y-77133994D01*
X128593689Y-76819995D01*
X128593688Y-76819988D01*
X128593688Y-76819985D01*
X128534731Y-76510921D01*
X128437503Y-76211685D01*
X128303537Y-75926993D01*
X128267353Y-75869976D01*
X128134948Y-75661338D01*
X128134945Y-75661334D01*
X127934393Y-75418909D01*
X127934391Y-75418907D01*
X127705031Y-75203523D01*
X127705021Y-75203515D01*
X127450495Y-75018591D01*
X127450488Y-75018586D01*
X127450484Y-75018584D01*
X127174766Y-74867006D01*
X127174763Y-74867004D01*
X127174758Y-74867002D01*
X127174757Y-74867001D01*
X126882228Y-74751181D01*
X126882225Y-74751180D01*
X126577476Y-74672934D01*
X126577463Y-74672932D01*
X126265329Y-74633500D01*
X126265318Y-74633500D01*
X125950682Y-74633500D01*
X125950670Y-74633500D01*
X125638536Y-74672932D01*
X125638523Y-74672934D01*
X125333774Y-74751180D01*
X125333771Y-74751181D01*
X125041242Y-74867001D01*
X125041241Y-74867002D01*
X124765516Y-75018584D01*
X124765504Y-75018591D01*
X124510978Y-75203515D01*
X124510968Y-75203523D01*
X124281608Y-75418907D01*
X124281606Y-75418909D01*
X124081054Y-75661334D01*
X124081051Y-75661338D01*
X123912464Y-75926990D01*
X123912461Y-75926996D01*
X123778499Y-76211678D01*
X123778497Y-76211683D01*
X123681270Y-76510916D01*
X123622311Y-76819988D01*
X123622310Y-76819995D01*
X123602556Y-77133994D01*
X123602556Y-77134005D01*
X115154899Y-77134005D01*
X115154899Y-76776992D01*
X115144399Y-76674203D01*
X115089214Y-76507666D01*
X114997112Y-76358344D01*
X114873056Y-76234288D01*
X114723734Y-76142186D01*
X114557197Y-76087001D01*
X114557195Y-76087000D01*
X114454410Y-76076500D01*
X113854398Y-76076500D01*
X113854380Y-76076501D01*
X113751603Y-76087000D01*
X113751600Y-76087001D01*
X113585068Y-76142185D01*
X113585063Y-76142187D01*
X113435742Y-76234289D01*
X113311689Y-76358342D01*
X113219587Y-76507663D01*
X113219585Y-76507666D01*
X113219586Y-76507666D01*
X113164401Y-76674203D01*
X113164401Y-76674204D01*
X113164400Y-76674204D01*
X113153900Y-76776983D01*
X113153900Y-79177001D01*
X110204900Y-79177001D01*
X110204899Y-76776992D01*
X110194399Y-76674203D01*
X110139214Y-76507666D01*
X110047112Y-76358344D01*
X109923056Y-76234288D01*
X109773734Y-76142186D01*
X109607197Y-76087001D01*
X109607195Y-76087000D01*
X109504410Y-76076500D01*
X108904398Y-76076500D01*
X108904380Y-76076501D01*
X108801603Y-76087000D01*
X108801600Y-76087001D01*
X108635068Y-76142185D01*
X108635063Y-76142187D01*
X108485742Y-76234289D01*
X108361689Y-76358342D01*
X108269587Y-76507663D01*
X108269585Y-76507666D01*
X108269586Y-76507666D01*
X108214401Y-76674203D01*
X108214401Y-76674204D01*
X108214400Y-76674204D01*
X108203900Y-76776983D01*
X108203900Y-79177001D01*
X98234201Y-79177001D01*
X98317557Y-79143998D01*
X98317558Y-79143997D01*
X98317556Y-79143997D01*
X98317566Y-79143994D01*
X98593284Y-78992416D01*
X98847830Y-78807478D01*
X99077190Y-78592094D01*
X99277747Y-78349663D01*
X99446337Y-78084007D01*
X99580303Y-77799315D01*
X99677531Y-77500079D01*
X99736488Y-77191015D01*
X99736489Y-77191004D01*
X99756244Y-76877005D01*
X99756244Y-76876994D01*
X99736489Y-76562995D01*
X99736488Y-76562988D01*
X99736488Y-76562985D01*
X99677531Y-76253921D01*
X99580303Y-75954685D01*
X99577524Y-75948780D01*
X99446338Y-75669996D01*
X99446337Y-75669993D01*
X99286995Y-75418909D01*
X99277748Y-75404338D01*
X99277745Y-75404334D01*
X99077193Y-75161909D01*
X99077191Y-75161907D01*
X98847831Y-74946523D01*
X98847821Y-74946515D01*
X98593295Y-74761591D01*
X98593288Y-74761586D01*
X98593284Y-74761584D01*
X98317566Y-74610006D01*
X98317563Y-74610004D01*
X98317558Y-74610002D01*
X98317557Y-74610001D01*
X98025028Y-74494181D01*
X98025025Y-74494180D01*
X97720276Y-74415934D01*
X97720263Y-74415932D01*
X97408129Y-74376500D01*
X97408118Y-74376500D01*
X97093482Y-74376500D01*
X97093470Y-74376500D01*
X96781336Y-74415932D01*
X96781323Y-74415934D01*
X96476574Y-74494180D01*
X96476571Y-74494181D01*
X96184042Y-74610001D01*
X96184041Y-74610002D01*
X95908316Y-74761584D01*
X95908304Y-74761591D01*
X95653778Y-74946515D01*
X95653768Y-74946523D01*
X95424408Y-75161907D01*
X95424406Y-75161909D01*
X95223854Y-75404334D01*
X95223851Y-75404338D01*
X95055264Y-75669990D01*
X95055261Y-75669996D01*
X94921299Y-75954678D01*
X94921297Y-75954683D01*
X94824070Y-76253916D01*
X94765111Y-76562988D01*
X94765110Y-76562995D01*
X94745356Y-76876994D01*
X94745356Y-76877005D01*
X94765110Y-77191004D01*
X94765111Y-77191011D01*
X94824070Y-77500083D01*
X94921297Y-77799316D01*
X94921299Y-77799321D01*
X95055261Y-78084003D01*
X95055264Y-78084009D01*
X95223851Y-78349661D01*
X95223854Y-78349665D01*
X95424406Y-78592090D01*
X95424408Y-78592092D01*
X95424410Y-78592094D01*
X95439927Y-78606665D01*
X95653768Y-78807476D01*
X95653778Y-78807484D01*
X95908304Y-78992408D01*
X95908309Y-78992410D01*
X95908316Y-78992416D01*
X96184034Y-79143994D01*
X96184039Y-79143996D01*
X96184041Y-79143997D01*
X96184042Y-79143998D01*
X96420727Y-79237708D01*
X96475813Y-79280689D01*
X96498916Y-79346628D01*
X96482703Y-79414591D01*
X96432319Y-79462998D01*
X96375080Y-79477000D01*
X95302955Y-79477000D01*
X95243427Y-79483401D01*
X95243420Y-79483403D01*
X95108713Y-79533645D01*
X95108706Y-79533649D01*
X94993612Y-79619809D01*
X94993609Y-79619812D01*
X94907449Y-79734906D01*
X94907445Y-79734913D01*
X94857203Y-79869620D01*
X94857201Y-79869627D01*
X94850800Y-79929155D01*
X94850800Y-81627000D01*
X95782193Y-81627000D01*
X95849232Y-81646685D01*
X95894987Y-81699489D01*
X95905721Y-81761807D01*
X95895643Y-81876998D01*
X95895643Y-81877001D01*
X95905721Y-81992193D01*
X95891954Y-82060693D01*
X95843339Y-82110876D01*
X95782193Y-82127000D01*
X94850800Y-82127000D01*
X94850800Y-83824844D01*
X94857201Y-83884372D01*
X94857203Y-83884379D01*
X94907445Y-84019086D01*
X94907447Y-84019089D01*
X94997354Y-84139188D01*
X95021772Y-84204653D01*
X95006921Y-84272926D01*
X94957516Y-84322332D01*
X94898088Y-84337500D01*
X87178452Y-84337500D01*
X87111413Y-84317815D01*
X87090771Y-84301181D01*
X86311322Y-83521732D01*
X85504471Y-82714880D01*
X85504470Y-82714879D01*
X85503225Y-82713634D01*
X85503206Y-82713616D01*
X84284019Y-81494428D01*
X84250534Y-81433105D01*
X84247700Y-81406747D01*
X84247700Y-80561304D01*
X84244798Y-80524432D01*
X84244797Y-80524426D01*
X84198945Y-80366606D01*
X84198944Y-80366603D01*
X84198944Y-80366602D01*
X84115281Y-80225135D01*
X84115279Y-80225133D01*
X84115276Y-80225129D01*
X84109019Y-80218872D01*
X84075534Y-80157549D01*
X84072700Y-80131191D01*
X84072700Y-79740401D01*
X84072700Y-79340540D01*
X84092383Y-79273505D01*
X84145187Y-79227750D01*
X84214346Y-79217806D01*
X84277902Y-79246831D01*
X84314405Y-79301539D01*
X84332074Y-79354858D01*
X84362386Y-79446334D01*
X84454488Y-79595656D01*
X84578544Y-79719712D01*
X84727866Y-79811814D01*
X84894403Y-79866999D01*
X84997191Y-79877500D01*
X85597208Y-79877499D01*
X85597216Y-79877498D01*
X85597219Y-79877498D01*
X85674270Y-79869627D01*
X85699997Y-79866999D01*
X85866534Y-79811814D01*
X86015856Y-79719712D01*
X86139912Y-79595656D01*
X86232014Y-79446334D01*
X86287199Y-79279797D01*
X86297700Y-79177009D01*
X86297699Y-76776992D01*
X86287199Y-76674203D01*
X86232014Y-76507666D01*
X86139912Y-76358344D01*
X86015856Y-76234288D01*
X85866534Y-76142186D01*
X85699997Y-76087001D01*
X85699995Y-76087000D01*
X85597210Y-76076500D01*
X84997198Y-76076500D01*
X84997180Y-76076501D01*
X84894403Y-76087000D01*
X84894400Y-76087001D01*
X84727868Y-76142185D01*
X84727863Y-76142187D01*
X84578542Y-76234289D01*
X84454489Y-76358342D01*
X84362387Y-76507663D01*
X84362385Y-76507668D01*
X84314406Y-76652460D01*
X84274633Y-76709905D01*
X84210117Y-76736728D01*
X84141341Y-76724413D01*
X84090142Y-76676870D01*
X84072700Y-76613456D01*
X84072700Y-76417942D01*
X84074424Y-76402322D01*
X84074139Y-76402296D01*
X84074871Y-76394540D01*
X84074873Y-76394533D01*
X84072700Y-76325385D01*
X84072700Y-76295850D01*
X84071831Y-76288972D01*
X84071372Y-76283143D01*
X84069909Y-76236572D01*
X84064322Y-76217344D01*
X84060374Y-76198284D01*
X84057863Y-76178404D01*
X84040712Y-76135087D01*
X84038819Y-76129558D01*
X84025818Y-76084809D01*
X84025816Y-76084806D01*
X84015623Y-76067571D01*
X84007061Y-76050094D01*
X83999687Y-76031470D01*
X83999686Y-76031468D01*
X83972279Y-75993745D01*
X83969088Y-75988886D01*
X83945372Y-75948783D01*
X83945365Y-75948774D01*
X83931206Y-75934615D01*
X83918568Y-75919819D01*
X83906794Y-75903613D01*
X83870888Y-75873909D01*
X83866576Y-75869986D01*
X77506591Y-69510000D01*
X99010000Y-69510000D01*
X99010000Y-70025644D01*
X99012899Y-70062489D01*
X99012900Y-70062495D01*
X99058716Y-70220193D01*
X99058717Y-70220196D01*
X99142314Y-70361552D01*
X99142321Y-70361561D01*
X99258438Y-70477678D01*
X99258447Y-70477685D01*
X99399801Y-70561281D01*
X99557514Y-70607100D01*
X99557511Y-70607100D01*
X99559998Y-70607295D01*
X99560000Y-70607295D01*
X100060000Y-70607295D01*
X100060001Y-70607295D01*
X100062486Y-70607100D01*
X100220198Y-70561281D01*
X100368271Y-70473712D01*
X100369459Y-70475721D01*
X100423602Y-70454452D01*
X100492121Y-70468119D01*
X100501743Y-70474301D01*
X100510108Y-70479248D01*
X100649602Y-70561744D01*
X100691224Y-70573836D01*
X100807426Y-70607597D01*
X100807429Y-70607597D01*
X100807431Y-70607598D01*
X100819722Y-70608565D01*
X100844304Y-70610500D01*
X100844306Y-70610500D01*
X101275696Y-70610500D01*
X101294131Y-70609049D01*
X101312569Y-70607598D01*
X101312571Y-70607597D01*
X101312573Y-70607597D01*
X101416761Y-70577327D01*
X101470398Y-70561744D01*
X101609892Y-70479248D01*
X101618580Y-70474110D01*
X101619749Y-70476087D01*
X101674012Y-70454770D01*
X101742532Y-70468436D01*
X101751403Y-70474137D01*
X101751420Y-70474110D01*
X101760108Y-70479248D01*
X101899602Y-70561744D01*
X101941224Y-70573836D01*
X102057426Y-70607597D01*
X102057429Y-70607597D01*
X102057431Y-70607598D01*
X102069722Y-70608565D01*
X102094304Y-70610500D01*
X102094306Y-70610500D01*
X102525696Y-70610500D01*
X102544131Y-70609049D01*
X102562569Y-70607598D01*
X102562571Y-70607597D01*
X102562573Y-70607597D01*
X102666761Y-70577327D01*
X102720398Y-70561744D01*
X102859892Y-70479248D01*
X102868580Y-70474110D01*
X102869749Y-70476087D01*
X102924012Y-70454770D01*
X102992532Y-70468436D01*
X103001403Y-70474137D01*
X103001420Y-70474110D01*
X103010108Y-70479248D01*
X103149602Y-70561744D01*
X103191224Y-70573836D01*
X103307426Y-70607597D01*
X103307429Y-70607597D01*
X103307431Y-70607598D01*
X103319722Y-70608565D01*
X103344304Y-70610500D01*
X103344306Y-70610500D01*
X103775696Y-70610500D01*
X103794131Y-70609049D01*
X103812569Y-70607598D01*
X103812571Y-70607597D01*
X103812573Y-70607597D01*
X103916761Y-70577327D01*
X103970398Y-70561744D01*
X104111865Y-70478081D01*
X104228081Y-70361865D01*
X104311744Y-70220398D01*
X104357598Y-70062569D01*
X104360500Y-70025694D01*
X104360500Y-68494306D01*
X104357598Y-68457431D01*
X104357597Y-68457426D01*
X104315423Y-68312262D01*
X104310499Y-68277667D01*
X104310499Y-67549572D01*
X104330184Y-67482533D01*
X104382988Y-67436778D01*
X104452146Y-67426834D01*
X104515702Y-67455859D01*
X104540036Y-67484474D01*
X104567288Y-67528656D01*
X104691344Y-67652712D01*
X104840666Y-67744814D01*
X105007203Y-67799999D01*
X105109991Y-67810500D01*
X105710008Y-67810499D01*
X105710016Y-67810498D01*
X105710019Y-67810498D01*
X105766302Y-67804748D01*
X105812797Y-67799999D01*
X105979334Y-67744814D01*
X106128656Y-67652712D01*
X106252712Y-67528656D01*
X106344814Y-67379334D01*
X106399999Y-67212797D01*
X106410500Y-67110009D01*
X106410500Y-66766003D01*
X125322684Y-66766003D01*
X125341906Y-66985716D01*
X125341908Y-66985726D01*
X125398989Y-67198757D01*
X125398994Y-67198771D01*
X125492202Y-67398656D01*
X125492206Y-67398664D01*
X125618711Y-67579332D01*
X125774668Y-67735289D01*
X125955336Y-67861794D01*
X125955338Y-67861795D01*
X125955341Y-67861797D01*
X126048898Y-67905423D01*
X126155229Y-67955006D01*
X126155231Y-67955006D01*
X126155236Y-67955009D01*
X126155241Y-67955010D01*
X126155243Y-67955011D01*
X126169074Y-67958717D01*
X126368279Y-68012094D01*
X126519087Y-68025288D01*
X126587997Y-68031317D01*
X126587999Y-68031317D01*
X126588001Y-68031317D01*
X126618453Y-68028652D01*
X126807719Y-68012094D01*
X126850385Y-68000661D01*
X126920233Y-68002322D01*
X126970160Y-68032753D01*
X129342351Y-70404945D01*
X131660394Y-72722988D01*
X131670219Y-72735251D01*
X131670440Y-72735069D01*
X131675411Y-72741078D01*
X131701414Y-72765495D01*
X131725832Y-72788426D01*
X131746726Y-72809320D01*
X131752208Y-72813573D01*
X131756640Y-72817357D01*
X131790615Y-72849262D01*
X131808173Y-72858914D01*
X131824432Y-72869595D01*
X131840261Y-72881873D01*
X131883035Y-72900382D01*
X131888253Y-72902938D01*
X131929105Y-72925397D01*
X131948513Y-72930380D01*
X131966914Y-72936680D01*
X131985301Y-72944637D01*
X132028685Y-72951508D01*
X132031316Y-72951925D01*
X132037036Y-72953109D01*
X132082178Y-72964700D01*
X132102213Y-72964700D01*
X132121611Y-72966226D01*
X132141391Y-72969359D01*
X132141392Y-72969360D01*
X132141392Y-72969359D01*
X132141393Y-72969360D01*
X132187780Y-72964975D01*
X132193619Y-72964700D01*
X139004850Y-72964700D01*
X139071889Y-72984385D01*
X139117644Y-73037189D01*
X139118405Y-73038889D01*
X139125824Y-73055803D01*
X139261833Y-73263982D01*
X139261836Y-73263985D01*
X139430256Y-73446938D01*
X139626491Y-73599674D01*
X139845190Y-73718028D01*
X140080386Y-73798771D01*
X140325665Y-73839700D01*
X140574335Y-73839700D01*
X140819614Y-73798771D01*
X141054810Y-73718028D01*
X141273509Y-73599674D01*
X141469744Y-73446938D01*
X141638164Y-73263985D01*
X141774173Y-73055807D01*
X141874063Y-72828081D01*
X141935108Y-72587021D01*
X141955643Y-72339200D01*
X141935108Y-72091379D01*
X141874063Y-71850319D01*
X141822682Y-71733183D01*
X141774173Y-71622593D01*
X141638166Y-71414417D01*
X141616557Y-71390944D01*
X141469744Y-71231462D01*
X141273509Y-71078726D01*
X141273507Y-71078725D01*
X141273506Y-71078724D01*
X141054811Y-70960372D01*
X141054802Y-70960369D01*
X140819616Y-70879629D01*
X140574335Y-70838700D01*
X140325665Y-70838700D01*
X140080383Y-70879629D01*
X139845197Y-70960369D01*
X139845188Y-70960372D01*
X139626493Y-71078724D01*
X139430257Y-71231461D01*
X139261833Y-71414417D01*
X139125824Y-71622596D01*
X139118405Y-71639511D01*
X139073449Y-71692997D01*
X139006713Y-71713686D01*
X139004850Y-71713700D01*
X132471650Y-71713700D01*
X132404611Y-71694015D01*
X132383969Y-71677381D01*
X127854752Y-67148164D01*
X127821267Y-67086841D01*
X127822658Y-67028389D01*
X127834091Y-66985722D01*
X127853314Y-66766003D01*
X129923187Y-66766003D01*
X129942401Y-66985628D01*
X129942402Y-66985636D01*
X129999463Y-67198589D01*
X129999466Y-67198595D01*
X130092638Y-67398404D01*
X130137694Y-67462752D01*
X130573260Y-67027186D01*
X130634583Y-66993701D01*
X130704274Y-66998685D01*
X130760208Y-67040556D01*
X130765256Y-67047827D01*
X130800129Y-67102089D01*
X130800133Y-67102094D01*
X130916636Y-67203046D01*
X130954410Y-67261824D01*
X130954410Y-67331694D01*
X130923114Y-67384439D01*
X130491247Y-67816306D01*
X130555593Y-67861361D01*
X130755406Y-67954535D01*
X130755412Y-67954538D01*
X130968365Y-68011599D01*
X130968373Y-68011600D01*
X131187998Y-68030815D01*
X131188002Y-68030815D01*
X131407626Y-68011600D01*
X131407634Y-68011599D01*
X131620587Y-67954538D01*
X131620598Y-67954534D01*
X131820402Y-67861364D01*
X131820410Y-67861360D01*
X131884751Y-67816307D01*
X131452884Y-67384439D01*
X131419399Y-67323116D01*
X131424383Y-67253424D01*
X131459362Y-67203045D01*
X131465465Y-67197755D01*
X131465470Y-67197754D01*
X131575869Y-67102092D01*
X131610742Y-67047827D01*
X131663544Y-67002073D01*
X131732702Y-66992129D01*
X131796258Y-67021153D01*
X131802738Y-67027186D01*
X132238305Y-67462753D01*
X132283358Y-67398412D01*
X132283362Y-67398404D01*
X132376532Y-67198600D01*
X132376536Y-67198589D01*
X132433597Y-66985636D01*
X132433598Y-66985628D01*
X132452813Y-66766003D01*
X132452813Y-66766000D01*
X132433598Y-66546375D01*
X132433597Y-66546368D01*
X132376533Y-66333406D01*
X132283360Y-66133597D01*
X132283359Y-66133595D01*
X132238304Y-66069250D01*
X132238304Y-66069249D01*
X131802738Y-66504816D01*
X131741415Y-66538301D01*
X131671723Y-66533317D01*
X131615790Y-66491445D01*
X131610742Y-66484175D01*
X131575870Y-66429913D01*
X131575865Y-66429909D01*
X131550577Y-66407996D01*
X131459361Y-66328956D01*
X131421588Y-66270178D01*
X131421588Y-66200308D01*
X131452884Y-66147563D01*
X131884751Y-65715696D01*
X131820402Y-65670640D01*
X131620593Y-65577468D01*
X131620587Y-65577465D01*
X131407634Y-65520404D01*
X131407626Y-65520403D01*
X131188002Y-65501189D01*
X131187998Y-65501189D01*
X130968373Y-65520403D01*
X130968366Y-65520404D01*
X130755404Y-65577468D01*
X130555594Y-65670642D01*
X130491247Y-65715696D01*
X130923115Y-66147564D01*
X130956600Y-66208887D01*
X130951616Y-66278579D01*
X130916637Y-66328957D01*
X130800133Y-66429909D01*
X130800129Y-66429914D01*
X130765257Y-66484176D01*
X130712453Y-66529931D01*
X130643294Y-66539874D01*
X130579739Y-66510849D01*
X130573261Y-66504817D01*
X130137694Y-66069250D01*
X130092640Y-66133596D01*
X129999466Y-66333406D01*
X129942402Y-66546368D01*
X129942401Y-66546375D01*
X129923187Y-66766000D01*
X129923187Y-66766003D01*
X127853314Y-66766003D01*
X127853314Y-66766002D01*
X127851524Y-66745547D01*
X127834099Y-66546375D01*
X127834091Y-66546282D01*
X127777006Y-66333239D01*
X127683794Y-66133345D01*
X127557287Y-65952673D01*
X127557285Y-65952670D01*
X127401329Y-65796714D01*
X127220661Y-65670209D01*
X127220653Y-65670205D01*
X127020768Y-65576997D01*
X127020754Y-65576992D01*
X126807723Y-65519911D01*
X126807721Y-65519910D01*
X126807719Y-65519910D01*
X126807717Y-65519909D01*
X126807713Y-65519909D01*
X126588001Y-65500687D01*
X126587997Y-65500687D01*
X126368284Y-65519909D01*
X126368274Y-65519911D01*
X126155243Y-65576992D01*
X126155234Y-65576996D01*
X125955343Y-65670206D01*
X125955341Y-65670207D01*
X125774667Y-65796715D01*
X125618712Y-65952670D01*
X125492204Y-66133344D01*
X125492203Y-66133346D01*
X125398993Y-66333237D01*
X125398989Y-66333246D01*
X125341908Y-66546277D01*
X125341906Y-66546287D01*
X125322684Y-66766000D01*
X125322684Y-66766003D01*
X106410500Y-66766003D01*
X106410499Y-64709992D01*
X106402572Y-64632396D01*
X106399999Y-64607203D01*
X106399998Y-64607200D01*
X106374686Y-64530814D01*
X106344814Y-64440666D01*
X106252712Y-64291344D01*
X106128656Y-64167288D01*
X105979334Y-64075186D01*
X105812797Y-64020001D01*
X105812795Y-64020000D01*
X105710010Y-64009500D01*
X105109998Y-64009500D01*
X105109980Y-64009501D01*
X105007203Y-64020000D01*
X105007200Y-64020001D01*
X104840668Y-64075185D01*
X104840663Y-64075187D01*
X104691342Y-64167289D01*
X104567289Y-64291342D01*
X104540038Y-64335524D01*
X104488090Y-64382248D01*
X104419127Y-64393471D01*
X104355045Y-64365627D01*
X104316189Y-64307558D01*
X104310499Y-64270427D01*
X104310499Y-62064710D01*
X104310499Y-59828323D01*
X104315421Y-59793741D01*
X104357598Y-59648569D01*
X104360500Y-59611694D01*
X104360500Y-58080306D01*
X104357598Y-58043431D01*
X104349627Y-58015996D01*
X104311745Y-57885606D01*
X104311744Y-57885603D01*
X104311744Y-57885602D01*
X104228081Y-57744135D01*
X104228079Y-57744133D01*
X104228076Y-57744129D01*
X104111870Y-57627923D01*
X104111862Y-57627917D01*
X104033681Y-57581681D01*
X103970398Y-57544256D01*
X103970397Y-57544255D01*
X103970396Y-57544255D01*
X103970393Y-57544254D01*
X103812573Y-57498402D01*
X103812567Y-57498401D01*
X103775696Y-57495500D01*
X103775694Y-57495500D01*
X103344306Y-57495500D01*
X103344304Y-57495500D01*
X103307432Y-57498401D01*
X103307426Y-57498402D01*
X103149606Y-57544254D01*
X103149603Y-57544255D01*
X103001420Y-57631890D01*
X103000254Y-57629919D01*
X102945942Y-57651232D01*
X102877427Y-57637540D01*
X102868595Y-57631864D01*
X102868580Y-57631890D01*
X102787099Y-57583702D01*
X102720398Y-57544256D01*
X102720397Y-57544255D01*
X102720396Y-57544255D01*
X102720393Y-57544254D01*
X102562573Y-57498402D01*
X102562567Y-57498401D01*
X102525696Y-57495500D01*
X102525694Y-57495500D01*
X102094306Y-57495500D01*
X102094304Y-57495500D01*
X102057432Y-57498401D01*
X102057426Y-57498402D01*
X101899606Y-57544254D01*
X101899603Y-57544255D01*
X101751420Y-57631890D01*
X101750254Y-57629919D01*
X101695942Y-57651232D01*
X101627427Y-57637540D01*
X101618595Y-57631864D01*
X101618580Y-57631890D01*
X101537099Y-57583702D01*
X101470398Y-57544256D01*
X101470397Y-57544255D01*
X101470396Y-57544255D01*
X101470393Y-57544254D01*
X101312573Y-57498402D01*
X101312567Y-57498401D01*
X101275696Y-57495500D01*
X101275694Y-57495500D01*
X100844306Y-57495500D01*
X100844304Y-57495500D01*
X100807432Y-57498401D01*
X100807426Y-57498402D01*
X100649606Y-57544254D01*
X100649603Y-57544255D01*
X100501420Y-57631890D01*
X100500329Y-57630045D01*
X100445537Y-57651551D01*
X100377021Y-57637862D01*
X100368292Y-57632252D01*
X100368271Y-57632288D01*
X100220196Y-57544717D01*
X100220193Y-57544716D01*
X100062494Y-57498900D01*
X100062497Y-57498900D01*
X100060000Y-57498703D01*
X100060000Y-60193295D01*
X100060001Y-60193295D01*
X100062486Y-60193100D01*
X100220198Y-60147281D01*
X100247379Y-60131207D01*
X100315103Y-60114024D01*
X100381365Y-60136184D01*
X100425129Y-60190650D01*
X100434500Y-60237939D01*
X100434500Y-67868060D01*
X100414815Y-67935099D01*
X100362011Y-67980854D01*
X100292853Y-67990798D01*
X100247381Y-67974793D01*
X100220199Y-67958718D01*
X100220193Y-67958716D01*
X100062494Y-67912900D01*
X100062497Y-67912900D01*
X100060000Y-67912703D01*
X100060000Y-70607295D01*
X99560000Y-70607295D01*
X99560000Y-69510000D01*
X99010000Y-69510000D01*
X77506591Y-69510000D01*
X77462803Y-69466212D01*
X77452980Y-69453950D01*
X77452759Y-69454134D01*
X77447786Y-69448123D01*
X77397364Y-69400773D01*
X77386919Y-69390328D01*
X77376475Y-69379883D01*
X77370986Y-69375625D01*
X77366561Y-69371847D01*
X77332582Y-69339938D01*
X77332580Y-69339936D01*
X77332577Y-69339935D01*
X77315029Y-69330288D01*
X77298763Y-69319604D01*
X77282933Y-69307325D01*
X77240168Y-69288818D01*
X77234922Y-69286248D01*
X77194093Y-69263803D01*
X77194092Y-69263802D01*
X77174693Y-69258822D01*
X77156281Y-69252518D01*
X77137898Y-69244562D01*
X77137892Y-69244560D01*
X77091874Y-69237272D01*
X77086152Y-69236087D01*
X77041021Y-69224500D01*
X77041019Y-69224500D01*
X77020984Y-69224500D01*
X77001586Y-69222973D01*
X76994162Y-69221797D01*
X76981805Y-69219840D01*
X76981804Y-69219840D01*
X76935416Y-69224225D01*
X76929578Y-69224500D01*
X74224452Y-69224500D01*
X74157413Y-69204815D01*
X74136771Y-69188181D01*
X73958590Y-69010000D01*
X99010000Y-69010000D01*
X99560000Y-69010000D01*
X99560000Y-67912703D01*
X99557503Y-67912900D01*
X99399806Y-67958716D01*
X99399803Y-67958717D01*
X99258447Y-68042314D01*
X99258438Y-68042321D01*
X99142321Y-68158438D01*
X99142314Y-68158447D01*
X99058717Y-68299803D01*
X99058716Y-68299806D01*
X99012900Y-68457504D01*
X99012899Y-68457510D01*
X99010000Y-68494356D01*
X99010000Y-69010000D01*
X73958590Y-69010000D01*
X72058592Y-67110001D01*
X96959500Y-67110001D01*
X96959501Y-67110018D01*
X96970000Y-67212796D01*
X96970001Y-67212799D01*
X97025185Y-67379331D01*
X97025186Y-67379334D01*
X97117288Y-67528656D01*
X97241344Y-67652712D01*
X97390666Y-67744814D01*
X97557203Y-67799999D01*
X97659991Y-67810500D01*
X98260008Y-67810499D01*
X98260016Y-67810498D01*
X98260019Y-67810498D01*
X98316302Y-67804748D01*
X98362797Y-67799999D01*
X98529334Y-67744814D01*
X98678656Y-67652712D01*
X98802712Y-67528656D01*
X98894814Y-67379334D01*
X98949999Y-67212797D01*
X98960500Y-67110009D01*
X98960499Y-64709992D01*
X98952572Y-64632396D01*
X98949999Y-64607203D01*
X98949998Y-64607200D01*
X98924686Y-64530814D01*
X98894814Y-64440666D01*
X98802712Y-64291344D01*
X98678656Y-64167288D01*
X98529334Y-64075186D01*
X98362797Y-64020001D01*
X98362795Y-64020000D01*
X98260010Y-64009500D01*
X97659998Y-64009500D01*
X97659980Y-64009501D01*
X97557203Y-64020000D01*
X97557200Y-64020001D01*
X97390668Y-64075185D01*
X97390663Y-64075187D01*
X97241342Y-64167289D01*
X97117289Y-64291342D01*
X97025187Y-64440663D01*
X97025185Y-64440668D01*
X97013950Y-64474573D01*
X96970001Y-64607203D01*
X96970001Y-64607204D01*
X96970000Y-64607204D01*
X96959500Y-64709983D01*
X96959500Y-67110001D01*
X72058592Y-67110001D01*
X71781819Y-66833228D01*
X71748334Y-66771905D01*
X71745500Y-66745547D01*
X71745500Y-65747001D01*
X72288388Y-65747001D01*
X72288389Y-65747019D01*
X72298888Y-65849796D01*
X72298889Y-65849799D01*
X72332978Y-65952670D01*
X72354074Y-66016334D01*
X72446176Y-66165656D01*
X72570232Y-66289712D01*
X72719554Y-66381814D01*
X72886091Y-66436999D01*
X72988879Y-66447500D01*
X75388896Y-66447499D01*
X75491685Y-66436999D01*
X75658222Y-66381814D01*
X75807544Y-66289712D01*
X75931600Y-66165656D01*
X76023702Y-66016334D01*
X76078887Y-65849797D01*
X76089388Y-65747009D01*
X76089388Y-65747001D01*
X85681500Y-65747001D01*
X85681501Y-65747019D01*
X85692000Y-65849796D01*
X85692001Y-65849799D01*
X85726090Y-65952670D01*
X85747186Y-66016334D01*
X85839288Y-66165656D01*
X85963344Y-66289712D01*
X86112666Y-66381814D01*
X86279203Y-66436999D01*
X86381991Y-66447500D01*
X88782008Y-66447499D01*
X88884797Y-66436999D01*
X89051334Y-66381814D01*
X89200656Y-66289712D01*
X89324712Y-66165656D01*
X89416814Y-66016334D01*
X89471999Y-65849797D01*
X89482500Y-65747009D01*
X89482499Y-65146992D01*
X89471999Y-65044203D01*
X89416814Y-64877666D01*
X89324712Y-64728344D01*
X89200656Y-64604288D01*
X89051334Y-64512186D01*
X88884797Y-64457001D01*
X88884795Y-64457000D01*
X88782010Y-64446500D01*
X86381998Y-64446500D01*
X86381981Y-64446501D01*
X86279203Y-64457000D01*
X86279200Y-64457001D01*
X86112668Y-64512185D01*
X86112663Y-64512187D01*
X85963342Y-64604289D01*
X85839289Y-64728342D01*
X85747187Y-64877663D01*
X85747185Y-64877668D01*
X85719349Y-64961670D01*
X85692001Y-65044203D01*
X85692001Y-65044204D01*
X85692000Y-65044204D01*
X85681500Y-65146983D01*
X85681500Y-65747001D01*
X76089388Y-65747001D01*
X76089387Y-65146992D01*
X76078887Y-65044203D01*
X76023702Y-64877666D01*
X75931600Y-64728344D01*
X75807544Y-64604288D01*
X75658222Y-64512186D01*
X75491685Y-64457001D01*
X75491683Y-64457000D01*
X75388898Y-64446500D01*
X72988886Y-64446500D01*
X72988869Y-64446501D01*
X72886091Y-64457000D01*
X72886088Y-64457001D01*
X72719556Y-64512185D01*
X72719551Y-64512187D01*
X72570230Y-64604289D01*
X72446177Y-64728342D01*
X72354075Y-64877663D01*
X72354073Y-64877668D01*
X72326237Y-64961670D01*
X72298889Y-65044203D01*
X72298889Y-65044204D01*
X72298888Y-65044204D01*
X72288388Y-65146983D01*
X72288388Y-65747001D01*
X71745500Y-65747001D01*
X71745500Y-63847001D01*
X76191592Y-63847001D01*
X76191787Y-63849486D01*
X76237606Y-64007198D01*
X76321202Y-64148552D01*
X76321209Y-64148561D01*
X76437326Y-64264678D01*
X76437335Y-64264685D01*
X76578691Y-64348282D01*
X76578694Y-64348283D01*
X76736392Y-64394099D01*
X76736398Y-64394100D01*
X76773244Y-64397000D01*
X77288888Y-64397000D01*
X77288888Y-63847000D01*
X77788888Y-63847000D01*
X77788888Y-64397000D01*
X78304532Y-64397000D01*
X78341377Y-64394100D01*
X78341383Y-64394099D01*
X78499081Y-64348283D01*
X78499084Y-64348282D01*
X78640440Y-64264685D01*
X78640449Y-64264678D01*
X78756566Y-64148561D01*
X78756573Y-64148552D01*
X78840169Y-64007198D01*
X78885988Y-63849486D01*
X78886183Y-63847001D01*
X89584704Y-63847001D01*
X89584899Y-63849486D01*
X89630718Y-64007198D01*
X89714314Y-64148552D01*
X89714321Y-64148561D01*
X89830438Y-64264678D01*
X89830447Y-64264685D01*
X89971803Y-64348282D01*
X89971806Y-64348283D01*
X90129504Y-64394099D01*
X90129510Y-64394100D01*
X90166356Y-64397000D01*
X90682000Y-64397000D01*
X90682000Y-63847000D01*
X91182000Y-63847000D01*
X91182000Y-64397000D01*
X91697644Y-64397000D01*
X91734489Y-64394100D01*
X91734495Y-64394099D01*
X91892193Y-64348283D01*
X91892196Y-64348282D01*
X92033552Y-64264685D01*
X92033561Y-64264678D01*
X92149678Y-64148561D01*
X92149685Y-64148552D01*
X92233281Y-64007198D01*
X92279100Y-63849486D01*
X92279295Y-63847001D01*
X92279295Y-63847000D01*
X91182000Y-63847000D01*
X90682000Y-63847000D01*
X89584705Y-63847000D01*
X89584704Y-63847001D01*
X78886183Y-63847001D01*
X78886183Y-63847000D01*
X77788888Y-63847000D01*
X77288888Y-63847000D01*
X76191593Y-63847000D01*
X76191592Y-63847001D01*
X71745500Y-63847001D01*
X71745500Y-62562696D01*
X76188388Y-62562696D01*
X76191289Y-62599567D01*
X76191290Y-62599573D01*
X76237142Y-62757393D01*
X76237143Y-62757396D01*
X76237144Y-62757398D01*
X76246706Y-62773566D01*
X76324778Y-62905580D01*
X76322933Y-62906670D01*
X76344439Y-62961463D01*
X76330750Y-63029979D01*
X76325140Y-63038707D01*
X76325176Y-63038729D01*
X76237606Y-63186801D01*
X76191787Y-63344513D01*
X76191592Y-63346998D01*
X76191593Y-63347000D01*
X78886183Y-63347000D01*
X78886183Y-63346998D01*
X78885988Y-63344513D01*
X78840169Y-63186801D01*
X78824095Y-63159621D01*
X78806912Y-63091897D01*
X78829072Y-63025635D01*
X78883538Y-62981871D01*
X78930827Y-62972500D01*
X89540061Y-62972500D01*
X89607100Y-62992185D01*
X89652855Y-63044989D01*
X89662799Y-63114147D01*
X89646793Y-63159621D01*
X89630718Y-63186801D01*
X89584899Y-63344513D01*
X89584704Y-63346998D01*
X89584705Y-63347000D01*
X92279295Y-63347000D01*
X92279295Y-63346998D01*
X92279100Y-63344513D01*
X92233281Y-63186801D01*
X92145712Y-63038729D01*
X92147715Y-63037544D01*
X92126448Y-62983359D01*
X92140136Y-62914843D01*
X92146323Y-62905219D01*
X92150081Y-62898865D01*
X92233744Y-62757398D01*
X92279598Y-62599569D01*
X92282500Y-62562694D01*
X92282500Y-62131306D01*
X92279598Y-62094431D01*
X92274669Y-62077467D01*
X92233745Y-61936606D01*
X92233744Y-61936603D01*
X92233744Y-61936602D01*
X92150081Y-61795135D01*
X92146110Y-61788420D01*
X92148087Y-61787250D01*
X92126770Y-61732988D01*
X92140436Y-61664468D01*
X92146137Y-61655596D01*
X92146110Y-61655580D01*
X92160026Y-61632048D01*
X92233744Y-61507398D01*
X92279598Y-61349569D01*
X92282500Y-61312694D01*
X92282500Y-60881306D01*
X92279598Y-60844431D01*
X92233744Y-60686602D01*
X92150081Y-60545135D01*
X92146110Y-60538420D01*
X92148087Y-60537250D01*
X92126770Y-60482988D01*
X92140436Y-60414468D01*
X92146137Y-60405596D01*
X92146110Y-60405580D01*
X92194879Y-60323115D01*
X92233744Y-60257398D01*
X92270406Y-60131207D01*
X92279597Y-60099573D01*
X92279598Y-60099567D01*
X92282500Y-60062696D01*
X92282500Y-59631304D01*
X92279598Y-59594432D01*
X92279597Y-59594426D01*
X92233745Y-59436606D01*
X92233744Y-59436603D01*
X92233744Y-59436602D01*
X92150081Y-59295135D01*
X92150079Y-59295133D01*
X92150076Y-59295129D01*
X92033870Y-59178923D01*
X92033862Y-59178917D01*
X91893656Y-59096000D01*
X99010000Y-59096000D01*
X99010000Y-59611644D01*
X99012899Y-59648489D01*
X99012900Y-59648495D01*
X99058716Y-59806193D01*
X99058717Y-59806196D01*
X99142314Y-59947552D01*
X99142321Y-59947561D01*
X99258438Y-60063678D01*
X99258447Y-60063685D01*
X99399801Y-60147281D01*
X99557514Y-60193100D01*
X99557511Y-60193100D01*
X99559998Y-60193295D01*
X99560000Y-60193295D01*
X99560000Y-59096000D01*
X99010000Y-59096000D01*
X91893656Y-59096000D01*
X91892396Y-59095255D01*
X91892393Y-59095254D01*
X91734573Y-59049402D01*
X91734567Y-59049401D01*
X91697696Y-59046500D01*
X91697694Y-59046500D01*
X90166306Y-59046500D01*
X90166304Y-59046500D01*
X90129432Y-59049401D01*
X90129426Y-59049402D01*
X89984267Y-59091576D01*
X89949672Y-59096500D01*
X89221574Y-59096500D01*
X89154535Y-59076815D01*
X89108780Y-59024011D01*
X89098836Y-58954853D01*
X89127861Y-58891297D01*
X89156478Y-58866961D01*
X89200656Y-58839712D01*
X89324712Y-58715656D01*
X89398516Y-58596000D01*
X99010000Y-58596000D01*
X99560000Y-58596000D01*
X99560000Y-57498703D01*
X99557503Y-57498900D01*
X99399806Y-57544716D01*
X99399803Y-57544717D01*
X99258447Y-57628314D01*
X99258438Y-57628321D01*
X99142321Y-57744438D01*
X99142314Y-57744447D01*
X99058717Y-57885803D01*
X99058716Y-57885806D01*
X99012900Y-58043504D01*
X99012899Y-58043510D01*
X99010000Y-58080356D01*
X99010000Y-58596000D01*
X89398516Y-58596000D01*
X89416814Y-58566334D01*
X89471999Y-58399797D01*
X89482500Y-58297009D01*
X89482499Y-57696992D01*
X89475889Y-57632288D01*
X89471999Y-57594203D01*
X89471998Y-57594200D01*
X89455601Y-57544717D01*
X89416814Y-57427666D01*
X89324712Y-57278344D01*
X89200656Y-57154288D01*
X89079129Y-57079330D01*
X89051336Y-57062187D01*
X89051331Y-57062185D01*
X89049862Y-57061698D01*
X88884797Y-57007001D01*
X88884795Y-57007000D01*
X88782010Y-56996500D01*
X86381998Y-56996500D01*
X86381981Y-56996501D01*
X86279203Y-57007000D01*
X86279200Y-57007001D01*
X86112668Y-57062185D01*
X86112663Y-57062187D01*
X85963342Y-57154289D01*
X85839289Y-57278342D01*
X85747187Y-57427663D01*
X85747185Y-57427666D01*
X85747186Y-57427666D01*
X85692001Y-57594203D01*
X85692001Y-57594204D01*
X85692000Y-57594204D01*
X85681500Y-57696983D01*
X85681500Y-58297001D01*
X85681501Y-58297019D01*
X85692000Y-58399796D01*
X85692001Y-58399799D01*
X85747185Y-58566331D01*
X85747187Y-58566336D01*
X85770837Y-58604679D01*
X85811521Y-58670639D01*
X85839289Y-58715657D01*
X85963344Y-58839712D01*
X86007522Y-58866961D01*
X86054247Y-58918909D01*
X86065470Y-58987871D01*
X86037627Y-59051953D01*
X85979558Y-59090810D01*
X85942426Y-59096500D01*
X78521216Y-59096500D01*
X78486621Y-59091576D01*
X78341461Y-59049402D01*
X78341455Y-59049401D01*
X78304584Y-59046500D01*
X78304582Y-59046500D01*
X76773194Y-59046500D01*
X76773192Y-59046500D01*
X76736320Y-59049401D01*
X76736314Y-59049402D01*
X76578494Y-59095254D01*
X76578491Y-59095255D01*
X76437025Y-59178917D01*
X76437017Y-59178923D01*
X76320811Y-59295129D01*
X76320805Y-59295137D01*
X76237143Y-59436603D01*
X76237142Y-59436606D01*
X76191290Y-59594426D01*
X76191289Y-59594432D01*
X76188388Y-59631304D01*
X76188388Y-60062696D01*
X76191289Y-60099567D01*
X76191290Y-60099573D01*
X76237142Y-60257393D01*
X76237143Y-60257396D01*
X76324778Y-60405580D01*
X76322807Y-60406745D01*
X76344120Y-60461058D01*
X76330428Y-60529573D01*
X76324752Y-60538404D01*
X76324778Y-60538420D01*
X76237143Y-60686603D01*
X76237142Y-60686606D01*
X76191290Y-60844426D01*
X76191289Y-60844432D01*
X76188388Y-60881304D01*
X76188388Y-61312696D01*
X76191289Y-61349567D01*
X76191290Y-61349573D01*
X76237142Y-61507393D01*
X76237143Y-61507396D01*
X76324778Y-61655580D01*
X76322807Y-61656745D01*
X76344120Y-61711058D01*
X76330428Y-61779573D01*
X76324752Y-61788404D01*
X76324778Y-61788420D01*
X76237143Y-61936603D01*
X76237142Y-61936606D01*
X76191290Y-62094426D01*
X76191289Y-62094432D01*
X76188388Y-62131304D01*
X76188388Y-62562696D01*
X71745500Y-62562696D01*
X71745500Y-58297001D01*
X72288388Y-58297001D01*
X72288389Y-58297019D01*
X72298888Y-58399796D01*
X72298889Y-58399799D01*
X72354073Y-58566331D01*
X72354075Y-58566336D01*
X72377725Y-58604679D01*
X72446176Y-58715656D01*
X72570232Y-58839712D01*
X72719554Y-58931814D01*
X72886091Y-58986999D01*
X72988879Y-58997500D01*
X75388896Y-58997499D01*
X75491685Y-58986999D01*
X75658222Y-58931814D01*
X75807544Y-58839712D01*
X75931600Y-58715656D01*
X76023702Y-58566334D01*
X76078887Y-58399797D01*
X76089388Y-58297009D01*
X76089387Y-57696992D01*
X76082777Y-57632288D01*
X76078887Y-57594203D01*
X76078886Y-57594200D01*
X76062489Y-57544717D01*
X76023702Y-57427666D01*
X75931600Y-57278344D01*
X75807544Y-57154288D01*
X75686017Y-57079330D01*
X75658224Y-57062187D01*
X75658219Y-57062185D01*
X75656750Y-57061698D01*
X75491685Y-57007001D01*
X75491683Y-57007000D01*
X75388898Y-56996500D01*
X72988886Y-56996500D01*
X72988869Y-56996501D01*
X72886091Y-57007000D01*
X72886088Y-57007001D01*
X72719556Y-57062185D01*
X72719551Y-57062187D01*
X72570230Y-57154289D01*
X72446177Y-57278342D01*
X72354075Y-57427663D01*
X72354073Y-57427666D01*
X72354074Y-57427666D01*
X72298889Y-57594203D01*
X72298889Y-57594204D01*
X72298888Y-57594204D01*
X72288388Y-57696983D01*
X72288388Y-58297001D01*
X71745500Y-58297001D01*
X71745500Y-57460452D01*
X71765185Y-57393413D01*
X71781819Y-57372771D01*
X72458589Y-56696001D01*
X96959500Y-56696001D01*
X96959501Y-56696018D01*
X96970000Y-56798796D01*
X96970001Y-56798799D01*
X97003093Y-56898662D01*
X97025186Y-56965334D01*
X97117288Y-57114656D01*
X97241344Y-57238712D01*
X97390666Y-57330814D01*
X97557203Y-57385999D01*
X97659991Y-57396500D01*
X98260008Y-57396499D01*
X98260016Y-57396498D01*
X98260019Y-57396498D01*
X98316302Y-57390748D01*
X98362797Y-57385999D01*
X98529334Y-57330814D01*
X98678656Y-57238712D01*
X98802712Y-57114656D01*
X98894814Y-56965334D01*
X98949999Y-56798797D01*
X98960500Y-56696009D01*
X98960500Y-56696001D01*
X104409500Y-56696001D01*
X104409501Y-56696018D01*
X104420000Y-56798796D01*
X104420001Y-56798799D01*
X104453093Y-56898662D01*
X104475186Y-56965334D01*
X104567288Y-57114656D01*
X104691344Y-57238712D01*
X104840666Y-57330814D01*
X105007203Y-57385999D01*
X105109991Y-57396500D01*
X105710008Y-57396499D01*
X105710016Y-57396498D01*
X105710019Y-57396498D01*
X105766302Y-57390748D01*
X105812797Y-57385999D01*
X105979334Y-57330814D01*
X106128656Y-57238712D01*
X106252712Y-57114656D01*
X106344814Y-56965334D01*
X106399999Y-56798797D01*
X106410500Y-56696009D01*
X106410499Y-54295992D01*
X106399999Y-54193203D01*
X106344814Y-54026666D01*
X106252712Y-53877344D01*
X106128656Y-53753288D01*
X105979334Y-53661186D01*
X105812797Y-53606001D01*
X105812795Y-53606000D01*
X105710010Y-53595500D01*
X105109998Y-53595500D01*
X105109980Y-53595501D01*
X105007203Y-53606000D01*
X105007200Y-53606001D01*
X104840668Y-53661185D01*
X104840663Y-53661187D01*
X104691342Y-53753289D01*
X104567289Y-53877342D01*
X104475187Y-54026663D01*
X104475185Y-54026666D01*
X104475186Y-54026666D01*
X104420001Y-54193203D01*
X104420001Y-54193204D01*
X104420000Y-54193204D01*
X104409500Y-54295983D01*
X104409500Y-56696001D01*
X98960500Y-56696001D01*
X98960499Y-54295992D01*
X98949999Y-54193203D01*
X98894814Y-54026666D01*
X98802712Y-53877344D01*
X98678656Y-53753288D01*
X98529334Y-53661186D01*
X98362797Y-53606001D01*
X98362795Y-53606000D01*
X98260010Y-53595500D01*
X97659998Y-53595500D01*
X97659980Y-53595501D01*
X97557203Y-53606000D01*
X97557200Y-53606001D01*
X97390668Y-53661185D01*
X97390663Y-53661187D01*
X97241342Y-53753289D01*
X97117289Y-53877342D01*
X97025187Y-54026663D01*
X97025185Y-54026666D01*
X97025186Y-54026666D01*
X96970001Y-54193203D01*
X96970001Y-54193204D01*
X96970000Y-54193204D01*
X96959500Y-54295983D01*
X96959500Y-56696001D01*
X72458589Y-56696001D01*
X75893771Y-53260819D01*
X75955094Y-53227334D01*
X75981452Y-53224500D01*
X76040644Y-53224500D01*
X76040646Y-53224500D01*
X76225803Y-53185144D01*
X76398730Y-53108151D01*
X76551871Y-52996888D01*
X76678533Y-52856216D01*
X76773179Y-52692284D01*
X76831674Y-52512256D01*
X76849321Y-52344345D01*
X76875905Y-52279732D01*
X76884952Y-52269636D01*
X83227770Y-45926819D01*
X83289094Y-45893334D01*
X83315452Y-45890500D01*
X83662896Y-45890500D01*
X83681331Y-45889049D01*
X83699769Y-45887598D01*
X83699771Y-45887597D01*
X83699773Y-45887597D01*
X83741391Y-45875505D01*
X83857598Y-45841744D01*
X83999065Y-45758081D01*
X84115281Y-45641865D01*
X84198944Y-45500398D01*
X84244798Y-45342569D01*
X84247700Y-45305694D01*
X84247700Y-45090005D01*
X94745356Y-45090005D01*
X94765110Y-45404004D01*
X94765111Y-45404011D01*
X94765112Y-45404015D01*
X94815616Y-45668769D01*
X94824070Y-45713083D01*
X94921297Y-46012316D01*
X94921299Y-46012321D01*
X95055261Y-46297003D01*
X95055264Y-46297009D01*
X95223851Y-46562661D01*
X95223854Y-46562665D01*
X95424406Y-46805090D01*
X95424408Y-46805092D01*
X95653768Y-47020476D01*
X95653778Y-47020484D01*
X95908304Y-47205408D01*
X95908309Y-47205410D01*
X95908316Y-47205416D01*
X96184034Y-47356994D01*
X96184039Y-47356996D01*
X96184041Y-47356997D01*
X96184042Y-47356998D01*
X96476571Y-47472818D01*
X96476574Y-47472819D01*
X96781323Y-47551065D01*
X96781327Y-47551066D01*
X96846810Y-47559338D01*
X97093470Y-47590499D01*
X97093479Y-47590499D01*
X97093482Y-47590500D01*
X97093484Y-47590500D01*
X97408116Y-47590500D01*
X97408118Y-47590500D01*
X97408121Y-47590499D01*
X97408129Y-47590499D01*
X97594393Y-47566968D01*
X97720273Y-47551066D01*
X98025025Y-47472819D01*
X98025028Y-47472818D01*
X98317557Y-47356998D01*
X98317558Y-47356997D01*
X98317556Y-47356997D01*
X98317566Y-47356994D01*
X98593284Y-47205416D01*
X98847830Y-47020478D01*
X99077190Y-46805094D01*
X99277747Y-46562663D01*
X99446337Y-46297007D01*
X99580303Y-46012315D01*
X99677531Y-45713079D01*
X99736488Y-45404015D01*
X99742674Y-45305696D01*
X110253900Y-45305696D01*
X110256801Y-45342567D01*
X110256802Y-45342573D01*
X110302654Y-45500393D01*
X110302655Y-45500396D01*
X110302656Y-45500398D01*
X110386319Y-45641865D01*
X110392579Y-45648125D01*
X110426065Y-45709445D01*
X110428900Y-45735808D01*
X110428900Y-51027655D01*
X110427175Y-51043272D01*
X110427461Y-51043299D01*
X110426726Y-51051065D01*
X110428900Y-51120214D01*
X110428900Y-51149743D01*
X110428901Y-51149760D01*
X110429768Y-51156631D01*
X110430226Y-51162450D01*
X110431690Y-51209024D01*
X110431691Y-51209027D01*
X110437280Y-51228267D01*
X110441224Y-51247311D01*
X110443736Y-51267191D01*
X110460890Y-51310519D01*
X110462782Y-51316047D01*
X110475781Y-51360788D01*
X110485980Y-51378034D01*
X110494538Y-51395503D01*
X110501914Y-51414132D01*
X110529298Y-51451823D01*
X110532506Y-51456707D01*
X110556227Y-51496816D01*
X110556233Y-51496824D01*
X110570390Y-51510980D01*
X110583028Y-51525776D01*
X110593252Y-51539849D01*
X110594806Y-51541987D01*
X110624327Y-51566409D01*
X110630709Y-51571688D01*
X110635020Y-51575610D01*
X111839355Y-52779945D01*
X113013181Y-53953771D01*
X113046666Y-54015094D01*
X113049500Y-54041452D01*
X113049500Y-58958455D01*
X113029815Y-59025494D01*
X112977011Y-59071249D01*
X112907853Y-59081193D01*
X112844297Y-59052168D01*
X112807794Y-58997459D01*
X112774512Y-58897023D01*
X112759814Y-58852666D01*
X112667712Y-58703344D01*
X112543656Y-58579288D01*
X112394334Y-58487186D01*
X112227797Y-58432001D01*
X112227795Y-58432000D01*
X112125010Y-58421500D01*
X111524998Y-58421500D01*
X111524980Y-58421501D01*
X111422203Y-58432000D01*
X111422200Y-58432001D01*
X111255668Y-58487185D01*
X111255663Y-58487187D01*
X111106342Y-58579289D01*
X110982289Y-58703342D01*
X110890187Y-58852663D01*
X110890185Y-58852668D01*
X110868235Y-58918909D01*
X110835001Y-59019203D01*
X110835001Y-59019204D01*
X110835000Y-59019204D01*
X110824500Y-59121983D01*
X110824500Y-61522001D01*
X110824501Y-61522018D01*
X110835000Y-61624796D01*
X110835001Y-61624799D01*
X110855130Y-61685543D01*
X110890186Y-61791334D01*
X110982288Y-61940656D01*
X111106344Y-62064712D01*
X111255666Y-62156814D01*
X111422203Y-62211999D01*
X111524991Y-62222500D01*
X112125008Y-62222499D01*
X112125016Y-62222498D01*
X112125019Y-62222498D01*
X112191615Y-62215695D01*
X112227797Y-62211999D01*
X112394334Y-62156814D01*
X112543656Y-62064712D01*
X112667712Y-61940656D01*
X112759814Y-61791334D01*
X112807794Y-61646537D01*
X112847567Y-61589094D01*
X112912082Y-61562271D01*
X112980858Y-61574586D01*
X113032058Y-61622129D01*
X113049500Y-61685543D01*
X113049500Y-62476191D01*
X113029815Y-62543230D01*
X113013181Y-62563872D01*
X113006923Y-62570129D01*
X113006917Y-62570137D01*
X112923255Y-62711603D01*
X112923254Y-62711606D01*
X112877402Y-62869426D01*
X112877401Y-62869432D01*
X112874500Y-62906304D01*
X112874500Y-64437696D01*
X112877401Y-64474567D01*
X112877402Y-64474573D01*
X112923254Y-64632393D01*
X112923255Y-64632396D01*
X113006917Y-64773862D01*
X113006923Y-64773870D01*
X113123129Y-64890076D01*
X113123133Y-64890079D01*
X113123135Y-64890081D01*
X113264602Y-64973744D01*
X113306224Y-64985836D01*
X113422426Y-65019597D01*
X113422429Y-65019597D01*
X113422431Y-65019598D01*
X113434722Y-65020565D01*
X113459304Y-65022500D01*
X113459306Y-65022500D01*
X113890696Y-65022500D01*
X113909131Y-65021049D01*
X113927569Y-65019598D01*
X113927571Y-65019597D01*
X113927573Y-65019597D01*
X113969191Y-65007505D01*
X114085398Y-64973744D01*
X114210048Y-64900026D01*
X114233580Y-64886110D01*
X114234749Y-64888087D01*
X114289012Y-64866770D01*
X114357532Y-64880436D01*
X114366403Y-64886137D01*
X114366420Y-64886110D01*
X114407034Y-64910128D01*
X114514602Y-64973744D01*
X114556224Y-64985836D01*
X114672426Y-65019597D01*
X114672429Y-65019597D01*
X114672431Y-65019598D01*
X114684722Y-65020565D01*
X114709304Y-65022500D01*
X114709306Y-65022500D01*
X115140696Y-65022500D01*
X115159131Y-65021049D01*
X115177569Y-65019598D01*
X115177571Y-65019597D01*
X115177573Y-65019597D01*
X115219191Y-65007505D01*
X115335398Y-64973744D01*
X115476865Y-64890081D01*
X115593081Y-64773865D01*
X115676744Y-64632398D01*
X115722598Y-64474569D01*
X115725500Y-64437694D01*
X115725500Y-63266002D01*
X125322684Y-63266002D01*
X125341906Y-63485715D01*
X125341908Y-63485725D01*
X125398989Y-63698756D01*
X125398994Y-63698770D01*
X125492202Y-63898655D01*
X125492206Y-63898663D01*
X125618711Y-64079331D01*
X125774668Y-64235288D01*
X125955336Y-64361793D01*
X125955338Y-64361794D01*
X125955341Y-64361796D01*
X126024618Y-64394100D01*
X126155229Y-64455005D01*
X126155231Y-64455005D01*
X126155236Y-64455008D01*
X126368279Y-64512093D01*
X126525221Y-64525823D01*
X126587997Y-64531316D01*
X126587999Y-64531316D01*
X126588001Y-64531316D01*
X126642929Y-64526510D01*
X126807719Y-64512093D01*
X127020762Y-64455008D01*
X127220657Y-64361796D01*
X127401328Y-64235289D01*
X127557287Y-64079330D01*
X127683794Y-63898659D01*
X127777006Y-63698764D01*
X127834091Y-63485721D01*
X127853314Y-63266002D01*
X129923187Y-63266002D01*
X129942401Y-63485627D01*
X129942402Y-63485635D01*
X129999463Y-63698588D01*
X129999466Y-63698594D01*
X130092638Y-63898403D01*
X130137694Y-63962751D01*
X130573260Y-63527185D01*
X130634583Y-63493700D01*
X130704274Y-63498684D01*
X130760208Y-63540555D01*
X130765256Y-63547826D01*
X130800129Y-63602088D01*
X130800133Y-63602093D01*
X130916636Y-63703045D01*
X130954410Y-63761823D01*
X130954410Y-63831693D01*
X130923114Y-63884438D01*
X130491247Y-64316305D01*
X130555593Y-64361360D01*
X130755406Y-64454534D01*
X130755412Y-64454537D01*
X130968365Y-64511598D01*
X130968373Y-64511599D01*
X131187998Y-64530814D01*
X131188002Y-64530814D01*
X131407626Y-64511599D01*
X131407634Y-64511598D01*
X131620587Y-64454537D01*
X131620598Y-64454533D01*
X131820402Y-64361363D01*
X131820410Y-64361359D01*
X131884751Y-64316306D01*
X131452884Y-63884438D01*
X131419399Y-63823115D01*
X131424383Y-63753423D01*
X131459362Y-63703044D01*
X131465465Y-63697754D01*
X131465470Y-63697753D01*
X131575869Y-63602091D01*
X131610742Y-63547826D01*
X131663544Y-63502072D01*
X131732702Y-63492128D01*
X131796258Y-63521152D01*
X131802738Y-63527185D01*
X132238305Y-63962752D01*
X132283358Y-63898411D01*
X132283362Y-63898403D01*
X132376532Y-63698599D01*
X132376536Y-63698588D01*
X132433597Y-63485635D01*
X132433598Y-63485627D01*
X132452813Y-63266002D01*
X132452813Y-63265999D01*
X132433598Y-63046374D01*
X132433597Y-63046367D01*
X132376533Y-62833405D01*
X132283360Y-62633596D01*
X132283359Y-62633594D01*
X132238304Y-62569249D01*
X132238304Y-62569248D01*
X131802738Y-63004815D01*
X131741415Y-63038300D01*
X131671723Y-63033316D01*
X131615790Y-62991444D01*
X131610742Y-62984174D01*
X131575870Y-62929912D01*
X131575865Y-62929908D01*
X131506066Y-62869426D01*
X131459361Y-62828955D01*
X131421588Y-62770177D01*
X131421588Y-62700307D01*
X131452884Y-62647562D01*
X131884751Y-62215695D01*
X131820402Y-62170639D01*
X131620593Y-62077467D01*
X131620587Y-62077464D01*
X131407634Y-62020403D01*
X131407626Y-62020402D01*
X131188002Y-62001188D01*
X131187998Y-62001188D01*
X130968373Y-62020402D01*
X130968366Y-62020403D01*
X130755404Y-62077467D01*
X130555594Y-62170641D01*
X130491247Y-62215695D01*
X130923115Y-62647563D01*
X130956600Y-62708886D01*
X130951616Y-62778578D01*
X130916637Y-62828956D01*
X130800133Y-62929908D01*
X130800129Y-62929913D01*
X130765257Y-62984175D01*
X130712453Y-63029930D01*
X130643294Y-63039873D01*
X130579739Y-63010848D01*
X130573261Y-63004816D01*
X130137694Y-62569249D01*
X130092640Y-62633595D01*
X129999466Y-62833405D01*
X129942402Y-63046367D01*
X129942401Y-63046374D01*
X129923187Y-63265999D01*
X129923187Y-63266002D01*
X127853314Y-63266002D01*
X127853314Y-63266001D01*
X127834091Y-63046281D01*
X127777006Y-62833238D01*
X127683794Y-62633344D01*
X127557287Y-62452672D01*
X127557285Y-62452669D01*
X127401329Y-62296713D01*
X127220661Y-62170208D01*
X127220653Y-62170204D01*
X127020768Y-62076996D01*
X127020754Y-62076991D01*
X126807723Y-62019910D01*
X126807721Y-62019909D01*
X126807719Y-62019909D01*
X126807717Y-62019908D01*
X126807713Y-62019908D01*
X126588001Y-62000686D01*
X126587997Y-62000686D01*
X126368284Y-62019908D01*
X126368274Y-62019910D01*
X126155243Y-62076991D01*
X126155234Y-62076995D01*
X125955343Y-62170205D01*
X125955341Y-62170206D01*
X125774667Y-62296714D01*
X125618712Y-62452669D01*
X125492204Y-62633343D01*
X125492203Y-62633345D01*
X125398993Y-62833236D01*
X125398989Y-62833245D01*
X125341908Y-63046276D01*
X125341906Y-63046286D01*
X125322684Y-63265999D01*
X125322684Y-63266002D01*
X115725500Y-63266002D01*
X115725500Y-62906306D01*
X115725414Y-62905219D01*
X115722598Y-62869432D01*
X115722597Y-62869426D01*
X115676745Y-62711606D01*
X115676744Y-62711603D01*
X115676744Y-62711602D01*
X115593081Y-62570135D01*
X115593079Y-62570133D01*
X115593076Y-62570129D01*
X115471349Y-62448402D01*
X115473420Y-62446330D01*
X115440589Y-62400860D01*
X115433500Y-62359534D01*
X115433500Y-61522001D01*
X115774500Y-61522001D01*
X115774501Y-61522018D01*
X115785000Y-61624796D01*
X115785001Y-61624799D01*
X115805130Y-61685543D01*
X115840186Y-61791334D01*
X115932288Y-61940656D01*
X116056344Y-62064712D01*
X116205666Y-62156814D01*
X116372203Y-62211999D01*
X116474991Y-62222500D01*
X117075008Y-62222499D01*
X117075016Y-62222498D01*
X117075019Y-62222498D01*
X117141615Y-62215695D01*
X117177797Y-62211999D01*
X117344334Y-62156814D01*
X117493656Y-62064712D01*
X117617712Y-61940656D01*
X117709814Y-61791334D01*
X117764999Y-61624797D01*
X117775500Y-61522009D01*
X117775499Y-59766002D01*
X125322684Y-59766002D01*
X125341906Y-59985715D01*
X125341908Y-59985725D01*
X125398989Y-60198756D01*
X125398994Y-60198770D01*
X125492202Y-60398655D01*
X125492206Y-60398663D01*
X125618711Y-60579331D01*
X125774668Y-60735288D01*
X125955336Y-60861793D01*
X125955338Y-60861794D01*
X125955341Y-60861796D01*
X125997181Y-60881306D01*
X126155229Y-60955005D01*
X126155231Y-60955005D01*
X126155236Y-60955008D01*
X126368279Y-61012093D01*
X126525221Y-61025823D01*
X126587997Y-61031316D01*
X126587999Y-61031316D01*
X126588001Y-61031316D01*
X126642929Y-61026510D01*
X126807719Y-61012093D01*
X127020762Y-60955008D01*
X127220657Y-60861796D01*
X127401328Y-60735289D01*
X127557287Y-60579330D01*
X127683794Y-60398659D01*
X127777006Y-60198764D01*
X127834091Y-59985721D01*
X127853314Y-59766002D01*
X129923187Y-59766002D01*
X129942401Y-59985627D01*
X129942402Y-59985635D01*
X129999463Y-60198588D01*
X129999466Y-60198594D01*
X130092638Y-60398403D01*
X130137694Y-60462751D01*
X130573260Y-60027185D01*
X130634583Y-59993700D01*
X130704274Y-59998684D01*
X130760208Y-60040555D01*
X130765256Y-60047826D01*
X130800129Y-60102088D01*
X130800133Y-60102093D01*
X130916636Y-60203045D01*
X130954410Y-60261823D01*
X130954410Y-60331693D01*
X130923114Y-60384438D01*
X130491247Y-60816305D01*
X130555593Y-60861360D01*
X130755406Y-60954534D01*
X130755412Y-60954537D01*
X130968365Y-61011598D01*
X130968373Y-61011599D01*
X131187998Y-61030814D01*
X131188002Y-61030814D01*
X131407626Y-61011599D01*
X131407634Y-61011598D01*
X131620587Y-60954537D01*
X131620598Y-60954533D01*
X131820402Y-60861363D01*
X131820410Y-60861359D01*
X131884751Y-60816306D01*
X131452884Y-60384438D01*
X131419399Y-60323115D01*
X131424383Y-60253423D01*
X131459362Y-60203044D01*
X131465465Y-60197754D01*
X131465470Y-60197753D01*
X131575869Y-60102091D01*
X131610742Y-60047826D01*
X131663544Y-60002072D01*
X131732702Y-59992128D01*
X131796258Y-60021152D01*
X131802738Y-60027185D01*
X132238305Y-60462752D01*
X132283358Y-60398411D01*
X132283362Y-60398403D01*
X132376532Y-60198599D01*
X132376536Y-60198588D01*
X132433597Y-59985635D01*
X132433598Y-59985627D01*
X132452813Y-59766002D01*
X132452813Y-59765999D01*
X132433598Y-59546374D01*
X132433597Y-59546367D01*
X132376533Y-59333405D01*
X132283360Y-59133596D01*
X132283359Y-59133594D01*
X132238304Y-59069249D01*
X132238304Y-59069248D01*
X131802738Y-59504815D01*
X131741415Y-59538300D01*
X131671723Y-59533316D01*
X131615790Y-59491444D01*
X131610742Y-59484174D01*
X131575870Y-59429912D01*
X131575865Y-59429908D01*
X131550577Y-59407995D01*
X131459361Y-59328955D01*
X131421588Y-59270177D01*
X131421588Y-59200307D01*
X131452884Y-59147562D01*
X131884751Y-58715695D01*
X131820402Y-58670639D01*
X131620593Y-58577467D01*
X131620587Y-58577464D01*
X131407634Y-58520403D01*
X131407626Y-58520402D01*
X131188002Y-58501188D01*
X131187998Y-58501188D01*
X130968373Y-58520402D01*
X130968366Y-58520403D01*
X130755404Y-58577467D01*
X130555594Y-58670641D01*
X130491247Y-58715695D01*
X130923115Y-59147563D01*
X130956600Y-59208886D01*
X130951616Y-59278578D01*
X130916637Y-59328956D01*
X130800133Y-59429908D01*
X130800129Y-59429913D01*
X130765257Y-59484175D01*
X130712453Y-59529930D01*
X130643294Y-59539873D01*
X130579739Y-59510848D01*
X130573261Y-59504816D01*
X130137694Y-59069249D01*
X130092640Y-59133595D01*
X129999466Y-59333405D01*
X129942402Y-59546367D01*
X129942401Y-59546374D01*
X129923187Y-59765999D01*
X129923187Y-59766002D01*
X127853314Y-59766002D01*
X127853314Y-59766001D01*
X127834091Y-59546281D01*
X127777006Y-59333238D01*
X127683794Y-59133344D01*
X127557287Y-58952672D01*
X127557285Y-58952669D01*
X127401329Y-58796713D01*
X127220661Y-58670208D01*
X127220653Y-58670204D01*
X127020768Y-58576996D01*
X127020754Y-58576991D01*
X126807723Y-58519910D01*
X126807721Y-58519909D01*
X126807719Y-58519909D01*
X126807717Y-58519908D01*
X126807713Y-58519908D01*
X126588001Y-58500686D01*
X126587997Y-58500686D01*
X126368284Y-58519908D01*
X126368274Y-58519910D01*
X126155243Y-58576991D01*
X126155236Y-58576993D01*
X126155236Y-58576994D01*
X126150314Y-58579289D01*
X125955343Y-58670205D01*
X125955341Y-58670206D01*
X125774667Y-58796714D01*
X125618712Y-58952669D01*
X125492204Y-59133343D01*
X125492203Y-59133345D01*
X125398993Y-59333236D01*
X125398989Y-59333245D01*
X125341908Y-59546276D01*
X125341906Y-59546286D01*
X125322684Y-59765999D01*
X125322684Y-59766002D01*
X117775499Y-59766002D01*
X117775499Y-59121992D01*
X117764999Y-59019203D01*
X117709814Y-58852666D01*
X117617712Y-58703344D01*
X117493656Y-58579288D01*
X117344334Y-58487186D01*
X117177797Y-58432001D01*
X117177795Y-58432000D01*
X117075010Y-58421500D01*
X116474998Y-58421500D01*
X116474980Y-58421501D01*
X116372203Y-58432000D01*
X116372200Y-58432001D01*
X116205668Y-58487185D01*
X116205663Y-58487187D01*
X116056342Y-58579289D01*
X115932289Y-58703342D01*
X115840187Y-58852663D01*
X115840185Y-58852668D01*
X115818235Y-58918909D01*
X115785001Y-59019203D01*
X115785001Y-59019204D01*
X115785000Y-59019204D01*
X115774500Y-59121983D01*
X115774500Y-61522001D01*
X115433500Y-61522001D01*
X115433500Y-58015996D01*
X123298399Y-58015996D01*
X123318758Y-58222712D01*
X123379057Y-58421492D01*
X123476970Y-58604673D01*
X123476975Y-58604680D01*
X123608748Y-58765248D01*
X123699484Y-58839712D01*
X123769318Y-58897023D01*
X123769321Y-58897024D01*
X123769323Y-58897026D01*
X123952504Y-58994939D01*
X123952506Y-58994939D01*
X123952509Y-58994941D01*
X124151283Y-59055238D01*
X124306200Y-59070496D01*
X124306203Y-59070496D01*
X124409799Y-59070496D01*
X124409802Y-59070496D01*
X124564719Y-59055238D01*
X124763493Y-58994941D01*
X124778352Y-58986999D01*
X124881595Y-58931814D01*
X124946684Y-58897023D01*
X125107253Y-58765248D01*
X125239028Y-58604679D01*
X125336946Y-58421488D01*
X125397243Y-58222714D01*
X125417603Y-58015996D01*
X125397243Y-57809278D01*
X125336946Y-57610504D01*
X125336944Y-57610501D01*
X125336944Y-57610499D01*
X125239031Y-57427318D01*
X125239029Y-57427316D01*
X125239028Y-57427313D01*
X125159832Y-57330812D01*
X125107253Y-57266743D01*
X124946685Y-57134970D01*
X124946678Y-57134965D01*
X124763497Y-57037052D01*
X124564717Y-56976753D01*
X124448739Y-56965331D01*
X124409802Y-56961496D01*
X124306200Y-56961496D01*
X124267961Y-56965262D01*
X124151284Y-56976753D01*
X123952504Y-57037052D01*
X123769323Y-57134965D01*
X123769316Y-57134970D01*
X123608748Y-57266743D01*
X123476975Y-57427311D01*
X123476970Y-57427318D01*
X123379057Y-57610499D01*
X123318758Y-57809279D01*
X123298399Y-58015996D01*
X115433500Y-58015996D01*
X115433500Y-56266001D01*
X125322684Y-56266001D01*
X125341906Y-56485712D01*
X125341908Y-56485724D01*
X125398989Y-56698755D01*
X125398994Y-56698769D01*
X125492202Y-56898654D01*
X125492206Y-56898662D01*
X125618711Y-57079330D01*
X125774668Y-57235287D01*
X125955336Y-57361792D01*
X125955338Y-57361793D01*
X125955341Y-57361795D01*
X126029767Y-57396500D01*
X126155229Y-57455004D01*
X126155231Y-57455004D01*
X126155236Y-57455007D01*
X126368279Y-57512092D01*
X126525221Y-57525822D01*
X126587997Y-57531315D01*
X126587999Y-57531315D01*
X126588001Y-57531315D01*
X126648761Y-57525999D01*
X126807719Y-57512092D01*
X127020762Y-57455007D01*
X127220657Y-57361795D01*
X127401328Y-57235288D01*
X127557287Y-57079329D01*
X127561128Y-57073844D01*
X129928000Y-57073844D01*
X129934401Y-57133372D01*
X129934403Y-57133379D01*
X129984645Y-57268086D01*
X129984649Y-57268093D01*
X130070809Y-57383187D01*
X130070812Y-57383190D01*
X130185906Y-57469350D01*
X130185913Y-57469354D01*
X130320620Y-57519596D01*
X130320627Y-57519598D01*
X130380155Y-57525999D01*
X130380172Y-57526000D01*
X130937999Y-57526000D01*
X130937999Y-56888403D01*
X130957683Y-56821364D01*
X131010487Y-56775609D01*
X131079646Y-56765665D01*
X131151527Y-56776000D01*
X131151530Y-56776000D01*
X131224470Y-56776000D01*
X131224473Y-56776000D01*
X131296353Y-56765665D01*
X131365512Y-56775609D01*
X131418316Y-56821364D01*
X131438000Y-56888403D01*
X131438000Y-57526000D01*
X131995828Y-57526000D01*
X131995844Y-57525999D01*
X132055372Y-57519598D01*
X132055379Y-57519596D01*
X132190086Y-57469354D01*
X132190093Y-57469350D01*
X132305187Y-57383190D01*
X132305190Y-57383187D01*
X132391350Y-57268093D01*
X132391354Y-57268086D01*
X132441596Y-57133379D01*
X132441598Y-57133372D01*
X132447999Y-57073844D01*
X132448000Y-57073827D01*
X132448000Y-56516000D01*
X131811769Y-56516000D01*
X131744730Y-56496315D01*
X131698975Y-56443511D01*
X131689031Y-56374353D01*
X131692792Y-56357064D01*
X131698000Y-56339327D01*
X131698000Y-56192672D01*
X131692792Y-56174936D01*
X131692792Y-56105066D01*
X131730566Y-56046288D01*
X131794121Y-56017262D01*
X131811769Y-56016000D01*
X132448000Y-56016000D01*
X132448000Y-55458172D01*
X132447999Y-55458155D01*
X132441598Y-55398627D01*
X132441596Y-55398620D01*
X132391354Y-55263913D01*
X132391350Y-55263906D01*
X132305190Y-55148812D01*
X132305187Y-55148809D01*
X132190093Y-55062649D01*
X132190086Y-55062645D01*
X132055379Y-55012403D01*
X132055372Y-55012401D01*
X131995844Y-55006000D01*
X131438000Y-55006000D01*
X131438000Y-55643596D01*
X131418315Y-55710635D01*
X131365511Y-55756390D01*
X131296355Y-55766334D01*
X131224476Y-55756000D01*
X131224473Y-55756000D01*
X131151527Y-55756000D01*
X131151523Y-55756000D01*
X131079644Y-55766334D01*
X131010486Y-55756390D01*
X130957682Y-55710634D01*
X130937999Y-55643596D01*
X130938000Y-55006000D01*
X130380155Y-55006000D01*
X130320627Y-55012401D01*
X130320620Y-55012403D01*
X130185913Y-55062645D01*
X130185906Y-55062649D01*
X130070812Y-55148809D01*
X130070809Y-55148812D01*
X129984649Y-55263906D01*
X129984645Y-55263913D01*
X129934403Y-55398620D01*
X129934401Y-55398627D01*
X129928000Y-55458155D01*
X129928000Y-56016000D01*
X130564231Y-56016000D01*
X130631270Y-56035685D01*
X130677025Y-56088489D01*
X130686969Y-56157647D01*
X130683208Y-56174936D01*
X130678000Y-56192672D01*
X130678000Y-56339327D01*
X130683208Y-56357064D01*
X130683208Y-56426934D01*
X130645434Y-56485712D01*
X130581879Y-56514738D01*
X130564231Y-56516000D01*
X129928000Y-56516000D01*
X129928000Y-57073844D01*
X127561128Y-57073844D01*
X127683794Y-56898658D01*
X127777006Y-56698763D01*
X127834091Y-56485720D01*
X127835808Y-56466102D01*
X127853314Y-56266001D01*
X127853314Y-56265998D01*
X127843274Y-56151241D01*
X127834091Y-56046280D01*
X127777006Y-55833237D01*
X127683794Y-55633343D01*
X127557287Y-55452671D01*
X127557285Y-55452668D01*
X127401329Y-55296712D01*
X127220661Y-55170207D01*
X127220653Y-55170203D01*
X127020768Y-55076995D01*
X127020754Y-55076990D01*
X126807723Y-55019909D01*
X126807721Y-55019908D01*
X126807719Y-55019908D01*
X126807717Y-55019907D01*
X126807713Y-55019907D01*
X126588001Y-55000685D01*
X126587997Y-55000685D01*
X126368284Y-55019907D01*
X126368274Y-55019909D01*
X126155243Y-55076990D01*
X126155234Y-55076994D01*
X125955343Y-55170204D01*
X125955341Y-55170205D01*
X125774667Y-55296713D01*
X125618712Y-55452668D01*
X125492204Y-55633342D01*
X125492203Y-55633344D01*
X125398993Y-55833235D01*
X125398989Y-55833244D01*
X125341908Y-56046275D01*
X125341906Y-56046285D01*
X125322684Y-56265998D01*
X125322684Y-56266001D01*
X115433500Y-56266001D01*
X115433500Y-52914738D01*
X115435224Y-52899124D01*
X115434938Y-52899097D01*
X115435672Y-52891334D01*
X115433500Y-52822203D01*
X115433500Y-52792651D01*
X115433500Y-52792650D01*
X115432629Y-52785759D01*
X115432172Y-52779945D01*
X115430709Y-52733372D01*
X115425122Y-52714144D01*
X115421174Y-52695084D01*
X115418664Y-52675208D01*
X115418663Y-52675206D01*
X115418663Y-52675204D01*
X115401512Y-52631887D01*
X115399619Y-52626358D01*
X115386618Y-52581609D01*
X115386616Y-52581606D01*
X115376423Y-52564371D01*
X115367861Y-52546894D01*
X115360487Y-52528270D01*
X115360486Y-52528268D01*
X115333079Y-52490545D01*
X115329888Y-52485686D01*
X115306172Y-52445583D01*
X115306165Y-52445574D01*
X115292006Y-52431415D01*
X115279368Y-52416619D01*
X115267594Y-52400413D01*
X115231688Y-52370709D01*
X115227376Y-52366786D01*
X113203396Y-50342805D01*
X138944859Y-50342805D01*
X138965385Y-50590529D01*
X138965387Y-50590538D01*
X139026412Y-50831517D01*
X139126266Y-51059164D01*
X139226564Y-51212682D01*
X139841050Y-50598195D01*
X139902373Y-50564710D01*
X139972064Y-50569694D01*
X140027998Y-50611565D01*
X140033039Y-50618825D01*
X140033048Y-50618839D01*
X140068239Y-50673598D01*
X140183602Y-50773559D01*
X140181293Y-50776222D01*
X140216006Y-50816299D01*
X140225935Y-50885460D01*
X140196898Y-50949010D01*
X140190882Y-50955469D01*
X139579942Y-51566409D01*
X139626768Y-51602855D01*
X139626770Y-51602856D01*
X139845385Y-51721164D01*
X139845396Y-51721169D01*
X140080506Y-51801883D01*
X140325707Y-51842800D01*
X140574293Y-51842800D01*
X140819493Y-51801883D01*
X141054603Y-51721169D01*
X141054614Y-51721164D01*
X141273228Y-51602857D01*
X141273231Y-51602855D01*
X141320056Y-51566409D01*
X140709116Y-50955469D01*
X140675631Y-50894146D01*
X140680615Y-50824454D01*
X140717641Y-50774993D01*
X140716398Y-50773559D01*
X140759878Y-50735884D01*
X140831761Y-50673598D01*
X140866954Y-50618837D01*
X140919755Y-50573083D01*
X140988914Y-50563139D01*
X141052470Y-50592163D01*
X141058949Y-50598196D01*
X141673434Y-51212682D01*
X141773731Y-51059169D01*
X141873587Y-50831517D01*
X141934612Y-50590538D01*
X141934614Y-50590529D01*
X141955141Y-50342805D01*
X141955141Y-50342794D01*
X141934614Y-50095070D01*
X141934612Y-50095061D01*
X141873587Y-49854082D01*
X141773731Y-49626430D01*
X141673434Y-49472916D01*
X141058949Y-50087402D01*
X140997626Y-50120887D01*
X140927934Y-50115903D01*
X140872001Y-50074031D01*
X140866953Y-50066761D01*
X140831761Y-50012002D01*
X140716398Y-49912041D01*
X140718698Y-49909385D01*
X140683960Y-49869228D01*
X140674074Y-49800061D01*
X140703152Y-49736529D01*
X140709116Y-49730129D01*
X141320056Y-49119189D01*
X141273229Y-49082743D01*
X141054614Y-48964435D01*
X141054603Y-48964430D01*
X140819493Y-48883716D01*
X140574293Y-48842800D01*
X140325707Y-48842800D01*
X140080506Y-48883716D01*
X139845396Y-48964430D01*
X139845390Y-48964432D01*
X139626761Y-49082749D01*
X139579942Y-49119188D01*
X139579942Y-49119190D01*
X140190883Y-49730130D01*
X140224368Y-49791453D01*
X140219384Y-49861144D01*
X140182358Y-49910605D01*
X140183602Y-49912041D01*
X140068238Y-50012002D01*
X140033046Y-50066762D01*
X139980242Y-50112517D01*
X139911083Y-50122460D01*
X139847528Y-50093434D01*
X139841050Y-50087403D01*
X139226564Y-49472916D01*
X139126267Y-49626432D01*
X139026412Y-49854082D01*
X138965387Y-50095061D01*
X138965385Y-50095070D01*
X138944859Y-50342794D01*
X138944859Y-50342805D01*
X113203396Y-50342805D01*
X112966219Y-50105628D01*
X112932734Y-50044305D01*
X112929900Y-50017947D01*
X112929900Y-45735808D01*
X112949585Y-45668769D01*
X112966218Y-45648127D01*
X112972481Y-45641865D01*
X113056144Y-45500398D01*
X113101998Y-45342569D01*
X113104900Y-45305694D01*
X113104900Y-45090005D01*
X123602556Y-45090005D01*
X123622310Y-45404004D01*
X123622311Y-45404011D01*
X123622312Y-45404015D01*
X123672816Y-45668769D01*
X123681270Y-45713083D01*
X123778497Y-46012316D01*
X123778499Y-46012321D01*
X123912461Y-46297003D01*
X123912464Y-46297009D01*
X124081051Y-46562661D01*
X124081054Y-46562665D01*
X124281606Y-46805090D01*
X124281608Y-46805092D01*
X124510968Y-47020476D01*
X124510978Y-47020484D01*
X124765504Y-47205408D01*
X124765509Y-47205410D01*
X124765516Y-47205416D01*
X125041234Y-47356994D01*
X125041239Y-47356996D01*
X125041241Y-47356997D01*
X125041242Y-47356998D01*
X125333771Y-47472818D01*
X125333774Y-47472819D01*
X125638523Y-47551065D01*
X125638527Y-47551066D01*
X125704010Y-47559338D01*
X125950670Y-47590499D01*
X125950679Y-47590499D01*
X125950682Y-47590500D01*
X125950684Y-47590500D01*
X126265316Y-47590500D01*
X126265318Y-47590500D01*
X126265321Y-47590499D01*
X126265329Y-47590499D01*
X126451593Y-47566968D01*
X126577473Y-47551066D01*
X126882225Y-47472819D01*
X126882228Y-47472818D01*
X127174757Y-47356998D01*
X127174758Y-47356997D01*
X127174756Y-47356997D01*
X127174766Y-47356994D01*
X127450484Y-47205416D01*
X127705030Y-47020478D01*
X127934390Y-46805094D01*
X128134947Y-46562663D01*
X128303537Y-46297007D01*
X128437503Y-46012315D01*
X128534731Y-45713079D01*
X128593688Y-45404015D01*
X128613444Y-45090000D01*
X128593688Y-44775985D01*
X128534731Y-44466921D01*
X128437503Y-44167685D01*
X128307383Y-43891166D01*
X128296650Y-43822126D01*
X128324946Y-43758242D01*
X128331888Y-43750700D01*
X132825873Y-39256715D01*
X132887194Y-39223232D01*
X132956886Y-39228216D01*
X132989713Y-39246543D01*
X133136091Y-39360474D01*
X133354790Y-39478828D01*
X133589986Y-39559571D01*
X133835265Y-39600500D01*
X134083935Y-39600500D01*
X134329214Y-39559571D01*
X134564410Y-39478828D01*
X134783109Y-39360474D01*
X134979344Y-39207738D01*
X135147764Y-39024785D01*
X135283773Y-38816607D01*
X135383663Y-38588881D01*
X135444708Y-38347821D01*
X135454347Y-38231489D01*
X138695500Y-38231489D01*
X138734690Y-38491503D01*
X138734692Y-38491509D01*
X138812202Y-38742788D01*
X138926295Y-38979705D01*
X138926297Y-38979707D01*
X138926298Y-38979710D01*
X139074430Y-39196980D01*
X139253290Y-39389746D01*
X139458883Y-39553701D01*
X139686616Y-39685183D01*
X139931402Y-39781254D01*
X140187772Y-39839769D01*
X140187778Y-39839769D01*
X140187781Y-39839770D01*
X140384340Y-39854500D01*
X140384346Y-39854500D01*
X140515660Y-39854500D01*
X140712218Y-39839770D01*
X140712220Y-39839769D01*
X140712228Y-39839769D01*
X140968598Y-39781254D01*
X141213384Y-39685183D01*
X141441117Y-39553701D01*
X141646710Y-39389746D01*
X141825570Y-39196980D01*
X141973702Y-38979710D01*
X142087798Y-38742788D01*
X142165308Y-38491508D01*
X142204500Y-38231482D01*
X142204500Y-37968518D01*
X142204499Y-37968510D01*
X142165309Y-37708496D01*
X142165307Y-37708490D01*
X142159604Y-37690000D01*
X142087798Y-37457212D01*
X141973702Y-37220290D01*
X141825570Y-37003020D01*
X141646710Y-36810254D01*
X141441117Y-36646299D01*
X141213384Y-36514817D01*
X140968598Y-36418746D01*
X140968593Y-36418744D01*
X140968584Y-36418742D01*
X140715956Y-36361082D01*
X140712228Y-36360231D01*
X140712227Y-36360230D01*
X140712223Y-36360230D01*
X140712218Y-36360229D01*
X140515660Y-36345500D01*
X140515654Y-36345500D01*
X140384346Y-36345500D01*
X140384340Y-36345500D01*
X140187781Y-36360229D01*
X140187776Y-36360230D01*
X139931415Y-36418742D01*
X139931396Y-36418748D01*
X139686615Y-36514817D01*
X139458883Y-36646299D01*
X139253290Y-36810254D01*
X139253288Y-36810256D01*
X139074430Y-37003019D01*
X138926295Y-37220294D01*
X138812202Y-37457211D01*
X138734692Y-37708490D01*
X138734690Y-37708496D01*
X138695500Y-37968510D01*
X138695500Y-38231489D01*
X135454347Y-38231489D01*
X135454348Y-38231482D01*
X135465243Y-38100005D01*
X135465243Y-38099994D01*
X135444709Y-37852187D01*
X135444707Y-37852175D01*
X135383663Y-37611118D01*
X135283773Y-37383393D01*
X135147766Y-37175217D01*
X135091730Y-37114346D01*
X134979344Y-36992262D01*
X134783109Y-36839526D01*
X134783107Y-36839525D01*
X134783106Y-36839524D01*
X134564411Y-36721172D01*
X134564402Y-36721169D01*
X134329216Y-36640429D01*
X134083935Y-36599500D01*
X133835265Y-36599500D01*
X133589983Y-36640429D01*
X133354797Y-36721169D01*
X133354788Y-36721172D01*
X133136093Y-36839524D01*
X132939857Y-36992261D01*
X132771433Y-37175217D01*
X132635426Y-37383393D01*
X132535538Y-37611114D01*
X132535536Y-37611120D01*
X132487369Y-37801323D01*
X132454845Y-37858563D01*
X128719680Y-41593726D01*
X128658357Y-41627211D01*
X128588665Y-41622227D01*
X128532732Y-41580355D01*
X128508315Y-41514891D01*
X128507999Y-41506045D01*
X128508000Y-40340000D01*
X127576607Y-40340000D01*
X127509568Y-40320315D01*
X127463813Y-40267511D01*
X127453079Y-40205193D01*
X127463157Y-40090001D01*
X127463157Y-40089998D01*
X127453079Y-39974807D01*
X127466846Y-39906307D01*
X127515461Y-39856124D01*
X127576607Y-39840000D01*
X128508000Y-39840000D01*
X128508000Y-38142172D01*
X128507999Y-38142155D01*
X128501598Y-38082627D01*
X128501596Y-38082620D01*
X128451354Y-37947913D01*
X128451350Y-37947906D01*
X128365190Y-37832812D01*
X128365187Y-37832809D01*
X128250093Y-37746649D01*
X128250086Y-37746645D01*
X128115379Y-37696403D01*
X128115372Y-37696401D01*
X128055844Y-37690000D01*
X126357999Y-37690000D01*
X126357999Y-38621392D01*
X126338314Y-38688432D01*
X126285510Y-38734186D01*
X126223193Y-38744920D01*
X126166946Y-38740000D01*
X126166945Y-38740000D01*
X126049055Y-38740000D01*
X125992808Y-38744921D01*
X125924308Y-38731155D01*
X125874125Y-38682539D01*
X125858000Y-38621393D01*
X125858000Y-37690000D01*
X124160155Y-37690000D01*
X124100627Y-37696401D01*
X124100620Y-37696403D01*
X123965913Y-37746645D01*
X123965906Y-37746649D01*
X123850812Y-37832809D01*
X123850809Y-37832812D01*
X123764649Y-37947906D01*
X123764645Y-37947913D01*
X123714403Y-38082620D01*
X123714401Y-38082627D01*
X123708000Y-38142155D01*
X123708000Y-39840000D01*
X124639393Y-39840000D01*
X124706432Y-39859685D01*
X124752187Y-39912489D01*
X124762921Y-39974807D01*
X124752843Y-40089998D01*
X124752843Y-40090001D01*
X124762921Y-40205193D01*
X124749154Y-40273693D01*
X124700539Y-40323876D01*
X124639393Y-40340000D01*
X123708000Y-40340000D01*
X123708000Y-42037844D01*
X123714401Y-42097372D01*
X123714403Y-42097379D01*
X123764645Y-42232086D01*
X123764649Y-42232093D01*
X123850809Y-42347187D01*
X123850812Y-42347190D01*
X123965906Y-42433350D01*
X123965913Y-42433354D01*
X124100620Y-42483596D01*
X124100627Y-42483598D01*
X124160155Y-42489999D01*
X124160172Y-42490000D01*
X125232280Y-42490000D01*
X125299319Y-42509685D01*
X125345074Y-42562489D01*
X125355018Y-42631647D01*
X125325993Y-42695203D01*
X125277927Y-42729292D01*
X125041242Y-42823001D01*
X125041241Y-42823002D01*
X124765516Y-42974584D01*
X124765504Y-42974591D01*
X124510978Y-43159515D01*
X124510968Y-43159523D01*
X124281608Y-43374907D01*
X124281606Y-43374909D01*
X124081054Y-43617334D01*
X124081051Y-43617338D01*
X123912464Y-43882990D01*
X123912461Y-43882996D01*
X123778499Y-44167678D01*
X123778497Y-44167683D01*
X123681270Y-44466916D01*
X123622311Y-44775988D01*
X123622310Y-44775995D01*
X123602556Y-45089994D01*
X123602556Y-45090005D01*
X113104900Y-45090005D01*
X113104900Y-43774306D01*
X113101998Y-43737431D01*
X113056144Y-43579602D01*
X112972481Y-43438135D01*
X112972479Y-43438133D01*
X112972476Y-43438129D01*
X112856270Y-43321923D01*
X112856262Y-43321917D01*
X112714796Y-43238255D01*
X112714793Y-43238254D01*
X112556973Y-43192402D01*
X112556967Y-43192401D01*
X112520096Y-43189500D01*
X112520094Y-43189500D01*
X112088706Y-43189500D01*
X112088704Y-43189500D01*
X112051832Y-43192401D01*
X112051826Y-43192402D01*
X111894006Y-43238254D01*
X111894003Y-43238255D01*
X111745820Y-43325890D01*
X111744654Y-43323919D01*
X111690342Y-43345232D01*
X111621827Y-43331540D01*
X111612995Y-43325864D01*
X111612980Y-43325890D01*
X111464796Y-43238255D01*
X111464793Y-43238254D01*
X111306973Y-43192402D01*
X111306967Y-43192401D01*
X111270096Y-43189500D01*
X111270094Y-43189500D01*
X110838706Y-43189500D01*
X110838704Y-43189500D01*
X110801832Y-43192401D01*
X110801826Y-43192402D01*
X110644006Y-43238254D01*
X110644003Y-43238255D01*
X110502537Y-43321917D01*
X110502529Y-43321923D01*
X110386323Y-43438129D01*
X110386317Y-43438137D01*
X110302655Y-43579603D01*
X110302654Y-43579606D01*
X110256802Y-43737426D01*
X110256801Y-43737432D01*
X110253900Y-43774304D01*
X110253900Y-45305696D01*
X99742674Y-45305696D01*
X99756244Y-45090000D01*
X99736488Y-44775985D01*
X99677531Y-44466921D01*
X99580303Y-44167685D01*
X99446337Y-43882993D01*
X99362374Y-43750688D01*
X99277748Y-43617338D01*
X99277745Y-43617334D01*
X99077193Y-43374909D01*
X99077191Y-43374907D01*
X99022895Y-43323919D01*
X98847830Y-43159522D01*
X98847827Y-43159520D01*
X98847821Y-43159515D01*
X98593295Y-42974591D01*
X98593288Y-42974586D01*
X98593284Y-42974584D01*
X98317566Y-42823006D01*
X98317563Y-42823004D01*
X98317558Y-42823002D01*
X98317557Y-42823001D01*
X98080873Y-42729292D01*
X98025787Y-42686311D01*
X98002684Y-42620372D01*
X98018897Y-42552409D01*
X98069281Y-42504002D01*
X98126520Y-42490000D01*
X99198628Y-42490000D01*
X99198644Y-42489999D01*
X99258172Y-42483598D01*
X99258179Y-42483596D01*
X99392886Y-42433354D01*
X99392893Y-42433350D01*
X99450799Y-42390001D01*
X108203900Y-42390001D01*
X108203901Y-42390018D01*
X108214400Y-42492796D01*
X108214401Y-42492799D01*
X108246445Y-42589500D01*
X108269586Y-42659334D01*
X108361688Y-42808656D01*
X108485744Y-42932712D01*
X108635066Y-43024814D01*
X108801603Y-43079999D01*
X108904391Y-43090500D01*
X109504408Y-43090499D01*
X109504416Y-43090498D01*
X109504419Y-43090498D01*
X109560702Y-43084748D01*
X109607197Y-43079999D01*
X109773734Y-43024814D01*
X109923056Y-42932712D01*
X110047112Y-42808656D01*
X110139214Y-42659334D01*
X110194399Y-42492797D01*
X110204900Y-42390009D01*
X110204900Y-42390001D01*
X113153900Y-42390001D01*
X113153901Y-42390018D01*
X113164400Y-42492796D01*
X113164401Y-42492799D01*
X113196445Y-42589500D01*
X113219586Y-42659334D01*
X113311688Y-42808656D01*
X113435744Y-42932712D01*
X113585066Y-43024814D01*
X113751603Y-43079999D01*
X113854391Y-43090500D01*
X114454408Y-43090499D01*
X114454416Y-43090498D01*
X114454419Y-43090498D01*
X114510702Y-43084748D01*
X114557197Y-43079999D01*
X114723734Y-43024814D01*
X114873056Y-42932712D01*
X114997112Y-42808656D01*
X115089214Y-42659334D01*
X115144399Y-42492797D01*
X115154900Y-42390009D01*
X115154899Y-39989992D01*
X115146350Y-39906307D01*
X115144399Y-39887203D01*
X115144398Y-39887200D01*
X115134100Y-39856124D01*
X115089214Y-39720666D01*
X114997112Y-39571344D01*
X114873056Y-39447288D01*
X114732309Y-39360475D01*
X114723736Y-39355187D01*
X114723731Y-39355185D01*
X114722262Y-39354698D01*
X114557197Y-39300001D01*
X114557195Y-39300000D01*
X114454410Y-39289500D01*
X113854398Y-39289500D01*
X113854380Y-39289501D01*
X113751603Y-39300000D01*
X113751600Y-39300001D01*
X113585068Y-39355185D01*
X113585063Y-39355187D01*
X113435742Y-39447289D01*
X113311689Y-39571342D01*
X113219587Y-39720663D01*
X113219585Y-39720666D01*
X113219586Y-39720666D01*
X113164401Y-39887203D01*
X113164401Y-39887204D01*
X113164400Y-39887204D01*
X113153900Y-39989983D01*
X113153900Y-42390001D01*
X110204900Y-42390001D01*
X110204899Y-39989992D01*
X110196350Y-39906307D01*
X110194399Y-39887203D01*
X110194398Y-39887200D01*
X110184100Y-39856124D01*
X110139214Y-39720666D01*
X110047112Y-39571344D01*
X109923056Y-39447288D01*
X109782309Y-39360475D01*
X109773736Y-39355187D01*
X109773731Y-39355185D01*
X109772262Y-39354698D01*
X109607197Y-39300001D01*
X109607195Y-39300000D01*
X109504410Y-39289500D01*
X108904398Y-39289500D01*
X108904380Y-39289501D01*
X108801603Y-39300000D01*
X108801600Y-39300001D01*
X108635068Y-39355185D01*
X108635063Y-39355187D01*
X108485742Y-39447289D01*
X108361689Y-39571342D01*
X108269587Y-39720663D01*
X108269585Y-39720666D01*
X108269586Y-39720666D01*
X108214401Y-39887203D01*
X108214401Y-39887204D01*
X108214400Y-39887204D01*
X108203900Y-39989983D01*
X108203900Y-42390001D01*
X99450799Y-42390001D01*
X99507987Y-42347190D01*
X99507990Y-42347187D01*
X99594150Y-42232093D01*
X99594154Y-42232086D01*
X99644396Y-42097379D01*
X99644398Y-42097372D01*
X99650799Y-42037844D01*
X99650800Y-42037827D01*
X99650800Y-40340000D01*
X98719407Y-40340000D01*
X98652368Y-40320315D01*
X98606613Y-40267511D01*
X98595879Y-40205193D01*
X98605957Y-40090001D01*
X98605957Y-40089998D01*
X98595879Y-39974807D01*
X98609646Y-39906307D01*
X98658261Y-39856124D01*
X98719407Y-39840000D01*
X99650800Y-39840000D01*
X99650800Y-38142172D01*
X99650799Y-38142155D01*
X99644398Y-38082627D01*
X99644396Y-38082620D01*
X99594154Y-37947913D01*
X99594150Y-37947906D01*
X99507990Y-37832812D01*
X99507987Y-37832809D01*
X99392893Y-37746649D01*
X99392886Y-37746645D01*
X99258179Y-37696403D01*
X99258172Y-37696401D01*
X99198644Y-37690000D01*
X97500800Y-37690000D01*
X97500800Y-38621393D01*
X97481115Y-38688432D01*
X97428311Y-38734187D01*
X97365992Y-38744921D01*
X97309745Y-38740000D01*
X97191855Y-38740000D01*
X97135606Y-38744921D01*
X97067106Y-38731154D01*
X97016923Y-38682539D01*
X97000799Y-38621393D01*
X97000800Y-37690000D01*
X95302955Y-37690000D01*
X95243427Y-37696401D01*
X95243420Y-37696403D01*
X95108713Y-37746645D01*
X95108706Y-37746649D01*
X94993612Y-37832809D01*
X94993609Y-37832812D01*
X94907449Y-37947906D01*
X94907445Y-37947913D01*
X94857203Y-38082620D01*
X94857201Y-38082627D01*
X94850800Y-38142155D01*
X94850800Y-39840000D01*
X95782193Y-39840000D01*
X95849232Y-39859685D01*
X95894987Y-39912489D01*
X95905721Y-39974807D01*
X95895643Y-40089998D01*
X95895643Y-40090001D01*
X95905721Y-40205193D01*
X95891954Y-40273693D01*
X95843339Y-40323876D01*
X95782193Y-40340000D01*
X94850800Y-40340000D01*
X94850800Y-42037844D01*
X94857201Y-42097372D01*
X94857203Y-42097379D01*
X94907445Y-42232086D01*
X94907449Y-42232093D01*
X94993609Y-42347187D01*
X94993612Y-42347190D01*
X95108706Y-42433350D01*
X95108713Y-42433354D01*
X95243420Y-42483596D01*
X95243427Y-42483598D01*
X95302955Y-42489999D01*
X95302972Y-42490000D01*
X96375080Y-42490000D01*
X96442119Y-42509685D01*
X96487874Y-42562489D01*
X96497818Y-42631647D01*
X96468793Y-42695203D01*
X96420727Y-42729292D01*
X96184042Y-42823001D01*
X96184041Y-42823002D01*
X95908316Y-42974584D01*
X95908304Y-42974591D01*
X95653778Y-43159515D01*
X95653768Y-43159523D01*
X95424408Y-43374907D01*
X95424406Y-43374909D01*
X95223854Y-43617334D01*
X95223851Y-43617338D01*
X95055264Y-43882990D01*
X95055261Y-43882996D01*
X94921299Y-44167678D01*
X94921297Y-44167683D01*
X94824070Y-44466916D01*
X94765111Y-44775988D01*
X94765110Y-44775995D01*
X94745356Y-45089994D01*
X94745356Y-45090005D01*
X84247700Y-45090005D01*
X84247700Y-43774306D01*
X84244798Y-43737431D01*
X84198944Y-43579602D01*
X84115281Y-43438135D01*
X84115279Y-43438133D01*
X84115276Y-43438129D01*
X83999070Y-43321923D01*
X83999062Y-43321917D01*
X83857596Y-43238255D01*
X83857593Y-43238254D01*
X83699773Y-43192402D01*
X83699767Y-43192401D01*
X83662896Y-43189500D01*
X83662894Y-43189500D01*
X83231506Y-43189500D01*
X83231504Y-43189500D01*
X83194632Y-43192401D01*
X83194626Y-43192402D01*
X83036806Y-43238254D01*
X83036803Y-43238255D01*
X82888620Y-43325890D01*
X82887454Y-43323919D01*
X82833142Y-43345232D01*
X82764627Y-43331540D01*
X82755795Y-43325864D01*
X82755780Y-43325890D01*
X82607596Y-43238255D01*
X82607593Y-43238254D01*
X82449773Y-43192402D01*
X82449767Y-43192401D01*
X82412896Y-43189500D01*
X82412894Y-43189500D01*
X81981506Y-43189500D01*
X81981504Y-43189500D01*
X81944632Y-43192401D01*
X81944626Y-43192402D01*
X81786806Y-43238254D01*
X81786803Y-43238255D01*
X81645337Y-43321917D01*
X81645329Y-43321923D01*
X81529123Y-43438129D01*
X81529117Y-43438137D01*
X81445455Y-43579603D01*
X81445454Y-43579606D01*
X81399602Y-43737426D01*
X81399601Y-43737432D01*
X81396700Y-43774304D01*
X81396700Y-44404546D01*
X81377015Y-44471585D01*
X81360381Y-44492227D01*
X73718662Y-52133945D01*
X73657339Y-52167430D01*
X73587647Y-52162446D01*
X73531714Y-52120574D01*
X73513050Y-52084582D01*
X73471181Y-51955721D01*
X73471178Y-51955715D01*
X73405987Y-51842800D01*
X73376533Y-51791784D01*
X73249871Y-51651112D01*
X73249870Y-51651111D01*
X73096734Y-51539851D01*
X73096729Y-51539848D01*
X72923807Y-51462857D01*
X72923802Y-51462855D01*
X72778001Y-51431865D01*
X72738646Y-51423500D01*
X72549354Y-51423500D01*
X72516897Y-51430398D01*
X72364197Y-51462855D01*
X72364192Y-51462857D01*
X72191270Y-51539848D01*
X72191265Y-51539851D01*
X72038130Y-51651110D01*
X72038126Y-51651114D01*
X72032400Y-51657474D01*
X71972913Y-51694121D01*
X71940252Y-51698500D01*
X62540452Y-51698500D01*
X62473413Y-51678815D01*
X62452771Y-51662181D01*
X55880596Y-45090005D01*
X65888156Y-45090005D01*
X65907910Y-45404004D01*
X65907911Y-45404011D01*
X65907912Y-45404015D01*
X65958416Y-45668769D01*
X65966870Y-45713083D01*
X66064097Y-46012316D01*
X66064099Y-46012321D01*
X66198061Y-46297003D01*
X66198064Y-46297009D01*
X66366651Y-46562661D01*
X66366654Y-46562665D01*
X66567206Y-46805090D01*
X66567208Y-46805092D01*
X66796568Y-47020476D01*
X66796578Y-47020484D01*
X67051104Y-47205408D01*
X67051109Y-47205410D01*
X67051116Y-47205416D01*
X67326834Y-47356994D01*
X67326839Y-47356996D01*
X67326841Y-47356997D01*
X67326842Y-47356998D01*
X67619371Y-47472818D01*
X67619374Y-47472819D01*
X67924123Y-47551065D01*
X67924127Y-47551066D01*
X67989610Y-47559338D01*
X68236270Y-47590499D01*
X68236279Y-47590499D01*
X68236282Y-47590500D01*
X68236284Y-47590500D01*
X68550916Y-47590500D01*
X68550918Y-47590500D01*
X68550921Y-47590499D01*
X68550929Y-47590499D01*
X68737193Y-47566968D01*
X68863073Y-47551066D01*
X69167825Y-47472819D01*
X69167828Y-47472818D01*
X69460357Y-47356998D01*
X69460358Y-47356997D01*
X69460356Y-47356997D01*
X69460366Y-47356994D01*
X69736084Y-47205416D01*
X69990630Y-47020478D01*
X70219990Y-46805094D01*
X70420547Y-46562663D01*
X70589137Y-46297007D01*
X70723103Y-46012315D01*
X70820331Y-45713079D01*
X70879288Y-45404015D01*
X70899044Y-45090000D01*
X70879288Y-44775985D01*
X70820331Y-44466921D01*
X70723103Y-44167685D01*
X70589137Y-43882993D01*
X70505174Y-43750688D01*
X70420548Y-43617338D01*
X70420545Y-43617334D01*
X70219993Y-43374909D01*
X70219991Y-43374907D01*
X70165695Y-43323919D01*
X69990630Y-43159522D01*
X69990627Y-43159520D01*
X69990621Y-43159515D01*
X69736095Y-42974591D01*
X69736088Y-42974586D01*
X69736084Y-42974584D01*
X69460366Y-42823006D01*
X69460363Y-42823004D01*
X69460358Y-42823002D01*
X69460357Y-42823001D01*
X69223673Y-42729292D01*
X69168587Y-42686311D01*
X69145484Y-42620372D01*
X69161697Y-42552409D01*
X69212081Y-42504002D01*
X69269320Y-42490000D01*
X70341428Y-42490000D01*
X70341444Y-42489999D01*
X70400972Y-42483598D01*
X70400979Y-42483596D01*
X70535686Y-42433354D01*
X70535693Y-42433350D01*
X70593599Y-42390001D01*
X79346700Y-42390001D01*
X79346701Y-42390018D01*
X79357200Y-42492796D01*
X79357201Y-42492799D01*
X79389245Y-42589500D01*
X79412386Y-42659334D01*
X79504488Y-42808656D01*
X79628544Y-42932712D01*
X79777866Y-43024814D01*
X79944403Y-43079999D01*
X80047191Y-43090500D01*
X80647208Y-43090499D01*
X80647216Y-43090498D01*
X80647219Y-43090498D01*
X80703502Y-43084748D01*
X80749997Y-43079999D01*
X80916534Y-43024814D01*
X81065856Y-42932712D01*
X81189912Y-42808656D01*
X81282014Y-42659334D01*
X81337199Y-42492797D01*
X81347700Y-42390009D01*
X81347700Y-42390001D01*
X84296700Y-42390001D01*
X84296701Y-42390018D01*
X84307200Y-42492796D01*
X84307201Y-42492799D01*
X84339245Y-42589500D01*
X84362386Y-42659334D01*
X84454488Y-42808656D01*
X84578544Y-42932712D01*
X84727866Y-43024814D01*
X84894403Y-43079999D01*
X84997191Y-43090500D01*
X85597208Y-43090499D01*
X85597216Y-43090498D01*
X85597219Y-43090498D01*
X85653502Y-43084748D01*
X85699997Y-43079999D01*
X85866534Y-43024814D01*
X86015856Y-42932712D01*
X86139912Y-42808656D01*
X86232014Y-42659334D01*
X86287199Y-42492797D01*
X86297700Y-42390009D01*
X86297699Y-39989992D01*
X86289150Y-39906307D01*
X86287199Y-39887203D01*
X86287198Y-39887200D01*
X86276900Y-39856124D01*
X86232014Y-39720666D01*
X86139912Y-39571344D01*
X86015856Y-39447288D01*
X85875109Y-39360475D01*
X85866536Y-39355187D01*
X85866531Y-39355185D01*
X85865062Y-39354698D01*
X85699997Y-39300001D01*
X85699995Y-39300000D01*
X85597210Y-39289500D01*
X84997198Y-39289500D01*
X84997180Y-39289501D01*
X84894403Y-39300000D01*
X84894400Y-39300001D01*
X84727868Y-39355185D01*
X84727863Y-39355187D01*
X84578542Y-39447289D01*
X84454489Y-39571342D01*
X84362387Y-39720663D01*
X84362385Y-39720666D01*
X84362386Y-39720666D01*
X84307201Y-39887203D01*
X84307201Y-39887204D01*
X84307200Y-39887204D01*
X84296700Y-39989983D01*
X84296700Y-42390001D01*
X81347700Y-42390001D01*
X81347699Y-39989992D01*
X81339150Y-39906307D01*
X81337199Y-39887203D01*
X81337198Y-39887200D01*
X81326900Y-39856124D01*
X81282014Y-39720666D01*
X81189912Y-39571344D01*
X81065856Y-39447288D01*
X80925109Y-39360475D01*
X80916536Y-39355187D01*
X80916531Y-39355185D01*
X80915062Y-39354698D01*
X80749997Y-39300001D01*
X80749995Y-39300000D01*
X80647210Y-39289500D01*
X80047198Y-39289500D01*
X80047180Y-39289501D01*
X79944403Y-39300000D01*
X79944400Y-39300001D01*
X79777868Y-39355185D01*
X79777863Y-39355187D01*
X79628542Y-39447289D01*
X79504489Y-39571342D01*
X79412387Y-39720663D01*
X79412385Y-39720666D01*
X79412386Y-39720666D01*
X79357201Y-39887203D01*
X79357201Y-39887204D01*
X79357200Y-39887204D01*
X79346700Y-39989983D01*
X79346700Y-42390001D01*
X70593599Y-42390001D01*
X70650787Y-42347190D01*
X70650790Y-42347187D01*
X70736950Y-42232093D01*
X70736954Y-42232086D01*
X70787196Y-42097379D01*
X70787198Y-42097372D01*
X70793599Y-42037844D01*
X70793600Y-42037827D01*
X70793600Y-40340000D01*
X69862207Y-40340000D01*
X69795168Y-40320315D01*
X69749413Y-40267511D01*
X69738679Y-40205193D01*
X69748757Y-40090001D01*
X69748757Y-40089998D01*
X69738679Y-39974807D01*
X69752446Y-39906307D01*
X69801061Y-39856124D01*
X69862207Y-39840000D01*
X70793600Y-39840000D01*
X70793600Y-38142172D01*
X70793599Y-38142155D01*
X70787198Y-38082627D01*
X70787196Y-38082620D01*
X70736954Y-37947913D01*
X70736950Y-37947906D01*
X70650790Y-37832812D01*
X70650787Y-37832809D01*
X70535693Y-37746649D01*
X70535686Y-37746645D01*
X70400979Y-37696403D01*
X70400972Y-37696401D01*
X70341444Y-37690000D01*
X68643600Y-37690000D01*
X68643600Y-38621393D01*
X68623915Y-38688432D01*
X68571111Y-38734187D01*
X68508792Y-38744921D01*
X68452545Y-38740000D01*
X68334655Y-38740000D01*
X68278408Y-38744921D01*
X68209908Y-38731155D01*
X68159725Y-38682539D01*
X68143600Y-38621393D01*
X68143600Y-37690000D01*
X66445755Y-37690000D01*
X66386227Y-37696401D01*
X66386220Y-37696403D01*
X66251513Y-37746645D01*
X66251506Y-37746649D01*
X66136412Y-37832809D01*
X66136409Y-37832812D01*
X66050249Y-37947906D01*
X66050245Y-37947913D01*
X66000003Y-38082620D01*
X66000001Y-38082627D01*
X65993600Y-38142155D01*
X65993600Y-39840000D01*
X66924993Y-39840000D01*
X66992032Y-39859685D01*
X67037787Y-39912489D01*
X67048521Y-39974807D01*
X67038443Y-40089998D01*
X67038443Y-40090001D01*
X67048521Y-40205193D01*
X67034754Y-40273693D01*
X66986139Y-40323876D01*
X66924993Y-40340000D01*
X65993600Y-40340000D01*
X65993600Y-42037844D01*
X66000001Y-42097372D01*
X66000003Y-42097379D01*
X66050245Y-42232086D01*
X66050249Y-42232093D01*
X66136409Y-42347187D01*
X66136412Y-42347190D01*
X66251506Y-42433350D01*
X66251513Y-42433354D01*
X66386220Y-42483596D01*
X66386227Y-42483598D01*
X66445755Y-42489999D01*
X66445772Y-42490000D01*
X67517880Y-42490000D01*
X67584919Y-42509685D01*
X67630674Y-42562489D01*
X67640618Y-42631647D01*
X67611593Y-42695203D01*
X67563527Y-42729292D01*
X67326842Y-42823001D01*
X67326841Y-42823002D01*
X67051116Y-42974584D01*
X67051104Y-42974591D01*
X66796578Y-43159515D01*
X66796568Y-43159523D01*
X66567208Y-43374907D01*
X66567206Y-43374909D01*
X66366654Y-43617334D01*
X66366651Y-43617338D01*
X66198064Y-43882990D01*
X66198061Y-43882996D01*
X66064099Y-44167678D01*
X66064097Y-44167683D01*
X65966870Y-44466916D01*
X65907911Y-44775988D01*
X65907910Y-44775995D01*
X65888156Y-45089994D01*
X65888156Y-45090005D01*
X55880596Y-45090005D01*
X55426819Y-44636228D01*
X55393334Y-44574905D01*
X55390500Y-44548547D01*
X55390500Y-43774304D01*
X55387598Y-43737432D01*
X55387597Y-43737426D01*
X55341745Y-43579606D01*
X55341744Y-43579603D01*
X55341744Y-43579602D01*
X55258081Y-43438135D01*
X55258079Y-43438133D01*
X55258076Y-43438129D01*
X55141870Y-43321923D01*
X55141862Y-43321917D01*
X55000396Y-43238255D01*
X55000393Y-43238254D01*
X54842573Y-43192402D01*
X54842567Y-43192401D01*
X54805696Y-43189500D01*
X54805694Y-43189500D01*
X54374306Y-43189500D01*
X54374304Y-43189500D01*
X54337432Y-43192401D01*
X54337426Y-43192402D01*
X54179606Y-43238254D01*
X54179603Y-43238255D01*
X54031420Y-43325890D01*
X54030254Y-43323919D01*
X53975942Y-43345232D01*
X53907427Y-43331540D01*
X53898595Y-43325864D01*
X53898580Y-43325890D01*
X53750396Y-43238255D01*
X53750393Y-43238254D01*
X53592573Y-43192402D01*
X53592567Y-43192401D01*
X53555696Y-43189500D01*
X53555694Y-43189500D01*
X53124306Y-43189500D01*
X53124304Y-43189500D01*
X53087432Y-43192401D01*
X53087426Y-43192402D01*
X52929606Y-43238254D01*
X52929603Y-43238255D01*
X52788137Y-43321917D01*
X52788129Y-43321923D01*
X52671923Y-43438129D01*
X52671917Y-43438137D01*
X52588255Y-43579603D01*
X52588254Y-43579606D01*
X52542402Y-43737426D01*
X52542401Y-43737432D01*
X52539500Y-43774304D01*
X52539500Y-45305696D01*
X52542401Y-45342567D01*
X52542402Y-45342573D01*
X52588254Y-45500393D01*
X52588255Y-45500396D01*
X52588256Y-45500398D01*
X52671918Y-45641864D01*
X52671923Y-45641870D01*
X52788129Y-45758076D01*
X52788133Y-45758079D01*
X52788135Y-45758081D01*
X52929602Y-45841744D01*
X52971224Y-45853836D01*
X53087426Y-45887597D01*
X53087429Y-45887597D01*
X53087431Y-45887598D01*
X53099722Y-45888565D01*
X53124304Y-45890500D01*
X53124306Y-45890500D01*
X53482797Y-45890500D01*
X53549836Y-45910185D01*
X53570478Y-45926819D01*
X61367446Y-53723788D01*
X61377271Y-53736051D01*
X61377492Y-53735869D01*
X61382463Y-53741878D01*
X61394614Y-53753288D01*
X61432884Y-53789226D01*
X61453778Y-53810120D01*
X61459260Y-53814373D01*
X61463692Y-53818157D01*
X61497667Y-53850062D01*
X61515225Y-53859714D01*
X61531484Y-53870395D01*
X61547313Y-53882673D01*
X61590087Y-53901182D01*
X61595305Y-53903738D01*
X61636157Y-53926197D01*
X61655565Y-53931180D01*
X61673966Y-53937480D01*
X61692353Y-53945437D01*
X61735737Y-53952308D01*
X61738368Y-53952725D01*
X61744088Y-53953909D01*
X61789230Y-53965500D01*
X61809265Y-53965500D01*
X61828663Y-53967026D01*
X61848443Y-53970159D01*
X61848444Y-53970160D01*
X61848444Y-53970159D01*
X61848445Y-53970160D01*
X61894832Y-53965775D01*
X61900671Y-53965500D01*
X71596548Y-53965500D01*
X71663587Y-53985185D01*
X71709342Y-54037989D01*
X71719286Y-54107147D01*
X71690261Y-54170703D01*
X71684229Y-54177181D01*
X69720208Y-56141199D01*
X69707951Y-56151020D01*
X69708134Y-56151241D01*
X69702123Y-56156213D01*
X69654772Y-56206636D01*
X69633889Y-56227519D01*
X69633877Y-56227532D01*
X69629621Y-56233017D01*
X69625837Y-56237447D01*
X69593937Y-56271418D01*
X69593936Y-56271420D01*
X69584284Y-56288976D01*
X69573610Y-56305226D01*
X69561329Y-56321061D01*
X69561324Y-56321068D01*
X69542815Y-56363838D01*
X69540245Y-56369084D01*
X69517803Y-56409906D01*
X69512822Y-56429307D01*
X69506521Y-56447710D01*
X69498562Y-56466102D01*
X69498561Y-56466105D01*
X69491271Y-56512127D01*
X69490087Y-56517846D01*
X69478501Y-56562972D01*
X69478500Y-56562982D01*
X69478500Y-56583016D01*
X69476973Y-56602415D01*
X69473840Y-56622194D01*
X69473840Y-56622195D01*
X69478225Y-56668583D01*
X69478500Y-56674421D01*
X69478500Y-67481255D01*
X69476775Y-67496872D01*
X69477061Y-67496899D01*
X69476326Y-67504665D01*
X69478500Y-67573814D01*
X69478500Y-67603343D01*
X69478501Y-67603360D01*
X69479368Y-67610231D01*
X69479826Y-67616050D01*
X69481290Y-67662624D01*
X69481291Y-67662627D01*
X69486880Y-67681867D01*
X69490824Y-67700911D01*
X69493336Y-67720791D01*
X69510490Y-67764119D01*
X69512382Y-67769647D01*
X69525381Y-67814388D01*
X69535580Y-67831634D01*
X69544138Y-67849103D01*
X69551514Y-67867732D01*
X69578898Y-67905423D01*
X69582106Y-67910307D01*
X69605827Y-67950416D01*
X69605833Y-67950424D01*
X69619990Y-67964580D01*
X69632628Y-67979376D01*
X69640926Y-67990798D01*
X69644406Y-67995587D01*
X69663761Y-68011599D01*
X69680309Y-68025288D01*
X69684620Y-68029210D01*
X72299245Y-70643836D01*
X73159197Y-71503788D01*
X73169022Y-71516051D01*
X73169243Y-71515869D01*
X73174214Y-71521878D01*
X73200217Y-71546295D01*
X73224635Y-71569226D01*
X73245529Y-71590120D01*
X73251011Y-71594373D01*
X73255443Y-71598157D01*
X73289418Y-71630062D01*
X73306976Y-71639714D01*
X73323235Y-71650395D01*
X73339064Y-71662673D01*
X73381838Y-71681182D01*
X73387056Y-71683738D01*
X73427908Y-71706197D01*
X73447316Y-71711180D01*
X73465717Y-71717480D01*
X73484104Y-71725437D01*
X73527488Y-71732308D01*
X73530119Y-71732725D01*
X73535839Y-71733909D01*
X73580981Y-71745500D01*
X73601016Y-71745500D01*
X73620414Y-71747026D01*
X73640194Y-71750159D01*
X73640195Y-71750160D01*
X73640195Y-71750159D01*
X73640196Y-71750160D01*
X73686583Y-71745775D01*
X73692422Y-71745500D01*
X75889548Y-71745500D01*
X75956587Y-71765185D01*
X75977229Y-71781819D01*
X80066562Y-75871152D01*
X80100047Y-75932475D01*
X80095063Y-76002167D01*
X80053191Y-76058100D01*
X79991484Y-76082191D01*
X79944402Y-76087001D01*
X79944400Y-76087001D01*
X79777868Y-76142185D01*
X79777863Y-76142187D01*
X79628542Y-76234289D01*
X79504489Y-76358342D01*
X79412387Y-76507663D01*
X79412385Y-76507666D01*
X79412386Y-76507666D01*
X79357201Y-76674203D01*
X79357201Y-76674204D01*
X79357200Y-76674204D01*
X79346700Y-76776983D01*
X79346700Y-79177001D01*
X79346701Y-79177018D01*
X79357200Y-79279796D01*
X79357201Y-79279799D01*
X79397362Y-79400994D01*
X79412386Y-79446334D01*
X79504488Y-79595656D01*
X79628544Y-79719712D01*
X79777866Y-79811814D01*
X79944403Y-79866999D01*
X80047191Y-79877500D01*
X80647208Y-79877499D01*
X80647216Y-79877498D01*
X80647219Y-79877498D01*
X80724270Y-79869627D01*
X80749997Y-79866999D01*
X80916534Y-79811814D01*
X81065856Y-79719712D01*
X81189912Y-79595656D01*
X81282014Y-79446334D01*
X81329994Y-79301537D01*
X81369767Y-79244094D01*
X81434282Y-79217271D01*
X81503058Y-79229586D01*
X81554258Y-79277129D01*
X81571700Y-79340543D01*
X81571700Y-80131191D01*
X81552015Y-80198230D01*
X81535381Y-80218872D01*
X81529123Y-80225129D01*
X81529117Y-80225137D01*
X81445455Y-80366603D01*
X81445454Y-80366606D01*
X81399602Y-80524426D01*
X81399601Y-80524432D01*
X81396700Y-80561304D01*
X81396700Y-81624347D01*
X81377015Y-81691386D01*
X81360381Y-81712028D01*
X80443228Y-82629181D01*
X80381905Y-82662666D01*
X80355547Y-82665500D01*
X80296354Y-82665500D01*
X80263897Y-82672398D01*
X80111197Y-82704855D01*
X80111192Y-82704857D01*
X79938270Y-82781848D01*
X79938265Y-82781851D01*
X79785129Y-82893111D01*
X79658466Y-83033785D01*
X79563821Y-83197715D01*
X79563818Y-83197722D01*
X79546567Y-83250817D01*
X79505326Y-83377744D01*
X79485540Y-83566000D01*
X79505326Y-83754256D01*
X79505327Y-83754259D01*
X79563818Y-83934277D01*
X79563821Y-83934284D01*
X79658467Y-84098216D01*
X79661435Y-84101512D01*
X79687561Y-84130528D01*
X79717791Y-84193519D01*
X79709166Y-84262854D01*
X79664424Y-84316520D01*
X79597772Y-84337478D01*
X79595411Y-84337500D01*
X70746312Y-84337500D01*
X70679273Y-84317815D01*
X70633518Y-84265011D01*
X70623574Y-84195853D01*
X70647046Y-84139188D01*
X70736952Y-84019089D01*
X70736954Y-84019086D01*
X70787196Y-83884379D01*
X70787198Y-83884372D01*
X70793599Y-83824844D01*
X70793600Y-83824827D01*
X70793600Y-82127000D01*
X69862207Y-82127000D01*
X69795168Y-82107315D01*
X69749413Y-82054511D01*
X69738679Y-81992193D01*
X69748757Y-81877001D01*
X69748757Y-81876998D01*
X69738679Y-81761807D01*
X69752446Y-81693307D01*
X69801061Y-81643124D01*
X69862207Y-81627000D01*
X70793600Y-81627000D01*
X70793600Y-79929172D01*
X70793599Y-79929155D01*
X70787198Y-79869627D01*
X70787196Y-79869620D01*
X70736954Y-79734913D01*
X70736950Y-79734906D01*
X70650790Y-79619812D01*
X70650787Y-79619809D01*
X70535693Y-79533649D01*
X70535686Y-79533645D01*
X70400979Y-79483403D01*
X70400972Y-79483401D01*
X70341444Y-79477000D01*
X69269320Y-79477000D01*
X69202281Y-79457315D01*
X69156526Y-79404511D01*
X69146582Y-79335353D01*
X69175607Y-79271797D01*
X69223673Y-79237708D01*
X69460357Y-79143998D01*
X69460358Y-79143997D01*
X69460356Y-79143997D01*
X69460366Y-79143994D01*
X69736084Y-78992416D01*
X69990630Y-78807478D01*
X70219990Y-78592094D01*
X70420547Y-78349663D01*
X70589137Y-78084007D01*
X70723103Y-77799315D01*
X70820331Y-77500079D01*
X70879288Y-77191015D01*
X70879289Y-77191004D01*
X70899044Y-76877005D01*
X70899044Y-76876994D01*
X70879289Y-76562995D01*
X70879288Y-76562988D01*
X70879288Y-76562985D01*
X70820331Y-76253921D01*
X70723103Y-75954685D01*
X70720324Y-75948780D01*
X70589138Y-75669996D01*
X70589137Y-75669993D01*
X70429795Y-75418909D01*
X70420548Y-75404338D01*
X70420545Y-75404334D01*
X70219993Y-75161909D01*
X70219991Y-75161907D01*
X69990631Y-74946523D01*
X69990621Y-74946515D01*
X69736095Y-74761591D01*
X69736088Y-74761586D01*
X69736084Y-74761584D01*
X69460366Y-74610006D01*
X69460363Y-74610004D01*
X69460358Y-74610002D01*
X69460357Y-74610001D01*
X69167828Y-74494181D01*
X69167825Y-74494180D01*
X68863076Y-74415934D01*
X68863063Y-74415932D01*
X68550929Y-74376500D01*
X68550918Y-74376500D01*
X68236282Y-74376500D01*
X68236270Y-74376500D01*
X67924136Y-74415932D01*
X67924123Y-74415934D01*
X67619374Y-74494180D01*
X67619371Y-74494181D01*
X67326842Y-74610001D01*
X67326841Y-74610002D01*
X67051116Y-74761584D01*
X67051104Y-74761591D01*
X66796578Y-74946515D01*
X66796568Y-74946523D01*
X66567208Y-75161907D01*
X66567206Y-75161909D01*
X66366654Y-75404334D01*
X66366651Y-75404338D01*
X66198064Y-75669990D01*
X66198061Y-75669996D01*
X66064099Y-75954678D01*
X66064097Y-75954683D01*
X65966870Y-76253916D01*
X65907911Y-76562988D01*
X65907910Y-76562995D01*
X65888156Y-76876994D01*
X65888156Y-76877005D01*
X65907910Y-77191004D01*
X65907911Y-77191011D01*
X65966870Y-77500083D01*
X66064097Y-77799316D01*
X66064099Y-77799321D01*
X66198061Y-78084003D01*
X66198064Y-78084009D01*
X66366651Y-78349661D01*
X66366654Y-78349665D01*
X66567206Y-78592090D01*
X66567208Y-78592092D01*
X66567210Y-78592094D01*
X66582727Y-78606665D01*
X66796568Y-78807476D01*
X66796578Y-78807484D01*
X67051104Y-78992408D01*
X67051109Y-78992410D01*
X67051116Y-78992416D01*
X67326834Y-79143994D01*
X67326839Y-79143996D01*
X67326841Y-79143997D01*
X67326842Y-79143998D01*
X67563527Y-79237708D01*
X67618613Y-79280689D01*
X67641716Y-79346628D01*
X67625503Y-79414591D01*
X67575119Y-79462998D01*
X67517880Y-79477000D01*
X66445755Y-79477000D01*
X66386227Y-79483401D01*
X66386220Y-79483403D01*
X66251513Y-79533645D01*
X66251506Y-79533649D01*
X66136412Y-79619809D01*
X66136409Y-79619812D01*
X66050249Y-79734906D01*
X66050245Y-79734913D01*
X66000003Y-79869620D01*
X66000001Y-79869627D01*
X65993600Y-79929155D01*
X65993600Y-81627000D01*
X66924993Y-81627000D01*
X66992032Y-81646685D01*
X67037787Y-81699489D01*
X67048521Y-81761807D01*
X67038443Y-81876998D01*
X67038443Y-81877001D01*
X67048521Y-81992193D01*
X67034754Y-82060693D01*
X66986139Y-82110876D01*
X66924993Y-82127000D01*
X65993600Y-82127000D01*
X65993600Y-83824844D01*
X66000001Y-83884372D01*
X66000003Y-83884379D01*
X66050245Y-84019086D01*
X66050247Y-84019089D01*
X66140154Y-84139188D01*
X66164572Y-84204653D01*
X66149721Y-84272926D01*
X66100316Y-84322332D01*
X66040888Y-84337500D01*
X58536453Y-84337500D01*
X58469414Y-84317815D01*
X58448772Y-84301181D01*
X55426819Y-81279228D01*
X55393334Y-81217905D01*
X55390500Y-81191547D01*
X55390500Y-80561304D01*
X55387598Y-80524432D01*
X55387597Y-80524426D01*
X55341745Y-80366606D01*
X55341744Y-80366603D01*
X55341744Y-80366602D01*
X55258081Y-80225135D01*
X55258079Y-80225133D01*
X55258076Y-80225129D01*
X55141870Y-80108923D01*
X55141862Y-80108917D01*
X55000396Y-80025255D01*
X55000393Y-80025254D01*
X54842573Y-79979402D01*
X54842567Y-79979401D01*
X54805696Y-79976500D01*
X54805694Y-79976500D01*
X54374306Y-79976500D01*
X54374304Y-79976500D01*
X54337432Y-79979401D01*
X54337426Y-79979402D01*
X54179606Y-80025254D01*
X54179603Y-80025255D01*
X54031420Y-80112890D01*
X54030254Y-80110919D01*
X53975942Y-80132232D01*
X53907427Y-80118540D01*
X53898595Y-80112864D01*
X53898580Y-80112890D01*
X53750396Y-80025255D01*
X53750393Y-80025254D01*
X53592573Y-79979402D01*
X53592567Y-79979401D01*
X53555696Y-79976500D01*
X53555694Y-79976500D01*
X53124306Y-79976500D01*
X53124304Y-79976500D01*
X53087432Y-79979401D01*
X53087426Y-79979402D01*
X52929606Y-80025254D01*
X52929603Y-80025255D01*
X52788137Y-80108917D01*
X52788129Y-80108923D01*
X52671923Y-80225129D01*
X52671917Y-80225137D01*
X52588255Y-80366603D01*
X52588254Y-80366606D01*
X52542402Y-80524426D01*
X52542401Y-80524432D01*
X52539500Y-80561304D01*
X52539500Y-82092696D01*
X40750500Y-82092696D01*
X40750500Y-79177001D01*
X50489500Y-79177001D01*
X50489501Y-79177018D01*
X50500000Y-79279796D01*
X50500001Y-79279799D01*
X50540162Y-79400994D01*
X50555186Y-79446334D01*
X50647288Y-79595656D01*
X50771344Y-79719712D01*
X50920666Y-79811814D01*
X51087203Y-79866999D01*
X51189991Y-79877500D01*
X51790008Y-79877499D01*
X51790016Y-79877498D01*
X51790019Y-79877498D01*
X51867070Y-79869627D01*
X51892797Y-79866999D01*
X52059334Y-79811814D01*
X52208656Y-79719712D01*
X52332712Y-79595656D01*
X52424814Y-79446334D01*
X52479999Y-79279797D01*
X52490500Y-79177009D01*
X52490500Y-79177001D01*
X55439500Y-79177001D01*
X55439501Y-79177018D01*
X55450000Y-79279796D01*
X55450001Y-79279799D01*
X55490162Y-79400994D01*
X55505186Y-79446334D01*
X55597288Y-79595656D01*
X55721344Y-79719712D01*
X55870666Y-79811814D01*
X56037203Y-79866999D01*
X56139991Y-79877500D01*
X56740008Y-79877499D01*
X56740016Y-79877498D01*
X56740019Y-79877498D01*
X56817070Y-79869627D01*
X56842797Y-79866999D01*
X57009334Y-79811814D01*
X57158656Y-79719712D01*
X57282712Y-79595656D01*
X57374814Y-79446334D01*
X57429999Y-79279797D01*
X57440500Y-79177009D01*
X57440499Y-76776992D01*
X57429999Y-76674203D01*
X57374814Y-76507666D01*
X57282712Y-76358344D01*
X57158656Y-76234288D01*
X57009334Y-76142186D01*
X56842797Y-76087001D01*
X56842795Y-76087000D01*
X56740010Y-76076500D01*
X56139998Y-76076500D01*
X56139980Y-76076501D01*
X56037203Y-76087000D01*
X56037200Y-76087001D01*
X55870668Y-76142185D01*
X55870663Y-76142187D01*
X55721342Y-76234289D01*
X55597289Y-76358342D01*
X55505187Y-76507663D01*
X55505185Y-76507666D01*
X55505186Y-76507666D01*
X55450001Y-76674203D01*
X55450001Y-76674204D01*
X55450000Y-76674204D01*
X55439500Y-76776983D01*
X55439500Y-79177001D01*
X52490500Y-79177001D01*
X52490499Y-76776992D01*
X52479999Y-76674203D01*
X52424814Y-76507666D01*
X52332712Y-76358344D01*
X52208656Y-76234288D01*
X52059334Y-76142186D01*
X51892797Y-76087001D01*
X51892795Y-76087000D01*
X51790010Y-76076500D01*
X51189998Y-76076500D01*
X51189980Y-76076501D01*
X51087203Y-76087000D01*
X51087200Y-76087001D01*
X50920668Y-76142185D01*
X50920663Y-76142187D01*
X50771342Y-76234289D01*
X50647289Y-76358342D01*
X50555187Y-76507663D01*
X50555185Y-76507666D01*
X50555186Y-76507666D01*
X50500001Y-76674203D01*
X50500001Y-76674204D01*
X50500000Y-76674204D01*
X50489500Y-76776983D01*
X50489500Y-79177001D01*
X40750500Y-79177001D01*
X40750500Y-65747001D01*
X45502168Y-65747001D01*
X45502169Y-65747019D01*
X45512668Y-65849796D01*
X45512669Y-65849799D01*
X45546758Y-65952670D01*
X45567854Y-66016334D01*
X45659956Y-66165656D01*
X45784012Y-66289712D01*
X45933334Y-66381814D01*
X46099871Y-66436999D01*
X46202659Y-66447500D01*
X48602676Y-66447499D01*
X48705465Y-66436999D01*
X48872002Y-66381814D01*
X49021324Y-66289712D01*
X49145380Y-66165656D01*
X49237482Y-66016334D01*
X49292667Y-65849797D01*
X49303168Y-65747009D01*
X49303168Y-65747001D01*
X58895278Y-65747001D01*
X58895279Y-65747019D01*
X58905778Y-65849796D01*
X58905779Y-65849799D01*
X58939868Y-65952670D01*
X58960964Y-66016334D01*
X59053066Y-66165656D01*
X59177122Y-66289712D01*
X59326444Y-66381814D01*
X59492981Y-66436999D01*
X59595769Y-66447500D01*
X61995786Y-66447499D01*
X62098575Y-66436999D01*
X62265112Y-66381814D01*
X62414434Y-66289712D01*
X62538490Y-66165656D01*
X62630592Y-66016334D01*
X62685777Y-65849797D01*
X62696278Y-65747009D01*
X62696277Y-65146992D01*
X62685777Y-65044203D01*
X62630592Y-64877666D01*
X62538490Y-64728344D01*
X62414434Y-64604288D01*
X62265112Y-64512186D01*
X62098575Y-64457001D01*
X62098573Y-64457000D01*
X61995788Y-64446500D01*
X59595776Y-64446500D01*
X59595759Y-64446501D01*
X59492981Y-64457000D01*
X59492978Y-64457001D01*
X59326446Y-64512185D01*
X59326441Y-64512187D01*
X59177120Y-64604289D01*
X59053067Y-64728342D01*
X58960965Y-64877663D01*
X58960963Y-64877668D01*
X58933127Y-64961670D01*
X58905779Y-65044203D01*
X58905779Y-65044204D01*
X58905778Y-65044204D01*
X58895278Y-65146983D01*
X58895278Y-65747001D01*
X49303168Y-65747001D01*
X49303167Y-65146992D01*
X49292667Y-65044203D01*
X49237482Y-64877666D01*
X49145380Y-64728344D01*
X49021324Y-64604288D01*
X48872002Y-64512186D01*
X48705465Y-64457001D01*
X48705463Y-64457000D01*
X48602678Y-64446500D01*
X46202666Y-64446500D01*
X46202649Y-64446501D01*
X46099871Y-64457000D01*
X46099868Y-64457001D01*
X45933336Y-64512185D01*
X45933331Y-64512187D01*
X45784010Y-64604289D01*
X45659957Y-64728342D01*
X45567855Y-64877663D01*
X45567853Y-64877668D01*
X45540017Y-64961670D01*
X45512669Y-65044203D01*
X45512669Y-65044204D01*
X45512668Y-65044204D01*
X45502168Y-65146983D01*
X45502168Y-65747001D01*
X40750500Y-65747001D01*
X40750500Y-63847001D01*
X49405372Y-63847001D01*
X49405567Y-63849486D01*
X49451386Y-64007198D01*
X49534982Y-64148552D01*
X49534989Y-64148561D01*
X49651106Y-64264678D01*
X49651115Y-64264685D01*
X49792471Y-64348282D01*
X49792474Y-64348283D01*
X49950172Y-64394099D01*
X49950178Y-64394100D01*
X49987024Y-64397000D01*
X50502668Y-64397000D01*
X50502668Y-63847000D01*
X51002668Y-63847000D01*
X51002668Y-64397000D01*
X51518312Y-64397000D01*
X51555157Y-64394100D01*
X51555163Y-64394099D01*
X51712861Y-64348283D01*
X51712864Y-64348282D01*
X51854220Y-64264685D01*
X51854229Y-64264678D01*
X51970346Y-64148561D01*
X51970353Y-64148552D01*
X52053949Y-64007198D01*
X52099768Y-63849486D01*
X52099963Y-63847001D01*
X62798482Y-63847001D01*
X62798677Y-63849486D01*
X62844496Y-64007198D01*
X62928092Y-64148552D01*
X62928099Y-64148561D01*
X63044216Y-64264678D01*
X63044225Y-64264685D01*
X63185581Y-64348282D01*
X63185584Y-64348283D01*
X63343282Y-64394099D01*
X63343288Y-64394100D01*
X63380134Y-64397000D01*
X63895778Y-64397000D01*
X63895778Y-63847000D01*
X64395778Y-63847000D01*
X64395778Y-64397000D01*
X64911422Y-64397000D01*
X64948267Y-64394100D01*
X64948273Y-64394099D01*
X65105971Y-64348283D01*
X65105974Y-64348282D01*
X65247330Y-64264685D01*
X65247339Y-64264678D01*
X65363456Y-64148561D01*
X65363463Y-64148552D01*
X65447059Y-64007198D01*
X65492878Y-63849486D01*
X65493073Y-63847001D01*
X65493073Y-63847000D01*
X64395778Y-63847000D01*
X63895778Y-63847000D01*
X62798483Y-63847000D01*
X62798482Y-63847001D01*
X52099963Y-63847001D01*
X52099963Y-63847000D01*
X51002668Y-63847000D01*
X50502668Y-63847000D01*
X49405373Y-63847000D01*
X49405372Y-63847001D01*
X40750500Y-63847001D01*
X40750500Y-62562696D01*
X49402168Y-62562696D01*
X49405069Y-62599567D01*
X49405070Y-62599573D01*
X49450922Y-62757393D01*
X49450923Y-62757396D01*
X49450924Y-62757398D01*
X49460486Y-62773566D01*
X49538558Y-62905580D01*
X49536713Y-62906670D01*
X49558219Y-62961463D01*
X49544530Y-63029979D01*
X49538920Y-63038707D01*
X49538956Y-63038729D01*
X49451386Y-63186801D01*
X49405567Y-63344513D01*
X49405372Y-63346998D01*
X49405373Y-63347000D01*
X52099963Y-63347000D01*
X52099963Y-63346998D01*
X52099768Y-63344513D01*
X52053949Y-63186801D01*
X52037875Y-63159621D01*
X52020692Y-63091897D01*
X52042852Y-63025635D01*
X52097318Y-62981871D01*
X52144607Y-62972500D01*
X62753839Y-62972500D01*
X62820878Y-62992185D01*
X62866633Y-63044989D01*
X62876577Y-63114147D01*
X62860571Y-63159621D01*
X62844496Y-63186801D01*
X62798677Y-63344513D01*
X62798482Y-63346998D01*
X62798483Y-63347000D01*
X65493073Y-63347000D01*
X65493073Y-63346998D01*
X65492878Y-63344513D01*
X65447059Y-63186801D01*
X65359490Y-63038729D01*
X65361493Y-63037544D01*
X65340226Y-62983359D01*
X65353914Y-62914843D01*
X65360101Y-62905219D01*
X65363859Y-62898865D01*
X65447522Y-62757398D01*
X65493376Y-62599569D01*
X65496278Y-62562694D01*
X65496278Y-62131306D01*
X65493376Y-62094431D01*
X65488447Y-62077467D01*
X65447523Y-61936606D01*
X65447522Y-61936603D01*
X65447522Y-61936602D01*
X65363859Y-61795135D01*
X65359888Y-61788420D01*
X65361861Y-61787252D01*
X65340547Y-61732965D01*
X65354226Y-61664447D01*
X65359914Y-61655595D01*
X65359888Y-61655580D01*
X65373804Y-61632048D01*
X65447522Y-61507398D01*
X65493376Y-61349569D01*
X65496278Y-61312694D01*
X65496278Y-60881306D01*
X65493376Y-60844431D01*
X65447522Y-60686602D01*
X65363859Y-60545135D01*
X65359888Y-60538420D01*
X65361861Y-60537252D01*
X65340547Y-60482965D01*
X65354226Y-60414447D01*
X65359914Y-60405595D01*
X65359888Y-60405580D01*
X65408657Y-60323115D01*
X65447522Y-60257398D01*
X65484184Y-60131207D01*
X65493375Y-60099573D01*
X65493376Y-60099567D01*
X65496278Y-60062696D01*
X65496278Y-59631304D01*
X65493376Y-59594432D01*
X65493375Y-59594426D01*
X65447523Y-59436606D01*
X65447522Y-59436603D01*
X65447522Y-59436602D01*
X65363859Y-59295135D01*
X65363857Y-59295133D01*
X65363854Y-59295129D01*
X65247648Y-59178923D01*
X65247640Y-59178917D01*
X65106174Y-59095255D01*
X65106171Y-59095254D01*
X64948351Y-59049402D01*
X64948345Y-59049401D01*
X64911474Y-59046500D01*
X64911472Y-59046500D01*
X63380084Y-59046500D01*
X63380082Y-59046500D01*
X63343210Y-59049401D01*
X63343204Y-59049402D01*
X63198045Y-59091576D01*
X63163450Y-59096500D01*
X62435352Y-59096500D01*
X62368313Y-59076815D01*
X62322558Y-59024011D01*
X62312614Y-58954853D01*
X62341639Y-58891297D01*
X62370256Y-58866961D01*
X62414434Y-58839712D01*
X62538490Y-58715656D01*
X62630592Y-58566334D01*
X62685777Y-58399797D01*
X62696278Y-58297009D01*
X62696277Y-57696992D01*
X62689667Y-57632288D01*
X62685777Y-57594203D01*
X62685776Y-57594200D01*
X62669379Y-57544717D01*
X62630592Y-57427666D01*
X62538490Y-57278344D01*
X62414434Y-57154288D01*
X62292907Y-57079330D01*
X62265114Y-57062187D01*
X62265109Y-57062185D01*
X62263640Y-57061698D01*
X62098575Y-57007001D01*
X62098573Y-57007000D01*
X61995788Y-56996500D01*
X59595776Y-56996500D01*
X59595759Y-56996501D01*
X59492981Y-57007000D01*
X59492978Y-57007001D01*
X59326446Y-57062185D01*
X59326441Y-57062187D01*
X59177120Y-57154289D01*
X59053067Y-57278342D01*
X58960965Y-57427663D01*
X58960963Y-57427666D01*
X58960964Y-57427666D01*
X58905779Y-57594203D01*
X58905779Y-57594204D01*
X58905778Y-57594204D01*
X58895278Y-57696983D01*
X58895278Y-58297001D01*
X58895279Y-58297019D01*
X58905778Y-58399796D01*
X58905779Y-58399799D01*
X58960963Y-58566331D01*
X58960965Y-58566336D01*
X58984615Y-58604679D01*
X59025299Y-58670639D01*
X59053067Y-58715657D01*
X59177122Y-58839712D01*
X59221300Y-58866961D01*
X59268025Y-58918909D01*
X59279248Y-58987871D01*
X59251405Y-59051953D01*
X59193336Y-59090810D01*
X59156204Y-59096500D01*
X51734996Y-59096500D01*
X51700401Y-59091576D01*
X51555241Y-59049402D01*
X51555235Y-59049401D01*
X51518364Y-59046500D01*
X51518362Y-59046500D01*
X49986974Y-59046500D01*
X49986972Y-59046500D01*
X49950100Y-59049401D01*
X49950094Y-59049402D01*
X49792274Y-59095254D01*
X49792271Y-59095255D01*
X49650805Y-59178917D01*
X49650797Y-59178923D01*
X49534591Y-59295129D01*
X49534585Y-59295137D01*
X49450923Y-59436603D01*
X49450922Y-59436606D01*
X49405070Y-59594426D01*
X49405069Y-59594432D01*
X49402168Y-59631304D01*
X49402168Y-60062696D01*
X49405069Y-60099567D01*
X49405070Y-60099573D01*
X49450922Y-60257393D01*
X49450923Y-60257396D01*
X49538558Y-60405580D01*
X49536584Y-60406747D01*
X49557899Y-60461035D01*
X49544220Y-60529553D01*
X49538531Y-60538404D01*
X49538558Y-60538420D01*
X49450923Y-60686603D01*
X49450922Y-60686606D01*
X49405070Y-60844426D01*
X49405069Y-60844432D01*
X49402168Y-60881304D01*
X49402168Y-61312696D01*
X49405069Y-61349567D01*
X49405070Y-61349573D01*
X49450922Y-61507393D01*
X49450923Y-61507396D01*
X49538558Y-61655580D01*
X49536584Y-61656747D01*
X49557899Y-61711035D01*
X49544220Y-61779553D01*
X49538531Y-61788404D01*
X49538558Y-61788420D01*
X49450923Y-61936603D01*
X49450922Y-61936606D01*
X49405070Y-62094426D01*
X49405069Y-62094432D01*
X49402168Y-62131304D01*
X49402168Y-62562696D01*
X40750500Y-62562696D01*
X40750500Y-58297001D01*
X45502168Y-58297001D01*
X45502169Y-58297019D01*
X45512668Y-58399796D01*
X45512669Y-58399799D01*
X45567853Y-58566331D01*
X45567855Y-58566336D01*
X45591505Y-58604679D01*
X45659956Y-58715656D01*
X45784012Y-58839712D01*
X45933334Y-58931814D01*
X46099871Y-58986999D01*
X46202659Y-58997500D01*
X48602676Y-58997499D01*
X48705465Y-58986999D01*
X48872002Y-58931814D01*
X49021324Y-58839712D01*
X49145380Y-58715656D01*
X49237482Y-58566334D01*
X49292667Y-58399797D01*
X49303168Y-58297009D01*
X49303167Y-57696992D01*
X49296557Y-57632288D01*
X49292667Y-57594203D01*
X49292666Y-57594200D01*
X49276269Y-57544717D01*
X49237482Y-57427666D01*
X49145380Y-57278344D01*
X49021324Y-57154288D01*
X48899797Y-57079330D01*
X48872004Y-57062187D01*
X48871999Y-57062185D01*
X48870530Y-57061698D01*
X48705465Y-57007001D01*
X48705463Y-57007000D01*
X48602678Y-56996500D01*
X46202666Y-56996500D01*
X46202649Y-56996501D01*
X46099871Y-57007000D01*
X46099868Y-57007001D01*
X45933336Y-57062185D01*
X45933331Y-57062187D01*
X45784010Y-57154289D01*
X45659957Y-57278342D01*
X45567855Y-57427663D01*
X45567853Y-57427666D01*
X45567854Y-57427666D01*
X45512669Y-57594203D01*
X45512669Y-57594204D01*
X45512668Y-57594204D01*
X45502168Y-57696983D01*
X45502168Y-58297001D01*
X40750500Y-58297001D01*
X40750500Y-42390001D01*
X50489500Y-42390001D01*
X50489501Y-42390018D01*
X50500000Y-42492796D01*
X50500001Y-42492799D01*
X50532045Y-42589500D01*
X50555186Y-42659334D01*
X50647288Y-42808656D01*
X50771344Y-42932712D01*
X50920666Y-43024814D01*
X51087203Y-43079999D01*
X51189991Y-43090500D01*
X51790008Y-43090499D01*
X51790016Y-43090498D01*
X51790019Y-43090498D01*
X51846302Y-43084748D01*
X51892797Y-43079999D01*
X52059334Y-43024814D01*
X52208656Y-42932712D01*
X52332712Y-42808656D01*
X52424814Y-42659334D01*
X52479999Y-42492797D01*
X52490500Y-42390009D01*
X52490500Y-42390001D01*
X55439500Y-42390001D01*
X55439501Y-42390018D01*
X55450000Y-42492796D01*
X55450001Y-42492799D01*
X55482045Y-42589500D01*
X55505186Y-42659334D01*
X55597288Y-42808656D01*
X55721344Y-42932712D01*
X55870666Y-43024814D01*
X56037203Y-43079999D01*
X56139991Y-43090500D01*
X56740008Y-43090499D01*
X56740016Y-43090498D01*
X56740019Y-43090498D01*
X56796302Y-43084748D01*
X56842797Y-43079999D01*
X57009334Y-43024814D01*
X57158656Y-42932712D01*
X57282712Y-42808656D01*
X57374814Y-42659334D01*
X57429999Y-42492797D01*
X57440500Y-42390009D01*
X57440499Y-39989992D01*
X57431950Y-39906307D01*
X57429999Y-39887203D01*
X57429998Y-39887200D01*
X57419700Y-39856124D01*
X57374814Y-39720666D01*
X57282712Y-39571344D01*
X57158656Y-39447288D01*
X57017909Y-39360475D01*
X57009336Y-39355187D01*
X57009331Y-39355185D01*
X57007862Y-39354698D01*
X56842797Y-39300001D01*
X56842795Y-39300000D01*
X56740010Y-39289500D01*
X56139998Y-39289500D01*
X56139980Y-39289501D01*
X56037203Y-39300000D01*
X56037200Y-39300001D01*
X55870668Y-39355185D01*
X55870663Y-39355187D01*
X55721342Y-39447289D01*
X55597289Y-39571342D01*
X55505187Y-39720663D01*
X55505185Y-39720666D01*
X55505186Y-39720666D01*
X55450001Y-39887203D01*
X55450001Y-39887204D01*
X55450000Y-39887204D01*
X55439500Y-39989983D01*
X55439500Y-42390001D01*
X52490500Y-42390001D01*
X52490499Y-39989992D01*
X52481950Y-39906307D01*
X52479999Y-39887203D01*
X52479998Y-39887200D01*
X52469700Y-39856124D01*
X52424814Y-39720666D01*
X52332712Y-39571344D01*
X52208656Y-39447288D01*
X52067909Y-39360475D01*
X52059336Y-39355187D01*
X52059331Y-39355185D01*
X52057862Y-39354698D01*
X51892797Y-39300001D01*
X51892795Y-39300000D01*
X51790010Y-39289500D01*
X51189998Y-39289500D01*
X51189980Y-39289501D01*
X51087203Y-39300000D01*
X51087200Y-39300001D01*
X50920668Y-39355185D01*
X50920663Y-39355187D01*
X50771342Y-39447289D01*
X50647289Y-39571342D01*
X50555187Y-39720663D01*
X50555185Y-39720666D01*
X50555186Y-39720666D01*
X50500001Y-39887203D01*
X50500001Y-39887204D01*
X50500000Y-39887204D01*
X50489500Y-39989983D01*
X50489500Y-42390001D01*
X40750500Y-42390001D01*
X40750500Y-38231489D01*
X42695500Y-38231489D01*
X42734690Y-38491503D01*
X42734692Y-38491509D01*
X42812202Y-38742788D01*
X42926295Y-38979705D01*
X42926297Y-38979707D01*
X42926298Y-38979710D01*
X43074430Y-39196980D01*
X43253290Y-39389746D01*
X43458883Y-39553701D01*
X43686616Y-39685183D01*
X43931402Y-39781254D01*
X44187772Y-39839769D01*
X44187778Y-39839769D01*
X44187781Y-39839770D01*
X44384340Y-39854500D01*
X44384346Y-39854500D01*
X44515660Y-39854500D01*
X44712218Y-39839770D01*
X44712220Y-39839769D01*
X44712228Y-39839769D01*
X44968598Y-39781254D01*
X45213384Y-39685183D01*
X45441117Y-39553701D01*
X45646710Y-39389746D01*
X45825570Y-39196980D01*
X45973702Y-38979710D01*
X46087798Y-38742788D01*
X46165308Y-38491508D01*
X46204500Y-38231482D01*
X46204500Y-37968518D01*
X46204499Y-37968510D01*
X46165309Y-37708496D01*
X46165307Y-37708490D01*
X46159604Y-37690000D01*
X46087798Y-37457212D01*
X45973702Y-37220290D01*
X45825570Y-37003020D01*
X45646710Y-36810254D01*
X45441117Y-36646299D01*
X45213384Y-36514817D01*
X44968598Y-36418746D01*
X44968593Y-36418744D01*
X44968584Y-36418742D01*
X44715956Y-36361082D01*
X44712228Y-36360231D01*
X44712227Y-36360230D01*
X44712223Y-36360230D01*
X44712218Y-36360229D01*
X44515660Y-36345500D01*
X44515654Y-36345500D01*
X44384346Y-36345500D01*
X44384340Y-36345500D01*
X44187781Y-36360229D01*
X44187776Y-36360230D01*
X43931415Y-36418742D01*
X43931396Y-36418748D01*
X43686615Y-36514817D01*
X43458883Y-36646299D01*
X43253290Y-36810254D01*
X43253288Y-36810256D01*
X43074430Y-37003019D01*
X42926295Y-37220294D01*
X42812202Y-37457211D01*
X42734692Y-37708490D01*
X42734690Y-37708496D01*
X42695500Y-37968510D01*
X42695500Y-38231489D01*
X40750500Y-38231489D01*
X40750500Y-38101528D01*
X40750575Y-38098486D01*
X40768165Y-37740428D01*
X40768761Y-37734370D01*
X40774394Y-37696401D01*
X40821138Y-37381270D01*
X40822320Y-37375326D01*
X40909059Y-37029044D01*
X40910822Y-37023231D01*
X41031083Y-36687125D01*
X41033409Y-36681513D01*
X41112250Y-36514817D01*
X41186034Y-36358812D01*
X41188889Y-36353469D01*
X41372416Y-36047273D01*
X41375784Y-36042232D01*
X41588437Y-35755503D01*
X41592287Y-35750811D01*
X41832035Y-35486289D01*
X41836289Y-35482035D01*
X42100811Y-35242287D01*
X42105505Y-35238436D01*
X42351708Y-35055839D01*
X42392232Y-35025784D01*
X42397273Y-35022416D01*
X42703469Y-34838889D01*
X42708812Y-34836034D01*
X42870165Y-34759719D01*
X43031513Y-34683409D01*
X43037125Y-34681083D01*
X43373231Y-34560822D01*
X43379046Y-34559059D01*
X43725326Y-34472320D01*
X43731270Y-34471138D01*
X44084377Y-34418760D01*
X44090428Y-34418165D01*
X44448487Y-34400575D01*
X44451529Y-34400500D01*
X44497595Y-34400500D01*
X140402405Y-34400500D01*
X140448471Y-34400500D01*
X140451513Y-34400575D01*
G37*
G04 #@! TD.AperFunction*
M02*
