G04 #@! TF.GenerationSoftware,KiCad,Pcbnew,8.0.4*
G04 #@! TF.CreationDate,2025-02-21T00:52:45-06:00*
G04 #@! TF.ProjectId,Turret,54757272-6574-42e6-9b69-6361645f7063,rev?*
G04 #@! TF.SameCoordinates,Original*
G04 #@! TF.FileFunction,Soldermask,Top*
G04 #@! TF.FilePolarity,Negative*
%FSLAX46Y46*%
G04 Gerber Fmt 4.6, Leading zero omitted, Abs format (unit mm)*
G04 Created by KiCad (PCBNEW 8.0.4) date 2025-02-21 00:52:45*
%MOMM*%
%LPD*%
G01*
G04 APERTURE LIST*
G04 Aperture macros list*
%AMRoundRect*
0 Rectangle with rounded corners*
0 $1 Rounding radius*
0 $2 $3 $4 $5 $6 $7 $8 $9 X,Y pos of 4 corners*
0 Add a 4 corners polygon primitive as box body*
4,1,4,$2,$3,$4,$5,$6,$7,$8,$9,$2,$3,0*
0 Add four circle primitives for the rounded corners*
1,1,$1+$1,$2,$3*
1,1,$1+$1,$4,$5*
1,1,$1+$1,$6,$7*
1,1,$1+$1,$8,$9*
0 Add four rect primitives between the rounded corners*
20,1,$1+$1,$2,$3,$4,$5,0*
20,1,$1+$1,$4,$5,$6,$7,0*
20,1,$1+$1,$6,$7,$8,$9,0*
20,1,$1+$1,$8,$9,$2,$3,0*%
G04 Aperture macros list end*
%ADD10RoundRect,0.150000X-0.150000X-0.700000X0.150000X-0.700000X0.150000X0.700000X-0.150000X0.700000X0*%
%ADD11RoundRect,0.250000X-0.250000X-1.150000X0.250000X-1.150000X0.250000X1.150000X-0.250000X1.150000X0*%
%ADD12C,1.600000*%
%ADD13R,1.520000X1.520000*%
%ADD14C,1.520000*%
%ADD15RoundRect,0.237500X-0.287500X-0.237500X0.287500X-0.237500X0.287500X0.237500X-0.287500X0.237500X0*%
%ADD16R,3.800000X3.800000*%
%ADD17C,4.000000*%
%ADD18RoundRect,0.150000X-0.700000X0.150000X-0.700000X-0.150000X0.700000X-0.150000X0.700000X0.150000X0*%
%ADD19RoundRect,0.250000X-1.150000X0.250000X-1.150000X-0.250000X1.150000X-0.250000X1.150000X0.250000X0*%
%ADD20C,3.000000*%
%ADD21RoundRect,0.150000X0.700000X-0.150000X0.700000X0.150000X-0.700000X0.150000X-0.700000X-0.150000X0*%
%ADD22RoundRect,0.250000X1.150000X-0.250000X1.150000X0.250000X-1.150000X0.250000X-1.150000X-0.250000X0*%
%ADD23RoundRect,0.237500X0.250000X0.237500X-0.250000X0.237500X-0.250000X-0.237500X0.250000X-0.237500X0*%
%ADD24RoundRect,0.237500X-0.250000X-0.237500X0.250000X-0.237500X0.250000X0.237500X-0.250000X0.237500X0*%
G04 APERTURE END LIST*
D10*
X82189000Y-81328000D03*
X83439000Y-81328000D03*
D11*
X80339000Y-77978000D03*
X85289000Y-77978000D03*
D12*
X124370000Y-57950001D03*
D13*
X131200000Y-56200001D03*
D14*
X131200000Y-59700001D03*
X131200000Y-63200000D03*
X131200000Y-66700001D03*
X126600000Y-56200001D03*
X126600000Y-59700001D03*
X126600000Y-63200001D03*
X126600000Y-66700001D03*
D15*
X109125001Y-80100000D03*
X110874999Y-80100000D03*
D10*
X111073000Y-44752000D03*
X112323000Y-44752000D03*
D11*
X109223000Y-41402000D03*
X114173000Y-41402000D03*
D15*
X109125001Y-72100000D03*
X110874999Y-72100000D03*
D16*
X71167000Y-42926000D03*
D17*
X66167000Y-42926000D03*
D18*
X111633000Y-57561000D03*
X111633000Y-58811000D03*
X111633000Y-60061000D03*
X111633000Y-61311000D03*
D19*
X114983000Y-55711000D03*
X114983000Y-63161000D03*
D10*
X53487000Y-44577000D03*
X54737000Y-44577000D03*
D11*
X51637000Y-41227000D03*
X56587000Y-41227000D03*
D15*
X109125001Y-76100000D03*
X110874999Y-76100000D03*
D20*
X44450000Y-38100000D03*
D10*
X53360000Y-81534000D03*
X54610000Y-81534000D03*
D11*
X51510000Y-78184000D03*
X56460000Y-78184000D03*
D16*
X128500000Y-42500000D03*
D17*
X123500000Y-42500000D03*
D21*
X64307000Y-63552000D03*
X64307000Y-62302000D03*
X64307000Y-61052000D03*
X64307000Y-59802000D03*
D22*
X60957000Y-65402000D03*
X60957000Y-57952000D03*
D23*
X116912500Y-76100000D03*
X115087500Y-76100000D03*
D16*
X99441000Y-42926000D03*
D17*
X94441000Y-42926000D03*
D20*
X140450000Y-38100000D03*
D24*
X109087500Y-83100000D03*
X110912500Y-83100000D03*
D20*
X140450000Y-84100000D03*
D16*
X128500000Y-79000000D03*
D17*
X123500000Y-79000000D03*
D12*
X81745000Y-67409000D03*
D13*
X79995000Y-60579000D03*
D14*
X83495000Y-60579000D03*
X86995000Y-60579000D03*
X90495000Y-60579000D03*
X93995000Y-60579000D03*
X97495000Y-60579000D03*
X100995000Y-60579000D03*
X104495000Y-60579000D03*
X79995000Y-65179000D03*
X83495000Y-65179000D03*
X86995000Y-65179000D03*
X90495000Y-65179000D03*
X93995000Y-65179000D03*
X97495000Y-65179000D03*
X100995000Y-65179000D03*
X104495000Y-65179000D03*
D16*
X65750000Y-78994000D03*
D17*
X70750000Y-78994000D03*
D16*
X94500000Y-78994000D03*
D17*
X99500000Y-78994000D03*
D23*
X117000000Y-72080000D03*
X115175000Y-72080000D03*
D10*
X82189000Y-44577000D03*
X83439000Y-44577000D03*
D11*
X80339000Y-41227000D03*
X85289000Y-41227000D03*
D21*
X50718000Y-63597000D03*
X50718000Y-62347000D03*
X50718000Y-61097000D03*
X50718000Y-59847000D03*
D22*
X47368000Y-65447000D03*
X47368000Y-57997000D03*
D20*
X44450000Y-84100000D03*
M02*
