G04 #@! TF.GenerationSoftware,KiCad,Pcbnew,8.0.4*
G04 #@! TF.CreationDate,2025-02-21T00:52:45-06:00*
G04 #@! TF.ProjectId,Turret,54757272-6574-42e6-9b69-6361645f7063,rev?*
G04 #@! TF.SameCoordinates,Original*
G04 #@! TF.FileFunction,Legend,Top*
G04 #@! TF.FilePolarity,Positive*
%FSLAX46Y46*%
G04 Gerber Fmt 4.6, Leading zero omitted, Abs format (unit mm)*
G04 Created by KiCad (PCBNEW 8.0.4) date 2025-02-21 00:52:45*
%MOMM*%
%LPD*%
G01*
G04 APERTURE LIST*
G04 Aperture macros list*
%AMRoundRect*
0 Rectangle with rounded corners*
0 $1 Rounding radius*
0 $2 $3 $4 $5 $6 $7 $8 $9 X,Y pos of 4 corners*
0 Add a 4 corners polygon primitive as box body*
4,1,4,$2,$3,$4,$5,$6,$7,$8,$9,$2,$3,0*
0 Add four circle primitives for the rounded corners*
1,1,$1+$1,$2,$3*
1,1,$1+$1,$4,$5*
1,1,$1+$1,$6,$7*
1,1,$1+$1,$8,$9*
0 Add four rect primitives between the rounded corners*
20,1,$1+$1,$2,$3,$4,$5,0*
20,1,$1+$1,$4,$5,$6,$7,0*
20,1,$1+$1,$6,$7,$8,$9,0*
20,1,$1+$1,$8,$9,$2,$3,0*%
G04 Aperture macros list end*
%ADD10C,0.150000*%
%ADD11C,0.254000*%
%ADD12C,0.120000*%
%ADD13C,0.127000*%
%ADD14RoundRect,0.150000X-0.150000X-0.700000X0.150000X-0.700000X0.150000X0.700000X-0.150000X0.700000X0*%
%ADD15RoundRect,0.250000X-0.250000X-1.150000X0.250000X-1.150000X0.250000X1.150000X-0.250000X1.150000X0*%
%ADD16C,1.600000*%
%ADD17R,1.520000X1.520000*%
%ADD18C,1.520000*%
%ADD19RoundRect,0.237500X-0.287500X-0.237500X0.287500X-0.237500X0.287500X0.237500X-0.287500X0.237500X0*%
%ADD20R,3.800000X3.800000*%
%ADD21C,4.000000*%
%ADD22RoundRect,0.150000X-0.700000X0.150000X-0.700000X-0.150000X0.700000X-0.150000X0.700000X0.150000X0*%
%ADD23RoundRect,0.250000X-1.150000X0.250000X-1.150000X-0.250000X1.150000X-0.250000X1.150000X0.250000X0*%
%ADD24C,3.000000*%
%ADD25RoundRect,0.150000X0.700000X-0.150000X0.700000X0.150000X-0.700000X0.150000X-0.700000X-0.150000X0*%
%ADD26RoundRect,0.250000X1.150000X-0.250000X1.150000X0.250000X-1.150000X0.250000X-1.150000X-0.250000X0*%
%ADD27RoundRect,0.237500X0.250000X0.237500X-0.250000X0.237500X-0.250000X-0.237500X0.250000X-0.237500X0*%
%ADD28RoundRect,0.237500X-0.250000X-0.237500X0.250000X-0.237500X0.250000X0.237500X-0.250000X0.237500X0*%
G04 APERTURE END LIST*
D10*
X78837808Y-75737580D02*
X78790189Y-75785200D01*
X78790189Y-75785200D02*
X78647332Y-75832819D01*
X78647332Y-75832819D02*
X78552094Y-75832819D01*
X78552094Y-75832819D02*
X78409237Y-75785200D01*
X78409237Y-75785200D02*
X78313999Y-75689961D01*
X78313999Y-75689961D02*
X78266380Y-75594723D01*
X78266380Y-75594723D02*
X78218761Y-75404247D01*
X78218761Y-75404247D02*
X78218761Y-75261390D01*
X78218761Y-75261390D02*
X78266380Y-75070914D01*
X78266380Y-75070914D02*
X78313999Y-74975676D01*
X78313999Y-74975676D02*
X78409237Y-74880438D01*
X78409237Y-74880438D02*
X78552094Y-74832819D01*
X78552094Y-74832819D02*
X78647332Y-74832819D01*
X78647332Y-74832819D02*
X78790189Y-74880438D01*
X78790189Y-74880438D02*
X78837808Y-74928057D01*
X79218761Y-75547104D02*
X79694951Y-75547104D01*
X79123523Y-75832819D02*
X79456856Y-74832819D01*
X79456856Y-74832819D02*
X79790189Y-75832819D01*
X80123523Y-75832819D02*
X80123523Y-74832819D01*
X80123523Y-74832819D02*
X80694951Y-75832819D01*
X80694951Y-75832819D02*
X80694951Y-74832819D01*
X80933047Y-75928057D02*
X81694951Y-75928057D01*
X82266380Y-75309009D02*
X81933047Y-75309009D01*
X81933047Y-75832819D02*
X81933047Y-74832819D01*
X81933047Y-74832819D02*
X82409237Y-74832819D01*
X83171142Y-75785200D02*
X83075904Y-75832819D01*
X83075904Y-75832819D02*
X82885428Y-75832819D01*
X82885428Y-75832819D02*
X82790190Y-75785200D01*
X82790190Y-75785200D02*
X82742571Y-75689961D01*
X82742571Y-75689961D02*
X82742571Y-75309009D01*
X82742571Y-75309009D02*
X82790190Y-75213771D01*
X82790190Y-75213771D02*
X82885428Y-75166152D01*
X82885428Y-75166152D02*
X83075904Y-75166152D01*
X83075904Y-75166152D02*
X83171142Y-75213771D01*
X83171142Y-75213771D02*
X83218761Y-75309009D01*
X83218761Y-75309009D02*
X83218761Y-75404247D01*
X83218761Y-75404247D02*
X82742571Y-75499485D01*
X84028285Y-75785200D02*
X83933047Y-75832819D01*
X83933047Y-75832819D02*
X83742571Y-75832819D01*
X83742571Y-75832819D02*
X83647333Y-75785200D01*
X83647333Y-75785200D02*
X83599714Y-75689961D01*
X83599714Y-75689961D02*
X83599714Y-75309009D01*
X83599714Y-75309009D02*
X83647333Y-75213771D01*
X83647333Y-75213771D02*
X83742571Y-75166152D01*
X83742571Y-75166152D02*
X83933047Y-75166152D01*
X83933047Y-75166152D02*
X84028285Y-75213771D01*
X84028285Y-75213771D02*
X84075904Y-75309009D01*
X84075904Y-75309009D02*
X84075904Y-75404247D01*
X84075904Y-75404247D02*
X83599714Y-75499485D01*
X84933047Y-75832819D02*
X84933047Y-74832819D01*
X84933047Y-75785200D02*
X84837809Y-75832819D01*
X84837809Y-75832819D02*
X84647333Y-75832819D01*
X84647333Y-75832819D02*
X84552095Y-75785200D01*
X84552095Y-75785200D02*
X84504476Y-75737580D01*
X84504476Y-75737580D02*
X84456857Y-75642342D01*
X84456857Y-75642342D02*
X84456857Y-75356628D01*
X84456857Y-75356628D02*
X84504476Y-75261390D01*
X84504476Y-75261390D02*
X84552095Y-75213771D01*
X84552095Y-75213771D02*
X84647333Y-75166152D01*
X84647333Y-75166152D02*
X84837809Y-75166152D01*
X84837809Y-75166152D02*
X84933047Y-75213771D01*
X85790190Y-75785200D02*
X85694952Y-75832819D01*
X85694952Y-75832819D02*
X85504476Y-75832819D01*
X85504476Y-75832819D02*
X85409238Y-75785200D01*
X85409238Y-75785200D02*
X85361619Y-75689961D01*
X85361619Y-75689961D02*
X85361619Y-75309009D01*
X85361619Y-75309009D02*
X85409238Y-75213771D01*
X85409238Y-75213771D02*
X85504476Y-75166152D01*
X85504476Y-75166152D02*
X85694952Y-75166152D01*
X85694952Y-75166152D02*
X85790190Y-75213771D01*
X85790190Y-75213771D02*
X85837809Y-75309009D01*
X85837809Y-75309009D02*
X85837809Y-75404247D01*
X85837809Y-75404247D02*
X85361619Y-75499485D01*
X86266381Y-75832819D02*
X86266381Y-75166152D01*
X86266381Y-75356628D02*
X86314000Y-75261390D01*
X86314000Y-75261390D02*
X86361619Y-75213771D01*
X86361619Y-75213771D02*
X86456857Y-75166152D01*
X86456857Y-75166152D02*
X86552095Y-75166152D01*
X87409238Y-75832819D02*
X86837810Y-75832819D01*
X87123524Y-75832819D02*
X87123524Y-74832819D01*
X87123524Y-74832819D02*
X87028286Y-74975676D01*
X87028286Y-74975676D02*
X86933048Y-75070914D01*
X86933048Y-75070914D02*
X86837810Y-75118533D01*
D11*
X130504318Y-56623333D02*
X131411461Y-56623333D01*
X131411461Y-56623333D02*
X131592889Y-56683810D01*
X131592889Y-56683810D02*
X131713842Y-56804762D01*
X131713842Y-56804762D02*
X131774318Y-56986191D01*
X131774318Y-56986191D02*
X131774318Y-57107143D01*
X131774318Y-55353333D02*
X131774318Y-56079048D01*
X131774318Y-55716191D02*
X130504318Y-55716191D01*
X130504318Y-55716191D02*
X130685746Y-55837143D01*
X130685746Y-55837143D02*
X130806699Y-55958095D01*
X130806699Y-55958095D02*
X130867175Y-56079048D01*
D10*
X109261905Y-79124819D02*
X109261905Y-78124819D01*
X109261905Y-78124819D02*
X109500000Y-78124819D01*
X109500000Y-78124819D02*
X109642857Y-78172438D01*
X109642857Y-78172438D02*
X109738095Y-78267676D01*
X109738095Y-78267676D02*
X109785714Y-78362914D01*
X109785714Y-78362914D02*
X109833333Y-78553390D01*
X109833333Y-78553390D02*
X109833333Y-78696247D01*
X109833333Y-78696247D02*
X109785714Y-78886723D01*
X109785714Y-78886723D02*
X109738095Y-78981961D01*
X109738095Y-78981961D02*
X109642857Y-79077200D01*
X109642857Y-79077200D02*
X109500000Y-79124819D01*
X109500000Y-79124819D02*
X109261905Y-79124819D01*
X110785714Y-79124819D02*
X110214286Y-79124819D01*
X110500000Y-79124819D02*
X110500000Y-78124819D01*
X110500000Y-78124819D02*
X110404762Y-78267676D01*
X110404762Y-78267676D02*
X110309524Y-78362914D01*
X110309524Y-78362914D02*
X110214286Y-78410533D01*
X107626571Y-39161580D02*
X107578952Y-39209200D01*
X107578952Y-39209200D02*
X107436095Y-39256819D01*
X107436095Y-39256819D02*
X107340857Y-39256819D01*
X107340857Y-39256819D02*
X107198000Y-39209200D01*
X107198000Y-39209200D02*
X107102762Y-39113961D01*
X107102762Y-39113961D02*
X107055143Y-39018723D01*
X107055143Y-39018723D02*
X107007524Y-38828247D01*
X107007524Y-38828247D02*
X107007524Y-38685390D01*
X107007524Y-38685390D02*
X107055143Y-38494914D01*
X107055143Y-38494914D02*
X107102762Y-38399676D01*
X107102762Y-38399676D02*
X107198000Y-38304438D01*
X107198000Y-38304438D02*
X107340857Y-38256819D01*
X107340857Y-38256819D02*
X107436095Y-38256819D01*
X107436095Y-38256819D02*
X107578952Y-38304438D01*
X107578952Y-38304438D02*
X107626571Y-38352057D01*
X108007524Y-38971104D02*
X108483714Y-38971104D01*
X107912286Y-39256819D02*
X108245619Y-38256819D01*
X108245619Y-38256819D02*
X108578952Y-39256819D01*
X108912286Y-39256819D02*
X108912286Y-38256819D01*
X108912286Y-38256819D02*
X109483714Y-39256819D01*
X109483714Y-39256819D02*
X109483714Y-38256819D01*
X109721810Y-39352057D02*
X110483714Y-39352057D01*
X111245619Y-38304438D02*
X111150381Y-38256819D01*
X111150381Y-38256819D02*
X111007524Y-38256819D01*
X111007524Y-38256819D02*
X110864667Y-38304438D01*
X110864667Y-38304438D02*
X110769429Y-38399676D01*
X110769429Y-38399676D02*
X110721810Y-38494914D01*
X110721810Y-38494914D02*
X110674191Y-38685390D01*
X110674191Y-38685390D02*
X110674191Y-38828247D01*
X110674191Y-38828247D02*
X110721810Y-39018723D01*
X110721810Y-39018723D02*
X110769429Y-39113961D01*
X110769429Y-39113961D02*
X110864667Y-39209200D01*
X110864667Y-39209200D02*
X111007524Y-39256819D01*
X111007524Y-39256819D02*
X111102762Y-39256819D01*
X111102762Y-39256819D02*
X111245619Y-39209200D01*
X111245619Y-39209200D02*
X111293238Y-39161580D01*
X111293238Y-39161580D02*
X111293238Y-38828247D01*
X111293238Y-38828247D02*
X111102762Y-38828247D01*
X111721810Y-39256819D02*
X111721810Y-38590152D01*
X111721810Y-38256819D02*
X111674191Y-38304438D01*
X111674191Y-38304438D02*
X111721810Y-38352057D01*
X111721810Y-38352057D02*
X111769429Y-38304438D01*
X111769429Y-38304438D02*
X111721810Y-38256819D01*
X111721810Y-38256819D02*
X111721810Y-38352057D01*
X112198000Y-39256819D02*
X112198000Y-38590152D01*
X112198000Y-38685390D02*
X112245619Y-38637771D01*
X112245619Y-38637771D02*
X112340857Y-38590152D01*
X112340857Y-38590152D02*
X112483714Y-38590152D01*
X112483714Y-38590152D02*
X112578952Y-38637771D01*
X112578952Y-38637771D02*
X112626571Y-38733009D01*
X112626571Y-38733009D02*
X112626571Y-39256819D01*
X112626571Y-38733009D02*
X112674190Y-38637771D01*
X112674190Y-38637771D02*
X112769428Y-38590152D01*
X112769428Y-38590152D02*
X112912285Y-38590152D01*
X112912285Y-38590152D02*
X113007524Y-38637771D01*
X113007524Y-38637771D02*
X113055143Y-38733009D01*
X113055143Y-38733009D02*
X113055143Y-39256819D01*
X113531333Y-39256819D02*
X113531333Y-38256819D01*
X113531333Y-38637771D02*
X113626571Y-38590152D01*
X113626571Y-38590152D02*
X113817047Y-38590152D01*
X113817047Y-38590152D02*
X113912285Y-38637771D01*
X113912285Y-38637771D02*
X113959904Y-38685390D01*
X113959904Y-38685390D02*
X114007523Y-38780628D01*
X114007523Y-38780628D02*
X114007523Y-39066342D01*
X114007523Y-39066342D02*
X113959904Y-39161580D01*
X113959904Y-39161580D02*
X113912285Y-39209200D01*
X113912285Y-39209200D02*
X113817047Y-39256819D01*
X113817047Y-39256819D02*
X113626571Y-39256819D01*
X113626571Y-39256819D02*
X113531333Y-39209200D01*
X114864666Y-39256819D02*
X114864666Y-38733009D01*
X114864666Y-38733009D02*
X114817047Y-38637771D01*
X114817047Y-38637771D02*
X114721809Y-38590152D01*
X114721809Y-38590152D02*
X114531333Y-38590152D01*
X114531333Y-38590152D02*
X114436095Y-38637771D01*
X114864666Y-39209200D02*
X114769428Y-39256819D01*
X114769428Y-39256819D02*
X114531333Y-39256819D01*
X114531333Y-39256819D02*
X114436095Y-39209200D01*
X114436095Y-39209200D02*
X114388476Y-39113961D01*
X114388476Y-39113961D02*
X114388476Y-39018723D01*
X114388476Y-39018723D02*
X114436095Y-38923485D01*
X114436095Y-38923485D02*
X114531333Y-38875866D01*
X114531333Y-38875866D02*
X114769428Y-38875866D01*
X114769428Y-38875866D02*
X114864666Y-38828247D01*
X115483714Y-39256819D02*
X115388476Y-39209200D01*
X115388476Y-39209200D02*
X115340857Y-39113961D01*
X115340857Y-39113961D02*
X115340857Y-38256819D01*
X116388476Y-39256819D02*
X115817048Y-39256819D01*
X116102762Y-39256819D02*
X116102762Y-38256819D01*
X116102762Y-38256819D02*
X116007524Y-38399676D01*
X116007524Y-38399676D02*
X115912286Y-38494914D01*
X115912286Y-38494914D02*
X115817048Y-38542533D01*
X109261905Y-71124819D02*
X109261905Y-70124819D01*
X109261905Y-70124819D02*
X109500000Y-70124819D01*
X109500000Y-70124819D02*
X109642857Y-70172438D01*
X109642857Y-70172438D02*
X109738095Y-70267676D01*
X109738095Y-70267676D02*
X109785714Y-70362914D01*
X109785714Y-70362914D02*
X109833333Y-70553390D01*
X109833333Y-70553390D02*
X109833333Y-70696247D01*
X109833333Y-70696247D02*
X109785714Y-70886723D01*
X109785714Y-70886723D02*
X109738095Y-70981961D01*
X109738095Y-70981961D02*
X109642857Y-71077200D01*
X109642857Y-71077200D02*
X109500000Y-71124819D01*
X109500000Y-71124819D02*
X109261905Y-71124819D01*
X110214286Y-70220057D02*
X110261905Y-70172438D01*
X110261905Y-70172438D02*
X110357143Y-70124819D01*
X110357143Y-70124819D02*
X110595238Y-70124819D01*
X110595238Y-70124819D02*
X110690476Y-70172438D01*
X110690476Y-70172438D02*
X110738095Y-70220057D01*
X110738095Y-70220057D02*
X110785714Y-70315295D01*
X110785714Y-70315295D02*
X110785714Y-70410533D01*
X110785714Y-70410533D02*
X110738095Y-70553390D01*
X110738095Y-70553390D02*
X110166667Y-71124819D01*
X110166667Y-71124819D02*
X110785714Y-71124819D01*
X62000332Y-46999866D02*
X62762237Y-46999866D01*
X62381284Y-47380819D02*
X62381284Y-46618914D01*
X63190808Y-46476057D02*
X63238427Y-46428438D01*
X63238427Y-46428438D02*
X63333665Y-46380819D01*
X63333665Y-46380819D02*
X63571760Y-46380819D01*
X63571760Y-46380819D02*
X63666998Y-46428438D01*
X63666998Y-46428438D02*
X63714617Y-46476057D01*
X63714617Y-46476057D02*
X63762236Y-46571295D01*
X63762236Y-46571295D02*
X63762236Y-46666533D01*
X63762236Y-46666533D02*
X63714617Y-46809390D01*
X63714617Y-46809390D02*
X63143189Y-47380819D01*
X63143189Y-47380819D02*
X63762236Y-47380819D01*
X64619379Y-46714152D02*
X64619379Y-47380819D01*
X64381284Y-46333200D02*
X64143189Y-47047485D01*
X64143189Y-47047485D02*
X64762236Y-47047485D01*
X65000332Y-46380819D02*
X65333665Y-47380819D01*
X65333665Y-47380819D02*
X65666998Y-46380819D01*
X65762237Y-47476057D02*
X66524141Y-47476057D01*
X67333665Y-47380819D02*
X67000332Y-46904628D01*
X66762237Y-47380819D02*
X66762237Y-46380819D01*
X66762237Y-46380819D02*
X67143189Y-46380819D01*
X67143189Y-46380819D02*
X67238427Y-46428438D01*
X67238427Y-46428438D02*
X67286046Y-46476057D01*
X67286046Y-46476057D02*
X67333665Y-46571295D01*
X67333665Y-46571295D02*
X67333665Y-46714152D01*
X67333665Y-46714152D02*
X67286046Y-46809390D01*
X67286046Y-46809390D02*
X67238427Y-46857009D01*
X67238427Y-46857009D02*
X67143189Y-46904628D01*
X67143189Y-46904628D02*
X66762237Y-46904628D01*
X67524142Y-47476057D02*
X68286046Y-47476057D01*
X68857475Y-46857009D02*
X68524142Y-46857009D01*
X68524142Y-47380819D02*
X68524142Y-46380819D01*
X68524142Y-46380819D02*
X69000332Y-46380819D01*
X69524142Y-47380819D02*
X69428904Y-47333200D01*
X69428904Y-47333200D02*
X69381285Y-47237961D01*
X69381285Y-47237961D02*
X69381285Y-46380819D01*
X69809857Y-46714152D02*
X70047952Y-47380819D01*
X70286047Y-46714152D02*
X70047952Y-47380819D01*
X70047952Y-47380819D02*
X69952714Y-47618914D01*
X69952714Y-47618914D02*
X69905095Y-47666533D01*
X69905095Y-47666533D02*
X69809857Y-47714152D01*
X70571762Y-46714152D02*
X70762238Y-47380819D01*
X70762238Y-47380819D02*
X70952714Y-46904628D01*
X70952714Y-46904628D02*
X71143190Y-47380819D01*
X71143190Y-47380819D02*
X71333666Y-46714152D01*
X71714619Y-47380819D02*
X71714619Y-46380819D01*
X72143190Y-47380819D02*
X72143190Y-46857009D01*
X72143190Y-46857009D02*
X72095571Y-46761771D01*
X72095571Y-46761771D02*
X72000333Y-46714152D01*
X72000333Y-46714152D02*
X71857476Y-46714152D01*
X71857476Y-46714152D02*
X71762238Y-46761771D01*
X71762238Y-46761771D02*
X71714619Y-46809390D01*
X73000333Y-47333200D02*
X72905095Y-47380819D01*
X72905095Y-47380819D02*
X72714619Y-47380819D01*
X72714619Y-47380819D02*
X72619381Y-47333200D01*
X72619381Y-47333200D02*
X72571762Y-47237961D01*
X72571762Y-47237961D02*
X72571762Y-46857009D01*
X72571762Y-46857009D02*
X72619381Y-46761771D01*
X72619381Y-46761771D02*
X72714619Y-46714152D01*
X72714619Y-46714152D02*
X72905095Y-46714152D01*
X72905095Y-46714152D02*
X73000333Y-46761771D01*
X73000333Y-46761771D02*
X73047952Y-46857009D01*
X73047952Y-46857009D02*
X73047952Y-46952247D01*
X73047952Y-46952247D02*
X72571762Y-47047485D01*
X73857476Y-47333200D02*
X73762238Y-47380819D01*
X73762238Y-47380819D02*
X73571762Y-47380819D01*
X73571762Y-47380819D02*
X73476524Y-47333200D01*
X73476524Y-47333200D02*
X73428905Y-47237961D01*
X73428905Y-47237961D02*
X73428905Y-46857009D01*
X73428905Y-46857009D02*
X73476524Y-46761771D01*
X73476524Y-46761771D02*
X73571762Y-46714152D01*
X73571762Y-46714152D02*
X73762238Y-46714152D01*
X73762238Y-46714152D02*
X73857476Y-46761771D01*
X73857476Y-46761771D02*
X73905095Y-46857009D01*
X73905095Y-46857009D02*
X73905095Y-46952247D01*
X73905095Y-46952247D02*
X73428905Y-47047485D01*
X74476524Y-47380819D02*
X74381286Y-47333200D01*
X74381286Y-47333200D02*
X74333667Y-47237961D01*
X74333667Y-47237961D02*
X74333667Y-46380819D01*
X75381286Y-47380819D02*
X74809858Y-47380819D01*
X75095572Y-47380819D02*
X75095572Y-46380819D01*
X75095572Y-46380819D02*
X75000334Y-46523676D01*
X75000334Y-46523676D02*
X74905096Y-46618914D01*
X74905096Y-46618914D02*
X74809858Y-46666533D01*
X61595571Y-43040700D02*
X62738429Y-43040700D01*
X62167000Y-43612128D02*
X62167000Y-42469271D01*
X74595571Y-43040700D02*
X75738429Y-43040700D01*
X109801819Y-67396333D02*
X108801819Y-67396333D01*
X108801819Y-67396333D02*
X108801819Y-67158238D01*
X108801819Y-67158238D02*
X108849438Y-67015381D01*
X108849438Y-67015381D02*
X108944676Y-66920143D01*
X108944676Y-66920143D02*
X109039914Y-66872524D01*
X109039914Y-66872524D02*
X109230390Y-66824905D01*
X109230390Y-66824905D02*
X109373247Y-66824905D01*
X109373247Y-66824905D02*
X109563723Y-66872524D01*
X109563723Y-66872524D02*
X109658961Y-66920143D01*
X109658961Y-66920143D02*
X109754200Y-67015381D01*
X109754200Y-67015381D02*
X109801819Y-67158238D01*
X109801819Y-67158238D02*
X109801819Y-67396333D01*
X109754200Y-66015381D02*
X109801819Y-66110619D01*
X109801819Y-66110619D02*
X109801819Y-66301095D01*
X109801819Y-66301095D02*
X109754200Y-66396333D01*
X109754200Y-66396333D02*
X109658961Y-66443952D01*
X109658961Y-66443952D02*
X109278009Y-66443952D01*
X109278009Y-66443952D02*
X109182771Y-66396333D01*
X109182771Y-66396333D02*
X109135152Y-66301095D01*
X109135152Y-66301095D02*
X109135152Y-66110619D01*
X109135152Y-66110619D02*
X109182771Y-66015381D01*
X109182771Y-66015381D02*
X109278009Y-65967762D01*
X109278009Y-65967762D02*
X109373247Y-65967762D01*
X109373247Y-65967762D02*
X109468485Y-66443952D01*
X109801819Y-65539190D02*
X108801819Y-65539190D01*
X109182771Y-65539190D02*
X109135152Y-65443952D01*
X109135152Y-65443952D02*
X109135152Y-65253476D01*
X109135152Y-65253476D02*
X109182771Y-65158238D01*
X109182771Y-65158238D02*
X109230390Y-65110619D01*
X109230390Y-65110619D02*
X109325628Y-65063000D01*
X109325628Y-65063000D02*
X109611342Y-65063000D01*
X109611342Y-65063000D02*
X109706580Y-65110619D01*
X109706580Y-65110619D02*
X109754200Y-65158238D01*
X109754200Y-65158238D02*
X109801819Y-65253476D01*
X109801819Y-65253476D02*
X109801819Y-65443952D01*
X109801819Y-65443952D02*
X109754200Y-65539190D01*
X109135152Y-64205857D02*
X109801819Y-64205857D01*
X109135152Y-64634428D02*
X109658961Y-64634428D01*
X109658961Y-64634428D02*
X109754200Y-64586809D01*
X109754200Y-64586809D02*
X109801819Y-64491571D01*
X109801819Y-64491571D02*
X109801819Y-64348714D01*
X109801819Y-64348714D02*
X109754200Y-64253476D01*
X109754200Y-64253476D02*
X109706580Y-64205857D01*
X109135152Y-63301095D02*
X109944676Y-63301095D01*
X109944676Y-63301095D02*
X110039914Y-63348714D01*
X110039914Y-63348714D02*
X110087533Y-63396333D01*
X110087533Y-63396333D02*
X110135152Y-63491571D01*
X110135152Y-63491571D02*
X110135152Y-63634428D01*
X110135152Y-63634428D02*
X110087533Y-63729666D01*
X109754200Y-63301095D02*
X109801819Y-63396333D01*
X109801819Y-63396333D02*
X109801819Y-63586809D01*
X109801819Y-63586809D02*
X109754200Y-63682047D01*
X109754200Y-63682047D02*
X109706580Y-63729666D01*
X109706580Y-63729666D02*
X109611342Y-63777285D01*
X109611342Y-63777285D02*
X109325628Y-63777285D01*
X109325628Y-63777285D02*
X109230390Y-63729666D01*
X109230390Y-63729666D02*
X109182771Y-63682047D01*
X109182771Y-63682047D02*
X109135152Y-63586809D01*
X109135152Y-63586809D02*
X109135152Y-63396333D01*
X109135152Y-63396333D02*
X109182771Y-63301095D01*
X109897057Y-63063000D02*
X109897057Y-62301095D01*
X108801819Y-61872523D02*
X108801819Y-61682047D01*
X108801819Y-61682047D02*
X108849438Y-61586809D01*
X108849438Y-61586809D02*
X108944676Y-61491571D01*
X108944676Y-61491571D02*
X109135152Y-61443952D01*
X109135152Y-61443952D02*
X109468485Y-61443952D01*
X109468485Y-61443952D02*
X109658961Y-61491571D01*
X109658961Y-61491571D02*
X109754200Y-61586809D01*
X109754200Y-61586809D02*
X109801819Y-61682047D01*
X109801819Y-61682047D02*
X109801819Y-61872523D01*
X109801819Y-61872523D02*
X109754200Y-61967761D01*
X109754200Y-61967761D02*
X109658961Y-62062999D01*
X109658961Y-62062999D02*
X109468485Y-62110618D01*
X109468485Y-62110618D02*
X109135152Y-62110618D01*
X109135152Y-62110618D02*
X108944676Y-62062999D01*
X108944676Y-62062999D02*
X108849438Y-61967761D01*
X108849438Y-61967761D02*
X108801819Y-61872523D01*
X109801819Y-61015380D02*
X109135152Y-61015380D01*
X109325628Y-61015380D02*
X109230390Y-60967761D01*
X109230390Y-60967761D02*
X109182771Y-60920142D01*
X109182771Y-60920142D02*
X109135152Y-60824904D01*
X109135152Y-60824904D02*
X109135152Y-60729666D01*
X109801819Y-60396332D02*
X109135152Y-60396332D01*
X108801819Y-60396332D02*
X108849438Y-60443951D01*
X108849438Y-60443951D02*
X108897057Y-60396332D01*
X108897057Y-60396332D02*
X108849438Y-60348713D01*
X108849438Y-60348713D02*
X108801819Y-60396332D01*
X108801819Y-60396332D02*
X108897057Y-60396332D01*
X109135152Y-59920142D02*
X109801819Y-59920142D01*
X109230390Y-59920142D02*
X109182771Y-59872523D01*
X109182771Y-59872523D02*
X109135152Y-59777285D01*
X109135152Y-59777285D02*
X109135152Y-59634428D01*
X109135152Y-59634428D02*
X109182771Y-59539190D01*
X109182771Y-59539190D02*
X109278009Y-59491571D01*
X109278009Y-59491571D02*
X109801819Y-59491571D01*
X109420866Y-59015380D02*
X109420866Y-58253476D01*
X109135152Y-57777285D02*
X109420866Y-57015381D01*
X109420866Y-57015381D02*
X109706580Y-57777285D01*
X108801819Y-56682047D02*
X108801819Y-56110619D01*
X109801819Y-56396333D02*
X108801819Y-56396333D01*
X109135152Y-55348714D02*
X109801819Y-55348714D01*
X109135152Y-55777285D02*
X109658961Y-55777285D01*
X109658961Y-55777285D02*
X109754200Y-55729666D01*
X109754200Y-55729666D02*
X109801819Y-55634428D01*
X109801819Y-55634428D02*
X109801819Y-55491571D01*
X109801819Y-55491571D02*
X109754200Y-55396333D01*
X109754200Y-55396333D02*
X109706580Y-55348714D01*
X109801819Y-54872523D02*
X109135152Y-54872523D01*
X109325628Y-54872523D02*
X109230390Y-54824904D01*
X109230390Y-54824904D02*
X109182771Y-54777285D01*
X109182771Y-54777285D02*
X109135152Y-54682047D01*
X109135152Y-54682047D02*
X109135152Y-54586809D01*
X109801819Y-54253475D02*
X109135152Y-54253475D01*
X109325628Y-54253475D02*
X109230390Y-54205856D01*
X109230390Y-54205856D02*
X109182771Y-54158237D01*
X109182771Y-54158237D02*
X109135152Y-54062999D01*
X109135152Y-54062999D02*
X109135152Y-53967761D01*
X109754200Y-53253475D02*
X109801819Y-53348713D01*
X109801819Y-53348713D02*
X109801819Y-53539189D01*
X109801819Y-53539189D02*
X109754200Y-53634427D01*
X109754200Y-53634427D02*
X109658961Y-53682046D01*
X109658961Y-53682046D02*
X109278009Y-53682046D01*
X109278009Y-53682046D02*
X109182771Y-53634427D01*
X109182771Y-53634427D02*
X109135152Y-53539189D01*
X109135152Y-53539189D02*
X109135152Y-53348713D01*
X109135152Y-53348713D02*
X109182771Y-53253475D01*
X109182771Y-53253475D02*
X109278009Y-53205856D01*
X109278009Y-53205856D02*
X109373247Y-53205856D01*
X109373247Y-53205856D02*
X109468485Y-53682046D01*
X109135152Y-52920141D02*
X109135152Y-52539189D01*
X108801819Y-52777284D02*
X109658961Y-52777284D01*
X109658961Y-52777284D02*
X109754200Y-52729665D01*
X109754200Y-52729665D02*
X109801819Y-52634427D01*
X109801819Y-52634427D02*
X109801819Y-52539189D01*
X109801819Y-51682046D02*
X109801819Y-52253474D01*
X109801819Y-51967760D02*
X108801819Y-51967760D01*
X108801819Y-51967760D02*
X108944676Y-52062998D01*
X108944676Y-52062998D02*
X109039914Y-52158236D01*
X109039914Y-52158236D02*
X109087533Y-52253474D01*
X48564379Y-38986580D02*
X48516760Y-39034200D01*
X48516760Y-39034200D02*
X48373903Y-39081819D01*
X48373903Y-39081819D02*
X48278665Y-39081819D01*
X48278665Y-39081819D02*
X48135808Y-39034200D01*
X48135808Y-39034200D02*
X48040570Y-38938961D01*
X48040570Y-38938961D02*
X47992951Y-38843723D01*
X47992951Y-38843723D02*
X47945332Y-38653247D01*
X47945332Y-38653247D02*
X47945332Y-38510390D01*
X47945332Y-38510390D02*
X47992951Y-38319914D01*
X47992951Y-38319914D02*
X48040570Y-38224676D01*
X48040570Y-38224676D02*
X48135808Y-38129438D01*
X48135808Y-38129438D02*
X48278665Y-38081819D01*
X48278665Y-38081819D02*
X48373903Y-38081819D01*
X48373903Y-38081819D02*
X48516760Y-38129438D01*
X48516760Y-38129438D02*
X48564379Y-38177057D01*
X48945332Y-38796104D02*
X49421522Y-38796104D01*
X48850094Y-39081819D02*
X49183427Y-38081819D01*
X49183427Y-38081819D02*
X49516760Y-39081819D01*
X49850094Y-39081819D02*
X49850094Y-38081819D01*
X49850094Y-38081819D02*
X50421522Y-39081819D01*
X50421522Y-39081819D02*
X50421522Y-38081819D01*
X50659618Y-39177057D02*
X51421522Y-39177057D01*
X52231046Y-39081819D02*
X51897713Y-38605628D01*
X51659618Y-39081819D02*
X51659618Y-38081819D01*
X51659618Y-38081819D02*
X52040570Y-38081819D01*
X52040570Y-38081819D02*
X52135808Y-38129438D01*
X52135808Y-38129438D02*
X52183427Y-38177057D01*
X52183427Y-38177057D02*
X52231046Y-38272295D01*
X52231046Y-38272295D02*
X52231046Y-38415152D01*
X52231046Y-38415152D02*
X52183427Y-38510390D01*
X52183427Y-38510390D02*
X52135808Y-38558009D01*
X52135808Y-38558009D02*
X52040570Y-38605628D01*
X52040570Y-38605628D02*
X51659618Y-38605628D01*
X52421523Y-39177057D02*
X53183427Y-39177057D01*
X53754856Y-38558009D02*
X53421523Y-38558009D01*
X53421523Y-39081819D02*
X53421523Y-38081819D01*
X53421523Y-38081819D02*
X53897713Y-38081819D01*
X54421523Y-39081819D02*
X54326285Y-39034200D01*
X54326285Y-39034200D02*
X54278666Y-38938961D01*
X54278666Y-38938961D02*
X54278666Y-38081819D01*
X54707238Y-38415152D02*
X54945333Y-39081819D01*
X55183428Y-38415152D02*
X54945333Y-39081819D01*
X54945333Y-39081819D02*
X54850095Y-39319914D01*
X54850095Y-39319914D02*
X54802476Y-39367533D01*
X54802476Y-39367533D02*
X54707238Y-39415152D01*
X55469143Y-38415152D02*
X55659619Y-39081819D01*
X55659619Y-39081819D02*
X55850095Y-38605628D01*
X55850095Y-38605628D02*
X56040571Y-39081819D01*
X56040571Y-39081819D02*
X56231047Y-38415152D01*
X56612000Y-39081819D02*
X56612000Y-38081819D01*
X57040571Y-39081819D02*
X57040571Y-38558009D01*
X57040571Y-38558009D02*
X56992952Y-38462771D01*
X56992952Y-38462771D02*
X56897714Y-38415152D01*
X56897714Y-38415152D02*
X56754857Y-38415152D01*
X56754857Y-38415152D02*
X56659619Y-38462771D01*
X56659619Y-38462771D02*
X56612000Y-38510390D01*
X57897714Y-39034200D02*
X57802476Y-39081819D01*
X57802476Y-39081819D02*
X57612000Y-39081819D01*
X57612000Y-39081819D02*
X57516762Y-39034200D01*
X57516762Y-39034200D02*
X57469143Y-38938961D01*
X57469143Y-38938961D02*
X57469143Y-38558009D01*
X57469143Y-38558009D02*
X57516762Y-38462771D01*
X57516762Y-38462771D02*
X57612000Y-38415152D01*
X57612000Y-38415152D02*
X57802476Y-38415152D01*
X57802476Y-38415152D02*
X57897714Y-38462771D01*
X57897714Y-38462771D02*
X57945333Y-38558009D01*
X57945333Y-38558009D02*
X57945333Y-38653247D01*
X57945333Y-38653247D02*
X57469143Y-38748485D01*
X58754857Y-39034200D02*
X58659619Y-39081819D01*
X58659619Y-39081819D02*
X58469143Y-39081819D01*
X58469143Y-39081819D02*
X58373905Y-39034200D01*
X58373905Y-39034200D02*
X58326286Y-38938961D01*
X58326286Y-38938961D02*
X58326286Y-38558009D01*
X58326286Y-38558009D02*
X58373905Y-38462771D01*
X58373905Y-38462771D02*
X58469143Y-38415152D01*
X58469143Y-38415152D02*
X58659619Y-38415152D01*
X58659619Y-38415152D02*
X58754857Y-38462771D01*
X58754857Y-38462771D02*
X58802476Y-38558009D01*
X58802476Y-38558009D02*
X58802476Y-38653247D01*
X58802476Y-38653247D02*
X58326286Y-38748485D01*
X59373905Y-39081819D02*
X59278667Y-39034200D01*
X59278667Y-39034200D02*
X59231048Y-38938961D01*
X59231048Y-38938961D02*
X59231048Y-38081819D01*
X60278667Y-39081819D02*
X59707239Y-39081819D01*
X59992953Y-39081819D02*
X59992953Y-38081819D01*
X59992953Y-38081819D02*
X59897715Y-38224676D01*
X59897715Y-38224676D02*
X59802477Y-38319914D01*
X59802477Y-38319914D02*
X59707239Y-38367533D01*
X109261905Y-75124819D02*
X109261905Y-74124819D01*
X109261905Y-74124819D02*
X109500000Y-74124819D01*
X109500000Y-74124819D02*
X109642857Y-74172438D01*
X109642857Y-74172438D02*
X109738095Y-74267676D01*
X109738095Y-74267676D02*
X109785714Y-74362914D01*
X109785714Y-74362914D02*
X109833333Y-74553390D01*
X109833333Y-74553390D02*
X109833333Y-74696247D01*
X109833333Y-74696247D02*
X109785714Y-74886723D01*
X109785714Y-74886723D02*
X109738095Y-74981961D01*
X109738095Y-74981961D02*
X109642857Y-75077200D01*
X109642857Y-75077200D02*
X109500000Y-75124819D01*
X109500000Y-75124819D02*
X109261905Y-75124819D01*
X110166667Y-74124819D02*
X110785714Y-74124819D01*
X110785714Y-74124819D02*
X110452381Y-74505771D01*
X110452381Y-74505771D02*
X110595238Y-74505771D01*
X110595238Y-74505771D02*
X110690476Y-74553390D01*
X110690476Y-74553390D02*
X110738095Y-74601009D01*
X110738095Y-74601009D02*
X110785714Y-74696247D01*
X110785714Y-74696247D02*
X110785714Y-74934342D01*
X110785714Y-74934342D02*
X110738095Y-75029580D01*
X110738095Y-75029580D02*
X110690476Y-75077200D01*
X110690476Y-75077200D02*
X110595238Y-75124819D01*
X110595238Y-75124819D02*
X110309524Y-75124819D01*
X110309524Y-75124819D02*
X110214286Y-75077200D01*
X110214286Y-75077200D02*
X110166667Y-75029580D01*
X48342141Y-75943580D02*
X48294522Y-75991200D01*
X48294522Y-75991200D02*
X48151665Y-76038819D01*
X48151665Y-76038819D02*
X48056427Y-76038819D01*
X48056427Y-76038819D02*
X47913570Y-75991200D01*
X47913570Y-75991200D02*
X47818332Y-75895961D01*
X47818332Y-75895961D02*
X47770713Y-75800723D01*
X47770713Y-75800723D02*
X47723094Y-75610247D01*
X47723094Y-75610247D02*
X47723094Y-75467390D01*
X47723094Y-75467390D02*
X47770713Y-75276914D01*
X47770713Y-75276914D02*
X47818332Y-75181676D01*
X47818332Y-75181676D02*
X47913570Y-75086438D01*
X47913570Y-75086438D02*
X48056427Y-75038819D01*
X48056427Y-75038819D02*
X48151665Y-75038819D01*
X48151665Y-75038819D02*
X48294522Y-75086438D01*
X48294522Y-75086438D02*
X48342141Y-75134057D01*
X48723094Y-75753104D02*
X49199284Y-75753104D01*
X48627856Y-76038819D02*
X48961189Y-75038819D01*
X48961189Y-75038819D02*
X49294522Y-76038819D01*
X49627856Y-76038819D02*
X49627856Y-75038819D01*
X49627856Y-75038819D02*
X50199284Y-76038819D01*
X50199284Y-76038819D02*
X50199284Y-75038819D01*
X50437380Y-76134057D02*
X51199284Y-76134057D01*
X51342142Y-75038819D02*
X51580237Y-76038819D01*
X51580237Y-76038819D02*
X51770713Y-75324533D01*
X51770713Y-75324533D02*
X51961189Y-76038819D01*
X51961189Y-76038819D02*
X52199285Y-75038819D01*
X53008808Y-76038819D02*
X53008808Y-75515009D01*
X53008808Y-75515009D02*
X52961189Y-75419771D01*
X52961189Y-75419771D02*
X52865951Y-75372152D01*
X52865951Y-75372152D02*
X52675475Y-75372152D01*
X52675475Y-75372152D02*
X52580237Y-75419771D01*
X53008808Y-75991200D02*
X52913570Y-76038819D01*
X52913570Y-76038819D02*
X52675475Y-76038819D01*
X52675475Y-76038819D02*
X52580237Y-75991200D01*
X52580237Y-75991200D02*
X52532618Y-75895961D01*
X52532618Y-75895961D02*
X52532618Y-75800723D01*
X52532618Y-75800723D02*
X52580237Y-75705485D01*
X52580237Y-75705485D02*
X52675475Y-75657866D01*
X52675475Y-75657866D02*
X52913570Y-75657866D01*
X52913570Y-75657866D02*
X53008808Y-75610247D01*
X53342142Y-75372152D02*
X53723094Y-75372152D01*
X53484999Y-75038819D02*
X53484999Y-75895961D01*
X53484999Y-75895961D02*
X53532618Y-75991200D01*
X53532618Y-75991200D02*
X53627856Y-76038819D01*
X53627856Y-76038819D02*
X53723094Y-76038819D01*
X54437380Y-75991200D02*
X54342142Y-76038819D01*
X54342142Y-76038819D02*
X54151666Y-76038819D01*
X54151666Y-76038819D02*
X54056428Y-75991200D01*
X54056428Y-75991200D02*
X54008809Y-75895961D01*
X54008809Y-75895961D02*
X54008809Y-75515009D01*
X54008809Y-75515009D02*
X54056428Y-75419771D01*
X54056428Y-75419771D02*
X54151666Y-75372152D01*
X54151666Y-75372152D02*
X54342142Y-75372152D01*
X54342142Y-75372152D02*
X54437380Y-75419771D01*
X54437380Y-75419771D02*
X54484999Y-75515009D01*
X54484999Y-75515009D02*
X54484999Y-75610247D01*
X54484999Y-75610247D02*
X54008809Y-75705485D01*
X54913571Y-76038819D02*
X54913571Y-75372152D01*
X54913571Y-75562628D02*
X54961190Y-75467390D01*
X54961190Y-75467390D02*
X55008809Y-75419771D01*
X55008809Y-75419771D02*
X55104047Y-75372152D01*
X55104047Y-75372152D02*
X55199285Y-75372152D01*
X55437381Y-75372152D02*
X55627857Y-76038819D01*
X55627857Y-76038819D02*
X55818333Y-75562628D01*
X55818333Y-75562628D02*
X56008809Y-76038819D01*
X56008809Y-76038819D02*
X56199285Y-75372152D01*
X56580238Y-76038819D02*
X56580238Y-75038819D01*
X57008809Y-76038819D02*
X57008809Y-75515009D01*
X57008809Y-75515009D02*
X56961190Y-75419771D01*
X56961190Y-75419771D02*
X56865952Y-75372152D01*
X56865952Y-75372152D02*
X56723095Y-75372152D01*
X56723095Y-75372152D02*
X56627857Y-75419771D01*
X56627857Y-75419771D02*
X56580238Y-75467390D01*
X57865952Y-75991200D02*
X57770714Y-76038819D01*
X57770714Y-76038819D02*
X57580238Y-76038819D01*
X57580238Y-76038819D02*
X57485000Y-75991200D01*
X57485000Y-75991200D02*
X57437381Y-75895961D01*
X57437381Y-75895961D02*
X57437381Y-75515009D01*
X57437381Y-75515009D02*
X57485000Y-75419771D01*
X57485000Y-75419771D02*
X57580238Y-75372152D01*
X57580238Y-75372152D02*
X57770714Y-75372152D01*
X57770714Y-75372152D02*
X57865952Y-75419771D01*
X57865952Y-75419771D02*
X57913571Y-75515009D01*
X57913571Y-75515009D02*
X57913571Y-75610247D01*
X57913571Y-75610247D02*
X57437381Y-75705485D01*
X58723095Y-75991200D02*
X58627857Y-76038819D01*
X58627857Y-76038819D02*
X58437381Y-76038819D01*
X58437381Y-76038819D02*
X58342143Y-75991200D01*
X58342143Y-75991200D02*
X58294524Y-75895961D01*
X58294524Y-75895961D02*
X58294524Y-75515009D01*
X58294524Y-75515009D02*
X58342143Y-75419771D01*
X58342143Y-75419771D02*
X58437381Y-75372152D01*
X58437381Y-75372152D02*
X58627857Y-75372152D01*
X58627857Y-75372152D02*
X58723095Y-75419771D01*
X58723095Y-75419771D02*
X58770714Y-75515009D01*
X58770714Y-75515009D02*
X58770714Y-75610247D01*
X58770714Y-75610247D02*
X58294524Y-75705485D01*
X59342143Y-76038819D02*
X59246905Y-75991200D01*
X59246905Y-75991200D02*
X59199286Y-75895961D01*
X59199286Y-75895961D02*
X59199286Y-75038819D01*
X60246905Y-76038819D02*
X59675477Y-76038819D01*
X59961191Y-76038819D02*
X59961191Y-75038819D01*
X59961191Y-75038819D02*
X59865953Y-75181676D01*
X59865953Y-75181676D02*
X59770715Y-75276914D01*
X59770715Y-75276914D02*
X59675477Y-75324533D01*
X120809524Y-46573866D02*
X121571429Y-46573866D01*
X121190476Y-46954819D02*
X121190476Y-46192914D01*
X122000000Y-46050057D02*
X122047619Y-46002438D01*
X122047619Y-46002438D02*
X122142857Y-45954819D01*
X122142857Y-45954819D02*
X122380952Y-45954819D01*
X122380952Y-45954819D02*
X122476190Y-46002438D01*
X122476190Y-46002438D02*
X122523809Y-46050057D01*
X122523809Y-46050057D02*
X122571428Y-46145295D01*
X122571428Y-46145295D02*
X122571428Y-46240533D01*
X122571428Y-46240533D02*
X122523809Y-46383390D01*
X122523809Y-46383390D02*
X121952381Y-46954819D01*
X121952381Y-46954819D02*
X122571428Y-46954819D01*
X123428571Y-46288152D02*
X123428571Y-46954819D01*
X123190476Y-45907200D02*
X122952381Y-46621485D01*
X122952381Y-46621485D02*
X123571428Y-46621485D01*
X123809524Y-45954819D02*
X124142857Y-46954819D01*
X124142857Y-46954819D02*
X124476190Y-45954819D01*
X124571429Y-47050057D02*
X125333333Y-47050057D01*
X126095238Y-46002438D02*
X126000000Y-45954819D01*
X126000000Y-45954819D02*
X125857143Y-45954819D01*
X125857143Y-45954819D02*
X125714286Y-46002438D01*
X125714286Y-46002438D02*
X125619048Y-46097676D01*
X125619048Y-46097676D02*
X125571429Y-46192914D01*
X125571429Y-46192914D02*
X125523810Y-46383390D01*
X125523810Y-46383390D02*
X125523810Y-46526247D01*
X125523810Y-46526247D02*
X125571429Y-46716723D01*
X125571429Y-46716723D02*
X125619048Y-46811961D01*
X125619048Y-46811961D02*
X125714286Y-46907200D01*
X125714286Y-46907200D02*
X125857143Y-46954819D01*
X125857143Y-46954819D02*
X125952381Y-46954819D01*
X125952381Y-46954819D02*
X126095238Y-46907200D01*
X126095238Y-46907200D02*
X126142857Y-46859580D01*
X126142857Y-46859580D02*
X126142857Y-46526247D01*
X126142857Y-46526247D02*
X125952381Y-46526247D01*
X126571429Y-46954819D02*
X126571429Y-46288152D01*
X126571429Y-45954819D02*
X126523810Y-46002438D01*
X126523810Y-46002438D02*
X126571429Y-46050057D01*
X126571429Y-46050057D02*
X126619048Y-46002438D01*
X126619048Y-46002438D02*
X126571429Y-45954819D01*
X126571429Y-45954819D02*
X126571429Y-46050057D01*
X127047619Y-46954819D02*
X127047619Y-46288152D01*
X127047619Y-46383390D02*
X127095238Y-46335771D01*
X127095238Y-46335771D02*
X127190476Y-46288152D01*
X127190476Y-46288152D02*
X127333333Y-46288152D01*
X127333333Y-46288152D02*
X127428571Y-46335771D01*
X127428571Y-46335771D02*
X127476190Y-46431009D01*
X127476190Y-46431009D02*
X127476190Y-46954819D01*
X127476190Y-46431009D02*
X127523809Y-46335771D01*
X127523809Y-46335771D02*
X127619047Y-46288152D01*
X127619047Y-46288152D02*
X127761904Y-46288152D01*
X127761904Y-46288152D02*
X127857143Y-46335771D01*
X127857143Y-46335771D02*
X127904762Y-46431009D01*
X127904762Y-46431009D02*
X127904762Y-46954819D01*
X128380952Y-46954819D02*
X128380952Y-45954819D01*
X128380952Y-46335771D02*
X128476190Y-46288152D01*
X128476190Y-46288152D02*
X128666666Y-46288152D01*
X128666666Y-46288152D02*
X128761904Y-46335771D01*
X128761904Y-46335771D02*
X128809523Y-46383390D01*
X128809523Y-46383390D02*
X128857142Y-46478628D01*
X128857142Y-46478628D02*
X128857142Y-46764342D01*
X128857142Y-46764342D02*
X128809523Y-46859580D01*
X128809523Y-46859580D02*
X128761904Y-46907200D01*
X128761904Y-46907200D02*
X128666666Y-46954819D01*
X128666666Y-46954819D02*
X128476190Y-46954819D01*
X128476190Y-46954819D02*
X128380952Y-46907200D01*
X129714285Y-46954819D02*
X129714285Y-46431009D01*
X129714285Y-46431009D02*
X129666666Y-46335771D01*
X129666666Y-46335771D02*
X129571428Y-46288152D01*
X129571428Y-46288152D02*
X129380952Y-46288152D01*
X129380952Y-46288152D02*
X129285714Y-46335771D01*
X129714285Y-46907200D02*
X129619047Y-46954819D01*
X129619047Y-46954819D02*
X129380952Y-46954819D01*
X129380952Y-46954819D02*
X129285714Y-46907200D01*
X129285714Y-46907200D02*
X129238095Y-46811961D01*
X129238095Y-46811961D02*
X129238095Y-46716723D01*
X129238095Y-46716723D02*
X129285714Y-46621485D01*
X129285714Y-46621485D02*
X129380952Y-46573866D01*
X129380952Y-46573866D02*
X129619047Y-46573866D01*
X129619047Y-46573866D02*
X129714285Y-46526247D01*
X130333333Y-46954819D02*
X130238095Y-46907200D01*
X130238095Y-46907200D02*
X130190476Y-46811961D01*
X130190476Y-46811961D02*
X130190476Y-45954819D01*
X131238095Y-46954819D02*
X130666667Y-46954819D01*
X130952381Y-46954819D02*
X130952381Y-45954819D01*
X130952381Y-45954819D02*
X130857143Y-46097676D01*
X130857143Y-46097676D02*
X130761905Y-46192914D01*
X130761905Y-46192914D02*
X130666667Y-46240533D01*
X118928571Y-42614700D02*
X120071429Y-42614700D01*
X119500000Y-43186128D02*
X119500000Y-42043271D01*
X131950571Y-42490700D02*
X133093429Y-42490700D01*
X58811819Y-64200810D02*
X58335628Y-64534143D01*
X58811819Y-64772238D02*
X57811819Y-64772238D01*
X57811819Y-64772238D02*
X57811819Y-64391286D01*
X57811819Y-64391286D02*
X57859438Y-64296048D01*
X57859438Y-64296048D02*
X57907057Y-64248429D01*
X57907057Y-64248429D02*
X58002295Y-64200810D01*
X58002295Y-64200810D02*
X58145152Y-64200810D01*
X58145152Y-64200810D02*
X58240390Y-64248429D01*
X58240390Y-64248429D02*
X58288009Y-64296048D01*
X58288009Y-64296048D02*
X58335628Y-64391286D01*
X58335628Y-64391286D02*
X58335628Y-64772238D01*
X58764200Y-63391286D02*
X58811819Y-63486524D01*
X58811819Y-63486524D02*
X58811819Y-63677000D01*
X58811819Y-63677000D02*
X58764200Y-63772238D01*
X58764200Y-63772238D02*
X58668961Y-63819857D01*
X58668961Y-63819857D02*
X58288009Y-63819857D01*
X58288009Y-63819857D02*
X58192771Y-63772238D01*
X58192771Y-63772238D02*
X58145152Y-63677000D01*
X58145152Y-63677000D02*
X58145152Y-63486524D01*
X58145152Y-63486524D02*
X58192771Y-63391286D01*
X58192771Y-63391286D02*
X58288009Y-63343667D01*
X58288009Y-63343667D02*
X58383247Y-63343667D01*
X58383247Y-63343667D02*
X58478485Y-63819857D01*
X58145152Y-63057952D02*
X58145152Y-62677000D01*
X58811819Y-62915095D02*
X57954676Y-62915095D01*
X57954676Y-62915095D02*
X57859438Y-62867476D01*
X57859438Y-62867476D02*
X57811819Y-62772238D01*
X57811819Y-62772238D02*
X57811819Y-62677000D01*
X58907057Y-62581762D02*
X58907057Y-61819857D01*
X57811819Y-61391285D02*
X57811819Y-61200809D01*
X57811819Y-61200809D02*
X57859438Y-61105571D01*
X57859438Y-61105571D02*
X57954676Y-61010333D01*
X57954676Y-61010333D02*
X58145152Y-60962714D01*
X58145152Y-60962714D02*
X58478485Y-60962714D01*
X58478485Y-60962714D02*
X58668961Y-61010333D01*
X58668961Y-61010333D02*
X58764200Y-61105571D01*
X58764200Y-61105571D02*
X58811819Y-61200809D01*
X58811819Y-61200809D02*
X58811819Y-61391285D01*
X58811819Y-61391285D02*
X58764200Y-61486523D01*
X58764200Y-61486523D02*
X58668961Y-61581761D01*
X58668961Y-61581761D02*
X58478485Y-61629380D01*
X58478485Y-61629380D02*
X58145152Y-61629380D01*
X58145152Y-61629380D02*
X57954676Y-61581761D01*
X57954676Y-61581761D02*
X57859438Y-61486523D01*
X57859438Y-61486523D02*
X57811819Y-61391285D01*
X58145152Y-60105571D02*
X58811819Y-60105571D01*
X58145152Y-60534142D02*
X58668961Y-60534142D01*
X58668961Y-60534142D02*
X58764200Y-60486523D01*
X58764200Y-60486523D02*
X58811819Y-60391285D01*
X58811819Y-60391285D02*
X58811819Y-60248428D01*
X58811819Y-60248428D02*
X58764200Y-60153190D01*
X58764200Y-60153190D02*
X58716580Y-60105571D01*
X58145152Y-59772237D02*
X58145152Y-59391285D01*
X57811819Y-59629380D02*
X58668961Y-59629380D01*
X58668961Y-59629380D02*
X58764200Y-59581761D01*
X58764200Y-59581761D02*
X58811819Y-59486523D01*
X58811819Y-59486523D02*
X58811819Y-59391285D01*
X58811819Y-58534142D02*
X58811819Y-59105570D01*
X58811819Y-58819856D02*
X57811819Y-58819856D01*
X57811819Y-58819856D02*
X57954676Y-58915094D01*
X57954676Y-58915094D02*
X58049914Y-59010332D01*
X58049914Y-59010332D02*
X58097533Y-59105570D01*
X115833333Y-77984819D02*
X115500000Y-77508628D01*
X115261905Y-77984819D02*
X115261905Y-76984819D01*
X115261905Y-76984819D02*
X115642857Y-76984819D01*
X115642857Y-76984819D02*
X115738095Y-77032438D01*
X115738095Y-77032438D02*
X115785714Y-77080057D01*
X115785714Y-77080057D02*
X115833333Y-77175295D01*
X115833333Y-77175295D02*
X115833333Y-77318152D01*
X115833333Y-77318152D02*
X115785714Y-77413390D01*
X115785714Y-77413390D02*
X115738095Y-77461009D01*
X115738095Y-77461009D02*
X115642857Y-77508628D01*
X115642857Y-77508628D02*
X115261905Y-77508628D01*
X116166667Y-76984819D02*
X116785714Y-76984819D01*
X116785714Y-76984819D02*
X116452381Y-77365771D01*
X116452381Y-77365771D02*
X116595238Y-77365771D01*
X116595238Y-77365771D02*
X116690476Y-77413390D01*
X116690476Y-77413390D02*
X116738095Y-77461009D01*
X116738095Y-77461009D02*
X116785714Y-77556247D01*
X116785714Y-77556247D02*
X116785714Y-77794342D01*
X116785714Y-77794342D02*
X116738095Y-77889580D01*
X116738095Y-77889580D02*
X116690476Y-77937200D01*
X116690476Y-77937200D02*
X116595238Y-77984819D01*
X116595238Y-77984819D02*
X116309524Y-77984819D01*
X116309524Y-77984819D02*
X116214286Y-77937200D01*
X116214286Y-77937200D02*
X116166667Y-77889580D01*
X90369570Y-46999866D02*
X91131475Y-46999866D01*
X90750522Y-47380819D02*
X90750522Y-46618914D01*
X91560046Y-46476057D02*
X91607665Y-46428438D01*
X91607665Y-46428438D02*
X91702903Y-46380819D01*
X91702903Y-46380819D02*
X91940998Y-46380819D01*
X91940998Y-46380819D02*
X92036236Y-46428438D01*
X92036236Y-46428438D02*
X92083855Y-46476057D01*
X92083855Y-46476057D02*
X92131474Y-46571295D01*
X92131474Y-46571295D02*
X92131474Y-46666533D01*
X92131474Y-46666533D02*
X92083855Y-46809390D01*
X92083855Y-46809390D02*
X91512427Y-47380819D01*
X91512427Y-47380819D02*
X92131474Y-47380819D01*
X92988617Y-46714152D02*
X92988617Y-47380819D01*
X92750522Y-46333200D02*
X92512427Y-47047485D01*
X92512427Y-47047485D02*
X93131474Y-47047485D01*
X93369570Y-46380819D02*
X93702903Y-47380819D01*
X93702903Y-47380819D02*
X94036236Y-46380819D01*
X94131475Y-47476057D02*
X94893379Y-47476057D01*
X95607665Y-47380819D02*
X95131475Y-47380819D01*
X95131475Y-47380819D02*
X95131475Y-46380819D01*
X95702904Y-47476057D02*
X96464808Y-47476057D01*
X97036237Y-46857009D02*
X96702904Y-46857009D01*
X96702904Y-47380819D02*
X96702904Y-46380819D01*
X96702904Y-46380819D02*
X97179094Y-46380819D01*
X97702904Y-47380819D02*
X97607666Y-47333200D01*
X97607666Y-47333200D02*
X97560047Y-47237961D01*
X97560047Y-47237961D02*
X97560047Y-46380819D01*
X97988619Y-46714152D02*
X98226714Y-47380819D01*
X98464809Y-46714152D02*
X98226714Y-47380819D01*
X98226714Y-47380819D02*
X98131476Y-47618914D01*
X98131476Y-47618914D02*
X98083857Y-47666533D01*
X98083857Y-47666533D02*
X97988619Y-47714152D01*
X98750524Y-46714152D02*
X98941000Y-47380819D01*
X98941000Y-47380819D02*
X99131476Y-46904628D01*
X99131476Y-46904628D02*
X99321952Y-47380819D01*
X99321952Y-47380819D02*
X99512428Y-46714152D01*
X99893381Y-47380819D02*
X99893381Y-46380819D01*
X100321952Y-47380819D02*
X100321952Y-46857009D01*
X100321952Y-46857009D02*
X100274333Y-46761771D01*
X100274333Y-46761771D02*
X100179095Y-46714152D01*
X100179095Y-46714152D02*
X100036238Y-46714152D01*
X100036238Y-46714152D02*
X99941000Y-46761771D01*
X99941000Y-46761771D02*
X99893381Y-46809390D01*
X101179095Y-47333200D02*
X101083857Y-47380819D01*
X101083857Y-47380819D02*
X100893381Y-47380819D01*
X100893381Y-47380819D02*
X100798143Y-47333200D01*
X100798143Y-47333200D02*
X100750524Y-47237961D01*
X100750524Y-47237961D02*
X100750524Y-46857009D01*
X100750524Y-46857009D02*
X100798143Y-46761771D01*
X100798143Y-46761771D02*
X100893381Y-46714152D01*
X100893381Y-46714152D02*
X101083857Y-46714152D01*
X101083857Y-46714152D02*
X101179095Y-46761771D01*
X101179095Y-46761771D02*
X101226714Y-46857009D01*
X101226714Y-46857009D02*
X101226714Y-46952247D01*
X101226714Y-46952247D02*
X100750524Y-47047485D01*
X102036238Y-47333200D02*
X101941000Y-47380819D01*
X101941000Y-47380819D02*
X101750524Y-47380819D01*
X101750524Y-47380819D02*
X101655286Y-47333200D01*
X101655286Y-47333200D02*
X101607667Y-47237961D01*
X101607667Y-47237961D02*
X101607667Y-46857009D01*
X101607667Y-46857009D02*
X101655286Y-46761771D01*
X101655286Y-46761771D02*
X101750524Y-46714152D01*
X101750524Y-46714152D02*
X101941000Y-46714152D01*
X101941000Y-46714152D02*
X102036238Y-46761771D01*
X102036238Y-46761771D02*
X102083857Y-46857009D01*
X102083857Y-46857009D02*
X102083857Y-46952247D01*
X102083857Y-46952247D02*
X101607667Y-47047485D01*
X102655286Y-47380819D02*
X102560048Y-47333200D01*
X102560048Y-47333200D02*
X102512429Y-47237961D01*
X102512429Y-47237961D02*
X102512429Y-46380819D01*
X103560048Y-47380819D02*
X102988620Y-47380819D01*
X103274334Y-47380819D02*
X103274334Y-46380819D01*
X103274334Y-46380819D02*
X103179096Y-46523676D01*
X103179096Y-46523676D02*
X103083858Y-46618914D01*
X103083858Y-46618914D02*
X102988620Y-46666533D01*
X102869571Y-43040700D02*
X104012429Y-43040700D01*
X89869571Y-43040700D02*
X91012429Y-43040700D01*
X90441000Y-43612128D02*
X90441000Y-42469271D01*
X109833333Y-82124819D02*
X109500000Y-81648628D01*
X109261905Y-82124819D02*
X109261905Y-81124819D01*
X109261905Y-81124819D02*
X109642857Y-81124819D01*
X109642857Y-81124819D02*
X109738095Y-81172438D01*
X109738095Y-81172438D02*
X109785714Y-81220057D01*
X109785714Y-81220057D02*
X109833333Y-81315295D01*
X109833333Y-81315295D02*
X109833333Y-81458152D01*
X109833333Y-81458152D02*
X109785714Y-81553390D01*
X109785714Y-81553390D02*
X109738095Y-81601009D01*
X109738095Y-81601009D02*
X109642857Y-81648628D01*
X109642857Y-81648628D02*
X109261905Y-81648628D01*
X110785714Y-82124819D02*
X110214286Y-82124819D01*
X110500000Y-82124819D02*
X110500000Y-81124819D01*
X110500000Y-81124819D02*
X110404762Y-81267676D01*
X110404762Y-81267676D02*
X110309524Y-81362914D01*
X110309524Y-81362914D02*
X110214286Y-81410533D01*
X118452380Y-83073866D02*
X119214285Y-83073866D01*
X118833332Y-83454819D02*
X118833332Y-82692914D01*
X120214284Y-83454819D02*
X119642856Y-83454819D01*
X119928570Y-83454819D02*
X119928570Y-82454819D01*
X119928570Y-82454819D02*
X119833332Y-82597676D01*
X119833332Y-82597676D02*
X119738094Y-82692914D01*
X119738094Y-82692914D02*
X119642856Y-82740533D01*
X120690475Y-83454819D02*
X120880951Y-83454819D01*
X120880951Y-83454819D02*
X120976189Y-83407200D01*
X120976189Y-83407200D02*
X121023808Y-83359580D01*
X121023808Y-83359580D02*
X121119046Y-83216723D01*
X121119046Y-83216723D02*
X121166665Y-83026247D01*
X121166665Y-83026247D02*
X121166665Y-82645295D01*
X121166665Y-82645295D02*
X121119046Y-82550057D01*
X121119046Y-82550057D02*
X121071427Y-82502438D01*
X121071427Y-82502438D02*
X120976189Y-82454819D01*
X120976189Y-82454819D02*
X120785713Y-82454819D01*
X120785713Y-82454819D02*
X120690475Y-82502438D01*
X120690475Y-82502438D02*
X120642856Y-82550057D01*
X120642856Y-82550057D02*
X120595237Y-82645295D01*
X120595237Y-82645295D02*
X120595237Y-82883390D01*
X120595237Y-82883390D02*
X120642856Y-82978628D01*
X120642856Y-82978628D02*
X120690475Y-83026247D01*
X120690475Y-83026247D02*
X120785713Y-83073866D01*
X120785713Y-83073866D02*
X120976189Y-83073866D01*
X120976189Y-83073866D02*
X121071427Y-83026247D01*
X121071427Y-83026247D02*
X121119046Y-82978628D01*
X121119046Y-82978628D02*
X121166665Y-82883390D01*
X121452380Y-82454819D02*
X121785713Y-83454819D01*
X121785713Y-83454819D02*
X122119046Y-82454819D01*
X122214285Y-83550057D02*
X122976189Y-83550057D01*
X123071428Y-82454819D02*
X123642856Y-82454819D01*
X123357142Y-83454819D02*
X123357142Y-82454819D01*
X124404761Y-82788152D02*
X124404761Y-83454819D01*
X123976190Y-82788152D02*
X123976190Y-83311961D01*
X123976190Y-83311961D02*
X124023809Y-83407200D01*
X124023809Y-83407200D02*
X124119047Y-83454819D01*
X124119047Y-83454819D02*
X124261904Y-83454819D01*
X124261904Y-83454819D02*
X124357142Y-83407200D01*
X124357142Y-83407200D02*
X124404761Y-83359580D01*
X124880952Y-83454819D02*
X124880952Y-82788152D01*
X124880952Y-82978628D02*
X124928571Y-82883390D01*
X124928571Y-82883390D02*
X124976190Y-82835771D01*
X124976190Y-82835771D02*
X125071428Y-82788152D01*
X125071428Y-82788152D02*
X125166666Y-82788152D01*
X125500000Y-83454819D02*
X125500000Y-82788152D01*
X125500000Y-82978628D02*
X125547619Y-82883390D01*
X125547619Y-82883390D02*
X125595238Y-82835771D01*
X125595238Y-82835771D02*
X125690476Y-82788152D01*
X125690476Y-82788152D02*
X125785714Y-82788152D01*
X126500000Y-83407200D02*
X126404762Y-83454819D01*
X126404762Y-83454819D02*
X126214286Y-83454819D01*
X126214286Y-83454819D02*
X126119048Y-83407200D01*
X126119048Y-83407200D02*
X126071429Y-83311961D01*
X126071429Y-83311961D02*
X126071429Y-82931009D01*
X126071429Y-82931009D02*
X126119048Y-82835771D01*
X126119048Y-82835771D02*
X126214286Y-82788152D01*
X126214286Y-82788152D02*
X126404762Y-82788152D01*
X126404762Y-82788152D02*
X126500000Y-82835771D01*
X126500000Y-82835771D02*
X126547619Y-82931009D01*
X126547619Y-82931009D02*
X126547619Y-83026247D01*
X126547619Y-83026247D02*
X126071429Y-83121485D01*
X126833334Y-82788152D02*
X127214286Y-82788152D01*
X126976191Y-82454819D02*
X126976191Y-83311961D01*
X126976191Y-83311961D02*
X127023810Y-83407200D01*
X127023810Y-83407200D02*
X127119048Y-83454819D01*
X127119048Y-83454819D02*
X127214286Y-83454819D01*
X127547620Y-83073866D02*
X128309525Y-83073866D01*
X128785715Y-82788152D02*
X129547620Y-83073866D01*
X129547620Y-83073866D02*
X128785715Y-83359580D01*
X130214286Y-82454819D02*
X130404762Y-82454819D01*
X130404762Y-82454819D02*
X130500000Y-82502438D01*
X130500000Y-82502438D02*
X130595238Y-82597676D01*
X130595238Y-82597676D02*
X130642857Y-82788152D01*
X130642857Y-82788152D02*
X130642857Y-83121485D01*
X130642857Y-83121485D02*
X130595238Y-83311961D01*
X130595238Y-83311961D02*
X130500000Y-83407200D01*
X130500000Y-83407200D02*
X130404762Y-83454819D01*
X130404762Y-83454819D02*
X130214286Y-83454819D01*
X130214286Y-83454819D02*
X130119048Y-83407200D01*
X130119048Y-83407200D02*
X130023810Y-83311961D01*
X130023810Y-83311961D02*
X129976191Y-83121485D01*
X129976191Y-83121485D02*
X129976191Y-82788152D01*
X129976191Y-82788152D02*
X130023810Y-82597676D01*
X130023810Y-82597676D02*
X130119048Y-82502438D01*
X130119048Y-82502438D02*
X130214286Y-82454819D01*
X131071429Y-83454819D02*
X131071429Y-82788152D01*
X131071429Y-82978628D02*
X131119048Y-82883390D01*
X131119048Y-82883390D02*
X131166667Y-82835771D01*
X131166667Y-82835771D02*
X131261905Y-82788152D01*
X131261905Y-82788152D02*
X131357143Y-82788152D01*
X131690477Y-83454819D02*
X131690477Y-82788152D01*
X131690477Y-82454819D02*
X131642858Y-82502438D01*
X131642858Y-82502438D02*
X131690477Y-82550057D01*
X131690477Y-82550057D02*
X131738096Y-82502438D01*
X131738096Y-82502438D02*
X131690477Y-82454819D01*
X131690477Y-82454819D02*
X131690477Y-82550057D01*
X132166667Y-82788152D02*
X132166667Y-83454819D01*
X132166667Y-82883390D02*
X132214286Y-82835771D01*
X132214286Y-82835771D02*
X132309524Y-82788152D01*
X132309524Y-82788152D02*
X132452381Y-82788152D01*
X132452381Y-82788152D02*
X132547619Y-82835771D01*
X132547619Y-82835771D02*
X132595238Y-82931009D01*
X132595238Y-82931009D02*
X132595238Y-83454819D01*
X133595238Y-83454819D02*
X133023810Y-83454819D01*
X133309524Y-83454819D02*
X133309524Y-82454819D01*
X133309524Y-82454819D02*
X133214286Y-82597676D01*
X133214286Y-82597676D02*
X133119048Y-82692914D01*
X133119048Y-82692914D02*
X133023810Y-82740533D01*
X131928571Y-79114700D02*
X133071429Y-79114700D01*
X118928571Y-79114700D02*
X120071429Y-79114700D01*
X119500000Y-79686128D02*
X119500000Y-78543271D01*
D11*
X84194952Y-71186318D02*
X83469237Y-71186318D01*
X83832094Y-71186318D02*
X83832094Y-69916318D01*
X83832094Y-69916318D02*
X83711142Y-70097746D01*
X83711142Y-70097746D02*
X83590190Y-70218699D01*
X83590190Y-70218699D02*
X83469237Y-70279175D01*
X85283523Y-69916318D02*
X85041618Y-69916318D01*
X85041618Y-69916318D02*
X84920666Y-69976794D01*
X84920666Y-69976794D02*
X84860190Y-70037270D01*
X84860190Y-70037270D02*
X84739237Y-70218699D01*
X84739237Y-70218699D02*
X84678761Y-70460603D01*
X84678761Y-70460603D02*
X84678761Y-70944413D01*
X84678761Y-70944413D02*
X84739237Y-71065365D01*
X84739237Y-71065365D02*
X84799714Y-71125842D01*
X84799714Y-71125842D02*
X84920666Y-71186318D01*
X84920666Y-71186318D02*
X85162571Y-71186318D01*
X85162571Y-71186318D02*
X85283523Y-71125842D01*
X85283523Y-71125842D02*
X85343999Y-71065365D01*
X85343999Y-71065365D02*
X85404476Y-70944413D01*
X85404476Y-70944413D02*
X85404476Y-70642032D01*
X85404476Y-70642032D02*
X85343999Y-70521080D01*
X85343999Y-70521080D02*
X85283523Y-70460603D01*
X85283523Y-70460603D02*
X85162571Y-70400127D01*
X85162571Y-70400127D02*
X84920666Y-70400127D01*
X84920666Y-70400127D02*
X84799714Y-70460603D01*
X84799714Y-70460603D02*
X84739237Y-70521080D01*
X84739237Y-70521080D02*
X84678761Y-70642032D01*
X85646381Y-71307270D02*
X86614000Y-71307270D01*
X86916380Y-71186318D02*
X86916380Y-69916318D01*
X86916380Y-69916318D02*
X87400190Y-69916318D01*
X87400190Y-69916318D02*
X87521142Y-69976794D01*
X87521142Y-69976794D02*
X87581619Y-70037270D01*
X87581619Y-70037270D02*
X87642095Y-70158222D01*
X87642095Y-70158222D02*
X87642095Y-70339651D01*
X87642095Y-70339651D02*
X87581619Y-70460603D01*
X87581619Y-70460603D02*
X87521142Y-70521080D01*
X87521142Y-70521080D02*
X87400190Y-70581556D01*
X87400190Y-70581556D02*
X86916380Y-70581556D01*
X88186380Y-71186318D02*
X88186380Y-70339651D01*
X88186380Y-69916318D02*
X88125904Y-69976794D01*
X88125904Y-69976794D02*
X88186380Y-70037270D01*
X88186380Y-70037270D02*
X88246857Y-69976794D01*
X88246857Y-69976794D02*
X88186380Y-69916318D01*
X88186380Y-69916318D02*
X88186380Y-70037270D01*
X88791142Y-70339651D02*
X88791142Y-71186318D01*
X88791142Y-70460603D02*
X88851619Y-70400127D01*
X88851619Y-70400127D02*
X88972571Y-70339651D01*
X88972571Y-70339651D02*
X89154000Y-70339651D01*
X89154000Y-70339651D02*
X89274952Y-70400127D01*
X89274952Y-70400127D02*
X89335428Y-70521080D01*
X89335428Y-70521080D02*
X89335428Y-71186318D01*
X89637810Y-71307270D02*
X90605429Y-71307270D01*
X90907809Y-71186318D02*
X90907809Y-69916318D01*
X91512571Y-70339651D02*
X91512571Y-71186318D01*
X91512571Y-70460603D02*
X91573048Y-70400127D01*
X91573048Y-70400127D02*
X91694000Y-70339651D01*
X91694000Y-70339651D02*
X91875429Y-70339651D01*
X91875429Y-70339651D02*
X91996381Y-70400127D01*
X91996381Y-70400127D02*
X92056857Y-70521080D01*
X92056857Y-70521080D02*
X92056857Y-71186318D01*
X92661619Y-70339651D02*
X92661619Y-71609651D01*
X92661619Y-70400127D02*
X92782572Y-70339651D01*
X92782572Y-70339651D02*
X93024477Y-70339651D01*
X93024477Y-70339651D02*
X93145429Y-70400127D01*
X93145429Y-70400127D02*
X93205905Y-70460603D01*
X93205905Y-70460603D02*
X93266381Y-70581556D01*
X93266381Y-70581556D02*
X93266381Y-70944413D01*
X93266381Y-70944413D02*
X93205905Y-71065365D01*
X93205905Y-71065365D02*
X93145429Y-71125842D01*
X93145429Y-71125842D02*
X93024477Y-71186318D01*
X93024477Y-71186318D02*
X92782572Y-71186318D01*
X92782572Y-71186318D02*
X92661619Y-71125842D01*
X94354953Y-70339651D02*
X94354953Y-71186318D01*
X93810667Y-70339651D02*
X93810667Y-71004889D01*
X93810667Y-71004889D02*
X93871144Y-71125842D01*
X93871144Y-71125842D02*
X93992096Y-71186318D01*
X93992096Y-71186318D02*
X94173525Y-71186318D01*
X94173525Y-71186318D02*
X94294477Y-71125842D01*
X94294477Y-71125842D02*
X94354953Y-71065365D01*
X94778287Y-70339651D02*
X95262096Y-70339651D01*
X94959715Y-69916318D02*
X94959715Y-71004889D01*
X94959715Y-71004889D02*
X95020192Y-71125842D01*
X95020192Y-71125842D02*
X95141144Y-71186318D01*
X95141144Y-71186318D02*
X95262096Y-71186318D01*
X95685429Y-70702508D02*
X96653049Y-70702508D01*
X97257810Y-70339651D02*
X98225430Y-70702508D01*
X98225430Y-70702508D02*
X97257810Y-71065365D01*
X98648763Y-69916318D02*
X99374477Y-69916318D01*
X99011620Y-71186318D02*
X99011620Y-69916318D01*
X100342096Y-70339651D02*
X100342096Y-71186318D01*
X99797810Y-70339651D02*
X99797810Y-71004889D01*
X99797810Y-71004889D02*
X99858287Y-71125842D01*
X99858287Y-71125842D02*
X99979239Y-71186318D01*
X99979239Y-71186318D02*
X100160668Y-71186318D01*
X100160668Y-71186318D02*
X100281620Y-71125842D01*
X100281620Y-71125842D02*
X100342096Y-71065365D01*
X100946858Y-71186318D02*
X100946858Y-70339651D01*
X100946858Y-70581556D02*
X101007335Y-70460603D01*
X101007335Y-70460603D02*
X101067811Y-70400127D01*
X101067811Y-70400127D02*
X101188763Y-70339651D01*
X101188763Y-70339651D02*
X101309716Y-70339651D01*
X101733048Y-71186318D02*
X101733048Y-70339651D01*
X101733048Y-70581556D02*
X101793525Y-70460603D01*
X101793525Y-70460603D02*
X101854001Y-70400127D01*
X101854001Y-70400127D02*
X101974953Y-70339651D01*
X101974953Y-70339651D02*
X102095906Y-70339651D01*
X103003048Y-71125842D02*
X102882096Y-71186318D01*
X102882096Y-71186318D02*
X102640191Y-71186318D01*
X102640191Y-71186318D02*
X102519238Y-71125842D01*
X102519238Y-71125842D02*
X102458762Y-71004889D01*
X102458762Y-71004889D02*
X102458762Y-70521080D01*
X102458762Y-70521080D02*
X102519238Y-70400127D01*
X102519238Y-70400127D02*
X102640191Y-70339651D01*
X102640191Y-70339651D02*
X102882096Y-70339651D01*
X102882096Y-70339651D02*
X103003048Y-70400127D01*
X103003048Y-70400127D02*
X103063524Y-70521080D01*
X103063524Y-70521080D02*
X103063524Y-70642032D01*
X103063524Y-70642032D02*
X102458762Y-70762984D01*
X103426381Y-70339651D02*
X103910190Y-70339651D01*
X103607809Y-69916318D02*
X103607809Y-71004889D01*
X103607809Y-71004889D02*
X103668286Y-71125842D01*
X103668286Y-71125842D02*
X103789238Y-71186318D01*
X103789238Y-71186318D02*
X103910190Y-71186318D01*
X104998762Y-71186318D02*
X104273047Y-71186318D01*
X104635904Y-71186318D02*
X104635904Y-69916318D01*
X104635904Y-69916318D02*
X104514952Y-70097746D01*
X104514952Y-70097746D02*
X104394000Y-70218699D01*
X104394000Y-70218699D02*
X104273047Y-70279175D01*
D10*
X61488094Y-75067866D02*
X62249999Y-75067866D01*
X61869046Y-75448819D02*
X61869046Y-74686914D01*
X62678570Y-74544057D02*
X62726189Y-74496438D01*
X62726189Y-74496438D02*
X62821427Y-74448819D01*
X62821427Y-74448819D02*
X63059522Y-74448819D01*
X63059522Y-74448819D02*
X63154760Y-74496438D01*
X63154760Y-74496438D02*
X63202379Y-74544057D01*
X63202379Y-74544057D02*
X63249998Y-74639295D01*
X63249998Y-74639295D02*
X63249998Y-74734533D01*
X63249998Y-74734533D02*
X63202379Y-74877390D01*
X63202379Y-74877390D02*
X62630951Y-75448819D01*
X62630951Y-75448819D02*
X63249998Y-75448819D01*
X64107141Y-74782152D02*
X64107141Y-75448819D01*
X63869046Y-74401200D02*
X63630951Y-75115485D01*
X63630951Y-75115485D02*
X64249998Y-75115485D01*
X64488094Y-74448819D02*
X64821427Y-75448819D01*
X64821427Y-75448819D02*
X65154760Y-74448819D01*
X65249999Y-75544057D02*
X66011903Y-75544057D01*
X66154761Y-74448819D02*
X66392856Y-75448819D01*
X66392856Y-75448819D02*
X66583332Y-74734533D01*
X66583332Y-74734533D02*
X66773808Y-75448819D01*
X66773808Y-75448819D02*
X67011904Y-74448819D01*
X67821427Y-75448819D02*
X67821427Y-74925009D01*
X67821427Y-74925009D02*
X67773808Y-74829771D01*
X67773808Y-74829771D02*
X67678570Y-74782152D01*
X67678570Y-74782152D02*
X67488094Y-74782152D01*
X67488094Y-74782152D02*
X67392856Y-74829771D01*
X67821427Y-75401200D02*
X67726189Y-75448819D01*
X67726189Y-75448819D02*
X67488094Y-75448819D01*
X67488094Y-75448819D02*
X67392856Y-75401200D01*
X67392856Y-75401200D02*
X67345237Y-75305961D01*
X67345237Y-75305961D02*
X67345237Y-75210723D01*
X67345237Y-75210723D02*
X67392856Y-75115485D01*
X67392856Y-75115485D02*
X67488094Y-75067866D01*
X67488094Y-75067866D02*
X67726189Y-75067866D01*
X67726189Y-75067866D02*
X67821427Y-75020247D01*
X68154761Y-74782152D02*
X68535713Y-74782152D01*
X68297618Y-74448819D02*
X68297618Y-75305961D01*
X68297618Y-75305961D02*
X68345237Y-75401200D01*
X68345237Y-75401200D02*
X68440475Y-75448819D01*
X68440475Y-75448819D02*
X68535713Y-75448819D01*
X69249999Y-75401200D02*
X69154761Y-75448819D01*
X69154761Y-75448819D02*
X68964285Y-75448819D01*
X68964285Y-75448819D02*
X68869047Y-75401200D01*
X68869047Y-75401200D02*
X68821428Y-75305961D01*
X68821428Y-75305961D02*
X68821428Y-74925009D01*
X68821428Y-74925009D02*
X68869047Y-74829771D01*
X68869047Y-74829771D02*
X68964285Y-74782152D01*
X68964285Y-74782152D02*
X69154761Y-74782152D01*
X69154761Y-74782152D02*
X69249999Y-74829771D01*
X69249999Y-74829771D02*
X69297618Y-74925009D01*
X69297618Y-74925009D02*
X69297618Y-75020247D01*
X69297618Y-75020247D02*
X68821428Y-75115485D01*
X69726190Y-75448819D02*
X69726190Y-74782152D01*
X69726190Y-74972628D02*
X69773809Y-74877390D01*
X69773809Y-74877390D02*
X69821428Y-74829771D01*
X69821428Y-74829771D02*
X69916666Y-74782152D01*
X69916666Y-74782152D02*
X70011904Y-74782152D01*
X70250000Y-74782152D02*
X70440476Y-75448819D01*
X70440476Y-75448819D02*
X70630952Y-74972628D01*
X70630952Y-74972628D02*
X70821428Y-75448819D01*
X70821428Y-75448819D02*
X71011904Y-74782152D01*
X71392857Y-75448819D02*
X71392857Y-74448819D01*
X71821428Y-75448819D02*
X71821428Y-74925009D01*
X71821428Y-74925009D02*
X71773809Y-74829771D01*
X71773809Y-74829771D02*
X71678571Y-74782152D01*
X71678571Y-74782152D02*
X71535714Y-74782152D01*
X71535714Y-74782152D02*
X71440476Y-74829771D01*
X71440476Y-74829771D02*
X71392857Y-74877390D01*
X72678571Y-75401200D02*
X72583333Y-75448819D01*
X72583333Y-75448819D02*
X72392857Y-75448819D01*
X72392857Y-75448819D02*
X72297619Y-75401200D01*
X72297619Y-75401200D02*
X72250000Y-75305961D01*
X72250000Y-75305961D02*
X72250000Y-74925009D01*
X72250000Y-74925009D02*
X72297619Y-74829771D01*
X72297619Y-74829771D02*
X72392857Y-74782152D01*
X72392857Y-74782152D02*
X72583333Y-74782152D01*
X72583333Y-74782152D02*
X72678571Y-74829771D01*
X72678571Y-74829771D02*
X72726190Y-74925009D01*
X72726190Y-74925009D02*
X72726190Y-75020247D01*
X72726190Y-75020247D02*
X72250000Y-75115485D01*
X73535714Y-75401200D02*
X73440476Y-75448819D01*
X73440476Y-75448819D02*
X73250000Y-75448819D01*
X73250000Y-75448819D02*
X73154762Y-75401200D01*
X73154762Y-75401200D02*
X73107143Y-75305961D01*
X73107143Y-75305961D02*
X73107143Y-74925009D01*
X73107143Y-74925009D02*
X73154762Y-74829771D01*
X73154762Y-74829771D02*
X73250000Y-74782152D01*
X73250000Y-74782152D02*
X73440476Y-74782152D01*
X73440476Y-74782152D02*
X73535714Y-74829771D01*
X73535714Y-74829771D02*
X73583333Y-74925009D01*
X73583333Y-74925009D02*
X73583333Y-75020247D01*
X73583333Y-75020247D02*
X73107143Y-75115485D01*
X74154762Y-75448819D02*
X74059524Y-75401200D01*
X74059524Y-75401200D02*
X74011905Y-75305961D01*
X74011905Y-75305961D02*
X74011905Y-74448819D01*
X75059524Y-75448819D02*
X74488096Y-75448819D01*
X74773810Y-75448819D02*
X74773810Y-74448819D01*
X74773810Y-74448819D02*
X74678572Y-74591676D01*
X74678572Y-74591676D02*
X74583334Y-74686914D01*
X74583334Y-74686914D02*
X74488096Y-74734533D01*
X74178571Y-79108700D02*
X75321429Y-79108700D01*
X74750000Y-79680128D02*
X74750000Y-78537271D01*
X61178571Y-79108700D02*
X62321429Y-79108700D01*
X91904761Y-75067866D02*
X92666666Y-75067866D01*
X92285713Y-75448819D02*
X92285713Y-74686914D01*
X93095237Y-74544057D02*
X93142856Y-74496438D01*
X93142856Y-74496438D02*
X93238094Y-74448819D01*
X93238094Y-74448819D02*
X93476189Y-74448819D01*
X93476189Y-74448819D02*
X93571427Y-74496438D01*
X93571427Y-74496438D02*
X93619046Y-74544057D01*
X93619046Y-74544057D02*
X93666665Y-74639295D01*
X93666665Y-74639295D02*
X93666665Y-74734533D01*
X93666665Y-74734533D02*
X93619046Y-74877390D01*
X93619046Y-74877390D02*
X93047618Y-75448819D01*
X93047618Y-75448819D02*
X93666665Y-75448819D01*
X94523808Y-74782152D02*
X94523808Y-75448819D01*
X94285713Y-74401200D02*
X94047618Y-75115485D01*
X94047618Y-75115485D02*
X94666665Y-75115485D01*
X94904761Y-74448819D02*
X95238094Y-75448819D01*
X95238094Y-75448819D02*
X95571427Y-74448819D01*
X95666666Y-75544057D02*
X96428570Y-75544057D01*
X96999999Y-74925009D02*
X96666666Y-74925009D01*
X96666666Y-75448819D02*
X96666666Y-74448819D01*
X96666666Y-74448819D02*
X97142856Y-74448819D01*
X97904761Y-75401200D02*
X97809523Y-75448819D01*
X97809523Y-75448819D02*
X97619047Y-75448819D01*
X97619047Y-75448819D02*
X97523809Y-75401200D01*
X97523809Y-75401200D02*
X97476190Y-75305961D01*
X97476190Y-75305961D02*
X97476190Y-74925009D01*
X97476190Y-74925009D02*
X97523809Y-74829771D01*
X97523809Y-74829771D02*
X97619047Y-74782152D01*
X97619047Y-74782152D02*
X97809523Y-74782152D01*
X97809523Y-74782152D02*
X97904761Y-74829771D01*
X97904761Y-74829771D02*
X97952380Y-74925009D01*
X97952380Y-74925009D02*
X97952380Y-75020247D01*
X97952380Y-75020247D02*
X97476190Y-75115485D01*
X98761904Y-75401200D02*
X98666666Y-75448819D01*
X98666666Y-75448819D02*
X98476190Y-75448819D01*
X98476190Y-75448819D02*
X98380952Y-75401200D01*
X98380952Y-75401200D02*
X98333333Y-75305961D01*
X98333333Y-75305961D02*
X98333333Y-74925009D01*
X98333333Y-74925009D02*
X98380952Y-74829771D01*
X98380952Y-74829771D02*
X98476190Y-74782152D01*
X98476190Y-74782152D02*
X98666666Y-74782152D01*
X98666666Y-74782152D02*
X98761904Y-74829771D01*
X98761904Y-74829771D02*
X98809523Y-74925009D01*
X98809523Y-74925009D02*
X98809523Y-75020247D01*
X98809523Y-75020247D02*
X98333333Y-75115485D01*
X99666666Y-75448819D02*
X99666666Y-74448819D01*
X99666666Y-75401200D02*
X99571428Y-75448819D01*
X99571428Y-75448819D02*
X99380952Y-75448819D01*
X99380952Y-75448819D02*
X99285714Y-75401200D01*
X99285714Y-75401200D02*
X99238095Y-75353580D01*
X99238095Y-75353580D02*
X99190476Y-75258342D01*
X99190476Y-75258342D02*
X99190476Y-74972628D01*
X99190476Y-74972628D02*
X99238095Y-74877390D01*
X99238095Y-74877390D02*
X99285714Y-74829771D01*
X99285714Y-74829771D02*
X99380952Y-74782152D01*
X99380952Y-74782152D02*
X99571428Y-74782152D01*
X99571428Y-74782152D02*
X99666666Y-74829771D01*
X100523809Y-75401200D02*
X100428571Y-75448819D01*
X100428571Y-75448819D02*
X100238095Y-75448819D01*
X100238095Y-75448819D02*
X100142857Y-75401200D01*
X100142857Y-75401200D02*
X100095238Y-75305961D01*
X100095238Y-75305961D02*
X100095238Y-74925009D01*
X100095238Y-74925009D02*
X100142857Y-74829771D01*
X100142857Y-74829771D02*
X100238095Y-74782152D01*
X100238095Y-74782152D02*
X100428571Y-74782152D01*
X100428571Y-74782152D02*
X100523809Y-74829771D01*
X100523809Y-74829771D02*
X100571428Y-74925009D01*
X100571428Y-74925009D02*
X100571428Y-75020247D01*
X100571428Y-75020247D02*
X100095238Y-75115485D01*
X101000000Y-75448819D02*
X101000000Y-74782152D01*
X101000000Y-74972628D02*
X101047619Y-74877390D01*
X101047619Y-74877390D02*
X101095238Y-74829771D01*
X101095238Y-74829771D02*
X101190476Y-74782152D01*
X101190476Y-74782152D02*
X101285714Y-74782152D01*
X102142857Y-75448819D02*
X101571429Y-75448819D01*
X101857143Y-75448819D02*
X101857143Y-74448819D01*
X101857143Y-74448819D02*
X101761905Y-74591676D01*
X101761905Y-74591676D02*
X101666667Y-74686914D01*
X101666667Y-74686914D02*
X101571429Y-74734533D01*
X89928571Y-79108700D02*
X91071429Y-79108700D01*
X102928571Y-79108700D02*
X104071429Y-79108700D01*
X103500000Y-79680128D02*
X103500000Y-78537271D01*
X115920833Y-73964819D02*
X115587500Y-73488628D01*
X115349405Y-73964819D02*
X115349405Y-72964819D01*
X115349405Y-72964819D02*
X115730357Y-72964819D01*
X115730357Y-72964819D02*
X115825595Y-73012438D01*
X115825595Y-73012438D02*
X115873214Y-73060057D01*
X115873214Y-73060057D02*
X115920833Y-73155295D01*
X115920833Y-73155295D02*
X115920833Y-73298152D01*
X115920833Y-73298152D02*
X115873214Y-73393390D01*
X115873214Y-73393390D02*
X115825595Y-73441009D01*
X115825595Y-73441009D02*
X115730357Y-73488628D01*
X115730357Y-73488628D02*
X115349405Y-73488628D01*
X116301786Y-73060057D02*
X116349405Y-73012438D01*
X116349405Y-73012438D02*
X116444643Y-72964819D01*
X116444643Y-72964819D02*
X116682738Y-72964819D01*
X116682738Y-72964819D02*
X116777976Y-73012438D01*
X116777976Y-73012438D02*
X116825595Y-73060057D01*
X116825595Y-73060057D02*
X116873214Y-73155295D01*
X116873214Y-73155295D02*
X116873214Y-73250533D01*
X116873214Y-73250533D02*
X116825595Y-73393390D01*
X116825595Y-73393390D02*
X116254167Y-73964819D01*
X116254167Y-73964819D02*
X116873214Y-73964819D01*
X77361617Y-38986580D02*
X77313998Y-39034200D01*
X77313998Y-39034200D02*
X77171141Y-39081819D01*
X77171141Y-39081819D02*
X77075903Y-39081819D01*
X77075903Y-39081819D02*
X76933046Y-39034200D01*
X76933046Y-39034200D02*
X76837808Y-38938961D01*
X76837808Y-38938961D02*
X76790189Y-38843723D01*
X76790189Y-38843723D02*
X76742570Y-38653247D01*
X76742570Y-38653247D02*
X76742570Y-38510390D01*
X76742570Y-38510390D02*
X76790189Y-38319914D01*
X76790189Y-38319914D02*
X76837808Y-38224676D01*
X76837808Y-38224676D02*
X76933046Y-38129438D01*
X76933046Y-38129438D02*
X77075903Y-38081819D01*
X77075903Y-38081819D02*
X77171141Y-38081819D01*
X77171141Y-38081819D02*
X77313998Y-38129438D01*
X77313998Y-38129438D02*
X77361617Y-38177057D01*
X77742570Y-38796104D02*
X78218760Y-38796104D01*
X77647332Y-39081819D02*
X77980665Y-38081819D01*
X77980665Y-38081819D02*
X78313998Y-39081819D01*
X78647332Y-39081819D02*
X78647332Y-38081819D01*
X78647332Y-38081819D02*
X79218760Y-39081819D01*
X79218760Y-39081819D02*
X79218760Y-38081819D01*
X79456856Y-39177057D02*
X80218760Y-39177057D01*
X80933046Y-39081819D02*
X80456856Y-39081819D01*
X80456856Y-39081819D02*
X80456856Y-38081819D01*
X81028285Y-39177057D02*
X81790189Y-39177057D01*
X82361618Y-38558009D02*
X82028285Y-38558009D01*
X82028285Y-39081819D02*
X82028285Y-38081819D01*
X82028285Y-38081819D02*
X82504475Y-38081819D01*
X83028285Y-39081819D02*
X82933047Y-39034200D01*
X82933047Y-39034200D02*
X82885428Y-38938961D01*
X82885428Y-38938961D02*
X82885428Y-38081819D01*
X83314000Y-38415152D02*
X83552095Y-39081819D01*
X83790190Y-38415152D02*
X83552095Y-39081819D01*
X83552095Y-39081819D02*
X83456857Y-39319914D01*
X83456857Y-39319914D02*
X83409238Y-39367533D01*
X83409238Y-39367533D02*
X83314000Y-39415152D01*
X84075905Y-38415152D02*
X84266381Y-39081819D01*
X84266381Y-39081819D02*
X84456857Y-38605628D01*
X84456857Y-38605628D02*
X84647333Y-39081819D01*
X84647333Y-39081819D02*
X84837809Y-38415152D01*
X85218762Y-39081819D02*
X85218762Y-38081819D01*
X85647333Y-39081819D02*
X85647333Y-38558009D01*
X85647333Y-38558009D02*
X85599714Y-38462771D01*
X85599714Y-38462771D02*
X85504476Y-38415152D01*
X85504476Y-38415152D02*
X85361619Y-38415152D01*
X85361619Y-38415152D02*
X85266381Y-38462771D01*
X85266381Y-38462771D02*
X85218762Y-38510390D01*
X86504476Y-39034200D02*
X86409238Y-39081819D01*
X86409238Y-39081819D02*
X86218762Y-39081819D01*
X86218762Y-39081819D02*
X86123524Y-39034200D01*
X86123524Y-39034200D02*
X86075905Y-38938961D01*
X86075905Y-38938961D02*
X86075905Y-38558009D01*
X86075905Y-38558009D02*
X86123524Y-38462771D01*
X86123524Y-38462771D02*
X86218762Y-38415152D01*
X86218762Y-38415152D02*
X86409238Y-38415152D01*
X86409238Y-38415152D02*
X86504476Y-38462771D01*
X86504476Y-38462771D02*
X86552095Y-38558009D01*
X86552095Y-38558009D02*
X86552095Y-38653247D01*
X86552095Y-38653247D02*
X86075905Y-38748485D01*
X87361619Y-39034200D02*
X87266381Y-39081819D01*
X87266381Y-39081819D02*
X87075905Y-39081819D01*
X87075905Y-39081819D02*
X86980667Y-39034200D01*
X86980667Y-39034200D02*
X86933048Y-38938961D01*
X86933048Y-38938961D02*
X86933048Y-38558009D01*
X86933048Y-38558009D02*
X86980667Y-38462771D01*
X86980667Y-38462771D02*
X87075905Y-38415152D01*
X87075905Y-38415152D02*
X87266381Y-38415152D01*
X87266381Y-38415152D02*
X87361619Y-38462771D01*
X87361619Y-38462771D02*
X87409238Y-38558009D01*
X87409238Y-38558009D02*
X87409238Y-38653247D01*
X87409238Y-38653247D02*
X86933048Y-38748485D01*
X87980667Y-39081819D02*
X87885429Y-39034200D01*
X87885429Y-39034200D02*
X87837810Y-38938961D01*
X87837810Y-38938961D02*
X87837810Y-38081819D01*
X88885429Y-39081819D02*
X88314001Y-39081819D01*
X88599715Y-39081819D02*
X88599715Y-38081819D01*
X88599715Y-38081819D02*
X88504477Y-38224676D01*
X88504477Y-38224676D02*
X88409239Y-38319914D01*
X88409239Y-38319914D02*
X88314001Y-38367533D01*
X44222819Y-69102952D02*
X45032342Y-69102952D01*
X45032342Y-69102952D02*
X45127580Y-69055333D01*
X45127580Y-69055333D02*
X45175200Y-69007714D01*
X45175200Y-69007714D02*
X45222819Y-68912476D01*
X45222819Y-68912476D02*
X45222819Y-68722000D01*
X45222819Y-68722000D02*
X45175200Y-68626762D01*
X45175200Y-68626762D02*
X45127580Y-68579143D01*
X45127580Y-68579143D02*
X45032342Y-68531524D01*
X45032342Y-68531524D02*
X44222819Y-68531524D01*
X44937104Y-68102952D02*
X44937104Y-67626762D01*
X45222819Y-68198190D02*
X44222819Y-67864857D01*
X44222819Y-67864857D02*
X45222819Y-67531524D01*
X45222819Y-66626762D02*
X44746628Y-66960095D01*
X45222819Y-67198190D02*
X44222819Y-67198190D01*
X44222819Y-67198190D02*
X44222819Y-66817238D01*
X44222819Y-66817238D02*
X44270438Y-66722000D01*
X44270438Y-66722000D02*
X44318057Y-66674381D01*
X44318057Y-66674381D02*
X44413295Y-66626762D01*
X44413295Y-66626762D02*
X44556152Y-66626762D01*
X44556152Y-66626762D02*
X44651390Y-66674381D01*
X44651390Y-66674381D02*
X44699009Y-66722000D01*
X44699009Y-66722000D02*
X44746628Y-66817238D01*
X44746628Y-66817238D02*
X44746628Y-67198190D01*
X44222819Y-66341047D02*
X44222819Y-65769619D01*
X45222819Y-66055333D02*
X44222819Y-66055333D01*
X45318057Y-65674381D02*
X45318057Y-64912476D01*
X44222819Y-64817237D02*
X44222819Y-64245809D01*
X45222819Y-64531523D02*
X44222819Y-64531523D01*
X44556152Y-63483904D02*
X45222819Y-63483904D01*
X44556152Y-63912475D02*
X45079961Y-63912475D01*
X45079961Y-63912475D02*
X45175200Y-63864856D01*
X45175200Y-63864856D02*
X45222819Y-63769618D01*
X45222819Y-63769618D02*
X45222819Y-63626761D01*
X45222819Y-63626761D02*
X45175200Y-63531523D01*
X45175200Y-63531523D02*
X45127580Y-63483904D01*
X45222819Y-63007713D02*
X44556152Y-63007713D01*
X44746628Y-63007713D02*
X44651390Y-62960094D01*
X44651390Y-62960094D02*
X44603771Y-62912475D01*
X44603771Y-62912475D02*
X44556152Y-62817237D01*
X44556152Y-62817237D02*
X44556152Y-62721999D01*
X45222819Y-62388665D02*
X44556152Y-62388665D01*
X44746628Y-62388665D02*
X44651390Y-62341046D01*
X44651390Y-62341046D02*
X44603771Y-62293427D01*
X44603771Y-62293427D02*
X44556152Y-62198189D01*
X44556152Y-62198189D02*
X44556152Y-62102951D01*
X45175200Y-61388665D02*
X45222819Y-61483903D01*
X45222819Y-61483903D02*
X45222819Y-61674379D01*
X45222819Y-61674379D02*
X45175200Y-61769617D01*
X45175200Y-61769617D02*
X45079961Y-61817236D01*
X45079961Y-61817236D02*
X44699009Y-61817236D01*
X44699009Y-61817236D02*
X44603771Y-61769617D01*
X44603771Y-61769617D02*
X44556152Y-61674379D01*
X44556152Y-61674379D02*
X44556152Y-61483903D01*
X44556152Y-61483903D02*
X44603771Y-61388665D01*
X44603771Y-61388665D02*
X44699009Y-61341046D01*
X44699009Y-61341046D02*
X44794247Y-61341046D01*
X44794247Y-61341046D02*
X44889485Y-61817236D01*
X44556152Y-61055331D02*
X44556152Y-60674379D01*
X44222819Y-60912474D02*
X45079961Y-60912474D01*
X45079961Y-60912474D02*
X45175200Y-60864855D01*
X45175200Y-60864855D02*
X45222819Y-60769617D01*
X45222819Y-60769617D02*
X45222819Y-60674379D01*
X44841866Y-60341045D02*
X44841866Y-59579141D01*
X44556152Y-59102950D02*
X44841866Y-58341046D01*
X44841866Y-58341046D02*
X45127580Y-59102950D01*
X44222819Y-57674379D02*
X44222819Y-57483903D01*
X44222819Y-57483903D02*
X44270438Y-57388665D01*
X44270438Y-57388665D02*
X44365676Y-57293427D01*
X44365676Y-57293427D02*
X44556152Y-57245808D01*
X44556152Y-57245808D02*
X44889485Y-57245808D01*
X44889485Y-57245808D02*
X45079961Y-57293427D01*
X45079961Y-57293427D02*
X45175200Y-57388665D01*
X45175200Y-57388665D02*
X45222819Y-57483903D01*
X45222819Y-57483903D02*
X45222819Y-57674379D01*
X45222819Y-57674379D02*
X45175200Y-57769617D01*
X45175200Y-57769617D02*
X45079961Y-57864855D01*
X45079961Y-57864855D02*
X44889485Y-57912474D01*
X44889485Y-57912474D02*
X44556152Y-57912474D01*
X44556152Y-57912474D02*
X44365676Y-57864855D01*
X44365676Y-57864855D02*
X44270438Y-57769617D01*
X44270438Y-57769617D02*
X44222819Y-57674379D01*
X45222819Y-56817236D02*
X44556152Y-56817236D01*
X44746628Y-56817236D02*
X44651390Y-56769617D01*
X44651390Y-56769617D02*
X44603771Y-56721998D01*
X44603771Y-56721998D02*
X44556152Y-56626760D01*
X44556152Y-56626760D02*
X44556152Y-56531522D01*
X45222819Y-56198188D02*
X44556152Y-56198188D01*
X44222819Y-56198188D02*
X44270438Y-56245807D01*
X44270438Y-56245807D02*
X44318057Y-56198188D01*
X44318057Y-56198188D02*
X44270438Y-56150569D01*
X44270438Y-56150569D02*
X44222819Y-56198188D01*
X44222819Y-56198188D02*
X44318057Y-56198188D01*
X44556152Y-55721998D02*
X45222819Y-55721998D01*
X44651390Y-55721998D02*
X44603771Y-55674379D01*
X44603771Y-55674379D02*
X44556152Y-55579141D01*
X44556152Y-55579141D02*
X44556152Y-55436284D01*
X44556152Y-55436284D02*
X44603771Y-55341046D01*
X44603771Y-55341046D02*
X44699009Y-55293427D01*
X44699009Y-55293427D02*
X45222819Y-55293427D01*
X45222819Y-54293427D02*
X45222819Y-54864855D01*
X45222819Y-54579141D02*
X44222819Y-54579141D01*
X44222819Y-54579141D02*
X44365676Y-54674379D01*
X44365676Y-54674379D02*
X44460914Y-54769617D01*
X44460914Y-54769617D02*
X44508533Y-54864855D01*
D12*
X79829000Y-79638000D02*
X79829000Y-81238000D01*
X79829000Y-81238000D02*
X81629000Y-81238000D01*
X81099000Y-76768000D02*
X84529000Y-76768000D01*
X81629000Y-81238000D02*
X81629000Y-82178000D01*
X85799000Y-79638000D02*
X85799000Y-81238000D01*
X85799000Y-81238000D02*
X83999000Y-81238000D01*
D13*
X123645000Y-53950001D02*
X136955000Y-53950001D01*
X130700000Y-52200000D02*
X131700000Y-52200000D01*
X131200000Y-53200001D02*
X130700000Y-52200000D01*
X131700000Y-52200000D02*
X131200000Y-53200001D01*
X136955000Y-53950001D02*
X136955000Y-68950001D01*
X136955000Y-68950001D02*
X123645000Y-68950001D01*
D12*
X108340000Y-79365000D02*
X108340000Y-80835000D01*
X108340000Y-80835000D02*
X110800000Y-80835000D01*
X110800000Y-79365000D02*
X108340000Y-79365000D01*
X108713000Y-43062000D02*
X108713000Y-44662000D01*
X108713000Y-44662000D02*
X110513000Y-44662000D01*
X109983000Y-40192000D02*
X113413000Y-40192000D01*
X110513000Y-44662000D02*
X110513000Y-45602000D01*
X114683000Y-43062000D02*
X114683000Y-44662000D01*
X114683000Y-44662000D02*
X112883000Y-44662000D01*
X108340000Y-71365000D02*
X108340000Y-72835000D01*
X108340000Y-72835000D02*
X110800000Y-72835000D01*
X110800000Y-71365000D02*
X108340000Y-71365000D01*
X63457000Y-45636000D02*
X63457000Y-40216000D01*
X72177000Y-40216000D02*
X63457000Y-40216000D01*
X72177000Y-45636000D02*
X63457000Y-45636000D01*
X73877000Y-41516000D02*
X72177000Y-40216000D01*
X73877000Y-44336000D02*
X72177000Y-45636000D01*
X73877000Y-44336000D02*
X73877000Y-41516000D01*
X111723000Y-55201000D02*
X111723000Y-57001000D01*
X111723000Y-57001000D02*
X110783000Y-57001000D01*
X111723000Y-63671000D02*
X111723000Y-61871000D01*
X113323000Y-55201000D02*
X111723000Y-55201000D01*
X113323000Y-63671000D02*
X111723000Y-63671000D01*
X116193000Y-56471000D02*
X116193000Y-62401000D01*
X51127000Y-42887000D02*
X51127000Y-44487000D01*
X51127000Y-44487000D02*
X52927000Y-44487000D01*
X52397000Y-40017000D02*
X55827000Y-40017000D01*
X52927000Y-44487000D02*
X52927000Y-45427000D01*
X57097000Y-42887000D02*
X57097000Y-44487000D01*
X57097000Y-44487000D02*
X55297000Y-44487000D01*
X108340000Y-75365000D02*
X108340000Y-76835000D01*
X108340000Y-76835000D02*
X110800000Y-76835000D01*
X110800000Y-75365000D02*
X108340000Y-75365000D01*
X51000000Y-79844000D02*
X51000000Y-81444000D01*
X51000000Y-81444000D02*
X52800000Y-81444000D01*
X52270000Y-76974000D02*
X55700000Y-76974000D01*
X52800000Y-81444000D02*
X52800000Y-82384000D01*
X56970000Y-79844000D02*
X56970000Y-81444000D01*
X56970000Y-81444000D02*
X55170000Y-81444000D01*
X120790000Y-45210000D02*
X120790000Y-39790000D01*
X129510000Y-39790000D02*
X120790000Y-39790000D01*
X129510000Y-45210000D02*
X120790000Y-45210000D01*
X131210000Y-41090000D02*
X129510000Y-39790000D01*
X131210000Y-43910000D02*
X129510000Y-45210000D01*
X131210000Y-43910000D02*
X131210000Y-41090000D01*
X59747000Y-64642000D02*
X59747000Y-58712000D01*
X62617000Y-57442000D02*
X64217000Y-57442000D01*
X62617000Y-65912000D02*
X64217000Y-65912000D01*
X64217000Y-57442000D02*
X64217000Y-59242000D01*
X64217000Y-64112000D02*
X65157000Y-64112000D01*
X64217000Y-65912000D02*
X64217000Y-64112000D01*
X116254724Y-75577500D02*
X115745276Y-75577500D01*
X116254724Y-76622500D02*
X115745276Y-76622500D01*
X91731000Y-45636000D02*
X91731000Y-40216000D01*
X100451000Y-40216000D02*
X91731000Y-40216000D01*
X100451000Y-45636000D02*
X91731000Y-45636000D01*
X102151000Y-41516000D02*
X100451000Y-40216000D01*
X102151000Y-44336000D02*
X100451000Y-45636000D01*
X102151000Y-44336000D02*
X102151000Y-41516000D01*
X109745276Y-82577500D02*
X110254724Y-82577500D01*
X109745276Y-83622500D02*
X110254724Y-83622500D01*
X120790000Y-81710000D02*
X120790000Y-76290000D01*
X129510000Y-76290000D02*
X120790000Y-76290000D01*
X129510000Y-81710000D02*
X120790000Y-81710000D01*
X131210000Y-77590000D02*
X129510000Y-76290000D01*
X131210000Y-80410000D02*
X129510000Y-81710000D01*
X131210000Y-80410000D02*
X131210000Y-77590000D01*
D13*
X75995000Y-60079000D02*
X76995000Y-60579000D01*
X75995000Y-61079000D02*
X75995000Y-60079000D01*
X76995000Y-60579000D02*
X75995000Y-61079000D01*
X77745000Y-54824000D02*
X106745000Y-54824000D01*
X77745000Y-68134000D02*
X77745000Y-54824000D01*
X106745000Y-54824000D02*
X106745000Y-68134000D01*
D12*
X63040000Y-77584000D02*
X63040000Y-80404000D01*
X63040000Y-77584000D02*
X64740000Y-76284000D01*
X63040000Y-80404000D02*
X64740000Y-81704000D01*
X64740000Y-76284000D02*
X73460000Y-76284000D01*
X64740000Y-81704000D02*
X73460000Y-81704000D01*
X73460000Y-76284000D02*
X73460000Y-81704000D01*
X91790000Y-77584000D02*
X91790000Y-80404000D01*
X91790000Y-77584000D02*
X93490000Y-76284000D01*
X91790000Y-80404000D02*
X93490000Y-81704000D01*
X93490000Y-76284000D02*
X102210000Y-76284000D01*
X93490000Y-81704000D02*
X102210000Y-81704000D01*
X102210000Y-76284000D02*
X102210000Y-81704000D01*
X116342224Y-71557500D02*
X115832776Y-71557500D01*
X116342224Y-72602500D02*
X115832776Y-72602500D01*
X79829000Y-42887000D02*
X79829000Y-44487000D01*
X79829000Y-44487000D02*
X81629000Y-44487000D01*
X81099000Y-40017000D02*
X84529000Y-40017000D01*
X81629000Y-44487000D02*
X81629000Y-45427000D01*
X85799000Y-42887000D02*
X85799000Y-44487000D01*
X85799000Y-44487000D02*
X83999000Y-44487000D01*
X46158000Y-64687000D02*
X46158000Y-58757000D01*
X49028000Y-57487000D02*
X50628000Y-57487000D01*
X49028000Y-65957000D02*
X50628000Y-65957000D01*
X50628000Y-57487000D02*
X50628000Y-59287000D01*
X50628000Y-64157000D02*
X51568000Y-64157000D01*
X50628000Y-65957000D02*
X50628000Y-64157000D01*
%LPC*%
D14*
X82189000Y-81328000D03*
X83439000Y-81328000D03*
D15*
X80339000Y-77978000D03*
X85289000Y-77978000D03*
D16*
X124370000Y-57950001D03*
D17*
X131200000Y-56200001D03*
D18*
X131200000Y-59700001D03*
X131200000Y-63200000D03*
X131200000Y-66700001D03*
X126600000Y-56200001D03*
X126600000Y-59700001D03*
X126600000Y-63200001D03*
X126600000Y-66700001D03*
D19*
X109125001Y-80100000D03*
X110874999Y-80100000D03*
D14*
X111073000Y-44752000D03*
X112323000Y-44752000D03*
D15*
X109223000Y-41402000D03*
X114173000Y-41402000D03*
D19*
X109125001Y-72100000D03*
X110874999Y-72100000D03*
D20*
X71167000Y-42926000D03*
D21*
X66167000Y-42926000D03*
D22*
X111633000Y-57561000D03*
X111633000Y-58811000D03*
X111633000Y-60061000D03*
X111633000Y-61311000D03*
D23*
X114983000Y-55711000D03*
X114983000Y-63161000D03*
D14*
X53487000Y-44577000D03*
X54737000Y-44577000D03*
D15*
X51637000Y-41227000D03*
X56587000Y-41227000D03*
D19*
X109125001Y-76100000D03*
X110874999Y-76100000D03*
D24*
X44450000Y-38100000D03*
D14*
X53360000Y-81534000D03*
X54610000Y-81534000D03*
D15*
X51510000Y-78184000D03*
X56460000Y-78184000D03*
D20*
X128500000Y-42500000D03*
D21*
X123500000Y-42500000D03*
D25*
X64307000Y-63552000D03*
X64307000Y-62302000D03*
X64307000Y-61052000D03*
X64307000Y-59802000D03*
D26*
X60957000Y-65402000D03*
X60957000Y-57952000D03*
D27*
X116912500Y-76100000D03*
X115087500Y-76100000D03*
D20*
X99441000Y-42926000D03*
D21*
X94441000Y-42926000D03*
D24*
X140450000Y-38100000D03*
D28*
X109087500Y-83100000D03*
X110912500Y-83100000D03*
D24*
X140450000Y-84100000D03*
D20*
X128500000Y-79000000D03*
D21*
X123500000Y-79000000D03*
D16*
X81745000Y-67409000D03*
D17*
X79995000Y-60579000D03*
D18*
X83495000Y-60579000D03*
X86995000Y-60579000D03*
X90495000Y-60579000D03*
X93995000Y-60579000D03*
X97495000Y-60579000D03*
X100995000Y-60579000D03*
X104495000Y-60579000D03*
X79995000Y-65179000D03*
X83495000Y-65179000D03*
X86995000Y-65179000D03*
X90495000Y-65179000D03*
X93995000Y-65179000D03*
X97495000Y-65179000D03*
X100995000Y-65179000D03*
X104495000Y-65179000D03*
D20*
X65750000Y-78994000D03*
D21*
X70750000Y-78994000D03*
D20*
X94500000Y-78994000D03*
D21*
X99500000Y-78994000D03*
D27*
X117000000Y-72080000D03*
X115175000Y-72080000D03*
D14*
X82189000Y-44577000D03*
X83439000Y-44577000D03*
D15*
X80339000Y-41227000D03*
X85289000Y-41227000D03*
D25*
X50718000Y-63597000D03*
X50718000Y-62347000D03*
X50718000Y-61097000D03*
X50718000Y-59847000D03*
D26*
X47368000Y-65447000D03*
X47368000Y-57997000D03*
D24*
X44450000Y-84100000D03*
%LPD*%
M02*
