G04 #@! TF.GenerationSoftware,KiCad,Pcbnew,8.0.4*
G04 #@! TF.CreationDate,2025-02-21T00:52:45-06:00*
G04 #@! TF.ProjectId,Turret,54757272-6574-42e6-9b69-6361645f7063,rev?*
G04 #@! TF.SameCoordinates,Original*
G04 #@! TF.FileFunction,Copper,L1,Top*
G04 #@! TF.FilePolarity,Positive*
%FSLAX46Y46*%
G04 Gerber Fmt 4.6, Leading zero omitted, Abs format (unit mm)*
G04 Created by KiCad (PCBNEW 8.0.4) date 2025-02-21 00:52:45*
%MOMM*%
%LPD*%
G01*
G04 APERTURE LIST*
G04 Aperture macros list*
%AMRoundRect*
0 Rectangle with rounded corners*
0 $1 Rounding radius*
0 $2 $3 $4 $5 $6 $7 $8 $9 X,Y pos of 4 corners*
0 Add a 4 corners polygon primitive as box body*
4,1,4,$2,$3,$4,$5,$6,$7,$8,$9,$2,$3,0*
0 Add four circle primitives for the rounded corners*
1,1,$1+$1,$2,$3*
1,1,$1+$1,$4,$5*
1,1,$1+$1,$6,$7*
1,1,$1+$1,$8,$9*
0 Add four rect primitives between the rounded corners*
20,1,$1+$1,$2,$3,$4,$5,0*
20,1,$1+$1,$4,$5,$6,$7,0*
20,1,$1+$1,$6,$7,$8,$9,0*
20,1,$1+$1,$8,$9,$2,$3,0*%
G04 Aperture macros list end*
G04 #@! TA.AperFunction,SMDPad,CuDef*
%ADD10RoundRect,0.150000X-0.150000X-0.700000X0.150000X-0.700000X0.150000X0.700000X-0.150000X0.700000X0*%
G04 #@! TD*
G04 #@! TA.AperFunction,SMDPad,CuDef*
%ADD11RoundRect,0.250000X-0.250000X-1.150000X0.250000X-1.150000X0.250000X1.150000X-0.250000X1.150000X0*%
G04 #@! TD*
G04 #@! TA.AperFunction,ComponentPad*
%ADD12R,1.520000X1.520000*%
G04 #@! TD*
G04 #@! TA.AperFunction,ComponentPad*
%ADD13C,1.520000*%
G04 #@! TD*
G04 #@! TA.AperFunction,SMDPad,CuDef*
%ADD14RoundRect,0.237500X-0.287500X-0.237500X0.287500X-0.237500X0.287500X0.237500X-0.287500X0.237500X0*%
G04 #@! TD*
G04 #@! TA.AperFunction,ComponentPad*
%ADD15R,3.800000X3.800000*%
G04 #@! TD*
G04 #@! TA.AperFunction,ComponentPad*
%ADD16C,4.000000*%
G04 #@! TD*
G04 #@! TA.AperFunction,SMDPad,CuDef*
%ADD17RoundRect,0.150000X-0.700000X0.150000X-0.700000X-0.150000X0.700000X-0.150000X0.700000X0.150000X0*%
G04 #@! TD*
G04 #@! TA.AperFunction,SMDPad,CuDef*
%ADD18RoundRect,0.250000X-1.150000X0.250000X-1.150000X-0.250000X1.150000X-0.250000X1.150000X0.250000X0*%
G04 #@! TD*
G04 #@! TA.AperFunction,SMDPad,CuDef*
%ADD19RoundRect,0.150000X0.700000X-0.150000X0.700000X0.150000X-0.700000X0.150000X-0.700000X-0.150000X0*%
G04 #@! TD*
G04 #@! TA.AperFunction,SMDPad,CuDef*
%ADD20RoundRect,0.250000X1.150000X-0.250000X1.150000X0.250000X-1.150000X0.250000X-1.150000X-0.250000X0*%
G04 #@! TD*
G04 #@! TA.AperFunction,SMDPad,CuDef*
%ADD21RoundRect,0.237500X0.250000X0.237500X-0.250000X0.237500X-0.250000X-0.237500X0.250000X-0.237500X0*%
G04 #@! TD*
G04 #@! TA.AperFunction,SMDPad,CuDef*
%ADD22RoundRect,0.237500X-0.250000X-0.237500X0.250000X-0.237500X0.250000X0.237500X-0.250000X0.237500X0*%
G04 #@! TD*
G04 #@! TA.AperFunction,ViaPad*
%ADD23C,0.800000*%
G04 #@! TD*
G04 #@! TA.AperFunction,Conductor*
%ADD24C,0.250000*%
G04 #@! TD*
G04 #@! TA.AperFunction,Conductor*
%ADD25C,0.400000*%
G04 #@! TD*
G04 APERTURE END LIST*
D10*
X82189000Y-81328000D03*
X83439000Y-81328000D03*
D11*
X80339000Y-77978000D03*
X85289000Y-77978000D03*
D12*
X131200000Y-56200001D03*
D13*
X131200000Y-59700001D03*
X131200000Y-63200000D03*
X131200000Y-66700001D03*
X126600000Y-56200001D03*
X126600000Y-59700001D03*
X126600000Y-63200001D03*
X126600000Y-66700001D03*
D14*
X109125001Y-80100000D03*
X110874999Y-80100000D03*
D10*
X111073000Y-44752000D03*
X112323000Y-44752000D03*
D11*
X109223000Y-41402000D03*
X114173000Y-41402000D03*
D14*
X109125001Y-72100000D03*
X110874999Y-72100000D03*
D15*
X71167000Y-42926000D03*
D16*
X66167000Y-42926000D03*
D17*
X111633000Y-57561000D03*
X111633000Y-58811000D03*
X111633000Y-60061000D03*
X111633000Y-61311000D03*
D18*
X114983000Y-55711000D03*
X114983000Y-63161000D03*
D10*
X53487000Y-44577000D03*
X54737000Y-44577000D03*
D11*
X51637000Y-41227000D03*
X56587000Y-41227000D03*
D14*
X109125001Y-76100000D03*
X110874999Y-76100000D03*
D10*
X53360000Y-81534000D03*
X54610000Y-81534000D03*
D11*
X51510000Y-78184000D03*
X56460000Y-78184000D03*
D15*
X128500000Y-42500000D03*
D16*
X123500000Y-42500000D03*
D19*
X64307000Y-63552000D03*
X64307000Y-62302000D03*
X64307000Y-61052000D03*
X64307000Y-59802000D03*
D20*
X60957000Y-65402000D03*
X60957000Y-57952000D03*
D21*
X116912500Y-76100000D03*
X115087500Y-76100000D03*
D15*
X99441000Y-42926000D03*
D16*
X94441000Y-42926000D03*
D22*
X109087500Y-83100000D03*
X110912500Y-83100000D03*
D15*
X128500000Y-79000000D03*
D16*
X123500000Y-79000000D03*
D12*
X79995000Y-60579000D03*
D13*
X83495000Y-60579000D03*
X86995000Y-60579000D03*
X90495000Y-60579000D03*
X93995000Y-60579000D03*
X97495000Y-60579000D03*
X100995000Y-60579000D03*
X104495000Y-60579000D03*
X79995000Y-65179000D03*
X83495000Y-65179000D03*
X86995000Y-65179000D03*
X90495000Y-65179000D03*
X93995000Y-65179000D03*
X97495000Y-65179000D03*
X100995000Y-65179000D03*
X104495000Y-65179000D03*
D15*
X65750000Y-78994000D03*
D16*
X70750000Y-78994000D03*
D15*
X94500000Y-78994000D03*
D16*
X99500000Y-78994000D03*
D21*
X117000000Y-72080000D03*
X115175000Y-72080000D03*
D10*
X82189000Y-44577000D03*
X83439000Y-44577000D03*
D11*
X80339000Y-41227000D03*
X85289000Y-41227000D03*
D19*
X50718000Y-63597000D03*
X50718000Y-62347000D03*
X50718000Y-61097000D03*
X50718000Y-59847000D03*
D20*
X47368000Y-65447000D03*
X47368000Y-57997000D03*
D23*
X72644000Y-52324000D03*
X75946000Y-52324000D03*
X81300000Y-82700000D03*
X79400000Y-84600004D03*
D24*
X92456000Y-61722000D02*
X95913000Y-65179000D01*
X83447200Y-81542200D02*
X83447200Y-77152800D01*
X83439000Y-44852908D02*
X83439000Y-44577000D01*
X92456000Y-53975000D02*
X92456000Y-61722000D01*
X54610000Y-81534000D02*
X56876000Y-83800000D01*
X54590000Y-44684000D02*
X62230000Y-52324000D01*
X56876000Y-83800000D02*
X81935000Y-83800000D01*
X81935000Y-83800000D02*
X83439000Y-82296000D01*
X93300000Y-67300000D02*
X95374000Y-67300000D01*
X75946000Y-52324000D02*
X90805000Y-52324000D01*
X54590000Y-44540000D02*
X54590000Y-44684000D01*
X75967908Y-52324000D02*
X83439000Y-44852908D01*
X83491000Y-44779000D02*
X83491000Y-44498000D01*
X90805000Y-52324000D02*
X92456000Y-53975000D01*
X83439000Y-44548200D02*
X83447200Y-44540000D01*
X62230000Y-52324000D02*
X72644000Y-52324000D01*
X95374000Y-67300000D02*
X97495000Y-65179000D01*
X83439000Y-82296000D02*
X83439000Y-81328000D01*
X83447200Y-77152800D02*
X93300000Y-67300000D01*
X75946000Y-52324000D02*
X75967908Y-52324000D01*
X95913000Y-65179000D02*
X97495000Y-65179000D01*
X91694000Y-54864000D02*
X91694000Y-62894000D01*
X82189000Y-81328000D02*
X82189000Y-81811000D01*
X91710000Y-62894000D02*
X93995000Y-65179000D01*
X61400001Y-53340000D02*
X90170000Y-53340000D01*
X90170000Y-53340000D02*
X91694000Y-54864000D01*
X82189000Y-81811000D02*
X81300000Y-82700000D01*
X53487000Y-44577000D02*
X53487000Y-45426999D01*
X91694000Y-62894000D02*
X91710000Y-62894000D01*
X53360000Y-81534000D02*
X53360000Y-82383999D01*
X53360000Y-82383999D02*
X55576005Y-84600004D01*
X53487000Y-45426999D02*
X61400001Y-53340000D01*
X82189000Y-81328000D02*
X82189000Y-76985000D01*
X91694000Y-62894000D02*
X91700000Y-62900000D01*
X82189000Y-76985000D02*
X93995000Y-65179000D01*
X53340000Y-81327000D02*
X53340000Y-81840000D01*
X55576005Y-84600004D02*
X79400000Y-84600004D01*
X82189000Y-44577000D02*
X73426000Y-53340000D01*
X86995000Y-65179000D02*
X81689000Y-70485000D01*
X50993908Y-62347000D02*
X50718000Y-62347000D01*
X59131908Y-70485000D02*
X50993908Y-62347000D01*
X81689000Y-70485000D02*
X59131908Y-70485000D01*
X58984908Y-69088000D02*
X50993908Y-61097000D01*
X82197000Y-65179000D02*
X82169000Y-65151000D01*
X83495000Y-65179000D02*
X82197000Y-65179000D01*
X50993908Y-61097000D02*
X50718000Y-61097000D01*
X82169000Y-65151000D02*
X78232000Y-69088000D01*
X78232000Y-69088000D02*
X58984908Y-69088000D01*
X109125001Y-76100000D02*
X109125001Y-76125001D01*
X115700000Y-82700000D02*
X124800000Y-82700000D01*
X124800000Y-82700000D02*
X128500000Y-79000000D01*
X109125001Y-76125001D02*
X115700000Y-82700000D01*
X99500000Y-78994000D02*
X104981500Y-78994000D01*
X104981500Y-78994000D02*
X109087500Y-83100000D01*
X117000000Y-69300001D02*
X126600000Y-59700001D01*
X117000000Y-72080000D02*
X117000000Y-69300001D01*
X116912500Y-76100000D02*
X120600000Y-76100000D01*
X120600000Y-76100000D02*
X123500000Y-79000000D01*
D25*
X64307000Y-59802000D02*
X73198000Y-59802000D01*
X76800000Y-56200000D02*
X86116000Y-56200000D01*
X73198000Y-59802000D02*
X76800000Y-56200000D01*
X86116000Y-56200000D02*
X90495000Y-60579000D01*
D24*
X109125001Y-72100000D02*
X110925001Y-73900000D01*
X128900000Y-67600000D02*
X128900000Y-62000001D01*
X110925001Y-73900000D02*
X122600000Y-73900000D01*
X128900000Y-62000001D02*
X131200000Y-59700001D01*
X122600000Y-73900000D02*
X128900000Y-67600000D01*
X83665000Y-72009000D02*
X90495000Y-65179000D01*
X50718000Y-63597000D02*
X59130000Y-72009000D01*
X59130000Y-72009000D02*
X83665000Y-72009000D01*
D25*
X51567999Y-59847000D02*
X59411999Y-67691000D01*
X77483000Y-67691000D02*
X79995000Y-65179000D01*
X50718000Y-59847000D02*
X51567999Y-59847000D01*
X59411999Y-67691000D02*
X77483000Y-67691000D01*
D24*
X104495000Y-60579000D02*
X107513000Y-57561000D01*
X107513000Y-57561000D02*
X111633000Y-57561000D01*
X81416000Y-58500000D02*
X83495000Y-60579000D01*
X74898000Y-62302000D02*
X78700000Y-58500000D01*
X64307000Y-62302000D02*
X74898000Y-62302000D01*
X78700000Y-58500000D02*
X81416000Y-58500000D01*
X107765000Y-65179000D02*
X111633000Y-61311000D01*
X104495000Y-65179000D02*
X107765000Y-65179000D01*
X111073000Y-44752000D02*
X95246000Y-60579000D01*
X95246000Y-60579000D02*
X93995000Y-60579000D01*
X110998000Y-44596400D02*
X111054400Y-44540000D01*
X97495000Y-60579000D02*
X112323000Y-45751000D01*
X112323000Y-45751000D02*
X112323000Y-44752000D01*
X64307000Y-61052000D02*
X74348000Y-61052000D01*
X83816000Y-57400000D02*
X86995000Y-60579000D01*
X78000000Y-57400000D02*
X83816000Y-57400000D01*
X74348000Y-61052000D02*
X78000000Y-57400000D01*
D25*
X79995000Y-60579000D02*
X77022000Y-63552000D01*
X77022000Y-63552000D02*
X64307000Y-63552000D01*
D24*
X104944422Y-61664000D02*
X102080000Y-61664000D01*
X111633000Y-58811000D02*
X107797422Y-58811000D01*
X102080000Y-61664000D02*
X100995000Y-60579000D01*
X107797422Y-58811000D02*
X104944422Y-61664000D01*
X102960578Y-65179000D02*
X100995000Y-65179000D01*
X108078578Y-60061000D02*
X102960578Y-65179000D01*
X111633000Y-60061000D02*
X108078578Y-60061000D01*
X110912500Y-80137501D02*
X110874999Y-80100000D01*
X110912500Y-83100000D02*
X110912500Y-80137501D01*
X110894999Y-72080000D02*
X110874999Y-72100000D01*
X115175000Y-72080000D02*
X110894999Y-72080000D01*
X110874999Y-76100000D02*
X115087500Y-76100000D01*
G04 #@! TA.AperFunction,Conductor*
G36*
X140453032Y-34400648D02*
G01*
X140806532Y-34418015D01*
X140818640Y-34419208D01*
X140927576Y-34435367D01*
X141165717Y-34470692D01*
X141177635Y-34473062D01*
X141518008Y-34558321D01*
X141529646Y-34561852D01*
X141859996Y-34680054D01*
X141871237Y-34684710D01*
X142096857Y-34791419D01*
X142188433Y-34834731D01*
X142199150Y-34840459D01*
X142500102Y-35020843D01*
X142510220Y-35027603D01*
X142792049Y-35236622D01*
X142801455Y-35244342D01*
X143061436Y-35479974D01*
X143070025Y-35488563D01*
X143231782Y-35667035D01*
X143305657Y-35748544D01*
X143313377Y-35757950D01*
X143522396Y-36039779D01*
X143529156Y-36049897D01*
X143706334Y-36345501D01*
X143709533Y-36350837D01*
X143715270Y-36361570D01*
X143865289Y-36678762D01*
X143869945Y-36690003D01*
X143988147Y-37020353D01*
X143991680Y-37031998D01*
X144076934Y-37372351D01*
X144079308Y-37384287D01*
X144130791Y-37731359D01*
X144131984Y-37743468D01*
X144149351Y-38096966D01*
X144149500Y-38103051D01*
X144149500Y-84096948D01*
X144149351Y-84103033D01*
X144131984Y-84456531D01*
X144130791Y-84468640D01*
X144079308Y-84815712D01*
X144076934Y-84827648D01*
X143991680Y-85168001D01*
X143988147Y-85179646D01*
X143869945Y-85509996D01*
X143865289Y-85521237D01*
X143715270Y-85838429D01*
X143709533Y-85849162D01*
X143529156Y-86150102D01*
X143522396Y-86160220D01*
X143313377Y-86442049D01*
X143305657Y-86451455D01*
X143070033Y-86711428D01*
X143061428Y-86720033D01*
X142801455Y-86955657D01*
X142792049Y-86963377D01*
X142510220Y-87172396D01*
X142500102Y-87179156D01*
X142199162Y-87359533D01*
X142188429Y-87365270D01*
X141871237Y-87515289D01*
X141859996Y-87519945D01*
X141529646Y-87638147D01*
X141518001Y-87641680D01*
X141177648Y-87726934D01*
X141165712Y-87729308D01*
X140818640Y-87780791D01*
X140806531Y-87781984D01*
X140473016Y-87798369D01*
X140453031Y-87799351D01*
X140446949Y-87799500D01*
X44453051Y-87799500D01*
X44446968Y-87799351D01*
X44425811Y-87798311D01*
X44093468Y-87781984D01*
X44081359Y-87780791D01*
X43734287Y-87729308D01*
X43722351Y-87726934D01*
X43381998Y-87641680D01*
X43370353Y-87638147D01*
X43040003Y-87519945D01*
X43028762Y-87515289D01*
X42711570Y-87365270D01*
X42700842Y-87359535D01*
X42399897Y-87179156D01*
X42389779Y-87172396D01*
X42107950Y-86963377D01*
X42098544Y-86955657D01*
X41982295Y-86850296D01*
X41838563Y-86720025D01*
X41829974Y-86711436D01*
X41594342Y-86451455D01*
X41586622Y-86442049D01*
X41377603Y-86160220D01*
X41370843Y-86150102D01*
X41190459Y-85849150D01*
X41184729Y-85838429D01*
X41034710Y-85521237D01*
X41030054Y-85509996D01*
X40911852Y-85179646D01*
X40908319Y-85168001D01*
X40904890Y-85154311D01*
X40823062Y-84827635D01*
X40820691Y-84815712D01*
X40816619Y-84788263D01*
X40769208Y-84468640D01*
X40768015Y-84456530D01*
X40767351Y-84443022D01*
X40750649Y-84103032D01*
X40750500Y-84096948D01*
X40750500Y-83985010D01*
X42695500Y-83985010D01*
X42695500Y-84214989D01*
X42695501Y-84215005D01*
X42725518Y-84443009D01*
X42725519Y-84443014D01*
X42725520Y-84443020D01*
X42785046Y-84665175D01*
X42785049Y-84665185D01*
X42873057Y-84877654D01*
X42873061Y-84877664D01*
X42988055Y-85076839D01*
X43128064Y-85259303D01*
X43128070Y-85259310D01*
X43290689Y-85421929D01*
X43290696Y-85421935D01*
X43473160Y-85561944D01*
X43672335Y-85676938D01*
X43672336Y-85676938D01*
X43672339Y-85676940D01*
X43884824Y-85764954D01*
X44106980Y-85824480D01*
X44335004Y-85854500D01*
X44335011Y-85854500D01*
X44564989Y-85854500D01*
X44564996Y-85854500D01*
X44793020Y-85824480D01*
X45015176Y-85764954D01*
X45227661Y-85676940D01*
X45426840Y-85561944D01*
X45609305Y-85421934D01*
X45771934Y-85259305D01*
X45911944Y-85076840D01*
X46026940Y-84877661D01*
X46114954Y-84665176D01*
X46174480Y-84443020D01*
X46204500Y-84214996D01*
X46204500Y-83985004D01*
X46174480Y-83756980D01*
X46114954Y-83534824D01*
X46026940Y-83322339D01*
X46014887Y-83301463D01*
X45911944Y-83123160D01*
X45771935Y-82940696D01*
X45771929Y-82940689D01*
X45609310Y-82778070D01*
X45609303Y-82778064D01*
X45426839Y-82638055D01*
X45227664Y-82523061D01*
X45227654Y-82523057D01*
X45015185Y-82435049D01*
X45015178Y-82435047D01*
X45015176Y-82435046D01*
X44793020Y-82375520D01*
X44793014Y-82375519D01*
X44793009Y-82375518D01*
X44565005Y-82345501D01*
X44565002Y-82345500D01*
X44564996Y-82345500D01*
X44335004Y-82345500D01*
X44334998Y-82345500D01*
X44334994Y-82345501D01*
X44106990Y-82375518D01*
X44106983Y-82375519D01*
X44106980Y-82375520D01*
X44009461Y-82401650D01*
X43884824Y-82435046D01*
X43884814Y-82435049D01*
X43672345Y-82523057D01*
X43672335Y-82523061D01*
X43473160Y-82638055D01*
X43290696Y-82778064D01*
X43290689Y-82778070D01*
X43128070Y-82940689D01*
X43128064Y-82940696D01*
X42988055Y-83123160D01*
X42873061Y-83322335D01*
X42873057Y-83322345D01*
X42785049Y-83534814D01*
X42785046Y-83534824D01*
X42725521Y-83756977D01*
X42725518Y-83756990D01*
X42695501Y-83984994D01*
X42695500Y-83985010D01*
X40750500Y-83985010D01*
X40750500Y-80768298D01*
X52559500Y-80768298D01*
X52559500Y-82299701D01*
X52562401Y-82336567D01*
X52562402Y-82336573D01*
X52608254Y-82494393D01*
X52608255Y-82494396D01*
X52691917Y-82635862D01*
X52691923Y-82635870D01*
X52808129Y-82752076D01*
X52808135Y-82752081D01*
X52881182Y-82795280D01*
X52905740Y-82814330D01*
X52968332Y-82876922D01*
X52968337Y-82876926D01*
X55090146Y-84998736D01*
X55090147Y-84998737D01*
X55168249Y-85076839D01*
X55177273Y-85085863D01*
X55279712Y-85154311D01*
X55279718Y-85154314D01*
X55279719Y-85154315D01*
X55393553Y-85201467D01*
X55453976Y-85213485D01*
X55514398Y-85225504D01*
X55514399Y-85225504D01*
X78696252Y-85225504D01*
X78763291Y-85245189D01*
X78788400Y-85266530D01*
X78794126Y-85272889D01*
X78794130Y-85272893D01*
X78947265Y-85384152D01*
X78947270Y-85384155D01*
X79120192Y-85461146D01*
X79120197Y-85461148D01*
X79305354Y-85500504D01*
X79305355Y-85500504D01*
X79494644Y-85500504D01*
X79494646Y-85500504D01*
X79679803Y-85461148D01*
X79852730Y-85384155D01*
X80005871Y-85272892D01*
X80132533Y-85132220D01*
X80227179Y-84968288D01*
X80285674Y-84788260D01*
X80305460Y-84600004D01*
X80301514Y-84562460D01*
X80314084Y-84493731D01*
X80361816Y-84442708D01*
X80424835Y-84425500D01*
X81996608Y-84425500D01*
X81996608Y-84425499D01*
X82065744Y-84411748D01*
X82065745Y-84411748D01*
X82083298Y-84408256D01*
X82117452Y-84401463D01*
X82150792Y-84387652D01*
X82231286Y-84354312D01*
X82282509Y-84320084D01*
X82333733Y-84285858D01*
X82420858Y-84198733D01*
X82420859Y-84198731D01*
X82427925Y-84191665D01*
X82427928Y-84191661D01*
X83837729Y-82781860D01*
X83837733Y-82781858D01*
X83924858Y-82694733D01*
X83993311Y-82592286D01*
X84018274Y-82532018D01*
X84045149Y-82491795D01*
X84107081Y-82429865D01*
X84190744Y-82288398D01*
X84236598Y-82130569D01*
X84239500Y-82093694D01*
X84239500Y-80562306D01*
X84236598Y-80525431D01*
X84225651Y-80487753D01*
X84196286Y-80386677D01*
X84190744Y-80367602D01*
X84107081Y-80226135D01*
X84107078Y-80226132D01*
X84102298Y-80219969D01*
X84103911Y-80218717D01*
X84075534Y-80166749D01*
X84072700Y-80140391D01*
X84072700Y-79366290D01*
X84092385Y-79299251D01*
X84145189Y-79253496D01*
X84214347Y-79243552D01*
X84277903Y-79272577D01*
X84314405Y-79327285D01*
X84354186Y-79447334D01*
X84446288Y-79596656D01*
X84570344Y-79720712D01*
X84719666Y-79812814D01*
X84886203Y-79867999D01*
X84988991Y-79878500D01*
X85589008Y-79878499D01*
X85589016Y-79878498D01*
X85589019Y-79878498D01*
X85645302Y-79872748D01*
X85691797Y-79867999D01*
X85858334Y-79812814D01*
X86007656Y-79720712D01*
X86131712Y-79596656D01*
X86223814Y-79447334D01*
X86278999Y-79280797D01*
X86289500Y-79178009D01*
X86289499Y-77046155D01*
X92100000Y-77046155D01*
X92100000Y-78744000D01*
X93172769Y-78744000D01*
X93150000Y-78887753D01*
X93150000Y-79100247D01*
X93172769Y-79244000D01*
X92100000Y-79244000D01*
X92100000Y-80941844D01*
X92106401Y-81001372D01*
X92106403Y-81001379D01*
X92156645Y-81136086D01*
X92156649Y-81136093D01*
X92242809Y-81251187D01*
X92242812Y-81251190D01*
X92357906Y-81337350D01*
X92357913Y-81337354D01*
X92492620Y-81387596D01*
X92492627Y-81387598D01*
X92552155Y-81393999D01*
X92552172Y-81394000D01*
X94250000Y-81394000D01*
X94250000Y-80321231D01*
X94393753Y-80344000D01*
X94606247Y-80344000D01*
X94750000Y-80321231D01*
X94750000Y-81394000D01*
X96447828Y-81394000D01*
X96447844Y-81393999D01*
X96507372Y-81387598D01*
X96507379Y-81387596D01*
X96642086Y-81337354D01*
X96642093Y-81337350D01*
X96757187Y-81251190D01*
X96757190Y-81251187D01*
X96843350Y-81136093D01*
X96843354Y-81136086D01*
X96893596Y-81001379D01*
X96893598Y-81001372D01*
X96899999Y-80941844D01*
X96900000Y-80941827D01*
X96900000Y-79866716D01*
X96919685Y-79799677D01*
X96972489Y-79753922D01*
X97041647Y-79743978D01*
X97105203Y-79773003D01*
X97141931Y-79828398D01*
X97170497Y-79916316D01*
X97170499Y-79916321D01*
X97304461Y-80201003D01*
X97304464Y-80201009D01*
X97473051Y-80466661D01*
X97473054Y-80466665D01*
X97673606Y-80709090D01*
X97673608Y-80709092D01*
X97673610Y-80709094D01*
X97898564Y-80920340D01*
X97902968Y-80924476D01*
X97902978Y-80924484D01*
X98157504Y-81109408D01*
X98157509Y-81109410D01*
X98157516Y-81109416D01*
X98433234Y-81260994D01*
X98433239Y-81260996D01*
X98433241Y-81260997D01*
X98433242Y-81260998D01*
X98725771Y-81376818D01*
X98725774Y-81376819D01*
X99010446Y-81449910D01*
X99030527Y-81455066D01*
X99096010Y-81463338D01*
X99342670Y-81494499D01*
X99342679Y-81494499D01*
X99342682Y-81494500D01*
X99342684Y-81494500D01*
X99657316Y-81494500D01*
X99657318Y-81494500D01*
X99657321Y-81494499D01*
X99657329Y-81494499D01*
X99843593Y-81470968D01*
X99969473Y-81455066D01*
X100274225Y-81376819D01*
X100274228Y-81376818D01*
X100566757Y-81260998D01*
X100566758Y-81260997D01*
X100566756Y-81260997D01*
X100566766Y-81260994D01*
X100842484Y-81109416D01*
X101097030Y-80924478D01*
X101326390Y-80709094D01*
X101526947Y-80466663D01*
X101695537Y-80201007D01*
X101829503Y-79916315D01*
X101898104Y-79705181D01*
X101937541Y-79647507D01*
X102001900Y-79620308D01*
X102016035Y-79619500D01*
X104671048Y-79619500D01*
X104738087Y-79639185D01*
X104758729Y-79655819D01*
X108063181Y-82960271D01*
X108096666Y-83021594D01*
X108099500Y-83047952D01*
X108099500Y-83386668D01*
X108099501Y-83386687D01*
X108109825Y-83487752D01*
X108164092Y-83651515D01*
X108164093Y-83651518D01*
X108198395Y-83707129D01*
X108254660Y-83798350D01*
X108376650Y-83920340D01*
X108523484Y-84010908D01*
X108687247Y-84065174D01*
X108788323Y-84075500D01*
X109386676Y-84075499D01*
X109386684Y-84075498D01*
X109386687Y-84075498D01*
X109442030Y-84069844D01*
X109487753Y-84065174D01*
X109651516Y-84010908D01*
X109798350Y-83920340D01*
X109912319Y-83806371D01*
X109973642Y-83772886D01*
X110043334Y-83777870D01*
X110087681Y-83806371D01*
X110201650Y-83920340D01*
X110348484Y-84010908D01*
X110512247Y-84065174D01*
X110613323Y-84075500D01*
X111211676Y-84075499D01*
X111211684Y-84075498D01*
X111211687Y-84075498D01*
X111267030Y-84069844D01*
X111312753Y-84065174D01*
X111476516Y-84010908D01*
X111518503Y-83985010D01*
X138695500Y-83985010D01*
X138695500Y-84214989D01*
X138695501Y-84215005D01*
X138725518Y-84443009D01*
X138725519Y-84443014D01*
X138725520Y-84443020D01*
X138785046Y-84665175D01*
X138785049Y-84665185D01*
X138873057Y-84877654D01*
X138873061Y-84877664D01*
X138988055Y-85076839D01*
X139128064Y-85259303D01*
X139128070Y-85259310D01*
X139290689Y-85421929D01*
X139290696Y-85421935D01*
X139473160Y-85561944D01*
X139672335Y-85676938D01*
X139672336Y-85676938D01*
X139672339Y-85676940D01*
X139884824Y-85764954D01*
X140106980Y-85824480D01*
X140335004Y-85854500D01*
X140335011Y-85854500D01*
X140564989Y-85854500D01*
X140564996Y-85854500D01*
X140793020Y-85824480D01*
X141015176Y-85764954D01*
X141227661Y-85676940D01*
X141426840Y-85561944D01*
X141609305Y-85421934D01*
X141771934Y-85259305D01*
X141911944Y-85076840D01*
X142026940Y-84877661D01*
X142114954Y-84665176D01*
X142174480Y-84443020D01*
X142204500Y-84214996D01*
X142204500Y-83985004D01*
X142174480Y-83756980D01*
X142114954Y-83534824D01*
X142026940Y-83322339D01*
X142014887Y-83301463D01*
X141911944Y-83123160D01*
X141771935Y-82940696D01*
X141771929Y-82940689D01*
X141609310Y-82778070D01*
X141609303Y-82778064D01*
X141426839Y-82638055D01*
X141227664Y-82523061D01*
X141227654Y-82523057D01*
X141015185Y-82435049D01*
X141015178Y-82435047D01*
X141015176Y-82435046D01*
X140793020Y-82375520D01*
X140793014Y-82375519D01*
X140793009Y-82375518D01*
X140565005Y-82345501D01*
X140565002Y-82345500D01*
X140564996Y-82345500D01*
X140335004Y-82345500D01*
X140334998Y-82345500D01*
X140334994Y-82345501D01*
X140106990Y-82375518D01*
X140106983Y-82375519D01*
X140106980Y-82375520D01*
X140009461Y-82401650D01*
X139884824Y-82435046D01*
X139884814Y-82435049D01*
X139672345Y-82523057D01*
X139672335Y-82523061D01*
X139473160Y-82638055D01*
X139290696Y-82778064D01*
X139290689Y-82778070D01*
X139128070Y-82940689D01*
X139128064Y-82940696D01*
X138988055Y-83123160D01*
X138873061Y-83322335D01*
X138873057Y-83322345D01*
X138785049Y-83534814D01*
X138785046Y-83534824D01*
X138725521Y-83756977D01*
X138725518Y-83756990D01*
X138695501Y-83984994D01*
X138695500Y-83985010D01*
X111518503Y-83985010D01*
X111623350Y-83920340D01*
X111745340Y-83798350D01*
X111835908Y-83651516D01*
X111890174Y-83487753D01*
X111900500Y-83386677D01*
X111900499Y-82813324D01*
X111898006Y-82788923D01*
X111890174Y-82712247D01*
X111850424Y-82592291D01*
X111835908Y-82548484D01*
X111745340Y-82401650D01*
X111623350Y-82279660D01*
X111623347Y-82279657D01*
X111596901Y-82263345D01*
X111550178Y-82211397D01*
X111538000Y-82157808D01*
X111538000Y-81042189D01*
X111557685Y-80975150D01*
X111596900Y-80936653D01*
X111623349Y-80920340D01*
X111745339Y-80798350D01*
X111835907Y-80651516D01*
X111890173Y-80487753D01*
X111900499Y-80386677D01*
X111900498Y-80084448D01*
X111920182Y-80017411D01*
X111972986Y-79971656D01*
X112042145Y-79961712D01*
X112105700Y-79990737D01*
X112112179Y-79996769D01*
X115211016Y-83095606D01*
X115211045Y-83095637D01*
X115301263Y-83185855D01*
X115301266Y-83185857D01*
X115301267Y-83185858D01*
X115370647Y-83232216D01*
X115403715Y-83254312D01*
X115467504Y-83280734D01*
X115517548Y-83301463D01*
X115577971Y-83313481D01*
X115638393Y-83325500D01*
X124861607Y-83325500D01*
X124922029Y-83313481D01*
X124982452Y-83301463D01*
X124982455Y-83301461D01*
X124982458Y-83301461D01*
X125015787Y-83287654D01*
X125015786Y-83287654D01*
X125015792Y-83287652D01*
X125096286Y-83254312D01*
X125147509Y-83220084D01*
X125198733Y-83185858D01*
X125285858Y-83098733D01*
X125285859Y-83098731D01*
X125292925Y-83091665D01*
X125292928Y-83091661D01*
X126947771Y-81436818D01*
X127009094Y-81403333D01*
X127035452Y-81400499D01*
X130447871Y-81400499D01*
X130447872Y-81400499D01*
X130507483Y-81394091D01*
X130642331Y-81343796D01*
X130757546Y-81257546D01*
X130843796Y-81142331D01*
X130894091Y-81007483D01*
X130900500Y-80947873D01*
X130900499Y-77052128D01*
X130894091Y-76992517D01*
X130891894Y-76986627D01*
X130843797Y-76857671D01*
X130843793Y-76857664D01*
X130757547Y-76742455D01*
X130757544Y-76742452D01*
X130642335Y-76656206D01*
X130642328Y-76656202D01*
X130507482Y-76605908D01*
X130507483Y-76605908D01*
X130447883Y-76599501D01*
X130447881Y-76599500D01*
X130447873Y-76599500D01*
X130447864Y-76599500D01*
X126552129Y-76599500D01*
X126552123Y-76599501D01*
X126492516Y-76605908D01*
X126357671Y-76656202D01*
X126357664Y-76656206D01*
X126242455Y-76742452D01*
X126242452Y-76742455D01*
X126156206Y-76857664D01*
X126156202Y-76857671D01*
X126105908Y-76992517D01*
X126100142Y-77046155D01*
X126099501Y-77052123D01*
X126099500Y-77052135D01*
X126099500Y-78125744D01*
X126079815Y-78192783D01*
X126027011Y-78238538D01*
X125957853Y-78248482D01*
X125894297Y-78219457D01*
X125857569Y-78164062D01*
X125841476Y-78114534D01*
X125829503Y-78077685D01*
X125826676Y-78071678D01*
X125773695Y-77959087D01*
X125695537Y-77792993D01*
X125611575Y-77660689D01*
X125526948Y-77527338D01*
X125526945Y-77527334D01*
X125326393Y-77284909D01*
X125326391Y-77284907D01*
X125282926Y-77244090D01*
X125097030Y-77069522D01*
X125097027Y-77069520D01*
X125097021Y-77069515D01*
X124842495Y-76884591D01*
X124842488Y-76884586D01*
X124842484Y-76884584D01*
X124566766Y-76733006D01*
X124566763Y-76733004D01*
X124566758Y-76733002D01*
X124566757Y-76733001D01*
X124274228Y-76617181D01*
X124274225Y-76617180D01*
X123969476Y-76538934D01*
X123969463Y-76538932D01*
X123657329Y-76499500D01*
X123657318Y-76499500D01*
X123342682Y-76499500D01*
X123342670Y-76499500D01*
X123030536Y-76538932D01*
X123030523Y-76538934D01*
X122725774Y-76617180D01*
X122725771Y-76617181D01*
X122433243Y-76733001D01*
X122433240Y-76733002D01*
X122311149Y-76800122D01*
X122242918Y-76815169D01*
X122177385Y-76790938D01*
X122163731Y-76779141D01*
X121092928Y-75708338D01*
X121092925Y-75708334D01*
X121092925Y-75708335D01*
X121085858Y-75701268D01*
X121085858Y-75701267D01*
X120998733Y-75614142D01*
X120933701Y-75570689D01*
X120896285Y-75545687D01*
X120856039Y-75529017D01*
X120815792Y-75512347D01*
X120782453Y-75498537D01*
X120772427Y-75496543D01*
X120722029Y-75486518D01*
X120661610Y-75474500D01*
X120661607Y-75474500D01*
X120661606Y-75474500D01*
X117859481Y-75474500D01*
X117792442Y-75454815D01*
X117753942Y-75415596D01*
X117752908Y-75413920D01*
X117745340Y-75401650D01*
X117623350Y-75279660D01*
X117476516Y-75189092D01*
X117312753Y-75134826D01*
X117312751Y-75134825D01*
X117211678Y-75124500D01*
X116613330Y-75124500D01*
X116613312Y-75124501D01*
X116512247Y-75134825D01*
X116348484Y-75189092D01*
X116348481Y-75189093D01*
X116201648Y-75279661D01*
X116087681Y-75393629D01*
X116026358Y-75427114D01*
X115956666Y-75422130D01*
X115912319Y-75393629D01*
X115798351Y-75279661D01*
X115798350Y-75279660D01*
X115651516Y-75189092D01*
X115487753Y-75134826D01*
X115487751Y-75134825D01*
X115386678Y-75124500D01*
X114788330Y-75124500D01*
X114788312Y-75124501D01*
X114687247Y-75134825D01*
X114523484Y-75189092D01*
X114523481Y-75189093D01*
X114376648Y-75279661D01*
X114254660Y-75401649D01*
X114254659Y-75401651D01*
X114246058Y-75415596D01*
X114194110Y-75462321D01*
X114140519Y-75474500D01*
X111859480Y-75474500D01*
X111792441Y-75454815D01*
X111753941Y-75415596D01*
X111752907Y-75413920D01*
X111745339Y-75401650D01*
X111623349Y-75279660D01*
X111476515Y-75189092D01*
X111312752Y-75134826D01*
X111312750Y-75134825D01*
X111211677Y-75124500D01*
X110538329Y-75124500D01*
X110538311Y-75124501D01*
X110437246Y-75134825D01*
X110273483Y-75189092D01*
X110273480Y-75189093D01*
X110126647Y-75279661D01*
X110087680Y-75318628D01*
X110026357Y-75352113D01*
X109956665Y-75347127D01*
X109912320Y-75318628D01*
X109873352Y-75279661D01*
X109873351Y-75279660D01*
X109726517Y-75189092D01*
X109562754Y-75134826D01*
X109562752Y-75134825D01*
X109461679Y-75124500D01*
X108788331Y-75124500D01*
X108788313Y-75124501D01*
X108687248Y-75134825D01*
X108523485Y-75189092D01*
X108523482Y-75189093D01*
X108376649Y-75279661D01*
X108254662Y-75401648D01*
X108164094Y-75548481D01*
X108164093Y-75548484D01*
X108109827Y-75712247D01*
X108109827Y-75712248D01*
X108109826Y-75712248D01*
X108099501Y-75813315D01*
X108099501Y-76386669D01*
X108099502Y-76386687D01*
X108109826Y-76487752D01*
X108135538Y-76565344D01*
X108163804Y-76650645D01*
X108164093Y-76651515D01*
X108164094Y-76651518D01*
X108178701Y-76675200D01*
X108254661Y-76798350D01*
X108376651Y-76920340D01*
X108523485Y-77010908D01*
X108687248Y-77065174D01*
X108788324Y-77075500D01*
X109139547Y-77075499D01*
X109206586Y-77095183D01*
X109227228Y-77111818D01*
X111028229Y-78912819D01*
X111061714Y-78974142D01*
X111056730Y-79043834D01*
X111014858Y-79099767D01*
X110949394Y-79124184D01*
X110940548Y-79124500D01*
X110538329Y-79124500D01*
X110538311Y-79124501D01*
X110437246Y-79134825D01*
X110273483Y-79189092D01*
X110273480Y-79189093D01*
X110126647Y-79279661D01*
X110087326Y-79318982D01*
X110026003Y-79352467D01*
X109956311Y-79347481D01*
X109911965Y-79318981D01*
X109873039Y-79280055D01*
X109873035Y-79280052D01*
X109726312Y-79189551D01*
X109726301Y-79189546D01*
X109562653Y-79135319D01*
X109461655Y-79125000D01*
X109375001Y-79125000D01*
X109375001Y-81074999D01*
X109461641Y-81074999D01*
X109461655Y-81074998D01*
X109562653Y-81064680D01*
X109726301Y-81010453D01*
X109726312Y-81010448D01*
X109873035Y-80919947D01*
X109873038Y-80919945D01*
X109911964Y-80881019D01*
X109973287Y-80847533D01*
X110042978Y-80852517D01*
X110087327Y-80881018D01*
X110126649Y-80920340D01*
X110228098Y-80982914D01*
X110274821Y-81034861D01*
X110287000Y-81088452D01*
X110287000Y-82157808D01*
X110267315Y-82224847D01*
X110228099Y-82263345D01*
X110201652Y-82279657D01*
X110201649Y-82279660D01*
X110087681Y-82393629D01*
X110026358Y-82427114D01*
X109956666Y-82422130D01*
X109912319Y-82393629D01*
X109798351Y-82279661D01*
X109798350Y-82279660D01*
X109651516Y-82189092D01*
X109487753Y-82134826D01*
X109487751Y-82134825D01*
X109386684Y-82124500D01*
X109386677Y-82124500D01*
X109047952Y-82124500D01*
X108980913Y-82104815D01*
X108960271Y-82088181D01*
X107258744Y-80386654D01*
X108100002Y-80386654D01*
X108110320Y-80487652D01*
X108164547Y-80651300D01*
X108164552Y-80651311D01*
X108255053Y-80798034D01*
X108255056Y-80798038D01*
X108376962Y-80919944D01*
X108376966Y-80919947D01*
X108523689Y-81010448D01*
X108523700Y-81010453D01*
X108687348Y-81064680D01*
X108788352Y-81074999D01*
X108875001Y-81074998D01*
X108875001Y-80350000D01*
X108100002Y-80350000D01*
X108100002Y-80386654D01*
X107258744Y-80386654D01*
X106685435Y-79813345D01*
X108100001Y-79813345D01*
X108100001Y-79850000D01*
X108875001Y-79850000D01*
X108875001Y-79125000D01*
X108875000Y-79124999D01*
X108788361Y-79125000D01*
X108788344Y-79125001D01*
X108687348Y-79135319D01*
X108523700Y-79189546D01*
X108523689Y-79189551D01*
X108376966Y-79280052D01*
X108376962Y-79280055D01*
X108255056Y-79401961D01*
X108255053Y-79401965D01*
X108164552Y-79548688D01*
X108164547Y-79548699D01*
X108110320Y-79712347D01*
X108100001Y-79813345D01*
X106685435Y-79813345D01*
X105471698Y-78599608D01*
X105471678Y-78599586D01*
X105380233Y-78508141D01*
X105329009Y-78473915D01*
X105277786Y-78439688D01*
X105277783Y-78439686D01*
X105277782Y-78439686D01*
X105277781Y-78439685D01*
X105176900Y-78397900D01*
X105163955Y-78392538D01*
X105163945Y-78392535D01*
X105055278Y-78370920D01*
X105055277Y-78370920D01*
X105043111Y-78368500D01*
X105043107Y-78368500D01*
X105043106Y-78368500D01*
X102016035Y-78368500D01*
X101948996Y-78348815D01*
X101903241Y-78296011D01*
X101898104Y-78282818D01*
X101877517Y-78219457D01*
X101829503Y-78071685D01*
X101695537Y-77786993D01*
X101604791Y-77644000D01*
X101526948Y-77521338D01*
X101526945Y-77521334D01*
X101326393Y-77278909D01*
X101326391Y-77278907D01*
X101097031Y-77063523D01*
X101097021Y-77063515D01*
X100842495Y-76878591D01*
X100842488Y-76878586D01*
X100842484Y-76878584D01*
X100566766Y-76727006D01*
X100566763Y-76727004D01*
X100566758Y-76727002D01*
X100566757Y-76727001D01*
X100274228Y-76611181D01*
X100274225Y-76611180D01*
X99969476Y-76532934D01*
X99969463Y-76532932D01*
X99657329Y-76493500D01*
X99657318Y-76493500D01*
X99342682Y-76493500D01*
X99342670Y-76493500D01*
X99030536Y-76532932D01*
X99030523Y-76532934D01*
X98725774Y-76611180D01*
X98725771Y-76611181D01*
X98433242Y-76727001D01*
X98433241Y-76727002D01*
X98157516Y-76878584D01*
X98157504Y-76878591D01*
X97902978Y-77063515D01*
X97902968Y-77063523D01*
X97673608Y-77278907D01*
X97673606Y-77278909D01*
X97473054Y-77521334D01*
X97473051Y-77521338D01*
X97304464Y-77786990D01*
X97304461Y-77786996D01*
X97170499Y-78071678D01*
X97170497Y-78071683D01*
X97141931Y-78159601D01*
X97102493Y-78217277D01*
X97038135Y-78244475D01*
X96969288Y-78232560D01*
X96917813Y-78185316D01*
X96900000Y-78121283D01*
X96900000Y-77046172D01*
X96899999Y-77046155D01*
X96893598Y-76986627D01*
X96893596Y-76986620D01*
X96843354Y-76851913D01*
X96843350Y-76851906D01*
X96757190Y-76736812D01*
X96757187Y-76736809D01*
X96642093Y-76650649D01*
X96642086Y-76650645D01*
X96507379Y-76600403D01*
X96507372Y-76600401D01*
X96447844Y-76594000D01*
X94750000Y-76594000D01*
X94750000Y-77666768D01*
X94606247Y-77644000D01*
X94393753Y-77644000D01*
X94250000Y-77666768D01*
X94250000Y-76594000D01*
X92552155Y-76594000D01*
X92492627Y-76600401D01*
X92492620Y-76600403D01*
X92357913Y-76650645D01*
X92357906Y-76650649D01*
X92242812Y-76736809D01*
X92242809Y-76736812D01*
X92156649Y-76851906D01*
X92156645Y-76851913D01*
X92106403Y-76986620D01*
X92106401Y-76986627D01*
X92100000Y-77046155D01*
X86289499Y-77046155D01*
X86289499Y-76777992D01*
X86288977Y-76772886D01*
X86278999Y-76675203D01*
X86278998Y-76675200D01*
X86272703Y-76656202D01*
X86223814Y-76508666D01*
X86131712Y-76359344D01*
X86007656Y-76235288D01*
X85858334Y-76143186D01*
X85691797Y-76088001D01*
X85691795Y-76088000D01*
X85683546Y-76087158D01*
X85618854Y-76060761D01*
X85578704Y-76003580D01*
X85575842Y-75933768D01*
X85608467Y-75876121D01*
X89671275Y-71813315D01*
X108099501Y-71813315D01*
X108099501Y-72386669D01*
X108099502Y-72386687D01*
X108109826Y-72487752D01*
X108142335Y-72585856D01*
X108164093Y-72651516D01*
X108254661Y-72798350D01*
X108376651Y-72920340D01*
X108523485Y-73010908D01*
X108687248Y-73065174D01*
X108788324Y-73075500D01*
X109164548Y-73075499D01*
X109231587Y-73095183D01*
X109252229Y-73111818D01*
X110526263Y-74385854D01*
X110526266Y-74385857D01*
X110577491Y-74420084D01*
X110628715Y-74454311D01*
X110742549Y-74501463D01*
X110863389Y-74525499D01*
X110863393Y-74525500D01*
X110863394Y-74525500D01*
X122661607Y-74525500D01*
X122722029Y-74513481D01*
X122782452Y-74501463D01*
X122782455Y-74501461D01*
X122782458Y-74501461D01*
X122815787Y-74487654D01*
X122815786Y-74487654D01*
X122815792Y-74487652D01*
X122896286Y-74454312D01*
X122947509Y-74420084D01*
X122998733Y-74385858D01*
X123085858Y-74298733D01*
X123085858Y-74298731D01*
X123096066Y-74288524D01*
X123096067Y-74288521D01*
X129385857Y-67998734D01*
X129408187Y-67965316D01*
X129410524Y-67961819D01*
X129454310Y-67896288D01*
X129454310Y-67896287D01*
X129454311Y-67896286D01*
X129501463Y-67782452D01*
X129507983Y-67749668D01*
X129514564Y-67716589D01*
X129514564Y-67716586D01*
X129525500Y-67661607D01*
X129525500Y-67538394D01*
X129525500Y-66699999D01*
X129934685Y-66699999D01*
X129934685Y-66700002D01*
X129953907Y-66919715D01*
X129953909Y-66919725D01*
X130010990Y-67132756D01*
X130010995Y-67132770D01*
X130104203Y-67332655D01*
X130104207Y-67332663D01*
X130230712Y-67513331D01*
X130386669Y-67669288D01*
X130567337Y-67795793D01*
X130567339Y-67795794D01*
X130567342Y-67795796D01*
X130619435Y-67820087D01*
X130767230Y-67889005D01*
X130767232Y-67889005D01*
X130767237Y-67889008D01*
X130980280Y-67946093D01*
X131137222Y-67959823D01*
X131199998Y-67965316D01*
X131200000Y-67965316D01*
X131200002Y-67965316D01*
X131254930Y-67960510D01*
X131419720Y-67946093D01*
X131632763Y-67889008D01*
X131832658Y-67795796D01*
X132013329Y-67669289D01*
X132169288Y-67513330D01*
X132295795Y-67332659D01*
X132389007Y-67132764D01*
X132446092Y-66919721D01*
X132465315Y-66700001D01*
X132446092Y-66480281D01*
X132389007Y-66267238D01*
X132295795Y-66067344D01*
X132169288Y-65886672D01*
X132169286Y-65886669D01*
X132013330Y-65730713D01*
X131832662Y-65604208D01*
X131832654Y-65604204D01*
X131632769Y-65510996D01*
X131632755Y-65510991D01*
X131419724Y-65453910D01*
X131419722Y-65453909D01*
X131419720Y-65453909D01*
X131419718Y-65453908D01*
X131419714Y-65453908D01*
X131200002Y-65434686D01*
X131199998Y-65434686D01*
X130980285Y-65453908D01*
X130980275Y-65453910D01*
X130767244Y-65510991D01*
X130767237Y-65510993D01*
X130767237Y-65510994D01*
X130750651Y-65518728D01*
X130567344Y-65604205D01*
X130567342Y-65604206D01*
X130386668Y-65730714D01*
X130230713Y-65886669D01*
X130104205Y-66067343D01*
X130104204Y-66067345D01*
X130010994Y-66267236D01*
X130010990Y-66267245D01*
X129953909Y-66480276D01*
X129953907Y-66480286D01*
X129934685Y-66699999D01*
X129525500Y-66699999D01*
X129525500Y-63199998D01*
X129934685Y-63199998D01*
X129934685Y-63200001D01*
X129953907Y-63419714D01*
X129953909Y-63419724D01*
X130010990Y-63632755D01*
X130010995Y-63632769D01*
X130104203Y-63832654D01*
X130104207Y-63832662D01*
X130230712Y-64013330D01*
X130386669Y-64169287D01*
X130567337Y-64295792D01*
X130567339Y-64295793D01*
X130567342Y-64295795D01*
X130682724Y-64349598D01*
X130767230Y-64389004D01*
X130767232Y-64389004D01*
X130767237Y-64389007D01*
X130980280Y-64446092D01*
X131137222Y-64459822D01*
X131199998Y-64465315D01*
X131200000Y-64465315D01*
X131200002Y-64465315D01*
X131254930Y-64460509D01*
X131419720Y-64446092D01*
X131632763Y-64389007D01*
X131832658Y-64295795D01*
X132013329Y-64169288D01*
X132169288Y-64013329D01*
X132295795Y-63832658D01*
X132389007Y-63632763D01*
X132446092Y-63419720D01*
X132465315Y-63200000D01*
X132446092Y-62980280D01*
X132389007Y-62767237D01*
X132295795Y-62567343D01*
X132169288Y-62386671D01*
X132169286Y-62386668D01*
X132013330Y-62230712D01*
X131832662Y-62104207D01*
X131832654Y-62104203D01*
X131632769Y-62010995D01*
X131632755Y-62010990D01*
X131419724Y-61953909D01*
X131419722Y-61953908D01*
X131419720Y-61953908D01*
X131419718Y-61953907D01*
X131419714Y-61953907D01*
X131200002Y-61934685D01*
X131199998Y-61934685D01*
X130980285Y-61953907D01*
X130980275Y-61953909D01*
X130767244Y-62010990D01*
X130767235Y-62010994D01*
X130567344Y-62104204D01*
X130567342Y-62104205D01*
X130386668Y-62230713D01*
X130230713Y-62386668D01*
X130104205Y-62567342D01*
X130104204Y-62567344D01*
X130036567Y-62712393D01*
X130010994Y-62767236D01*
X130010990Y-62767244D01*
X129953909Y-62980275D01*
X129953907Y-62980285D01*
X129934685Y-63199998D01*
X129525500Y-63199998D01*
X129525500Y-62310452D01*
X129545185Y-62243413D01*
X129561814Y-62222776D01*
X130817838Y-60966751D01*
X130879159Y-60933268D01*
X130937612Y-60934660D01*
X130980272Y-60946091D01*
X130980273Y-60946091D01*
X130980280Y-60946093D01*
X131152520Y-60961162D01*
X131199998Y-60965316D01*
X131200000Y-60965316D01*
X131200002Y-60965316D01*
X131254930Y-60960510D01*
X131419720Y-60946093D01*
X131632763Y-60889008D01*
X131832658Y-60795796D01*
X132013329Y-60669289D01*
X132169288Y-60513330D01*
X132295795Y-60332659D01*
X132389007Y-60132764D01*
X132446092Y-59919721D01*
X132464307Y-59711519D01*
X132465315Y-59700002D01*
X132465315Y-59699999D01*
X132457416Y-59609712D01*
X132446092Y-59480281D01*
X132389007Y-59267238D01*
X132295795Y-59067344D01*
X132200895Y-58931812D01*
X132169286Y-58886669D01*
X132013330Y-58730713D01*
X131832662Y-58604208D01*
X131832654Y-58604204D01*
X131632769Y-58510996D01*
X131632755Y-58510991D01*
X131419724Y-58453910D01*
X131419722Y-58453909D01*
X131419720Y-58453909D01*
X131419718Y-58453908D01*
X131419714Y-58453908D01*
X131200002Y-58434686D01*
X131199998Y-58434686D01*
X130980285Y-58453908D01*
X130980275Y-58453910D01*
X130767244Y-58510991D01*
X130767235Y-58510995D01*
X130567344Y-58604205D01*
X130567342Y-58604206D01*
X130386668Y-58730714D01*
X130230713Y-58886669D01*
X130104205Y-59067343D01*
X130104204Y-59067345D01*
X130010994Y-59267236D01*
X130010990Y-59267245D01*
X129953909Y-59480276D01*
X129953907Y-59480286D01*
X129934685Y-59699999D01*
X129934685Y-59700002D01*
X129953907Y-59919715D01*
X129953910Y-59919732D01*
X129965340Y-59962391D01*
X129963676Y-60032241D01*
X129933246Y-60082163D01*
X129216696Y-60798714D01*
X128501270Y-61514140D01*
X128501267Y-61514143D01*
X128477552Y-61537858D01*
X128414142Y-61601267D01*
X128382340Y-61648863D01*
X128382339Y-61648864D01*
X128345690Y-61703709D01*
X128345686Y-61703717D01*
X128327473Y-61747688D01*
X128327474Y-61747689D01*
X128304256Y-61803744D01*
X128300748Y-61812212D01*
X128298537Y-61817549D01*
X128293276Y-61844001D01*
X128275239Y-61934685D01*
X128274862Y-61936578D01*
X128274856Y-61936607D01*
X128274500Y-61938394D01*
X128274500Y-67289547D01*
X128254815Y-67356586D01*
X128238181Y-67377228D01*
X122377229Y-73238181D01*
X122315906Y-73271666D01*
X122289548Y-73274500D01*
X117476617Y-73274500D01*
X117409578Y-73254815D01*
X117363823Y-73202011D01*
X117353879Y-73132853D01*
X117382904Y-73069297D01*
X117437613Y-73032794D01*
X117564016Y-72990908D01*
X117710850Y-72900340D01*
X117832840Y-72778350D01*
X117923408Y-72631516D01*
X117977674Y-72467753D01*
X117988000Y-72366677D01*
X117987999Y-71793324D01*
X117977674Y-71692247D01*
X117923408Y-71528484D01*
X117832840Y-71381650D01*
X117710850Y-71259660D01*
X117710847Y-71259657D01*
X117684401Y-71243345D01*
X117637678Y-71191397D01*
X117625500Y-71137808D01*
X117625500Y-69610452D01*
X117645185Y-69543413D01*
X117661814Y-69522776D01*
X120484591Y-66699999D01*
X125334685Y-66699999D01*
X125334685Y-66700002D01*
X125353907Y-66919715D01*
X125353909Y-66919725D01*
X125410990Y-67132756D01*
X125410995Y-67132770D01*
X125504203Y-67332655D01*
X125504207Y-67332663D01*
X125630712Y-67513331D01*
X125786669Y-67669288D01*
X125967337Y-67795793D01*
X125967339Y-67795794D01*
X125967342Y-67795796D01*
X126019435Y-67820087D01*
X126167230Y-67889005D01*
X126167232Y-67889005D01*
X126167237Y-67889008D01*
X126380280Y-67946093D01*
X126537222Y-67959823D01*
X126599998Y-67965316D01*
X126600000Y-67965316D01*
X126600002Y-67965316D01*
X126654930Y-67960510D01*
X126819720Y-67946093D01*
X127032763Y-67889008D01*
X127232658Y-67795796D01*
X127413329Y-67669289D01*
X127569288Y-67513330D01*
X127695795Y-67332659D01*
X127789007Y-67132764D01*
X127846092Y-66919721D01*
X127865315Y-66700001D01*
X127846092Y-66480281D01*
X127789007Y-66267238D01*
X127695795Y-66067344D01*
X127569288Y-65886672D01*
X127569286Y-65886669D01*
X127413330Y-65730713D01*
X127232662Y-65604208D01*
X127232654Y-65604204D01*
X127032769Y-65510996D01*
X127032755Y-65510991D01*
X126819724Y-65453910D01*
X126819722Y-65453909D01*
X126819720Y-65453909D01*
X126819718Y-65453908D01*
X126819714Y-65453908D01*
X126600002Y-65434686D01*
X126599998Y-65434686D01*
X126380285Y-65453908D01*
X126380275Y-65453910D01*
X126167244Y-65510991D01*
X126167237Y-65510993D01*
X126167237Y-65510994D01*
X126150651Y-65518728D01*
X125967344Y-65604205D01*
X125967342Y-65604206D01*
X125786668Y-65730714D01*
X125630713Y-65886669D01*
X125504205Y-66067343D01*
X125504204Y-66067345D01*
X125410994Y-66267236D01*
X125410990Y-66267245D01*
X125353909Y-66480276D01*
X125353907Y-66480286D01*
X125334685Y-66699999D01*
X120484591Y-66699999D01*
X123984590Y-63199999D01*
X125334685Y-63199999D01*
X125334685Y-63200002D01*
X125353907Y-63419715D01*
X125353909Y-63419725D01*
X125410990Y-63632756D01*
X125410995Y-63632770D01*
X125504203Y-63832655D01*
X125504207Y-63832663D01*
X125630712Y-64013331D01*
X125786669Y-64169288D01*
X125967337Y-64295793D01*
X125967339Y-64295794D01*
X125967342Y-64295796D01*
X126087603Y-64351874D01*
X126167230Y-64389005D01*
X126167232Y-64389005D01*
X126167237Y-64389008D01*
X126380280Y-64446093D01*
X126537222Y-64459823D01*
X126599998Y-64465316D01*
X126600000Y-64465316D01*
X126600002Y-64465316D01*
X126654930Y-64460510D01*
X126819720Y-64446093D01*
X127032763Y-64389008D01*
X127232658Y-64295796D01*
X127413329Y-64169289D01*
X127569288Y-64013330D01*
X127695795Y-63832659D01*
X127789007Y-63632764D01*
X127846092Y-63419721D01*
X127865315Y-63200001D01*
X127846092Y-62980281D01*
X127789007Y-62767238D01*
X127695795Y-62567344D01*
X127569288Y-62386672D01*
X127569287Y-62386671D01*
X127569286Y-62386669D01*
X127413330Y-62230713D01*
X127232662Y-62104208D01*
X127232654Y-62104204D01*
X127032769Y-62010996D01*
X127032755Y-62010991D01*
X126819724Y-61953910D01*
X126819722Y-61953909D01*
X126819720Y-61953909D01*
X126819718Y-61953908D01*
X126819714Y-61953908D01*
X126600002Y-61934686D01*
X126599998Y-61934686D01*
X126380285Y-61953908D01*
X126380275Y-61953910D01*
X126167244Y-62010991D01*
X126167235Y-62010995D01*
X125967344Y-62104205D01*
X125967342Y-62104206D01*
X125786668Y-62230714D01*
X125630713Y-62386669D01*
X125504205Y-62567343D01*
X125504204Y-62567345D01*
X125442005Y-62700733D01*
X125410994Y-62767237D01*
X125410990Y-62767245D01*
X125353909Y-62980276D01*
X125353907Y-62980286D01*
X125334685Y-63199999D01*
X123984590Y-63199999D01*
X126217838Y-60966751D01*
X126279159Y-60933268D01*
X126337612Y-60934660D01*
X126380272Y-60946091D01*
X126380273Y-60946091D01*
X126380280Y-60946093D01*
X126552520Y-60961162D01*
X126599998Y-60965316D01*
X126600000Y-60965316D01*
X126600002Y-60965316D01*
X126654930Y-60960510D01*
X126819720Y-60946093D01*
X127032763Y-60889008D01*
X127232658Y-60795796D01*
X127413329Y-60669289D01*
X127569288Y-60513330D01*
X127695795Y-60332659D01*
X127789007Y-60132764D01*
X127846092Y-59919721D01*
X127864307Y-59711519D01*
X127865315Y-59700002D01*
X127865315Y-59699999D01*
X127857416Y-59609712D01*
X127846092Y-59480281D01*
X127789007Y-59267238D01*
X127695795Y-59067344D01*
X127600895Y-58931812D01*
X127569286Y-58886669D01*
X127413330Y-58730713D01*
X127232662Y-58604208D01*
X127232654Y-58604204D01*
X127032769Y-58510996D01*
X127032755Y-58510991D01*
X126819724Y-58453910D01*
X126819722Y-58453909D01*
X126819720Y-58453909D01*
X126819718Y-58453908D01*
X126819714Y-58453908D01*
X126600002Y-58434686D01*
X126599998Y-58434686D01*
X126380285Y-58453908D01*
X126380275Y-58453910D01*
X126167244Y-58510991D01*
X126167235Y-58510995D01*
X125967344Y-58604205D01*
X125967342Y-58604206D01*
X125786668Y-58730714D01*
X125630713Y-58886669D01*
X125504205Y-59067343D01*
X125504204Y-59067345D01*
X125410994Y-59267236D01*
X125410990Y-59267245D01*
X125353909Y-59480276D01*
X125353907Y-59480286D01*
X125334685Y-59699999D01*
X125334685Y-59700002D01*
X125353907Y-59919715D01*
X125353910Y-59919732D01*
X125365340Y-59962391D01*
X125363676Y-60032241D01*
X125333246Y-60082163D01*
X116601270Y-68814140D01*
X116514142Y-68901267D01*
X116512211Y-68904157D01*
X116511282Y-68905549D01*
X116445688Y-69003715D01*
X116445684Y-69003721D01*
X116412347Y-69084208D01*
X116406823Y-69097544D01*
X116398537Y-69117546D01*
X116398535Y-69117554D01*
X116374500Y-69238390D01*
X116374500Y-71137808D01*
X116354815Y-71204847D01*
X116315599Y-71243345D01*
X116289152Y-71259657D01*
X116289149Y-71259660D01*
X116175181Y-71373629D01*
X116113858Y-71407114D01*
X116044166Y-71402130D01*
X115999819Y-71373629D01*
X115885851Y-71259661D01*
X115885850Y-71259660D01*
X115739016Y-71169092D01*
X115575253Y-71114826D01*
X115575251Y-71114825D01*
X115474178Y-71104500D01*
X114875830Y-71104500D01*
X114875812Y-71104501D01*
X114774747Y-71114825D01*
X114610984Y-71169092D01*
X114610981Y-71169093D01*
X114464148Y-71259661D01*
X114342160Y-71381649D01*
X114342159Y-71381651D01*
X114333558Y-71395596D01*
X114281610Y-71442321D01*
X114228019Y-71454500D01*
X111847144Y-71454500D01*
X111780105Y-71434815D01*
X111751670Y-71405853D01*
X111749820Y-71407317D01*
X111745338Y-71401649D01*
X111623350Y-71279661D01*
X111623349Y-71279660D01*
X111480252Y-71191397D01*
X111476517Y-71189093D01*
X111476512Y-71189091D01*
X111416156Y-71169091D01*
X111312752Y-71134826D01*
X111312750Y-71134825D01*
X111211677Y-71124500D01*
X110538329Y-71124500D01*
X110538311Y-71124501D01*
X110437246Y-71134825D01*
X110273483Y-71189092D01*
X110273480Y-71189093D01*
X110126647Y-71279661D01*
X110087680Y-71318628D01*
X110026357Y-71352113D01*
X109956665Y-71347127D01*
X109912320Y-71318628D01*
X109873352Y-71279661D01*
X109873351Y-71279660D01*
X109730254Y-71191397D01*
X109726519Y-71189093D01*
X109726514Y-71189091D01*
X109666158Y-71169091D01*
X109562754Y-71134826D01*
X109562752Y-71134825D01*
X109461679Y-71124500D01*
X108788331Y-71124500D01*
X108788313Y-71124501D01*
X108687248Y-71134825D01*
X108523485Y-71189092D01*
X108523482Y-71189093D01*
X108376649Y-71279661D01*
X108254662Y-71401648D01*
X108164094Y-71548481D01*
X108164093Y-71548484D01*
X108109827Y-71712247D01*
X108109827Y-71712248D01*
X108109826Y-71712248D01*
X108099501Y-71813315D01*
X89671275Y-71813315D01*
X93522772Y-67961819D01*
X93584095Y-67928334D01*
X93610453Y-67925500D01*
X95435607Y-67925500D01*
X95496029Y-67913481D01*
X95556452Y-67901463D01*
X95556455Y-67901461D01*
X95556458Y-67901461D01*
X95589787Y-67887654D01*
X95589786Y-67887654D01*
X95589792Y-67887652D01*
X95670286Y-67854312D01*
X95721509Y-67820084D01*
X95772733Y-67785858D01*
X95859858Y-67698733D01*
X95859859Y-67698731D01*
X95866925Y-67691665D01*
X95866928Y-67691661D01*
X97112838Y-66445750D01*
X97174159Y-66412267D01*
X97232612Y-66413659D01*
X97275272Y-66425090D01*
X97275273Y-66425090D01*
X97275280Y-66425092D01*
X97462277Y-66441452D01*
X97494998Y-66444315D01*
X97495000Y-66444315D01*
X97495002Y-66444315D01*
X97549930Y-66439509D01*
X97714720Y-66425092D01*
X97927763Y-66368007D01*
X98127658Y-66274795D01*
X98308329Y-66148288D01*
X98464288Y-65992329D01*
X98590795Y-65811658D01*
X98684007Y-65611763D01*
X98741092Y-65398720D01*
X98760315Y-65179000D01*
X98741092Y-64959280D01*
X98684007Y-64746237D01*
X98590795Y-64546343D01*
X98464288Y-64365671D01*
X98464286Y-64365668D01*
X98308330Y-64209712D01*
X98127662Y-64083207D01*
X98127654Y-64083203D01*
X97927769Y-63989995D01*
X97927755Y-63989990D01*
X97714724Y-63932909D01*
X97714722Y-63932908D01*
X97714720Y-63932908D01*
X97714718Y-63932907D01*
X97714714Y-63932907D01*
X97495002Y-63913685D01*
X97494998Y-63913685D01*
X97275285Y-63932907D01*
X97275275Y-63932909D01*
X97062244Y-63989990D01*
X97062235Y-63989994D01*
X96862344Y-64083204D01*
X96862342Y-64083205D01*
X96681668Y-64209713D01*
X96525713Y-64365668D01*
X96431218Y-64500623D01*
X96376641Y-64544248D01*
X96329643Y-64553500D01*
X96223452Y-64553500D01*
X96156413Y-64533815D01*
X96135771Y-64517181D01*
X93649539Y-62030949D01*
X93616054Y-61969626D01*
X93621038Y-61899934D01*
X93662910Y-61844001D01*
X93728374Y-61819584D01*
X93769311Y-61823492D01*
X93775280Y-61825092D01*
X93932222Y-61838822D01*
X93994998Y-61844315D01*
X93995000Y-61844315D01*
X93995002Y-61844315D01*
X94050059Y-61839498D01*
X94214720Y-61825092D01*
X94427763Y-61768007D01*
X94627658Y-61674795D01*
X94808329Y-61548288D01*
X94964288Y-61392329D01*
X95058783Y-61257376D01*
X95113360Y-61213752D01*
X95160358Y-61204500D01*
X95307607Y-61204500D01*
X95368029Y-61192481D01*
X95428452Y-61180463D01*
X95481217Y-61158607D01*
X95542286Y-61133312D01*
X95599164Y-61095306D01*
X95644733Y-61064858D01*
X95731858Y-60977733D01*
X95731859Y-60977731D01*
X95738925Y-60970665D01*
X95738928Y-60970661D01*
X96033682Y-60675906D01*
X96095003Y-60642423D01*
X96164695Y-60647407D01*
X96220628Y-60689279D01*
X96244889Y-60752782D01*
X96248907Y-60798714D01*
X96248909Y-60798724D01*
X96305990Y-61011755D01*
X96305995Y-61011769D01*
X96399203Y-61211654D01*
X96399207Y-61211662D01*
X96525712Y-61392330D01*
X96681669Y-61548287D01*
X96862337Y-61674792D01*
X96862339Y-61674793D01*
X96862342Y-61674795D01*
X96908990Y-61696547D01*
X97062230Y-61768004D01*
X97062232Y-61768004D01*
X97062237Y-61768007D01*
X97062242Y-61768008D01*
X97062244Y-61768009D01*
X97083797Y-61773784D01*
X97275280Y-61825092D01*
X97432222Y-61838822D01*
X97494998Y-61844315D01*
X97495000Y-61844315D01*
X97495002Y-61844315D01*
X97550059Y-61839498D01*
X97714720Y-61825092D01*
X97927763Y-61768007D01*
X98127658Y-61674795D01*
X98308329Y-61548288D01*
X98464288Y-61392329D01*
X98590795Y-61211658D01*
X98684007Y-61011763D01*
X98741092Y-60798720D01*
X98760315Y-60579000D01*
X98760315Y-60578998D01*
X99729685Y-60578998D01*
X99729685Y-60579001D01*
X99748907Y-60798714D01*
X99748909Y-60798724D01*
X99805990Y-61011755D01*
X99805995Y-61011769D01*
X99899203Y-61211654D01*
X99899207Y-61211662D01*
X100025712Y-61392330D01*
X100181669Y-61548287D01*
X100362337Y-61674792D01*
X100362339Y-61674793D01*
X100362342Y-61674795D01*
X100408990Y-61696547D01*
X100562230Y-61768004D01*
X100562232Y-61768004D01*
X100562237Y-61768007D01*
X100562242Y-61768008D01*
X100562244Y-61768009D01*
X100583797Y-61773784D01*
X100775280Y-61825092D01*
X100932222Y-61838822D01*
X100994998Y-61844315D01*
X100995000Y-61844315D01*
X100995002Y-61844315D01*
X101025454Y-61841650D01*
X101214720Y-61825092D01*
X101257386Y-61813659D01*
X101327234Y-61815320D01*
X101377160Y-61845750D01*
X101617707Y-62086298D01*
X101681268Y-62149859D01*
X101783710Y-62218309D01*
X101783711Y-62218309D01*
X101783715Y-62218312D01*
X101850396Y-62245931D01*
X101850398Y-62245933D01*
X101880129Y-62258247D01*
X101897548Y-62265463D01*
X102018394Y-62289500D01*
X102141607Y-62289500D01*
X104666126Y-62289500D01*
X104733165Y-62309185D01*
X104778920Y-62361989D01*
X104788864Y-62431147D01*
X104759839Y-62494703D01*
X104753807Y-62501181D01*
X102737807Y-64517181D01*
X102676484Y-64550666D01*
X102650126Y-64553500D01*
X102160357Y-64553500D01*
X102093318Y-64533815D01*
X102058782Y-64500623D01*
X101964286Y-64365668D01*
X101808330Y-64209712D01*
X101627662Y-64083207D01*
X101627654Y-64083203D01*
X101427769Y-63989995D01*
X101427755Y-63989990D01*
X101214724Y-63932909D01*
X101214722Y-63932908D01*
X101214720Y-63932908D01*
X101214718Y-63932907D01*
X101214714Y-63932907D01*
X100995002Y-63913685D01*
X100994998Y-63913685D01*
X100775285Y-63932907D01*
X100775275Y-63932909D01*
X100562244Y-63989990D01*
X100562235Y-63989994D01*
X100362344Y-64083204D01*
X100362342Y-64083205D01*
X100181668Y-64209713D01*
X100025713Y-64365668D01*
X99899205Y-64546342D01*
X99899204Y-64546344D01*
X99805994Y-64746235D01*
X99805990Y-64746244D01*
X99748909Y-64959275D01*
X99748907Y-64959285D01*
X99729685Y-65178998D01*
X99729685Y-65179001D01*
X99748907Y-65398714D01*
X99748909Y-65398724D01*
X99805990Y-65611755D01*
X99805995Y-65611769D01*
X99899203Y-65811654D01*
X99899207Y-65811662D01*
X100025712Y-65992330D01*
X100181669Y-66148287D01*
X100362337Y-66274792D01*
X100362339Y-66274793D01*
X100362342Y-66274795D01*
X100394328Y-66289710D01*
X100562230Y-66368004D01*
X100562232Y-66368004D01*
X100562237Y-66368007D01*
X100775280Y-66425092D01*
X100911378Y-66436999D01*
X100994998Y-66444315D01*
X100995000Y-66444315D01*
X100995002Y-66444315D01*
X101049930Y-66439509D01*
X101214720Y-66425092D01*
X101427763Y-66368007D01*
X101627658Y-66274795D01*
X101808329Y-66148288D01*
X101964288Y-65992329D01*
X102058783Y-65857376D01*
X102113360Y-65813752D01*
X102160358Y-65804500D01*
X103022185Y-65804500D01*
X103082607Y-65792481D01*
X103143030Y-65780463D01*
X103143033Y-65780461D01*
X103143036Y-65780461D01*
X103176365Y-65766654D01*
X103176364Y-65766654D01*
X103176370Y-65766652D01*
X103235879Y-65742003D01*
X103305346Y-65734537D01*
X103367825Y-65765813D01*
X103395708Y-65804158D01*
X103399205Y-65811658D01*
X103525713Y-65992331D01*
X103681669Y-66148287D01*
X103862337Y-66274792D01*
X103862339Y-66274793D01*
X103862342Y-66274795D01*
X103894328Y-66289710D01*
X104062230Y-66368004D01*
X104062232Y-66368004D01*
X104062237Y-66368007D01*
X104275280Y-66425092D01*
X104411378Y-66436999D01*
X104494998Y-66444315D01*
X104495000Y-66444315D01*
X104495002Y-66444315D01*
X104549930Y-66439509D01*
X104714720Y-66425092D01*
X104927763Y-66368007D01*
X105127658Y-66274795D01*
X105308329Y-66148288D01*
X105464288Y-65992329D01*
X105558783Y-65857376D01*
X105613360Y-65813752D01*
X105660358Y-65804500D01*
X107826607Y-65804500D01*
X107887029Y-65792481D01*
X107947452Y-65780463D01*
X107947455Y-65780461D01*
X107947458Y-65780461D01*
X107980787Y-65766654D01*
X107980786Y-65766654D01*
X107980792Y-65766652D01*
X108061286Y-65733312D01*
X108126852Y-65689501D01*
X108163733Y-65664858D01*
X108250858Y-65577733D01*
X108250859Y-65577731D01*
X108257925Y-65570665D01*
X108257927Y-65570661D01*
X110967607Y-62860983D01*
X113082500Y-62860983D01*
X113082500Y-63461001D01*
X113082501Y-63461019D01*
X113093000Y-63563796D01*
X113093001Y-63563799D01*
X113115854Y-63632763D01*
X113148186Y-63730334D01*
X113240288Y-63879656D01*
X113364344Y-64003712D01*
X113513666Y-64095814D01*
X113680203Y-64150999D01*
X113782991Y-64161500D01*
X116183008Y-64161499D01*
X116285797Y-64150999D01*
X116452334Y-64095814D01*
X116601656Y-64003712D01*
X116725712Y-63879656D01*
X116817814Y-63730334D01*
X116872999Y-63563797D01*
X116883500Y-63461009D01*
X116883499Y-62860992D01*
X116882529Y-62851500D01*
X116872999Y-62758203D01*
X116872998Y-62758200D01*
X116833770Y-62639819D01*
X116817814Y-62591666D01*
X116725712Y-62442344D01*
X116601656Y-62318288D01*
X116459675Y-62230714D01*
X116452336Y-62226187D01*
X116452331Y-62226185D01*
X116428563Y-62218309D01*
X116285797Y-62171001D01*
X116285795Y-62171000D01*
X116183010Y-62160500D01*
X113782998Y-62160500D01*
X113782981Y-62160501D01*
X113680203Y-62171000D01*
X113680200Y-62171001D01*
X113513668Y-62226185D01*
X113513663Y-62226187D01*
X113364342Y-62318289D01*
X113240289Y-62442342D01*
X113148187Y-62591663D01*
X113148186Y-62591666D01*
X113093001Y-62758203D01*
X113093001Y-62758204D01*
X113093000Y-62758204D01*
X113082500Y-62860983D01*
X110967607Y-62860983D01*
X111680771Y-62147819D01*
X111742094Y-62114334D01*
X111768452Y-62111500D01*
X112398686Y-62111500D01*
X112398694Y-62111500D01*
X112435569Y-62108598D01*
X112435571Y-62108597D01*
X112435573Y-62108597D01*
X112484349Y-62094426D01*
X112593398Y-62062744D01*
X112734865Y-61979081D01*
X112851081Y-61862865D01*
X112934744Y-61721398D01*
X112969646Y-61601267D01*
X112980597Y-61563573D01*
X112980598Y-61563567D01*
X112983500Y-61526694D01*
X112983500Y-61095306D01*
X112980598Y-61058431D01*
X112974807Y-61038500D01*
X112934745Y-60900606D01*
X112934744Y-60900603D01*
X112934744Y-60900602D01*
X112851081Y-60759135D01*
X112847110Y-60752420D01*
X112849083Y-60751252D01*
X112827769Y-60696965D01*
X112841448Y-60628447D01*
X112847136Y-60619595D01*
X112847110Y-60619580D01*
X112871108Y-60579001D01*
X112934744Y-60471398D01*
X112980598Y-60313569D01*
X112983500Y-60276694D01*
X112983500Y-59845306D01*
X112980598Y-59808431D01*
X112969762Y-59771135D01*
X112934745Y-59650606D01*
X112934744Y-59650603D01*
X112934744Y-59650602D01*
X112851081Y-59509135D01*
X112847110Y-59502420D01*
X112849083Y-59501252D01*
X112827769Y-59446965D01*
X112841448Y-59378447D01*
X112847136Y-59369595D01*
X112847110Y-59369580D01*
X112862037Y-59344340D01*
X112934744Y-59221398D01*
X112980598Y-59063569D01*
X112983500Y-59026694D01*
X112983500Y-58595306D01*
X112980598Y-58558431D01*
X112969820Y-58521334D01*
X112934745Y-58400606D01*
X112934744Y-58400603D01*
X112934744Y-58400602D01*
X112851081Y-58259135D01*
X112847110Y-58252420D01*
X112849083Y-58251252D01*
X112827769Y-58196965D01*
X112841448Y-58128447D01*
X112847136Y-58119595D01*
X112847110Y-58119580D01*
X112888121Y-58050233D01*
X112934744Y-57971398D01*
X112971136Y-57846137D01*
X123315500Y-57846137D01*
X123315500Y-58053864D01*
X123356022Y-58257579D01*
X123356025Y-58257591D01*
X123435511Y-58449489D01*
X123435512Y-58449491D01*
X123550916Y-58622204D01*
X123550919Y-58622208D01*
X123697792Y-58769081D01*
X123697796Y-58769084D01*
X123870507Y-58884487D01*
X123870508Y-58884487D01*
X123870509Y-58884488D01*
X123870511Y-58884489D01*
X124009354Y-58941999D01*
X124062414Y-58963977D01*
X124230935Y-58997498D01*
X124266136Y-59004500D01*
X124266139Y-59004501D01*
X124266141Y-59004501D01*
X124473861Y-59004501D01*
X124473862Y-59004500D01*
X124677586Y-58963977D01*
X124869493Y-58884487D01*
X125042204Y-58769084D01*
X125189083Y-58622205D01*
X125304486Y-58449494D01*
X125383976Y-58257587D01*
X125424500Y-58053860D01*
X125424500Y-57846142D01*
X125424500Y-57846139D01*
X125424499Y-57846137D01*
X125394830Y-57696983D01*
X125383976Y-57642415D01*
X125383974Y-57642410D01*
X125304488Y-57450512D01*
X125304487Y-57450510D01*
X125301534Y-57446091D01*
X125189083Y-57277797D01*
X125189080Y-57277793D01*
X125042207Y-57130920D01*
X125042203Y-57130917D01*
X124869490Y-57015513D01*
X124869488Y-57015512D01*
X124677590Y-56936026D01*
X124677578Y-56936023D01*
X124473862Y-56895501D01*
X124473859Y-56895501D01*
X124266141Y-56895501D01*
X124266138Y-56895501D01*
X124062421Y-56936023D01*
X124062409Y-56936026D01*
X123870511Y-57015512D01*
X123870509Y-57015513D01*
X123697796Y-57130917D01*
X123697792Y-57130920D01*
X123550919Y-57277793D01*
X123550916Y-57277797D01*
X123435512Y-57450510D01*
X123435511Y-57450512D01*
X123356025Y-57642410D01*
X123356022Y-57642422D01*
X123315500Y-57846137D01*
X112971136Y-57846137D01*
X112980598Y-57813569D01*
X112983500Y-57776694D01*
X112983500Y-57345306D01*
X112980598Y-57308431D01*
X112976927Y-57295797D01*
X112934745Y-57150606D01*
X112934744Y-57150603D01*
X112934744Y-57150602D01*
X112851081Y-57009135D01*
X112851079Y-57009133D01*
X112851076Y-57009129D01*
X112734870Y-56892923D01*
X112734862Y-56892917D01*
X112593396Y-56809255D01*
X112593393Y-56809254D01*
X112435573Y-56763402D01*
X112435567Y-56763401D01*
X112398701Y-56760500D01*
X112398694Y-56760500D01*
X110867306Y-56760500D01*
X110867298Y-56760500D01*
X110830432Y-56763401D01*
X110830426Y-56763402D01*
X110672606Y-56809254D01*
X110672603Y-56809255D01*
X110531137Y-56892917D01*
X110531129Y-56892923D01*
X110524872Y-56899181D01*
X110463549Y-56932666D01*
X110437191Y-56935500D01*
X107580741Y-56935500D01*
X107580721Y-56935499D01*
X107574607Y-56935499D01*
X107451394Y-56935499D01*
X107350597Y-56955548D01*
X107350592Y-56955548D01*
X107330549Y-56959536D01*
X107330547Y-56959536D01*
X107283397Y-56979067D01*
X107216719Y-57006685D01*
X107216717Y-57006686D01*
X107114266Y-57075141D01*
X107114263Y-57075144D01*
X104877162Y-59312246D01*
X104815839Y-59345731D01*
X104757390Y-59344340D01*
X104714731Y-59332910D01*
X104714714Y-59332907D01*
X104495002Y-59313685D01*
X104494998Y-59313685D01*
X104275285Y-59332907D01*
X104275275Y-59332909D01*
X104062244Y-59389990D01*
X104062237Y-59389992D01*
X104062237Y-59389993D01*
X104058784Y-59391603D01*
X103862344Y-59483204D01*
X103862342Y-59483205D01*
X103681668Y-59609713D01*
X103525713Y-59765668D01*
X103399205Y-59946342D01*
X103399204Y-59946344D01*
X103305994Y-60146235D01*
X103305990Y-60146244D01*
X103248909Y-60359275D01*
X103248907Y-60359285D01*
X103229685Y-60578998D01*
X103229685Y-60579001D01*
X103248907Y-60798714D01*
X103248908Y-60798721D01*
X103271332Y-60882406D01*
X103269669Y-60952256D01*
X103230507Y-61010119D01*
X103166278Y-61037623D01*
X103151557Y-61038500D01*
X102390454Y-61038500D01*
X102323415Y-61018815D01*
X102302774Y-61002182D01*
X102261753Y-60961162D01*
X102228267Y-60899840D01*
X102229658Y-60841387D01*
X102241092Y-60798720D01*
X102260315Y-60579000D01*
X102241092Y-60359280D01*
X102184007Y-60146237D01*
X102090795Y-59946343D01*
X101964288Y-59765671D01*
X101964286Y-59765668D01*
X101808330Y-59609712D01*
X101627662Y-59483207D01*
X101627654Y-59483203D01*
X101427769Y-59389995D01*
X101427755Y-59389990D01*
X101214724Y-59332909D01*
X101214722Y-59332908D01*
X101214720Y-59332908D01*
X101214718Y-59332907D01*
X101214714Y-59332907D01*
X100995002Y-59313685D01*
X100994998Y-59313685D01*
X100775285Y-59332907D01*
X100775275Y-59332909D01*
X100562244Y-59389990D01*
X100562237Y-59389992D01*
X100562237Y-59389993D01*
X100558784Y-59391603D01*
X100362344Y-59483204D01*
X100362342Y-59483205D01*
X100181668Y-59609713D01*
X100025713Y-59765668D01*
X99899205Y-59946342D01*
X99899204Y-59946344D01*
X99805994Y-60146235D01*
X99805990Y-60146244D01*
X99748909Y-60359275D01*
X99748907Y-60359285D01*
X99729685Y-60578998D01*
X98760315Y-60578998D01*
X98741092Y-60359280D01*
X98729659Y-60316611D01*
X98731320Y-60246762D01*
X98761750Y-60196838D01*
X103547606Y-55410983D01*
X113082500Y-55410983D01*
X113082500Y-56011001D01*
X113082501Y-56011019D01*
X113093000Y-56113796D01*
X113093001Y-56113799D01*
X113143815Y-56267144D01*
X113148186Y-56280334D01*
X113240288Y-56429656D01*
X113364344Y-56553712D01*
X113513666Y-56645814D01*
X113680203Y-56700999D01*
X113782991Y-56711500D01*
X116183008Y-56711499D01*
X116285797Y-56700999D01*
X116452334Y-56645814D01*
X116601656Y-56553712D01*
X116725712Y-56429656D01*
X116817814Y-56280334D01*
X116844434Y-56199999D01*
X125334685Y-56199999D01*
X125334685Y-56200002D01*
X125353907Y-56419715D01*
X125353909Y-56419725D01*
X125410990Y-56632756D01*
X125410995Y-56632770D01*
X125504203Y-56832655D01*
X125504207Y-56832663D01*
X125630712Y-57013331D01*
X125786669Y-57169288D01*
X125967337Y-57295793D01*
X125967339Y-57295794D01*
X125967342Y-57295796D01*
X126073500Y-57345298D01*
X126167230Y-57389005D01*
X126167232Y-57389005D01*
X126167237Y-57389008D01*
X126380280Y-57446093D01*
X126537222Y-57459823D01*
X126599998Y-57465316D01*
X126600000Y-57465316D01*
X126600002Y-57465316D01*
X126660762Y-57460000D01*
X126819720Y-57446093D01*
X127032763Y-57389008D01*
X127232658Y-57295796D01*
X127413329Y-57169289D01*
X127569288Y-57013330D01*
X127695795Y-56832659D01*
X127789007Y-56632764D01*
X127846092Y-56419721D01*
X127865315Y-56200001D01*
X127846092Y-55980281D01*
X127789007Y-55767238D01*
X127695795Y-55567344D01*
X127573128Y-55392156D01*
X129940000Y-55392156D01*
X129940000Y-55950001D01*
X130755440Y-55950001D01*
X130724755Y-56003148D01*
X130690000Y-56132858D01*
X130690000Y-56267144D01*
X130724755Y-56396854D01*
X130755440Y-56450001D01*
X129940000Y-56450001D01*
X129940000Y-57007845D01*
X129946401Y-57067373D01*
X129946403Y-57067380D01*
X129996645Y-57202087D01*
X129996649Y-57202094D01*
X130082809Y-57317188D01*
X130082812Y-57317191D01*
X130197906Y-57403351D01*
X130197913Y-57403355D01*
X130332620Y-57453597D01*
X130332627Y-57453599D01*
X130392155Y-57460000D01*
X130392172Y-57460001D01*
X130950000Y-57460001D01*
X130950000Y-56644561D01*
X131003147Y-56675246D01*
X131132857Y-56710001D01*
X131267143Y-56710001D01*
X131396853Y-56675246D01*
X131450000Y-56644561D01*
X131450000Y-57460001D01*
X132007828Y-57460001D01*
X132007844Y-57460000D01*
X132067372Y-57453599D01*
X132067379Y-57453597D01*
X132202086Y-57403355D01*
X132202093Y-57403351D01*
X132317187Y-57317191D01*
X132317190Y-57317188D01*
X132403350Y-57202094D01*
X132403354Y-57202087D01*
X132453596Y-57067380D01*
X132453598Y-57067373D01*
X132459999Y-57007845D01*
X132460000Y-57007828D01*
X132460000Y-56450001D01*
X131644560Y-56450001D01*
X131675245Y-56396854D01*
X131710000Y-56267144D01*
X131710000Y-56132858D01*
X131675245Y-56003148D01*
X131644560Y-55950001D01*
X132460000Y-55950001D01*
X132460000Y-55392173D01*
X132459999Y-55392156D01*
X132453598Y-55332628D01*
X132453596Y-55332621D01*
X132403354Y-55197914D01*
X132403350Y-55197907D01*
X132317190Y-55082813D01*
X132317187Y-55082810D01*
X132202093Y-54996650D01*
X132202086Y-54996646D01*
X132067379Y-54946404D01*
X132067372Y-54946402D01*
X132007844Y-54940001D01*
X131450000Y-54940001D01*
X131450000Y-55755440D01*
X131396853Y-55724756D01*
X131267143Y-55690001D01*
X131132857Y-55690001D01*
X131003147Y-55724756D01*
X130950000Y-55755440D01*
X130950000Y-54940001D01*
X130392155Y-54940001D01*
X130332627Y-54946402D01*
X130332620Y-54946404D01*
X130197913Y-54996646D01*
X130197906Y-54996650D01*
X130082812Y-55082810D01*
X130082809Y-55082813D01*
X129996649Y-55197907D01*
X129996645Y-55197914D01*
X129946403Y-55332621D01*
X129946401Y-55332628D01*
X129940000Y-55392156D01*
X127573128Y-55392156D01*
X127569288Y-55386672D01*
X127569286Y-55386669D01*
X127413330Y-55230713D01*
X127232662Y-55104208D01*
X127232654Y-55104204D01*
X127032769Y-55010996D01*
X127032755Y-55010991D01*
X126819724Y-54953910D01*
X126819722Y-54953909D01*
X126819720Y-54953909D01*
X126819718Y-54953908D01*
X126819714Y-54953908D01*
X126600002Y-54934686D01*
X126599998Y-54934686D01*
X126380285Y-54953908D01*
X126380275Y-54953910D01*
X126167244Y-55010991D01*
X126167235Y-55010995D01*
X125967344Y-55104205D01*
X125967342Y-55104206D01*
X125786668Y-55230714D01*
X125630713Y-55386669D01*
X125504205Y-55567343D01*
X125504204Y-55567345D01*
X125410994Y-55767236D01*
X125410990Y-55767245D01*
X125353909Y-55980276D01*
X125353907Y-55980286D01*
X125334685Y-56199999D01*
X116844434Y-56199999D01*
X116872999Y-56113797D01*
X116883500Y-56011009D01*
X116883499Y-55410992D01*
X116881014Y-55386669D01*
X116872999Y-55308203D01*
X116872998Y-55308200D01*
X116817814Y-55141666D01*
X116725712Y-54992344D01*
X116601656Y-54868288D01*
X116452334Y-54776186D01*
X116285797Y-54721001D01*
X116285795Y-54721000D01*
X116183010Y-54710500D01*
X113782998Y-54710500D01*
X113782981Y-54710501D01*
X113680203Y-54721000D01*
X113680200Y-54721001D01*
X113513668Y-54776185D01*
X113513663Y-54776187D01*
X113364342Y-54868289D01*
X113240289Y-54992342D01*
X113148187Y-55141663D01*
X113148185Y-55141668D01*
X113129547Y-55197914D01*
X113093001Y-55308203D01*
X113093001Y-55308204D01*
X113093000Y-55308204D01*
X113082500Y-55410983D01*
X103547606Y-55410983D01*
X112808858Y-46149733D01*
X112877312Y-46047285D01*
X112924194Y-45934099D01*
X112951075Y-45893870D01*
X112991081Y-45853865D01*
X113074744Y-45712398D01*
X113120598Y-45554569D01*
X113123500Y-45517694D01*
X113123500Y-43986306D01*
X113120598Y-43949431D01*
X113074744Y-43791602D01*
X112991081Y-43650135D01*
X112991079Y-43650133D01*
X112991076Y-43650129D01*
X112874870Y-43533923D01*
X112874862Y-43533917D01*
X112733396Y-43450255D01*
X112733393Y-43450254D01*
X112575573Y-43404402D01*
X112575567Y-43404401D01*
X112538701Y-43401500D01*
X112538694Y-43401500D01*
X112107306Y-43401500D01*
X112107298Y-43401500D01*
X112070432Y-43404401D01*
X112070426Y-43404402D01*
X111912606Y-43450254D01*
X111912603Y-43450255D01*
X111764420Y-43537890D01*
X111763254Y-43535919D01*
X111708942Y-43557232D01*
X111640427Y-43543540D01*
X111631595Y-43537864D01*
X111631580Y-43537890D01*
X111483396Y-43450255D01*
X111483393Y-43450254D01*
X111325573Y-43404402D01*
X111325567Y-43404401D01*
X111288701Y-43401500D01*
X111288694Y-43401500D01*
X110857306Y-43401500D01*
X110857298Y-43401500D01*
X110820432Y-43404401D01*
X110820426Y-43404402D01*
X110662606Y-43450254D01*
X110662603Y-43450255D01*
X110521137Y-43533917D01*
X110521129Y-43533923D01*
X110404923Y-43650129D01*
X110404917Y-43650137D01*
X110321255Y-43791603D01*
X110321254Y-43791606D01*
X110275402Y-43949426D01*
X110275401Y-43949432D01*
X110272500Y-43986298D01*
X110272500Y-44616547D01*
X110252815Y-44683586D01*
X110236181Y-44704228D01*
X95155453Y-59784955D01*
X95094130Y-59818440D01*
X95024438Y-59813456D01*
X94968505Y-59771584D01*
X94966196Y-59768396D01*
X94964290Y-59765674D01*
X94964288Y-59765671D01*
X94808329Y-59609712D01*
X94808328Y-59609711D01*
X94808327Y-59609710D01*
X94627662Y-59483207D01*
X94627654Y-59483203D01*
X94427769Y-59389995D01*
X94427755Y-59389990D01*
X94214724Y-59332909D01*
X94214722Y-59332908D01*
X94214720Y-59332908D01*
X94214718Y-59332907D01*
X94214714Y-59332907D01*
X93995002Y-59313685D01*
X93994998Y-59313685D01*
X93775285Y-59332907D01*
X93775275Y-59332909D01*
X93562244Y-59389990D01*
X93562237Y-59389992D01*
X93562237Y-59389993D01*
X93558784Y-59391603D01*
X93362344Y-59483204D01*
X93362342Y-59483205D01*
X93276623Y-59543226D01*
X93210416Y-59565554D01*
X93142649Y-59548542D01*
X93094837Y-59497594D01*
X93081500Y-59441651D01*
X93081500Y-54042741D01*
X93081501Y-54042720D01*
X93081501Y-53913391D01*
X93057464Y-53792555D01*
X93057463Y-53792549D01*
X93010312Y-53678715D01*
X92941858Y-53576267D01*
X92941855Y-53576263D01*
X91297928Y-51932338D01*
X91297925Y-51932334D01*
X91297925Y-51932335D01*
X91290858Y-51925268D01*
X91290858Y-51925267D01*
X91203733Y-51838142D01*
X91203732Y-51838141D01*
X91203731Y-51838140D01*
X91152509Y-51803915D01*
X91101286Y-51769688D01*
X91101283Y-51769686D01*
X91101280Y-51769685D01*
X91020792Y-51736347D01*
X90987453Y-51722537D01*
X90977427Y-51720543D01*
X90927029Y-51710518D01*
X90866610Y-51698500D01*
X90866607Y-51698500D01*
X90866606Y-51698500D01*
X77777360Y-51698500D01*
X77710321Y-51678815D01*
X77664566Y-51626011D01*
X77654622Y-51556853D01*
X77683647Y-51493297D01*
X77689679Y-51486819D01*
X83212680Y-45963819D01*
X83274003Y-45930334D01*
X83300361Y-45927500D01*
X83654686Y-45927500D01*
X83654694Y-45927500D01*
X83691569Y-45924598D01*
X83691571Y-45924597D01*
X83691573Y-45924597D01*
X83797334Y-45893870D01*
X83849398Y-45878744D01*
X83990865Y-45795081D01*
X84107081Y-45678865D01*
X84190744Y-45537398D01*
X84236598Y-45379569D01*
X84239500Y-45342694D01*
X84239500Y-43811306D01*
X84236598Y-43774431D01*
X84217009Y-43707007D01*
X84190745Y-43616606D01*
X84190744Y-43616603D01*
X84190744Y-43616602D01*
X84107081Y-43475135D01*
X84107079Y-43475133D01*
X84107076Y-43475129D01*
X83990870Y-43358923D01*
X83990862Y-43358917D01*
X83849396Y-43275255D01*
X83849393Y-43275254D01*
X83691573Y-43229402D01*
X83691567Y-43229401D01*
X83654701Y-43226500D01*
X83654694Y-43226500D01*
X83223306Y-43226500D01*
X83223298Y-43226500D01*
X83186432Y-43229401D01*
X83186426Y-43229402D01*
X83028606Y-43275254D01*
X83028603Y-43275255D01*
X82880420Y-43362890D01*
X82879254Y-43360919D01*
X82824942Y-43382232D01*
X82756427Y-43368540D01*
X82747595Y-43362864D01*
X82747580Y-43362890D01*
X82645465Y-43302500D01*
X82599398Y-43275256D01*
X82599397Y-43275255D01*
X82599396Y-43275255D01*
X82599393Y-43275254D01*
X82441573Y-43229402D01*
X82441567Y-43229401D01*
X82404701Y-43226500D01*
X82404694Y-43226500D01*
X81973306Y-43226500D01*
X81973298Y-43226500D01*
X81936432Y-43229401D01*
X81936426Y-43229402D01*
X81778606Y-43275254D01*
X81778603Y-43275255D01*
X81637137Y-43358917D01*
X81637129Y-43358923D01*
X81520923Y-43475129D01*
X81520917Y-43475137D01*
X81437255Y-43616603D01*
X81437254Y-43616606D01*
X81391402Y-43774426D01*
X81391401Y-43774432D01*
X81388500Y-43811298D01*
X81388500Y-44441547D01*
X81368815Y-44508586D01*
X81352181Y-44529228D01*
X73725725Y-52155683D01*
X73664402Y-52189168D01*
X73594710Y-52184184D01*
X73538777Y-52142312D01*
X73520114Y-52106322D01*
X73471179Y-51955716D01*
X73376533Y-51791784D01*
X73249871Y-51651112D01*
X73249870Y-51651111D01*
X73096734Y-51539851D01*
X73096729Y-51539848D01*
X72923807Y-51462857D01*
X72923802Y-51462855D01*
X72778001Y-51431865D01*
X72738646Y-51423500D01*
X72549354Y-51423500D01*
X72516897Y-51430398D01*
X72364197Y-51462855D01*
X72364192Y-51462857D01*
X72191270Y-51539848D01*
X72191265Y-51539851D01*
X72038130Y-51651110D01*
X72038126Y-51651114D01*
X72032400Y-51657474D01*
X71972913Y-51694121D01*
X71940252Y-51698500D01*
X62540453Y-51698500D01*
X62473414Y-51678815D01*
X62452772Y-51662181D01*
X55573819Y-44783228D01*
X55540334Y-44721905D01*
X55537500Y-44695547D01*
X55537500Y-43811313D01*
X55537499Y-43811298D01*
X55535949Y-43791606D01*
X55534598Y-43774431D01*
X55515009Y-43707007D01*
X55488745Y-43616606D01*
X55488744Y-43616603D01*
X55488744Y-43616602D01*
X55405081Y-43475135D01*
X55405079Y-43475133D01*
X55405076Y-43475129D01*
X55288870Y-43358923D01*
X55288862Y-43358917D01*
X55147396Y-43275255D01*
X55147393Y-43275254D01*
X54989573Y-43229402D01*
X54989567Y-43229401D01*
X54952701Y-43226500D01*
X54952694Y-43226500D01*
X54521306Y-43226500D01*
X54521298Y-43226500D01*
X54484432Y-43229401D01*
X54484426Y-43229402D01*
X54326606Y-43275254D01*
X54326603Y-43275255D01*
X54178420Y-43362890D01*
X54177254Y-43360919D01*
X54122942Y-43382232D01*
X54054427Y-43368540D01*
X54045595Y-43362864D01*
X54045580Y-43362890D01*
X53943465Y-43302500D01*
X53897398Y-43275256D01*
X53897397Y-43275255D01*
X53897396Y-43275255D01*
X53897393Y-43275254D01*
X53739573Y-43229402D01*
X53739567Y-43229401D01*
X53702701Y-43226500D01*
X53702694Y-43226500D01*
X53271306Y-43226500D01*
X53271298Y-43226500D01*
X53234432Y-43229401D01*
X53234426Y-43229402D01*
X53076606Y-43275254D01*
X53076603Y-43275255D01*
X52935137Y-43358917D01*
X52935129Y-43358923D01*
X52818923Y-43475129D01*
X52818917Y-43475137D01*
X52735255Y-43616603D01*
X52735254Y-43616606D01*
X52689402Y-43774426D01*
X52689401Y-43774432D01*
X52686500Y-43811298D01*
X52686500Y-45342701D01*
X52689401Y-45379567D01*
X52689402Y-45379573D01*
X52735254Y-45537393D01*
X52735255Y-45537396D01*
X52818917Y-45678862D01*
X52818923Y-45678870D01*
X52935129Y-45795076D01*
X52935135Y-45795081D01*
X53008182Y-45838280D01*
X53032740Y-45857330D01*
X53095332Y-45919922D01*
X53095337Y-45919926D01*
X60914142Y-53738732D01*
X60914143Y-53738733D01*
X60967957Y-53792547D01*
X61001269Y-53825859D01*
X61103708Y-53894307D01*
X61103714Y-53894310D01*
X61103715Y-53894311D01*
X61217549Y-53941463D01*
X61277972Y-53953481D01*
X61338394Y-53965500D01*
X61338395Y-53965500D01*
X73364393Y-53965500D01*
X73487607Y-53965500D01*
X89859548Y-53965500D01*
X89926587Y-53985185D01*
X89947229Y-54001819D01*
X91032181Y-55086771D01*
X91065666Y-55148094D01*
X91068500Y-55174452D01*
X91068500Y-59266103D01*
X91048815Y-59333142D01*
X90996011Y-59378897D01*
X90926853Y-59388841D01*
X90912407Y-59385878D01*
X90714724Y-59332909D01*
X90714722Y-59332908D01*
X90714720Y-59332908D01*
X90714718Y-59332907D01*
X90714714Y-59332907D01*
X90495002Y-59313685D01*
X90494998Y-59313685D01*
X90300039Y-59330741D01*
X90231539Y-59316974D01*
X90201551Y-59294894D01*
X86562546Y-55655888D01*
X86562545Y-55655887D01*
X86447807Y-55579222D01*
X86320332Y-55526421D01*
X86320322Y-55526418D01*
X86184996Y-55499500D01*
X86184994Y-55499500D01*
X86184993Y-55499500D01*
X76731007Y-55499500D01*
X76731003Y-55499500D01*
X76622590Y-55521065D01*
X76622589Y-55521065D01*
X76595681Y-55526418D01*
X76595671Y-55526420D01*
X76468190Y-55579224D01*
X76353454Y-55655887D01*
X76353453Y-55655888D01*
X72944162Y-59065181D01*
X72882839Y-59098666D01*
X72856481Y-59101500D01*
X65387969Y-59101500D01*
X65324848Y-59084232D01*
X65296290Y-59067343D01*
X65267398Y-59050256D01*
X65267397Y-59050255D01*
X65267396Y-59050255D01*
X65267393Y-59050254D01*
X65109573Y-59004402D01*
X65109567Y-59004401D01*
X65072701Y-59001500D01*
X65072694Y-59001500D01*
X63541306Y-59001500D01*
X63541298Y-59001500D01*
X63504432Y-59004401D01*
X63504426Y-59004402D01*
X63346606Y-59050254D01*
X63346603Y-59050255D01*
X63205137Y-59133917D01*
X63205129Y-59133923D01*
X63088923Y-59250129D01*
X63088917Y-59250137D01*
X63005255Y-59391603D01*
X63005254Y-59391606D01*
X62959402Y-59549426D01*
X62959401Y-59549432D01*
X62956500Y-59586298D01*
X62956500Y-60017701D01*
X62959401Y-60054567D01*
X62959402Y-60054573D01*
X63005254Y-60212393D01*
X63005255Y-60212396D01*
X63005256Y-60212398D01*
X63043276Y-60276686D01*
X63092890Y-60360580D01*
X63090919Y-60361745D01*
X63112232Y-60416058D01*
X63098540Y-60484573D01*
X63092864Y-60493404D01*
X63092890Y-60493420D01*
X63005255Y-60641603D01*
X63005254Y-60641606D01*
X62959402Y-60799426D01*
X62959401Y-60799432D01*
X62956500Y-60836298D01*
X62956500Y-61267701D01*
X62959401Y-61304567D01*
X62959402Y-61304573D01*
X63005254Y-61462393D01*
X63005255Y-61462396D01*
X63092890Y-61610580D01*
X63090919Y-61611745D01*
X63112232Y-61666058D01*
X63098540Y-61734573D01*
X63092864Y-61743404D01*
X63092890Y-61743420D01*
X63005255Y-61891603D01*
X63005254Y-61891606D01*
X62959402Y-62049426D01*
X62959401Y-62049432D01*
X62956500Y-62086298D01*
X62956500Y-62517701D01*
X62959401Y-62554567D01*
X62959402Y-62554573D01*
X63005254Y-62712393D01*
X63005255Y-62712396D01*
X63005256Y-62712398D01*
X63037686Y-62767235D01*
X63092890Y-62860580D01*
X63090919Y-62861745D01*
X63112232Y-62916058D01*
X63098540Y-62984573D01*
X63092864Y-62993404D01*
X63092890Y-62993420D01*
X63005255Y-63141603D01*
X63005254Y-63141606D01*
X62959402Y-63299426D01*
X62959401Y-63299432D01*
X62956500Y-63336298D01*
X62956500Y-63767701D01*
X62959401Y-63804567D01*
X62959402Y-63804573D01*
X63005254Y-63962393D01*
X63005255Y-63962396D01*
X63005256Y-63962398D01*
X63021574Y-63989990D01*
X63088917Y-64103862D01*
X63088923Y-64103870D01*
X63205129Y-64220076D01*
X63205133Y-64220079D01*
X63205135Y-64220081D01*
X63346602Y-64303744D01*
X63388224Y-64315836D01*
X63504426Y-64349597D01*
X63504429Y-64349597D01*
X63504431Y-64349598D01*
X63541306Y-64352500D01*
X63541314Y-64352500D01*
X65072686Y-64352500D01*
X65072694Y-64352500D01*
X65109569Y-64349598D01*
X65109571Y-64349597D01*
X65109573Y-64349597D01*
X65151191Y-64337505D01*
X65267398Y-64303744D01*
X65324848Y-64269767D01*
X65387969Y-64252500D01*
X77090996Y-64252500D01*
X77182040Y-64234389D01*
X77226328Y-64225580D01*
X77290069Y-64199177D01*
X77353807Y-64172777D01*
X77353808Y-64172776D01*
X77353811Y-64172775D01*
X77468543Y-64096114D01*
X79688838Y-61875817D01*
X79750161Y-61842333D01*
X79776519Y-61839499D01*
X80802871Y-61839499D01*
X80802872Y-61839499D01*
X80862483Y-61833091D01*
X80997331Y-61782796D01*
X81112546Y-61696546D01*
X81198796Y-61581331D01*
X81249091Y-61446483D01*
X81255500Y-61386873D01*
X81255499Y-59771128D01*
X81249091Y-59711517D01*
X81244796Y-59700002D01*
X81198797Y-59576671D01*
X81198793Y-59576664D01*
X81112547Y-59461455D01*
X81112544Y-59461452D01*
X80997335Y-59375206D01*
X80997328Y-59375202D01*
X80971802Y-59365682D01*
X80915868Y-59323811D01*
X80891451Y-59258347D01*
X80906302Y-59190074D01*
X80955707Y-59140668D01*
X81015135Y-59125500D01*
X81105548Y-59125500D01*
X81172587Y-59145185D01*
X81193229Y-59161819D01*
X82228247Y-60196837D01*
X82261732Y-60258160D01*
X82260341Y-60316611D01*
X82248909Y-60359274D01*
X82248907Y-60359285D01*
X82229685Y-60578998D01*
X82229685Y-60579001D01*
X82248907Y-60798714D01*
X82248909Y-60798724D01*
X82305990Y-61011755D01*
X82305995Y-61011769D01*
X82399203Y-61211654D01*
X82399207Y-61211662D01*
X82525712Y-61392330D01*
X82681669Y-61548287D01*
X82862337Y-61674792D01*
X82862339Y-61674793D01*
X82862342Y-61674795D01*
X82908990Y-61696547D01*
X83062230Y-61768004D01*
X83062232Y-61768004D01*
X83062237Y-61768007D01*
X83062242Y-61768008D01*
X83062244Y-61768009D01*
X83083797Y-61773784D01*
X83275280Y-61825092D01*
X83432222Y-61838822D01*
X83494998Y-61844315D01*
X83495000Y-61844315D01*
X83495002Y-61844315D01*
X83550059Y-61839498D01*
X83714720Y-61825092D01*
X83927763Y-61768007D01*
X84127658Y-61674795D01*
X84308329Y-61548288D01*
X84464288Y-61392329D01*
X84590795Y-61211658D01*
X84684007Y-61011763D01*
X84741092Y-60798720D01*
X84760315Y-60579000D01*
X84741092Y-60359280D01*
X84684007Y-60146237D01*
X84590795Y-59946343D01*
X84464288Y-59765671D01*
X84464286Y-59765668D01*
X84308330Y-59609712D01*
X84127662Y-59483207D01*
X84127654Y-59483203D01*
X83927769Y-59389995D01*
X83927755Y-59389990D01*
X83714724Y-59332909D01*
X83714722Y-59332908D01*
X83714720Y-59332908D01*
X83714718Y-59332907D01*
X83714714Y-59332907D01*
X83495002Y-59313685D01*
X83494998Y-59313685D01*
X83275285Y-59332907D01*
X83275274Y-59332909D01*
X83232611Y-59344341D01*
X83162761Y-59342678D01*
X83112837Y-59312247D01*
X82037771Y-58237181D01*
X82004286Y-58175858D01*
X82009270Y-58106166D01*
X82051142Y-58050233D01*
X82116606Y-58025816D01*
X82125452Y-58025500D01*
X83505548Y-58025500D01*
X83572587Y-58045185D01*
X83593229Y-58061819D01*
X85728247Y-60196837D01*
X85761732Y-60258160D01*
X85760341Y-60316611D01*
X85748909Y-60359274D01*
X85748907Y-60359285D01*
X85729685Y-60578998D01*
X85729685Y-60579001D01*
X85748907Y-60798714D01*
X85748909Y-60798724D01*
X85805990Y-61011755D01*
X85805995Y-61011769D01*
X85899203Y-61211654D01*
X85899207Y-61211662D01*
X86025712Y-61392330D01*
X86181669Y-61548287D01*
X86362337Y-61674792D01*
X86362339Y-61674793D01*
X86362342Y-61674795D01*
X86408990Y-61696547D01*
X86562230Y-61768004D01*
X86562232Y-61768004D01*
X86562237Y-61768007D01*
X86562242Y-61768008D01*
X86562244Y-61768009D01*
X86583797Y-61773784D01*
X86775280Y-61825092D01*
X86932222Y-61838822D01*
X86994998Y-61844315D01*
X86995000Y-61844315D01*
X86995002Y-61844315D01*
X87050059Y-61839498D01*
X87214720Y-61825092D01*
X87427763Y-61768007D01*
X87627658Y-61674795D01*
X87808329Y-61548288D01*
X87964288Y-61392329D01*
X88090795Y-61211658D01*
X88184007Y-61011763D01*
X88241092Y-60798720D01*
X88260315Y-60579000D01*
X88241092Y-60359280D01*
X88184007Y-60146237D01*
X88090795Y-59946343D01*
X87964288Y-59765671D01*
X87964286Y-59765668D01*
X87808330Y-59609712D01*
X87627662Y-59483207D01*
X87627654Y-59483203D01*
X87427769Y-59389995D01*
X87427755Y-59389990D01*
X87214724Y-59332909D01*
X87214722Y-59332908D01*
X87214720Y-59332908D01*
X87214718Y-59332907D01*
X87214714Y-59332907D01*
X86995002Y-59313685D01*
X86994998Y-59313685D01*
X86775285Y-59332907D01*
X86775274Y-59332909D01*
X86732611Y-59344341D01*
X86662761Y-59342678D01*
X86612837Y-59312247D01*
X84412771Y-57112181D01*
X84379286Y-57050858D01*
X84384270Y-56981166D01*
X84426142Y-56925233D01*
X84491606Y-56900816D01*
X84500452Y-56900500D01*
X85774481Y-56900500D01*
X85841520Y-56920185D01*
X85862162Y-56936819D01*
X89210894Y-60285551D01*
X89244379Y-60346874D01*
X89246741Y-60384039D01*
X89229685Y-60578997D01*
X89229685Y-60579001D01*
X89248907Y-60798714D01*
X89248909Y-60798724D01*
X89305990Y-61011755D01*
X89305995Y-61011769D01*
X89399203Y-61211654D01*
X89399207Y-61211662D01*
X89525712Y-61392330D01*
X89681669Y-61548287D01*
X89862337Y-61674792D01*
X89862339Y-61674793D01*
X89862342Y-61674795D01*
X89908990Y-61696547D01*
X90062230Y-61768004D01*
X90062232Y-61768004D01*
X90062237Y-61768007D01*
X90062242Y-61768008D01*
X90062244Y-61768009D01*
X90083797Y-61773784D01*
X90275280Y-61825092D01*
X90432222Y-61838822D01*
X90494998Y-61844315D01*
X90495000Y-61844315D01*
X90495002Y-61844315D01*
X90550059Y-61839498D01*
X90714720Y-61825092D01*
X90912409Y-61772121D01*
X90982256Y-61773784D01*
X91040119Y-61812946D01*
X91067623Y-61877174D01*
X91068500Y-61891896D01*
X91068500Y-62832393D01*
X91068500Y-62955607D01*
X91077357Y-63000135D01*
X91084969Y-63038404D01*
X91092537Y-63076454D01*
X91092539Y-63076459D01*
X91102486Y-63100471D01*
X91102487Y-63100474D01*
X91139685Y-63190281D01*
X91139687Y-63190284D01*
X91139688Y-63190286D01*
X91146181Y-63200002D01*
X91173914Y-63241507D01*
X91173915Y-63241509D01*
X91208141Y-63292733D01*
X91299589Y-63384181D01*
X91299605Y-63384196D01*
X91301263Y-63385854D01*
X91301271Y-63385860D01*
X91339332Y-63411292D01*
X91358123Y-63426713D01*
X92728247Y-64796837D01*
X92761732Y-64858160D01*
X92760341Y-64916611D01*
X92748909Y-64959274D01*
X92748907Y-64959285D01*
X92729685Y-65178998D01*
X92729685Y-65179001D01*
X92748907Y-65398714D01*
X92748910Y-65398731D01*
X92760340Y-65441390D01*
X92758676Y-65511240D01*
X92728246Y-65561162D01*
X87250100Y-71039309D01*
X81790270Y-76499139D01*
X81790267Y-76499142D01*
X81756477Y-76532932D01*
X81703142Y-76586266D01*
X81686495Y-76611181D01*
X81686494Y-76611180D01*
X81634689Y-76688712D01*
X81634685Y-76688719D01*
X81587540Y-76802538D01*
X81587535Y-76802553D01*
X81585116Y-76814719D01*
X81552731Y-76876630D01*
X81492015Y-76911204D01*
X81422245Y-76907463D01*
X81365574Y-76866597D01*
X81339992Y-76801578D01*
X81339499Y-76790527D01*
X81339499Y-76777998D01*
X81339498Y-76777981D01*
X81328999Y-76675203D01*
X81328998Y-76675200D01*
X81322703Y-76656202D01*
X81273814Y-76508666D01*
X81181712Y-76359344D01*
X81057656Y-76235288D01*
X80908334Y-76143186D01*
X80741797Y-76088001D01*
X80741795Y-76088000D01*
X80639010Y-76077500D01*
X80038998Y-76077500D01*
X80038980Y-76077501D01*
X79936203Y-76088000D01*
X79936200Y-76088001D01*
X79769668Y-76143185D01*
X79769663Y-76143187D01*
X79620342Y-76235289D01*
X79496289Y-76359342D01*
X79404187Y-76508663D01*
X79404186Y-76508666D01*
X79349001Y-76675203D01*
X79349001Y-76675204D01*
X79349000Y-76675204D01*
X79338500Y-76777983D01*
X79338500Y-79178001D01*
X79338501Y-79178018D01*
X79349000Y-79280796D01*
X79349001Y-79280799D01*
X79383199Y-79384001D01*
X79404186Y-79447334D01*
X79496288Y-79596656D01*
X79620344Y-79720712D01*
X79769666Y-79812814D01*
X79936203Y-79867999D01*
X80038991Y-79878500D01*
X80639008Y-79878499D01*
X80639016Y-79878498D01*
X80639019Y-79878498D01*
X80695302Y-79872748D01*
X80741797Y-79867999D01*
X80908334Y-79812814D01*
X81057656Y-79720712D01*
X81181712Y-79596656D01*
X81273814Y-79447334D01*
X81321794Y-79302537D01*
X81361567Y-79245094D01*
X81426082Y-79218271D01*
X81494858Y-79230586D01*
X81546058Y-79278129D01*
X81563500Y-79341543D01*
X81563500Y-80132191D01*
X81543815Y-80199230D01*
X81527181Y-80219872D01*
X81520923Y-80226129D01*
X81520917Y-80226137D01*
X81437255Y-80367603D01*
X81437254Y-80367606D01*
X81391402Y-80525426D01*
X81391401Y-80525432D01*
X81388500Y-80562298D01*
X81388500Y-81675500D01*
X81368815Y-81742539D01*
X81316011Y-81788294D01*
X81264500Y-81799500D01*
X81205354Y-81799500D01*
X81172897Y-81806398D01*
X81020197Y-81838855D01*
X81020192Y-81838857D01*
X80847270Y-81915848D01*
X80847265Y-81915851D01*
X80694129Y-82027111D01*
X80567466Y-82167785D01*
X80472821Y-82331715D01*
X80472818Y-82331722D01*
X80419962Y-82494398D01*
X80414326Y-82511744D01*
X80394540Y-82700000D01*
X80414326Y-82888256D01*
X80414327Y-82888259D01*
X80454592Y-83012182D01*
X80456587Y-83082023D01*
X80420507Y-83141856D01*
X80357806Y-83172684D01*
X80336661Y-83174500D01*
X57186452Y-83174500D01*
X57119413Y-83154815D01*
X57098771Y-83138181D01*
X55446819Y-81486229D01*
X55413334Y-81424906D01*
X55410500Y-81398548D01*
X55410500Y-80768313D01*
X55410499Y-80768298D01*
X55407598Y-80731432D01*
X55407597Y-80731426D01*
X55361745Y-80573606D01*
X55361744Y-80573603D01*
X55361744Y-80573602D01*
X55278081Y-80432135D01*
X55278079Y-80432133D01*
X55278076Y-80432129D01*
X55161870Y-80315923D01*
X55161862Y-80315917D01*
X55020396Y-80232255D01*
X55020393Y-80232254D01*
X54862573Y-80186402D01*
X54862567Y-80186401D01*
X54825701Y-80183500D01*
X54825694Y-80183500D01*
X54394306Y-80183500D01*
X54394298Y-80183500D01*
X54357432Y-80186401D01*
X54357426Y-80186402D01*
X54199606Y-80232254D01*
X54199603Y-80232255D01*
X54051420Y-80319890D01*
X54050254Y-80317919D01*
X53995942Y-80339232D01*
X53927427Y-80325540D01*
X53918595Y-80319864D01*
X53918580Y-80319890D01*
X53770396Y-80232255D01*
X53770393Y-80232254D01*
X53612573Y-80186402D01*
X53612567Y-80186401D01*
X53575701Y-80183500D01*
X53575694Y-80183500D01*
X53144306Y-80183500D01*
X53144298Y-80183500D01*
X53107432Y-80186401D01*
X53107426Y-80186402D01*
X52949606Y-80232254D01*
X52949603Y-80232255D01*
X52808137Y-80315917D01*
X52808129Y-80315923D01*
X52691923Y-80432129D01*
X52691917Y-80432137D01*
X52608255Y-80573603D01*
X52608254Y-80573606D01*
X52562402Y-80731426D01*
X52562401Y-80731432D01*
X52559500Y-80768298D01*
X40750500Y-80768298D01*
X40750500Y-76983983D01*
X50509500Y-76983983D01*
X50509500Y-79384001D01*
X50509501Y-79384018D01*
X50520000Y-79486796D01*
X50520001Y-79486799D01*
X50564242Y-79620308D01*
X50575186Y-79653334D01*
X50667288Y-79802656D01*
X50791344Y-79926712D01*
X50940666Y-80018814D01*
X51107203Y-80073999D01*
X51209991Y-80084500D01*
X51810008Y-80084499D01*
X51810016Y-80084498D01*
X51810019Y-80084498D01*
X51866302Y-80078748D01*
X51912797Y-80073999D01*
X52079334Y-80018814D01*
X52228656Y-79926712D01*
X52352712Y-79802656D01*
X52444814Y-79653334D01*
X52499999Y-79486797D01*
X52510500Y-79384009D01*
X52510499Y-76983992D01*
X52510498Y-76983983D01*
X55459500Y-76983983D01*
X55459500Y-79384001D01*
X55459501Y-79384018D01*
X55470000Y-79486796D01*
X55470001Y-79486799D01*
X55514242Y-79620308D01*
X55525186Y-79653334D01*
X55617288Y-79802656D01*
X55741344Y-79926712D01*
X55890666Y-80018814D01*
X56057203Y-80073999D01*
X56159991Y-80084500D01*
X56760008Y-80084499D01*
X56760016Y-80084498D01*
X56760019Y-80084498D01*
X56816302Y-80078748D01*
X56862797Y-80073999D01*
X57029334Y-80018814D01*
X57178656Y-79926712D01*
X57302712Y-79802656D01*
X57394814Y-79653334D01*
X57449999Y-79486797D01*
X57460500Y-79384009D01*
X57460499Y-77046155D01*
X63350000Y-77046155D01*
X63350000Y-78744000D01*
X64422769Y-78744000D01*
X64400000Y-78887753D01*
X64400000Y-79100247D01*
X64422769Y-79244000D01*
X63350000Y-79244000D01*
X63350000Y-80941844D01*
X63356401Y-81001372D01*
X63356403Y-81001379D01*
X63406645Y-81136086D01*
X63406649Y-81136093D01*
X63492809Y-81251187D01*
X63492812Y-81251190D01*
X63607906Y-81337350D01*
X63607913Y-81337354D01*
X63742620Y-81387596D01*
X63742627Y-81387598D01*
X63802155Y-81393999D01*
X63802172Y-81394000D01*
X65500000Y-81394000D01*
X65500000Y-80321231D01*
X65643753Y-80344000D01*
X65856247Y-80344000D01*
X66000000Y-80321231D01*
X66000000Y-81394000D01*
X67697828Y-81394000D01*
X67697844Y-81393999D01*
X67757372Y-81387598D01*
X67757379Y-81387596D01*
X67892086Y-81337354D01*
X67892093Y-81337350D01*
X68007187Y-81251190D01*
X68007190Y-81251187D01*
X68093350Y-81136093D01*
X68093354Y-81136086D01*
X68143596Y-81001379D01*
X68143598Y-81001372D01*
X68149999Y-80941844D01*
X68150000Y-80941827D01*
X68150000Y-79866716D01*
X68169685Y-79799677D01*
X68222489Y-79753922D01*
X68291647Y-79743978D01*
X68355203Y-79773003D01*
X68391931Y-79828398D01*
X68420497Y-79916316D01*
X68420499Y-79916321D01*
X68554461Y-80201003D01*
X68554464Y-80201009D01*
X68723051Y-80466661D01*
X68723054Y-80466665D01*
X68923606Y-80709090D01*
X68923608Y-80709092D01*
X68923610Y-80709094D01*
X69148564Y-80920340D01*
X69152968Y-80924476D01*
X69152978Y-80924484D01*
X69407504Y-81109408D01*
X69407509Y-81109410D01*
X69407516Y-81109416D01*
X69683234Y-81260994D01*
X69683239Y-81260996D01*
X69683241Y-81260997D01*
X69683242Y-81260998D01*
X69975771Y-81376818D01*
X69975774Y-81376819D01*
X70260446Y-81449910D01*
X70280527Y-81455066D01*
X70346010Y-81463338D01*
X70592670Y-81494499D01*
X70592679Y-81494499D01*
X70592682Y-81494500D01*
X70592684Y-81494500D01*
X70907316Y-81494500D01*
X70907318Y-81494500D01*
X70907321Y-81494499D01*
X70907329Y-81494499D01*
X71093593Y-81470968D01*
X71219473Y-81455066D01*
X71524225Y-81376819D01*
X71524228Y-81376818D01*
X71816757Y-81260998D01*
X71816758Y-81260997D01*
X71816756Y-81260997D01*
X71816766Y-81260994D01*
X72092484Y-81109416D01*
X72347030Y-80924478D01*
X72576390Y-80709094D01*
X72776947Y-80466663D01*
X72945537Y-80201007D01*
X73079503Y-79916315D01*
X73176731Y-79617079D01*
X73235688Y-79308015D01*
X73236033Y-79302539D01*
X73255444Y-78994005D01*
X73255444Y-78993994D01*
X73235689Y-78679995D01*
X73235688Y-78679988D01*
X73235688Y-78679985D01*
X73176731Y-78370921D01*
X73079503Y-78071685D01*
X72945537Y-77786993D01*
X72854791Y-77644000D01*
X72776948Y-77521338D01*
X72776945Y-77521334D01*
X72576393Y-77278909D01*
X72576391Y-77278907D01*
X72347031Y-77063523D01*
X72347021Y-77063515D01*
X72092495Y-76878591D01*
X72092488Y-76878586D01*
X72092484Y-76878584D01*
X71816766Y-76727006D01*
X71816763Y-76727004D01*
X71816758Y-76727002D01*
X71816757Y-76727001D01*
X71524228Y-76611181D01*
X71524225Y-76611180D01*
X71219476Y-76532934D01*
X71219463Y-76532932D01*
X70907329Y-76493500D01*
X70907318Y-76493500D01*
X70592682Y-76493500D01*
X70592670Y-76493500D01*
X70280536Y-76532932D01*
X70280523Y-76532934D01*
X69975774Y-76611180D01*
X69975771Y-76611181D01*
X69683242Y-76727001D01*
X69683241Y-76727002D01*
X69407516Y-76878584D01*
X69407504Y-76878591D01*
X69152978Y-77063515D01*
X69152968Y-77063523D01*
X68923608Y-77278907D01*
X68923606Y-77278909D01*
X68723054Y-77521334D01*
X68723051Y-77521338D01*
X68554464Y-77786990D01*
X68554461Y-77786996D01*
X68420499Y-78071678D01*
X68420497Y-78071683D01*
X68391931Y-78159601D01*
X68352493Y-78217277D01*
X68288135Y-78244475D01*
X68219288Y-78232560D01*
X68167813Y-78185316D01*
X68150000Y-78121283D01*
X68150000Y-77046172D01*
X68149999Y-77046155D01*
X68143598Y-76986627D01*
X68143596Y-76986620D01*
X68093354Y-76851913D01*
X68093350Y-76851906D01*
X68007190Y-76736812D01*
X68007187Y-76736809D01*
X67892093Y-76650649D01*
X67892086Y-76650645D01*
X67757379Y-76600403D01*
X67757372Y-76600401D01*
X67697844Y-76594000D01*
X66000000Y-76594000D01*
X66000000Y-77666768D01*
X65856247Y-77644000D01*
X65643753Y-77644000D01*
X65500000Y-77666768D01*
X65500000Y-76594000D01*
X63802155Y-76594000D01*
X63742627Y-76600401D01*
X63742620Y-76600403D01*
X63607913Y-76650645D01*
X63607906Y-76650649D01*
X63492812Y-76736809D01*
X63492809Y-76736812D01*
X63406649Y-76851906D01*
X63406645Y-76851913D01*
X63356403Y-76986620D01*
X63356401Y-76986627D01*
X63350000Y-77046155D01*
X57460499Y-77046155D01*
X57460499Y-76983992D01*
X57452681Y-76907463D01*
X57449999Y-76881203D01*
X57449998Y-76881200D01*
X57442201Y-76857671D01*
X57394814Y-76714666D01*
X57302712Y-76565344D01*
X57178656Y-76441288D01*
X57029334Y-76349186D01*
X56862797Y-76294001D01*
X56862795Y-76294000D01*
X56760010Y-76283500D01*
X56159998Y-76283500D01*
X56159980Y-76283501D01*
X56057203Y-76294000D01*
X56057200Y-76294001D01*
X55890668Y-76349185D01*
X55890663Y-76349187D01*
X55741342Y-76441289D01*
X55617289Y-76565342D01*
X55525187Y-76714663D01*
X55525185Y-76714668D01*
X55515073Y-76745185D01*
X55470001Y-76881203D01*
X55470001Y-76881204D01*
X55470000Y-76881204D01*
X55459500Y-76983983D01*
X52510498Y-76983983D01*
X52502681Y-76907463D01*
X52499999Y-76881203D01*
X52499998Y-76881200D01*
X52492201Y-76857671D01*
X52444814Y-76714666D01*
X52352712Y-76565344D01*
X52228656Y-76441288D01*
X52079334Y-76349186D01*
X51912797Y-76294001D01*
X51912795Y-76294000D01*
X51810010Y-76283500D01*
X51209998Y-76283500D01*
X51209980Y-76283501D01*
X51107203Y-76294000D01*
X51107200Y-76294001D01*
X50940668Y-76349185D01*
X50940663Y-76349187D01*
X50791342Y-76441289D01*
X50667289Y-76565342D01*
X50575187Y-76714663D01*
X50575185Y-76714668D01*
X50565073Y-76745185D01*
X50520001Y-76881203D01*
X50520001Y-76881204D01*
X50520000Y-76881204D01*
X50509500Y-76983983D01*
X40750500Y-76983983D01*
X40750500Y-65146983D01*
X45467500Y-65146983D01*
X45467500Y-65747001D01*
X45467501Y-65747019D01*
X45478000Y-65849796D01*
X45478001Y-65849799D01*
X45525232Y-65992330D01*
X45533186Y-66016334D01*
X45625288Y-66165656D01*
X45749344Y-66289712D01*
X45898666Y-66381814D01*
X46065203Y-66436999D01*
X46167991Y-66447500D01*
X48568008Y-66447499D01*
X48670797Y-66436999D01*
X48837334Y-66381814D01*
X48986656Y-66289712D01*
X49110712Y-66165656D01*
X49202814Y-66016334D01*
X49257999Y-65849797D01*
X49268500Y-65747009D01*
X49268499Y-65146992D01*
X49257999Y-65044203D01*
X49202814Y-64877666D01*
X49110712Y-64728344D01*
X48986656Y-64604288D01*
X48885706Y-64542022D01*
X48837336Y-64512187D01*
X48837331Y-64512185D01*
X48802439Y-64500623D01*
X48670797Y-64457001D01*
X48670795Y-64457000D01*
X48568010Y-64446500D01*
X46167998Y-64446500D01*
X46167981Y-64446501D01*
X46065203Y-64457000D01*
X46065200Y-64457001D01*
X45898668Y-64512185D01*
X45898663Y-64512187D01*
X45749342Y-64604289D01*
X45625289Y-64728342D01*
X45533187Y-64877663D01*
X45533186Y-64877666D01*
X45478001Y-65044203D01*
X45478001Y-65044204D01*
X45478000Y-65044204D01*
X45467500Y-65146983D01*
X40750500Y-65146983D01*
X40750500Y-59631298D01*
X49367500Y-59631298D01*
X49367500Y-60062701D01*
X49370401Y-60099567D01*
X49370402Y-60099573D01*
X49416254Y-60257393D01*
X49416255Y-60257396D01*
X49503890Y-60405580D01*
X49501919Y-60406745D01*
X49523232Y-60461058D01*
X49509540Y-60529573D01*
X49503864Y-60538404D01*
X49503890Y-60538420D01*
X49416255Y-60686603D01*
X49416254Y-60686606D01*
X49370402Y-60844426D01*
X49370401Y-60844432D01*
X49367500Y-60881298D01*
X49367500Y-61312701D01*
X49370401Y-61349567D01*
X49370402Y-61349573D01*
X49416254Y-61507393D01*
X49416255Y-61507396D01*
X49503890Y-61655580D01*
X49501919Y-61656745D01*
X49523232Y-61711058D01*
X49509540Y-61779573D01*
X49503864Y-61788404D01*
X49503890Y-61788420D01*
X49416255Y-61936603D01*
X49416254Y-61936606D01*
X49370402Y-62094426D01*
X49370401Y-62094432D01*
X49367500Y-62131298D01*
X49367500Y-62562701D01*
X49370401Y-62599567D01*
X49370402Y-62599573D01*
X49416254Y-62757393D01*
X49416255Y-62757396D01*
X49416256Y-62757398D01*
X49429038Y-62779011D01*
X49503890Y-62905580D01*
X49501919Y-62906745D01*
X49523232Y-62961058D01*
X49509540Y-63029573D01*
X49503864Y-63038404D01*
X49503890Y-63038420D01*
X49416255Y-63186603D01*
X49416254Y-63186606D01*
X49370402Y-63344426D01*
X49370401Y-63344432D01*
X49367500Y-63381298D01*
X49367500Y-63812701D01*
X49370401Y-63849567D01*
X49370402Y-63849573D01*
X49416254Y-64007393D01*
X49416255Y-64007396D01*
X49499917Y-64148862D01*
X49499923Y-64148870D01*
X49616129Y-64265076D01*
X49616133Y-64265079D01*
X49616135Y-64265081D01*
X49757602Y-64348744D01*
X49770527Y-64352499D01*
X49915426Y-64394597D01*
X49915429Y-64394597D01*
X49915431Y-64394598D01*
X49952306Y-64397500D01*
X50582548Y-64397500D01*
X50649587Y-64417185D01*
X50670228Y-64433818D01*
X58644141Y-72407732D01*
X58644142Y-72407733D01*
X58704160Y-72467751D01*
X58731268Y-72494859D01*
X58833707Y-72563307D01*
X58833713Y-72563310D01*
X58833714Y-72563311D01*
X58947548Y-72610463D01*
X59053376Y-72631513D01*
X59068388Y-72634499D01*
X59068392Y-72634500D01*
X59068393Y-72634500D01*
X83726607Y-72634500D01*
X83787029Y-72622481D01*
X83847452Y-72610463D01*
X83906856Y-72585857D01*
X83906857Y-72585856D01*
X83906859Y-72585856D01*
X83961281Y-72563314D01*
X83961280Y-72563314D01*
X83961286Y-72563312D01*
X84012509Y-72529084D01*
X84063733Y-72494858D01*
X84150858Y-72407733D01*
X84150858Y-72407731D01*
X84161066Y-72397524D01*
X84161067Y-72397521D01*
X90112839Y-66445750D01*
X90174160Y-66412267D01*
X90232611Y-66413658D01*
X90275280Y-66425092D01*
X90411378Y-66436999D01*
X90494998Y-66444315D01*
X90495000Y-66444315D01*
X90495002Y-66444315D01*
X90549930Y-66439509D01*
X90714720Y-66425092D01*
X90927763Y-66368007D01*
X91127658Y-66274795D01*
X91308329Y-66148288D01*
X91464288Y-65992329D01*
X91590795Y-65811658D01*
X91684007Y-65611763D01*
X91741092Y-65398720D01*
X91760315Y-65179000D01*
X91741092Y-64959280D01*
X91684007Y-64746237D01*
X91590795Y-64546343D01*
X91464288Y-64365671D01*
X91464286Y-64365668D01*
X91308330Y-64209712D01*
X91127662Y-64083207D01*
X91127654Y-64083203D01*
X90927769Y-63989995D01*
X90927755Y-63989990D01*
X90714724Y-63932909D01*
X90714722Y-63932908D01*
X90714720Y-63932908D01*
X90714718Y-63932907D01*
X90714714Y-63932907D01*
X90495002Y-63913685D01*
X90494998Y-63913685D01*
X90275285Y-63932907D01*
X90275275Y-63932909D01*
X90062244Y-63989990D01*
X90062235Y-63989994D01*
X89862344Y-64083204D01*
X89862342Y-64083205D01*
X89681668Y-64209713D01*
X89525713Y-64365668D01*
X89399205Y-64546342D01*
X89399204Y-64546344D01*
X89305994Y-64746235D01*
X89305990Y-64746244D01*
X89248909Y-64959275D01*
X89248907Y-64959285D01*
X89229685Y-65178998D01*
X89229685Y-65179001D01*
X89248907Y-65398713D01*
X89248910Y-65398730D01*
X89260340Y-65441389D01*
X89258676Y-65511239D01*
X89228246Y-65561161D01*
X83442229Y-71347181D01*
X83380906Y-71380666D01*
X83354548Y-71383500D01*
X59440453Y-71383500D01*
X59373414Y-71363815D01*
X59352772Y-71347181D01*
X59327772Y-71322181D01*
X59294287Y-71260858D01*
X59299271Y-71191166D01*
X59341143Y-71135233D01*
X59406607Y-71110816D01*
X59415453Y-71110500D01*
X81750607Y-71110500D01*
X81811029Y-71098481D01*
X81871452Y-71086463D01*
X81871455Y-71086461D01*
X81871458Y-71086461D01*
X81904787Y-71072654D01*
X81904786Y-71072654D01*
X81904792Y-71072652D01*
X81985286Y-71039312D01*
X82036509Y-71005084D01*
X82087733Y-70970858D01*
X82174858Y-70883733D01*
X82174859Y-70883731D01*
X82181925Y-70876665D01*
X82181928Y-70876661D01*
X86612838Y-66445750D01*
X86674159Y-66412267D01*
X86732612Y-66413659D01*
X86775272Y-66425090D01*
X86775273Y-66425090D01*
X86775280Y-66425092D01*
X86962277Y-66441452D01*
X86994998Y-66444315D01*
X86995000Y-66444315D01*
X86995002Y-66444315D01*
X87049930Y-66439509D01*
X87214720Y-66425092D01*
X87427763Y-66368007D01*
X87627658Y-66274795D01*
X87808329Y-66148288D01*
X87964288Y-65992329D01*
X88090795Y-65811658D01*
X88184007Y-65611763D01*
X88241092Y-65398720D01*
X88260315Y-65179000D01*
X88241092Y-64959280D01*
X88184007Y-64746237D01*
X88090795Y-64546343D01*
X87964288Y-64365671D01*
X87964286Y-64365668D01*
X87808330Y-64209712D01*
X87627662Y-64083207D01*
X87627654Y-64083203D01*
X87427769Y-63989995D01*
X87427755Y-63989990D01*
X87214724Y-63932909D01*
X87214722Y-63932908D01*
X87214720Y-63932908D01*
X87214718Y-63932907D01*
X87214714Y-63932907D01*
X86995002Y-63913685D01*
X86994998Y-63913685D01*
X86775285Y-63932907D01*
X86775275Y-63932909D01*
X86562244Y-63989990D01*
X86562235Y-63989994D01*
X86362344Y-64083204D01*
X86362342Y-64083205D01*
X86181668Y-64209713D01*
X86025713Y-64365668D01*
X85899205Y-64546342D01*
X85899204Y-64546344D01*
X85805994Y-64746235D01*
X85805990Y-64746244D01*
X85748909Y-64959275D01*
X85748907Y-64959285D01*
X85729685Y-65178998D01*
X85729685Y-65179001D01*
X85748907Y-65398714D01*
X85748910Y-65398731D01*
X85760340Y-65441390D01*
X85758676Y-65511240D01*
X85728246Y-65561162D01*
X81466229Y-69823181D01*
X81404906Y-69856666D01*
X81378548Y-69859500D01*
X78612013Y-69859500D01*
X78544974Y-69839815D01*
X78499219Y-69787011D01*
X78489275Y-69717853D01*
X78518300Y-69654297D01*
X78543118Y-69632401D01*
X78579509Y-69608084D01*
X78630733Y-69573858D01*
X78717858Y-69486733D01*
X78717859Y-69486731D01*
X78724925Y-69479665D01*
X78724928Y-69479661D01*
X80528622Y-67675966D01*
X80589943Y-67642483D01*
X80659635Y-67647467D01*
X80715568Y-67689339D01*
X80730862Y-67716196D01*
X80810512Y-67908490D01*
X80925916Y-68081203D01*
X80925919Y-68081207D01*
X81072792Y-68228080D01*
X81072796Y-68228083D01*
X81245507Y-68343486D01*
X81245508Y-68343486D01*
X81245509Y-68343487D01*
X81245511Y-68343488D01*
X81437409Y-68422974D01*
X81437414Y-68422976D01*
X81636114Y-68462500D01*
X81641136Y-68463499D01*
X81641139Y-68463500D01*
X81641141Y-68463500D01*
X81848861Y-68463500D01*
X81848862Y-68463499D01*
X82052586Y-68422976D01*
X82244493Y-68343486D01*
X82417204Y-68228083D01*
X82564083Y-68081204D01*
X82679486Y-67908493D01*
X82758976Y-67716586D01*
X82799500Y-67512859D01*
X82799500Y-67305141D01*
X82799500Y-67305138D01*
X82799499Y-67305136D01*
X82758977Y-67101421D01*
X82758976Y-67101414D01*
X82713034Y-66990500D01*
X82679488Y-66909511D01*
X82679487Y-66909509D01*
X82564083Y-66736796D01*
X82564080Y-66736792D01*
X82417207Y-66589919D01*
X82417203Y-66589916D01*
X82244490Y-66474512D01*
X82052196Y-66394862D01*
X81997793Y-66351021D01*
X81975728Y-66284727D01*
X81993007Y-66217028D01*
X82011964Y-66192624D01*
X82292128Y-65912460D01*
X82353449Y-65878977D01*
X82423141Y-65883961D01*
X82479074Y-65925833D01*
X82481382Y-65929019D01*
X82525715Y-65992333D01*
X82681669Y-66148287D01*
X82862337Y-66274792D01*
X82862339Y-66274793D01*
X82862342Y-66274795D01*
X82894328Y-66289710D01*
X83062230Y-66368004D01*
X83062232Y-66368004D01*
X83062237Y-66368007D01*
X83275280Y-66425092D01*
X83411378Y-66436999D01*
X83494998Y-66444315D01*
X83495000Y-66444315D01*
X83495002Y-66444315D01*
X83549930Y-66439509D01*
X83714720Y-66425092D01*
X83927763Y-66368007D01*
X84127658Y-66274795D01*
X84308329Y-66148288D01*
X84464288Y-65992329D01*
X84590795Y-65811658D01*
X84684007Y-65611763D01*
X84741092Y-65398720D01*
X84760315Y-65179000D01*
X84741092Y-64959280D01*
X84684007Y-64746237D01*
X84590795Y-64546343D01*
X84464288Y-64365671D01*
X84464286Y-64365668D01*
X84308330Y-64209712D01*
X84127662Y-64083207D01*
X84127654Y-64083203D01*
X83927769Y-63989995D01*
X83927755Y-63989990D01*
X83714724Y-63932909D01*
X83714722Y-63932908D01*
X83714720Y-63932908D01*
X83714718Y-63932907D01*
X83714714Y-63932907D01*
X83495002Y-63913685D01*
X83494998Y-63913685D01*
X83275285Y-63932907D01*
X83275275Y-63932909D01*
X83062244Y-63989990D01*
X83062235Y-63989994D01*
X82862344Y-64083204D01*
X82862342Y-64083205D01*
X82681668Y-64209713D01*
X82525715Y-64365666D01*
X82437812Y-64491205D01*
X82383235Y-64534829D01*
X82313736Y-64542022D01*
X82312047Y-64541699D01*
X82272410Y-64533815D01*
X82230607Y-64525500D01*
X82107393Y-64525500D01*
X82107388Y-64525500D01*
X81986555Y-64549535D01*
X81986538Y-64549540D01*
X81872718Y-64596685D01*
X81872715Y-64596687D01*
X81872714Y-64596688D01*
X81830809Y-64624689D01*
X81785657Y-64654858D01*
X81770262Y-64665146D01*
X81442629Y-64992779D01*
X81381306Y-65026264D01*
X81311614Y-65021280D01*
X81255681Y-64979408D01*
X81235173Y-64937191D01*
X81184009Y-64746244D01*
X81184008Y-64746243D01*
X81184007Y-64746237D01*
X81090795Y-64546343D01*
X80964288Y-64365671D01*
X80964286Y-64365668D01*
X80808330Y-64209712D01*
X80627662Y-64083207D01*
X80627654Y-64083203D01*
X80427769Y-63989995D01*
X80427755Y-63989990D01*
X80214724Y-63932909D01*
X80214722Y-63932908D01*
X80214720Y-63932908D01*
X80214718Y-63932907D01*
X80214714Y-63932907D01*
X79995002Y-63913685D01*
X79994998Y-63913685D01*
X79775285Y-63932907D01*
X79775275Y-63932909D01*
X79562244Y-63989990D01*
X79562235Y-63989994D01*
X79362344Y-64083204D01*
X79362342Y-64083205D01*
X79181668Y-64209713D01*
X79025713Y-64365668D01*
X78899205Y-64546342D01*
X78899204Y-64546344D01*
X78805994Y-64746235D01*
X78805990Y-64746244D01*
X78748909Y-64959275D01*
X78748907Y-64959285D01*
X78729685Y-65178998D01*
X78729685Y-65179002D01*
X78746741Y-65373960D01*
X78732974Y-65442460D01*
X78710894Y-65472448D01*
X77229162Y-66954181D01*
X77167839Y-66987666D01*
X77141481Y-66990500D01*
X59753518Y-66990500D01*
X59686479Y-66970815D01*
X59665837Y-66954181D01*
X57813639Y-65101983D01*
X59056500Y-65101983D01*
X59056500Y-65702001D01*
X59056501Y-65702019D01*
X59067000Y-65804796D01*
X59067001Y-65804799D01*
X59107108Y-65925833D01*
X59122186Y-65971334D01*
X59214288Y-66120656D01*
X59338344Y-66244712D01*
X59487666Y-66336814D01*
X59654203Y-66391999D01*
X59756991Y-66402500D01*
X62157008Y-66402499D01*
X62259797Y-66391999D01*
X62426334Y-66336814D01*
X62575656Y-66244712D01*
X62699712Y-66120656D01*
X62791814Y-65971334D01*
X62846999Y-65804797D01*
X62857500Y-65702009D01*
X62857499Y-65101992D01*
X62851595Y-65044200D01*
X62846999Y-64999203D01*
X62846998Y-64999200D01*
X62844870Y-64992779D01*
X62791814Y-64832666D01*
X62699712Y-64683344D01*
X62575656Y-64559288D01*
X62426334Y-64467186D01*
X62259797Y-64412001D01*
X62259795Y-64412000D01*
X62157010Y-64401500D01*
X59756998Y-64401500D01*
X59756981Y-64401501D01*
X59654203Y-64412000D01*
X59654200Y-64412001D01*
X59487668Y-64467185D01*
X59487663Y-64467187D01*
X59338342Y-64559289D01*
X59214289Y-64683342D01*
X59122187Y-64832663D01*
X59122185Y-64832668D01*
X59113738Y-64858160D01*
X59067001Y-64999203D01*
X59067001Y-64999204D01*
X59067000Y-64999204D01*
X59056500Y-65101983D01*
X57813639Y-65101983D01*
X52014545Y-59302888D01*
X52014542Y-59302885D01*
X51899816Y-59226228D01*
X51899804Y-59226222D01*
X51866876Y-59212582D01*
X51826650Y-59185703D01*
X51819870Y-59178923D01*
X51819862Y-59178917D01*
X51678396Y-59095255D01*
X51678393Y-59095254D01*
X51520573Y-59049402D01*
X51520567Y-59049401D01*
X51483701Y-59046500D01*
X51483694Y-59046500D01*
X49952306Y-59046500D01*
X49952298Y-59046500D01*
X49915432Y-59049401D01*
X49915426Y-59049402D01*
X49757606Y-59095254D01*
X49757603Y-59095255D01*
X49616137Y-59178917D01*
X49616129Y-59178923D01*
X49499923Y-59295129D01*
X49499917Y-59295137D01*
X49416255Y-59436603D01*
X49416254Y-59436606D01*
X49370402Y-59594426D01*
X49370401Y-59594432D01*
X49367500Y-59631298D01*
X40750500Y-59631298D01*
X40750500Y-57696983D01*
X45467500Y-57696983D01*
X45467500Y-58297001D01*
X45467501Y-58297019D01*
X45478000Y-58399796D01*
X45478001Y-58399799D01*
X45533185Y-58566331D01*
X45533186Y-58566334D01*
X45625288Y-58715656D01*
X45749344Y-58839712D01*
X45898666Y-58931814D01*
X46065203Y-58986999D01*
X46167991Y-58997500D01*
X48568008Y-58997499D01*
X48670797Y-58986999D01*
X48837334Y-58931814D01*
X48986656Y-58839712D01*
X49110712Y-58715656D01*
X49202814Y-58566334D01*
X49257999Y-58399797D01*
X49268500Y-58297009D01*
X49268499Y-57696992D01*
X49263901Y-57651983D01*
X59056500Y-57651983D01*
X59056500Y-58252001D01*
X59056501Y-58252019D01*
X59067000Y-58354796D01*
X59067001Y-58354799D01*
X59099844Y-58453910D01*
X59122186Y-58521334D01*
X59214288Y-58670656D01*
X59338344Y-58794712D01*
X59487666Y-58886814D01*
X59654203Y-58941999D01*
X59756991Y-58952500D01*
X62157008Y-58952499D01*
X62259797Y-58941999D01*
X62426334Y-58886814D01*
X62575656Y-58794712D01*
X62699712Y-58670656D01*
X62791814Y-58521334D01*
X62846999Y-58354797D01*
X62857500Y-58252009D01*
X62857499Y-57651992D01*
X62856521Y-57642422D01*
X62846999Y-57549203D01*
X62846998Y-57549200D01*
X62791814Y-57382666D01*
X62699712Y-57233344D01*
X62575656Y-57109288D01*
X62480925Y-57050858D01*
X62426336Y-57017187D01*
X62426331Y-57017185D01*
X62414697Y-57013330D01*
X62259797Y-56962001D01*
X62259795Y-56962000D01*
X62157010Y-56951500D01*
X59756998Y-56951500D01*
X59756981Y-56951501D01*
X59654203Y-56962000D01*
X59654200Y-56962001D01*
X59487668Y-57017185D01*
X59487663Y-57017187D01*
X59338342Y-57109289D01*
X59214289Y-57233342D01*
X59122187Y-57382663D01*
X59122185Y-57382668D01*
X59115330Y-57403355D01*
X59067001Y-57549203D01*
X59067001Y-57549204D01*
X59067000Y-57549204D01*
X59056500Y-57651983D01*
X49263901Y-57651983D01*
X49257999Y-57594203D01*
X49202814Y-57427666D01*
X49110712Y-57278344D01*
X48986656Y-57154288D01*
X48893888Y-57097069D01*
X48837336Y-57062187D01*
X48837331Y-57062185D01*
X48776860Y-57042147D01*
X48670797Y-57007001D01*
X48670795Y-57007000D01*
X48568010Y-56996500D01*
X46167998Y-56996500D01*
X46167981Y-56996501D01*
X46065203Y-57007000D01*
X46065200Y-57007001D01*
X45898668Y-57062185D01*
X45898663Y-57062187D01*
X45749342Y-57154289D01*
X45625289Y-57278342D01*
X45533187Y-57427663D01*
X45533185Y-57427668D01*
X45522471Y-57460001D01*
X45478001Y-57594203D01*
X45478001Y-57594204D01*
X45478000Y-57594204D01*
X45467500Y-57696983D01*
X40750500Y-57696983D01*
X40750500Y-40026983D01*
X50636500Y-40026983D01*
X50636500Y-42427001D01*
X50636501Y-42427018D01*
X50647000Y-42529796D01*
X50647001Y-42529799D01*
X50695448Y-42676000D01*
X50702186Y-42696334D01*
X50794288Y-42845656D01*
X50918344Y-42969712D01*
X51067666Y-43061814D01*
X51234203Y-43116999D01*
X51336991Y-43127500D01*
X51937008Y-43127499D01*
X51937016Y-43127498D01*
X51937019Y-43127498D01*
X51993302Y-43121748D01*
X52039797Y-43116999D01*
X52206334Y-43061814D01*
X52355656Y-42969712D01*
X52479712Y-42845656D01*
X52571814Y-42696334D01*
X52626999Y-42529797D01*
X52637500Y-42427009D01*
X52637499Y-40026992D01*
X52637498Y-40026983D01*
X55586500Y-40026983D01*
X55586500Y-42427001D01*
X55586501Y-42427018D01*
X55597000Y-42529796D01*
X55597001Y-42529799D01*
X55645448Y-42676000D01*
X55652186Y-42696334D01*
X55744288Y-42845656D01*
X55868344Y-42969712D01*
X56017666Y-43061814D01*
X56184203Y-43116999D01*
X56286991Y-43127500D01*
X56887008Y-43127499D01*
X56887016Y-43127498D01*
X56887019Y-43127498D01*
X56943302Y-43121748D01*
X56989797Y-43116999D01*
X57156334Y-43061814D01*
X57305656Y-42969712D01*
X57349374Y-42925994D01*
X63661556Y-42925994D01*
X63661556Y-42926005D01*
X63681310Y-43240004D01*
X63681311Y-43240011D01*
X63694704Y-43310218D01*
X63739212Y-43543540D01*
X63740270Y-43549083D01*
X63837497Y-43848316D01*
X63837499Y-43848321D01*
X63971461Y-44133003D01*
X63971464Y-44133009D01*
X64140051Y-44398661D01*
X64140054Y-44398665D01*
X64340606Y-44641090D01*
X64340608Y-44641092D01*
X64340610Y-44641094D01*
X64474680Y-44766994D01*
X64569968Y-44856476D01*
X64569978Y-44856484D01*
X64824504Y-45041408D01*
X64824509Y-45041410D01*
X64824516Y-45041416D01*
X65100234Y-45192994D01*
X65100239Y-45192996D01*
X65100241Y-45192997D01*
X65100242Y-45192998D01*
X65392771Y-45308818D01*
X65392774Y-45308819D01*
X65697523Y-45387065D01*
X65697527Y-45387066D01*
X65763010Y-45395338D01*
X66009670Y-45426499D01*
X66009679Y-45426499D01*
X66009682Y-45426500D01*
X66009684Y-45426500D01*
X66324316Y-45426500D01*
X66324318Y-45426500D01*
X66324321Y-45426499D01*
X66324329Y-45426499D01*
X66510593Y-45402968D01*
X66636473Y-45387066D01*
X66941225Y-45308819D01*
X66941228Y-45308818D01*
X67233757Y-45192998D01*
X67233758Y-45192997D01*
X67233756Y-45192997D01*
X67233766Y-45192994D01*
X67509484Y-45041416D01*
X67764030Y-44856478D01*
X67993390Y-44641094D01*
X68193947Y-44398663D01*
X68362537Y-44133007D01*
X68496503Y-43848315D01*
X68525069Y-43760397D01*
X68564506Y-43702723D01*
X68628865Y-43675524D01*
X68697711Y-43687439D01*
X68749187Y-43734683D01*
X68767000Y-43798716D01*
X68767000Y-44873844D01*
X68773401Y-44933372D01*
X68773403Y-44933379D01*
X68823645Y-45068086D01*
X68823649Y-45068093D01*
X68909809Y-45183187D01*
X68909812Y-45183190D01*
X69024906Y-45269350D01*
X69024913Y-45269354D01*
X69159620Y-45319596D01*
X69159627Y-45319598D01*
X69219155Y-45325999D01*
X69219172Y-45326000D01*
X70917000Y-45326000D01*
X70917000Y-44253231D01*
X71060753Y-44276000D01*
X71273247Y-44276000D01*
X71417000Y-44253231D01*
X71417000Y-45326000D01*
X73114828Y-45326000D01*
X73114844Y-45325999D01*
X73174372Y-45319598D01*
X73174379Y-45319596D01*
X73309086Y-45269354D01*
X73309093Y-45269350D01*
X73424187Y-45183190D01*
X73424190Y-45183187D01*
X73510350Y-45068093D01*
X73510354Y-45068086D01*
X73560596Y-44933379D01*
X73560598Y-44933372D01*
X73566999Y-44873844D01*
X73567000Y-44873827D01*
X73567000Y-43176000D01*
X72494231Y-43176000D01*
X72517000Y-43032247D01*
X72517000Y-42819753D01*
X72494231Y-42676000D01*
X73567000Y-42676000D01*
X73567000Y-40978172D01*
X73566999Y-40978155D01*
X73560598Y-40918627D01*
X73560596Y-40918620D01*
X73510354Y-40783913D01*
X73510350Y-40783906D01*
X73424190Y-40668812D01*
X73424187Y-40668809D01*
X73309093Y-40582649D01*
X73309086Y-40582645D01*
X73174379Y-40532403D01*
X73174372Y-40532401D01*
X73114844Y-40526000D01*
X71417000Y-40526000D01*
X71417000Y-41598768D01*
X71273247Y-41576000D01*
X71060753Y-41576000D01*
X70917000Y-41598768D01*
X70917000Y-40526000D01*
X69219155Y-40526000D01*
X69159627Y-40532401D01*
X69159620Y-40532403D01*
X69024913Y-40582645D01*
X69024906Y-40582649D01*
X68909812Y-40668809D01*
X68909809Y-40668812D01*
X68823649Y-40783906D01*
X68823645Y-40783913D01*
X68773403Y-40918620D01*
X68773401Y-40918627D01*
X68767000Y-40978155D01*
X68767000Y-42053283D01*
X68747315Y-42120322D01*
X68694511Y-42166077D01*
X68625353Y-42176021D01*
X68561797Y-42146996D01*
X68525069Y-42091601D01*
X68512618Y-42053283D01*
X68496503Y-42003685D01*
X68362537Y-41718993D01*
X68292887Y-41609242D01*
X68193948Y-41453338D01*
X68193945Y-41453334D01*
X67993393Y-41210909D01*
X67993391Y-41210907D01*
X67797911Y-41027338D01*
X67764030Y-40995522D01*
X67764027Y-40995520D01*
X67764021Y-40995515D01*
X67509495Y-40810591D01*
X67509488Y-40810586D01*
X67509484Y-40810584D01*
X67233766Y-40659006D01*
X67233763Y-40659004D01*
X67233758Y-40659002D01*
X67233757Y-40659001D01*
X66941228Y-40543181D01*
X66941225Y-40543180D01*
X66636476Y-40464934D01*
X66636463Y-40464932D01*
X66324329Y-40425500D01*
X66324318Y-40425500D01*
X66009682Y-40425500D01*
X66009670Y-40425500D01*
X65697536Y-40464932D01*
X65697523Y-40464934D01*
X65392774Y-40543180D01*
X65392771Y-40543181D01*
X65100242Y-40659001D01*
X65100241Y-40659002D01*
X64824516Y-40810584D01*
X64824504Y-40810591D01*
X64569978Y-40995515D01*
X64569968Y-40995523D01*
X64340608Y-41210907D01*
X64340606Y-41210909D01*
X64140054Y-41453334D01*
X64140051Y-41453338D01*
X63971464Y-41718990D01*
X63971461Y-41718996D01*
X63837499Y-42003678D01*
X63837497Y-42003683D01*
X63740270Y-42302916D01*
X63681311Y-42611988D01*
X63681310Y-42611995D01*
X63661556Y-42925994D01*
X57349374Y-42925994D01*
X57429712Y-42845656D01*
X57521814Y-42696334D01*
X57576999Y-42529797D01*
X57587500Y-42427009D01*
X57587499Y-40026992D01*
X57587498Y-40026983D01*
X79338500Y-40026983D01*
X79338500Y-42427001D01*
X79338501Y-42427018D01*
X79349000Y-42529796D01*
X79349001Y-42529799D01*
X79397448Y-42676000D01*
X79404186Y-42696334D01*
X79496288Y-42845656D01*
X79620344Y-42969712D01*
X79769666Y-43061814D01*
X79936203Y-43116999D01*
X80038991Y-43127500D01*
X80639008Y-43127499D01*
X80639016Y-43127498D01*
X80639019Y-43127498D01*
X80695302Y-43121748D01*
X80741797Y-43116999D01*
X80908334Y-43061814D01*
X81057656Y-42969712D01*
X81181712Y-42845656D01*
X81273814Y-42696334D01*
X81328999Y-42529797D01*
X81339500Y-42427009D01*
X81339499Y-40026992D01*
X81339498Y-40026983D01*
X84288500Y-40026983D01*
X84288500Y-42427001D01*
X84288501Y-42427018D01*
X84299000Y-42529796D01*
X84299001Y-42529799D01*
X84347448Y-42676000D01*
X84354186Y-42696334D01*
X84446288Y-42845656D01*
X84570344Y-42969712D01*
X84719666Y-43061814D01*
X84886203Y-43116999D01*
X84988991Y-43127500D01*
X85589008Y-43127499D01*
X85589016Y-43127498D01*
X85589019Y-43127498D01*
X85645302Y-43121748D01*
X85691797Y-43116999D01*
X85858334Y-43061814D01*
X86007656Y-42969712D01*
X86051374Y-42925994D01*
X91935556Y-42925994D01*
X91935556Y-42926005D01*
X91955310Y-43240004D01*
X91955311Y-43240011D01*
X91968704Y-43310218D01*
X92013212Y-43543540D01*
X92014270Y-43549083D01*
X92111497Y-43848316D01*
X92111499Y-43848321D01*
X92245461Y-44133003D01*
X92245464Y-44133009D01*
X92414051Y-44398661D01*
X92414054Y-44398665D01*
X92614606Y-44641090D01*
X92614608Y-44641092D01*
X92614610Y-44641094D01*
X92748680Y-44766994D01*
X92843968Y-44856476D01*
X92843978Y-44856484D01*
X93098504Y-45041408D01*
X93098509Y-45041410D01*
X93098516Y-45041416D01*
X93374234Y-45192994D01*
X93374239Y-45192996D01*
X93374241Y-45192997D01*
X93374242Y-45192998D01*
X93666771Y-45308818D01*
X93666774Y-45308819D01*
X93971523Y-45387065D01*
X93971527Y-45387066D01*
X94037010Y-45395338D01*
X94283670Y-45426499D01*
X94283679Y-45426499D01*
X94283682Y-45426500D01*
X94283684Y-45426500D01*
X94598316Y-45426500D01*
X94598318Y-45426500D01*
X94598321Y-45426499D01*
X94598329Y-45426499D01*
X94784593Y-45402968D01*
X94910473Y-45387066D01*
X95215225Y-45308819D01*
X95215228Y-45308818D01*
X95507757Y-45192998D01*
X95507758Y-45192997D01*
X95507756Y-45192997D01*
X95507766Y-45192994D01*
X95783484Y-45041416D01*
X96038030Y-44856478D01*
X96267390Y-44641094D01*
X96467947Y-44398663D01*
X96636537Y-44133007D01*
X96770503Y-43848315D01*
X96799069Y-43760397D01*
X96838506Y-43702723D01*
X96902865Y-43675524D01*
X96971711Y-43687439D01*
X97023187Y-43734683D01*
X97041000Y-43798716D01*
X97041000Y-44873844D01*
X97047401Y-44933372D01*
X97047403Y-44933379D01*
X97097645Y-45068086D01*
X97097649Y-45068093D01*
X97183809Y-45183187D01*
X97183812Y-45183190D01*
X97298906Y-45269350D01*
X97298913Y-45269354D01*
X97433620Y-45319596D01*
X97433627Y-45319598D01*
X97493155Y-45325999D01*
X97493172Y-45326000D01*
X99191000Y-45326000D01*
X99191000Y-44253231D01*
X99334753Y-44276000D01*
X99547247Y-44276000D01*
X99691000Y-44253231D01*
X99691000Y-45326000D01*
X101388828Y-45326000D01*
X101388844Y-45325999D01*
X101448372Y-45319598D01*
X101448379Y-45319596D01*
X101583086Y-45269354D01*
X101583093Y-45269350D01*
X101698187Y-45183190D01*
X101698190Y-45183187D01*
X101784350Y-45068093D01*
X101784354Y-45068086D01*
X101834596Y-44933379D01*
X101834598Y-44933372D01*
X101840999Y-44873844D01*
X101841000Y-44873827D01*
X101841000Y-43176000D01*
X100768231Y-43176000D01*
X100791000Y-43032247D01*
X100791000Y-42819753D01*
X100768231Y-42676000D01*
X101841000Y-42676000D01*
X101841000Y-40978172D01*
X101840999Y-40978155D01*
X101834598Y-40918627D01*
X101834596Y-40918620D01*
X101784354Y-40783913D01*
X101784350Y-40783906D01*
X101698190Y-40668812D01*
X101698187Y-40668809D01*
X101583093Y-40582649D01*
X101583086Y-40582645D01*
X101448379Y-40532403D01*
X101448372Y-40532401D01*
X101388844Y-40526000D01*
X99691000Y-40526000D01*
X99691000Y-41598768D01*
X99547247Y-41576000D01*
X99334753Y-41576000D01*
X99191000Y-41598768D01*
X99191000Y-40526000D01*
X97493155Y-40526000D01*
X97433627Y-40532401D01*
X97433620Y-40532403D01*
X97298913Y-40582645D01*
X97298906Y-40582649D01*
X97183812Y-40668809D01*
X97183809Y-40668812D01*
X97097649Y-40783906D01*
X97097645Y-40783913D01*
X97047403Y-40918620D01*
X97047401Y-40918627D01*
X97041000Y-40978155D01*
X97041000Y-42053283D01*
X97021315Y-42120322D01*
X96968511Y-42166077D01*
X96899353Y-42176021D01*
X96835797Y-42146996D01*
X96799069Y-42091601D01*
X96786618Y-42053283D01*
X96770503Y-42003685D01*
X96636537Y-41718993D01*
X96566887Y-41609242D01*
X96467948Y-41453338D01*
X96467945Y-41453334D01*
X96267393Y-41210909D01*
X96267391Y-41210907D01*
X96071911Y-41027338D01*
X96038030Y-40995522D01*
X96038027Y-40995520D01*
X96038021Y-40995515D01*
X95783495Y-40810591D01*
X95783488Y-40810586D01*
X95783484Y-40810584D01*
X95507766Y-40659006D01*
X95507763Y-40659004D01*
X95507758Y-40659002D01*
X95507757Y-40659001D01*
X95215228Y-40543181D01*
X95215225Y-40543180D01*
X94910476Y-40464934D01*
X94910463Y-40464932D01*
X94598329Y-40425500D01*
X94598318Y-40425500D01*
X94283682Y-40425500D01*
X94283670Y-40425500D01*
X93971536Y-40464932D01*
X93971523Y-40464934D01*
X93666774Y-40543180D01*
X93666771Y-40543181D01*
X93374242Y-40659001D01*
X93374241Y-40659002D01*
X93098516Y-40810584D01*
X93098504Y-40810591D01*
X92843978Y-40995515D01*
X92843968Y-40995523D01*
X92614608Y-41210907D01*
X92614606Y-41210909D01*
X92414054Y-41453334D01*
X92414051Y-41453338D01*
X92245464Y-41718990D01*
X92245461Y-41718996D01*
X92111499Y-42003678D01*
X92111497Y-42003683D01*
X92014270Y-42302916D01*
X91955311Y-42611988D01*
X91955310Y-42611995D01*
X91935556Y-42925994D01*
X86051374Y-42925994D01*
X86131712Y-42845656D01*
X86223814Y-42696334D01*
X86278999Y-42529797D01*
X86289500Y-42427009D01*
X86289499Y-40201983D01*
X108222500Y-40201983D01*
X108222500Y-42602001D01*
X108222501Y-42602018D01*
X108233000Y-42704796D01*
X108233001Y-42704799D01*
X108269191Y-42814011D01*
X108288186Y-42871334D01*
X108380288Y-43020656D01*
X108504344Y-43144712D01*
X108653666Y-43236814D01*
X108820203Y-43291999D01*
X108922991Y-43302500D01*
X109523008Y-43302499D01*
X109523016Y-43302498D01*
X109523019Y-43302498D01*
X109579302Y-43296748D01*
X109625797Y-43291999D01*
X109792334Y-43236814D01*
X109941656Y-43144712D01*
X110065712Y-43020656D01*
X110157814Y-42871334D01*
X110212999Y-42704797D01*
X110223500Y-42602009D01*
X110223499Y-40201992D01*
X110223498Y-40201983D01*
X113172500Y-40201983D01*
X113172500Y-42602001D01*
X113172501Y-42602018D01*
X113183000Y-42704796D01*
X113183001Y-42704799D01*
X113219191Y-42814011D01*
X113238186Y-42871334D01*
X113330288Y-43020656D01*
X113454344Y-43144712D01*
X113603666Y-43236814D01*
X113770203Y-43291999D01*
X113872991Y-43302500D01*
X114473008Y-43302499D01*
X114473016Y-43302498D01*
X114473019Y-43302498D01*
X114529302Y-43296748D01*
X114575797Y-43291999D01*
X114742334Y-43236814D01*
X114891656Y-43144712D01*
X115015712Y-43020656D01*
X115107814Y-42871334D01*
X115162999Y-42704797D01*
X115173500Y-42602009D01*
X115173500Y-42499994D01*
X120994556Y-42499994D01*
X120994556Y-42500005D01*
X121014310Y-42814004D01*
X121014311Y-42814011D01*
X121073270Y-43123083D01*
X121170497Y-43422316D01*
X121170499Y-43422321D01*
X121304461Y-43707003D01*
X121304464Y-43707009D01*
X121473051Y-43972661D01*
X121473054Y-43972665D01*
X121673606Y-44215090D01*
X121673608Y-44215092D01*
X121673610Y-44215094D01*
X121869089Y-44398661D01*
X121902968Y-44430476D01*
X121902978Y-44430484D01*
X122157504Y-44615408D01*
X122157509Y-44615410D01*
X122157516Y-44615416D01*
X122433234Y-44766994D01*
X122433239Y-44766996D01*
X122433241Y-44766997D01*
X122433242Y-44766998D01*
X122725771Y-44882818D01*
X122725774Y-44882819D01*
X122922666Y-44933372D01*
X123030527Y-44961066D01*
X123096010Y-44969338D01*
X123342670Y-45000499D01*
X123342679Y-45000499D01*
X123342682Y-45000500D01*
X123342684Y-45000500D01*
X123657316Y-45000500D01*
X123657318Y-45000500D01*
X123657321Y-45000499D01*
X123657329Y-45000499D01*
X123843593Y-44976968D01*
X123969473Y-44961066D01*
X124274225Y-44882819D01*
X124274228Y-44882818D01*
X124566757Y-44766998D01*
X124566758Y-44766997D01*
X124566756Y-44766997D01*
X124566766Y-44766994D01*
X124842484Y-44615416D01*
X125097030Y-44430478D01*
X125326390Y-44215094D01*
X125526947Y-43972663D01*
X125695537Y-43707007D01*
X125829503Y-43422315D01*
X125857570Y-43335933D01*
X125897005Y-43278259D01*
X125961364Y-43251060D01*
X126030210Y-43262974D01*
X126081687Y-43310218D01*
X126099500Y-43374252D01*
X126099500Y-44447870D01*
X126099501Y-44447876D01*
X126105908Y-44507483D01*
X126156202Y-44642328D01*
X126156206Y-44642335D01*
X126242452Y-44757544D01*
X126242455Y-44757547D01*
X126357664Y-44843793D01*
X126357671Y-44843797D01*
X126492517Y-44894091D01*
X126492516Y-44894091D01*
X126499444Y-44894835D01*
X126552127Y-44900500D01*
X130447872Y-44900499D01*
X130507483Y-44894091D01*
X130642331Y-44843796D01*
X130757546Y-44757546D01*
X130843796Y-44642331D01*
X130894091Y-44507483D01*
X130900500Y-44447873D01*
X130900499Y-40552128D01*
X130894091Y-40492517D01*
X130883803Y-40464934D01*
X130843797Y-40357671D01*
X130843793Y-40357664D01*
X130757547Y-40242455D01*
X130757544Y-40242452D01*
X130642335Y-40156206D01*
X130642328Y-40156202D01*
X130507482Y-40105908D01*
X130507483Y-40105908D01*
X130447883Y-40099501D01*
X130447881Y-40099500D01*
X130447873Y-40099500D01*
X130447864Y-40099500D01*
X126552129Y-40099500D01*
X126552123Y-40099501D01*
X126492516Y-40105908D01*
X126357671Y-40156202D01*
X126357664Y-40156206D01*
X126242455Y-40242452D01*
X126242452Y-40242455D01*
X126156206Y-40357664D01*
X126156202Y-40357671D01*
X126105908Y-40492517D01*
X126100462Y-40543180D01*
X126099501Y-40552123D01*
X126099500Y-40552135D01*
X126099500Y-41625745D01*
X126079815Y-41692784D01*
X126027011Y-41738539D01*
X125957853Y-41748483D01*
X125894297Y-41719458D01*
X125857569Y-41664063D01*
X125845119Y-41625745D01*
X125829503Y-41577685D01*
X125695537Y-41292993D01*
X125526947Y-41027337D01*
X125526945Y-41027334D01*
X125326393Y-40784909D01*
X125326391Y-40784907D01*
X125192321Y-40659006D01*
X125097030Y-40569522D01*
X125097027Y-40569520D01*
X125097021Y-40569515D01*
X124842495Y-40384591D01*
X124842488Y-40384586D01*
X124842484Y-40384584D01*
X124566766Y-40233006D01*
X124566763Y-40233004D01*
X124566758Y-40233002D01*
X124566757Y-40233001D01*
X124274228Y-40117181D01*
X124274225Y-40117180D01*
X123969476Y-40038934D01*
X123969463Y-40038932D01*
X123657329Y-39999500D01*
X123657318Y-39999500D01*
X123342682Y-39999500D01*
X123342670Y-39999500D01*
X123030536Y-40038932D01*
X123030523Y-40038934D01*
X122725774Y-40117180D01*
X122725771Y-40117181D01*
X122433242Y-40233001D01*
X122433241Y-40233002D01*
X122157516Y-40384584D01*
X122157504Y-40384591D01*
X121902978Y-40569515D01*
X121902968Y-40569523D01*
X121673608Y-40784907D01*
X121673606Y-40784909D01*
X121473054Y-41027334D01*
X121473051Y-41027338D01*
X121304464Y-41292990D01*
X121304461Y-41292996D01*
X121170499Y-41577678D01*
X121170497Y-41577683D01*
X121073270Y-41876916D01*
X121014311Y-42185988D01*
X121014310Y-42185995D01*
X120994556Y-42499994D01*
X115173500Y-42499994D01*
X115173499Y-40201992D01*
X115162999Y-40099203D01*
X115107814Y-39932666D01*
X115015712Y-39783344D01*
X114891656Y-39659288D01*
X114742334Y-39567186D01*
X114575797Y-39512001D01*
X114575795Y-39512000D01*
X114473010Y-39501500D01*
X113872998Y-39501500D01*
X113872980Y-39501501D01*
X113770203Y-39512000D01*
X113770200Y-39512001D01*
X113603668Y-39567185D01*
X113603663Y-39567187D01*
X113454342Y-39659289D01*
X113330289Y-39783342D01*
X113238187Y-39932663D01*
X113238186Y-39932666D01*
X113183001Y-40099203D01*
X113183001Y-40099204D01*
X113183000Y-40099204D01*
X113172500Y-40201983D01*
X110223498Y-40201983D01*
X110212999Y-40099203D01*
X110157814Y-39932666D01*
X110065712Y-39783344D01*
X109941656Y-39659288D01*
X109792334Y-39567186D01*
X109625797Y-39512001D01*
X109625795Y-39512000D01*
X109523010Y-39501500D01*
X108922998Y-39501500D01*
X108922980Y-39501501D01*
X108820203Y-39512000D01*
X108820200Y-39512001D01*
X108653668Y-39567185D01*
X108653663Y-39567187D01*
X108504342Y-39659289D01*
X108380289Y-39783342D01*
X108288187Y-39932663D01*
X108288186Y-39932666D01*
X108233001Y-40099203D01*
X108233001Y-40099204D01*
X108233000Y-40099204D01*
X108222500Y-40201983D01*
X86289499Y-40201983D01*
X86289499Y-40026992D01*
X86278999Y-39924203D01*
X86223814Y-39757666D01*
X86131712Y-39608344D01*
X86007656Y-39484288D01*
X85906565Y-39421935D01*
X85858336Y-39392187D01*
X85858331Y-39392185D01*
X85856862Y-39391698D01*
X85691797Y-39337001D01*
X85691795Y-39337000D01*
X85589010Y-39326500D01*
X84988998Y-39326500D01*
X84988980Y-39326501D01*
X84886203Y-39337000D01*
X84886200Y-39337001D01*
X84719668Y-39392185D01*
X84719663Y-39392187D01*
X84570342Y-39484289D01*
X84446289Y-39608342D01*
X84354187Y-39757663D01*
X84354186Y-39757666D01*
X84299001Y-39924203D01*
X84299001Y-39924204D01*
X84299000Y-39924204D01*
X84288500Y-40026983D01*
X81339498Y-40026983D01*
X81328999Y-39924203D01*
X81273814Y-39757666D01*
X81181712Y-39608344D01*
X81057656Y-39484288D01*
X80956565Y-39421935D01*
X80908336Y-39392187D01*
X80908331Y-39392185D01*
X80906862Y-39391698D01*
X80741797Y-39337001D01*
X80741795Y-39337000D01*
X80639010Y-39326500D01*
X80038998Y-39326500D01*
X80038980Y-39326501D01*
X79936203Y-39337000D01*
X79936200Y-39337001D01*
X79769668Y-39392185D01*
X79769663Y-39392187D01*
X79620342Y-39484289D01*
X79496289Y-39608342D01*
X79404187Y-39757663D01*
X79404186Y-39757666D01*
X79349001Y-39924203D01*
X79349001Y-39924204D01*
X79349000Y-39924204D01*
X79338500Y-40026983D01*
X57587498Y-40026983D01*
X57576999Y-39924203D01*
X57521814Y-39757666D01*
X57429712Y-39608344D01*
X57305656Y-39484288D01*
X57204565Y-39421935D01*
X57156336Y-39392187D01*
X57156331Y-39392185D01*
X57154862Y-39391698D01*
X56989797Y-39337001D01*
X56989795Y-39337000D01*
X56887010Y-39326500D01*
X56286998Y-39326500D01*
X56286980Y-39326501D01*
X56184203Y-39337000D01*
X56184200Y-39337001D01*
X56017668Y-39392185D01*
X56017663Y-39392187D01*
X55868342Y-39484289D01*
X55744289Y-39608342D01*
X55652187Y-39757663D01*
X55652186Y-39757666D01*
X55597001Y-39924203D01*
X55597001Y-39924204D01*
X55597000Y-39924204D01*
X55586500Y-40026983D01*
X52637498Y-40026983D01*
X52626999Y-39924203D01*
X52571814Y-39757666D01*
X52479712Y-39608344D01*
X52355656Y-39484288D01*
X52254565Y-39421935D01*
X52206336Y-39392187D01*
X52206331Y-39392185D01*
X52204862Y-39391698D01*
X52039797Y-39337001D01*
X52039795Y-39337000D01*
X51937010Y-39326500D01*
X51336998Y-39326500D01*
X51336980Y-39326501D01*
X51234203Y-39337000D01*
X51234200Y-39337001D01*
X51067668Y-39392185D01*
X51067663Y-39392187D01*
X50918342Y-39484289D01*
X50794289Y-39608342D01*
X50702187Y-39757663D01*
X50702186Y-39757666D01*
X50647001Y-39924203D01*
X50647001Y-39924204D01*
X50647000Y-39924204D01*
X50636500Y-40026983D01*
X40750500Y-40026983D01*
X40750500Y-38103051D01*
X40750649Y-38096967D01*
X40756149Y-37985010D01*
X42695500Y-37985010D01*
X42695500Y-38214989D01*
X42695501Y-38215005D01*
X42725518Y-38443009D01*
X42725519Y-38443014D01*
X42725520Y-38443020D01*
X42725521Y-38443022D01*
X42785046Y-38665175D01*
X42785049Y-38665185D01*
X42873057Y-38877654D01*
X42873061Y-38877664D01*
X42988055Y-39076839D01*
X43128064Y-39259303D01*
X43128070Y-39259310D01*
X43290689Y-39421929D01*
X43290696Y-39421935D01*
X43473160Y-39561944D01*
X43672335Y-39676938D01*
X43672336Y-39676938D01*
X43672339Y-39676940D01*
X43884824Y-39764954D01*
X44106980Y-39824480D01*
X44335004Y-39854500D01*
X44335011Y-39854500D01*
X44564989Y-39854500D01*
X44564996Y-39854500D01*
X44793020Y-39824480D01*
X45015176Y-39764954D01*
X45227661Y-39676940D01*
X45426840Y-39561944D01*
X45609305Y-39421934D01*
X45771934Y-39259305D01*
X45911944Y-39076840D01*
X46026940Y-38877661D01*
X46114954Y-38665176D01*
X46174480Y-38443020D01*
X46204500Y-38214996D01*
X46204500Y-37985010D01*
X138695500Y-37985010D01*
X138695500Y-38214989D01*
X138695501Y-38215005D01*
X138725518Y-38443009D01*
X138725519Y-38443014D01*
X138725520Y-38443020D01*
X138725521Y-38443022D01*
X138785046Y-38665175D01*
X138785049Y-38665185D01*
X138873057Y-38877654D01*
X138873061Y-38877664D01*
X138988055Y-39076839D01*
X139128064Y-39259303D01*
X139128070Y-39259310D01*
X139290689Y-39421929D01*
X139290696Y-39421935D01*
X139473160Y-39561944D01*
X139672335Y-39676938D01*
X139672336Y-39676938D01*
X139672339Y-39676940D01*
X139884824Y-39764954D01*
X140106980Y-39824480D01*
X140335004Y-39854500D01*
X140335011Y-39854500D01*
X140564989Y-39854500D01*
X140564996Y-39854500D01*
X140793020Y-39824480D01*
X141015176Y-39764954D01*
X141227661Y-39676940D01*
X141426840Y-39561944D01*
X141609305Y-39421934D01*
X141771934Y-39259305D01*
X141911944Y-39076840D01*
X142026940Y-38877661D01*
X142114954Y-38665176D01*
X142174480Y-38443020D01*
X142204500Y-38214996D01*
X142204500Y-37985004D01*
X142174480Y-37756980D01*
X142114954Y-37534824D01*
X142026940Y-37322339D01*
X141911944Y-37123160D01*
X141771934Y-36940695D01*
X141771929Y-36940689D01*
X141609310Y-36778070D01*
X141609303Y-36778064D01*
X141426839Y-36638055D01*
X141227664Y-36523061D01*
X141227654Y-36523057D01*
X141015185Y-36435049D01*
X141015178Y-36435047D01*
X141015176Y-36435046D01*
X140793020Y-36375520D01*
X140793014Y-36375519D01*
X140793009Y-36375518D01*
X140565005Y-36345501D01*
X140565002Y-36345500D01*
X140564996Y-36345500D01*
X140335004Y-36345500D01*
X140334998Y-36345500D01*
X140334994Y-36345501D01*
X140106990Y-36375518D01*
X140106983Y-36375519D01*
X140106980Y-36375520D01*
X139884824Y-36435046D01*
X139884814Y-36435049D01*
X139672345Y-36523057D01*
X139672335Y-36523061D01*
X139473160Y-36638055D01*
X139290696Y-36778064D01*
X139290689Y-36778070D01*
X139128070Y-36940689D01*
X139128064Y-36940696D01*
X138988055Y-37123160D01*
X138873061Y-37322335D01*
X138873057Y-37322345D01*
X138785049Y-37534814D01*
X138785046Y-37534824D01*
X138729141Y-37743468D01*
X138725521Y-37756977D01*
X138725518Y-37756990D01*
X138695501Y-37984994D01*
X138695500Y-37985010D01*
X46204500Y-37985010D01*
X46204500Y-37985004D01*
X46174480Y-37756980D01*
X46114954Y-37534824D01*
X46026940Y-37322339D01*
X45911944Y-37123160D01*
X45771934Y-36940695D01*
X45771929Y-36940689D01*
X45609310Y-36778070D01*
X45609303Y-36778064D01*
X45426839Y-36638055D01*
X45227664Y-36523061D01*
X45227654Y-36523057D01*
X45015185Y-36435049D01*
X45015178Y-36435047D01*
X45015176Y-36435046D01*
X44793020Y-36375520D01*
X44793014Y-36375519D01*
X44793009Y-36375518D01*
X44565005Y-36345501D01*
X44565002Y-36345500D01*
X44564996Y-36345500D01*
X44335004Y-36345500D01*
X44334998Y-36345500D01*
X44334994Y-36345501D01*
X44106990Y-36375518D01*
X44106983Y-36375519D01*
X44106980Y-36375520D01*
X43884824Y-36435046D01*
X43884814Y-36435049D01*
X43672345Y-36523057D01*
X43672335Y-36523061D01*
X43473160Y-36638055D01*
X43290696Y-36778064D01*
X43290689Y-36778070D01*
X43128070Y-36940689D01*
X43128064Y-36940696D01*
X42988055Y-37123160D01*
X42873061Y-37322335D01*
X42873057Y-37322345D01*
X42785049Y-37534814D01*
X42785046Y-37534824D01*
X42729141Y-37743468D01*
X42725521Y-37756977D01*
X42725518Y-37756990D01*
X42695501Y-37984994D01*
X42695500Y-37985010D01*
X40756149Y-37985010D01*
X40756150Y-37984994D01*
X40768015Y-37743465D01*
X40769208Y-37731359D01*
X40820691Y-37384287D01*
X40823061Y-37372367D01*
X40908322Y-37031986D01*
X40911852Y-37020353D01*
X40940355Y-36940695D01*
X41030055Y-36689999D01*
X41034710Y-36678762D01*
X41069835Y-36604495D01*
X41184735Y-36361557D01*
X41190454Y-36350857D01*
X41370851Y-36049884D01*
X41377594Y-36039791D01*
X41586630Y-35757939D01*
X41594333Y-35748554D01*
X41829983Y-35488553D01*
X41838553Y-35479983D01*
X42098554Y-35244333D01*
X42107939Y-35236630D01*
X42389791Y-35027594D01*
X42399884Y-35020851D01*
X42700857Y-34840454D01*
X42711557Y-34834735D01*
X43028762Y-34684710D01*
X43039999Y-34680055D01*
X43370361Y-34561849D01*
X43381986Y-34558322D01*
X43722367Y-34473061D01*
X43734278Y-34470692D01*
X44081359Y-34419207D01*
X44093465Y-34418015D01*
X44446967Y-34400648D01*
X44453051Y-34400500D01*
X44497595Y-34400500D01*
X140402405Y-34400500D01*
X140446949Y-34400500D01*
X140453032Y-34400648D01*
G37*
G04 #@! TD.AperFunction*
M02*
