M48
; DRILL file {KiCad 7.0.7} date Sat Mar 23 22:08:50 2024
; FORMAT={-:-/ absolute / metric / decimal}
; #@! TF.CreationDate,2024-03-23T22:08:50-05:00
; #@! TF.GenerationSoftware,Kicad,Pcbnew,7.0.7
; #@! TF.FileFunction,Plated,1,2,PTH
FMAT,2
METRIC
; #@! TA.AperFunction,Plated,PTH,ViaDrill
T1C0.400
; #@! TA.AperFunction,Plated,PTH,ComponentDrill
T2C1.000
; #@! TA.AperFunction,Plated,PTH,ComponentDrill
T3C1.016
; #@! TA.AperFunction,Plated,PTH,ComponentDrill
T4C1.020
; #@! TA.AperFunction,Plated,PTH,ComponentDrill
T5C2.700
%
G90
G05
T1
X72.644Y-52.324
X75.946Y-52.324
X78.105Y-85.852
X80.391Y-83.566
X106.426Y-85.852
X108.712Y-83.566
T2
X118.999Y-84.074
X133.96Y-38.1
X133.96Y-84.176
X140.45Y-50.343
X140.45Y-72.339
T3
X126.588Y-56.266
X126.588Y-59.766
X126.588Y-63.266
X126.588Y-66.766
X131.188Y-59.766
X131.188Y-63.266
X131.188Y-66.766
T4
X131.188Y-56.266
T5
X68.394Y-40.09
X68.394Y-45.09
X68.394Y-76.877
X68.394Y-81.877
X97.251Y-40.09
X97.251Y-45.09
X97.251Y-76.877
X97.251Y-81.877
X126.108Y-40.09
X126.108Y-45.09
X126.108Y-77.134
X126.108Y-82.134
T0
M30
