G04 #@! TF.GenerationSoftware,KiCad,Pcbnew,8.0.5*
G04 #@! TF.CreationDate,2025-02-21T17:38:32-06:00*
G04 #@! TF.ProjectId,ArmorPlate,41726d6f-7250-46c6-9174-652e6b696361,rev?*
G04 #@! TF.SameCoordinates,Original*
G04 #@! TF.FileFunction,Paste,Top*
G04 #@! TF.FilePolarity,Positive*
%FSLAX46Y46*%
G04 Gerber Fmt 4.6, Leading zero omitted, Abs format (unit mm)*
G04 Created by KiCad (PCBNEW 8.0.5) date 2025-02-21 17:38:32*
%MOMM*%
%LPD*%
G01*
G04 APERTURE LIST*
G04 Aperture macros list*
%AMRoundRect*
0 Rectangle with rounded corners*
0 $1 Rounding radius*
0 $2 $3 $4 $5 $6 $7 $8 $9 X,Y pos of 4 corners*
0 Add a 4 corners polygon primitive as box body*
4,1,4,$2,$3,$4,$5,$6,$7,$8,$9,$2,$3,0*
0 Add four circle primitives for the rounded corners*
1,1,$1+$1,$2,$3*
1,1,$1+$1,$4,$5*
1,1,$1+$1,$6,$7*
1,1,$1+$1,$8,$9*
0 Add four rect primitives between the rounded corners*
20,1,$1+$1,$2,$3,$4,$5,0*
20,1,$1+$1,$4,$5,$6,$7,0*
20,1,$1+$1,$6,$7,$8,$9,0*
20,1,$1+$1,$8,$9,$2,$3,0*%
G04 Aperture macros list end*
%ADD10RoundRect,0.237500X0.250000X0.237500X-0.250000X0.237500X-0.250000X-0.237500X0.250000X-0.237500X0*%
%ADD11R,0.700000X1.500000*%
%ADD12R,1.000000X0.800000*%
%ADD13RoundRect,0.237500X-0.250000X-0.237500X0.250000X-0.237500X0.250000X0.237500X-0.250000X0.237500X0*%
%ADD14RoundRect,0.237500X0.287500X0.237500X-0.287500X0.237500X-0.287500X-0.237500X0.287500X-0.237500X0*%
%ADD15RoundRect,0.237500X-0.287500X-0.237500X0.287500X-0.237500X0.287500X0.237500X-0.287500X0.237500X0*%
G04 APERTURE END LIST*
D10*
X97845000Y-97345559D03*
X96020000Y-97345559D03*
D11*
X145630000Y-115090000D03*
X147130000Y-115090000D03*
X150130000Y-115090000D03*
X151630000Y-115090000D03*
D12*
X143480000Y-115790000D03*
X143480000Y-117630000D03*
X153780000Y-117890000D03*
X153780000Y-115790000D03*
D13*
X202205000Y-96976663D03*
X204030000Y-96976663D03*
D14*
X88780000Y-88503337D03*
X87030000Y-88503337D03*
D10*
X97845000Y-92740000D03*
X96020000Y-92740000D03*
D15*
X211270000Y-79476663D03*
X213020000Y-79476663D03*
D13*
X202205000Y-101476663D03*
X204030000Y-101476663D03*
D10*
X97845000Y-88503337D03*
X96020000Y-88503337D03*
X97845000Y-79740000D03*
X96020000Y-79740000D03*
D15*
X211270000Y-96976663D03*
X213020000Y-96976663D03*
D14*
X88780000Y-115030004D03*
X87030000Y-115030004D03*
X88780000Y-101766670D03*
X87030000Y-101766670D03*
X88780000Y-106187781D03*
X87030000Y-106187781D03*
D15*
X211270000Y-114766667D03*
X213020000Y-114766667D03*
D10*
X97845000Y-75240004D03*
X96020000Y-75240004D03*
X97845000Y-106187781D03*
X96020000Y-106187781D03*
X97845000Y-101766670D03*
X96020000Y-101766670D03*
D15*
X211270000Y-83818889D03*
X213020000Y-83818889D03*
D13*
X202205000Y-88240000D03*
X204030000Y-88240000D03*
D15*
X211270000Y-101476663D03*
X213020000Y-101476663D03*
X211270000Y-92476663D03*
X213020000Y-92476663D03*
D13*
X202232500Y-114766667D03*
X204057500Y-114766667D03*
D14*
X88780000Y-84082226D03*
X87030000Y-84082226D03*
D13*
X202205000Y-79476663D03*
X204030000Y-79476663D03*
D14*
X88780000Y-75240004D03*
X87030000Y-75240004D03*
D15*
X211270000Y-88240000D03*
X213020000Y-88240000D03*
X211270000Y-110345555D03*
X213020000Y-110345555D03*
D13*
X202205000Y-83818889D03*
X204030000Y-83818889D03*
D15*
X211270000Y-105924444D03*
X213020000Y-105924444D03*
X211270000Y-74976663D03*
X213020000Y-74976663D03*
D14*
X88780000Y-79740000D03*
X87030000Y-79740000D03*
D13*
X202205000Y-105924444D03*
X204030000Y-105924444D03*
D10*
X97845000Y-115030004D03*
X96020000Y-115030004D03*
D13*
X202205000Y-74976663D03*
X204030000Y-74976663D03*
X202205000Y-92476663D03*
X204030000Y-92476663D03*
D14*
X88780000Y-92740000D03*
X87030000Y-92740000D03*
X88780000Y-97345559D03*
X87030000Y-97345559D03*
D10*
X97845000Y-84082226D03*
X96020000Y-84082226D03*
D14*
X88780000Y-110608892D03*
X87030000Y-110608892D03*
D10*
X97845000Y-110608892D03*
X96020000Y-110608892D03*
D13*
X202205000Y-110345555D03*
X204030000Y-110345555D03*
M02*
