G04 #@! TF.GenerationSoftware,KiCad,Pcbnew,8.0.5*
G04 #@! TF.CreationDate,2025-02-21T17:38:32-06:00*
G04 #@! TF.ProjectId,ArmorPlate,41726d6f-7250-46c6-9174-652e6b696361,rev?*
G04 #@! TF.SameCoordinates,Original*
G04 #@! TF.FileFunction,Legend,Top*
G04 #@! TF.FilePolarity,Positive*
%FSLAX46Y46*%
G04 Gerber Fmt 4.6, Leading zero omitted, Abs format (unit mm)*
G04 Created by KiCad (PCBNEW 8.0.5) date 2025-02-21 17:38:32*
%MOMM*%
%LPD*%
G01*
G04 APERTURE LIST*
G04 Aperture macros list*
%AMRoundRect*
0 Rectangle with rounded corners*
0 $1 Rounding radius*
0 $2 $3 $4 $5 $6 $7 $8 $9 X,Y pos of 4 corners*
0 Add a 4 corners polygon primitive as box body*
4,1,4,$2,$3,$4,$5,$6,$7,$8,$9,$2,$3,0*
0 Add four circle primitives for the rounded corners*
1,1,$1+$1,$2,$3*
1,1,$1+$1,$4,$5*
1,1,$1+$1,$6,$7*
1,1,$1+$1,$8,$9*
0 Add four rect primitives between the rounded corners*
20,1,$1+$1,$2,$3,$4,$5,0*
20,1,$1+$1,$4,$5,$6,$7,0*
20,1,$1+$1,$6,$7,$8,$9,0*
20,1,$1+$1,$8,$9,$2,$3,0*%
G04 Aperture macros list end*
%ADD10C,0.150000*%
%ADD11C,0.254000*%
%ADD12C,0.120000*%
%ADD13C,0.100000*%
%ADD14C,0.200000*%
%ADD15RoundRect,0.237500X0.250000X0.237500X-0.250000X0.237500X-0.250000X-0.237500X0.250000X-0.237500X0*%
%ADD16C,0.900000*%
%ADD17R,0.700000X1.500000*%
%ADD18R,1.000000X0.800000*%
%ADD19RoundRect,0.237500X-0.250000X-0.237500X0.250000X-0.237500X0.250000X0.237500X-0.250000X0.237500X0*%
%ADD20RoundRect,0.237500X0.287500X0.237500X-0.287500X0.237500X-0.287500X-0.237500X0.287500X-0.237500X0*%
%ADD21RoundRect,0.237500X-0.287500X-0.237500X0.287500X-0.237500X0.287500X0.237500X-0.287500X0.237500X0*%
%ADD22C,4.500000*%
%ADD23C,3.450000*%
%ADD24R,2.000000X2.000000*%
%ADD25C,2.000000*%
G04 APERTURE END LIST*
D10*
X96765833Y-99230378D02*
X96432500Y-98754187D01*
X96194405Y-99230378D02*
X96194405Y-98230378D01*
X96194405Y-98230378D02*
X96575357Y-98230378D01*
X96575357Y-98230378D02*
X96670595Y-98277997D01*
X96670595Y-98277997D02*
X96718214Y-98325616D01*
X96718214Y-98325616D02*
X96765833Y-98420854D01*
X96765833Y-98420854D02*
X96765833Y-98563711D01*
X96765833Y-98563711D02*
X96718214Y-98658949D01*
X96718214Y-98658949D02*
X96670595Y-98706568D01*
X96670595Y-98706568D02*
X96575357Y-98754187D01*
X96575357Y-98754187D02*
X96194405Y-98754187D01*
X97337262Y-98658949D02*
X97242024Y-98611330D01*
X97242024Y-98611330D02*
X97194405Y-98563711D01*
X97194405Y-98563711D02*
X97146786Y-98468473D01*
X97146786Y-98468473D02*
X97146786Y-98420854D01*
X97146786Y-98420854D02*
X97194405Y-98325616D01*
X97194405Y-98325616D02*
X97242024Y-98277997D01*
X97242024Y-98277997D02*
X97337262Y-98230378D01*
X97337262Y-98230378D02*
X97527738Y-98230378D01*
X97527738Y-98230378D02*
X97622976Y-98277997D01*
X97622976Y-98277997D02*
X97670595Y-98325616D01*
X97670595Y-98325616D02*
X97718214Y-98420854D01*
X97718214Y-98420854D02*
X97718214Y-98468473D01*
X97718214Y-98468473D02*
X97670595Y-98563711D01*
X97670595Y-98563711D02*
X97622976Y-98611330D01*
X97622976Y-98611330D02*
X97527738Y-98658949D01*
X97527738Y-98658949D02*
X97337262Y-98658949D01*
X97337262Y-98658949D02*
X97242024Y-98706568D01*
X97242024Y-98706568D02*
X97194405Y-98754187D01*
X97194405Y-98754187D02*
X97146786Y-98849425D01*
X97146786Y-98849425D02*
X97146786Y-99039901D01*
X97146786Y-99039901D02*
X97194405Y-99135139D01*
X97194405Y-99135139D02*
X97242024Y-99182759D01*
X97242024Y-99182759D02*
X97337262Y-99230378D01*
X97337262Y-99230378D02*
X97527738Y-99230378D01*
X97527738Y-99230378D02*
X97622976Y-99182759D01*
X97622976Y-99182759D02*
X97670595Y-99135139D01*
X97670595Y-99135139D02*
X97718214Y-99039901D01*
X97718214Y-99039901D02*
X97718214Y-98849425D01*
X97718214Y-98849425D02*
X97670595Y-98754187D01*
X97670595Y-98754187D02*
X97622976Y-98706568D01*
X97622976Y-98706568D02*
X97527738Y-98658949D01*
D11*
X146936666Y-117353842D02*
X147118095Y-117414318D01*
X147118095Y-117414318D02*
X147420476Y-117414318D01*
X147420476Y-117414318D02*
X147541428Y-117353842D01*
X147541428Y-117353842D02*
X147601904Y-117293365D01*
X147601904Y-117293365D02*
X147662381Y-117172413D01*
X147662381Y-117172413D02*
X147662381Y-117051461D01*
X147662381Y-117051461D02*
X147601904Y-116930508D01*
X147601904Y-116930508D02*
X147541428Y-116870032D01*
X147541428Y-116870032D02*
X147420476Y-116809556D01*
X147420476Y-116809556D02*
X147178571Y-116749080D01*
X147178571Y-116749080D02*
X147057619Y-116688603D01*
X147057619Y-116688603D02*
X146997142Y-116628127D01*
X146997142Y-116628127D02*
X146936666Y-116507175D01*
X146936666Y-116507175D02*
X146936666Y-116386222D01*
X146936666Y-116386222D02*
X146997142Y-116265270D01*
X146997142Y-116265270D02*
X147057619Y-116204794D01*
X147057619Y-116204794D02*
X147178571Y-116144318D01*
X147178571Y-116144318D02*
X147480952Y-116144318D01*
X147480952Y-116144318D02*
X147662381Y-116204794D01*
X148085714Y-116144318D02*
X148388095Y-117414318D01*
X148388095Y-117414318D02*
X148630000Y-116507175D01*
X148630000Y-116507175D02*
X148871905Y-117414318D01*
X148871905Y-117414318D02*
X149174286Y-116144318D01*
X149537143Y-116144318D02*
X150323334Y-116144318D01*
X150323334Y-116144318D02*
X149900000Y-116628127D01*
X149900000Y-116628127D02*
X150081429Y-116628127D01*
X150081429Y-116628127D02*
X150202381Y-116688603D01*
X150202381Y-116688603D02*
X150262857Y-116749080D01*
X150262857Y-116749080D02*
X150323334Y-116870032D01*
X150323334Y-116870032D02*
X150323334Y-117172413D01*
X150323334Y-117172413D02*
X150262857Y-117293365D01*
X150262857Y-117293365D02*
X150202381Y-117353842D01*
X150202381Y-117353842D02*
X150081429Y-117414318D01*
X150081429Y-117414318D02*
X149718572Y-117414318D01*
X149718572Y-117414318D02*
X149597619Y-117353842D01*
X149597619Y-117353842D02*
X149537143Y-117293365D01*
D10*
X202474642Y-96001482D02*
X202141309Y-95525291D01*
X201903214Y-96001482D02*
X201903214Y-95001482D01*
X201903214Y-95001482D02*
X202284166Y-95001482D01*
X202284166Y-95001482D02*
X202379404Y-95049101D01*
X202379404Y-95049101D02*
X202427023Y-95096720D01*
X202427023Y-95096720D02*
X202474642Y-95191958D01*
X202474642Y-95191958D02*
X202474642Y-95334815D01*
X202474642Y-95334815D02*
X202427023Y-95430053D01*
X202427023Y-95430053D02*
X202379404Y-95477672D01*
X202379404Y-95477672D02*
X202284166Y-95525291D01*
X202284166Y-95525291D02*
X201903214Y-95525291D01*
X203427023Y-96001482D02*
X202855595Y-96001482D01*
X203141309Y-96001482D02*
X203141309Y-95001482D01*
X203141309Y-95001482D02*
X203046071Y-95144339D01*
X203046071Y-95144339D02*
X202950833Y-95239577D01*
X202950833Y-95239577D02*
X202855595Y-95287196D01*
X203998452Y-95430053D02*
X203903214Y-95382434D01*
X203903214Y-95382434D02*
X203855595Y-95334815D01*
X203855595Y-95334815D02*
X203807976Y-95239577D01*
X203807976Y-95239577D02*
X203807976Y-95191958D01*
X203807976Y-95191958D02*
X203855595Y-95096720D01*
X203855595Y-95096720D02*
X203903214Y-95049101D01*
X203903214Y-95049101D02*
X203998452Y-95001482D01*
X203998452Y-95001482D02*
X204188928Y-95001482D01*
X204188928Y-95001482D02*
X204284166Y-95049101D01*
X204284166Y-95049101D02*
X204331785Y-95096720D01*
X204331785Y-95096720D02*
X204379404Y-95191958D01*
X204379404Y-95191958D02*
X204379404Y-95239577D01*
X204379404Y-95239577D02*
X204331785Y-95334815D01*
X204331785Y-95334815D02*
X204284166Y-95382434D01*
X204284166Y-95382434D02*
X204188928Y-95430053D01*
X204188928Y-95430053D02*
X203998452Y-95430053D01*
X203998452Y-95430053D02*
X203903214Y-95477672D01*
X203903214Y-95477672D02*
X203855595Y-95525291D01*
X203855595Y-95525291D02*
X203807976Y-95620529D01*
X203807976Y-95620529D02*
X203807976Y-95811005D01*
X203807976Y-95811005D02*
X203855595Y-95906243D01*
X203855595Y-95906243D02*
X203903214Y-95953863D01*
X203903214Y-95953863D02*
X203998452Y-96001482D01*
X203998452Y-96001482D02*
X204188928Y-96001482D01*
X204188928Y-96001482D02*
X204284166Y-95953863D01*
X204284166Y-95953863D02*
X204331785Y-95906243D01*
X204331785Y-95906243D02*
X204379404Y-95811005D01*
X204379404Y-95811005D02*
X204379404Y-95620529D01*
X204379404Y-95620529D02*
X204331785Y-95525291D01*
X204331785Y-95525291D02*
X204284166Y-95477672D01*
X204284166Y-95477672D02*
X204188928Y-95430053D01*
X87166905Y-90388156D02*
X87166905Y-89388156D01*
X87166905Y-89388156D02*
X87405000Y-89388156D01*
X87405000Y-89388156D02*
X87547857Y-89435775D01*
X87547857Y-89435775D02*
X87643095Y-89531013D01*
X87643095Y-89531013D02*
X87690714Y-89626251D01*
X87690714Y-89626251D02*
X87738333Y-89816727D01*
X87738333Y-89816727D02*
X87738333Y-89959584D01*
X87738333Y-89959584D02*
X87690714Y-90150060D01*
X87690714Y-90150060D02*
X87643095Y-90245298D01*
X87643095Y-90245298D02*
X87547857Y-90340537D01*
X87547857Y-90340537D02*
X87405000Y-90388156D01*
X87405000Y-90388156D02*
X87166905Y-90388156D01*
X88071667Y-89388156D02*
X88738333Y-89388156D01*
X88738333Y-89388156D02*
X88309762Y-90388156D01*
X96765833Y-94624819D02*
X96432500Y-94148628D01*
X96194405Y-94624819D02*
X96194405Y-93624819D01*
X96194405Y-93624819D02*
X96575357Y-93624819D01*
X96575357Y-93624819D02*
X96670595Y-93672438D01*
X96670595Y-93672438D02*
X96718214Y-93720057D01*
X96718214Y-93720057D02*
X96765833Y-93815295D01*
X96765833Y-93815295D02*
X96765833Y-93958152D01*
X96765833Y-93958152D02*
X96718214Y-94053390D01*
X96718214Y-94053390D02*
X96670595Y-94101009D01*
X96670595Y-94101009D02*
X96575357Y-94148628D01*
X96575357Y-94148628D02*
X96194405Y-94148628D01*
X97099167Y-93624819D02*
X97718214Y-93624819D01*
X97718214Y-93624819D02*
X97384881Y-94005771D01*
X97384881Y-94005771D02*
X97527738Y-94005771D01*
X97527738Y-94005771D02*
X97622976Y-94053390D01*
X97622976Y-94053390D02*
X97670595Y-94101009D01*
X97670595Y-94101009D02*
X97718214Y-94196247D01*
X97718214Y-94196247D02*
X97718214Y-94434342D01*
X97718214Y-94434342D02*
X97670595Y-94529580D01*
X97670595Y-94529580D02*
X97622976Y-94577200D01*
X97622976Y-94577200D02*
X97527738Y-94624819D01*
X97527738Y-94624819D02*
X97242024Y-94624819D01*
X97242024Y-94624819D02*
X97146786Y-94577200D01*
X97146786Y-94577200D02*
X97099167Y-94529580D01*
X210930714Y-78501482D02*
X210930714Y-77501482D01*
X210930714Y-77501482D02*
X211168809Y-77501482D01*
X211168809Y-77501482D02*
X211311666Y-77549101D01*
X211311666Y-77549101D02*
X211406904Y-77644339D01*
X211406904Y-77644339D02*
X211454523Y-77739577D01*
X211454523Y-77739577D02*
X211502142Y-77930053D01*
X211502142Y-77930053D02*
X211502142Y-78072910D01*
X211502142Y-78072910D02*
X211454523Y-78263386D01*
X211454523Y-78263386D02*
X211406904Y-78358624D01*
X211406904Y-78358624D02*
X211311666Y-78453863D01*
X211311666Y-78453863D02*
X211168809Y-78501482D01*
X211168809Y-78501482D02*
X210930714Y-78501482D01*
X212454523Y-78501482D02*
X211883095Y-78501482D01*
X212168809Y-78501482D02*
X212168809Y-77501482D01*
X212168809Y-77501482D02*
X212073571Y-77644339D01*
X212073571Y-77644339D02*
X211978333Y-77739577D01*
X211978333Y-77739577D02*
X211883095Y-77787196D01*
X213311666Y-77501482D02*
X213121190Y-77501482D01*
X213121190Y-77501482D02*
X213025952Y-77549101D01*
X213025952Y-77549101D02*
X212978333Y-77596720D01*
X212978333Y-77596720D02*
X212883095Y-77739577D01*
X212883095Y-77739577D02*
X212835476Y-77930053D01*
X212835476Y-77930053D02*
X212835476Y-78311005D01*
X212835476Y-78311005D02*
X212883095Y-78406243D01*
X212883095Y-78406243D02*
X212930714Y-78453863D01*
X212930714Y-78453863D02*
X213025952Y-78501482D01*
X213025952Y-78501482D02*
X213216428Y-78501482D01*
X213216428Y-78501482D02*
X213311666Y-78453863D01*
X213311666Y-78453863D02*
X213359285Y-78406243D01*
X213359285Y-78406243D02*
X213406904Y-78311005D01*
X213406904Y-78311005D02*
X213406904Y-78072910D01*
X213406904Y-78072910D02*
X213359285Y-77977672D01*
X213359285Y-77977672D02*
X213311666Y-77930053D01*
X213311666Y-77930053D02*
X213216428Y-77882434D01*
X213216428Y-77882434D02*
X213025952Y-77882434D01*
X213025952Y-77882434D02*
X212930714Y-77930053D01*
X212930714Y-77930053D02*
X212883095Y-77977672D01*
X212883095Y-77977672D02*
X212835476Y-78072910D01*
X202474642Y-100501482D02*
X202141309Y-100025291D01*
X201903214Y-100501482D02*
X201903214Y-99501482D01*
X201903214Y-99501482D02*
X202284166Y-99501482D01*
X202284166Y-99501482D02*
X202379404Y-99549101D01*
X202379404Y-99549101D02*
X202427023Y-99596720D01*
X202427023Y-99596720D02*
X202474642Y-99691958D01*
X202474642Y-99691958D02*
X202474642Y-99834815D01*
X202474642Y-99834815D02*
X202427023Y-99930053D01*
X202427023Y-99930053D02*
X202379404Y-99977672D01*
X202379404Y-99977672D02*
X202284166Y-100025291D01*
X202284166Y-100025291D02*
X201903214Y-100025291D01*
X203427023Y-100501482D02*
X202855595Y-100501482D01*
X203141309Y-100501482D02*
X203141309Y-99501482D01*
X203141309Y-99501482D02*
X203046071Y-99644339D01*
X203046071Y-99644339D02*
X202950833Y-99739577D01*
X202950833Y-99739577D02*
X202855595Y-99787196D01*
X204284166Y-99834815D02*
X204284166Y-100501482D01*
X204046071Y-99453863D02*
X203807976Y-100168148D01*
X203807976Y-100168148D02*
X204427023Y-100168148D01*
X96765833Y-90388156D02*
X96432500Y-89911965D01*
X96194405Y-90388156D02*
X96194405Y-89388156D01*
X96194405Y-89388156D02*
X96575357Y-89388156D01*
X96575357Y-89388156D02*
X96670595Y-89435775D01*
X96670595Y-89435775D02*
X96718214Y-89483394D01*
X96718214Y-89483394D02*
X96765833Y-89578632D01*
X96765833Y-89578632D02*
X96765833Y-89721489D01*
X96765833Y-89721489D02*
X96718214Y-89816727D01*
X96718214Y-89816727D02*
X96670595Y-89864346D01*
X96670595Y-89864346D02*
X96575357Y-89911965D01*
X96575357Y-89911965D02*
X96194405Y-89911965D01*
X97099167Y-89388156D02*
X97765833Y-89388156D01*
X97765833Y-89388156D02*
X97337262Y-90388156D01*
X96765833Y-81624819D02*
X96432500Y-81148628D01*
X96194405Y-81624819D02*
X96194405Y-80624819D01*
X96194405Y-80624819D02*
X96575357Y-80624819D01*
X96575357Y-80624819D02*
X96670595Y-80672438D01*
X96670595Y-80672438D02*
X96718214Y-80720057D01*
X96718214Y-80720057D02*
X96765833Y-80815295D01*
X96765833Y-80815295D02*
X96765833Y-80958152D01*
X96765833Y-80958152D02*
X96718214Y-81053390D01*
X96718214Y-81053390D02*
X96670595Y-81101009D01*
X96670595Y-81101009D02*
X96575357Y-81148628D01*
X96575357Y-81148628D02*
X96194405Y-81148628D01*
X97622976Y-80624819D02*
X97432500Y-80624819D01*
X97432500Y-80624819D02*
X97337262Y-80672438D01*
X97337262Y-80672438D02*
X97289643Y-80720057D01*
X97289643Y-80720057D02*
X97194405Y-80862914D01*
X97194405Y-80862914D02*
X97146786Y-81053390D01*
X97146786Y-81053390D02*
X97146786Y-81434342D01*
X97146786Y-81434342D02*
X97194405Y-81529580D01*
X97194405Y-81529580D02*
X97242024Y-81577200D01*
X97242024Y-81577200D02*
X97337262Y-81624819D01*
X97337262Y-81624819D02*
X97527738Y-81624819D01*
X97527738Y-81624819D02*
X97622976Y-81577200D01*
X97622976Y-81577200D02*
X97670595Y-81529580D01*
X97670595Y-81529580D02*
X97718214Y-81434342D01*
X97718214Y-81434342D02*
X97718214Y-81196247D01*
X97718214Y-81196247D02*
X97670595Y-81101009D01*
X97670595Y-81101009D02*
X97622976Y-81053390D01*
X97622976Y-81053390D02*
X97527738Y-81005771D01*
X97527738Y-81005771D02*
X97337262Y-81005771D01*
X97337262Y-81005771D02*
X97242024Y-81053390D01*
X97242024Y-81053390D02*
X97194405Y-81101009D01*
X97194405Y-81101009D02*
X97146786Y-81196247D01*
X210930714Y-96001482D02*
X210930714Y-95001482D01*
X210930714Y-95001482D02*
X211168809Y-95001482D01*
X211168809Y-95001482D02*
X211311666Y-95049101D01*
X211311666Y-95049101D02*
X211406904Y-95144339D01*
X211406904Y-95144339D02*
X211454523Y-95239577D01*
X211454523Y-95239577D02*
X211502142Y-95430053D01*
X211502142Y-95430053D02*
X211502142Y-95572910D01*
X211502142Y-95572910D02*
X211454523Y-95763386D01*
X211454523Y-95763386D02*
X211406904Y-95858624D01*
X211406904Y-95858624D02*
X211311666Y-95953863D01*
X211311666Y-95953863D02*
X211168809Y-96001482D01*
X211168809Y-96001482D02*
X210930714Y-96001482D01*
X212454523Y-96001482D02*
X211883095Y-96001482D01*
X212168809Y-96001482D02*
X212168809Y-95001482D01*
X212168809Y-95001482D02*
X212073571Y-95144339D01*
X212073571Y-95144339D02*
X211978333Y-95239577D01*
X211978333Y-95239577D02*
X211883095Y-95287196D01*
X213025952Y-95430053D02*
X212930714Y-95382434D01*
X212930714Y-95382434D02*
X212883095Y-95334815D01*
X212883095Y-95334815D02*
X212835476Y-95239577D01*
X212835476Y-95239577D02*
X212835476Y-95191958D01*
X212835476Y-95191958D02*
X212883095Y-95096720D01*
X212883095Y-95096720D02*
X212930714Y-95049101D01*
X212930714Y-95049101D02*
X213025952Y-95001482D01*
X213025952Y-95001482D02*
X213216428Y-95001482D01*
X213216428Y-95001482D02*
X213311666Y-95049101D01*
X213311666Y-95049101D02*
X213359285Y-95096720D01*
X213359285Y-95096720D02*
X213406904Y-95191958D01*
X213406904Y-95191958D02*
X213406904Y-95239577D01*
X213406904Y-95239577D02*
X213359285Y-95334815D01*
X213359285Y-95334815D02*
X213311666Y-95382434D01*
X213311666Y-95382434D02*
X213216428Y-95430053D01*
X213216428Y-95430053D02*
X213025952Y-95430053D01*
X213025952Y-95430053D02*
X212930714Y-95477672D01*
X212930714Y-95477672D02*
X212883095Y-95525291D01*
X212883095Y-95525291D02*
X212835476Y-95620529D01*
X212835476Y-95620529D02*
X212835476Y-95811005D01*
X212835476Y-95811005D02*
X212883095Y-95906243D01*
X212883095Y-95906243D02*
X212930714Y-95953863D01*
X212930714Y-95953863D02*
X213025952Y-96001482D01*
X213025952Y-96001482D02*
X213216428Y-96001482D01*
X213216428Y-96001482D02*
X213311666Y-95953863D01*
X213311666Y-95953863D02*
X213359285Y-95906243D01*
X213359285Y-95906243D02*
X213406904Y-95811005D01*
X213406904Y-95811005D02*
X213406904Y-95620529D01*
X213406904Y-95620529D02*
X213359285Y-95525291D01*
X213359285Y-95525291D02*
X213311666Y-95477672D01*
X213311666Y-95477672D02*
X213216428Y-95430053D01*
X86690714Y-116914823D02*
X86690714Y-115914823D01*
X86690714Y-115914823D02*
X86928809Y-115914823D01*
X86928809Y-115914823D02*
X87071666Y-115962442D01*
X87071666Y-115962442D02*
X87166904Y-116057680D01*
X87166904Y-116057680D02*
X87214523Y-116152918D01*
X87214523Y-116152918D02*
X87262142Y-116343394D01*
X87262142Y-116343394D02*
X87262142Y-116486251D01*
X87262142Y-116486251D02*
X87214523Y-116676727D01*
X87214523Y-116676727D02*
X87166904Y-116771965D01*
X87166904Y-116771965D02*
X87071666Y-116867204D01*
X87071666Y-116867204D02*
X86928809Y-116914823D01*
X86928809Y-116914823D02*
X86690714Y-116914823D01*
X88214523Y-116914823D02*
X87643095Y-116914823D01*
X87928809Y-116914823D02*
X87928809Y-115914823D01*
X87928809Y-115914823D02*
X87833571Y-116057680D01*
X87833571Y-116057680D02*
X87738333Y-116152918D01*
X87738333Y-116152918D02*
X87643095Y-116200537D01*
X88833571Y-115914823D02*
X88928809Y-115914823D01*
X88928809Y-115914823D02*
X89024047Y-115962442D01*
X89024047Y-115962442D02*
X89071666Y-116010061D01*
X89071666Y-116010061D02*
X89119285Y-116105299D01*
X89119285Y-116105299D02*
X89166904Y-116295775D01*
X89166904Y-116295775D02*
X89166904Y-116533870D01*
X89166904Y-116533870D02*
X89119285Y-116724346D01*
X89119285Y-116724346D02*
X89071666Y-116819584D01*
X89071666Y-116819584D02*
X89024047Y-116867204D01*
X89024047Y-116867204D02*
X88928809Y-116914823D01*
X88928809Y-116914823D02*
X88833571Y-116914823D01*
X88833571Y-116914823D02*
X88738333Y-116867204D01*
X88738333Y-116867204D02*
X88690714Y-116819584D01*
X88690714Y-116819584D02*
X88643095Y-116724346D01*
X88643095Y-116724346D02*
X88595476Y-116533870D01*
X88595476Y-116533870D02*
X88595476Y-116295775D01*
X88595476Y-116295775D02*
X88643095Y-116105299D01*
X88643095Y-116105299D02*
X88690714Y-116010061D01*
X88690714Y-116010061D02*
X88738333Y-115962442D01*
X88738333Y-115962442D02*
X88833571Y-115914823D01*
X89431905Y-103651489D02*
X89431905Y-102651489D01*
X89431905Y-102651489D02*
X89670000Y-102651489D01*
X89670000Y-102651489D02*
X89812857Y-102699108D01*
X89812857Y-102699108D02*
X89908095Y-102794346D01*
X89908095Y-102794346D02*
X89955714Y-102889584D01*
X89955714Y-102889584D02*
X90003333Y-103080060D01*
X90003333Y-103080060D02*
X90003333Y-103222917D01*
X90003333Y-103222917D02*
X89955714Y-103413393D01*
X89955714Y-103413393D02*
X89908095Y-103508631D01*
X89908095Y-103508631D02*
X89812857Y-103603870D01*
X89812857Y-103603870D02*
X89670000Y-103651489D01*
X89670000Y-103651489D02*
X89431905Y-103651489D01*
X90860476Y-102984822D02*
X90860476Y-103651489D01*
X90622381Y-102603870D02*
X90384286Y-103318155D01*
X90384286Y-103318155D02*
X91003333Y-103318155D01*
X87166905Y-108072600D02*
X87166905Y-107072600D01*
X87166905Y-107072600D02*
X87405000Y-107072600D01*
X87405000Y-107072600D02*
X87547857Y-107120219D01*
X87547857Y-107120219D02*
X87643095Y-107215457D01*
X87643095Y-107215457D02*
X87690714Y-107310695D01*
X87690714Y-107310695D02*
X87738333Y-107501171D01*
X87738333Y-107501171D02*
X87738333Y-107644028D01*
X87738333Y-107644028D02*
X87690714Y-107834504D01*
X87690714Y-107834504D02*
X87643095Y-107929742D01*
X87643095Y-107929742D02*
X87547857Y-108024981D01*
X87547857Y-108024981D02*
X87405000Y-108072600D01*
X87405000Y-108072600D02*
X87166905Y-108072600D01*
X88214524Y-108072600D02*
X88405000Y-108072600D01*
X88405000Y-108072600D02*
X88500238Y-108024981D01*
X88500238Y-108024981D02*
X88547857Y-107977361D01*
X88547857Y-107977361D02*
X88643095Y-107834504D01*
X88643095Y-107834504D02*
X88690714Y-107644028D01*
X88690714Y-107644028D02*
X88690714Y-107263076D01*
X88690714Y-107263076D02*
X88643095Y-107167838D01*
X88643095Y-107167838D02*
X88595476Y-107120219D01*
X88595476Y-107120219D02*
X88500238Y-107072600D01*
X88500238Y-107072600D02*
X88309762Y-107072600D01*
X88309762Y-107072600D02*
X88214524Y-107120219D01*
X88214524Y-107120219D02*
X88166905Y-107167838D01*
X88166905Y-107167838D02*
X88119286Y-107263076D01*
X88119286Y-107263076D02*
X88119286Y-107501171D01*
X88119286Y-107501171D02*
X88166905Y-107596409D01*
X88166905Y-107596409D02*
X88214524Y-107644028D01*
X88214524Y-107644028D02*
X88309762Y-107691647D01*
X88309762Y-107691647D02*
X88500238Y-107691647D01*
X88500238Y-107691647D02*
X88595476Y-107644028D01*
X88595476Y-107644028D02*
X88643095Y-107596409D01*
X88643095Y-107596409D02*
X88690714Y-107501171D01*
X210930714Y-113791486D02*
X210930714Y-112791486D01*
X210930714Y-112791486D02*
X211168809Y-112791486D01*
X211168809Y-112791486D02*
X211311666Y-112839105D01*
X211311666Y-112839105D02*
X211406904Y-112934343D01*
X211406904Y-112934343D02*
X211454523Y-113029581D01*
X211454523Y-113029581D02*
X211502142Y-113220057D01*
X211502142Y-113220057D02*
X211502142Y-113362914D01*
X211502142Y-113362914D02*
X211454523Y-113553390D01*
X211454523Y-113553390D02*
X211406904Y-113648628D01*
X211406904Y-113648628D02*
X211311666Y-113743867D01*
X211311666Y-113743867D02*
X211168809Y-113791486D01*
X211168809Y-113791486D02*
X210930714Y-113791486D01*
X211883095Y-112886724D02*
X211930714Y-112839105D01*
X211930714Y-112839105D02*
X212025952Y-112791486D01*
X212025952Y-112791486D02*
X212264047Y-112791486D01*
X212264047Y-112791486D02*
X212359285Y-112839105D01*
X212359285Y-112839105D02*
X212406904Y-112886724D01*
X212406904Y-112886724D02*
X212454523Y-112981962D01*
X212454523Y-112981962D02*
X212454523Y-113077200D01*
X212454523Y-113077200D02*
X212406904Y-113220057D01*
X212406904Y-113220057D02*
X211835476Y-113791486D01*
X211835476Y-113791486D02*
X212454523Y-113791486D01*
X213073571Y-112791486D02*
X213168809Y-112791486D01*
X213168809Y-112791486D02*
X213264047Y-112839105D01*
X213264047Y-112839105D02*
X213311666Y-112886724D01*
X213311666Y-112886724D02*
X213359285Y-112981962D01*
X213359285Y-112981962D02*
X213406904Y-113172438D01*
X213406904Y-113172438D02*
X213406904Y-113410533D01*
X213406904Y-113410533D02*
X213359285Y-113601009D01*
X213359285Y-113601009D02*
X213311666Y-113696247D01*
X213311666Y-113696247D02*
X213264047Y-113743867D01*
X213264047Y-113743867D02*
X213168809Y-113791486D01*
X213168809Y-113791486D02*
X213073571Y-113791486D01*
X213073571Y-113791486D02*
X212978333Y-113743867D01*
X212978333Y-113743867D02*
X212930714Y-113696247D01*
X212930714Y-113696247D02*
X212883095Y-113601009D01*
X212883095Y-113601009D02*
X212835476Y-113410533D01*
X212835476Y-113410533D02*
X212835476Y-113172438D01*
X212835476Y-113172438D02*
X212883095Y-112981962D01*
X212883095Y-112981962D02*
X212930714Y-112886724D01*
X212930714Y-112886724D02*
X212978333Y-112839105D01*
X212978333Y-112839105D02*
X213073571Y-112791486D01*
X96765833Y-77124823D02*
X96432500Y-76648632D01*
X96194405Y-77124823D02*
X96194405Y-76124823D01*
X96194405Y-76124823D02*
X96575357Y-76124823D01*
X96575357Y-76124823D02*
X96670595Y-76172442D01*
X96670595Y-76172442D02*
X96718214Y-76220061D01*
X96718214Y-76220061D02*
X96765833Y-76315299D01*
X96765833Y-76315299D02*
X96765833Y-76458156D01*
X96765833Y-76458156D02*
X96718214Y-76553394D01*
X96718214Y-76553394D02*
X96670595Y-76601013D01*
X96670595Y-76601013D02*
X96575357Y-76648632D01*
X96575357Y-76648632D02*
X96194405Y-76648632D01*
X97718214Y-77124823D02*
X97146786Y-77124823D01*
X97432500Y-77124823D02*
X97432500Y-76124823D01*
X97432500Y-76124823D02*
X97337262Y-76267680D01*
X97337262Y-76267680D02*
X97242024Y-76362918D01*
X97242024Y-76362918D02*
X97146786Y-76410537D01*
X96765833Y-108072600D02*
X96432500Y-107596409D01*
X96194405Y-108072600D02*
X96194405Y-107072600D01*
X96194405Y-107072600D02*
X96575357Y-107072600D01*
X96575357Y-107072600D02*
X96670595Y-107120219D01*
X96670595Y-107120219D02*
X96718214Y-107167838D01*
X96718214Y-107167838D02*
X96765833Y-107263076D01*
X96765833Y-107263076D02*
X96765833Y-107405933D01*
X96765833Y-107405933D02*
X96718214Y-107501171D01*
X96718214Y-107501171D02*
X96670595Y-107548790D01*
X96670595Y-107548790D02*
X96575357Y-107596409D01*
X96575357Y-107596409D02*
X96194405Y-107596409D01*
X97242024Y-108072600D02*
X97432500Y-108072600D01*
X97432500Y-108072600D02*
X97527738Y-108024981D01*
X97527738Y-108024981D02*
X97575357Y-107977361D01*
X97575357Y-107977361D02*
X97670595Y-107834504D01*
X97670595Y-107834504D02*
X97718214Y-107644028D01*
X97718214Y-107644028D02*
X97718214Y-107263076D01*
X97718214Y-107263076D02*
X97670595Y-107167838D01*
X97670595Y-107167838D02*
X97622976Y-107120219D01*
X97622976Y-107120219D02*
X97527738Y-107072600D01*
X97527738Y-107072600D02*
X97337262Y-107072600D01*
X97337262Y-107072600D02*
X97242024Y-107120219D01*
X97242024Y-107120219D02*
X97194405Y-107167838D01*
X97194405Y-107167838D02*
X97146786Y-107263076D01*
X97146786Y-107263076D02*
X97146786Y-107501171D01*
X97146786Y-107501171D02*
X97194405Y-107596409D01*
X97194405Y-107596409D02*
X97242024Y-107644028D01*
X97242024Y-107644028D02*
X97337262Y-107691647D01*
X97337262Y-107691647D02*
X97527738Y-107691647D01*
X97527738Y-107691647D02*
X97622976Y-107644028D01*
X97622976Y-107644028D02*
X97670595Y-107596409D01*
X97670595Y-107596409D02*
X97718214Y-107501171D01*
X96765833Y-103651489D02*
X96432500Y-103175298D01*
X96194405Y-103651489D02*
X96194405Y-102651489D01*
X96194405Y-102651489D02*
X96575357Y-102651489D01*
X96575357Y-102651489D02*
X96670595Y-102699108D01*
X96670595Y-102699108D02*
X96718214Y-102746727D01*
X96718214Y-102746727D02*
X96765833Y-102841965D01*
X96765833Y-102841965D02*
X96765833Y-102984822D01*
X96765833Y-102984822D02*
X96718214Y-103080060D01*
X96718214Y-103080060D02*
X96670595Y-103127679D01*
X96670595Y-103127679D02*
X96575357Y-103175298D01*
X96575357Y-103175298D02*
X96194405Y-103175298D01*
X97622976Y-102984822D02*
X97622976Y-103651489D01*
X97384881Y-102603870D02*
X97146786Y-103318155D01*
X97146786Y-103318155D02*
X97765833Y-103318155D01*
X210930714Y-82843708D02*
X210930714Y-81843708D01*
X210930714Y-81843708D02*
X211168809Y-81843708D01*
X211168809Y-81843708D02*
X211311666Y-81891327D01*
X211311666Y-81891327D02*
X211406904Y-81986565D01*
X211406904Y-81986565D02*
X211454523Y-82081803D01*
X211454523Y-82081803D02*
X211502142Y-82272279D01*
X211502142Y-82272279D02*
X211502142Y-82415136D01*
X211502142Y-82415136D02*
X211454523Y-82605612D01*
X211454523Y-82605612D02*
X211406904Y-82700850D01*
X211406904Y-82700850D02*
X211311666Y-82796089D01*
X211311666Y-82796089D02*
X211168809Y-82843708D01*
X211168809Y-82843708D02*
X210930714Y-82843708D01*
X212454523Y-82843708D02*
X211883095Y-82843708D01*
X212168809Y-82843708D02*
X212168809Y-81843708D01*
X212168809Y-81843708D02*
X212073571Y-81986565D01*
X212073571Y-81986565D02*
X211978333Y-82081803D01*
X211978333Y-82081803D02*
X211883095Y-82129422D01*
X212835476Y-81938946D02*
X212883095Y-81891327D01*
X212883095Y-81891327D02*
X212978333Y-81843708D01*
X212978333Y-81843708D02*
X213216428Y-81843708D01*
X213216428Y-81843708D02*
X213311666Y-81891327D01*
X213311666Y-81891327D02*
X213359285Y-81938946D01*
X213359285Y-81938946D02*
X213406904Y-82034184D01*
X213406904Y-82034184D02*
X213406904Y-82129422D01*
X213406904Y-82129422D02*
X213359285Y-82272279D01*
X213359285Y-82272279D02*
X212787857Y-82843708D01*
X212787857Y-82843708D02*
X213406904Y-82843708D01*
X202474642Y-87264819D02*
X202141309Y-86788628D01*
X201903214Y-87264819D02*
X201903214Y-86264819D01*
X201903214Y-86264819D02*
X202284166Y-86264819D01*
X202284166Y-86264819D02*
X202379404Y-86312438D01*
X202379404Y-86312438D02*
X202427023Y-86360057D01*
X202427023Y-86360057D02*
X202474642Y-86455295D01*
X202474642Y-86455295D02*
X202474642Y-86598152D01*
X202474642Y-86598152D02*
X202427023Y-86693390D01*
X202427023Y-86693390D02*
X202379404Y-86741009D01*
X202379404Y-86741009D02*
X202284166Y-86788628D01*
X202284166Y-86788628D02*
X201903214Y-86788628D01*
X203427023Y-87264819D02*
X202855595Y-87264819D01*
X203141309Y-87264819D02*
X203141309Y-86264819D01*
X203141309Y-86264819D02*
X203046071Y-86407676D01*
X203046071Y-86407676D02*
X202950833Y-86502914D01*
X202950833Y-86502914D02*
X202855595Y-86550533D01*
X203760357Y-86264819D02*
X204427023Y-86264819D01*
X204427023Y-86264819D02*
X203998452Y-87264819D01*
X210930714Y-100501482D02*
X210930714Y-99501482D01*
X210930714Y-99501482D02*
X211168809Y-99501482D01*
X211168809Y-99501482D02*
X211311666Y-99549101D01*
X211311666Y-99549101D02*
X211406904Y-99644339D01*
X211406904Y-99644339D02*
X211454523Y-99739577D01*
X211454523Y-99739577D02*
X211502142Y-99930053D01*
X211502142Y-99930053D02*
X211502142Y-100072910D01*
X211502142Y-100072910D02*
X211454523Y-100263386D01*
X211454523Y-100263386D02*
X211406904Y-100358624D01*
X211406904Y-100358624D02*
X211311666Y-100453863D01*
X211311666Y-100453863D02*
X211168809Y-100501482D01*
X211168809Y-100501482D02*
X210930714Y-100501482D01*
X212454523Y-100501482D02*
X211883095Y-100501482D01*
X212168809Y-100501482D02*
X212168809Y-99501482D01*
X212168809Y-99501482D02*
X212073571Y-99644339D01*
X212073571Y-99644339D02*
X211978333Y-99739577D01*
X211978333Y-99739577D02*
X211883095Y-99787196D01*
X213311666Y-99834815D02*
X213311666Y-100501482D01*
X213073571Y-99453863D02*
X212835476Y-100168148D01*
X212835476Y-100168148D02*
X213454523Y-100168148D01*
X210930714Y-91501482D02*
X210930714Y-90501482D01*
X210930714Y-90501482D02*
X211168809Y-90501482D01*
X211168809Y-90501482D02*
X211311666Y-90549101D01*
X211311666Y-90549101D02*
X211406904Y-90644339D01*
X211406904Y-90644339D02*
X211454523Y-90739577D01*
X211454523Y-90739577D02*
X211502142Y-90930053D01*
X211502142Y-90930053D02*
X211502142Y-91072910D01*
X211502142Y-91072910D02*
X211454523Y-91263386D01*
X211454523Y-91263386D02*
X211406904Y-91358624D01*
X211406904Y-91358624D02*
X211311666Y-91453863D01*
X211311666Y-91453863D02*
X211168809Y-91501482D01*
X211168809Y-91501482D02*
X210930714Y-91501482D01*
X212454523Y-91501482D02*
X211883095Y-91501482D01*
X212168809Y-91501482D02*
X212168809Y-90501482D01*
X212168809Y-90501482D02*
X212073571Y-90644339D01*
X212073571Y-90644339D02*
X211978333Y-90739577D01*
X211978333Y-90739577D02*
X211883095Y-90787196D01*
X212787857Y-90501482D02*
X213406904Y-90501482D01*
X213406904Y-90501482D02*
X213073571Y-90882434D01*
X213073571Y-90882434D02*
X213216428Y-90882434D01*
X213216428Y-90882434D02*
X213311666Y-90930053D01*
X213311666Y-90930053D02*
X213359285Y-90977672D01*
X213359285Y-90977672D02*
X213406904Y-91072910D01*
X213406904Y-91072910D02*
X213406904Y-91311005D01*
X213406904Y-91311005D02*
X213359285Y-91406243D01*
X213359285Y-91406243D02*
X213311666Y-91453863D01*
X213311666Y-91453863D02*
X213216428Y-91501482D01*
X213216428Y-91501482D02*
X212930714Y-91501482D01*
X212930714Y-91501482D02*
X212835476Y-91453863D01*
X212835476Y-91453863D02*
X212787857Y-91406243D01*
X101788095Y-139654819D02*
X101788095Y-138654819D01*
X101788095Y-139131009D02*
X102359523Y-139131009D01*
X102359523Y-139654819D02*
X102359523Y-138654819D01*
X102740476Y-138654819D02*
X103359523Y-138654819D01*
X103359523Y-138654819D02*
X103026190Y-139035771D01*
X103026190Y-139035771D02*
X103169047Y-139035771D01*
X103169047Y-139035771D02*
X103264285Y-139083390D01*
X103264285Y-139083390D02*
X103311904Y-139131009D01*
X103311904Y-139131009D02*
X103359523Y-139226247D01*
X103359523Y-139226247D02*
X103359523Y-139464342D01*
X103359523Y-139464342D02*
X103311904Y-139559580D01*
X103311904Y-139559580D02*
X103264285Y-139607200D01*
X103264285Y-139607200D02*
X103169047Y-139654819D01*
X103169047Y-139654819D02*
X102883333Y-139654819D01*
X102883333Y-139654819D02*
X102788095Y-139607200D01*
X102788095Y-139607200D02*
X102740476Y-139559580D01*
X202502142Y-113791486D02*
X202168809Y-113315295D01*
X201930714Y-113791486D02*
X201930714Y-112791486D01*
X201930714Y-112791486D02*
X202311666Y-112791486D01*
X202311666Y-112791486D02*
X202406904Y-112839105D01*
X202406904Y-112839105D02*
X202454523Y-112886724D01*
X202454523Y-112886724D02*
X202502142Y-112981962D01*
X202502142Y-112981962D02*
X202502142Y-113124819D01*
X202502142Y-113124819D02*
X202454523Y-113220057D01*
X202454523Y-113220057D02*
X202406904Y-113267676D01*
X202406904Y-113267676D02*
X202311666Y-113315295D01*
X202311666Y-113315295D02*
X201930714Y-113315295D01*
X202883095Y-112886724D02*
X202930714Y-112839105D01*
X202930714Y-112839105D02*
X203025952Y-112791486D01*
X203025952Y-112791486D02*
X203264047Y-112791486D01*
X203264047Y-112791486D02*
X203359285Y-112839105D01*
X203359285Y-112839105D02*
X203406904Y-112886724D01*
X203406904Y-112886724D02*
X203454523Y-112981962D01*
X203454523Y-112981962D02*
X203454523Y-113077200D01*
X203454523Y-113077200D02*
X203406904Y-113220057D01*
X203406904Y-113220057D02*
X202835476Y-113791486D01*
X202835476Y-113791486D02*
X203454523Y-113791486D01*
X204073571Y-112791486D02*
X204168809Y-112791486D01*
X204168809Y-112791486D02*
X204264047Y-112839105D01*
X204264047Y-112839105D02*
X204311666Y-112886724D01*
X204311666Y-112886724D02*
X204359285Y-112981962D01*
X204359285Y-112981962D02*
X204406904Y-113172438D01*
X204406904Y-113172438D02*
X204406904Y-113410533D01*
X204406904Y-113410533D02*
X204359285Y-113601009D01*
X204359285Y-113601009D02*
X204311666Y-113696247D01*
X204311666Y-113696247D02*
X204264047Y-113743867D01*
X204264047Y-113743867D02*
X204168809Y-113791486D01*
X204168809Y-113791486D02*
X204073571Y-113791486D01*
X204073571Y-113791486D02*
X203978333Y-113743867D01*
X203978333Y-113743867D02*
X203930714Y-113696247D01*
X203930714Y-113696247D02*
X203883095Y-113601009D01*
X203883095Y-113601009D02*
X203835476Y-113410533D01*
X203835476Y-113410533D02*
X203835476Y-113172438D01*
X203835476Y-113172438D02*
X203883095Y-112981962D01*
X203883095Y-112981962D02*
X203930714Y-112886724D01*
X203930714Y-112886724D02*
X203978333Y-112839105D01*
X203978333Y-112839105D02*
X204073571Y-112791486D01*
X87166905Y-85967045D02*
X87166905Y-84967045D01*
X87166905Y-84967045D02*
X87405000Y-84967045D01*
X87405000Y-84967045D02*
X87547857Y-85014664D01*
X87547857Y-85014664D02*
X87643095Y-85109902D01*
X87643095Y-85109902D02*
X87690714Y-85205140D01*
X87690714Y-85205140D02*
X87738333Y-85395616D01*
X87738333Y-85395616D02*
X87738333Y-85538473D01*
X87738333Y-85538473D02*
X87690714Y-85728949D01*
X87690714Y-85728949D02*
X87643095Y-85824187D01*
X87643095Y-85824187D02*
X87547857Y-85919426D01*
X87547857Y-85919426D02*
X87405000Y-85967045D01*
X87405000Y-85967045D02*
X87166905Y-85967045D01*
X88119286Y-85062283D02*
X88166905Y-85014664D01*
X88166905Y-85014664D02*
X88262143Y-84967045D01*
X88262143Y-84967045D02*
X88500238Y-84967045D01*
X88500238Y-84967045D02*
X88595476Y-85014664D01*
X88595476Y-85014664D02*
X88643095Y-85062283D01*
X88643095Y-85062283D02*
X88690714Y-85157521D01*
X88690714Y-85157521D02*
X88690714Y-85252759D01*
X88690714Y-85252759D02*
X88643095Y-85395616D01*
X88643095Y-85395616D02*
X88071667Y-85967045D01*
X88071667Y-85967045D02*
X88690714Y-85967045D01*
X202474642Y-78501482D02*
X202141309Y-78025291D01*
X201903214Y-78501482D02*
X201903214Y-77501482D01*
X201903214Y-77501482D02*
X202284166Y-77501482D01*
X202284166Y-77501482D02*
X202379404Y-77549101D01*
X202379404Y-77549101D02*
X202427023Y-77596720D01*
X202427023Y-77596720D02*
X202474642Y-77691958D01*
X202474642Y-77691958D02*
X202474642Y-77834815D01*
X202474642Y-77834815D02*
X202427023Y-77930053D01*
X202427023Y-77930053D02*
X202379404Y-77977672D01*
X202379404Y-77977672D02*
X202284166Y-78025291D01*
X202284166Y-78025291D02*
X201903214Y-78025291D01*
X203427023Y-78501482D02*
X202855595Y-78501482D01*
X203141309Y-78501482D02*
X203141309Y-77501482D01*
X203141309Y-77501482D02*
X203046071Y-77644339D01*
X203046071Y-77644339D02*
X202950833Y-77739577D01*
X202950833Y-77739577D02*
X202855595Y-77787196D01*
X204284166Y-77501482D02*
X204093690Y-77501482D01*
X204093690Y-77501482D02*
X203998452Y-77549101D01*
X203998452Y-77549101D02*
X203950833Y-77596720D01*
X203950833Y-77596720D02*
X203855595Y-77739577D01*
X203855595Y-77739577D02*
X203807976Y-77930053D01*
X203807976Y-77930053D02*
X203807976Y-78311005D01*
X203807976Y-78311005D02*
X203855595Y-78406243D01*
X203855595Y-78406243D02*
X203903214Y-78453863D01*
X203903214Y-78453863D02*
X203998452Y-78501482D01*
X203998452Y-78501482D02*
X204188928Y-78501482D01*
X204188928Y-78501482D02*
X204284166Y-78453863D01*
X204284166Y-78453863D02*
X204331785Y-78406243D01*
X204331785Y-78406243D02*
X204379404Y-78311005D01*
X204379404Y-78311005D02*
X204379404Y-78072910D01*
X204379404Y-78072910D02*
X204331785Y-77977672D01*
X204331785Y-77977672D02*
X204284166Y-77930053D01*
X204284166Y-77930053D02*
X204188928Y-77882434D01*
X204188928Y-77882434D02*
X203998452Y-77882434D01*
X203998452Y-77882434D02*
X203903214Y-77930053D01*
X203903214Y-77930053D02*
X203855595Y-77977672D01*
X203855595Y-77977672D02*
X203807976Y-78072910D01*
X87166905Y-77124823D02*
X87166905Y-76124823D01*
X87166905Y-76124823D02*
X87405000Y-76124823D01*
X87405000Y-76124823D02*
X87547857Y-76172442D01*
X87547857Y-76172442D02*
X87643095Y-76267680D01*
X87643095Y-76267680D02*
X87690714Y-76362918D01*
X87690714Y-76362918D02*
X87738333Y-76553394D01*
X87738333Y-76553394D02*
X87738333Y-76696251D01*
X87738333Y-76696251D02*
X87690714Y-76886727D01*
X87690714Y-76886727D02*
X87643095Y-76981965D01*
X87643095Y-76981965D02*
X87547857Y-77077204D01*
X87547857Y-77077204D02*
X87405000Y-77124823D01*
X87405000Y-77124823D02*
X87166905Y-77124823D01*
X88690714Y-77124823D02*
X88119286Y-77124823D01*
X88405000Y-77124823D02*
X88405000Y-76124823D01*
X88405000Y-76124823D02*
X88309762Y-76267680D01*
X88309762Y-76267680D02*
X88214524Y-76362918D01*
X88214524Y-76362918D02*
X88119286Y-76410537D01*
X210930714Y-87264819D02*
X210930714Y-86264819D01*
X210930714Y-86264819D02*
X211168809Y-86264819D01*
X211168809Y-86264819D02*
X211311666Y-86312438D01*
X211311666Y-86312438D02*
X211406904Y-86407676D01*
X211406904Y-86407676D02*
X211454523Y-86502914D01*
X211454523Y-86502914D02*
X211502142Y-86693390D01*
X211502142Y-86693390D02*
X211502142Y-86836247D01*
X211502142Y-86836247D02*
X211454523Y-87026723D01*
X211454523Y-87026723D02*
X211406904Y-87121961D01*
X211406904Y-87121961D02*
X211311666Y-87217200D01*
X211311666Y-87217200D02*
X211168809Y-87264819D01*
X211168809Y-87264819D02*
X210930714Y-87264819D01*
X212454523Y-87264819D02*
X211883095Y-87264819D01*
X212168809Y-87264819D02*
X212168809Y-86264819D01*
X212168809Y-86264819D02*
X212073571Y-86407676D01*
X212073571Y-86407676D02*
X211978333Y-86502914D01*
X211978333Y-86502914D02*
X211883095Y-86550533D01*
X212787857Y-86264819D02*
X213454523Y-86264819D01*
X213454523Y-86264819D02*
X213025952Y-87264819D01*
X101788095Y-35254819D02*
X101788095Y-34254819D01*
X101788095Y-34731009D02*
X102359523Y-34731009D01*
X102359523Y-35254819D02*
X102359523Y-34254819D01*
X103359523Y-35254819D02*
X102788095Y-35254819D01*
X103073809Y-35254819D02*
X103073809Y-34254819D01*
X103073809Y-34254819D02*
X102978571Y-34397676D01*
X102978571Y-34397676D02*
X102883333Y-34492914D01*
X102883333Y-34492914D02*
X102788095Y-34540533D01*
X210930714Y-109370374D02*
X210930714Y-108370374D01*
X210930714Y-108370374D02*
X211168809Y-108370374D01*
X211168809Y-108370374D02*
X211311666Y-108417993D01*
X211311666Y-108417993D02*
X211406904Y-108513231D01*
X211406904Y-108513231D02*
X211454523Y-108608469D01*
X211454523Y-108608469D02*
X211502142Y-108798945D01*
X211502142Y-108798945D02*
X211502142Y-108941802D01*
X211502142Y-108941802D02*
X211454523Y-109132278D01*
X211454523Y-109132278D02*
X211406904Y-109227516D01*
X211406904Y-109227516D02*
X211311666Y-109322755D01*
X211311666Y-109322755D02*
X211168809Y-109370374D01*
X211168809Y-109370374D02*
X210930714Y-109370374D01*
X212454523Y-109370374D02*
X211883095Y-109370374D01*
X212168809Y-109370374D02*
X212168809Y-108370374D01*
X212168809Y-108370374D02*
X212073571Y-108513231D01*
X212073571Y-108513231D02*
X211978333Y-108608469D01*
X211978333Y-108608469D02*
X211883095Y-108656088D01*
X213359285Y-108370374D02*
X212883095Y-108370374D01*
X212883095Y-108370374D02*
X212835476Y-108846564D01*
X212835476Y-108846564D02*
X212883095Y-108798945D01*
X212883095Y-108798945D02*
X212978333Y-108751326D01*
X212978333Y-108751326D02*
X213216428Y-108751326D01*
X213216428Y-108751326D02*
X213311666Y-108798945D01*
X213311666Y-108798945D02*
X213359285Y-108846564D01*
X213359285Y-108846564D02*
X213406904Y-108941802D01*
X213406904Y-108941802D02*
X213406904Y-109179897D01*
X213406904Y-109179897D02*
X213359285Y-109275135D01*
X213359285Y-109275135D02*
X213311666Y-109322755D01*
X213311666Y-109322755D02*
X213216428Y-109370374D01*
X213216428Y-109370374D02*
X212978333Y-109370374D01*
X212978333Y-109370374D02*
X212883095Y-109322755D01*
X212883095Y-109322755D02*
X212835476Y-109275135D01*
X202474642Y-82843708D02*
X202141309Y-82367517D01*
X201903214Y-82843708D02*
X201903214Y-81843708D01*
X201903214Y-81843708D02*
X202284166Y-81843708D01*
X202284166Y-81843708D02*
X202379404Y-81891327D01*
X202379404Y-81891327D02*
X202427023Y-81938946D01*
X202427023Y-81938946D02*
X202474642Y-82034184D01*
X202474642Y-82034184D02*
X202474642Y-82177041D01*
X202474642Y-82177041D02*
X202427023Y-82272279D01*
X202427023Y-82272279D02*
X202379404Y-82319898D01*
X202379404Y-82319898D02*
X202284166Y-82367517D01*
X202284166Y-82367517D02*
X201903214Y-82367517D01*
X203427023Y-82843708D02*
X202855595Y-82843708D01*
X203141309Y-82843708D02*
X203141309Y-81843708D01*
X203141309Y-81843708D02*
X203046071Y-81986565D01*
X203046071Y-81986565D02*
X202950833Y-82081803D01*
X202950833Y-82081803D02*
X202855595Y-82129422D01*
X203807976Y-81938946D02*
X203855595Y-81891327D01*
X203855595Y-81891327D02*
X203950833Y-81843708D01*
X203950833Y-81843708D02*
X204188928Y-81843708D01*
X204188928Y-81843708D02*
X204284166Y-81891327D01*
X204284166Y-81891327D02*
X204331785Y-81938946D01*
X204331785Y-81938946D02*
X204379404Y-82034184D01*
X204379404Y-82034184D02*
X204379404Y-82129422D01*
X204379404Y-82129422D02*
X204331785Y-82272279D01*
X204331785Y-82272279D02*
X203760357Y-82843708D01*
X203760357Y-82843708D02*
X204379404Y-82843708D01*
X210930714Y-104949263D02*
X210930714Y-103949263D01*
X210930714Y-103949263D02*
X211168809Y-103949263D01*
X211168809Y-103949263D02*
X211311666Y-103996882D01*
X211311666Y-103996882D02*
X211406904Y-104092120D01*
X211406904Y-104092120D02*
X211454523Y-104187358D01*
X211454523Y-104187358D02*
X211502142Y-104377834D01*
X211502142Y-104377834D02*
X211502142Y-104520691D01*
X211502142Y-104520691D02*
X211454523Y-104711167D01*
X211454523Y-104711167D02*
X211406904Y-104806405D01*
X211406904Y-104806405D02*
X211311666Y-104901644D01*
X211311666Y-104901644D02*
X211168809Y-104949263D01*
X211168809Y-104949263D02*
X210930714Y-104949263D01*
X212454523Y-104949263D02*
X211883095Y-104949263D01*
X212168809Y-104949263D02*
X212168809Y-103949263D01*
X212168809Y-103949263D02*
X212073571Y-104092120D01*
X212073571Y-104092120D02*
X211978333Y-104187358D01*
X211978333Y-104187358D02*
X211883095Y-104234977D01*
X212930714Y-104949263D02*
X213121190Y-104949263D01*
X213121190Y-104949263D02*
X213216428Y-104901644D01*
X213216428Y-104901644D02*
X213264047Y-104854024D01*
X213264047Y-104854024D02*
X213359285Y-104711167D01*
X213359285Y-104711167D02*
X213406904Y-104520691D01*
X213406904Y-104520691D02*
X213406904Y-104139739D01*
X213406904Y-104139739D02*
X213359285Y-104044501D01*
X213359285Y-104044501D02*
X213311666Y-103996882D01*
X213311666Y-103996882D02*
X213216428Y-103949263D01*
X213216428Y-103949263D02*
X213025952Y-103949263D01*
X213025952Y-103949263D02*
X212930714Y-103996882D01*
X212930714Y-103996882D02*
X212883095Y-104044501D01*
X212883095Y-104044501D02*
X212835476Y-104139739D01*
X212835476Y-104139739D02*
X212835476Y-104377834D01*
X212835476Y-104377834D02*
X212883095Y-104473072D01*
X212883095Y-104473072D02*
X212930714Y-104520691D01*
X212930714Y-104520691D02*
X213025952Y-104568310D01*
X213025952Y-104568310D02*
X213216428Y-104568310D01*
X213216428Y-104568310D02*
X213311666Y-104520691D01*
X213311666Y-104520691D02*
X213359285Y-104473072D01*
X213359285Y-104473072D02*
X213406904Y-104377834D01*
X210930714Y-74001482D02*
X210930714Y-73001482D01*
X210930714Y-73001482D02*
X211168809Y-73001482D01*
X211168809Y-73001482D02*
X211311666Y-73049101D01*
X211311666Y-73049101D02*
X211406904Y-73144339D01*
X211406904Y-73144339D02*
X211454523Y-73239577D01*
X211454523Y-73239577D02*
X211502142Y-73430053D01*
X211502142Y-73430053D02*
X211502142Y-73572910D01*
X211502142Y-73572910D02*
X211454523Y-73763386D01*
X211454523Y-73763386D02*
X211406904Y-73858624D01*
X211406904Y-73858624D02*
X211311666Y-73953863D01*
X211311666Y-73953863D02*
X211168809Y-74001482D01*
X211168809Y-74001482D02*
X210930714Y-74001482D01*
X212454523Y-74001482D02*
X211883095Y-74001482D01*
X212168809Y-74001482D02*
X212168809Y-73001482D01*
X212168809Y-73001482D02*
X212073571Y-73144339D01*
X212073571Y-73144339D02*
X211978333Y-73239577D01*
X211978333Y-73239577D02*
X211883095Y-73287196D01*
X213406904Y-74001482D02*
X212835476Y-74001482D01*
X213121190Y-74001482D02*
X213121190Y-73001482D01*
X213121190Y-73001482D02*
X213025952Y-73144339D01*
X213025952Y-73144339D02*
X212930714Y-73239577D01*
X212930714Y-73239577D02*
X212835476Y-73287196D01*
X87166905Y-81624819D02*
X87166905Y-80624819D01*
X87166905Y-80624819D02*
X87405000Y-80624819D01*
X87405000Y-80624819D02*
X87547857Y-80672438D01*
X87547857Y-80672438D02*
X87643095Y-80767676D01*
X87643095Y-80767676D02*
X87690714Y-80862914D01*
X87690714Y-80862914D02*
X87738333Y-81053390D01*
X87738333Y-81053390D02*
X87738333Y-81196247D01*
X87738333Y-81196247D02*
X87690714Y-81386723D01*
X87690714Y-81386723D02*
X87643095Y-81481961D01*
X87643095Y-81481961D02*
X87547857Y-81577200D01*
X87547857Y-81577200D02*
X87405000Y-81624819D01*
X87405000Y-81624819D02*
X87166905Y-81624819D01*
X88595476Y-80624819D02*
X88405000Y-80624819D01*
X88405000Y-80624819D02*
X88309762Y-80672438D01*
X88309762Y-80672438D02*
X88262143Y-80720057D01*
X88262143Y-80720057D02*
X88166905Y-80862914D01*
X88166905Y-80862914D02*
X88119286Y-81053390D01*
X88119286Y-81053390D02*
X88119286Y-81434342D01*
X88119286Y-81434342D02*
X88166905Y-81529580D01*
X88166905Y-81529580D02*
X88214524Y-81577200D01*
X88214524Y-81577200D02*
X88309762Y-81624819D01*
X88309762Y-81624819D02*
X88500238Y-81624819D01*
X88500238Y-81624819D02*
X88595476Y-81577200D01*
X88595476Y-81577200D02*
X88643095Y-81529580D01*
X88643095Y-81529580D02*
X88690714Y-81434342D01*
X88690714Y-81434342D02*
X88690714Y-81196247D01*
X88690714Y-81196247D02*
X88643095Y-81101009D01*
X88643095Y-81101009D02*
X88595476Y-81053390D01*
X88595476Y-81053390D02*
X88500238Y-81005771D01*
X88500238Y-81005771D02*
X88309762Y-81005771D01*
X88309762Y-81005771D02*
X88214524Y-81053390D01*
X88214524Y-81053390D02*
X88166905Y-81101009D01*
X88166905Y-81101009D02*
X88119286Y-81196247D01*
X196188095Y-35254819D02*
X196188095Y-34254819D01*
X196188095Y-34731009D02*
X196759523Y-34731009D01*
X196759523Y-35254819D02*
X196759523Y-34254819D01*
X197188095Y-34350057D02*
X197235714Y-34302438D01*
X197235714Y-34302438D02*
X197330952Y-34254819D01*
X197330952Y-34254819D02*
X197569047Y-34254819D01*
X197569047Y-34254819D02*
X197664285Y-34302438D01*
X197664285Y-34302438D02*
X197711904Y-34350057D01*
X197711904Y-34350057D02*
X197759523Y-34445295D01*
X197759523Y-34445295D02*
X197759523Y-34540533D01*
X197759523Y-34540533D02*
X197711904Y-34683390D01*
X197711904Y-34683390D02*
X197140476Y-35254819D01*
X197140476Y-35254819D02*
X197759523Y-35254819D01*
X202474642Y-104949263D02*
X202141309Y-104473072D01*
X201903214Y-104949263D02*
X201903214Y-103949263D01*
X201903214Y-103949263D02*
X202284166Y-103949263D01*
X202284166Y-103949263D02*
X202379404Y-103996882D01*
X202379404Y-103996882D02*
X202427023Y-104044501D01*
X202427023Y-104044501D02*
X202474642Y-104139739D01*
X202474642Y-104139739D02*
X202474642Y-104282596D01*
X202474642Y-104282596D02*
X202427023Y-104377834D01*
X202427023Y-104377834D02*
X202379404Y-104425453D01*
X202379404Y-104425453D02*
X202284166Y-104473072D01*
X202284166Y-104473072D02*
X201903214Y-104473072D01*
X203427023Y-104949263D02*
X202855595Y-104949263D01*
X203141309Y-104949263D02*
X203141309Y-103949263D01*
X203141309Y-103949263D02*
X203046071Y-104092120D01*
X203046071Y-104092120D02*
X202950833Y-104187358D01*
X202950833Y-104187358D02*
X202855595Y-104234977D01*
X203903214Y-104949263D02*
X204093690Y-104949263D01*
X204093690Y-104949263D02*
X204188928Y-104901644D01*
X204188928Y-104901644D02*
X204236547Y-104854024D01*
X204236547Y-104854024D02*
X204331785Y-104711167D01*
X204331785Y-104711167D02*
X204379404Y-104520691D01*
X204379404Y-104520691D02*
X204379404Y-104139739D01*
X204379404Y-104139739D02*
X204331785Y-104044501D01*
X204331785Y-104044501D02*
X204284166Y-103996882D01*
X204284166Y-103996882D02*
X204188928Y-103949263D01*
X204188928Y-103949263D02*
X203998452Y-103949263D01*
X203998452Y-103949263D02*
X203903214Y-103996882D01*
X203903214Y-103996882D02*
X203855595Y-104044501D01*
X203855595Y-104044501D02*
X203807976Y-104139739D01*
X203807976Y-104139739D02*
X203807976Y-104377834D01*
X203807976Y-104377834D02*
X203855595Y-104473072D01*
X203855595Y-104473072D02*
X203903214Y-104520691D01*
X203903214Y-104520691D02*
X203998452Y-104568310D01*
X203998452Y-104568310D02*
X204188928Y-104568310D01*
X204188928Y-104568310D02*
X204284166Y-104520691D01*
X204284166Y-104520691D02*
X204331785Y-104473072D01*
X204331785Y-104473072D02*
X204379404Y-104377834D01*
X96289642Y-116914823D02*
X95956309Y-116438632D01*
X95718214Y-116914823D02*
X95718214Y-115914823D01*
X95718214Y-115914823D02*
X96099166Y-115914823D01*
X96099166Y-115914823D02*
X96194404Y-115962442D01*
X96194404Y-115962442D02*
X96242023Y-116010061D01*
X96242023Y-116010061D02*
X96289642Y-116105299D01*
X96289642Y-116105299D02*
X96289642Y-116248156D01*
X96289642Y-116248156D02*
X96242023Y-116343394D01*
X96242023Y-116343394D02*
X96194404Y-116391013D01*
X96194404Y-116391013D02*
X96099166Y-116438632D01*
X96099166Y-116438632D02*
X95718214Y-116438632D01*
X97242023Y-116914823D02*
X96670595Y-116914823D01*
X96956309Y-116914823D02*
X96956309Y-115914823D01*
X96956309Y-115914823D02*
X96861071Y-116057680D01*
X96861071Y-116057680D02*
X96765833Y-116152918D01*
X96765833Y-116152918D02*
X96670595Y-116200537D01*
X97861071Y-115914823D02*
X97956309Y-115914823D01*
X97956309Y-115914823D02*
X98051547Y-115962442D01*
X98051547Y-115962442D02*
X98099166Y-116010061D01*
X98099166Y-116010061D02*
X98146785Y-116105299D01*
X98146785Y-116105299D02*
X98194404Y-116295775D01*
X98194404Y-116295775D02*
X98194404Y-116533870D01*
X98194404Y-116533870D02*
X98146785Y-116724346D01*
X98146785Y-116724346D02*
X98099166Y-116819584D01*
X98099166Y-116819584D02*
X98051547Y-116867204D01*
X98051547Y-116867204D02*
X97956309Y-116914823D01*
X97956309Y-116914823D02*
X97861071Y-116914823D01*
X97861071Y-116914823D02*
X97765833Y-116867204D01*
X97765833Y-116867204D02*
X97718214Y-116819584D01*
X97718214Y-116819584D02*
X97670595Y-116724346D01*
X97670595Y-116724346D02*
X97622976Y-116533870D01*
X97622976Y-116533870D02*
X97622976Y-116295775D01*
X97622976Y-116295775D02*
X97670595Y-116105299D01*
X97670595Y-116105299D02*
X97718214Y-116010061D01*
X97718214Y-116010061D02*
X97765833Y-115962442D01*
X97765833Y-115962442D02*
X97861071Y-115914823D01*
X202474642Y-74001482D02*
X202141309Y-73525291D01*
X201903214Y-74001482D02*
X201903214Y-73001482D01*
X201903214Y-73001482D02*
X202284166Y-73001482D01*
X202284166Y-73001482D02*
X202379404Y-73049101D01*
X202379404Y-73049101D02*
X202427023Y-73096720D01*
X202427023Y-73096720D02*
X202474642Y-73191958D01*
X202474642Y-73191958D02*
X202474642Y-73334815D01*
X202474642Y-73334815D02*
X202427023Y-73430053D01*
X202427023Y-73430053D02*
X202379404Y-73477672D01*
X202379404Y-73477672D02*
X202284166Y-73525291D01*
X202284166Y-73525291D02*
X201903214Y-73525291D01*
X203427023Y-74001482D02*
X202855595Y-74001482D01*
X203141309Y-74001482D02*
X203141309Y-73001482D01*
X203141309Y-73001482D02*
X203046071Y-73144339D01*
X203046071Y-73144339D02*
X202950833Y-73239577D01*
X202950833Y-73239577D02*
X202855595Y-73287196D01*
X204379404Y-74001482D02*
X203807976Y-74001482D01*
X204093690Y-74001482D02*
X204093690Y-73001482D01*
X204093690Y-73001482D02*
X203998452Y-73144339D01*
X203998452Y-73144339D02*
X203903214Y-73239577D01*
X203903214Y-73239577D02*
X203807976Y-73287196D01*
X202474642Y-91501482D02*
X202141309Y-91025291D01*
X201903214Y-91501482D02*
X201903214Y-90501482D01*
X201903214Y-90501482D02*
X202284166Y-90501482D01*
X202284166Y-90501482D02*
X202379404Y-90549101D01*
X202379404Y-90549101D02*
X202427023Y-90596720D01*
X202427023Y-90596720D02*
X202474642Y-90691958D01*
X202474642Y-90691958D02*
X202474642Y-90834815D01*
X202474642Y-90834815D02*
X202427023Y-90930053D01*
X202427023Y-90930053D02*
X202379404Y-90977672D01*
X202379404Y-90977672D02*
X202284166Y-91025291D01*
X202284166Y-91025291D02*
X201903214Y-91025291D01*
X203427023Y-91501482D02*
X202855595Y-91501482D01*
X203141309Y-91501482D02*
X203141309Y-90501482D01*
X203141309Y-90501482D02*
X203046071Y-90644339D01*
X203046071Y-90644339D02*
X202950833Y-90739577D01*
X202950833Y-90739577D02*
X202855595Y-90787196D01*
X203760357Y-90501482D02*
X204379404Y-90501482D01*
X204379404Y-90501482D02*
X204046071Y-90882434D01*
X204046071Y-90882434D02*
X204188928Y-90882434D01*
X204188928Y-90882434D02*
X204284166Y-90930053D01*
X204284166Y-90930053D02*
X204331785Y-90977672D01*
X204331785Y-90977672D02*
X204379404Y-91072910D01*
X204379404Y-91072910D02*
X204379404Y-91311005D01*
X204379404Y-91311005D02*
X204331785Y-91406243D01*
X204331785Y-91406243D02*
X204284166Y-91453863D01*
X204284166Y-91453863D02*
X204188928Y-91501482D01*
X204188928Y-91501482D02*
X203903214Y-91501482D01*
X203903214Y-91501482D02*
X203807976Y-91453863D01*
X203807976Y-91453863D02*
X203760357Y-91406243D01*
X87166905Y-94624819D02*
X87166905Y-93624819D01*
X87166905Y-93624819D02*
X87405000Y-93624819D01*
X87405000Y-93624819D02*
X87547857Y-93672438D01*
X87547857Y-93672438D02*
X87643095Y-93767676D01*
X87643095Y-93767676D02*
X87690714Y-93862914D01*
X87690714Y-93862914D02*
X87738333Y-94053390D01*
X87738333Y-94053390D02*
X87738333Y-94196247D01*
X87738333Y-94196247D02*
X87690714Y-94386723D01*
X87690714Y-94386723D02*
X87643095Y-94481961D01*
X87643095Y-94481961D02*
X87547857Y-94577200D01*
X87547857Y-94577200D02*
X87405000Y-94624819D01*
X87405000Y-94624819D02*
X87166905Y-94624819D01*
X88071667Y-93624819D02*
X88690714Y-93624819D01*
X88690714Y-93624819D02*
X88357381Y-94005771D01*
X88357381Y-94005771D02*
X88500238Y-94005771D01*
X88500238Y-94005771D02*
X88595476Y-94053390D01*
X88595476Y-94053390D02*
X88643095Y-94101009D01*
X88643095Y-94101009D02*
X88690714Y-94196247D01*
X88690714Y-94196247D02*
X88690714Y-94434342D01*
X88690714Y-94434342D02*
X88643095Y-94529580D01*
X88643095Y-94529580D02*
X88595476Y-94577200D01*
X88595476Y-94577200D02*
X88500238Y-94624819D01*
X88500238Y-94624819D02*
X88214524Y-94624819D01*
X88214524Y-94624819D02*
X88119286Y-94577200D01*
X88119286Y-94577200D02*
X88071667Y-94529580D01*
X87166905Y-99230378D02*
X87166905Y-98230378D01*
X87166905Y-98230378D02*
X87405000Y-98230378D01*
X87405000Y-98230378D02*
X87547857Y-98277997D01*
X87547857Y-98277997D02*
X87643095Y-98373235D01*
X87643095Y-98373235D02*
X87690714Y-98468473D01*
X87690714Y-98468473D02*
X87738333Y-98658949D01*
X87738333Y-98658949D02*
X87738333Y-98801806D01*
X87738333Y-98801806D02*
X87690714Y-98992282D01*
X87690714Y-98992282D02*
X87643095Y-99087520D01*
X87643095Y-99087520D02*
X87547857Y-99182759D01*
X87547857Y-99182759D02*
X87405000Y-99230378D01*
X87405000Y-99230378D02*
X87166905Y-99230378D01*
X88309762Y-98658949D02*
X88214524Y-98611330D01*
X88214524Y-98611330D02*
X88166905Y-98563711D01*
X88166905Y-98563711D02*
X88119286Y-98468473D01*
X88119286Y-98468473D02*
X88119286Y-98420854D01*
X88119286Y-98420854D02*
X88166905Y-98325616D01*
X88166905Y-98325616D02*
X88214524Y-98277997D01*
X88214524Y-98277997D02*
X88309762Y-98230378D01*
X88309762Y-98230378D02*
X88500238Y-98230378D01*
X88500238Y-98230378D02*
X88595476Y-98277997D01*
X88595476Y-98277997D02*
X88643095Y-98325616D01*
X88643095Y-98325616D02*
X88690714Y-98420854D01*
X88690714Y-98420854D02*
X88690714Y-98468473D01*
X88690714Y-98468473D02*
X88643095Y-98563711D01*
X88643095Y-98563711D02*
X88595476Y-98611330D01*
X88595476Y-98611330D02*
X88500238Y-98658949D01*
X88500238Y-98658949D02*
X88309762Y-98658949D01*
X88309762Y-98658949D02*
X88214524Y-98706568D01*
X88214524Y-98706568D02*
X88166905Y-98754187D01*
X88166905Y-98754187D02*
X88119286Y-98849425D01*
X88119286Y-98849425D02*
X88119286Y-99039901D01*
X88119286Y-99039901D02*
X88166905Y-99135139D01*
X88166905Y-99135139D02*
X88214524Y-99182759D01*
X88214524Y-99182759D02*
X88309762Y-99230378D01*
X88309762Y-99230378D02*
X88500238Y-99230378D01*
X88500238Y-99230378D02*
X88595476Y-99182759D01*
X88595476Y-99182759D02*
X88643095Y-99135139D01*
X88643095Y-99135139D02*
X88690714Y-99039901D01*
X88690714Y-99039901D02*
X88690714Y-98849425D01*
X88690714Y-98849425D02*
X88643095Y-98754187D01*
X88643095Y-98754187D02*
X88595476Y-98706568D01*
X88595476Y-98706568D02*
X88500238Y-98658949D01*
X96765833Y-85967045D02*
X96432500Y-85490854D01*
X96194405Y-85967045D02*
X96194405Y-84967045D01*
X96194405Y-84967045D02*
X96575357Y-84967045D01*
X96575357Y-84967045D02*
X96670595Y-85014664D01*
X96670595Y-85014664D02*
X96718214Y-85062283D01*
X96718214Y-85062283D02*
X96765833Y-85157521D01*
X96765833Y-85157521D02*
X96765833Y-85300378D01*
X96765833Y-85300378D02*
X96718214Y-85395616D01*
X96718214Y-85395616D02*
X96670595Y-85443235D01*
X96670595Y-85443235D02*
X96575357Y-85490854D01*
X96575357Y-85490854D02*
X96194405Y-85490854D01*
X97146786Y-85062283D02*
X97194405Y-85014664D01*
X97194405Y-85014664D02*
X97289643Y-84967045D01*
X97289643Y-84967045D02*
X97527738Y-84967045D01*
X97527738Y-84967045D02*
X97622976Y-85014664D01*
X97622976Y-85014664D02*
X97670595Y-85062283D01*
X97670595Y-85062283D02*
X97718214Y-85157521D01*
X97718214Y-85157521D02*
X97718214Y-85252759D01*
X97718214Y-85252759D02*
X97670595Y-85395616D01*
X97670595Y-85395616D02*
X97099167Y-85967045D01*
X97099167Y-85967045D02*
X97718214Y-85967045D01*
X87166905Y-112493711D02*
X87166905Y-111493711D01*
X87166905Y-111493711D02*
X87405000Y-111493711D01*
X87405000Y-111493711D02*
X87547857Y-111541330D01*
X87547857Y-111541330D02*
X87643095Y-111636568D01*
X87643095Y-111636568D02*
X87690714Y-111731806D01*
X87690714Y-111731806D02*
X87738333Y-111922282D01*
X87738333Y-111922282D02*
X87738333Y-112065139D01*
X87738333Y-112065139D02*
X87690714Y-112255615D01*
X87690714Y-112255615D02*
X87643095Y-112350853D01*
X87643095Y-112350853D02*
X87547857Y-112446092D01*
X87547857Y-112446092D02*
X87405000Y-112493711D01*
X87405000Y-112493711D02*
X87166905Y-112493711D01*
X88643095Y-111493711D02*
X88166905Y-111493711D01*
X88166905Y-111493711D02*
X88119286Y-111969901D01*
X88119286Y-111969901D02*
X88166905Y-111922282D01*
X88166905Y-111922282D02*
X88262143Y-111874663D01*
X88262143Y-111874663D02*
X88500238Y-111874663D01*
X88500238Y-111874663D02*
X88595476Y-111922282D01*
X88595476Y-111922282D02*
X88643095Y-111969901D01*
X88643095Y-111969901D02*
X88690714Y-112065139D01*
X88690714Y-112065139D02*
X88690714Y-112303234D01*
X88690714Y-112303234D02*
X88643095Y-112398472D01*
X88643095Y-112398472D02*
X88595476Y-112446092D01*
X88595476Y-112446092D02*
X88500238Y-112493711D01*
X88500238Y-112493711D02*
X88262143Y-112493711D01*
X88262143Y-112493711D02*
X88166905Y-112446092D01*
X88166905Y-112446092D02*
X88119286Y-112398472D01*
X196188095Y-139654819D02*
X196188095Y-138654819D01*
X196188095Y-139131009D02*
X196759523Y-139131009D01*
X196759523Y-139654819D02*
X196759523Y-138654819D01*
X197664285Y-138988152D02*
X197664285Y-139654819D01*
X197426190Y-138607200D02*
X197188095Y-139321485D01*
X197188095Y-139321485D02*
X197807142Y-139321485D01*
X96765833Y-112493711D02*
X96432500Y-112017520D01*
X96194405Y-112493711D02*
X96194405Y-111493711D01*
X96194405Y-111493711D02*
X96575357Y-111493711D01*
X96575357Y-111493711D02*
X96670595Y-111541330D01*
X96670595Y-111541330D02*
X96718214Y-111588949D01*
X96718214Y-111588949D02*
X96765833Y-111684187D01*
X96765833Y-111684187D02*
X96765833Y-111827044D01*
X96765833Y-111827044D02*
X96718214Y-111922282D01*
X96718214Y-111922282D02*
X96670595Y-111969901D01*
X96670595Y-111969901D02*
X96575357Y-112017520D01*
X96575357Y-112017520D02*
X96194405Y-112017520D01*
X97670595Y-111493711D02*
X97194405Y-111493711D01*
X97194405Y-111493711D02*
X97146786Y-111969901D01*
X97146786Y-111969901D02*
X97194405Y-111922282D01*
X97194405Y-111922282D02*
X97289643Y-111874663D01*
X97289643Y-111874663D02*
X97527738Y-111874663D01*
X97527738Y-111874663D02*
X97622976Y-111922282D01*
X97622976Y-111922282D02*
X97670595Y-111969901D01*
X97670595Y-111969901D02*
X97718214Y-112065139D01*
X97718214Y-112065139D02*
X97718214Y-112303234D01*
X97718214Y-112303234D02*
X97670595Y-112398472D01*
X97670595Y-112398472D02*
X97622976Y-112446092D01*
X97622976Y-112446092D02*
X97527738Y-112493711D01*
X97527738Y-112493711D02*
X97289643Y-112493711D01*
X97289643Y-112493711D02*
X97194405Y-112446092D01*
X97194405Y-112446092D02*
X97146786Y-112398472D01*
X202474642Y-109370374D02*
X202141309Y-108894183D01*
X201903214Y-109370374D02*
X201903214Y-108370374D01*
X201903214Y-108370374D02*
X202284166Y-108370374D01*
X202284166Y-108370374D02*
X202379404Y-108417993D01*
X202379404Y-108417993D02*
X202427023Y-108465612D01*
X202427023Y-108465612D02*
X202474642Y-108560850D01*
X202474642Y-108560850D02*
X202474642Y-108703707D01*
X202474642Y-108703707D02*
X202427023Y-108798945D01*
X202427023Y-108798945D02*
X202379404Y-108846564D01*
X202379404Y-108846564D02*
X202284166Y-108894183D01*
X202284166Y-108894183D02*
X201903214Y-108894183D01*
X203427023Y-109370374D02*
X202855595Y-109370374D01*
X203141309Y-109370374D02*
X203141309Y-108370374D01*
X203141309Y-108370374D02*
X203046071Y-108513231D01*
X203046071Y-108513231D02*
X202950833Y-108608469D01*
X202950833Y-108608469D02*
X202855595Y-108656088D01*
X204331785Y-108370374D02*
X203855595Y-108370374D01*
X203855595Y-108370374D02*
X203807976Y-108846564D01*
X203807976Y-108846564D02*
X203855595Y-108798945D01*
X203855595Y-108798945D02*
X203950833Y-108751326D01*
X203950833Y-108751326D02*
X204188928Y-108751326D01*
X204188928Y-108751326D02*
X204284166Y-108798945D01*
X204284166Y-108798945D02*
X204331785Y-108846564D01*
X204331785Y-108846564D02*
X204379404Y-108941802D01*
X204379404Y-108941802D02*
X204379404Y-109179897D01*
X204379404Y-109179897D02*
X204331785Y-109275135D01*
X204331785Y-109275135D02*
X204284166Y-109322755D01*
X204284166Y-109322755D02*
X204188928Y-109370374D01*
X204188928Y-109370374D02*
X203950833Y-109370374D01*
X203950833Y-109370374D02*
X203855595Y-109322755D01*
X203855595Y-109322755D02*
X203807976Y-109275135D01*
D12*
X97187224Y-96823059D02*
X96677776Y-96823059D01*
X97187224Y-97868059D02*
X96677776Y-97868059D01*
D13*
X144130000Y-115540000D02*
X145030000Y-115540000D01*
X144430000Y-118140000D02*
X152830000Y-118140000D01*
D14*
X145530000Y-113940000D02*
X145530000Y-113940000D01*
X145730000Y-113940000D02*
X145730000Y-113940000D01*
D13*
X147730000Y-115540000D02*
X149530000Y-115540000D01*
X152230000Y-115540000D02*
X153130000Y-115540000D01*
D14*
X145530000Y-113940000D02*
G75*
G02*
X145730000Y-113940000I100000J0D01*
G01*
X145730000Y-113940000D02*
G75*
G02*
X145530000Y-113940000I-100000J0D01*
G01*
D12*
X202862776Y-96454163D02*
X203372224Y-96454163D01*
X202862776Y-97499163D02*
X203372224Y-97499163D01*
X87105000Y-89238337D02*
X89565000Y-89238337D01*
X89565000Y-87768337D02*
X87105000Y-87768337D01*
X89565000Y-89238337D02*
X89565000Y-87768337D01*
X97187224Y-92217500D02*
X96677776Y-92217500D01*
X97187224Y-93262500D02*
X96677776Y-93262500D01*
X210485000Y-78741663D02*
X210485000Y-80211663D01*
X210485000Y-80211663D02*
X212945000Y-80211663D01*
X212945000Y-78741663D02*
X210485000Y-78741663D01*
X202862776Y-100954163D02*
X203372224Y-100954163D01*
X202862776Y-101999163D02*
X203372224Y-101999163D01*
X97187224Y-87980837D02*
X96677776Y-87980837D01*
X97187224Y-89025837D02*
X96677776Y-89025837D01*
X97187224Y-79217500D02*
X96677776Y-79217500D01*
X97187224Y-80262500D02*
X96677776Y-80262500D01*
X210485000Y-96241663D02*
X210485000Y-97711663D01*
X210485000Y-97711663D02*
X212945000Y-97711663D01*
X212945000Y-96241663D02*
X210485000Y-96241663D01*
X87105000Y-115765004D02*
X89565000Y-115765004D01*
X89565000Y-114295004D02*
X87105000Y-114295004D01*
X89565000Y-115765004D02*
X89565000Y-114295004D01*
X87105000Y-102501670D02*
X89565000Y-102501670D01*
X89565000Y-101031670D02*
X87105000Y-101031670D01*
X89565000Y-102501670D02*
X89565000Y-101031670D01*
X87105000Y-106922781D02*
X89565000Y-106922781D01*
X89565000Y-105452781D02*
X87105000Y-105452781D01*
X89565000Y-106922781D02*
X89565000Y-105452781D01*
X210485000Y-114031667D02*
X210485000Y-115501667D01*
X210485000Y-115501667D02*
X212945000Y-115501667D01*
X212945000Y-114031667D02*
X210485000Y-114031667D01*
X97187224Y-74717504D02*
X96677776Y-74717504D01*
X97187224Y-75762504D02*
X96677776Y-75762504D01*
X97187224Y-105665281D02*
X96677776Y-105665281D01*
X97187224Y-106710281D02*
X96677776Y-106710281D01*
X97187224Y-101244170D02*
X96677776Y-101244170D01*
X97187224Y-102289170D02*
X96677776Y-102289170D01*
X210485000Y-83083889D02*
X210485000Y-84553889D01*
X210485000Y-84553889D02*
X212945000Y-84553889D01*
X212945000Y-83083889D02*
X210485000Y-83083889D01*
X202862776Y-87717500D02*
X203372224Y-87717500D01*
X202862776Y-88762500D02*
X203372224Y-88762500D01*
X210485000Y-100741663D02*
X210485000Y-102211663D01*
X210485000Y-102211663D02*
X212945000Y-102211663D01*
X212945000Y-100741663D02*
X210485000Y-100741663D01*
X210485000Y-91741663D02*
X210485000Y-93211663D01*
X210485000Y-93211663D02*
X212945000Y-93211663D01*
X212945000Y-91741663D02*
X210485000Y-91741663D01*
X202890276Y-114244167D02*
X203399724Y-114244167D01*
X202890276Y-115289167D02*
X203399724Y-115289167D01*
X87105000Y-84817226D02*
X89565000Y-84817226D01*
X89565000Y-83347226D02*
X87105000Y-83347226D01*
X89565000Y-84817226D02*
X89565000Y-83347226D01*
X202862776Y-78954163D02*
X203372224Y-78954163D01*
X202862776Y-79999163D02*
X203372224Y-79999163D01*
X87105000Y-75975004D02*
X89565000Y-75975004D01*
X89565000Y-74505004D02*
X87105000Y-74505004D01*
X89565000Y-75975004D02*
X89565000Y-74505004D01*
X210485000Y-87505000D02*
X210485000Y-88975000D01*
X210485000Y-88975000D02*
X212945000Y-88975000D01*
X212945000Y-87505000D02*
X210485000Y-87505000D01*
X210485000Y-109610555D02*
X210485000Y-111080555D01*
X210485000Y-111080555D02*
X212945000Y-111080555D01*
X212945000Y-109610555D02*
X210485000Y-109610555D01*
X202862776Y-83296389D02*
X203372224Y-83296389D01*
X202862776Y-84341389D02*
X203372224Y-84341389D01*
X210485000Y-105189444D02*
X210485000Y-106659444D01*
X210485000Y-106659444D02*
X212945000Y-106659444D01*
X212945000Y-105189444D02*
X210485000Y-105189444D01*
X210485000Y-74241663D02*
X210485000Y-75711663D01*
X210485000Y-75711663D02*
X212945000Y-75711663D01*
X212945000Y-74241663D02*
X210485000Y-74241663D01*
X87105000Y-80475000D02*
X89565000Y-80475000D01*
X89565000Y-79005000D02*
X87105000Y-79005000D01*
X89565000Y-80475000D02*
X89565000Y-79005000D01*
X202862776Y-105401944D02*
X203372224Y-105401944D01*
X202862776Y-106446944D02*
X203372224Y-106446944D01*
X97187224Y-114507504D02*
X96677776Y-114507504D01*
X97187224Y-115552504D02*
X96677776Y-115552504D01*
X202862776Y-74454163D02*
X203372224Y-74454163D01*
X202862776Y-75499163D02*
X203372224Y-75499163D01*
X202862776Y-91954163D02*
X203372224Y-91954163D01*
X202862776Y-92999163D02*
X203372224Y-92999163D01*
X87105000Y-93475000D02*
X89565000Y-93475000D01*
X89565000Y-92005000D02*
X87105000Y-92005000D01*
X89565000Y-93475000D02*
X89565000Y-92005000D01*
X87105000Y-98080559D02*
X89565000Y-98080559D01*
X89565000Y-96610559D02*
X87105000Y-96610559D01*
X89565000Y-98080559D02*
X89565000Y-96610559D01*
X97187224Y-83559726D02*
X96677776Y-83559726D01*
X97187224Y-84604726D02*
X96677776Y-84604726D01*
X87105000Y-111343892D02*
X89565000Y-111343892D01*
X89565000Y-109873892D02*
X87105000Y-109873892D01*
X89565000Y-111343892D02*
X89565000Y-109873892D01*
X97187224Y-110086392D02*
X96677776Y-110086392D01*
X97187224Y-111131392D02*
X96677776Y-111131392D01*
X202862776Y-109823055D02*
X203372224Y-109823055D01*
X202862776Y-110868055D02*
X203372224Y-110868055D01*
%LPC*%
D15*
X97845000Y-97345559D03*
X96020000Y-97345559D03*
D16*
X146130000Y-116840000D03*
X151130000Y-116840000D03*
D17*
X145630000Y-115090000D03*
X147130000Y-115090000D03*
X150130000Y-115090000D03*
X151630000Y-115090000D03*
D18*
X143480000Y-115790000D03*
X143480000Y-117630000D03*
X153780000Y-117890000D03*
X153780000Y-115790000D03*
D19*
X202205000Y-96976663D03*
X204030000Y-96976663D03*
D20*
X88780000Y-88503337D03*
X87030000Y-88503337D03*
D15*
X97845000Y-92740000D03*
X96020000Y-92740000D03*
D21*
X211270000Y-79476663D03*
X213020000Y-79476663D03*
D19*
X202205000Y-101476663D03*
X204030000Y-101476663D03*
D15*
X97845000Y-88503337D03*
X96020000Y-88503337D03*
X97845000Y-79740000D03*
X96020000Y-79740000D03*
D21*
X211270000Y-96976663D03*
X213020000Y-96976663D03*
D20*
X88780000Y-115030004D03*
X87030000Y-115030004D03*
X88780000Y-101766670D03*
X87030000Y-101766670D03*
X88780000Y-106187781D03*
X87030000Y-106187781D03*
D21*
X211270000Y-114766667D03*
X213020000Y-114766667D03*
D15*
X97845000Y-75240004D03*
X96020000Y-75240004D03*
X97845000Y-106187781D03*
X96020000Y-106187781D03*
X97845000Y-101766670D03*
X96020000Y-101766670D03*
D21*
X211270000Y-83818889D03*
X213020000Y-83818889D03*
D19*
X202205000Y-88240000D03*
X204030000Y-88240000D03*
D21*
X211270000Y-101476663D03*
X213020000Y-101476663D03*
X211270000Y-92476663D03*
X213020000Y-92476663D03*
D22*
X102550000Y-144700000D03*
D19*
X202232500Y-114766667D03*
X204057500Y-114766667D03*
D20*
X88780000Y-84082226D03*
X87030000Y-84082226D03*
D19*
X202205000Y-79476663D03*
X204030000Y-79476663D03*
D20*
X88780000Y-75240004D03*
X87030000Y-75240004D03*
D21*
X211270000Y-88240000D03*
X213020000Y-88240000D03*
D22*
X102550000Y-40300000D03*
D21*
X211270000Y-110345555D03*
X213020000Y-110345555D03*
D19*
X202205000Y-83818889D03*
X204030000Y-83818889D03*
D21*
X211270000Y-105924444D03*
X213020000Y-105924444D03*
X211270000Y-74976663D03*
X213020000Y-74976663D03*
D20*
X88780000Y-79740000D03*
X87030000Y-79740000D03*
D22*
X196950000Y-40300000D03*
D19*
X202205000Y-105924444D03*
X204030000Y-105924444D03*
D15*
X97845000Y-115030004D03*
X96020000Y-115030004D03*
D19*
X202205000Y-74976663D03*
X204030000Y-74976663D03*
X202205000Y-92476663D03*
X204030000Y-92476663D03*
D20*
X88780000Y-92740000D03*
X87030000Y-92740000D03*
X88780000Y-97345559D03*
X87030000Y-97345559D03*
D15*
X97845000Y-84082226D03*
X96020000Y-84082226D03*
D20*
X88780000Y-110608892D03*
X87030000Y-110608892D03*
D22*
X196950000Y-144700000D03*
D15*
X97845000Y-110608892D03*
X96020000Y-110608892D03*
D19*
X202205000Y-110345555D03*
X204030000Y-110345555D03*
D23*
X137690000Y-86350000D03*
D24*
X176300000Y-77650000D03*
D25*
X176300000Y-90350000D03*
%LPD*%
M02*
