%TF.GenerationSoftware,KiCad,Pcbnew,8.0.5*%
%TF.CreationDate,2025-02-21T17:39:50-06:00*%
%TF.ProjectId,ArmorPlate,41726d6f-7250-46c6-9174-652e6b696361,rev?*%
%TF.SameCoordinates,Original*%
%TF.FileFunction,Drillmap*%
%TF.FilePolarity,Positive*%
%FSLAX45Y45*%
G04 Gerber Fmt 4.5, Leading zero omitted, Abs format (unit mm)*
G04 Created by KiCad (PCBNEW 8.0.5) date 2025-02-21 17:39:50*
%MOMM*%
%LPD*%
G01*
G04 APERTURE LIST*
%ADD10C,0.050000*%
%ADD11C,0.200000*%
%ADD12C,0.100000*%
%ADD13C,0.345000*%
%ADD14C,0.450000*%
G04 APERTURE END LIST*
D10*
X21755000Y-15074500D02*
G75*
G02*
X21305000Y-15524500I-450000J0D01*
G01*
X21305000Y-3017500D02*
G75*
G02*
X21755000Y-3467500I0J-450000D01*
G01*
X21755000Y-3467500D02*
X21755000Y-15074500D01*
X8255000Y-15074500D02*
X8255000Y-3467500D01*
X8255000Y-3467500D02*
G75*
G02*
X8705000Y-3017500I450000J0D01*
G01*
X21305000Y-15524500D02*
X8705000Y-15524500D01*
X8705000Y-3017500D02*
X21305000Y-3017500D01*
X8705000Y-15524500D02*
G75*
G02*
X8255000Y-15074500I0J450000D01*
G01*
D11*
D12*
X14568000Y-11639000D02*
X14658000Y-11729000D01*
X14658000Y-11639000D02*
X14568000Y-11729000D01*
X15068000Y-11639000D02*
X15158000Y-11729000D01*
X15158000Y-11639000D02*
X15068000Y-11729000D01*
D13*
X13941500Y-8635000D02*
G75*
G02*
X13596500Y-8635000I-172500J0D01*
G01*
X13596500Y-8635000D02*
G75*
G02*
X13941500Y-8635000I172500J0D01*
G01*
X16938500Y-8165000D02*
G75*
G02*
X16593500Y-8165000I-172500J0D01*
G01*
X16593500Y-8165000D02*
G75*
G02*
X16938500Y-8165000I172500J0D01*
G01*
D14*
X10255000Y-3805000D02*
X10255000Y-4255000D01*
X10030000Y-4030000D02*
X10480000Y-4030000D01*
X10255000Y-14245000D02*
X10255000Y-14695000D01*
X10030000Y-14470000D02*
X10480000Y-14470000D01*
X19695000Y-3805000D02*
X19695000Y-4255000D01*
X19470000Y-4030000D02*
X19920000Y-4030000D01*
X19695000Y-14245000D02*
X19695000Y-14695000D01*
X19470000Y-14470000D02*
X19920000Y-14470000D01*
D11*
X8513277Y-15838484D02*
X8513277Y-15638484D01*
X8513277Y-15638484D02*
X8560896Y-15638484D01*
X8560896Y-15638484D02*
X8589467Y-15648008D01*
X8589467Y-15648008D02*
X8608515Y-15667055D01*
X8608515Y-15667055D02*
X8618039Y-15686103D01*
X8618039Y-15686103D02*
X8627563Y-15724198D01*
X8627563Y-15724198D02*
X8627563Y-15752769D01*
X8627563Y-15752769D02*
X8618039Y-15790865D01*
X8618039Y-15790865D02*
X8608515Y-15809912D01*
X8608515Y-15809912D02*
X8589467Y-15828960D01*
X8589467Y-15828960D02*
X8560896Y-15838484D01*
X8560896Y-15838484D02*
X8513277Y-15838484D01*
X8713277Y-15838484D02*
X8713277Y-15705150D01*
X8713277Y-15743246D02*
X8722801Y-15724198D01*
X8722801Y-15724198D02*
X8732324Y-15714674D01*
X8732324Y-15714674D02*
X8751372Y-15705150D01*
X8751372Y-15705150D02*
X8770420Y-15705150D01*
X8837086Y-15838484D02*
X8837086Y-15705150D01*
X8837086Y-15638484D02*
X8827563Y-15648008D01*
X8827563Y-15648008D02*
X8837086Y-15657531D01*
X8837086Y-15657531D02*
X8846610Y-15648008D01*
X8846610Y-15648008D02*
X8837086Y-15638484D01*
X8837086Y-15638484D02*
X8837086Y-15657531D01*
X8960896Y-15838484D02*
X8941848Y-15828960D01*
X8941848Y-15828960D02*
X8932324Y-15809912D01*
X8932324Y-15809912D02*
X8932324Y-15638484D01*
X9065658Y-15838484D02*
X9046610Y-15828960D01*
X9046610Y-15828960D02*
X9037086Y-15809912D01*
X9037086Y-15809912D02*
X9037086Y-15638484D01*
X9294229Y-15838484D02*
X9294229Y-15638484D01*
X9294229Y-15638484D02*
X9360896Y-15781341D01*
X9360896Y-15781341D02*
X9427563Y-15638484D01*
X9427563Y-15638484D02*
X9427563Y-15838484D01*
X9608515Y-15838484D02*
X9608515Y-15733722D01*
X9608515Y-15733722D02*
X9598991Y-15714674D01*
X9598991Y-15714674D02*
X9579944Y-15705150D01*
X9579944Y-15705150D02*
X9541848Y-15705150D01*
X9541848Y-15705150D02*
X9522801Y-15714674D01*
X9608515Y-15828960D02*
X9589467Y-15838484D01*
X9589467Y-15838484D02*
X9541848Y-15838484D01*
X9541848Y-15838484D02*
X9522801Y-15828960D01*
X9522801Y-15828960D02*
X9513277Y-15809912D01*
X9513277Y-15809912D02*
X9513277Y-15790865D01*
X9513277Y-15790865D02*
X9522801Y-15771817D01*
X9522801Y-15771817D02*
X9541848Y-15762293D01*
X9541848Y-15762293D02*
X9589467Y-15762293D01*
X9589467Y-15762293D02*
X9608515Y-15752769D01*
X9703753Y-15705150D02*
X9703753Y-15905150D01*
X9703753Y-15714674D02*
X9722801Y-15705150D01*
X9722801Y-15705150D02*
X9760896Y-15705150D01*
X9760896Y-15705150D02*
X9779944Y-15714674D01*
X9779944Y-15714674D02*
X9789467Y-15724198D01*
X9789467Y-15724198D02*
X9798991Y-15743246D01*
X9798991Y-15743246D02*
X9798991Y-15800388D01*
X9798991Y-15800388D02*
X9789467Y-15819436D01*
X9789467Y-15819436D02*
X9779944Y-15828960D01*
X9779944Y-15828960D02*
X9760896Y-15838484D01*
X9760896Y-15838484D02*
X9722801Y-15838484D01*
X9722801Y-15838484D02*
X9703753Y-15828960D01*
X9884705Y-15819436D02*
X9894229Y-15828960D01*
X9894229Y-15828960D02*
X9884705Y-15838484D01*
X9884705Y-15838484D02*
X9875182Y-15828960D01*
X9875182Y-15828960D02*
X9884705Y-15819436D01*
X9884705Y-15819436D02*
X9884705Y-15838484D01*
X9884705Y-15714674D02*
X9894229Y-15724198D01*
X9894229Y-15724198D02*
X9884705Y-15733722D01*
X9884705Y-15733722D02*
X9875182Y-15724198D01*
X9875182Y-15724198D02*
X9884705Y-15714674D01*
X9884705Y-15714674D02*
X9884705Y-15733722D01*
D12*
X8162500Y-16122000D02*
X8252500Y-16212000D01*
X8252500Y-16122000D02*
X8162500Y-16212000D01*
D11*
X8551372Y-16058484D02*
X8570420Y-16058484D01*
X8570420Y-16058484D02*
X8589467Y-16068008D01*
X8589467Y-16068008D02*
X8598991Y-16077531D01*
X8598991Y-16077531D02*
X8608515Y-16096579D01*
X8608515Y-16096579D02*
X8618039Y-16134674D01*
X8618039Y-16134674D02*
X8618039Y-16182293D01*
X8618039Y-16182293D02*
X8608515Y-16220388D01*
X8608515Y-16220388D02*
X8598991Y-16239436D01*
X8598991Y-16239436D02*
X8589467Y-16248960D01*
X8589467Y-16248960D02*
X8570420Y-16258484D01*
X8570420Y-16258484D02*
X8551372Y-16258484D01*
X8551372Y-16258484D02*
X8532324Y-16248960D01*
X8532324Y-16248960D02*
X8522801Y-16239436D01*
X8522801Y-16239436D02*
X8513277Y-16220388D01*
X8513277Y-16220388D02*
X8503753Y-16182293D01*
X8503753Y-16182293D02*
X8503753Y-16134674D01*
X8503753Y-16134674D02*
X8513277Y-16096579D01*
X8513277Y-16096579D02*
X8522801Y-16077531D01*
X8522801Y-16077531D02*
X8532324Y-16068008D01*
X8532324Y-16068008D02*
X8551372Y-16058484D01*
X8703753Y-16239436D02*
X8713277Y-16248960D01*
X8713277Y-16248960D02*
X8703753Y-16258484D01*
X8703753Y-16258484D02*
X8694229Y-16248960D01*
X8694229Y-16248960D02*
X8703753Y-16239436D01*
X8703753Y-16239436D02*
X8703753Y-16258484D01*
X8808515Y-16258484D02*
X8846610Y-16258484D01*
X8846610Y-16258484D02*
X8865658Y-16248960D01*
X8865658Y-16248960D02*
X8875182Y-16239436D01*
X8875182Y-16239436D02*
X8894229Y-16210865D01*
X8894229Y-16210865D02*
X8903753Y-16172769D01*
X8903753Y-16172769D02*
X8903753Y-16096579D01*
X8903753Y-16096579D02*
X8894229Y-16077531D01*
X8894229Y-16077531D02*
X8884705Y-16068008D01*
X8884705Y-16068008D02*
X8865658Y-16058484D01*
X8865658Y-16058484D02*
X8827563Y-16058484D01*
X8827563Y-16058484D02*
X8808515Y-16068008D01*
X8808515Y-16068008D02*
X8798991Y-16077531D01*
X8798991Y-16077531D02*
X8789467Y-16096579D01*
X8789467Y-16096579D02*
X8789467Y-16144198D01*
X8789467Y-16144198D02*
X8798991Y-16163246D01*
X8798991Y-16163246D02*
X8808515Y-16172769D01*
X8808515Y-16172769D02*
X8827563Y-16182293D01*
X8827563Y-16182293D02*
X8865658Y-16182293D01*
X8865658Y-16182293D02*
X8884705Y-16172769D01*
X8884705Y-16172769D02*
X8894229Y-16163246D01*
X8894229Y-16163246D02*
X8903753Y-16144198D01*
X9027563Y-16058484D02*
X9046610Y-16058484D01*
X9046610Y-16058484D02*
X9065658Y-16068008D01*
X9065658Y-16068008D02*
X9075182Y-16077531D01*
X9075182Y-16077531D02*
X9084705Y-16096579D01*
X9084705Y-16096579D02*
X9094229Y-16134674D01*
X9094229Y-16134674D02*
X9094229Y-16182293D01*
X9094229Y-16182293D02*
X9084705Y-16220388D01*
X9084705Y-16220388D02*
X9075182Y-16239436D01*
X9075182Y-16239436D02*
X9065658Y-16248960D01*
X9065658Y-16248960D02*
X9046610Y-16258484D01*
X9046610Y-16258484D02*
X9027563Y-16258484D01*
X9027563Y-16258484D02*
X9008515Y-16248960D01*
X9008515Y-16248960D02*
X8998991Y-16239436D01*
X8998991Y-16239436D02*
X8989467Y-16220388D01*
X8989467Y-16220388D02*
X8979944Y-16182293D01*
X8979944Y-16182293D02*
X8979944Y-16134674D01*
X8979944Y-16134674D02*
X8989467Y-16096579D01*
X8989467Y-16096579D02*
X8998991Y-16077531D01*
X8998991Y-16077531D02*
X9008515Y-16068008D01*
X9008515Y-16068008D02*
X9027563Y-16058484D01*
X9218039Y-16058484D02*
X9237086Y-16058484D01*
X9237086Y-16058484D02*
X9256134Y-16068008D01*
X9256134Y-16068008D02*
X9265658Y-16077531D01*
X9265658Y-16077531D02*
X9275182Y-16096579D01*
X9275182Y-16096579D02*
X9284705Y-16134674D01*
X9284705Y-16134674D02*
X9284705Y-16182293D01*
X9284705Y-16182293D02*
X9275182Y-16220388D01*
X9275182Y-16220388D02*
X9265658Y-16239436D01*
X9265658Y-16239436D02*
X9256134Y-16248960D01*
X9256134Y-16248960D02*
X9237086Y-16258484D01*
X9237086Y-16258484D02*
X9218039Y-16258484D01*
X9218039Y-16258484D02*
X9198991Y-16248960D01*
X9198991Y-16248960D02*
X9189467Y-16239436D01*
X9189467Y-16239436D02*
X9179944Y-16220388D01*
X9179944Y-16220388D02*
X9170420Y-16182293D01*
X9170420Y-16182293D02*
X9170420Y-16134674D01*
X9170420Y-16134674D02*
X9179944Y-16096579D01*
X9179944Y-16096579D02*
X9189467Y-16077531D01*
X9189467Y-16077531D02*
X9198991Y-16068008D01*
X9198991Y-16068008D02*
X9218039Y-16058484D01*
X9370420Y-16258484D02*
X9370420Y-16125150D01*
X9370420Y-16144198D02*
X9379944Y-16134674D01*
X9379944Y-16134674D02*
X9398991Y-16125150D01*
X9398991Y-16125150D02*
X9427563Y-16125150D01*
X9427563Y-16125150D02*
X9446610Y-16134674D01*
X9446610Y-16134674D02*
X9456134Y-16153722D01*
X9456134Y-16153722D02*
X9456134Y-16258484D01*
X9456134Y-16153722D02*
X9465658Y-16134674D01*
X9465658Y-16134674D02*
X9484705Y-16125150D01*
X9484705Y-16125150D02*
X9513277Y-16125150D01*
X9513277Y-16125150D02*
X9532325Y-16134674D01*
X9532325Y-16134674D02*
X9541848Y-16153722D01*
X9541848Y-16153722D02*
X9541848Y-16258484D01*
X9637086Y-16258484D02*
X9637086Y-16125150D01*
X9637086Y-16144198D02*
X9646610Y-16134674D01*
X9646610Y-16134674D02*
X9665658Y-16125150D01*
X9665658Y-16125150D02*
X9694229Y-16125150D01*
X9694229Y-16125150D02*
X9713277Y-16134674D01*
X9713277Y-16134674D02*
X9722801Y-16153722D01*
X9722801Y-16153722D02*
X9722801Y-16258484D01*
X9722801Y-16153722D02*
X9732325Y-16134674D01*
X9732325Y-16134674D02*
X9751372Y-16125150D01*
X9751372Y-16125150D02*
X9779944Y-16125150D01*
X9779944Y-16125150D02*
X9798991Y-16134674D01*
X9798991Y-16134674D02*
X9808515Y-16153722D01*
X9808515Y-16153722D02*
X9808515Y-16258484D01*
X10198991Y-16048960D02*
X10027563Y-16306103D01*
X10456134Y-16058484D02*
X10475182Y-16058484D01*
X10475182Y-16058484D02*
X10494229Y-16068008D01*
X10494229Y-16068008D02*
X10503753Y-16077531D01*
X10503753Y-16077531D02*
X10513277Y-16096579D01*
X10513277Y-16096579D02*
X10522801Y-16134674D01*
X10522801Y-16134674D02*
X10522801Y-16182293D01*
X10522801Y-16182293D02*
X10513277Y-16220388D01*
X10513277Y-16220388D02*
X10503753Y-16239436D01*
X10503753Y-16239436D02*
X10494229Y-16248960D01*
X10494229Y-16248960D02*
X10475182Y-16258484D01*
X10475182Y-16258484D02*
X10456134Y-16258484D01*
X10456134Y-16258484D02*
X10437087Y-16248960D01*
X10437087Y-16248960D02*
X10427563Y-16239436D01*
X10427563Y-16239436D02*
X10418039Y-16220388D01*
X10418039Y-16220388D02*
X10408515Y-16182293D01*
X10408515Y-16182293D02*
X10408515Y-16134674D01*
X10408515Y-16134674D02*
X10418039Y-16096579D01*
X10418039Y-16096579D02*
X10427563Y-16077531D01*
X10427563Y-16077531D02*
X10437087Y-16068008D01*
X10437087Y-16068008D02*
X10456134Y-16058484D01*
X10608515Y-16239436D02*
X10618039Y-16248960D01*
X10618039Y-16248960D02*
X10608515Y-16258484D01*
X10608515Y-16258484D02*
X10598991Y-16248960D01*
X10598991Y-16248960D02*
X10608515Y-16239436D01*
X10608515Y-16239436D02*
X10608515Y-16258484D01*
X10741848Y-16058484D02*
X10760896Y-16058484D01*
X10760896Y-16058484D02*
X10779944Y-16068008D01*
X10779944Y-16068008D02*
X10789468Y-16077531D01*
X10789468Y-16077531D02*
X10798991Y-16096579D01*
X10798991Y-16096579D02*
X10808515Y-16134674D01*
X10808515Y-16134674D02*
X10808515Y-16182293D01*
X10808515Y-16182293D02*
X10798991Y-16220388D01*
X10798991Y-16220388D02*
X10789468Y-16239436D01*
X10789468Y-16239436D02*
X10779944Y-16248960D01*
X10779944Y-16248960D02*
X10760896Y-16258484D01*
X10760896Y-16258484D02*
X10741848Y-16258484D01*
X10741848Y-16258484D02*
X10722801Y-16248960D01*
X10722801Y-16248960D02*
X10713277Y-16239436D01*
X10713277Y-16239436D02*
X10703753Y-16220388D01*
X10703753Y-16220388D02*
X10694229Y-16182293D01*
X10694229Y-16182293D02*
X10694229Y-16134674D01*
X10694229Y-16134674D02*
X10703753Y-16096579D01*
X10703753Y-16096579D02*
X10713277Y-16077531D01*
X10713277Y-16077531D02*
X10722801Y-16068008D01*
X10722801Y-16068008D02*
X10741848Y-16058484D01*
X10875182Y-16058484D02*
X10998991Y-16058484D01*
X10998991Y-16058484D02*
X10932325Y-16134674D01*
X10932325Y-16134674D02*
X10960896Y-16134674D01*
X10960896Y-16134674D02*
X10979944Y-16144198D01*
X10979944Y-16144198D02*
X10989468Y-16153722D01*
X10989468Y-16153722D02*
X10998991Y-16172769D01*
X10998991Y-16172769D02*
X10998991Y-16220388D01*
X10998991Y-16220388D02*
X10989468Y-16239436D01*
X10989468Y-16239436D02*
X10979944Y-16248960D01*
X10979944Y-16248960D02*
X10960896Y-16258484D01*
X10960896Y-16258484D02*
X10903753Y-16258484D01*
X10903753Y-16258484D02*
X10884706Y-16248960D01*
X10884706Y-16248960D02*
X10875182Y-16239436D01*
X11179944Y-16058484D02*
X11084706Y-16058484D01*
X11084706Y-16058484D02*
X11075182Y-16153722D01*
X11075182Y-16153722D02*
X11084706Y-16144198D01*
X11084706Y-16144198D02*
X11103753Y-16134674D01*
X11103753Y-16134674D02*
X11151372Y-16134674D01*
X11151372Y-16134674D02*
X11170420Y-16144198D01*
X11170420Y-16144198D02*
X11179944Y-16153722D01*
X11179944Y-16153722D02*
X11189467Y-16172769D01*
X11189467Y-16172769D02*
X11189467Y-16220388D01*
X11189467Y-16220388D02*
X11179944Y-16239436D01*
X11179944Y-16239436D02*
X11170420Y-16248960D01*
X11170420Y-16248960D02*
X11151372Y-16258484D01*
X11151372Y-16258484D02*
X11103753Y-16258484D01*
X11103753Y-16258484D02*
X11084706Y-16248960D01*
X11084706Y-16248960D02*
X11075182Y-16239436D01*
X11360896Y-16125150D02*
X11360896Y-16258484D01*
X11313277Y-16048960D02*
X11265658Y-16191817D01*
X11265658Y-16191817D02*
X11389467Y-16191817D01*
X11456134Y-16058484D02*
X11456134Y-16096579D01*
X11532325Y-16058484D02*
X11532325Y-16096579D01*
X11827563Y-16334674D02*
X11818039Y-16325150D01*
X11818039Y-16325150D02*
X11798991Y-16296579D01*
X11798991Y-16296579D02*
X11789468Y-16277531D01*
X11789468Y-16277531D02*
X11779944Y-16248960D01*
X11779944Y-16248960D02*
X11770420Y-16201341D01*
X11770420Y-16201341D02*
X11770420Y-16163246D01*
X11770420Y-16163246D02*
X11779944Y-16115627D01*
X11779944Y-16115627D02*
X11789468Y-16087055D01*
X11789468Y-16087055D02*
X11798991Y-16068008D01*
X11798991Y-16068008D02*
X11818039Y-16039436D01*
X11818039Y-16039436D02*
X11827563Y-16029912D01*
X11894229Y-16077531D02*
X11903753Y-16068008D01*
X11903753Y-16068008D02*
X11922801Y-16058484D01*
X11922801Y-16058484D02*
X11970420Y-16058484D01*
X11970420Y-16058484D02*
X11989468Y-16068008D01*
X11989468Y-16068008D02*
X11998991Y-16077531D01*
X11998991Y-16077531D02*
X12008515Y-16096579D01*
X12008515Y-16096579D02*
X12008515Y-16115627D01*
X12008515Y-16115627D02*
X11998991Y-16144198D01*
X11998991Y-16144198D02*
X11884706Y-16258484D01*
X11884706Y-16258484D02*
X12008515Y-16258484D01*
X12246610Y-16258484D02*
X12246610Y-16058484D01*
X12332325Y-16258484D02*
X12332325Y-16153722D01*
X12332325Y-16153722D02*
X12322801Y-16134674D01*
X12322801Y-16134674D02*
X12303753Y-16125150D01*
X12303753Y-16125150D02*
X12275182Y-16125150D01*
X12275182Y-16125150D02*
X12256134Y-16134674D01*
X12256134Y-16134674D02*
X12246610Y-16144198D01*
X12456134Y-16258484D02*
X12437087Y-16248960D01*
X12437087Y-16248960D02*
X12427563Y-16239436D01*
X12427563Y-16239436D02*
X12418039Y-16220388D01*
X12418039Y-16220388D02*
X12418039Y-16163246D01*
X12418039Y-16163246D02*
X12427563Y-16144198D01*
X12427563Y-16144198D02*
X12437087Y-16134674D01*
X12437087Y-16134674D02*
X12456134Y-16125150D01*
X12456134Y-16125150D02*
X12484706Y-16125150D01*
X12484706Y-16125150D02*
X12503753Y-16134674D01*
X12503753Y-16134674D02*
X12513277Y-16144198D01*
X12513277Y-16144198D02*
X12522801Y-16163246D01*
X12522801Y-16163246D02*
X12522801Y-16220388D01*
X12522801Y-16220388D02*
X12513277Y-16239436D01*
X12513277Y-16239436D02*
X12503753Y-16248960D01*
X12503753Y-16248960D02*
X12484706Y-16258484D01*
X12484706Y-16258484D02*
X12456134Y-16258484D01*
X12637087Y-16258484D02*
X12618039Y-16248960D01*
X12618039Y-16248960D02*
X12608515Y-16229912D01*
X12608515Y-16229912D02*
X12608515Y-16058484D01*
X12789468Y-16248960D02*
X12770420Y-16258484D01*
X12770420Y-16258484D02*
X12732325Y-16258484D01*
X12732325Y-16258484D02*
X12713277Y-16248960D01*
X12713277Y-16248960D02*
X12703753Y-16229912D01*
X12703753Y-16229912D02*
X12703753Y-16153722D01*
X12703753Y-16153722D02*
X12713277Y-16134674D01*
X12713277Y-16134674D02*
X12732325Y-16125150D01*
X12732325Y-16125150D02*
X12770420Y-16125150D01*
X12770420Y-16125150D02*
X12789468Y-16134674D01*
X12789468Y-16134674D02*
X12798991Y-16153722D01*
X12798991Y-16153722D02*
X12798991Y-16172769D01*
X12798991Y-16172769D02*
X12703753Y-16191817D01*
X12875182Y-16248960D02*
X12894230Y-16258484D01*
X12894230Y-16258484D02*
X12932325Y-16258484D01*
X12932325Y-16258484D02*
X12951372Y-16248960D01*
X12951372Y-16248960D02*
X12960896Y-16229912D01*
X12960896Y-16229912D02*
X12960896Y-16220388D01*
X12960896Y-16220388D02*
X12951372Y-16201341D01*
X12951372Y-16201341D02*
X12932325Y-16191817D01*
X12932325Y-16191817D02*
X12903753Y-16191817D01*
X12903753Y-16191817D02*
X12884706Y-16182293D01*
X12884706Y-16182293D02*
X12875182Y-16163246D01*
X12875182Y-16163246D02*
X12875182Y-16153722D01*
X12875182Y-16153722D02*
X12884706Y-16134674D01*
X12884706Y-16134674D02*
X12903753Y-16125150D01*
X12903753Y-16125150D02*
X12932325Y-16125150D01*
X12932325Y-16125150D02*
X12951372Y-16134674D01*
X13027563Y-16334674D02*
X13037087Y-16325150D01*
X13037087Y-16325150D02*
X13056134Y-16296579D01*
X13056134Y-16296579D02*
X13065658Y-16277531D01*
X13065658Y-16277531D02*
X13075182Y-16248960D01*
X13075182Y-16248960D02*
X13084706Y-16201341D01*
X13084706Y-16201341D02*
X13084706Y-16163246D01*
X13084706Y-16163246D02*
X13075182Y-16115627D01*
X13075182Y-16115627D02*
X13065658Y-16087055D01*
X13065658Y-16087055D02*
X13056134Y-16068008D01*
X13056134Y-16068008D02*
X13037087Y-16039436D01*
X13037087Y-16039436D02*
X13027563Y-16029912D01*
X13389468Y-16334674D02*
X13379944Y-16325150D01*
X13379944Y-16325150D02*
X13360896Y-16296579D01*
X13360896Y-16296579D02*
X13351372Y-16277531D01*
X13351372Y-16277531D02*
X13341849Y-16248960D01*
X13341849Y-16248960D02*
X13332325Y-16201341D01*
X13332325Y-16201341D02*
X13332325Y-16163246D01*
X13332325Y-16163246D02*
X13341849Y-16115627D01*
X13341849Y-16115627D02*
X13351372Y-16087055D01*
X13351372Y-16087055D02*
X13360896Y-16068008D01*
X13360896Y-16068008D02*
X13379944Y-16039436D01*
X13379944Y-16039436D02*
X13389468Y-16029912D01*
X13465658Y-16125150D02*
X13465658Y-16258484D01*
X13465658Y-16144198D02*
X13475182Y-16134674D01*
X13475182Y-16134674D02*
X13494230Y-16125150D01*
X13494230Y-16125150D02*
X13522801Y-16125150D01*
X13522801Y-16125150D02*
X13541849Y-16134674D01*
X13541849Y-16134674D02*
X13551372Y-16153722D01*
X13551372Y-16153722D02*
X13551372Y-16258484D01*
X13675182Y-16258484D02*
X13656134Y-16248960D01*
X13656134Y-16248960D02*
X13646611Y-16239436D01*
X13646611Y-16239436D02*
X13637087Y-16220388D01*
X13637087Y-16220388D02*
X13637087Y-16163246D01*
X13637087Y-16163246D02*
X13646611Y-16144198D01*
X13646611Y-16144198D02*
X13656134Y-16134674D01*
X13656134Y-16134674D02*
X13675182Y-16125150D01*
X13675182Y-16125150D02*
X13703753Y-16125150D01*
X13703753Y-16125150D02*
X13722801Y-16134674D01*
X13722801Y-16134674D02*
X13732325Y-16144198D01*
X13732325Y-16144198D02*
X13741849Y-16163246D01*
X13741849Y-16163246D02*
X13741849Y-16220388D01*
X13741849Y-16220388D02*
X13732325Y-16239436D01*
X13732325Y-16239436D02*
X13722801Y-16248960D01*
X13722801Y-16248960D02*
X13703753Y-16258484D01*
X13703753Y-16258484D02*
X13675182Y-16258484D01*
X13798992Y-16125150D02*
X13875182Y-16125150D01*
X13827563Y-16058484D02*
X13827563Y-16229912D01*
X13827563Y-16229912D02*
X13837087Y-16248960D01*
X13837087Y-16248960D02*
X13856134Y-16258484D01*
X13856134Y-16258484D02*
X13875182Y-16258484D01*
X14094230Y-16125150D02*
X14094230Y-16325150D01*
X14094230Y-16134674D02*
X14113277Y-16125150D01*
X14113277Y-16125150D02*
X14151373Y-16125150D01*
X14151373Y-16125150D02*
X14170420Y-16134674D01*
X14170420Y-16134674D02*
X14179944Y-16144198D01*
X14179944Y-16144198D02*
X14189468Y-16163246D01*
X14189468Y-16163246D02*
X14189468Y-16220388D01*
X14189468Y-16220388D02*
X14179944Y-16239436D01*
X14179944Y-16239436D02*
X14170420Y-16248960D01*
X14170420Y-16248960D02*
X14151373Y-16258484D01*
X14151373Y-16258484D02*
X14113277Y-16258484D01*
X14113277Y-16258484D02*
X14094230Y-16248960D01*
X14303753Y-16258484D02*
X14284706Y-16248960D01*
X14284706Y-16248960D02*
X14275182Y-16229912D01*
X14275182Y-16229912D02*
X14275182Y-16058484D01*
X14465658Y-16258484D02*
X14465658Y-16153722D01*
X14465658Y-16153722D02*
X14456134Y-16134674D01*
X14456134Y-16134674D02*
X14437087Y-16125150D01*
X14437087Y-16125150D02*
X14398992Y-16125150D01*
X14398992Y-16125150D02*
X14379944Y-16134674D01*
X14465658Y-16248960D02*
X14446611Y-16258484D01*
X14446611Y-16258484D02*
X14398992Y-16258484D01*
X14398992Y-16258484D02*
X14379944Y-16248960D01*
X14379944Y-16248960D02*
X14370420Y-16229912D01*
X14370420Y-16229912D02*
X14370420Y-16210865D01*
X14370420Y-16210865D02*
X14379944Y-16191817D01*
X14379944Y-16191817D02*
X14398992Y-16182293D01*
X14398992Y-16182293D02*
X14446611Y-16182293D01*
X14446611Y-16182293D02*
X14465658Y-16172769D01*
X14532325Y-16125150D02*
X14608515Y-16125150D01*
X14560896Y-16058484D02*
X14560896Y-16229912D01*
X14560896Y-16229912D02*
X14570420Y-16248960D01*
X14570420Y-16248960D02*
X14589468Y-16258484D01*
X14589468Y-16258484D02*
X14608515Y-16258484D01*
X14751373Y-16248960D02*
X14732325Y-16258484D01*
X14732325Y-16258484D02*
X14694230Y-16258484D01*
X14694230Y-16258484D02*
X14675182Y-16248960D01*
X14675182Y-16248960D02*
X14665658Y-16229912D01*
X14665658Y-16229912D02*
X14665658Y-16153722D01*
X14665658Y-16153722D02*
X14675182Y-16134674D01*
X14675182Y-16134674D02*
X14694230Y-16125150D01*
X14694230Y-16125150D02*
X14732325Y-16125150D01*
X14732325Y-16125150D02*
X14751373Y-16134674D01*
X14751373Y-16134674D02*
X14760896Y-16153722D01*
X14760896Y-16153722D02*
X14760896Y-16172769D01*
X14760896Y-16172769D02*
X14665658Y-16191817D01*
X14932325Y-16258484D02*
X14932325Y-16058484D01*
X14932325Y-16248960D02*
X14913277Y-16258484D01*
X14913277Y-16258484D02*
X14875182Y-16258484D01*
X14875182Y-16258484D02*
X14856134Y-16248960D01*
X14856134Y-16248960D02*
X14846611Y-16239436D01*
X14846611Y-16239436D02*
X14837087Y-16220388D01*
X14837087Y-16220388D02*
X14837087Y-16163246D01*
X14837087Y-16163246D02*
X14846611Y-16144198D01*
X14846611Y-16144198D02*
X14856134Y-16134674D01*
X14856134Y-16134674D02*
X14875182Y-16125150D01*
X14875182Y-16125150D02*
X14913277Y-16125150D01*
X14913277Y-16125150D02*
X14932325Y-16134674D01*
X15008515Y-16334674D02*
X15018039Y-16325150D01*
X15018039Y-16325150D02*
X15037087Y-16296579D01*
X15037087Y-16296579D02*
X15046611Y-16277531D01*
X15046611Y-16277531D02*
X15056134Y-16248960D01*
X15056134Y-16248960D02*
X15065658Y-16201341D01*
X15065658Y-16201341D02*
X15065658Y-16163246D01*
X15065658Y-16163246D02*
X15056134Y-16115627D01*
X15056134Y-16115627D02*
X15046611Y-16087055D01*
X15046611Y-16087055D02*
X15037087Y-16068008D01*
X15037087Y-16068008D02*
X15018039Y-16039436D01*
X15018039Y-16039436D02*
X15008515Y-16029912D01*
X8252500Y-16431000D02*
G75*
G02*
X8052500Y-16431000I-100000J0D01*
G01*
X8052500Y-16431000D02*
G75*
G02*
X8252500Y-16431000I100000J0D01*
G01*
X8494229Y-16322484D02*
X8618039Y-16322484D01*
X8618039Y-16322484D02*
X8551372Y-16398674D01*
X8551372Y-16398674D02*
X8579944Y-16398674D01*
X8579944Y-16398674D02*
X8598991Y-16408198D01*
X8598991Y-16408198D02*
X8608515Y-16417722D01*
X8608515Y-16417722D02*
X8618039Y-16436769D01*
X8618039Y-16436769D02*
X8618039Y-16484388D01*
X8618039Y-16484388D02*
X8608515Y-16503436D01*
X8608515Y-16503436D02*
X8598991Y-16512960D01*
X8598991Y-16512960D02*
X8579944Y-16522484D01*
X8579944Y-16522484D02*
X8522801Y-16522484D01*
X8522801Y-16522484D02*
X8503753Y-16512960D01*
X8503753Y-16512960D02*
X8494229Y-16503436D01*
X8703753Y-16503436D02*
X8713277Y-16512960D01*
X8713277Y-16512960D02*
X8703753Y-16522484D01*
X8703753Y-16522484D02*
X8694229Y-16512960D01*
X8694229Y-16512960D02*
X8703753Y-16503436D01*
X8703753Y-16503436D02*
X8703753Y-16522484D01*
X8884705Y-16389150D02*
X8884705Y-16522484D01*
X8837086Y-16312960D02*
X8789467Y-16455817D01*
X8789467Y-16455817D02*
X8913277Y-16455817D01*
X9084705Y-16322484D02*
X8989467Y-16322484D01*
X8989467Y-16322484D02*
X8979944Y-16417722D01*
X8979944Y-16417722D02*
X8989467Y-16408198D01*
X8989467Y-16408198D02*
X9008515Y-16398674D01*
X9008515Y-16398674D02*
X9056134Y-16398674D01*
X9056134Y-16398674D02*
X9075182Y-16408198D01*
X9075182Y-16408198D02*
X9084705Y-16417722D01*
X9084705Y-16417722D02*
X9094229Y-16436769D01*
X9094229Y-16436769D02*
X9094229Y-16484388D01*
X9094229Y-16484388D02*
X9084705Y-16503436D01*
X9084705Y-16503436D02*
X9075182Y-16512960D01*
X9075182Y-16512960D02*
X9056134Y-16522484D01*
X9056134Y-16522484D02*
X9008515Y-16522484D01*
X9008515Y-16522484D02*
X8989467Y-16512960D01*
X8989467Y-16512960D02*
X8979944Y-16503436D01*
X9218039Y-16322484D02*
X9237086Y-16322484D01*
X9237086Y-16322484D02*
X9256134Y-16332008D01*
X9256134Y-16332008D02*
X9265658Y-16341531D01*
X9265658Y-16341531D02*
X9275182Y-16360579D01*
X9275182Y-16360579D02*
X9284705Y-16398674D01*
X9284705Y-16398674D02*
X9284705Y-16446293D01*
X9284705Y-16446293D02*
X9275182Y-16484388D01*
X9275182Y-16484388D02*
X9265658Y-16503436D01*
X9265658Y-16503436D02*
X9256134Y-16512960D01*
X9256134Y-16512960D02*
X9237086Y-16522484D01*
X9237086Y-16522484D02*
X9218039Y-16522484D01*
X9218039Y-16522484D02*
X9198991Y-16512960D01*
X9198991Y-16512960D02*
X9189467Y-16503436D01*
X9189467Y-16503436D02*
X9179944Y-16484388D01*
X9179944Y-16484388D02*
X9170420Y-16446293D01*
X9170420Y-16446293D02*
X9170420Y-16398674D01*
X9170420Y-16398674D02*
X9179944Y-16360579D01*
X9179944Y-16360579D02*
X9189467Y-16341531D01*
X9189467Y-16341531D02*
X9198991Y-16332008D01*
X9198991Y-16332008D02*
X9218039Y-16322484D01*
X9370420Y-16522484D02*
X9370420Y-16389150D01*
X9370420Y-16408198D02*
X9379944Y-16398674D01*
X9379944Y-16398674D02*
X9398991Y-16389150D01*
X9398991Y-16389150D02*
X9427563Y-16389150D01*
X9427563Y-16389150D02*
X9446610Y-16398674D01*
X9446610Y-16398674D02*
X9456134Y-16417722D01*
X9456134Y-16417722D02*
X9456134Y-16522484D01*
X9456134Y-16417722D02*
X9465658Y-16398674D01*
X9465658Y-16398674D02*
X9484705Y-16389150D01*
X9484705Y-16389150D02*
X9513277Y-16389150D01*
X9513277Y-16389150D02*
X9532325Y-16398674D01*
X9532325Y-16398674D02*
X9541848Y-16417722D01*
X9541848Y-16417722D02*
X9541848Y-16522484D01*
X9637086Y-16522484D02*
X9637086Y-16389150D01*
X9637086Y-16408198D02*
X9646610Y-16398674D01*
X9646610Y-16398674D02*
X9665658Y-16389150D01*
X9665658Y-16389150D02*
X9694229Y-16389150D01*
X9694229Y-16389150D02*
X9713277Y-16398674D01*
X9713277Y-16398674D02*
X9722801Y-16417722D01*
X9722801Y-16417722D02*
X9722801Y-16522484D01*
X9722801Y-16417722D02*
X9732325Y-16398674D01*
X9732325Y-16398674D02*
X9751372Y-16389150D01*
X9751372Y-16389150D02*
X9779944Y-16389150D01*
X9779944Y-16389150D02*
X9798991Y-16398674D01*
X9798991Y-16398674D02*
X9808515Y-16417722D01*
X9808515Y-16417722D02*
X9808515Y-16522484D01*
X10198991Y-16312960D02*
X10027563Y-16570103D01*
X10456134Y-16322484D02*
X10475182Y-16322484D01*
X10475182Y-16322484D02*
X10494229Y-16332008D01*
X10494229Y-16332008D02*
X10503753Y-16341531D01*
X10503753Y-16341531D02*
X10513277Y-16360579D01*
X10513277Y-16360579D02*
X10522801Y-16398674D01*
X10522801Y-16398674D02*
X10522801Y-16446293D01*
X10522801Y-16446293D02*
X10513277Y-16484388D01*
X10513277Y-16484388D02*
X10503753Y-16503436D01*
X10503753Y-16503436D02*
X10494229Y-16512960D01*
X10494229Y-16512960D02*
X10475182Y-16522484D01*
X10475182Y-16522484D02*
X10456134Y-16522484D01*
X10456134Y-16522484D02*
X10437087Y-16512960D01*
X10437087Y-16512960D02*
X10427563Y-16503436D01*
X10427563Y-16503436D02*
X10418039Y-16484388D01*
X10418039Y-16484388D02*
X10408515Y-16446293D01*
X10408515Y-16446293D02*
X10408515Y-16398674D01*
X10408515Y-16398674D02*
X10418039Y-16360579D01*
X10418039Y-16360579D02*
X10427563Y-16341531D01*
X10427563Y-16341531D02*
X10437087Y-16332008D01*
X10437087Y-16332008D02*
X10456134Y-16322484D01*
X10608515Y-16503436D02*
X10618039Y-16512960D01*
X10618039Y-16512960D02*
X10608515Y-16522484D01*
X10608515Y-16522484D02*
X10598991Y-16512960D01*
X10598991Y-16512960D02*
X10608515Y-16503436D01*
X10608515Y-16503436D02*
X10608515Y-16522484D01*
X10808515Y-16522484D02*
X10694229Y-16522484D01*
X10751372Y-16522484D02*
X10751372Y-16322484D01*
X10751372Y-16322484D02*
X10732325Y-16351055D01*
X10732325Y-16351055D02*
X10713277Y-16370103D01*
X10713277Y-16370103D02*
X10694229Y-16379627D01*
X10875182Y-16322484D02*
X10998991Y-16322484D01*
X10998991Y-16322484D02*
X10932325Y-16398674D01*
X10932325Y-16398674D02*
X10960896Y-16398674D01*
X10960896Y-16398674D02*
X10979944Y-16408198D01*
X10979944Y-16408198D02*
X10989468Y-16417722D01*
X10989468Y-16417722D02*
X10998991Y-16436769D01*
X10998991Y-16436769D02*
X10998991Y-16484388D01*
X10998991Y-16484388D02*
X10989468Y-16503436D01*
X10989468Y-16503436D02*
X10979944Y-16512960D01*
X10979944Y-16512960D02*
X10960896Y-16522484D01*
X10960896Y-16522484D02*
X10903753Y-16522484D01*
X10903753Y-16522484D02*
X10884706Y-16512960D01*
X10884706Y-16512960D02*
X10875182Y-16503436D01*
X11179944Y-16322484D02*
X11084706Y-16322484D01*
X11084706Y-16322484D02*
X11075182Y-16417722D01*
X11075182Y-16417722D02*
X11084706Y-16408198D01*
X11084706Y-16408198D02*
X11103753Y-16398674D01*
X11103753Y-16398674D02*
X11151372Y-16398674D01*
X11151372Y-16398674D02*
X11170420Y-16408198D01*
X11170420Y-16408198D02*
X11179944Y-16417722D01*
X11179944Y-16417722D02*
X11189467Y-16436769D01*
X11189467Y-16436769D02*
X11189467Y-16484388D01*
X11189467Y-16484388D02*
X11179944Y-16503436D01*
X11179944Y-16503436D02*
X11170420Y-16512960D01*
X11170420Y-16512960D02*
X11151372Y-16522484D01*
X11151372Y-16522484D02*
X11103753Y-16522484D01*
X11103753Y-16522484D02*
X11084706Y-16512960D01*
X11084706Y-16512960D02*
X11075182Y-16503436D01*
X11303753Y-16408198D02*
X11284706Y-16398674D01*
X11284706Y-16398674D02*
X11275182Y-16389150D01*
X11275182Y-16389150D02*
X11265658Y-16370103D01*
X11265658Y-16370103D02*
X11265658Y-16360579D01*
X11265658Y-16360579D02*
X11275182Y-16341531D01*
X11275182Y-16341531D02*
X11284706Y-16332008D01*
X11284706Y-16332008D02*
X11303753Y-16322484D01*
X11303753Y-16322484D02*
X11341848Y-16322484D01*
X11341848Y-16322484D02*
X11360896Y-16332008D01*
X11360896Y-16332008D02*
X11370420Y-16341531D01*
X11370420Y-16341531D02*
X11379944Y-16360579D01*
X11379944Y-16360579D02*
X11379944Y-16370103D01*
X11379944Y-16370103D02*
X11370420Y-16389150D01*
X11370420Y-16389150D02*
X11360896Y-16398674D01*
X11360896Y-16398674D02*
X11341848Y-16408198D01*
X11341848Y-16408198D02*
X11303753Y-16408198D01*
X11303753Y-16408198D02*
X11284706Y-16417722D01*
X11284706Y-16417722D02*
X11275182Y-16427246D01*
X11275182Y-16427246D02*
X11265658Y-16446293D01*
X11265658Y-16446293D02*
X11265658Y-16484388D01*
X11265658Y-16484388D02*
X11275182Y-16503436D01*
X11275182Y-16503436D02*
X11284706Y-16512960D01*
X11284706Y-16512960D02*
X11303753Y-16522484D01*
X11303753Y-16522484D02*
X11341848Y-16522484D01*
X11341848Y-16522484D02*
X11360896Y-16512960D01*
X11360896Y-16512960D02*
X11370420Y-16503436D01*
X11370420Y-16503436D02*
X11379944Y-16484388D01*
X11379944Y-16484388D02*
X11379944Y-16446293D01*
X11379944Y-16446293D02*
X11370420Y-16427246D01*
X11370420Y-16427246D02*
X11360896Y-16417722D01*
X11360896Y-16417722D02*
X11341848Y-16408198D01*
X11456134Y-16322484D02*
X11456134Y-16360579D01*
X11532325Y-16322484D02*
X11532325Y-16360579D01*
X11827563Y-16598674D02*
X11818039Y-16589150D01*
X11818039Y-16589150D02*
X11798991Y-16560579D01*
X11798991Y-16560579D02*
X11789468Y-16541531D01*
X11789468Y-16541531D02*
X11779944Y-16512960D01*
X11779944Y-16512960D02*
X11770420Y-16465341D01*
X11770420Y-16465341D02*
X11770420Y-16427246D01*
X11770420Y-16427246D02*
X11779944Y-16379627D01*
X11779944Y-16379627D02*
X11789468Y-16351055D01*
X11789468Y-16351055D02*
X11798991Y-16332008D01*
X11798991Y-16332008D02*
X11818039Y-16303436D01*
X11818039Y-16303436D02*
X11827563Y-16293912D01*
X11894229Y-16341531D02*
X11903753Y-16332008D01*
X11903753Y-16332008D02*
X11922801Y-16322484D01*
X11922801Y-16322484D02*
X11970420Y-16322484D01*
X11970420Y-16322484D02*
X11989468Y-16332008D01*
X11989468Y-16332008D02*
X11998991Y-16341531D01*
X11998991Y-16341531D02*
X12008515Y-16360579D01*
X12008515Y-16360579D02*
X12008515Y-16379627D01*
X12008515Y-16379627D02*
X11998991Y-16408198D01*
X11998991Y-16408198D02*
X11884706Y-16522484D01*
X11884706Y-16522484D02*
X12008515Y-16522484D01*
X12246610Y-16522484D02*
X12246610Y-16322484D01*
X12332325Y-16522484D02*
X12332325Y-16417722D01*
X12332325Y-16417722D02*
X12322801Y-16398674D01*
X12322801Y-16398674D02*
X12303753Y-16389150D01*
X12303753Y-16389150D02*
X12275182Y-16389150D01*
X12275182Y-16389150D02*
X12256134Y-16398674D01*
X12256134Y-16398674D02*
X12246610Y-16408198D01*
X12456134Y-16522484D02*
X12437087Y-16512960D01*
X12437087Y-16512960D02*
X12427563Y-16503436D01*
X12427563Y-16503436D02*
X12418039Y-16484388D01*
X12418039Y-16484388D02*
X12418039Y-16427246D01*
X12418039Y-16427246D02*
X12427563Y-16408198D01*
X12427563Y-16408198D02*
X12437087Y-16398674D01*
X12437087Y-16398674D02*
X12456134Y-16389150D01*
X12456134Y-16389150D02*
X12484706Y-16389150D01*
X12484706Y-16389150D02*
X12503753Y-16398674D01*
X12503753Y-16398674D02*
X12513277Y-16408198D01*
X12513277Y-16408198D02*
X12522801Y-16427246D01*
X12522801Y-16427246D02*
X12522801Y-16484388D01*
X12522801Y-16484388D02*
X12513277Y-16503436D01*
X12513277Y-16503436D02*
X12503753Y-16512960D01*
X12503753Y-16512960D02*
X12484706Y-16522484D01*
X12484706Y-16522484D02*
X12456134Y-16522484D01*
X12637087Y-16522484D02*
X12618039Y-16512960D01*
X12618039Y-16512960D02*
X12608515Y-16493912D01*
X12608515Y-16493912D02*
X12608515Y-16322484D01*
X12789468Y-16512960D02*
X12770420Y-16522484D01*
X12770420Y-16522484D02*
X12732325Y-16522484D01*
X12732325Y-16522484D02*
X12713277Y-16512960D01*
X12713277Y-16512960D02*
X12703753Y-16493912D01*
X12703753Y-16493912D02*
X12703753Y-16417722D01*
X12703753Y-16417722D02*
X12713277Y-16398674D01*
X12713277Y-16398674D02*
X12732325Y-16389150D01*
X12732325Y-16389150D02*
X12770420Y-16389150D01*
X12770420Y-16389150D02*
X12789468Y-16398674D01*
X12789468Y-16398674D02*
X12798991Y-16417722D01*
X12798991Y-16417722D02*
X12798991Y-16436769D01*
X12798991Y-16436769D02*
X12703753Y-16455817D01*
X12875182Y-16512960D02*
X12894230Y-16522484D01*
X12894230Y-16522484D02*
X12932325Y-16522484D01*
X12932325Y-16522484D02*
X12951372Y-16512960D01*
X12951372Y-16512960D02*
X12960896Y-16493912D01*
X12960896Y-16493912D02*
X12960896Y-16484388D01*
X12960896Y-16484388D02*
X12951372Y-16465341D01*
X12951372Y-16465341D02*
X12932325Y-16455817D01*
X12932325Y-16455817D02*
X12903753Y-16455817D01*
X12903753Y-16455817D02*
X12884706Y-16446293D01*
X12884706Y-16446293D02*
X12875182Y-16427246D01*
X12875182Y-16427246D02*
X12875182Y-16417722D01*
X12875182Y-16417722D02*
X12884706Y-16398674D01*
X12884706Y-16398674D02*
X12903753Y-16389150D01*
X12903753Y-16389150D02*
X12932325Y-16389150D01*
X12932325Y-16389150D02*
X12951372Y-16398674D01*
X13027563Y-16598674D02*
X13037087Y-16589150D01*
X13037087Y-16589150D02*
X13056134Y-16560579D01*
X13056134Y-16560579D02*
X13065658Y-16541531D01*
X13065658Y-16541531D02*
X13075182Y-16512960D01*
X13075182Y-16512960D02*
X13084706Y-16465341D01*
X13084706Y-16465341D02*
X13084706Y-16427246D01*
X13084706Y-16427246D02*
X13075182Y-16379627D01*
X13075182Y-16379627D02*
X13065658Y-16351055D01*
X13065658Y-16351055D02*
X13056134Y-16332008D01*
X13056134Y-16332008D02*
X13037087Y-16303436D01*
X13037087Y-16303436D02*
X13027563Y-16293912D01*
X13389468Y-16598674D02*
X13379944Y-16589150D01*
X13379944Y-16589150D02*
X13360896Y-16560579D01*
X13360896Y-16560579D02*
X13351372Y-16541531D01*
X13351372Y-16541531D02*
X13341849Y-16512960D01*
X13341849Y-16512960D02*
X13332325Y-16465341D01*
X13332325Y-16465341D02*
X13332325Y-16427246D01*
X13332325Y-16427246D02*
X13341849Y-16379627D01*
X13341849Y-16379627D02*
X13351372Y-16351055D01*
X13351372Y-16351055D02*
X13360896Y-16332008D01*
X13360896Y-16332008D02*
X13379944Y-16303436D01*
X13379944Y-16303436D02*
X13389468Y-16293912D01*
X13465658Y-16389150D02*
X13465658Y-16522484D01*
X13465658Y-16408198D02*
X13475182Y-16398674D01*
X13475182Y-16398674D02*
X13494230Y-16389150D01*
X13494230Y-16389150D02*
X13522801Y-16389150D01*
X13522801Y-16389150D02*
X13541849Y-16398674D01*
X13541849Y-16398674D02*
X13551372Y-16417722D01*
X13551372Y-16417722D02*
X13551372Y-16522484D01*
X13675182Y-16522484D02*
X13656134Y-16512960D01*
X13656134Y-16512960D02*
X13646611Y-16503436D01*
X13646611Y-16503436D02*
X13637087Y-16484388D01*
X13637087Y-16484388D02*
X13637087Y-16427246D01*
X13637087Y-16427246D02*
X13646611Y-16408198D01*
X13646611Y-16408198D02*
X13656134Y-16398674D01*
X13656134Y-16398674D02*
X13675182Y-16389150D01*
X13675182Y-16389150D02*
X13703753Y-16389150D01*
X13703753Y-16389150D02*
X13722801Y-16398674D01*
X13722801Y-16398674D02*
X13732325Y-16408198D01*
X13732325Y-16408198D02*
X13741849Y-16427246D01*
X13741849Y-16427246D02*
X13741849Y-16484388D01*
X13741849Y-16484388D02*
X13732325Y-16503436D01*
X13732325Y-16503436D02*
X13722801Y-16512960D01*
X13722801Y-16512960D02*
X13703753Y-16522484D01*
X13703753Y-16522484D02*
X13675182Y-16522484D01*
X13798992Y-16389150D02*
X13875182Y-16389150D01*
X13827563Y-16322484D02*
X13827563Y-16493912D01*
X13827563Y-16493912D02*
X13837087Y-16512960D01*
X13837087Y-16512960D02*
X13856134Y-16522484D01*
X13856134Y-16522484D02*
X13875182Y-16522484D01*
X14094230Y-16389150D02*
X14094230Y-16589150D01*
X14094230Y-16398674D02*
X14113277Y-16389150D01*
X14113277Y-16389150D02*
X14151373Y-16389150D01*
X14151373Y-16389150D02*
X14170420Y-16398674D01*
X14170420Y-16398674D02*
X14179944Y-16408198D01*
X14179944Y-16408198D02*
X14189468Y-16427246D01*
X14189468Y-16427246D02*
X14189468Y-16484388D01*
X14189468Y-16484388D02*
X14179944Y-16503436D01*
X14179944Y-16503436D02*
X14170420Y-16512960D01*
X14170420Y-16512960D02*
X14151373Y-16522484D01*
X14151373Y-16522484D02*
X14113277Y-16522484D01*
X14113277Y-16522484D02*
X14094230Y-16512960D01*
X14303753Y-16522484D02*
X14284706Y-16512960D01*
X14284706Y-16512960D02*
X14275182Y-16493912D01*
X14275182Y-16493912D02*
X14275182Y-16322484D01*
X14465658Y-16522484D02*
X14465658Y-16417722D01*
X14465658Y-16417722D02*
X14456134Y-16398674D01*
X14456134Y-16398674D02*
X14437087Y-16389150D01*
X14437087Y-16389150D02*
X14398992Y-16389150D01*
X14398992Y-16389150D02*
X14379944Y-16398674D01*
X14465658Y-16512960D02*
X14446611Y-16522484D01*
X14446611Y-16522484D02*
X14398992Y-16522484D01*
X14398992Y-16522484D02*
X14379944Y-16512960D01*
X14379944Y-16512960D02*
X14370420Y-16493912D01*
X14370420Y-16493912D02*
X14370420Y-16474865D01*
X14370420Y-16474865D02*
X14379944Y-16455817D01*
X14379944Y-16455817D02*
X14398992Y-16446293D01*
X14398992Y-16446293D02*
X14446611Y-16446293D01*
X14446611Y-16446293D02*
X14465658Y-16436769D01*
X14532325Y-16389150D02*
X14608515Y-16389150D01*
X14560896Y-16322484D02*
X14560896Y-16493912D01*
X14560896Y-16493912D02*
X14570420Y-16512960D01*
X14570420Y-16512960D02*
X14589468Y-16522484D01*
X14589468Y-16522484D02*
X14608515Y-16522484D01*
X14751373Y-16512960D02*
X14732325Y-16522484D01*
X14732325Y-16522484D02*
X14694230Y-16522484D01*
X14694230Y-16522484D02*
X14675182Y-16512960D01*
X14675182Y-16512960D02*
X14665658Y-16493912D01*
X14665658Y-16493912D02*
X14665658Y-16417722D01*
X14665658Y-16417722D02*
X14675182Y-16398674D01*
X14675182Y-16398674D02*
X14694230Y-16389150D01*
X14694230Y-16389150D02*
X14732325Y-16389150D01*
X14732325Y-16389150D02*
X14751373Y-16398674D01*
X14751373Y-16398674D02*
X14760896Y-16417722D01*
X14760896Y-16417722D02*
X14760896Y-16436769D01*
X14760896Y-16436769D02*
X14665658Y-16455817D01*
X14932325Y-16522484D02*
X14932325Y-16322484D01*
X14932325Y-16512960D02*
X14913277Y-16522484D01*
X14913277Y-16522484D02*
X14875182Y-16522484D01*
X14875182Y-16522484D02*
X14856134Y-16512960D01*
X14856134Y-16512960D02*
X14846611Y-16503436D01*
X14846611Y-16503436D02*
X14837087Y-16484388D01*
X14837087Y-16484388D02*
X14837087Y-16427246D01*
X14837087Y-16427246D02*
X14846611Y-16408198D01*
X14846611Y-16408198D02*
X14856134Y-16398674D01*
X14856134Y-16398674D02*
X14875182Y-16389150D01*
X14875182Y-16389150D02*
X14913277Y-16389150D01*
X14913277Y-16389150D02*
X14932325Y-16398674D01*
X15008515Y-16598674D02*
X15018039Y-16589150D01*
X15018039Y-16589150D02*
X15037087Y-16560579D01*
X15037087Y-16560579D02*
X15046611Y-16541531D01*
X15046611Y-16541531D02*
X15056134Y-16512960D01*
X15056134Y-16512960D02*
X15065658Y-16465341D01*
X15065658Y-16465341D02*
X15065658Y-16427246D01*
X15065658Y-16427246D02*
X15056134Y-16379627D01*
X15056134Y-16379627D02*
X15046611Y-16351055D01*
X15046611Y-16351055D02*
X15037087Y-16332008D01*
X15037087Y-16332008D02*
X15018039Y-16303436D01*
X15018039Y-16303436D02*
X15008515Y-16293912D01*
X8152500Y-16651000D02*
X8152500Y-16851000D01*
X8052500Y-16751000D02*
X8252500Y-16751000D01*
X8598991Y-16709150D02*
X8598991Y-16842484D01*
X8551372Y-16632960D02*
X8503753Y-16775817D01*
X8503753Y-16775817D02*
X8627563Y-16775817D01*
X8703753Y-16823436D02*
X8713277Y-16832960D01*
X8713277Y-16832960D02*
X8703753Y-16842484D01*
X8703753Y-16842484D02*
X8694229Y-16832960D01*
X8694229Y-16832960D02*
X8703753Y-16823436D01*
X8703753Y-16823436D02*
X8703753Y-16842484D01*
X8894229Y-16642484D02*
X8798991Y-16642484D01*
X8798991Y-16642484D02*
X8789467Y-16737722D01*
X8789467Y-16737722D02*
X8798991Y-16728198D01*
X8798991Y-16728198D02*
X8818039Y-16718674D01*
X8818039Y-16718674D02*
X8865658Y-16718674D01*
X8865658Y-16718674D02*
X8884705Y-16728198D01*
X8884705Y-16728198D02*
X8894229Y-16737722D01*
X8894229Y-16737722D02*
X8903753Y-16756769D01*
X8903753Y-16756769D02*
X8903753Y-16804389D01*
X8903753Y-16804389D02*
X8894229Y-16823436D01*
X8894229Y-16823436D02*
X8884705Y-16832960D01*
X8884705Y-16832960D02*
X8865658Y-16842484D01*
X8865658Y-16842484D02*
X8818039Y-16842484D01*
X8818039Y-16842484D02*
X8798991Y-16832960D01*
X8798991Y-16832960D02*
X8789467Y-16823436D01*
X9027563Y-16642484D02*
X9046610Y-16642484D01*
X9046610Y-16642484D02*
X9065658Y-16652008D01*
X9065658Y-16652008D02*
X9075182Y-16661531D01*
X9075182Y-16661531D02*
X9084705Y-16680579D01*
X9084705Y-16680579D02*
X9094229Y-16718674D01*
X9094229Y-16718674D02*
X9094229Y-16766293D01*
X9094229Y-16766293D02*
X9084705Y-16804389D01*
X9084705Y-16804389D02*
X9075182Y-16823436D01*
X9075182Y-16823436D02*
X9065658Y-16832960D01*
X9065658Y-16832960D02*
X9046610Y-16842484D01*
X9046610Y-16842484D02*
X9027563Y-16842484D01*
X9027563Y-16842484D02*
X9008515Y-16832960D01*
X9008515Y-16832960D02*
X8998991Y-16823436D01*
X8998991Y-16823436D02*
X8989467Y-16804389D01*
X8989467Y-16804389D02*
X8979944Y-16766293D01*
X8979944Y-16766293D02*
X8979944Y-16718674D01*
X8979944Y-16718674D02*
X8989467Y-16680579D01*
X8989467Y-16680579D02*
X8998991Y-16661531D01*
X8998991Y-16661531D02*
X9008515Y-16652008D01*
X9008515Y-16652008D02*
X9027563Y-16642484D01*
X9218039Y-16642484D02*
X9237086Y-16642484D01*
X9237086Y-16642484D02*
X9256134Y-16652008D01*
X9256134Y-16652008D02*
X9265658Y-16661531D01*
X9265658Y-16661531D02*
X9275182Y-16680579D01*
X9275182Y-16680579D02*
X9284705Y-16718674D01*
X9284705Y-16718674D02*
X9284705Y-16766293D01*
X9284705Y-16766293D02*
X9275182Y-16804389D01*
X9275182Y-16804389D02*
X9265658Y-16823436D01*
X9265658Y-16823436D02*
X9256134Y-16832960D01*
X9256134Y-16832960D02*
X9237086Y-16842484D01*
X9237086Y-16842484D02*
X9218039Y-16842484D01*
X9218039Y-16842484D02*
X9198991Y-16832960D01*
X9198991Y-16832960D02*
X9189467Y-16823436D01*
X9189467Y-16823436D02*
X9179944Y-16804389D01*
X9179944Y-16804389D02*
X9170420Y-16766293D01*
X9170420Y-16766293D02*
X9170420Y-16718674D01*
X9170420Y-16718674D02*
X9179944Y-16680579D01*
X9179944Y-16680579D02*
X9189467Y-16661531D01*
X9189467Y-16661531D02*
X9198991Y-16652008D01*
X9198991Y-16652008D02*
X9218039Y-16642484D01*
X9370420Y-16842484D02*
X9370420Y-16709150D01*
X9370420Y-16728198D02*
X9379944Y-16718674D01*
X9379944Y-16718674D02*
X9398991Y-16709150D01*
X9398991Y-16709150D02*
X9427563Y-16709150D01*
X9427563Y-16709150D02*
X9446610Y-16718674D01*
X9446610Y-16718674D02*
X9456134Y-16737722D01*
X9456134Y-16737722D02*
X9456134Y-16842484D01*
X9456134Y-16737722D02*
X9465658Y-16718674D01*
X9465658Y-16718674D02*
X9484705Y-16709150D01*
X9484705Y-16709150D02*
X9513277Y-16709150D01*
X9513277Y-16709150D02*
X9532325Y-16718674D01*
X9532325Y-16718674D02*
X9541848Y-16737722D01*
X9541848Y-16737722D02*
X9541848Y-16842484D01*
X9637086Y-16842484D02*
X9637086Y-16709150D01*
X9637086Y-16728198D02*
X9646610Y-16718674D01*
X9646610Y-16718674D02*
X9665658Y-16709150D01*
X9665658Y-16709150D02*
X9694229Y-16709150D01*
X9694229Y-16709150D02*
X9713277Y-16718674D01*
X9713277Y-16718674D02*
X9722801Y-16737722D01*
X9722801Y-16737722D02*
X9722801Y-16842484D01*
X9722801Y-16737722D02*
X9732325Y-16718674D01*
X9732325Y-16718674D02*
X9751372Y-16709150D01*
X9751372Y-16709150D02*
X9779944Y-16709150D01*
X9779944Y-16709150D02*
X9798991Y-16718674D01*
X9798991Y-16718674D02*
X9808515Y-16737722D01*
X9808515Y-16737722D02*
X9808515Y-16842484D01*
X10198991Y-16632960D02*
X10027563Y-16890103D01*
X10456134Y-16642484D02*
X10475182Y-16642484D01*
X10475182Y-16642484D02*
X10494229Y-16652008D01*
X10494229Y-16652008D02*
X10503753Y-16661531D01*
X10503753Y-16661531D02*
X10513277Y-16680579D01*
X10513277Y-16680579D02*
X10522801Y-16718674D01*
X10522801Y-16718674D02*
X10522801Y-16766293D01*
X10522801Y-16766293D02*
X10513277Y-16804389D01*
X10513277Y-16804389D02*
X10503753Y-16823436D01*
X10503753Y-16823436D02*
X10494229Y-16832960D01*
X10494229Y-16832960D02*
X10475182Y-16842484D01*
X10475182Y-16842484D02*
X10456134Y-16842484D01*
X10456134Y-16842484D02*
X10437087Y-16832960D01*
X10437087Y-16832960D02*
X10427563Y-16823436D01*
X10427563Y-16823436D02*
X10418039Y-16804389D01*
X10418039Y-16804389D02*
X10408515Y-16766293D01*
X10408515Y-16766293D02*
X10408515Y-16718674D01*
X10408515Y-16718674D02*
X10418039Y-16680579D01*
X10418039Y-16680579D02*
X10427563Y-16661531D01*
X10427563Y-16661531D02*
X10437087Y-16652008D01*
X10437087Y-16652008D02*
X10456134Y-16642484D01*
X10608515Y-16823436D02*
X10618039Y-16832960D01*
X10618039Y-16832960D02*
X10608515Y-16842484D01*
X10608515Y-16842484D02*
X10598991Y-16832960D01*
X10598991Y-16832960D02*
X10608515Y-16823436D01*
X10608515Y-16823436D02*
X10608515Y-16842484D01*
X10808515Y-16842484D02*
X10694229Y-16842484D01*
X10751372Y-16842484D02*
X10751372Y-16642484D01*
X10751372Y-16642484D02*
X10732325Y-16671055D01*
X10732325Y-16671055D02*
X10713277Y-16690103D01*
X10713277Y-16690103D02*
X10694229Y-16699627D01*
X10875182Y-16642484D02*
X11008515Y-16642484D01*
X11008515Y-16642484D02*
X10922801Y-16842484D01*
X11065658Y-16642484D02*
X11198991Y-16642484D01*
X11198991Y-16642484D02*
X11113277Y-16842484D01*
X11265658Y-16661531D02*
X11275182Y-16652008D01*
X11275182Y-16652008D02*
X11294229Y-16642484D01*
X11294229Y-16642484D02*
X11341848Y-16642484D01*
X11341848Y-16642484D02*
X11360896Y-16652008D01*
X11360896Y-16652008D02*
X11370420Y-16661531D01*
X11370420Y-16661531D02*
X11379944Y-16680579D01*
X11379944Y-16680579D02*
X11379944Y-16699627D01*
X11379944Y-16699627D02*
X11370420Y-16728198D01*
X11370420Y-16728198D02*
X11256134Y-16842484D01*
X11256134Y-16842484D02*
X11379944Y-16842484D01*
X11456134Y-16642484D02*
X11456134Y-16680579D01*
X11532325Y-16642484D02*
X11532325Y-16680579D01*
X11827563Y-16918674D02*
X11818039Y-16909150D01*
X11818039Y-16909150D02*
X11798991Y-16880579D01*
X11798991Y-16880579D02*
X11789468Y-16861531D01*
X11789468Y-16861531D02*
X11779944Y-16832960D01*
X11779944Y-16832960D02*
X11770420Y-16785341D01*
X11770420Y-16785341D02*
X11770420Y-16747246D01*
X11770420Y-16747246D02*
X11779944Y-16699627D01*
X11779944Y-16699627D02*
X11789468Y-16671055D01*
X11789468Y-16671055D02*
X11798991Y-16652008D01*
X11798991Y-16652008D02*
X11818039Y-16623436D01*
X11818039Y-16623436D02*
X11827563Y-16613912D01*
X11989468Y-16709150D02*
X11989468Y-16842484D01*
X11941848Y-16632960D02*
X11894229Y-16775817D01*
X11894229Y-16775817D02*
X12018039Y-16775817D01*
X12246610Y-16842484D02*
X12246610Y-16642484D01*
X12332325Y-16842484D02*
X12332325Y-16737722D01*
X12332325Y-16737722D02*
X12322801Y-16718674D01*
X12322801Y-16718674D02*
X12303753Y-16709150D01*
X12303753Y-16709150D02*
X12275182Y-16709150D01*
X12275182Y-16709150D02*
X12256134Y-16718674D01*
X12256134Y-16718674D02*
X12246610Y-16728198D01*
X12456134Y-16842484D02*
X12437087Y-16832960D01*
X12437087Y-16832960D02*
X12427563Y-16823436D01*
X12427563Y-16823436D02*
X12418039Y-16804389D01*
X12418039Y-16804389D02*
X12418039Y-16747246D01*
X12418039Y-16747246D02*
X12427563Y-16728198D01*
X12427563Y-16728198D02*
X12437087Y-16718674D01*
X12437087Y-16718674D02*
X12456134Y-16709150D01*
X12456134Y-16709150D02*
X12484706Y-16709150D01*
X12484706Y-16709150D02*
X12503753Y-16718674D01*
X12503753Y-16718674D02*
X12513277Y-16728198D01*
X12513277Y-16728198D02*
X12522801Y-16747246D01*
X12522801Y-16747246D02*
X12522801Y-16804389D01*
X12522801Y-16804389D02*
X12513277Y-16823436D01*
X12513277Y-16823436D02*
X12503753Y-16832960D01*
X12503753Y-16832960D02*
X12484706Y-16842484D01*
X12484706Y-16842484D02*
X12456134Y-16842484D01*
X12637087Y-16842484D02*
X12618039Y-16832960D01*
X12618039Y-16832960D02*
X12608515Y-16813912D01*
X12608515Y-16813912D02*
X12608515Y-16642484D01*
X12789468Y-16832960D02*
X12770420Y-16842484D01*
X12770420Y-16842484D02*
X12732325Y-16842484D01*
X12732325Y-16842484D02*
X12713277Y-16832960D01*
X12713277Y-16832960D02*
X12703753Y-16813912D01*
X12703753Y-16813912D02*
X12703753Y-16737722D01*
X12703753Y-16737722D02*
X12713277Y-16718674D01*
X12713277Y-16718674D02*
X12732325Y-16709150D01*
X12732325Y-16709150D02*
X12770420Y-16709150D01*
X12770420Y-16709150D02*
X12789468Y-16718674D01*
X12789468Y-16718674D02*
X12798991Y-16737722D01*
X12798991Y-16737722D02*
X12798991Y-16756769D01*
X12798991Y-16756769D02*
X12703753Y-16775817D01*
X12875182Y-16832960D02*
X12894230Y-16842484D01*
X12894230Y-16842484D02*
X12932325Y-16842484D01*
X12932325Y-16842484D02*
X12951372Y-16832960D01*
X12951372Y-16832960D02*
X12960896Y-16813912D01*
X12960896Y-16813912D02*
X12960896Y-16804389D01*
X12960896Y-16804389D02*
X12951372Y-16785341D01*
X12951372Y-16785341D02*
X12932325Y-16775817D01*
X12932325Y-16775817D02*
X12903753Y-16775817D01*
X12903753Y-16775817D02*
X12884706Y-16766293D01*
X12884706Y-16766293D02*
X12875182Y-16747246D01*
X12875182Y-16747246D02*
X12875182Y-16737722D01*
X12875182Y-16737722D02*
X12884706Y-16718674D01*
X12884706Y-16718674D02*
X12903753Y-16709150D01*
X12903753Y-16709150D02*
X12932325Y-16709150D01*
X12932325Y-16709150D02*
X12951372Y-16718674D01*
X13027563Y-16918674D02*
X13037087Y-16909150D01*
X13037087Y-16909150D02*
X13056134Y-16880579D01*
X13056134Y-16880579D02*
X13065658Y-16861531D01*
X13065658Y-16861531D02*
X13075182Y-16832960D01*
X13075182Y-16832960D02*
X13084706Y-16785341D01*
X13084706Y-16785341D02*
X13084706Y-16747246D01*
X13084706Y-16747246D02*
X13075182Y-16699627D01*
X13075182Y-16699627D02*
X13065658Y-16671055D01*
X13065658Y-16671055D02*
X13056134Y-16652008D01*
X13056134Y-16652008D02*
X13037087Y-16623436D01*
X13037087Y-16623436D02*
X13027563Y-16613912D01*
X13389468Y-16918674D02*
X13379944Y-16909150D01*
X13379944Y-16909150D02*
X13360896Y-16880579D01*
X13360896Y-16880579D02*
X13351372Y-16861531D01*
X13351372Y-16861531D02*
X13341849Y-16832960D01*
X13341849Y-16832960D02*
X13332325Y-16785341D01*
X13332325Y-16785341D02*
X13332325Y-16747246D01*
X13332325Y-16747246D02*
X13341849Y-16699627D01*
X13341849Y-16699627D02*
X13351372Y-16671055D01*
X13351372Y-16671055D02*
X13360896Y-16652008D01*
X13360896Y-16652008D02*
X13379944Y-16623436D01*
X13379944Y-16623436D02*
X13389468Y-16613912D01*
X13465658Y-16709150D02*
X13465658Y-16842484D01*
X13465658Y-16728198D02*
X13475182Y-16718674D01*
X13475182Y-16718674D02*
X13494230Y-16709150D01*
X13494230Y-16709150D02*
X13522801Y-16709150D01*
X13522801Y-16709150D02*
X13541849Y-16718674D01*
X13541849Y-16718674D02*
X13551372Y-16737722D01*
X13551372Y-16737722D02*
X13551372Y-16842484D01*
X13675182Y-16842484D02*
X13656134Y-16832960D01*
X13656134Y-16832960D02*
X13646611Y-16823436D01*
X13646611Y-16823436D02*
X13637087Y-16804389D01*
X13637087Y-16804389D02*
X13637087Y-16747246D01*
X13637087Y-16747246D02*
X13646611Y-16728198D01*
X13646611Y-16728198D02*
X13656134Y-16718674D01*
X13656134Y-16718674D02*
X13675182Y-16709150D01*
X13675182Y-16709150D02*
X13703753Y-16709150D01*
X13703753Y-16709150D02*
X13722801Y-16718674D01*
X13722801Y-16718674D02*
X13732325Y-16728198D01*
X13732325Y-16728198D02*
X13741849Y-16747246D01*
X13741849Y-16747246D02*
X13741849Y-16804389D01*
X13741849Y-16804389D02*
X13732325Y-16823436D01*
X13732325Y-16823436D02*
X13722801Y-16832960D01*
X13722801Y-16832960D02*
X13703753Y-16842484D01*
X13703753Y-16842484D02*
X13675182Y-16842484D01*
X13798992Y-16709150D02*
X13875182Y-16709150D01*
X13827563Y-16642484D02*
X13827563Y-16813912D01*
X13827563Y-16813912D02*
X13837087Y-16832960D01*
X13837087Y-16832960D02*
X13856134Y-16842484D01*
X13856134Y-16842484D02*
X13875182Y-16842484D01*
X14094230Y-16709150D02*
X14094230Y-16909150D01*
X14094230Y-16718674D02*
X14113277Y-16709150D01*
X14113277Y-16709150D02*
X14151373Y-16709150D01*
X14151373Y-16709150D02*
X14170420Y-16718674D01*
X14170420Y-16718674D02*
X14179944Y-16728198D01*
X14179944Y-16728198D02*
X14189468Y-16747246D01*
X14189468Y-16747246D02*
X14189468Y-16804389D01*
X14189468Y-16804389D02*
X14179944Y-16823436D01*
X14179944Y-16823436D02*
X14170420Y-16832960D01*
X14170420Y-16832960D02*
X14151373Y-16842484D01*
X14151373Y-16842484D02*
X14113277Y-16842484D01*
X14113277Y-16842484D02*
X14094230Y-16832960D01*
X14303753Y-16842484D02*
X14284706Y-16832960D01*
X14284706Y-16832960D02*
X14275182Y-16813912D01*
X14275182Y-16813912D02*
X14275182Y-16642484D01*
X14465658Y-16842484D02*
X14465658Y-16737722D01*
X14465658Y-16737722D02*
X14456134Y-16718674D01*
X14456134Y-16718674D02*
X14437087Y-16709150D01*
X14437087Y-16709150D02*
X14398992Y-16709150D01*
X14398992Y-16709150D02*
X14379944Y-16718674D01*
X14465658Y-16832960D02*
X14446611Y-16842484D01*
X14446611Y-16842484D02*
X14398992Y-16842484D01*
X14398992Y-16842484D02*
X14379944Y-16832960D01*
X14379944Y-16832960D02*
X14370420Y-16813912D01*
X14370420Y-16813912D02*
X14370420Y-16794865D01*
X14370420Y-16794865D02*
X14379944Y-16775817D01*
X14379944Y-16775817D02*
X14398992Y-16766293D01*
X14398992Y-16766293D02*
X14446611Y-16766293D01*
X14446611Y-16766293D02*
X14465658Y-16756769D01*
X14532325Y-16709150D02*
X14608515Y-16709150D01*
X14560896Y-16642484D02*
X14560896Y-16813912D01*
X14560896Y-16813912D02*
X14570420Y-16832960D01*
X14570420Y-16832960D02*
X14589468Y-16842484D01*
X14589468Y-16842484D02*
X14608515Y-16842484D01*
X14751373Y-16832960D02*
X14732325Y-16842484D01*
X14732325Y-16842484D02*
X14694230Y-16842484D01*
X14694230Y-16842484D02*
X14675182Y-16832960D01*
X14675182Y-16832960D02*
X14665658Y-16813912D01*
X14665658Y-16813912D02*
X14665658Y-16737722D01*
X14665658Y-16737722D02*
X14675182Y-16718674D01*
X14675182Y-16718674D02*
X14694230Y-16709150D01*
X14694230Y-16709150D02*
X14732325Y-16709150D01*
X14732325Y-16709150D02*
X14751373Y-16718674D01*
X14751373Y-16718674D02*
X14760896Y-16737722D01*
X14760896Y-16737722D02*
X14760896Y-16756769D01*
X14760896Y-16756769D02*
X14665658Y-16775817D01*
X14932325Y-16842484D02*
X14932325Y-16642484D01*
X14932325Y-16832960D02*
X14913277Y-16842484D01*
X14913277Y-16842484D02*
X14875182Y-16842484D01*
X14875182Y-16842484D02*
X14856134Y-16832960D01*
X14856134Y-16832960D02*
X14846611Y-16823436D01*
X14846611Y-16823436D02*
X14837087Y-16804389D01*
X14837087Y-16804389D02*
X14837087Y-16747246D01*
X14837087Y-16747246D02*
X14846611Y-16728198D01*
X14846611Y-16728198D02*
X14856134Y-16718674D01*
X14856134Y-16718674D02*
X14875182Y-16709150D01*
X14875182Y-16709150D02*
X14913277Y-16709150D01*
X14913277Y-16709150D02*
X14932325Y-16718674D01*
X15008515Y-16918674D02*
X15018039Y-16909150D01*
X15018039Y-16909150D02*
X15037087Y-16880579D01*
X15037087Y-16880579D02*
X15046611Y-16861531D01*
X15046611Y-16861531D02*
X15056134Y-16832960D01*
X15056134Y-16832960D02*
X15065658Y-16785341D01*
X15065658Y-16785341D02*
X15065658Y-16747246D01*
X15065658Y-16747246D02*
X15056134Y-16699627D01*
X15056134Y-16699627D02*
X15046611Y-16671055D01*
X15046611Y-16671055D02*
X15037087Y-16652008D01*
X15037087Y-16652008D02*
X15018039Y-16623436D01*
X15018039Y-16623436D02*
X15008515Y-16613912D01*
M02*
